<svg xmlns="http://www.w3.org/2000/svg" fill="none" height="95" width="247" xmlns:v="https://vecta.io/nano"><rect fill="#262f3a" height="95" rx="8" width="247"/><path d="M26.064 32.884v-.024l2.58-2.4c.948-.864 1.368-1.5 1.368-2.376 0-1.56-1.116-2.592-2.712-2.592s-2.724 1.056-2.748 2.628h1.212c0-.912.636-1.524 1.536-1.524.888 0 1.512.6 1.512 1.488 0 .744-.492 1.2-1.392 2.016l-2.904 2.688V34h5.508v-1.116zm6.49-6.408h4.176V25.36h-5.364V34h1.188v-3.768h3.456v-1.116h-3.456zM42.963 34h1.296l-3.54-8.64h-1.2L35.967 34h1.236l.888-2.22h4.02zm-4.428-3.336l1.584-3.996h.024l1.536 3.996zM48 26.776c.444 0 .792-.348.792-.792s-.348-.804-.792-.804c-.456 0-.804.36-.804.804s.348.792.804.792zm-.564.948V34h1.116v-6.276zm7.548 4.548c0-1.296-1.008-1.608-1.968-1.836-.936-.24-1.8-.312-1.8-1.032 0-.504.516-.852 1.188-.852.792 0 1.26.432 1.308 1.008h1.2c-.108-1.224-1.152-1.956-2.52-1.956-1.308 0-2.328.792-2.328 1.872 0 1.308 1.128 1.632 2.148 1.872.9.216 1.62.384 1.62 1.008 0 .54-.552.816-1.248.816-.804 0-1.296-.372-1.38-1.068h-1.248c.096 1.284 1.104 2.016 2.664 2.016 1.368 0 2.364-.732 2.364-1.848zm9.1.348v-2.616c0-1.428-.984-2.4-2.58-2.4-1.548 0-2.58.756-2.652 2.028h1.164c.06-.624.612-1.104 1.464-1.104.84 0 1.488.504 1.488 1.356v.36l-1.98.048c-1.476.06-2.244.804-2.244 1.872 0 1.164.9 1.956 2.208 1.956.696 0 1.452-.24 2.016-.996h.024c0 .252.024.636.048.876h1.092c-.036-.276-.048-.732-.048-1.38zm-1.116-1.5v.24c0 1.176-.9 1.776-1.836 1.776-.744 0-1.224-.348-1.224-.96 0-.576.42-.924 1.332-.972l1.728-.084zm11.282-6h-1.116v3.48h-.024a2.57 2.57 0 0 0-2.064-.996c-1.704 0-2.904 1.296-2.904 3.252s1.2 3.264 2.904 3.264c.864 0 1.584-.384 2.064-1.008h.024V34h1.116zm-3.012 3.528c1.212 0 1.92.996 1.92 2.208 0 1.236-.708 2.208-1.92 2.208-1.14 0-1.932-.888-1.932-2.208 0-1.308.792-2.208 1.932-2.208zm7.278 4.464c-1.116 0-1.788-.828-1.908-1.896h4.896c0-2.244-1.176-3.6-3.048-3.612-1.788-.024-3.048 1.38-3.048 3.252 0 1.884 1.26 3.264 3.108 3.264 1.368 0 2.388-.672 2.784-1.932l-1.164-.168c-.204.576-.744 1.092-1.62 1.092zm-.072-4.5c1.056 0 1.68.9 1.8 1.68h-3.612c.132-.78.756-1.68 1.812-1.68zm9.312 4.008v-2.616c0-1.428-.984-2.4-2.58-2.4-1.548 0-2.58.756-2.652 2.028h1.164c.06-.624.612-1.104 1.464-1.104.84 0 1.488.504 1.488 1.356v.36l-1.98.048c-1.476.06-2.244.804-2.244 1.872 0 1.164.9 1.956 2.208 1.956.696 0 1.452-.24 2.016-.996h.024c0 .252.024.636.048.876h1.092c-.036-.276-.048-.732-.048-1.38zm-1.116-1.5v.24c0 1.176-.9 1.776-1.836 1.776-.744 0-1.224-.348-1.224-.96 0-.576.42-.924 1.332-.972l1.728-.084zm2.51-6V34h1.116v-8.88zm2.634 6.288h3.6V30.34h-3.6zm5.1 2.592h1.116v-.924h.024c.456.648 1.212 1.044 2.064 1.044 1.704 0 2.904-1.308 2.904-3.264s-1.2-3.252-2.904-3.252c-.852 0-1.608.396-2.064 1.032h-.024V25.12h-1.116zm3.024-5.352c1.128 0 1.92.9 1.92 2.208 0 1.32-.792 2.208-1.92 2.208-1.224 0-1.932-.972-1.932-2.208 0-1.212.708-2.208 1.932-2.208zm4.36-.924V34h1.116v-3.504c0-1.104.48-1.74 1.68-1.74.132 0 .3.012.444.048V27.7c-.132-.024-.3-.048-.432-.048-.78 0-1.368.36-1.668.9h-.024v-.828zm6.908 5.388c-1.116 0-1.788-.828-1.908-1.896h4.896c0-2.244-1.176-3.6-3.048-3.612-1.788-.024-3.048 1.38-3.048 3.252 0 1.884 1.26 3.264 3.108 3.264 1.368 0 2.388-.672 2.784-1.932l-1.164-.168c-.204.576-.744 1.092-1.62 1.092zm-.072-4.5c1.056 0 1.68.9 1.8 1.68h-3.612c.132-.78.756-1.68 1.812-1.68zm9.312 4.008v-2.616c0-1.428-.984-2.4-2.58-2.4-1.548 0-2.58.756-2.652 2.028h1.164c.06-.624.612-1.104 1.464-1.104.84 0 1.488.504 1.488 1.356v.36l-1.98.048c-1.476.06-2.244.804-2.244 1.872 0 1.164.9 1.956 2.208 1.956.696 0 1.452-.24 2.016-.996h.024c0 .252.024.636.048.876h1.092c-.036-.276-.048-.732-.048-1.38zm-1.116-1.5v.24c0 1.176-.9 1.776-1.836 1.776-.744 0-1.224-.348-1.224-.96 0-.576.42-.924 1.332-.972l1.728-.084zm7.635-3.396h-1.584l-2.4 2.556h-.024v-5.16h-1.116V34h1.116v-2.952h.024L125.508 34h1.584l-3.084-3.36zm3.448 5.388c-1.116 0-1.788-.828-1.908-1.896h4.896c0-2.244-1.176-3.6-3.048-3.612-1.788-.024-3.048 1.38-3.048 3.252 0 1.884 1.26 3.264 3.108 3.264 1.368 0 2.388-.672 2.784-1.932l-1.164-.168c-.204.576-.744 1.092-1.62 1.092zm-.072-4.5c1.056 0 1.68.9 1.8 1.68H128.5c.132-.78.756-1.68 1.812-1.68zm4.332-.888V34h1.116v-3.504c0-1.104.48-1.74 1.68-1.74.132 0 .3.012.444.048V27.7c-.132-.024-.3-.048-.432-.048-.78 0-1.368.36-1.668.9h-.024v-.828zm6.642.996h1.164V34h1.116v-5.28h1.704v-.996h-1.704v-.612c0-.876.516-1.08 1.092-1.08.204 0 .408.048.612.132v-1.032c-.18-.072-.468-.132-.732-.132-1.164 0-2.088.564-2.088 2.22v.504h-1.164zm7.675 5.4c1.824 0 3.192-1.44 3.192-3.252 0-1.824-1.368-3.264-3.192-3.264s-3.192 1.44-3.192 3.264c0 1.812 1.368 3.252 3.192 3.252zm0-1.032c-1.224 0-2.028-.984-2.028-2.22 0-1.248.804-2.22 2.028-2.22s2.028.972 2.028 2.22c0 1.236-.804 2.22-2.028 2.22zm4.468-5.364V34h1.116v-3.504c0-1.104.48-1.74 1.68-1.74.132 0 .3.012.444.048V27.7c-.132-.024-.3-.048-.432-.048-.78 0-1.368.36-1.668.9h-.024v-.828zm14-.12c-.9 0-1.668.408-2.136 1.08-.36-.684-.96-1.08-1.752-1.08-.696 0-1.284.276-1.74.924h-.024v-.804h-1.116V34h1.116v-3.54c0-1.032.624-1.824 1.512-1.824.72 0 1.224.444 1.224 1.344V34h1.116v-3.552c0-1.044.624-1.812 1.512-1.812.72 0 1.224.444 1.224 1.344V34h1.116v-4.116c0-1.344-.828-2.28-2.052-2.28zm6.492 5.508c-1.116 0-1.788-.828-1.908-1.896h4.896c0-2.244-1.176-3.6-3.048-3.612-1.788-.024-3.048 1.38-3.048 3.252 0 1.884 1.26 3.264 3.108 3.264 1.368 0 2.388-.672 2.784-1.932l-1.164-.168c-.204.576-.744 1.092-1.62 1.092zm-.072-4.5c1.056 0 1.68.9 1.8 1.68h-3.612c.132-.78.756-1.68 1.812-1.68z" fill="#fff"/><path d="M28.596 64.98c-1.704 0-2.904-1.284-2.904-3.3 0-2.004 1.2-3.3 2.904-3.3 1.188 0 2.148.672 2.52 1.764l1.236-.156c-.492-1.668-1.908-2.748-3.756-2.748-2.4 0-4.14 1.776-4.14 4.44s1.74 4.44 4.14 4.44c1.836 0 3.264-1.068 3.756-2.724l-1.236-.168c-.372 1.092-1.332 1.752-2.52 1.752zm7.12 1.14a2.32 2.32 0 0 0 1.872-.9h.024V66h1.116v-6.276h-1.116v3.564c0 1.02-.648 1.788-1.62 1.788-.804 0-1.296-.528-1.296-1.608v-3.744H33.58v3.9c0 1.56.804 2.496 2.136 2.496zm9.32-1.848c0-1.296-1.008-1.608-1.968-1.836-.936-.24-1.8-.312-1.8-1.032 0-.504.516-.852 1.188-.852.792 0 1.26.432 1.308 1.008h1.2c-.108-1.224-1.152-1.956-2.52-1.956-1.308 0-2.328.792-2.328 1.872 0 1.308 1.128 1.632 2.148 1.872.9.216 1.62.384 1.62 1.008 0 .54-.552.816-1.248.816-.804 0-1.296-.372-1.38-1.068h-1.248c.096 1.284 1.104 2.016 2.664 2.016 1.368 0 2.364-.732 2.364-1.848zm4.78-3.552v-.996H48.11v-2.088l-1.116.372v1.716H45.59v.996h1.404v3.168c0 1.644.924 2.172 2.088 2.172a2.1 2.1 0 0 0 .732-.132v-1.044a1.41 1.41 0 0 1-.612.132c-.576 0-1.092-.156-1.092-1.068V60.72zm3.99 5.4c1.824 0 3.192-1.44 3.192-3.252 0-1.824-1.368-3.264-3.192-3.264s-3.192 1.44-3.192 3.264c0 1.812 1.368 3.252 3.192 3.252zm0-1.032c-1.224 0-2.028-.984-2.028-2.22 0-1.248.804-2.22 2.028-2.22s2.028.972 2.028 2.22c0 1.236-.804 2.22-2.028 2.22zm11.237-5.484c-.9 0-1.668.408-2.136 1.08-.36-.684-.96-1.08-1.752-1.08-.696 0-1.284.276-1.74.924h-.024v-.804h-1.116V66h1.116v-3.54c0-1.032.624-1.824 1.512-1.824.72 0 1.224.444 1.224 1.344V66h1.116v-3.552c0-1.044.624-1.812 1.512-1.812.72 0 1.224.444 1.224 1.344V66h1.116v-4.116c0-1.344-.828-2.28-2.052-2.28zm6.492 5.508c-1.116 0-1.788-.828-1.908-1.896h4.896c0-2.244-1.176-3.6-3.048-3.612-1.788-.024-3.048 1.38-3.048 3.252 0 1.884 1.26 3.264 3.108 3.264 1.368 0 2.388-.672 2.784-1.932l-1.164-.168c-.204.576-.744 1.092-1.62 1.092zm-.072-4.5c1.056 0 1.68.9 1.8 1.68H69.65c.132-.78.756-1.68 1.812-1.68zm4.332-.888V66h1.116v-3.504c0-1.104.48-1.74 1.68-1.74.132 0 .3.012.444.048V59.7c-.132-.024-.3-.048-.432-.048-.78 0-1.368.36-1.668.9h-.024v-.828zm9.942 5.364c-1.176 0-1.896-.948-1.896-2.232 0-1.272.72-2.232 1.896-2.232.756 0 1.416.42 1.668 1.32l1.164-.156c-.384-1.44-1.452-2.184-2.82-2.184-1.86 0-3.072 1.38-3.072 3.252 0 1.884 1.212 3.264 3.072 3.264 1.368 0 2.436-.756 2.82-2.184l-1.164-.156c-.252.888-.912 1.308-1.668 1.308zm9.088-.468v-2.616c0-1.428-.984-2.4-2.58-2.4-1.548 0-2.58.756-2.652 2.028h1.164c.06-.624.612-1.104 1.464-1.104.84 0 1.488.504 1.488 1.356v.36l-1.98.048c-1.476.06-2.244.804-2.244 1.872 0 1.164.9 1.956 2.208 1.956.696 0 1.452-.24 2.016-.996h.024c0 .252.024.636.048.876h1.092c-.036-.276-.048-.732-.048-1.38zm-1.116-1.5v.24c0 1.176-.9 1.776-1.836 1.776-.744 0-1.224-.348-1.224-.96 0-.576.42-.924 1.332-.972l1.728-.084zm2.51-6V66h1.116v-8.88zm2.766 0V66h1.116v-8.88z" fill="#acacac"/></svg>