<svg xmlns="http://www.w3.org/2000/svg" fill="none" height="190" width="247" xmlns:v="https://vecta.io/nano"><rect fill="#262f3a" height="190" rx="8" width="247"/><path d="M24.804 27.616v11.688h2.508v-.996H25.92v-9.696h1.392v-.996zm4.55 9.492c.444 0 .804-.36.804-.792s-.36-.804-.804-.804-.792.372-.792.804a.8.8 0 0 0 .792.792zm2.965 0c.444 0 .804-.36.804-.792s-.36-.804-.804-.804-.792.372-.792.804a.8.8 0 0 0 .792.792zm2.965 0c.444 0 .804-.36.804-.792s-.36-.804-.804-.804-.792.372-.792.804a.8.8 0 0 0 .792.792zm4.56-9.492h-2.508v.996h1.392v9.696h-1.392v.996h2.508zm4.47.744V37h1.188v-8.64zm11.432-.24h-1.116v3.48h-.024a2.57 2.57 0 0 0-2.064-.996c-1.704 0-2.904 1.296-2.904 3.252s1.2 3.264 2.904 3.264c.864 0 1.584-.384 2.064-1.008h.024V37h1.116zm-3.012 3.528c1.212 0 1.92.996 1.92 2.208 0 1.236-.708 2.208-1.92 2.208-1.14 0-1.932-.888-1.932-2.208 0-1.308.792-2.208 1.932-2.208zm7.362 5.472c1.824 0 3.192-1.44 3.192-3.252 0-1.824-1.368-3.264-3.192-3.264s-3.192 1.44-3.192 3.264c0 1.812 1.368 3.252 3.192 3.252zm0-1.032c-1.224 0-2.028-.984-2.028-2.22 0-1.248.804-2.22 2.028-2.22s2.028.972 2.028 2.22c0 1.236-.804 2.22-2.028 2.22zm4.47-5.364V37h1.116v-3.564c0-1.02.672-1.8 1.68-1.8.804 0 1.344.468 1.344 1.728V37h1.116v-3.84c0-1.728-.948-2.556-2.196-2.556-.696 0-1.488.336-1.92.924h-.024v-.804zm6.88.24h.972l.144-2.604h-1.26zm6.27.756v-.996h-1.704v-2.088l-1.116.372v1.716h-1.404v.996h1.404v3.168c0 1.644.924 2.172 2.088 2.172a2.1 2.1 0 0 0 .732-.132v-1.044a1.41 1.41 0 0 1-.612.132c-.576 0-1.092-.156-1.092-1.068V31.72zm3.405 0h1.164V37h1.116v-5.28h1.704v-.996h-1.704v-.612c0-.876.516-1.08 1.092-1.08.204 0 .408.048.612.132v-1.032c-.18-.072-.468-.132-.732-.132-1.164 0-2.088.564-2.088 2.22v.504h-1.164zm7.6 4.392c-1.116 0-1.788-.828-1.908-1.896H91.7c0-2.244-1.176-3.6-3.048-3.612-1.788-.024-3.048 1.38-3.048 3.252 0 1.884 1.26 3.264 3.108 3.264 1.368 0 2.388-.672 2.784-1.932l-1.164-.168c-.204.576-.744 1.092-1.62 1.092zm-.072-4.5c1.056 0 1.68.9 1.8 1.68h-3.612c.132-.78.756-1.68 1.812-1.68zm7.197 4.5c-1.116 0-1.788-.828-1.908-1.896h4.896c0-2.244-1.176-3.6-3.048-3.612-1.788-.024-3.048 1.38-3.048 3.252 0 1.884 1.26 3.264 3.108 3.264 1.368 0 2.388-.672 2.784-1.932l-1.164-.168c-.204.576-.744 1.092-1.62 1.092zm-.072-4.5c1.056 0 1.68.9 1.8 1.68h-3.612c.132-.78.756-1.68 1.812-1.68zm4.332-3.492V37h1.116v-8.88zm4.906 2.604l2.52 6.276h1.188l2.568-6.276h-1.26l-1.86 4.956h-.024l-1.824-4.956zm9.713 5.388c-1.116 0-1.788-.828-1.908-1.896h4.896c0-2.244-1.176-3.6-3.048-3.612-1.788-.024-3.048 1.38-3.048 3.252 0 1.884 1.26 3.264 3.108 3.264 1.368 0 2.388-.672 2.784-1.932l-1.164-.168c-.204.576-.744 1.092-1.62 1.092zm-.072-4.5c1.056 0 1.68.9 1.8 1.68h-3.612c.132-.78.756-1.68 1.812-1.68zm4.332-.888V37h1.116v-3.504c0-1.104.48-1.74 1.68-1.74.132 0 .3.012.444.048V30.7c-.132-.024-.3-.048-.432-.048-.78 0-1.368.36-1.668.9h-.024v-.828zm8.937 0l-1.86 4.956h-.024l-1.824-4.956h-1.308l2.52 6.276-1.068 2.4h1.296l3.528-8.676zm9.7 4.548c0-1.296-1.008-1.608-1.968-1.836-.936-.24-1.8-.312-1.8-1.032 0-.504.516-.852 1.188-.852.792 0 1.26.432 1.308 1.008h1.2c-.108-1.224-1.152-1.956-2.52-1.956-1.308 0-2.328.792-2.328 1.872 0 1.308 1.128 1.632 2.148 1.872.9.216 1.62.384 1.62 1.008 0 .54-.552.816-1.248.816-.804 0-1.296-.372-1.38-1.068h-1.248c.096 1.284 1.104 2.016 2.664 2.016 1.368 0 2.364-.732 2.364-1.848zm6.253.348v-2.616c0-1.428-.984-2.4-2.58-2.4-1.548 0-2.58.756-2.652 2.028h1.164c.06-.624.612-1.104 1.464-1.104.84 0 1.488.504 1.488 1.356v.36l-1.98.048c-1.476.06-2.244.804-2.244 1.872 0 1.164.9 1.956 2.208 1.956.696 0 1.452-.24 2.016-.996h.024c0 .252.024.636.048.876h1.092c-.036-.276-.048-.732-.048-1.38zm-1.116-1.5v.24c0 1.176-.9 1.776-1.836 1.776-.744 0-1.224-.348-1.224-.96 0-.576.42-.924 1.332-.972l1.728-.084zm2.087-2.4H146V37h1.116v-5.28h1.704v-.996h-1.704v-.612c0-.876.516-1.08 1.092-1.08.204 0 .408.048.612.132v-1.032c-.18-.072-.468-.132-.732-.132-1.164 0-2.088.564-2.088 2.22v.504h-1.164zm7.6 4.392c-1.116 0-1.788-.828-1.908-1.896h4.896c0-2.244-1.176-3.6-3.048-3.612-1.788-.024-3.048 1.38-3.048 3.252 0 1.884 1.26 3.264 3.108 3.264 1.368 0 2.388-.672 2.784-1.932l-1.164-.168c-.204.576-.744 1.092-1.62 1.092zm-.072-4.5c1.056 0 1.68.9 1.8 1.68h-3.612c.132-.78.756-1.68 1.812-1.68zm9.256 5.508a2.32 2.32 0 0 0 1.872-.9h.024V37h1.116v-6.276h-1.116v3.564c0 1.02-.648 1.788-1.62 1.788-.804 0-1.296-.528-1.296-1.608v-3.744h-1.116v3.9c0 1.56.804 2.496 2.136 2.496zm9.318-1.848c0-1.296-1.008-1.608-1.968-1.836-.936-.24-1.8-.312-1.8-1.032 0-.504.516-.852 1.188-.852.792 0 1.26.432 1.308 1.008h1.2c-.108-1.224-1.152-1.956-2.52-1.956-1.308 0-2.328.792-2.328 1.872 0 1.308 1.128 1.632 2.148 1.872.9.216 1.62.384 1.62 1.008 0 .54-.552.816-1.248.816-.804 0-1.296-.372-1.38-1.068H165.9c.096 1.284 1.104 2.016 2.664 2.016 1.368 0 2.364-.732 2.364-1.848zm1.958-5.496c.444 0 .792-.348.792-.792s-.348-.804-.792-.804c-.456 0-.804.36-.804.804s.348.792.804.792zm-.564.948V37h1.116v-6.276zm2.88 0V37h1.116v-3.564c0-1.02.672-1.8 1.68-1.8.804 0 1.344.468 1.344 1.728V37h1.116v-3.84c0-1.728-.948-2.556-2.196-2.556-.696 0-1.488.336-1.92.924h-.024v-.804zm12.637 0h-1.116v.852h-.024c-.588-.672-1.248-.972-2.04-.972-1.728 0-2.868 1.32-2.868 3.096 0 1.764 1.14 3.084 2.868 3.084a2.55 2.55 0 0 0 2.04-.948h.024v.54c0 1.284-.636 2.136-1.848 2.136-.84 0-1.548-.444-1.788-1.296l-1.164.168c.372 1.308 1.44 2.136 2.952 2.136 1.764 0 2.964-1.188 2.964-3.264zm-3 5.016c-1.152 0-1.884-.936-1.884-2.04 0-1.116.732-2.052 1.884-2.052 1.14 0 1.872.936 1.872 2.052 0 1.104-.732 2.04-1.872 2.04zm8.195-7.56c-.456 0-.804.36-.804.804s.348.792.804.792.792-.348.792-.792-.336-.804-.792-.804zm-.564 2.544v6.708c0 .864-.504 1.056-1.08 1.056-.204 0-.42-.048-.624-.132v1.032c.18.072.468.132.744.132 1.164 0 2.076-.552 2.076-2.196v-6.6zm4.718 6.396a2.32 2.32 0 0 0 1.872-.9h.024V37h1.116v-6.276h-1.116v3.564c0 1.02-.648 1.788-1.62 1.788-.804 0-1.296-.528-1.296-1.608v-3.744h-1.116v3.9c0 1.56.804 2.496 2.136 2.496zm9.318-1.848c0-1.296-1.008-1.608-1.968-1.836-.936-.24-1.8-.312-1.8-1.032 0-.504.516-.852 1.188-.852.792 0 1.26.432 1.308 1.008h1.2c-.108-1.224-1.152-1.956-2.52-1.956-1.308 0-2.328.792-2.328 1.872 0 1.308 1.128 1.632 2.148 1.872.9.216 1.62.384 1.62 1.008 0 .54-.552.816-1.248.816-.804 0-1.296-.372-1.38-1.068h-1.248c.096 1.284 1.104 2.016 2.664 2.016 1.368 0 2.364-.732 2.364-1.848zm4.78-3.552v-.996h-1.704v-2.088l-1.116.372v1.716h-1.404v.996h1.404v3.168c0 1.644.924 2.172 2.088 2.172a2.1 2.1 0 0 0 .732-.132v-1.044a1.41 1.41 0 0 1-.612.132c-.576 0-1.092-.156-1.092-1.068V31.72zm-182.848 18v-.996h-1.704v-2.088l-1.116.372v1.716h-1.404v.996h1.404v3.168c0 1.644.924 2.172 2.088 2.172a2.1 2.1 0 0 0 .732-.132v-1.044a1.41 1.41 0 0 1-.612.132c-.576 0-1.092-.156-1.092-1.068V49.72zm4.157-1.116a2.39 2.39 0 0 0-1.86.924h-.024V46.12h-1.116V55h1.116v-3.564c0-1.02.648-1.8 1.656-1.8.792 0 1.296.456 1.296 1.644V55h1.116v-3.924c0-1.644-.936-2.472-2.184-2.472zm6.64 5.508c-1.116 0-1.788-.828-1.908-1.896h4.896c0-2.244-1.176-3.6-3.048-3.612-1.788-.024-3.048 1.38-3.048 3.252 0 1.884 1.26 3.264 3.108 3.264 1.368 0 2.388-.672 2.784-1.932l-1.164-.168c-.204.576-.744 1.092-1.62 1.092zm-.072-4.5c1.056 0 1.68.9 1.8 1.68h-3.612c.132-.78.756-1.68 1.812-1.68zm10.383 5.508c1.704 0 2.904-1.308 2.904-3.264s-1.2-3.252-2.904-3.252c-.852 0-1.584.384-2.064.996h-.024v-.876h-1.116v8.532h1.116v-3.144h.024c.48.624 1.212 1.008 2.064 1.008zm-.18-5.472c1.128 0 1.92.9 1.92 2.208 0 1.32-.792 2.208-1.92 2.208-1.224 0-1.932-.984-1.932-2.208s.708-2.208 1.932-2.208zm9.34 3.972v-2.616c0-1.428-.984-2.4-2.58-2.4-1.548 0-2.58.756-2.652 2.028h1.164c.06-.624.612-1.104 1.464-1.104.84 0 1.488.504 1.488 1.356v.36l-1.98.048c-1.476.06-2.244.804-2.244 1.872 0 1.164.9 1.956 2.208 1.956.696 0 1.452-.24 2.016-.996h.024c0 .252.024.636.048.876h1.092c-.036-.276-.048-.732-.048-1.38zm-1.116-1.5v.24c0 1.176-.9 1.776-1.836 1.776-.744 0-1.224-.348-1.224-.96 0-.576.42-.924 1.332-.972l1.728-.084zm7.355 1.152c0-1.296-1.008-1.608-1.968-1.836-.936-.24-1.8-.312-1.8-1.032 0-.504.516-.852 1.188-.852.792 0 1.26.432 1.308 1.008h1.2c-.108-1.224-1.152-1.956-2.52-1.956-1.308 0-2.328.792-2.328 1.872 0 1.308 1.128 1.632 2.148 1.872.9.216 1.62.384 1.62 1.008 0 .54-.552.816-1.248.816-.804 0-1.296-.372-1.38-1.068h-1.248c.096 1.284 1.104 2.016 2.664 2.016 1.368 0 2.364-.732 2.364-1.848zm5.94 0c0-1.296-1.008-1.608-1.968-1.836-.936-.24-1.8-.312-1.8-1.032 0-.504.516-.852 1.188-.852.792 0 1.26.432 1.308 1.008h1.2c-.108-1.224-1.152-1.956-2.52-1.956-1.308 0-2.328.792-2.328 1.872 0 1.308 1.128 1.632 2.148 1.872.9.216 1.62.384 1.62 1.008 0 .54-.552.816-1.248.816-.804 0-1.296-.372-1.38-1.068h-1.248c.096 1.284 1.104 2.016 2.664 2.016 1.368 0 2.364-.732 2.364-1.848zm10.135-4.548h-1.236l-1.392 4.944h-.024l-1.656-4.944h-1.08l-1.62 4.944h-.024L72.5 48.724h-1.284L73.33 55h1.296l1.548-4.692L77.757 55h1.248zm3.52 6.396c1.824 0 3.192-1.44 3.192-3.252 0-1.824-1.368-3.264-3.192-3.264s-3.192 1.44-3.192 3.264c0 1.812 1.368 3.252 3.192 3.252zm0-1.032c-1.224 0-2.028-.984-2.028-2.22 0-1.248.804-2.22 2.028-2.22s2.028.972 2.028 2.22c0 1.236-.804 2.22-2.028 2.22zm4.47-5.364V55h1.116v-3.504c0-1.104.48-1.74 1.68-1.74.132 0 .3.012.444.048V48.7c-.132-.024-.3-.048-.432-.048-.78 0-1.368.36-1.668.9h-.024v-.828zm9.908-2.604h-1.116v3.48h-.024a2.57 2.57 0 0 0-2.064-.996c-1.704 0-2.904 1.296-2.904 3.252s1.2 3.264 2.904 3.264c.864 0 1.584-.384 2.064-1.008h.024V55h1.116zm-3.012 3.528c1.212 0 1.92.996 1.92 2.208 0 1.236-.708 2.208-1.92 2.208-1.14 0-1.932-.888-1.932-2.208 0-1.308.792-2.208 1.932-2.208zm11.118.072v-.996h-1.704v-2.088l-1.116.372v1.716h-1.404v.996h1.404v3.168c0 1.644.924 2.172 2.088 2.172a2.1 2.1 0 0 0 .732-.132v-1.044a1.41 1.41 0 0 1-.612.132c-.576 0-1.092-.156-1.092-1.068V49.72zm3.99 5.4c1.824 0 3.192-1.44 3.192-3.252 0-1.824-1.368-3.264-3.192-3.264s-3.192 1.44-3.192 3.264c0 1.812 1.368 3.252 3.192 3.252zm0-1.032c-1.224 0-2.028-.984-2.028-2.22 0-1.248.804-2.22 2.028-2.22s2.028.972 2.028 2.22c0 1.236-.804 2.22-2.028 2.22zm7.317-7.968V55h1.116v-8.88zm5.48 9c1.824 0 3.192-1.44 3.192-3.252 0-1.824-1.368-3.264-3.192-3.264s-3.192 1.44-3.192 3.264c0 1.812 1.368 3.252 3.192 3.252zm0-1.032c-1.224 0-2.028-.984-2.028-2.22 0-1.248.804-2.22 2.028-2.22s2.028.972 2.028 2.22c0 1.236-.804 2.22-2.028 2.22zm10.274-5.364h-1.116v.852h-.024c-.588-.672-1.248-.972-2.04-.972-1.728 0-2.868 1.32-2.868 3.096 0 1.764 1.14 3.084 2.868 3.084a2.55 2.55 0 0 0 2.04-.948h.024v.54c0 1.284-.636 2.136-1.848 2.136-.84 0-1.548-.444-1.788-1.296l-1.164.168c.372 1.308 1.44 2.136 2.952 2.136 1.764 0 2.964-1.188 2.964-3.264zm-3 5.016c-1.152 0-1.884-.936-1.884-2.04 0-1.116.732-2.052 1.884-2.052 1.14 0 1.872.936 1.872 2.052 0 1.104-.732 2.04-1.872 2.04zm8.05-5.964c.444 0 .792-.348.792-.792s-.348-.804-.792-.804c-.456 0-.804.36-.804.804s.348.792.804.792zm-.564.948V55h1.116v-6.276zm2.88 0V55h1.116v-3.564c0-1.02.672-1.8 1.68-1.8.804 0 1.344.468 1.344 1.728V55h1.116v-3.84c0-1.728-.948-2.556-2.196-2.556-.696 0-1.488.336-1.92.924h-.024v-.804zm7.492 6.384c.444 0 .804-.36.804-.792s-.36-.804-.804-.804-.792.372-.792.804a.8.8 0 0 0 .792.792zm5.14-9.492v11.688h2.508v-.996H155.2v-9.696h1.392v-.996zm4.55 9.492c.444 0 .804-.36.804-.792s-.36-.804-.804-.804-.792.372-.792.804a.8.8 0 0 0 .792.792zm2.965 0c.444 0 .804-.36.804-.792s-.36-.804-.804-.804-.792.372-.792.804a.8.8 0 0 0 .792.792zm2.965 0c.444 0 .804-.36.804-.792s-.36-.804-.804-.804-.792.372-.792.804a.8.8 0 0 0 .792.792zm4.56-9.492h-2.508v.996h1.392v9.696h-1.392v.996h2.508zm5.658 1.86h4.176V46.36h-5.364V55h1.188v-3.768h3.456v-1.116h-3.456zm7.68 7.644c1.824 0 3.192-1.44 3.192-3.252 0-1.824-1.368-3.264-3.192-3.264s-3.192 1.44-3.192 3.264c0 1.812 1.368 3.252 3.192 3.252zm0-1.032c-1.224 0-2.028-.984-2.028-2.22 0-1.248.804-2.22 2.028-2.22s2.028.972 2.028 2.22c0 1.236-.804 2.22-2.028 2.22zm4.47-5.364V55h1.116v-3.504c0-1.104.48-1.74 1.68-1.74.132 0 .3.012.444.048V48.7c-.132-.024-.3-.048-.432-.048-.78 0-1.368.36-1.668.9h-.024v-.828zm14-.12c-.9 0-1.668.408-2.136 1.08-.36-.684-.96-1.08-1.752-1.08-.696 0-1.284.276-1.74.924h-.024v-.804h-1.116V55h1.116v-3.54c0-1.032.624-1.824 1.512-1.824.72 0 1.224.444 1.224 1.344V55h1.116v-3.552c0-1.044.624-1.812 1.512-1.812.72 0 1.224.444 1.224 1.344V55h1.116v-4.116c0-1.344-.828-2.28-2.052-2.28zm6.492 5.508c-1.116 0-1.788-.828-1.908-1.896h4.896c0-2.244-1.176-3.6-3.048-3.612-1.788-.024-3.048 1.38-3.048 3.252 0 1.884 1.26 3.264 3.108 3.264 1.368 0 2.388-.672 2.784-1.932l-1.164-.168c-.204.576-.744 1.092-1.62 1.092zm-.072-4.5c1.056 0 1.68.9 1.8 1.68h-3.612c.132-.78.756-1.68 1.812-1.68zm7.864-1.836c.444 0 .792-.348.792-.792s-.348-.804-.792-.804c-.456 0-.804.36-.804.804s.348.792.804.792zm-.564.948V55h1.116v-6.276zm6.504.996v-.996h-1.704v-2.088l-1.116.372v1.716h-1.404v.996h1.404v3.168c0 1.644.924 2.172 2.088 2.172a2.1 2.1 0 0 0 .732-.132v-1.044a1.41 1.41 0 0 1-.612.132c-.576 0-1.092-.156-1.092-1.068V49.72zM25.5 65.776c.444 0 .792-.348.792-.792s-.348-.804-.792-.804c-.456 0-.804.36-.804.804s.348.792.804.792zm-.564.948V73h1.116v-6.276zm7.548 4.548c0-1.296-1.008-1.608-1.968-1.836-.936-.24-1.8-.312-1.8-1.032 0-.504.516-.852 1.188-.852.792 0 1.26.432 1.308 1.008h1.2c-.108-1.224-1.152-1.956-2.52-1.956-1.308 0-2.328.792-2.328 1.872 0 1.308 1.128 1.632 2.148 1.872.9.216 1.62.384 1.62 1.008 0 .54-.552.816-1.248.816-.804 0-1.296-.372-1.38-1.068h-1.248c.096 1.284 1.104 2.016 2.664 2.016 1.368 0 2.364-.732 2.364-1.848zm6.665 1.848c.864 0 1.584-.384 2.064-1.008h.024v3.144h1.116v-8.532h-1.116v.876h-.024a2.57 2.57 0 0 0-2.064-.996c-1.704 0-2.904 1.296-2.904 3.252s1.2 3.264 2.904 3.264zm.192-5.472c1.212 0 1.92.984 1.92 2.208s-.708 2.208-1.92 2.208c-1.14 0-1.932-.888-1.932-2.208 0-1.308.792-2.208 1.932-2.208zm6.723 5.472a2.32 2.32 0 0 0 1.872-.9h.024V73h1.116v-6.276H47.96v3.564c0 1.02-.648 1.788-1.62 1.788-.804 0-1.296-.528-1.296-1.608v-3.744h-1.116v3.9c0 1.56.804 2.496 2.136 2.496zm5.334-7.344c.444 0 .792-.348.792-.792s-.348-.804-.792-.804c-.456 0-.804.36-.804.804s.348.792.804.792zm-.564.948V73h1.116v-6.276zm6.504.996v-.996h-1.704v-2.088l-1.116.372v1.716h-1.404v.996h1.404v3.168c0 1.644.924 2.172 2.088 2.172a2.1 2.1 0 0 0 .732-.132v-1.044a1.41 1.41 0 0 1-.612.132c-.576 0-1.092-.156-1.092-1.068V67.72zm3.905 4.392c-1.116 0-1.788-.828-1.908-1.896h4.896c0-2.244-1.176-3.6-3.048-3.612-1.788-.024-3.048 1.38-3.048 3.252 0 1.884 1.26 3.264 3.108 3.264 1.368 0 2.388-.672 2.784-1.932l-1.164-.168c-.204.576-.744 1.092-1.62 1.092zm-.072-4.5c1.056 0 1.68.9 1.8 1.68H59.36c.132-.78.756-1.68 1.812-1.68zm12.16 4.008v-2.616c0-1.428-.984-2.4-2.58-2.4-1.548 0-2.58.756-2.652 2.028h1.164c.06-.624.612-1.104 1.464-1.104.84 0 1.488.504 1.488 1.356v.36l-1.98.048c-1.476.06-2.244.804-2.244 1.872 0 1.164.9 1.956 2.208 1.956.696 0 1.452-.24 2.016-.996h.024c0 .252.024.636.048.876h1.092c-.036-.276-.048-.732-.048-1.38zm-1.116-1.5v.24c0 1.176-.9 1.776-1.836 1.776-.744 0-1.224-.348-1.224-.96 0-.576.42-.924 1.332-.972l1.728-.084zm4.934-2.4h1.164V73h1.116v-5.28h1.704v-.996H79.43v-.612c0-.876.516-1.08 1.092-1.08.204 0 .408.048.612.132v-1.032c-.18-.072-.468-.132-.732-.132-1.164 0-2.088.564-2.088 2.22v.504H77.15zm7.27 5.4a2.32 2.32 0 0 0 1.872-.9h.024V73h1.116v-6.276h-1.116v3.564c0 1.02-.648 1.788-1.62 1.788-.804 0-1.296-.528-1.296-1.608v-3.744h-1.116v3.9c0 1.56.804 2.496 2.136 2.496zm4.65-6.396V73h1.116v-3.564c0-1.02.672-1.8 1.68-1.8.804 0 1.344.468 1.344 1.728V73h1.116v-3.84c0-1.728-.948-2.556-2.196-2.556-.696 0-1.488.336-1.92.924h-.024v-.804zm12.697-2.604h-1.116v3.48h-.024a2.57 2.57 0 0 0-2.064-.996c-1.704 0-2.904 1.296-2.904 3.252s1.2 3.264 2.904 3.264c.864 0 1.584-.384 2.064-1.008h.024V73h1.116zm-3.012 3.528c1.212 0 1.92.996 1.92 2.208 0 1.236-.708 2.208-1.92 2.208-1.14 0-1.932-.888-1.932-2.208 0-1.308.792-2.208 1.932-2.208zm9.627 3.972v-2.616c0-1.428-.984-2.4-2.58-2.4-1.548 0-2.58.756-2.652 2.028h1.164c.06-.624.612-1.104 1.464-1.104.84 0 1.488.504 1.488 1.356v.36l-1.98.048c-1.476.06-2.244.804-2.244 1.872 0 1.164.9 1.956 2.208 1.956.696 0 1.452-.24 2.016-.996h.024c0 .252.024.636.048.876h1.092c-.036-.276-.048-.732-.048-1.38zm-1.116-1.5v.24c0 1.176-.9 1.776-1.836 1.776-.744 0-1.224-.348-1.224-.96 0-.576.42-.924 1.332-.972l1.728-.084zm9.455-3.516c-.9 0-1.668.408-2.136 1.08-.36-.684-.96-1.08-1.752-1.08-.696 0-1.284.276-1.74.924h-.024v-.804h-1.116V73h1.116v-3.54c0-1.032.624-1.824 1.512-1.824.72 0 1.224.444 1.224 1.344V73h1.116v-3.552c0-1.044.624-1.812 1.512-1.812.72 0 1.224.444 1.224 1.344V73h1.116v-4.116c0-1.344-.828-2.28-2.052-2.28zm6.49 5.508c-1.116 0-1.788-.828-1.908-1.896h4.896c0-2.244-1.176-3.6-3.048-3.612-1.788-.024-3.048 1.38-3.048 3.252 0 1.884 1.26 3.264 3.108 3.264 1.368 0 2.388-.672 2.784-1.932l-1.164-.168c-.204.576-.744 1.092-1.62 1.092zm-.072-4.5c1.056 0 1.68.9 1.8 1.68h-3.612c.132-.78.756-1.68 1.812-1.68zm4.332-.888V73h1.116v-3.564c0-1.02.672-1.8 1.68-1.8.804 0 1.344.468 1.344 1.728V73h1.116v-3.84c0-1.728-.948-2.556-2.196-2.556-.696 0-1.488.336-1.92.924h-.024v-.804zm10.222.996v-.996H136v-2.088l-1.116.372v1.716h-1.404v.996h1.404v3.168c0 1.644.924 2.172 2.088 2.172a2.1 2.1 0 0 0 .732-.132v-1.044a1.41 1.41 0 0 1-.612.132c-.576 0-1.092-.156-1.092-1.068V67.72zm6.196 3.9v-2.616c0-1.428-.984-2.4-2.58-2.4-1.548 0-2.58.756-2.652 2.028h1.164c.06-.624.612-1.104 1.464-1.104.84 0 1.488.504 1.488 1.356v.36l-1.98.048c-1.476.06-2.244.804-2.244 1.872 0 1.164.9 1.956 2.208 1.956.696 0 1.452-.24 2.016-.996h.024c0 .252.024.636.048.876h1.092c-.036-.276-.048-.732-.048-1.38zm-1.116-1.5v.24c0 1.176-.9 1.776-1.836 1.776-.744 0-1.224-.348-1.224-.96 0-.576.42-.924 1.332-.972l1.728-.084zm2.51-6V73h1.116v-8.88zm9.237 3.6v-.996h-1.704v-2.088l-1.116.372v1.716h-1.404v.996h1.404v3.168c0 1.644.924 2.172 2.088 2.172a2.1 2.1 0 0 0 .732-.132v-1.044a1.41 1.41 0 0 1-.612.132c-.576 0-1.092-.156-1.092-1.068V67.72zm4.157-1.116a2.39 2.39 0 0 0-1.86.924h-.024V64.12h-1.116V73h1.116v-3.564c0-1.02.648-1.8 1.656-1.8.792 0 1.296.456 1.296 1.644V73h1.116v-3.924c0-1.644-.936-2.472-2.184-2.472zm4.458-.828c.444 0 .792-.348.792-.792s-.348-.804-.792-.804c-.456 0-.804.36-.804.804s.348.792.804.792zm-.564.948V73h1.116v-6.276zm2.88 0V73h1.116v-3.564c0-1.02.672-1.8 1.68-1.8.804 0 1.344.468 1.344 1.728V73h1.116v-3.84c0-1.728-.948-2.556-2.196-2.556-.696 0-1.488.336-1.92.924h-.024v-.804zm12.637 0h-1.116v.852h-.024c-.588-.672-1.248-.972-2.04-.972-1.728 0-2.868 1.32-2.868 3.096 0 1.764 1.14 3.084 2.868 3.084a2.55 2.55 0 0 0 2.04-.948h.024v.54c0 1.284-.636 2.136-1.848 2.136-.84 0-1.548-.444-1.788-1.296l-1.164.168c.372 1.308 1.44 2.136 2.952 2.136 1.764 0 2.964-1.188 2.964-3.264zm-3 5.016c-1.152 0-1.884-.936-1.884-2.04 0-1.116.732-2.052 1.884-2.052 1.14 0 1.872.936 1.872 2.052 0 1.104-.732 2.04-1.872 2.04zm8.05-5.964c.444 0 .792-.348.792-.792s-.348-.804-.792-.804c-.456 0-.804.36-.804.804s.348.792.804.792zm-.564.948V73h1.116v-6.276zm2.88 0V73h1.116v-3.564c0-1.02.672-1.8 1.68-1.8.804 0 1.344.468 1.344 1.728V73h1.116v-3.84c0-1.728-.948-2.556-2.196-2.556-.696 0-1.488.336-1.92.924h-.024v-.804zm14.66 4.896v-2.616c0-1.428-.984-2.4-2.58-2.4-1.548 0-2.58.756-2.652 2.028h1.164c.06-.624.612-1.104 1.464-1.104.84 0 1.488.504 1.488 1.356v.36l-1.98.048c-1.476.06-2.244.804-2.244 1.872 0 1.164.9 1.956 2.208 1.956.696 0 1.452-.24 2.016-.996h.024c0 .252.024.636.048.876h1.092c-.036-.276-.048-.732-.048-1.38zM199 70.12v.24c0 1.176-.9 1.776-1.836 1.776-.744 0-1.224-.348-1.224-.96 0-.576.42-.924 1.332-.972L199 70.12zM29.484 89.272c0-1.296-1.008-1.608-1.968-1.836-.936-.24-1.8-.312-1.8-1.032 0-.504.516-.852 1.188-.852.792 0 1.26.432 1.308 1.008h1.2c-.108-1.224-1.152-1.956-2.52-1.956-1.308 0-2.328.792-2.328 1.872 0 1.308 1.128 1.632 2.148 1.872.9.216 1.62.384 1.62 1.008 0 .54-.552.816-1.248.816-.804 0-1.296-.372-1.38-1.068h-1.248c.096 1.284 1.104 2.016 2.664 2.016 1.368 0 2.364-.732 2.364-1.848zm4.02.84c-1.116 0-1.788-.828-1.908-1.896h4.896c0-2.244-1.176-3.6-3.048-3.612-1.788-.024-3.048 1.38-3.048 3.252 0 1.884 1.26 3.264 3.108 3.264 1.368 0 2.388-.672 2.784-1.932l-1.164-.168c-.204.576-.744 1.092-1.62 1.092zm-.072-4.5c1.056 0 1.68.9 1.8 1.68H31.62c.132-.78.756-1.68 1.812-1.68zm4.332-.888V91h1.116v-3.504c0-1.104.48-1.74 1.68-1.74.132 0 .3.012.444.048V84.7c-.132-.024-.3-.048-.432-.048-.78 0-1.368.36-1.668.9h-.024v-.828zm3.92 0L44.206 91h1.188l2.568-6.276h-1.26l-1.86 4.956h-.024l-1.824-4.956zm7.884-.948c.444 0 .792-.348.792-.792s-.348-.804-.792-.804c-.456 0-.804.36-.804.804s.348.792.804.792zm-.564.948V91h1.116v-6.276zm5.463 5.364c-1.176 0-1.896-.948-1.896-2.232 0-1.272.72-2.232 1.896-2.232.756 0 1.416.42 1.668 1.32l1.164-.156c-.384-1.44-1.452-2.184-2.82-2.184-1.86 0-3.072 1.38-3.072 3.252 0 1.884 1.212 3.264 3.072 3.264 1.368 0 2.436-.756 2.82-2.184l-1.164-.156c-.252.888-.912 1.308-1.668 1.308zm6.857.024c-1.116 0-1.788-.828-1.908-1.896h4.896c0-2.244-1.176-3.6-3.048-3.612-1.788-.024-3.048 1.38-3.048 3.252 0 1.884 1.26 3.264 3.108 3.264 1.368 0 2.388-.672 2.784-1.932l-1.164-.168c-.204.576-.744 1.092-1.62 1.092zm-.072-4.5c1.056 0 1.68.9 1.8 1.68h-3.612c.132-.78.756-1.68 1.812-1.68zm10.804.108v-.996h-1.704v-2.088l-1.116.372v1.716h-1.404v.996h1.404v3.168c0 1.644.924 2.172 2.088 2.172a2.1 2.1 0 0 0 .732-.132v-1.044a1.41 1.41 0 0 1-.612.132c-.576 0-1.092-.156-1.092-1.068V85.72zm4.157-1.116a2.39 2.39 0 0 0-1.86.924h-.024V82.12h-1.116V91h1.116v-3.564c0-1.02.648-1.8 1.656-1.8.792 0 1.296.456 1.296 1.644V91h1.116v-3.924c0-1.644-.936-2.472-2.184-2.472zm8.754 5.016v-2.616c0-1.428-.984-2.4-2.58-2.4-1.548 0-2.58.756-2.652 2.028H80.9c.06-.624.612-1.104 1.464-1.104.84 0 1.488.504 1.488 1.356v.36l-1.98.048c-1.476.06-2.244.804-2.244 1.872 0 1.164.9 1.956 2.208 1.956.696 0 1.452-.24 2.016-.996h.024c0 .252.024.636.048.876h1.092c-.036-.276-.048-.732-.048-1.38zm-1.116-1.5v.24c0 1.176-.9 1.776-1.836 1.776-.744 0-1.224-.348-1.224-.96 0-.576.42-.924 1.332-.972l1.728-.084zm6.076-2.4v-.996h-1.704v-2.088l-1.116.372v1.716h-1.404v.996h1.404v3.168c0 1.644.924 2.172 2.088 2.172a2.1 2.1 0 0 0 .732-.132v-1.044a1.41 1.41 0 0 1-.612.132c-.576 0-1.092-.156-1.092-1.068V85.72zm10.773-1.116c-.9 0-1.668.408-2.136 1.08-.36-.684-.96-1.08-1.752-1.08-.696 0-1.284.276-1.74.924h-.024v-.804h-1.116V91h1.116v-3.54c0-1.032.624-1.824 1.512-1.824.72 0 1.224.444 1.224 1.344V91H98.9v-3.552c0-1.044.624-1.812 1.512-1.812.72 0 1.224.444 1.224 1.344V91h1.116v-4.116c0-1.344-.828-2.28-2.052-2.28zm8.607 5.016v-2.616c0-1.428-.984-2.4-2.58-2.4-1.548 0-2.58.756-2.652 2.028h1.164c.06-.624.612-1.104 1.464-1.104.84 0 1.488.504 1.488 1.356v.36l-1.98.048c-1.476.06-2.244.804-2.244 1.872 0 1.164.9 1.956 2.208 1.956.696 0 1.452-.24 2.016-.996h.024c0 .252.024.636.048.876h1.092c-.036-.276-.048-.732-.048-1.38zm-1.116-1.5v.24c0 1.176-.9 1.776-1.836 1.776-.744 0-1.224-.348-1.224-.96 0-.576.42-.924 1.332-.972l1.728-.084zm2.687-3.396V91h1.116v-3.564c0-1.02.672-1.8 1.68-1.8.804 0 1.344.468 1.344 1.728V91h1.116v-3.84c0-1.728-.948-2.556-2.196-2.556-.696 0-1.488.336-1.92.924h-.024v-.804zm11.812 4.896v-2.616c0-1.428-.984-2.4-2.58-2.4-1.548 0-2.58.756-2.652 2.028h1.164c.06-.624.612-1.104 1.464-1.104.84 0 1.488.504 1.488 1.356v.36l-1.98.048c-1.476.06-2.244.804-2.244 1.872 0 1.164.9 1.956 2.208 1.956.696 0 1.452-.24 2.016-.996h.024c0 .252.024.636.048.876h1.092c-.036-.276-.048-.732-.048-1.38zm-1.116-1.5v.24c0 1.176-.9 1.776-1.836 1.776-.744 0-1.224-.348-1.224-.96 0-.576.42-.924 1.332-.972l1.728-.084zm8.374-3.396h-1.116v.852h-.024c-.588-.672-1.248-.972-2.04-.972-1.728 0-2.868 1.32-2.868 3.096 0 1.764 1.14 3.084 2.868 3.084a2.55 2.55 0 0 0 2.04-.948h.024v.54c0 1.284-.636 2.136-1.848 2.136-.84 0-1.548-.444-1.788-1.296l-1.164.168c.372 1.308 1.44 2.136 2.952 2.136 1.764 0 2.964-1.188 2.964-3.264zm-3 5.016c-1.152 0-1.884-.936-1.884-2.04 0-1.116.732-2.052 1.884-2.052 1.14 0 1.872.936 1.872 2.052 0 1.104-.732 2.04-1.872 2.04zm7.267.372c-1.116 0-1.788-.828-1.908-1.896h4.896c0-2.244-1.176-3.6-3.048-3.612-1.788-.024-3.048 1.38-3.048 3.252 0 1.884 1.26 3.264 3.108 3.264 1.368 0 2.388-.672 2.784-1.932l-1.164-.168c-.204.576-.744 1.092-1.62 1.092zm-.072-4.5c1.056 0 1.68.9 1.8 1.68h-3.612c.132-.78.756-1.68 1.812-1.68zm9 3.66c0-1.296-1.008-1.608-1.968-1.836-.936-.24-1.8-.312-1.8-1.032 0-.504.516-.852 1.188-.852.792 0 1.26.432 1.308 1.008h1.2c-.108-1.224-1.152-1.956-2.52-1.956-1.308 0-2.328.792-2.328 1.872 0 1.308 1.128 1.632 2.148 1.872.9.216 1.62.384 1.62 1.008 0 .54-.552.816-1.248.816-.804 0-1.296-.372-1.38-1.068h-1.248c.096 1.284 1.104 2.016 2.664 2.016 1.368 0 2.364-.732 2.364-1.848zm10.89-4.668c-.9 0-1.668.408-2.136 1.08-.36-.684-.96-1.08-1.752-1.08-.696 0-1.284.276-1.74.924h-.024v-.804h-1.116V91h1.116v-3.54c0-1.032.624-1.824 1.512-1.824.72 0 1.224.444 1.224 1.344V91h1.116v-3.552c0-1.044.624-1.812 1.512-1.812.72 0 1.224.444 1.224 1.344V91h1.116v-4.116c0-1.344-.828-2.28-2.052-2.28zm7.76.12l-1.86 4.956h-.024l-1.824-4.956h-1.308l2.52 6.276-1.068 2.4h1.296l3.528-8.676zm9.7 4.548c0-1.296-1.008-1.608-1.968-1.836-.936-.24-1.8-.312-1.8-1.032 0-.504.516-.852 1.188-.852.792 0 1.26.432 1.308 1.008h1.2c-.108-1.224-1.152-1.956-2.52-1.956-1.308 0-2.328.792-2.328 1.872 0 1.308 1.128 1.632 2.148 1.872.9.216 1.62.384 1.62 1.008 0 .54-.552.816-1.248.816-.804 0-1.296-.372-1.38-1.068h-1.248c.096 1.284 1.104 2.016 2.664 2.016 1.368 0 2.364-.732 2.364-1.848zm6.253.348v-2.616c0-1.428-.984-2.4-2.58-2.4-1.548 0-2.58.756-2.652 2.028h1.164c.06-.624.612-1.104 1.464-1.104.84 0 1.488.504 1.488 1.356v.36l-1.98.048c-1.476.06-2.244.804-2.244 1.872 0 1.164.9 1.956 2.208 1.956.696 0 1.452-.24 2.016-.996h.024c0 .252.024.636.048.876h1.092c-.036-.276-.048-.732-.048-1.38zm-1.116-1.5v.24c0 1.176-.9 1.776-1.836 1.776-.744 0-1.224-.348-1.224-.96 0-.576.42-.924 1.332-.972l1.728-.084zm1.616-3.396l2.52 6.276h1.188l2.568-6.276h-1.26l-1.86 4.956h-.024l-1.824-4.956zm7.884-.948c.444 0 .792-.348.792-.792s-.348-.804-.792-.804c-.456 0-.804.36-.804.804s.348.792.804.792zm-.564.948V91h1.116v-6.276zm2.88 0V91h1.116v-3.564c0-1.02.672-1.8 1.68-1.8.804 0 1.344.468 1.344 1.728V91h1.116v-3.84c0-1.728-.948-2.556-2.196-2.556-.696 0-1.488.336-1.92.924h-.024v-.804zm12.637 0h-1.116v.852h-.024c-.588-.672-1.248-.972-2.04-.972-1.728 0-2.868 1.32-2.868 3.096 0 1.764 1.14 3.084 2.868 3.084a2.55 2.55 0 0 0 2.04-.948h.024v.54c0 1.284-.636 2.136-1.848 2.136-.84 0-1.548-.444-1.788-1.296l-1.164.168c.372 1.308 1.44 2.136 2.952 2.136 1.764 0 2.964-1.188 2.964-3.264zm-3 5.016c-1.152 0-1.884-.936-1.884-2.04 0-1.116.732-2.052 1.884-2.052 1.14 0 1.872.936 1.872 2.052 0 1.104-.732 2.04-1.872 2.04zm9.187-.468c0-1.296-1.008-1.608-1.968-1.836-.936-.24-1.8-.312-1.8-1.032 0-.504.516-.852 1.188-.852.792 0 1.26.432 1.308 1.008h1.2c-.108-1.224-1.152-1.956-2.52-1.956-1.308 0-2.328.792-2.328 1.872 0 1.308 1.128 1.632 2.148 1.872.9.216 1.62.384 1.62 1.008 0 .54-.552.816-1.248.816-.804 0-1.296-.372-1.38-1.068h-1.248c.096 1.284 1.104 2.016 2.664 2.016 1.368 0 2.364-.732 2.364-1.848zm.794 3.132h.972l.768-2.616h-1.272zM29.796 107.62v-2.616c0-1.428-.984-2.4-2.58-2.4-1.548 0-2.58.756-2.652 2.028h1.164c.06-.624.612-1.104 1.464-1.104.84 0 1.488.504 1.488 1.356v.36l-1.98.048c-1.476.06-2.244.804-2.244 1.872 0 1.164.9 1.956 2.208 1.956.696 0 1.452-.24 2.016-.996h.024c0 .252.024.636.048.876h1.092c-.036-.276-.048-.732-.048-1.38zm-1.116-1.5v.24c0 1.176-.9 1.776-1.836 1.776-.744 0-1.224-.348-1.224-.96 0-.576.42-.924 1.332-.972l1.728-.084zm2.687-3.396V109h1.116v-3.564c0-1.02.672-1.8 1.68-1.8.804 0 1.344.468 1.344 1.728V109h1.116v-3.84c0-1.728-.948-2.556-2.196-2.556-.696 0-1.488.336-1.92.924h-.024v-.804zm12.697-2.604h-1.116v3.48h-.024a2.57 2.57 0 0 0-2.064-.996c-1.704 0-2.904 1.296-2.904 3.252s1.2 3.264 2.904 3.264c.864 0 1.584-.384 2.064-1.008h.024V109h1.116zm-3.012 3.528c1.212 0 1.92.996 1.92 2.208 0 1.236-.708 2.208-1.92 2.208-1.14 0-1.932-.888-1.932-2.208 0-1.308.792-2.208 1.932-2.208zm7.495-3.288V109h1.188v-8.64zm10.664 7.26v-2.616c0-1.428-.984-2.4-2.58-2.4-1.548 0-2.58.756-2.652 2.028h1.164c.06-.624.612-1.104 1.464-1.104.84 0 1.488.504 1.488 1.356v.36l-1.98.048c-1.476.06-2.244.804-2.244 1.872 0 1.164.9 1.956 2.208 1.956.696 0 1.452-.24 2.016-.996h.024c0 .252.024.636.048.876h1.092c-.036-.276-.048-.732-.048-1.38zm-1.116-1.5v.24c0 1.176-.9 1.776-1.836 1.776-.744 0-1.224-.348-1.224-.96 0-.576.42-.924 1.332-.972l1.728-.084zm9.455-3.516c-.9 0-1.668.408-2.136 1.08-.36-.684-.96-1.08-1.752-1.08-.696 0-1.284.276-1.74.924h-.024v-.804H60.78V109h1.116v-3.54c0-1.032.624-1.824 1.512-1.824.72 0 1.224.444 1.224 1.344V109h1.116v-3.552c0-1.044.624-1.812 1.512-1.812.72 0 1.224.444 1.224 1.344V109H69.6v-4.116c0-1.344-.828-2.28-2.052-2.28zm11.454 5.016v-2.616c0-1.428-.984-2.4-2.58-2.4-1.548 0-2.58.756-2.652 2.028h1.164c.06-.624.612-1.104 1.464-1.104.84 0 1.488.504 1.488 1.356v.36l-1.98.048c-1.476.06-2.244.804-2.244 1.872 0 1.164.9 1.956 2.208 1.956.696 0 1.452-.24 2.016-.996h.024c0 .252.024.636.048.876h1.092c-.036-.276-.048-.732-.048-1.38zm-1.116-1.5v.24c0 1.176-.9 1.776-1.836 1.776-.744 0-1.224-.348-1.224-.96 0-.576.42-.924 1.332-.972l1.728-.084zm9.455-3.516c-.9 0-1.668.408-2.136 1.08-.36-.684-.96-1.08-1.752-1.08-.696 0-1.284.276-1.74.924H81.7v-.804h-1.116V109H81.7v-3.54c0-1.032.624-1.824 1.512-1.824.72 0 1.224.444 1.224 1.344V109h1.116v-3.552c0-1.044.624-1.812 1.512-1.812.72 0 1.224.444 1.224 1.344V109h1.116v-4.116c0-1.344-.828-2.28-2.052-2.28zm8.606 5.016v-2.616c0-1.428-.984-2.4-2.58-2.4-1.548 0-2.58.756-2.652 2.028h1.164c.06-.624.612-1.104 1.464-1.104.84 0 1.488.504 1.488 1.356v.36l-1.98.048c-1.476.06-2.244.804-2.244 1.872 0 1.164.9 1.956 2.208 1.956.696 0 1.452-.24 2.016-.996h.024c0 .252.024.636.048.876h1.092c-.036-.276-.048-.732-.048-1.38zm-1.116-1.5v.24c0 1.176-.9 1.776-1.836 1.776-.744 0-1.224-.348-1.224-.96 0-.576.42-.924 1.332-.972l1.728-.084zm7.14-2.424v-.972h-4.728v1.02h3.24l-3.504 4.284V109h4.992v-1.032h-3.504zm3.91 4.416c-1.116 0-1.788-.828-1.908-1.896h4.896c0-2.244-1.176-3.6-3.048-3.612-1.788-.024-3.048 1.38-3.048 3.252 0 1.884 1.26 3.264 3.108 3.264 1.368 0 2.388-.672 2.784-1.932l-1.164-.168c-.204.576-.744 1.092-1.62 1.092zm-.072-4.5c1.056 0 1.68.9 1.8 1.68h-3.612c.132-.78.756-1.68 1.812-1.68zm10.197-3.492h-1.116v3.48h-.024a2.57 2.57 0 0 0-2.064-.996c-1.704 0-2.904 1.296-2.904 3.252s1.2 3.264 2.904 3.264c.864 0 1.584-.384 2.064-1.008h.024V109h1.116zm-3.012 3.528c1.212 0 1.92.996 1.92 2.208 0 1.236-.708 2.208-1.92 2.208-1.14 0-1.932-.888-1.932-2.208 0-1.308.792-2.208 1.932-2.208zm11.12.072v-.996h-1.704v-2.088l-1.116.372v1.716h-1.404v.996h1.404v3.168c0 1.644.924 2.172 2.088 2.172a2.1 2.1 0 0 0 .732-.132v-1.044a1.41 1.41 0 0 1-.612.132c-.576 0-1.092-.156-1.092-1.068v-3.228zm4.157-1.116a2.39 2.39 0 0 0-1.86.924h-.024v-3.408h-1.116V109h1.116v-3.564c0-1.02.648-1.8 1.656-1.8.792 0 1.296.456 1.296 1.644V109h1.116v-3.924c0-1.644-.936-2.472-2.184-2.472zm8.754 5.016v-2.616c0-1.428-.984-2.4-2.58-2.4-1.548 0-2.58.756-2.652 2.028h1.164c.06-.624.612-1.104 1.464-1.104.84 0 1.488.504 1.488 1.356v.36l-1.98.048c-1.476.06-2.244.804-2.244 1.872 0 1.164.9 1.956 2.208 1.956.696 0 1.452-.24 2.016-.996h.024c0 .252.024.636.048.876h1.092c-.036-.276-.048-.732-.048-1.38zm-1.116-1.5v.24c0 1.176-.9 1.776-1.836 1.776-.744 0-1.224-.348-1.224-.96 0-.576.42-.924 1.332-.972l1.728-.084zm6.076-2.4v-.996h-1.704v-2.088l-1.116.372v1.716h-1.404v.996h1.404v3.168c0 1.644.924 2.172 2.088 2.172a2.1 2.1 0 0 0 .732-.132v-1.044a1.41 1.41 0 0 1-.612.132c-.576 0-1.092-.156-1.092-1.068v-3.228zm4.69-1.944c.444 0 .792-.348.792-.792s-.348-.804-.792-.804c-.456 0-.804.36-.804.804s.348.792.804.792zm-.564.948V109h1.116v-6.276zm6.504.996v-.996h-1.704v-2.088l-1.116.372v1.716h-1.404v.996h1.404v3.168c0 1.644.924 2.172 2.088 2.172a2.1 2.1 0 0 0 .732-.132v-1.044a1.41 1.41 0 0 1-.612.132c-.576 0-1.092-.156-1.092-1.068v-3.228zm4.69-1.944c.444 0 .792-.348.792-.792s-.348-.804-.792-.804c-.456 0-.804.36-.804.804s.348.792.804.792zm-.564.948V109h1.116v-6.276zm7.548 4.548c0-1.296-1.008-1.608-1.968-1.836-.936-.24-1.8-.312-1.8-1.032 0-.504.516-.852 1.188-.852.792 0 1.26.432 1.308 1.008h1.2c-.108-1.224-1.152-1.956-2.52-1.956-1.308 0-2.328.792-2.328 1.872 0 1.308 1.128 1.632 2.148 1.872.9.216 1.62.384 1.62 1.008 0 .54-.552.816-1.248.816-.804 0-1.296-.372-1.38-1.068h-1.248c.096 1.284 1.104 2.016 2.664 2.016 1.368 0 2.364-.732 2.364-1.848zm4.12-4.548V109h1.116v-3.564c0-1.02.672-1.8 1.68-1.8.804 0 1.344.468 1.344 1.728V109h1.116v-3.84c0-1.728-.948-2.556-2.196-2.556-.696 0-1.488.336-1.92.924h-.024v-.804zm9.78 6.396c1.824 0 3.192-1.44 3.192-3.252 0-1.824-1.368-3.264-3.192-3.264s-3.192 1.44-3.192 3.264c0 1.812 1.368 3.252 3.192 3.252zm0-1.032c-1.224 0-2.028-.984-2.028-2.22 0-1.248.804-2.22 2.028-2.22s2.028.972 2.028 2.22c0 1.236-.804 2.22-2.028 2.22zm7.73-4.368v-.996h-1.704v-2.088l-1.116.372v1.716h-1.404v.996h1.404v3.168c0 1.644.924 2.172 2.088 2.172a2.1 2.1 0 0 0 .732-.132v-1.044a1.41 1.41 0 0 1-.612.132c-.576 0-1.092-.156-1.092-1.068v-3.228zm-156.12 21.9v-2.616c0-1.428-.984-2.4-2.58-2.4-1.548 0-2.58.756-2.652 2.028h1.164c.06-.624.612-1.104 1.464-1.104.84 0 1.488.504 1.488 1.356v.36l-1.98.048c-1.476.06-2.244.804-2.244 1.872 0 1.164.9 1.956 2.208 1.956.696 0 1.452-.24 2.016-.996h.024c0 .252.024.636.048.876h1.092c-.036-.276-.048-.732-.048-1.38zm-1.116-1.5v.24c0 1.176-.9 1.776-1.836 1.776-.744 0-1.224-.348-1.224-.96 0-.576.42-.924 1.332-.972l1.728-.084zm2.51-6V127h1.116v-8.88zm2.766 2.604V127h1.116v-3.504c0-1.104.48-1.74 1.68-1.74.132 0 .3.012.444.048V120.7c-.132-.024-.3-.048-.432-.048-.78 0-1.368.36-1.668.9h-.024v-.828zm6.908 5.388c-1.116 0-1.788-.828-1.908-1.896h4.896c0-2.244-1.176-3.6-3.048-3.612-1.788-.024-3.048 1.38-3.048 3.252 0 1.884 1.26 3.264 3.108 3.264 1.368 0 2.388-.672 2.784-1.932l-1.164-.168c-.204.576-.744 1.092-1.62 1.092zm-.072-4.5c1.056 0 1.68.9 1.8 1.68H38.98c.132-.78.756-1.68 1.812-1.68zm9.312 4.008v-2.616c0-1.428-.984-2.4-2.58-2.4-1.548 0-2.58.756-2.652 2.028h1.164c.06-.624.612-1.104 1.464-1.104.84 0 1.488.504 1.488 1.356v.36l-1.98.048c-1.476.06-2.244.804-2.244 1.872 0 1.164.9 1.956 2.208 1.956.696 0 1.452-.24 2.016-.996h.024c0 .252.024.636.048.876h1.092c-.036-.276-.048-.732-.048-1.38zm-1.116-1.5v.24c0 1.176-.9 1.776-1.836 1.776-.744 0-1.224-.348-1.224-.96 0-.576.42-.924 1.332-.972l1.728-.084zm8.435-6h-1.116v3.48h-.024a2.57 2.57 0 0 0-2.064-.996c-1.704 0-2.904 1.296-2.904 3.252s1.2 3.264 2.904 3.264c.864 0 1.584-.384 2.064-1.008h.024V127h1.116zm-3.012 3.528c1.212 0 1.92.996 1.92 2.208 0 1.236-.708 2.208-1.92 2.208-1.14 0-1.932-.888-1.932-2.208 0-1.308.792-2.208 1.932-2.208zm8.955-.924l-1.86 4.956h-.024l-1.824-4.956H58.35L60.87 127l-1.068 2.4h1.296l3.528-8.676zm8.656.996v-.996h-1.704v-2.088l-1.116.372v1.716h-1.404v.996h1.404v3.168c0 1.644.924 2.172 2.088 2.172a2.1 2.1 0 0 0 .732-.132v-1.044a1.41 1.41 0 0 1-.612.132c-.576 0-1.092-.156-1.092-1.068v-3.228zm4.157-1.116a2.39 2.39 0 0 0-1.86.924h-.024v-3.408H73.18V127h1.116v-3.564c0-1.02.648-1.8 1.656-1.8.792 0 1.296.456 1.296 1.644V127h1.116v-3.924c0-1.644-.936-2.472-2.184-2.472zm6.64 5.508c-1.116 0-1.788-.828-1.908-1.896h4.896c0-2.244-1.176-3.6-3.048-3.612-1.788-.024-3.048 1.38-3.048 3.252 0 1.884 1.26 3.264 3.108 3.264 1.368 0 2.388-.672 2.784-1.932l-1.164-.168c-.204.576-.744 1.092-1.62 1.092zm-.072-4.5c1.056 0 1.68.9 1.8 1.68h-3.612c.132-.78.756-1.68 1.812-1.68zm4.332-.888V127h1.116v-3.504c0-1.104.48-1.74 1.68-1.74.132 0 .3.012.444.048V120.7c-.132-.024-.3-.048-.432-.048-.78 0-1.368.36-1.668.9h-.024v-.828zm6.908 5.388c-1.116 0-1.788-.828-1.908-1.896h4.896c0-2.244-1.176-3.6-3.048-3.612-1.788-.024-3.048 1.38-3.048 3.252 0 1.884 1.26 3.264 3.108 3.264 1.368 0 2.388-.672 2.784-1.932l-1.164-.168c-.204.576-.744 1.092-1.62 1.092zm-.072-4.5c1.056 0 1.68.9 1.8 1.68h-3.612c.132-.78.756-1.68 1.812-1.68zm4.992 5.496c.444 0 .804-.36.804-.792s-.36-.804-.804-.804-.792.372-.792.804a.8.8 0 0 0 .792.792z" fill="#fff"/><path d="M28.596 159.98c-1.704 0-2.904-1.284-2.904-3.3 0-2.004 1.2-3.3 2.904-3.3 1.188 0 2.148.672 2.52 1.764l1.236-.156c-.492-1.668-1.908-2.748-3.756-2.748-2.4 0-4.14 1.776-4.14 4.44s1.74 4.44 4.14 4.44c1.836 0 3.264-1.068 3.756-2.724l-1.236-.168c-.372 1.092-1.332 1.752-2.52 1.752zm7.12 1.14a2.32 2.32 0 0 0 1.872-.9h.024v.78h1.116v-6.276h-1.116v3.564c0 1.02-.648 1.788-1.62 1.788-.804 0-1.296-.528-1.296-1.608v-3.744H33.58v3.9c0 1.56.804 2.496 2.136 2.496zm9.32-1.848c0-1.296-1.008-1.608-1.968-1.836-.936-.24-1.8-.312-1.8-1.032 0-.504.516-.852 1.188-.852.792 0 1.26.432 1.308 1.008h1.2c-.108-1.224-1.152-1.956-2.52-1.956-1.308 0-2.328.792-2.328 1.872 0 1.308 1.128 1.632 2.148 1.872.9.216 1.62.384 1.62 1.008 0 .54-.552.816-1.248.816-.804 0-1.296-.372-1.38-1.068h-1.248c.096 1.284 1.104 2.016 2.664 2.016 1.368 0 2.364-.732 2.364-1.848zm4.78-3.552v-.996H48.11v-2.088l-1.116.372v1.716H45.59v.996h1.404v3.168c0 1.644.924 2.172 2.088 2.172a2.1 2.1 0 0 0 .732-.132v-1.044a1.41 1.41 0 0 1-.612.132c-.576 0-1.092-.156-1.092-1.068v-3.228zm3.99 5.4c1.824 0 3.192-1.44 3.192-3.252 0-1.824-1.368-3.264-3.192-3.264s-3.192 1.44-3.192 3.264c0 1.812 1.368 3.252 3.192 3.252zm0-1.032c-1.224 0-2.028-.984-2.028-2.22 0-1.248.804-2.22 2.028-2.22s2.028.972 2.028 2.22c0 1.236-.804 2.22-2.028 2.22zm11.237-5.484c-.9 0-1.668.408-2.136 1.08-.36-.684-.96-1.08-1.752-1.08-.696 0-1.284.276-1.74.924h-.024v-.804h-1.116V161h1.116v-3.54c0-1.032.624-1.824 1.512-1.824.72 0 1.224.444 1.224 1.344V161h1.116v-3.552c0-1.044.624-1.812 1.512-1.812.72 0 1.224.444 1.224 1.344V161h1.116v-4.116c0-1.344-.828-2.28-2.052-2.28zm6.492 5.508c-1.116 0-1.788-.828-1.908-1.896h4.896c0-2.244-1.176-3.6-3.048-3.612-1.788-.024-3.048 1.38-3.048 3.252 0 1.884 1.26 3.264 3.108 3.264 1.368 0 2.388-.672 2.784-1.932l-1.164-.168c-.204.576-.744 1.092-1.62 1.092zm-.072-4.5c1.056 0 1.68.9 1.8 1.68H69.65c.132-.78.756-1.68 1.812-1.68zm4.332-.888V161h1.116v-3.504c0-1.104.48-1.74 1.68-1.74.132 0 .3.012.444.048V154.7c-.132-.024-.3-.048-.432-.048-.78 0-1.368.36-1.668.9h-.024v-.828zm10 5.388c-1.116 0-1.788-.828-1.908-1.896h4.896c0-2.244-1.176-3.6-3.048-3.612-1.788-.024-3.048 1.38-3.048 3.252 0 1.884 1.26 3.264 3.108 3.264 1.368 0 2.388-.672 2.784-1.932l-1.164-.168c-.204.576-.744 1.092-1.62 1.092zm-.072-4.5c1.056 0 1.68.9 1.8 1.68H83.9c.132-.78.756-1.68 1.812-1.68zm11.1-1.008c-.9 0-1.668.408-2.136 1.08-.36-.684-.96-1.08-1.752-1.08-.696 0-1.284.276-1.74.924h-.024v-.804h-1.116V161h1.116v-3.54c0-1.032.624-1.824 1.512-1.824.72 0 1.224.444 1.224 1.344V161h1.116v-3.552c0-1.044.624-1.812 1.512-1.812.72 0 1.224.444 1.224 1.344V161h1.116v-4.116c0-1.344-.828-2.28-2.052-2.28zm8.606 5.016v-2.616c0-1.428-.984-2.4-2.58-2.4-1.548 0-2.58.756-2.652 2.028h1.164c.06-.624.612-1.104 1.464-1.104.84 0 1.488.504 1.488 1.356v.36l-1.98.048c-1.476.06-2.244.804-2.244 1.872 0 1.164.9 1.956 2.208 1.956.696 0 1.452-.24 2.016-.996h.024c0 .252.024.636.048.876h1.092c-.036-.276-.048-.732-.048-1.38zm-1.116-1.5v.24c0 1.176-.9 1.776-1.836 1.776-.744 0-1.224-.348-1.224-.96 0-.576.42-.924 1.332-.972l1.728-.084zm3.195-4.344c.444 0 .792-.348.792-.792s-.348-.804-.792-.804c-.456 0-.804.36-.804.804s.348.792.804.792zm-.564.948V161h1.116v-6.276zm2.88-2.604V161h1.116v-8.88z" fill="#acacac"/></svg>