<svg xmlns="http://www.w3.org/2000/svg" fill="none" height="154" width="247" xmlns:v="https://vecta.io/nano"><rect fill="#262f3a" height="154" rx="8" width="247"/><path d="M24.816 28.36V37h1.188v-8.64zm8.888 8.76c1.704 0 2.904-1.308 2.904-3.264s-1.2-3.252-2.904-3.252c-.852 0-1.584.384-2.064.996h-.024v-.876H30.5v8.532h1.116v-3.144h.024c.48.624 1.212 1.008 2.064 1.008zm-.18-5.472c1.128 0 1.92.9 1.92 2.208 0 1.32-.792 2.208-1.92 2.208-1.224 0-1.932-.984-1.932-2.208s.708-2.208 1.932-2.208zm6.435 5.472a2.32 2.32 0 0 0 1.872-.9h.024V37h1.116v-6.276h-1.116v3.564c0 1.02-.648 1.788-1.62 1.788-.804 0-1.296-.528-1.296-1.608v-3.744h-1.116v3.9c0 1.56.804 2.496 2.136 2.496zm8.275-5.4v-.996H46.53v-2.088l-1.116.372v1.716H44.01v.996h1.404v3.168c0 1.644.924 2.172 2.088 2.172a2.1 2.1 0 0 0 .732-.132v-1.044a1.41 1.41 0 0 1-.612.132c-.576 0-1.092-.156-1.092-1.068V31.72zm5.073.432l.684.816a1.34 1.34 0 0 1 .732-.192 1.58 1.58 0 0 1 1.62 1.608 1.58 1.58 0 0 1-1.62 1.608c-.936 0-1.548-.66-1.632-1.476l-1.212.108c.12 1.38 1.308 2.496 2.832 2.496 1.608 0 2.844-1.176 2.844-2.712 0-1.488-1.164-2.52-2.52-2.52v-.024l2.316-2.412V28.6h-5.208v1.116h3.432v.024zm13.15 3.12c0-1.296-1.008-1.608-1.968-1.836-.936-.24-1.8-.312-1.8-1.032 0-.504.516-.852 1.188-.852.792 0 1.26.432 1.308 1.008h1.2c-.108-1.224-1.152-1.956-2.52-1.956-1.308 0-2.328.792-2.328 1.872 0 1.308 1.128 1.632 2.148 1.872.9.216 1.62.384 1.62 1.008 0 .54-.552.816-1.248.816-.804 0-1.296-.372-1.38-1.068H61.43c.096 1.284 1.104 2.016 2.664 2.016 1.368 0 2.364-.732 2.364-1.848zm4.78-3.552v-.996h-1.704v-2.088l-1.116.372v1.716h-1.404v.996h1.404v3.168c0 1.644.924 2.172 2.088 2.172a2.1 2.1 0 0 0 .732-.132v-1.044a1.41 1.41 0 0 1-.612.132c-.576 0-1.092-.156-1.092-1.068V31.72zm6.196 3.9v-2.616c0-1.428-.984-2.4-2.58-2.4-1.548 0-2.58.756-2.652 2.028h1.164c.06-.624.612-1.104 1.464-1.104.84 0 1.488.504 1.488 1.356v.36l-1.98.048c-1.476.06-2.244.804-2.244 1.872 0 1.164.9 1.956 2.208 1.956.696 0 1.452-.24 2.016-.996h.024c0 .252.024.636.048.876h1.092c-.036-.276-.048-.732-.048-1.38zm-1.116-1.5v.24c0 1.176-.9 1.776-1.836 1.776-.744 0-1.224-.348-1.224-.96 0-.576.42-.924 1.332-.972l1.728-.084zm2.687-3.396V37h1.116v-3.504c0-1.104.48-1.74 1.68-1.74.132 0 .3.012.444.048V30.7c-.132-.024-.3-.048-.432-.048-.78 0-1.368.36-1.668.9h-.024v-.828zm9.063 4.548c0-1.296-1.008-1.608-1.968-1.836-.936-.24-1.8-.312-1.8-1.032 0-.504.516-.852 1.188-.852.792 0 1.26.432 1.308 1.008h1.2c-.108-1.224-1.152-1.956-2.52-1.956-1.308 0-2.328.792-2.328 1.872 0 1.308 1.128 1.632 2.148 1.872.9.216 1.62.384 1.62 1.008 0 .54-.552.816-1.248.816-.804 0-1.296-.372-1.38-1.068h-1.248c.096 1.284 1.104 2.016 2.664 2.016 1.368 0 2.364-.732 2.364-1.848zM92.187 37h1.116v-.924h.024c.456.648 1.212 1.044 2.064 1.044 1.704 0 2.904-1.308 2.904-3.264s-1.2-3.252-2.904-3.252c-.852 0-1.608.396-2.064 1.032h-.024V28.12h-1.116zm3.024-5.352c1.128 0 1.92.9 1.92 2.208 0 1.32-.792 2.208-1.92 2.208-1.224 0-1.932-.972-1.932-2.208 0-1.212.708-2.208 1.932-2.208zm7.224 4.464c-1.116 0-1.788-.828-1.908-1.896h4.896c0-2.244-1.176-3.6-3.048-3.612-1.788-.024-3.048 1.38-3.048 3.252 0 1.884 1.26 3.264 3.108 3.264 1.368 0 2.388-.672 2.784-1.932l-1.164-.168c-.204.576-.744 1.092-1.62 1.092zm-.072-4.5c1.056 0 1.68.9 1.8 1.68h-3.612c.132-.78.756-1.68 1.812-1.68zm7.15 4.476c-1.176 0-1.896-.948-1.896-2.232 0-1.272.72-2.232 1.896-2.232.756 0 1.416.42 1.668 1.32l1.164-.156c-.384-1.44-1.452-2.184-2.82-2.184-1.86 0-3.072 1.38-3.072 3.252 0 1.884 1.212 3.264 3.072 3.264 1.368 0 2.436-.756 2.82-2.184l-1.164-.156c-.252.888-.912 1.308-1.668 1.308zm9.09-.468v-2.616c0-1.428-.984-2.4-2.58-2.4-1.548 0-2.58.756-2.652 2.028h1.164c.06-.624.612-1.104 1.464-1.104.84 0 1.488.504 1.488 1.356v.36l-1.98.048c-1.476.06-2.244.804-2.244 1.872 0 1.164.9 1.956 2.208 1.956.696 0 1.452-.24 2.016-.996h.024c0 .252.024.636.048.876h1.092c-.036-.276-.048-.732-.048-1.38zm-1.116-1.5v.24c0 1.176-.9 1.776-1.836 1.776-.744 0-1.224-.348-1.224-.96 0-.576.42-.924 1.332-.972l1.728-.084zm4.762 3a2.32 2.32 0 0 0 1.872-.9h.024V37h1.116v-6.276h-1.116v3.564c0 1.02-.648 1.788-1.62 1.788-.804 0-1.296-.528-1.296-1.608v-3.744h-1.116v3.9c0 1.56.804 2.496 2.136 2.496zm9.32-1.848c0-1.296-1.008-1.608-1.968-1.836-.936-.24-1.8-.312-1.8-1.032 0-.504.516-.852 1.188-.852.792 0 1.26.432 1.308 1.008h1.2c-.108-1.224-1.152-1.956-2.52-1.956-1.308 0-2.328.792-2.328 1.872 0 1.308 1.128 1.632 2.148 1.872.9.216 1.62.384 1.62 1.008 0 .54-.552.816-1.248.816-.804 0-1.296-.372-1.38-1.068h-1.248c.096 1.284 1.104 2.016 2.664 2.016 1.368 0 2.364-.732 2.364-1.848zm4.02.84c-1.116 0-1.788-.828-1.908-1.896h4.896c0-2.244-1.176-3.6-3.048-3.612-1.788-.024-3.048 1.38-3.048 3.252 0 1.884 1.26 3.264 3.108 3.264 1.368 0 2.388-.672 2.784-1.932l-1.164-.168c-.204.576-.744 1.092-1.62 1.092zm-.072-4.5c1.056 0 1.68.9 1.8 1.68h-3.612c.132-.78.756-1.68 1.812-1.68zm10.804.108v-.996h-1.704v-2.088l-1.116.372v1.716h-1.404v.996h1.404v3.168c0 1.644.924 2.172 2.088 2.172a2.1 2.1 0 0 0 .732-.132v-1.044a1.41 1.41 0 0 1-.612.132c-.576 0-1.092-.156-1.092-1.068V31.72zm4.157-1.116a2.39 2.39 0 0 0-1.86.924h-.024V28.12h-1.116V37h1.116v-3.564c0-1.02.648-1.8 1.656-1.8.792 0 1.296.456 1.296 1.644V37h1.116v-3.924c0-1.644-.936-2.472-2.184-2.472zm6.64 5.508c-1.116 0-1.788-.828-1.908-1.896h4.896c0-2.244-1.176-3.6-3.048-3.612-1.788-.024-3.048 1.38-3.048 3.252 0 1.884 1.26 3.264 3.108 3.264 1.368 0 2.388-.672 2.784-1.932l-1.164-.168c-.204.576-.744 1.092-1.62 1.092zm-.072-4.5c1.056 0 1.68.9 1.8 1.68h-3.612c.132-.78.756-1.68 1.812-1.68zm4.332-.888V37h1.116v-3.504c0-1.104.48-1.74 1.68-1.74.132 0 .3.012.444.048V30.7c-.132-.024-.3-.048-.432-.048-.78 0-1.368.36-1.668.9h-.024v-.828zm6.908 5.388c-1.116 0-1.788-.828-1.908-1.896h4.896c0-2.244-1.176-3.6-3.048-3.612-1.788-.024-3.048 1.38-3.048 3.252 0 1.884 1.26 3.264 3.108 3.264 1.368 0 2.388-.672 2.784-1.932l-1.164-.168c-.204.576-.744 1.092-1.62 1.092zm-.072-4.5c1.056 0 1.68.9 1.8 1.68H166.4c.132-.78.756-1.68 1.812-1.68zm7.863-1.836c.444 0 .792-.348.792-.792s-.348-.804-.792-.804c-.456 0-.804.36-.804.804s.348.792.804.792zm-.564.948V37h1.116v-6.276zm7.548 4.548c0-1.296-1.008-1.608-1.968-1.836-.936-.24-1.8-.312-1.8-1.032 0-.504.516-.852 1.188-.852.792 0 1.26.432 1.308 1.008h1.2c-.108-1.224-1.152-1.956-2.52-1.956-1.308 0-2.328.792-2.328 1.872 0 1.308 1.128 1.632 2.148 1.872.9.216 1.62.384 1.62 1.008 0 .54-.552.816-1.248.816-.804 0-1.296-.372-1.38-1.068h-1.248c.096 1.284 1.104 2.016 2.664 2.016 1.368 0 2.364-.732 2.364-1.848zm4.12-4.548V37h1.116v-3.564c0-1.02.672-1.8 1.68-1.8.804 0 1.344.468 1.344 1.728V37h1.116v-3.84c0-1.728-.948-2.556-2.196-2.556-.696 0-1.488.336-1.92.924h-.024v-.804zm9.782 6.396c1.824 0 3.192-1.44 3.192-3.252 0-1.824-1.368-3.264-3.192-3.264s-3.192 1.44-3.192 3.264c0 1.812 1.368 3.252 3.192 3.252zm0-1.032c-1.224 0-2.028-.984-2.028-2.22 0-1.248.804-2.22 2.028-2.22s2.028.972 2.028 2.22c0 1.236-.804 2.22-2.028 2.22zM28.44 49.72v-.996h-1.704v-2.088l-1.116.372v1.716h-1.404v.996h1.404v3.168c0 1.644.924 2.172 2.088 2.172a2.1 2.1 0 0 0 .732-.132v-1.044a1.41 1.41 0 0 1-.612.132c-.576 0-1.092-.156-1.092-1.068V49.72zm10.558-.996h-1.236l-1.392 4.944h-.024L34.7 48.724H33.6L32 53.668h-.024l-1.488-4.944h-1.284L31.306 55h1.296l1.548-4.692L35.734 55h1.248zm3.52 6.396c1.824 0 3.192-1.44 3.192-3.252 0-1.824-1.368-3.264-3.192-3.264s-3.192 1.44-3.192 3.264c0 1.812 1.368 3.252 3.192 3.252zm0-1.032c-1.224 0-2.028-.984-2.028-2.22 0-1.248.804-2.22 2.028-2.22s2.028.972 2.028 2.22c0 1.236-.804 2.22-2.028 2.22zm4.337-1.68h3.6V51.34h-3.6zm4.5-2.688h1.164V55h1.116v-5.28h1.704v-.996h-1.704v-.612c0-.876.516-1.08 1.092-1.08.204 0 .408.048.612.132v-1.032c-.18-.072-.468-.132-.732-.132-1.164 0-2.088.564-2.088 2.22v.504h-1.164zm9.764 3.9v-2.616c0-1.428-.984-2.4-2.58-2.4-1.548 0-2.58.756-2.652 2.028h1.164c.06-.624.612-1.104 1.464-1.104.84 0 1.488.504 1.488 1.356v.36l-1.98.048c-1.476.06-2.244.804-2.244 1.872 0 1.164.9 1.956 2.208 1.956.696 0 1.452-.24 2.016-.996h.024c0 .252.024.636.048.876h1.092c-.036-.276-.048-.732-.048-1.38zm-1.116-1.5v.24c0 1.176-.9 1.776-1.836 1.776-.744 0-1.224-.348-1.224-.96 0-.576.42-.924 1.332-.972l1.728-.084zm5.387 1.968c-1.176 0-1.896-.948-1.896-2.232 0-1.272.72-2.232 1.896-2.232.756 0 1.416.42 1.668 1.32l1.164-.156c-.384-1.44-1.452-2.184-2.82-2.184-1.86 0-3.072 1.38-3.072 3.252 0 1.884 1.212 3.264 3.072 3.264 1.368 0 2.436-.756 2.82-2.184l-1.164-.156c-.252.888-.912 1.308-1.668 1.308zm7.615-4.368v-.996h-1.704v-2.088l-1.116.372v1.716h-1.404v.996h1.404v3.168c0 1.644.924 2.172 2.088 2.172a2.1 2.1 0 0 0 .732-.132v-1.044a1.41 1.41 0 0 1-.612.132c-.576 0-1.092-.156-1.092-1.068V49.72zm3.99 5.4c1.824 0 3.192-1.44 3.192-3.252 0-1.824-1.368-3.264-3.192-3.264s-3.192 1.44-3.192 3.264c0 1.812 1.368 3.252 3.192 3.252zm0-1.032c-1.224 0-2.028-.984-2.028-2.22 0-1.248.804-2.22 2.028-2.22s2.028.972 2.028 2.22c0 1.236-.804 2.22-2.028 2.22zm4.47-5.364V55h1.116v-3.504c0-1.104.48-1.74 1.68-1.74.132 0 .3.012.444.048V48.7c-.132-.024-.3-.048-.432-.048-.78 0-1.368.36-1.668.9h-.024v-.828zm12.222 4.896v-2.616c0-1.428-.984-2.4-2.58-2.4-1.548 0-2.58.756-2.652 2.028h1.164c.06-.624.612-1.104 1.464-1.104.84 0 1.488.504 1.488 1.356v.36l-1.98.048c-1.476.06-2.244.804-2.244 1.872 0 1.164.9 1.956 2.208 1.956.696 0 1.452-.24 2.016-.996h.024c0 .252.024.636.048.876h1.092c-.036-.276-.048-.732-.048-1.38zm-1.116-1.5v.24c0 1.176-.9 1.776-1.836 1.776-.744 0-1.224-.348-1.224-.96 0-.576.42-.924 1.332-.972l1.728-.084zm4.763 3a2.32 2.32 0 0 0 1.872-.9h.024V55h1.116v-6.276H99.23v3.564c0 1.02-.648 1.788-1.62 1.788-.804 0-1.296-.528-1.296-1.608v-3.744h-1.116v3.9c0 1.56.804 2.496 2.136 2.496zm8.275-5.4v-.996h-1.704v-2.088l-1.116.372v1.716h-1.404v.996h1.404v3.168c0 1.644.924 2.172 2.088 2.172a2.1 2.1 0 0 0 .732-.132v-1.044a1.41 1.41 0 0 1-.612.132c-.576 0-1.092-.156-1.092-1.068V49.72zm4.157-1.116a2.39 2.39 0 0 0-1.86.924h-.024V46.12h-1.116V55h1.116v-3.564c0-1.02.648-1.8 1.656-1.8.792 0 1.296.456 1.296 1.644V55h1.116v-3.924c0-1.644-.936-2.472-2.184-2.472zm6.64 5.508c-1.116 0-1.788-.828-1.908-1.896h4.896c0-2.244-1.176-3.6-3.048-3.612-1.788-.024-3.048 1.38-3.048 3.252 0 1.884 1.26 3.264 3.108 3.264 1.368 0 2.388-.672 2.784-1.932l-1.164-.168c-.204.576-.744 1.092-1.62 1.092zm-.072-4.5c1.056 0 1.68.9 1.8 1.68h-3.612c.132-.78.756-1.68 1.812-1.68zm4.332-.888V55h1.116v-3.564c0-1.02.672-1.8 1.68-1.8.804 0 1.344.468 1.344 1.728V55h1.116v-3.84c0-1.728-.948-2.556-2.196-2.556-.696 0-1.488.336-1.92.924h-.024v-.804zm10.22.996v-.996h-1.704v-2.088l-1.116.372v1.716h-1.404v.996h1.404v3.168c0 1.644.924 2.172 2.088 2.172a2.1 2.1 0 0 0 .732-.132v-1.044a1.41 1.41 0 0 1-.612.132c-.576 0-1.092-.156-1.092-1.068V49.72zm1.842-1.944c.444 0 .792-.348.792-.792s-.348-.804-.792-.804c-.456 0-.804.36-.804.804s.348.792.804.792zm-.564.948V55h1.116v-6.276zm5.462 5.364c-1.176 0-1.896-.948-1.896-2.232 0-1.272.72-2.232 1.896-2.232.756 0 1.416.42 1.668 1.32l1.164-.156c-.384-1.44-1.452-2.184-2.82-2.184-1.86 0-3.072 1.38-3.072 3.252 0 1.884 1.212 3.264 3.072 3.264 1.368 0 2.436-.756 2.82-2.184l-1.164-.156c-.252.888-.912 1.308-1.668 1.308zm9.09-.468v-2.616c0-1.428-.984-2.4-2.58-2.4-1.548 0-2.58.756-2.652 2.028h1.164c.06-.624.612-1.104 1.464-1.104.84 0 1.488.504 1.488 1.356v.36l-1.98.048c-1.476.06-2.244.804-2.244 1.872 0 1.164.9 1.956 2.208 1.956.696 0 1.452-.24 2.016-.996h.024c0 .252.024.636.048.876h1.092c-.036-.276-.048-.732-.048-1.38zm-1.116-1.5v.24c0 1.176-.9 1.776-1.836 1.776-.744 0-1.224-.348-1.224-.96 0-.576.42-.924 1.332-.972l1.728-.084zm6.076-2.4v-.996h-1.704v-2.088l-1.116.372v1.716h-1.404v.996h1.404v3.168c0 1.644.924 2.172 2.088 2.172a2.1 2.1 0 0 0 .732-.132v-1.044a1.41 1.41 0 0 1-.612.132c-.576 0-1.092-.156-1.092-1.068V49.72zm1.842-1.944c.444 0 .792-.348.792-.792s-.348-.804-.792-.804c-.456 0-.804.36-.804.804s.348.792.804.792zm-.564.948V55h1.116v-6.276zm5.594 6.396c1.824 0 3.192-1.44 3.192-3.252 0-1.824-1.368-3.264-3.192-3.264s-3.192 1.44-3.192 3.264c0 1.812 1.368 3.252 3.192 3.252zm0-1.032c-1.224 0-2.028-.984-2.028-2.22 0-1.248.804-2.22 2.028-2.22s2.028.972 2.028 2.22c0 1.236-.804 2.22-2.028 2.22zm4.47-5.364V55h1.116v-3.564c0-1.02.672-1.8 1.68-1.8.804 0 1.344.468 1.344 1.728V55h1.116v-3.84c0-1.728-.948-2.556-2.196-2.556-.696 0-1.488.336-1.92.924h-.024v-.804zm6.352 7.68h.972l.768-2.616h-1.272zm14.955-7.68h-1.236l-1.392 4.944h-.024l-1.656-4.944h-1.08l-1.62 4.944h-.024l-1.488-4.944h-1.284L176.63 55h1.296l1.548-4.692L181.058 55h1.248zm3.924-.12a2.39 2.39 0 0 0-1.86.924h-.024V46.12h-1.116V55h1.116v-3.564c0-1.02.648-1.8 1.656-1.8.792 0 1.296.456 1.296 1.644V55h1.116v-3.924c0-1.644-.936-2.472-2.184-2.472zm4.457-.828c.444 0 .792-.348.792-.792s-.348-.804-.792-.804c-.456 0-.804.36-.804.804s.348.792.804.792zm-.564.948V55h1.116v-6.276zm5.463 5.364c-1.176 0-1.896-.948-1.896-2.232 0-1.272.72-2.232 1.896-2.232.756 0 1.416.42 1.668 1.32l1.164-.156c-.384-1.44-1.452-2.184-2.82-2.184-1.86 0-3.072 1.38-3.072 3.252 0 1.884 1.212 3.264 3.072 3.264 1.368 0 2.436-.756 2.82-2.184l-1.164-.156c-.252.888-.912 1.308-1.668 1.308zm7.11-5.484a2.39 2.39 0 0 0-1.86.924h-.024V46.12h-1.116V55h1.116v-3.564c0-1.02.648-1.8 1.656-1.8.792 0 1.296.456 1.296 1.644V55h1.116v-3.924c0-1.644-.936-2.472-2.184-2.472zm6.62-2.244V55h1.188v-8.64zM27.516 72.088c-1.176 0-1.896-.948-1.896-2.232 0-1.272.72-2.232 1.896-2.232.756 0 1.416.42 1.668 1.32l1.164-.156c-.384-1.44-1.452-2.184-2.82-2.184-1.86 0-3.072 1.38-3.072 3.252 0 1.884 1.212 3.264 3.072 3.264 1.368 0 2.436-.756 2.82-2.184l-1.164-.156c-.252.888-.912 1.308-1.668 1.308zm6.94 1.032c1.824 0 3.192-1.44 3.192-3.252 0-1.824-1.368-3.264-3.192-3.264s-3.192 1.44-3.192 3.264c0 1.812 1.368 3.252 3.192 3.252zm0-1.032c-1.224 0-2.028-.984-2.028-2.22 0-1.248.804-2.22 2.028-2.22s2.028.972 2.028 2.22c0 1.236-.804 2.22-2.028 2.22zm4.47-5.364V73h1.116v-3.564c0-1.02.672-1.8 1.68-1.8.804 0 1.344.468 1.344 1.728V73h1.116v-3.84c0-1.728-.948-2.556-2.196-2.556-.696 0-1.488.336-1.92.924h-.024v-.804zm11.5 4.548c0-1.296-1.008-1.608-1.968-1.836-.936-.24-1.8-.312-1.8-1.032 0-.504.516-.852 1.188-.852.792 0 1.26.432 1.308 1.008h1.2c-.108-1.224-1.152-1.956-2.52-1.956-1.308 0-2.328.792-2.328 1.872 0 1.308 1.128 1.632 2.148 1.872.9.216 1.62.384 1.62 1.008 0 .54-.552.816-1.248.816-.804 0-1.296-.372-1.38-1.068h-1.248c.096 1.284 1.104 2.016 2.664 2.016 1.368 0 2.364-.732 2.364-1.848zm1.957-5.496c.444 0 .792-.348.792-.792s-.348-.804-.792-.804c-.456 0-.804.36-.804.804s.348.792.804.792zm-.564.948V73h1.116v-6.276zm8.51-2.604h-1.116v3.48H59.2a2.57 2.57 0 0 0-2.064-.996c-1.704 0-2.904 1.296-2.904 3.252s1.2 3.264 2.904 3.264c.864 0 1.584-.384 2.064-1.008h.024V73h1.116zm-3.012 3.528c1.212 0 1.92.996 1.92 2.208 0 1.236-.708 2.208-1.92 2.208-1.14 0-1.932-.888-1.932-2.208 0-1.308.792-2.208 1.932-2.208zm7.278 4.464c-1.116 0-1.788-.828-1.908-1.896h4.896c0-2.244-1.176-3.6-3.048-3.612-1.788-.024-3.048 1.38-3.048 3.252 0 1.884 1.26 3.264 3.108 3.264 1.368 0 2.388-.672 2.784-1.932l-1.164-.168c-.204.576-.744 1.092-1.62 1.092zm-.072-4.5c1.056 0 1.68.9 1.8 1.68H62.71c.132-.78.756-1.68 1.812-1.68zm4.332-.888V73h1.116v-3.504c0-1.104.48-1.74 1.68-1.74.132 0 .3.012.444.048V66.7c-.132-.024-.3-.048-.432-.048-.78 0-1.368.36-1.668.9h-.024v-.828zm7.926-.948c.444 0 .792-.348.792-.792s-.348-.804-.792-.804c-.456 0-.804.36-.804.804s.348.792.804.792zm-.564.948V73h1.116v-6.276zm2.88 0V73h1.116v-3.564c0-1.02.672-1.8 1.68-1.8.804 0 1.344.468 1.344 1.728V73h1.116v-3.84c0-1.728-.948-2.556-2.196-2.556-.696 0-1.488.336-1.92.924h-.024v-.804zm12.697-2.604H90.68v3.48h-.024a2.57 2.57 0 0 0-2.064-.996c-1.704 0-2.904 1.296-2.904 3.252s1.2 3.264 2.904 3.264c.864 0 1.584-.384 2.064-1.008h.024V73h1.116zm-3.012 3.528c1.212 0 1.92.996 1.92 2.208 0 1.236-.708 2.208-1.92 2.208-1.14 0-1.932-.888-1.932-2.208 0-1.308.792-2.208 1.932-2.208zm5.33-1.872c.444 0 .792-.348.792-.792s-.348-.804-.792-.804c-.456 0-.804.36-.804.804s.348.792.804.792zm-.564.948V73h1.116v-6.276zm7.548 4.548c0-1.296-1.008-1.608-1.968-1.836-.936-.24-1.8-.312-1.8-1.032 0-.504.516-.852 1.188-.852.792 0 1.26.432 1.308 1.008h1.2c-.108-1.224-1.152-1.956-2.52-1.956-1.308 0-2.328.792-2.328 1.872 0 1.308 1.128 1.632 2.148 1.872.9.216 1.62.384 1.62 1.008 0 .54-.552.816-1.248.816-.804 0-1.296-.372-1.38-1.068H96.07c.096 1.284 1.104 2.016 2.664 2.016 1.368 0 2.364-.732 2.364-1.848zm4.478 1.848c1.704 0 2.904-1.308 2.904-3.264s-1.2-3.252-2.904-3.252c-.852 0-1.584.384-2.064.996h-.024v-.876h-1.116v8.532h1.116v-3.144h.024c.48.624 1.212 1.008 2.064 1.008zm-.18-5.472c1.128 0 1.92.9 1.92 2.208 0 1.32-.792 2.208-1.92 2.208-1.224 0-1.932-.984-1.932-2.208s.708-2.208 1.932-2.208zm7.224 4.464c-1.116 0-1.788-.828-1.908-1.896h4.896c0-2.244-1.176-3.6-3.048-3.612-1.788-.024-3.048 1.38-3.048 3.252 0 1.884 1.26 3.264 3.108 3.264 1.368 0 2.388-.672 2.784-1.932l-1.164-.168c-.204.576-.744 1.092-1.62 1.092zm-.072-4.5c1.056 0 1.68.9 1.8 1.68h-3.612c.132-.78.756-1.68 1.812-1.68zm4.332-.888V73h1.116v-3.564c0-1.02.672-1.8 1.68-1.8.804 0 1.344.468 1.344 1.728V73h1.116v-3.84c0-1.728-.948-2.556-2.196-2.556-.696 0-1.488.336-1.92.924h-.024v-.804zm11.5 4.548c0-1.296-1.008-1.608-1.968-1.836-.936-.24-1.8-.312-1.8-1.032 0-.504.516-.852 1.188-.852.792 0 1.26.432 1.308 1.008h1.2c-.108-1.224-1.152-1.956-2.52-1.956-1.308 0-2.328.792-2.328 1.872 0 1.308 1.128 1.632 2.148 1.872.9.216 1.62.384 1.62 1.008 0 .54-.552.816-1.248.816-.804 0-1.296-.372-1.38-1.068h-1.248c.096 1.284 1.104 2.016 2.664 2.016 1.368 0 2.364-.732 2.364-1.848zm6.253.348v-2.616c0-1.428-.984-2.4-2.58-2.4-1.548 0-2.58.756-2.652 2.028h1.164c.06-.624.612-1.104 1.464-1.104.84 0 1.488.504 1.488 1.356v.36l-1.98.048c-1.476.06-2.244.804-2.244 1.872 0 1.164.9 1.956 2.208 1.956.696 0 1.452-.24 2.016-.996h.024c0 .252.024.636.048.876h1.092c-.036-.276-.048-.732-.048-1.38zm-1.116-1.5v.24c0 1.176-.9 1.776-1.836 1.776-.744 0-1.224-.348-1.224-.96 0-.576.42-.924 1.332-.972l1.728-.084zm2.51 2.88h1.116v-.924h.024c.456.648 1.212 1.044 2.064 1.044 1.704 0 2.904-1.308 2.904-3.264s-1.2-3.252-2.904-3.252c-.852 0-1.608.396-2.064 1.032h-.024V64.12h-1.116zm3.024-5.352c1.128 0 1.92.9 1.92 2.208 0 1.32-.792 2.208-1.92 2.208-1.224 0-1.932-.972-1.932-2.208 0-1.212.708-2.208 1.932-2.208zm4.242-3.528V73h1.116v-8.88zm5.396 7.992c-1.116 0-1.788-.828-1.908-1.896h4.896c0-2.244-1.176-3.6-3.048-3.612-1.788-.024-3.048 1.38-3.048 3.252 0 1.884 1.26 3.264 3.108 3.264 1.368 0 2.388-.672 2.784-1.932l-1.164-.168c-.204.576-.744 1.092-1.62 1.092zm-.072-4.5c1.056 0 1.68.9 1.8 1.68h-3.612c.132-.78.756-1.68 1.812-1.68zm7.863-1.836c.444 0 .792-.348.792-.792s-.348-.804-.792-.804c-.456 0-.804.36-.804.804s.348.792.804.792zm-.564.948V73h1.116v-6.276zm2.88 0V73h1.116v-3.564c0-1.02.672-1.8 1.68-1.8.804 0 1.344.468 1.344 1.728V73h1.116v-3.84c0-1.728-.948-2.556-2.196-2.556-.696 0-1.488.336-1.92.924h-.024v-.804zm9.08.996h1.164V73h1.116v-5.28h1.704v-.996h-1.704v-.612c0-.876.516-1.08 1.092-1.08.204 0 .408.048.612.132v-1.032c-.18-.072-.468-.132-.732-.132-1.164 0-2.088.564-2.088 2.22v.504h-1.164zm5.76-1.944c.444 0 .792-.348.792-.792s-.348-.804-.792-.804c-.456 0-.804.36-.804.804s.348.792.804.792zm-.564.948V73h1.116v-6.276zm2.88 0V73h1.116v-3.564c0-1.02.672-1.8 1.68-1.8.804 0 1.344.468 1.344 1.728V73h1.116v-3.84c0-1.728-.948-2.556-2.196-2.556-.696 0-1.488.336-1.92.924h-.024v-.804zm11.812 4.896v-2.616c0-1.428-.984-2.4-2.58-2.4-1.548 0-2.58.756-2.652 2.028h1.164c.06-.624.612-1.104 1.464-1.104.84 0 1.488.504 1.488 1.356v.36l-1.98.048c-1.476.06-2.244.804-2.244 1.872 0 1.164.9 1.956 2.208 1.956.696 0 1.452-.24 2.016-.996h.024c0 .252.024.636.048.876h1.092c-.036-.276-.048-.732-.048-1.38zm-1.116-1.5v.24c0 1.176-.9 1.776-1.836 1.776-.744 0-1.224-.348-1.224-.96 0-.576.42-.924 1.332-.972l1.728-.084zm2.687-3.396V73h1.116v-3.564c0-1.02.672-1.8 1.68-1.8.804 0 1.344.468 1.344 1.728V73h1.116v-3.84c0-1.728-.948-2.556-2.196-2.556-.696 0-1.488.336-1.92.924h-.024v-.804zm9.65 5.364c-1.176 0-1.896-.948-1.896-2.232 0-1.272.72-2.232 1.896-2.232.756 0 1.416.42 1.668 1.32l1.164-.156c-.384-1.44-1.452-2.184-2.82-2.184-1.86 0-3.072 1.38-3.072 3.252 0 1.884 1.212 3.264 3.072 3.264 1.368 0 2.436-.756 2.82-2.184l-1.164-.156c-.252.888-.912 1.308-1.668 1.308zm4.792-6.312c.444 0 .792-.348.792-.792s-.348-.804-.792-.804c-.456 0-.804.36-.804.804s.348.792.804.792zm-.564.948V73h1.116v-6.276zm7.86 4.896v-2.616c0-1.428-.984-2.4-2.58-2.4-1.548 0-2.58.756-2.652 2.028h1.164c.06-.624.612-1.104 1.464-1.104.84 0 1.488.504 1.488 1.356v.36l-1.98.048c-1.476.06-2.244.804-2.244 1.872 0 1.164.9 1.956 2.208 1.956.696 0 1.452-.24 2.016-.996h.024c0 .252.024.636.048.876h1.092c-.036-.276-.048-.732-.048-1.38zm-1.116-1.5v.24c0 1.176-.9 1.776-1.836 1.776-.744 0-1.224-.348-1.224-.96 0-.576.42-.924 1.332-.972l1.728-.084zm2.51-6V73h1.116v-8.88zM29.484 89.272c0-1.296-1.008-1.608-1.968-1.836-.936-.24-1.8-.312-1.8-1.032 0-.504.516-.852 1.188-.852.792 0 1.26.432 1.308 1.008h1.2c-.108-1.224-1.152-1.956-2.52-1.956-1.308 0-2.328.792-2.328 1.872 0 1.308 1.128 1.632 2.148 1.872.9.216 1.62.384 1.62 1.008 0 .54-.552.816-1.248.816-.804 0-1.296-.372-1.38-1.068h-1.248c.096 1.284 1.104 2.016 2.664 2.016 1.368 0 2.364-.732 2.364-1.848zm4.02.84c-1.116 0-1.788-.828-1.908-1.896h4.896c0-2.244-1.176-3.6-3.048-3.612-1.788-.024-3.048 1.38-3.048 3.252 0 1.884 1.26 3.264 3.108 3.264 1.368 0 2.388-.672 2.784-1.932l-1.164-.168c-.204.576-.744 1.092-1.62 1.092zm-.072-4.5c1.056 0 1.68.9 1.8 1.68H31.62c.132-.78.756-1.68 1.812-1.68zm4.332-.888V91h1.116v-3.504c0-1.104.48-1.74 1.68-1.74.132 0 .3.012.444.048V84.7c-.132-.024-.3-.048-.432-.048-.78 0-1.368.36-1.668.9h-.024v-.828zm3.92 0L44.206 91h1.188l2.568-6.276h-1.26l-1.86 4.956h-.024l-1.824-4.956zm7.884-.948c.444 0 .792-.348.792-.792s-.348-.804-.792-.804c-.456 0-.804.36-.804.804s.348.792.804.792zm-.564.948V91h1.116v-6.276zm5.463 5.364c-1.176 0-1.896-.948-1.896-2.232 0-1.272.72-2.232 1.896-2.232.756 0 1.416.42 1.668 1.32l1.164-.156c-.384-1.44-1.452-2.184-2.82-2.184-1.86 0-3.072 1.38-3.072 3.252 0 1.884 1.212 3.264 3.072 3.264 1.368 0 2.436-.756 2.82-2.184l-1.164-.156c-.252.888-.912 1.308-1.668 1.308zm6.857.024c-1.116 0-1.788-.828-1.908-1.896h4.896c0-2.244-1.176-3.6-3.048-3.612-1.788-.024-3.048 1.38-3.048 3.252 0 1.884 1.26 3.264 3.108 3.264 1.368 0 2.388-.672 2.784-1.932l-1.164-.168c-.204.576-.744 1.092-1.62 1.092zm-.072-4.5c1.056 0 1.68.9 1.8 1.68h-3.612c.132-.78.756-1.68 1.812-1.68zm9 3.66c0-1.296-1.008-1.608-1.968-1.836-.936-.24-1.8-.312-1.8-1.032 0-.504.516-.852 1.188-.852.792 0 1.26.432 1.308 1.008h1.2c-.108-1.224-1.152-1.956-2.52-1.956-1.308 0-2.328.792-2.328 1.872 0 1.308 1.128 1.632 2.148 1.872.9.216 1.62.384 1.62 1.008 0 .54-.552.816-1.248.816-.804 0-1.296-.372-1.38-1.068h-1.248c.096 1.284 1.104 2.016 2.664 2.016 1.368 0 2.364-.732 2.364-1.848zm4.12-7.152V91h1.116v-8.88zm3.45 1.656c.444 0 .792-.348.792-.792s-.348-.804-.792-.804c-.456 0-.804.36-.804.804s.348.792.804.792zm-.564.948V91h1.116v-6.276zm8.004 0H83.68l-2.4 2.556h-.024v-5.16H80.14V91h1.116v-2.952h.024L83.836 91h1.584l-3.084-3.36zm3.448 5.388c-1.116 0-1.788-.828-1.908-1.896H91.7c0-2.244-1.176-3.6-3.048-3.612-1.788-.024-3.048 1.38-3.048 3.252 0 1.884 1.26 3.264 3.108 3.264 1.368 0 2.388-.672 2.784-1.932l-1.164-.168c-.204.576-.744 1.092-1.62 1.092zm-.072-4.5c1.056 0 1.68.9 1.8 1.68h-3.612c.132-.78.756-1.68 1.812-1.68zm10.804.108v-.996H97.74v-2.088l-1.116.372v1.716H95.22v.996h1.404v3.168c0 1.644.924 2.172 2.088 2.172a2.1 2.1 0 0 0 .732-.132v-1.044a1.41 1.41 0 0 1-.612.132c-.576 0-1.092-.156-1.092-1.068V85.72zm4.157-1.116a2.39 2.39 0 0 0-1.86.924h-.024V82.12H100.6V91h1.116v-3.564c0-1.02.648-1.8 1.656-1.8.792 0 1.296.456 1.296 1.644V91h1.116v-3.924c0-1.644-.936-2.472-2.184-2.472zm4.458-.828c.444 0 .792-.348.792-.792s-.348-.804-.792-.804c-.456 0-.804.36-.804.804s.348.792.804.792zm-.564.948V91h1.116v-6.276zm7.548 4.548c0-1.296-1.008-1.608-1.968-1.836-.936-.24-1.8-.312-1.8-1.032 0-.504.516-.852 1.188-.852.792 0 1.26.432 1.308 1.008h1.2c-.108-1.224-1.152-1.956-2.52-1.956-1.308 0-2.328.792-2.328 1.872 0 1.308 1.128 1.632 2.148 1.872.9.216 1.62.384 1.62 1.008 0 .54-.552.816-1.248.816-.804 0-1.296-.372-1.38-1.068h-1.248c.096 1.284 1.104 2.016 2.664 2.016 1.368 0 2.364-.732 2.364-1.848zm1.933 1.836c.444 0 .804-.36.804-.792s-.36-.804-.804-.804-.792.372-.792.804a.8.8 0 0 0 .792.792z" fill="#fff"/><path d="M31.092 125h1.296l-3.54-8.64h-1.2L24.096 125h1.236l.888-2.22h4.02zm-4.428-3.336l1.584-3.996h.024l1.536 3.996zm9.852 3.456c1.704 0 2.904-1.308 2.904-3.264s-1.2-3.252-2.904-3.252c-.852 0-1.584.384-2.064.996h-.024v-.876h-1.116v8.532h1.116v-3.144h.024c.48.624 1.212 1.008 2.064 1.008zm-.18-5.472c1.128 0 1.92.9 1.92 2.208 0 1.32-.792 2.208-1.92 2.208-1.224 0-1.932-.984-1.932-2.208s.708-2.208 1.932-2.208zm7.563 5.472c1.704 0 2.904-1.308 2.904-3.264s-1.2-3.252-2.904-3.252c-.852 0-1.584.384-2.064.996h-.024v-.876h-1.116v8.532h1.116v-3.144h.024c.48.624 1.212 1.008 2.064 1.008zm-.18-5.472c1.128 0 1.92.9 1.92 2.208 0 1.32-.792 2.208-1.92 2.208-1.224 0-1.932-.984-1.932-2.208s.708-2.208 1.932-2.208zm13.435 2.988c0-1.62-1.356-2.1-2.676-2.412-1.308-.312-2.508-.432-2.508-1.572 0-.828.876-1.32 1.824-1.32 1.152 0 1.836.708 1.956 1.56h1.308c-.204-1.56-1.476-2.652-3.312-2.652-1.848 0-3.012 1.188-3.012 2.484 0 1.644 1.344 2.172 2.748 2.508 1.212.288 2.436.492 2.436 1.512 0 .804-.864 1.284-1.908 1.284-1.188 0-1.944-.564-2.1-1.68h-1.344c.12 1.536 1.368 2.772 3.492 2.772 1.896 0 3.096-1.02 3.096-2.484zm5.013-2.916v-.996h-1.704v-2.088l-1.116.372v1.716h-1.404v.996h1.404v3.168c0 1.644.924 2.172 2.088 2.172a2.1 2.1 0 0 0 .732-.132v-1.044a1.41 1.41 0 0 1-.612.132c-.576 0-1.092-.156-1.092-1.068v-3.228zm3.99 5.4c1.824 0 3.192-1.44 3.192-3.252 0-1.824-1.368-3.264-3.192-3.264s-3.192 1.44-3.192 3.264c0 1.812 1.368 3.252 3.192 3.252zm0-1.032c-1.224 0-2.028-.984-2.028-2.22 0-1.248.804-2.22 2.028-2.22s2.028.972 2.028 2.22c0 1.236-.804 2.22-2.028 2.22zm4.47-5.364V125h1.116v-3.504c0-1.104.48-1.74 1.68-1.74.132 0 .3.012.444.048V118.7c-.132-.024-.3-.048-.432-.048-.78 0-1.368.36-1.668.9h-.024v-.828zm6.908 5.388c-1.116 0-1.788-.828-1.908-1.896h4.896c0-2.244-1.176-3.6-3.048-3.612-1.788-.024-3.048 1.38-3.048 3.252 0 1.884 1.26 3.264 3.108 3.264 1.368 0 2.388-.672 2.784-1.932l-1.164-.168c-.204.576-.744 1.092-1.62 1.092zm-.072-4.5c1.056 0 1.68.9 1.8 1.68H75.65c.132-.78.756-1.68 1.812-1.68zM93.512 125l-2.388-3.756c1.284-.216 2.1-1.08 2.1-2.412 0-1.488-1.044-2.472-2.772-2.472h-2.964V125h1.188v-3.696h1.212L92.132 125zm-4.836-7.524h1.788c.96 0 1.536.492 1.536 1.356 0 .816-.528 1.356-1.536 1.356h-1.788zm8.51 6.636c-1.116 0-1.788-.828-1.908-1.896h4.896c0-2.244-1.176-3.6-3.048-3.612-1.788-.024-3.048 1.38-3.048 3.252 0 1.884 1.26 3.264 3.108 3.264 1.368 0 2.388-.672 2.784-1.932l-1.164-.168c-.204.576-.744 1.092-1.62 1.092zm-.072-4.5c1.056 0 1.68.9 1.8 1.68H95.3c.132-.78.756-1.68 1.812-1.68zm3.507-.888l2.52 6.276h1.188l2.568-6.276h-1.26l-1.86 4.956h-.024l-1.824-4.956zm7.884-.948c.444 0 .792-.348.792-.792s-.348-.804-.792-.804c-.456 0-.804.36-.804.804s.348.792.804.792zm-.564.948V125h1.116v-6.276zm5.51 5.388c-1.116 0-1.788-.828-1.908-1.896h4.896c0-2.244-1.176-3.6-3.048-3.612-1.788-.024-3.048 1.38-3.048 3.252 0 1.884 1.26 3.264 3.108 3.264 1.368 0 2.388-.672 2.784-1.932l-1.164-.168c-.204.576-.744 1.092-1.62 1.092zm-.072-4.5c1.056 0 1.68.9 1.8 1.68h-3.612c.132-.78.756-1.68 1.812-1.68zm13.428-.888h-1.236l-1.392 4.944h-.024l-1.656-4.944h-1.08l-1.62 4.944h-.024l-1.488-4.944h-1.284l2.112 6.276h1.296l1.548-4.692 1.584 4.692h1.248z" fill="#acacac"/></svg>