<svg xmlns="http://www.w3.org/2000/svg" fill="none" height="812" width="375" xmlns:v="https://vecta.io/nano"><filter id="A" color-interpolation-filters="sRGB" filterUnits="userSpaceOnUse" height="137.366" width="429.366" x="-27.183" y="-27.183"><feFlood flood-opacity="0"/><feGaussianBlur in="BackgroundImage" stdDeviation="13.591"/><feComposite in2="SourceAlpha" operator="in" result="B"/><feColorMatrix in="SourceAlpha" values="0 0 0 0 0 0 0 0 0 0 0 0 0 0 0 0 0 0 127 0"/><feOffset dy=".5"/><feColorMatrix values="0 0 0 0 0 0 0 0 0 0 0 0 0 0 0 0 0 0 0.3 0"/><feBlend in2="B"/><feBlend in="SourceGraphic"/></filter><clipPath id="B"><rect height="812" rx="26.538" width="375"/></clipPath><g clip-path="url(#B)"><rect fill="#fff" height="812" rx="26.538" width="375"/><ellipse cx="181.109" cy="356.133" fill="#e4e8eb" rx="63.609" ry="6.891"/><path d="m182.088 356.458c33.967 0 61.502-27.536 61.502-61.503s-27.535-61.502-61.502-61.502-61.503 27.535-61.503 61.502 27.536 61.503 61.503 61.503z" fill="#262f3a"/><g fill="#fff"><path d="M182.087 329.313c19.002 0 34.398-15.396 34.398-34.398s-15.396-34.398-34.398-34.398-34.397 15.396-34.397 34.398 15.395 34.398 34.397 34.398zm0-60.085c14.22 0 25.728 11.506 25.728 25.727s-11.507 25.728-25.728 25.728-25.727-11.507-25.727-25.728 11.506-25.727 25.727-25.727zm0 77.344c28.523 0 51.658-23.135 51.658-51.658s-23.135-51.657-51.658-51.657-51.657 23.134-51.657 51.657 23.134 51.658 51.657 51.658zm0-94.604c23.743 0 42.988 19.245 42.988 42.987s-19.245 42.987-42.988 42.987-42.987-19.245-42.987-42.987 19.245-42.987 42.987-42.987zm.001 59.802c9.32 0 16.854-7.536 16.854-16.855s-7.535-16.854-16.854-16.854-16.855 7.535-16.855 16.854 7.536 16.855 16.855 16.855zm0-27.186c5.713 0 10.372 4.66 10.372 10.372s-4.66 10.372-10.372 10.372-10.372-4.66-10.372-10.372a10.34 10.34 0 0 1 10.372-10.372z"/></g><path d="M181.966 356.458V233.453c-33.952 0-61.503 27.55-61.503 61.502s27.55 61.503 61.503 61.503z" fill="#182739" opacity=".1"/><path d="M247.844 228.915l-68.998 66.364 2.917 3.04 69-66.405z" fill="#ffbc2e"/><g fill="#262f3a"><path d="M243.995 231.143l-15.922 15.396-3.282-10.007 15.923-15.356zm4.335 5.227l-15.883 15.355 10.13 3.93L258.5 240.3zM80.566 420.3V435H78.32l-8.106-9.954V435h-2.7v-14.7h2.247l8.106 9.954V420.3zm8.727 14.847c-1.134 0-2.156-.245-3.066-.735a5.46 5.46 0 0 1-2.142-2.037c-.504-.882-.756-1.876-.756-2.982s.252-2.093.756-2.96c.518-.868 1.232-1.547 2.142-2.037s1.932-.735 3.066-.735c1.148 0 2.177.245 3.087.735s1.617 1.17 2.12 2.037c.518.868.777 1.855.777 2.96s-.26 2.1-.777 2.982c-.504.868-1.2 1.547-2.12 2.037s-1.94.735-3.087.735zm0-2.247c.966 0 1.764-.322 2.394-.966s.945-1.5.945-2.54-.315-1.897-.945-2.54-1.428-.966-2.394-.966-1.764.322-2.394.966c-.616.644-.924 1.5-.924 2.54s.308 1.897.924 2.54c.63.644 1.428.966 2.394.966zm25.68-9.114L110.836 435h-2.52l-2.898-7.728-2.94 7.728h-2.52l-4.116-11.214h2.478l2.96 8.274 3.087-8.274h2.205l3.024 8.316 3.045-8.316zm14.35 10.605c-.308.252-.686.44-1.134.567a4.95 4.95 0 0 1-1.386.189c-1.232 0-2.184-.322-2.856-.966s-1.008-1.582-1.008-2.814v-5.397h-1.848v-2.1h1.848v-2.562h2.625v2.562h3.003v2.1h-3.003v5.334c0 .546.133.966.4 1.26.266.28.65.42 1.155.42.588 0 1.078-.154 1.47-.462zm12.332-4.935a10.07 10.07 0 0 1-.042.777h-8.8c.154.826.553 1.484 1.197 1.974.658.476 1.47.714 2.436.714 1.232 0 2.247-.406 3.045-1.218l1.407 1.617a4.74 4.74 0 0 1-1.911 1.365c-.77.308-1.638.462-2.604.462-1.232 0-2.317-.245-3.255-.735s-1.666-1.17-2.184-2.037c-.504-.882-.756-1.876-.756-2.982 0-1.092.245-2.072.735-2.94a5.34 5.34 0 0 1 2.079-2.058c.882-.5 1.876-.735 2.982-.735 1.092 0 2.065.245 2.92.735.868.476 1.54 1.155 2.016 2.037.5.868.735 1.876.735 3.024zm-5.67-3.696c-.84 0-1.554.252-2.142.756-.574.5-.924 1.148-1.05 1.974h6.363c-.112-.812-.455-1.47-1.03-1.974s-1.288-.756-2.142-.756zm8.192-6.342h2.625V435h-2.625zm6.07 0h2.625V435h-2.625zm22.73 4.368V435h-2.5v-1.428c-.42.504-.945.896-1.575 1.176-.63.266-1.3.4-2.037.4-1.498 0-2.68-.413-3.55-1.24-.854-.84-1.28-2.08-1.28-3.717v-6.405h2.625v6.048c0 1.008.224 1.764.672 2.268.462.5 1.113.735 1.953.735.938 0 1.68-.287 2.226-.86.56-.588.84-1.428.84-2.52v-5.67zm6.902 11.36a10.04 10.04 0 0 1-2.667-.357c-.868-.238-1.56-.54-2.08-.903l1.008-1.995c.504.336 1.106.6 1.806.82.714.196 1.414.294 2.1.294 1.568 0 2.352-.413 2.352-1.24 0-.392-.203-.665-.6-.82-.392-.154-1.03-.3-1.9-.44-.924-.14-1.68-.3-2.268-.483a3.59 3.59 0 0 1-1.512-.945c-.42-.462-.63-1.1-.63-1.9a2.96 2.96 0 0 1 1.323-2.54c.896-.644 2.1-.966 3.612-.966a10.01 10.01 0 0 1 2.31.273c.77.168 1.4.4 1.9.693l-1.008 1.995c-.952-.56-2.023-.84-3.213-.84-.77 0-1.358.12-1.764.357-.392.224-.588.525-.588.903 0 .42.2.72.63.903.434.168 1.1.33 1.995.483.896.14 1.63.3 2.205.483s1.064.5 1.47.924c.42.434.63 1.05.63 1.848 0 1.05-.455 1.9-1.365 2.52s-2.15.945-3.717.945zm17.43-11.487c1.652 0 2.912.4 3.78 1.197.882.784 1.323 1.974 1.323 3.57V435h-2.478v-1.365c-.322.5-.784.868-1.386 1.134-.588.252-1.302.378-2.142.378s-1.575-.14-2.205-.42c-.63-.294-1.12-.693-1.47-1.197-.336-.518-.504-1.1-.504-1.743 0-1.008.37-1.813 1.113-2.415.756-.616 1.94-.924 3.55-.924h2.898v-.168c0-.784-.238-1.386-.714-1.806-.462-.42-1.155-.63-2.08-.63a6.13 6.13 0 0 0-1.869.294c-.602.196-1.113.47-1.533.82l-1.03-1.9c.588-.448 1.295-.8 2.12-1.03s1.7-.357 2.625-.357zm-.357 9.576c.658 0 1.24-.147 1.743-.44.518-.308.882-.742 1.092-1.302v-1.302h-2.7c-1.512 0-2.268.497-2.268 1.5a1.34 1.34 0 0 0 .567 1.134c.377.28.903.42 1.575.42zm15.045-9.576c1.092 0 2.065.238 2.92.714a5.13 5.13 0 0 1 2.037 2.016c.5.868.735 1.87.735 3.003s-.245 2.142-.735 3.024a5.13 5.13 0 0 1-2.037 2.016c-.854.476-1.827.714-2.92.714-.77 0-1.477-.133-2.12-.4-.63-.266-1.162-.665-1.596-1.197V435h-2.5v-15.582h2.625v5.733a4.43 4.43 0 0 1 1.575-1.113c.616-.252 1.288-.378 2.016-.378zm-.294 9.24c.966 0 1.757-.322 2.373-.966.63-.644.945-1.5.945-2.54s-.315-1.897-.945-2.54c-.616-.644-1.407-.966-2.373-.966-.63 0-1.197.147-1.7.44-.504.28-.903.686-1.197 1.218s-.44 1.148-.44 1.848.147 1.316.44 1.848.693.945 1.197 1.24c.504.28 1.07.42 1.7.42zm13.515 2.247c-1.134 0-2.156-.245-3.066-.735a5.46 5.46 0 0 1-2.142-2.037c-.504-.882-.756-1.876-.756-2.982s.252-2.093.756-2.96c.518-.868 1.232-1.547 2.142-2.037s1.932-.735 3.066-.735c1.148 0 2.177.245 3.087.735s1.617 1.17 2.12 2.037c.518.868.777 1.855.777 2.96s-.26 2.1-.777 2.982c-.504.868-1.2 1.547-2.12 2.037s-1.94.735-3.087.735zm0-2.247c.966 0 1.764-.322 2.394-.966s.945-1.5.945-2.54-.315-1.897-.945-2.54-1.428-.966-2.394-.966-1.764.322-2.394.966c-.616.644-.924 1.5-.924 2.54s.308 1.897.924 2.54c.63.644 1.428.966 2.394.966zm19.352-9.114V435h-2.5v-1.428c-.42.504-.945.896-1.575 1.176-.63.266-1.3.4-2.037.4-1.498 0-2.68-.413-3.55-1.24-.854-.84-1.28-2.08-1.28-3.717v-6.405h2.625v6.048c0 1.008.224 1.764.672 2.268.462.5 1.113.735 1.953.735.938 0 1.68-.287 2.226-.86.56-.588.84-1.428.84-2.52v-5.67zm10.178 10.605c-.308.252-.686.44-1.134.567a4.95 4.95 0 0 1-1.386.189c-1.232 0-2.184-.322-2.856-.966s-1.008-1.582-1.008-2.814v-5.397h-1.848v-2.1h1.848v-2.562H251v2.562h3.003v2.1H251v5.334c0 .546.133.966.4 1.26.266.28.65.42 1.155.42.588 0 1.078-.154 1.47-.462zm18.463-10.605l-5.25 12.117c-.5 1.218-1.085 2.072-1.785 2.562-.7.504-1.547.756-2.54.756a5.2 5.2 0 0 1-1.66-.273c-.547-.183-.994-.434-1.344-.756l1.05-1.932a2.89 2.89 0 0 0 .882.567 2.81 2.81 0 0 0 1.05.21c.462 0 .84-.12 1.134-.357.308-.238.588-.637.84-1.197l.2-.44-4.893-11.256h2.73l3.528 8.295 3.55-8.295zm6.373 11.36c-1.134 0-2.156-.245-3.066-.735a5.46 5.46 0 0 1-2.142-2.037c-.504-.882-.756-1.876-.756-2.982s.252-2.093.756-2.96c.518-.868 1.232-1.547 2.142-2.037s1.932-.735 3.066-.735c1.148 0 2.177.245 3.087.735s1.617 1.17 2.12 2.037c.518.868.777 1.855.777 2.96s-.26 2.1-.777 2.982c-.504.868-1.2 1.547-2.12 2.037s-1.94.735-3.087.735zm0-2.247c.966 0 1.764-.322 2.394-.966s.945-1.5.945-2.54-.315-1.897-.945-2.54-1.428-.966-2.394-.966-1.764.322-2.394.966c-.616.644-.924 1.5-.924 2.54s.308 1.897.924 2.54c.63.644 1.428.966 2.394.966zm19.352-9.114V435h-2.5v-1.428c-.42.504-.945.896-1.575 1.176-.63.266-1.3.4-2.037.4-1.498 0-2.68-.413-3.55-1.24-.854-.84-1.28-2.08-1.28-3.717v-6.405h2.625v6.048c0 1.008.224 1.764.672 2.268.462.5 1.113.735 1.953.735.938 0 1.68-.287 2.226-.86.56-.588.84-1.428.84-2.52v-5.67zm5.936 1.638c.756-1.176 2.086-1.764 4-1.764v2.5c-.224-.042-.427-.063-.6-.063-1.022 0-1.82.3-2.394.903-.574.588-.86 1.442-.86 2.562V435h-2.625v-11.214h2.5zM55.95 449.66c1.652 0 2.912.4 3.78 1.197.882.784 1.323 1.974 1.323 3.57V461h-2.478v-1.365c-.322.5-.784.868-1.386 1.134-.588.252-1.302.378-2.142.378s-1.575-.14-2.205-.42c-.63-.294-1.12-.693-1.47-1.197-.336-.518-.504-1.1-.504-1.743 0-1.008.37-1.813 1.113-2.415.756-.616 1.94-.924 3.55-.924h2.898v-.168c0-.784-.238-1.386-.714-1.806-.462-.42-1.155-.63-2.08-.63a6.13 6.13 0 0 0-1.869.294c-.602.196-1.113.47-1.533.82l-1.03-1.9c.588-.448 1.295-.8 2.12-1.03s1.7-.357 2.625-.357zm-.357 9.576c.658 0 1.24-.147 1.743-.44.518-.308.882-.742 1.092-1.302v-1.302h-2.7c-1.512 0-2.268.497-2.268 1.5a1.34 1.34 0 0 0 .567 1.134c.377.28.903.42 1.575.42zm15.57 1.155c-.308.252-.686.44-1.134.567a4.95 4.95 0 0 1-1.386.189c-1.232 0-2.184-.322-2.856-.966s-1.008-1.582-1.008-2.814v-5.397h-1.85v-2.1h1.848v-2.562h2.625v2.562h3.003v2.1h-3.003v5.334c0 .546.133.966.4 1.26.266.28.65.42 1.155.42.588 0 1.078-.154 1.47-.462zm8.634 0c-.308.252-.686.44-1.134.567a4.95 4.95 0 0 1-1.386.189c-1.232 0-2.184-.322-2.856-.966s-1.008-1.582-1.008-2.814v-5.397h-1.848v-2.1h1.848v-2.562h2.625v2.562h3.003v2.1h-3.003v5.334c0 .546.133.966.4 1.26.266.28.65.42 1.155.42.588 0 1.078-.154 1.47-.462zm2.16-10.605h2.625V461h-2.625zm1.323-1.848c-.476 0-.875-.147-1.197-.44-.322-.308-.483-.686-.483-1.134a1.44 1.44 0 0 1 .483-1.113c.322-.308.72-.462 1.197-.462a1.71 1.71 0 0 1 1.197.44c.322.28.483.637.483 1.07a1.6 1.6 0 0 1-.483 1.176c-.308.308-.707.462-1.197.462zm11.488 12.453c-.308.252-.686.44-1.134.567a4.95 4.95 0 0 1-1.386.189c-1.232 0-2.184-.322-2.856-.966s-1.008-1.582-1.008-2.814v-5.397h-1.848v-2.1h1.848v-2.562h2.625v2.562h3.003v2.1H91.01v5.334c0 .546.133.966.4 1.26.266.28.65.42 1.155.42.588 0 1.078-.154 1.47-.462zm13.017-10.605V461h-2.5v-1.428c-.42.504-.945.896-1.575 1.176-.63.266-1.3.4-2.037.4-1.498 0-2.68-.413-3.55-1.24-.854-.84-1.28-2.08-1.28-3.717v-6.405h2.625v6.048c0 1.008.224 1.764.672 2.268.462.5 1.113.735 1.953.735.938 0 1.68-.287 2.226-.86.56-.588.84-1.428.84-2.52v-5.67zm14.42-4.368V461h-2.52v-1.45c-.434.532-.973.93-1.617 1.197-.63.266-1.33.4-2.1.4-1.078 0-2.05-.238-2.92-.714-.854-.476-1.526-1.148-2.016-2.016-.5-.882-.735-1.9-.735-3.024s.245-2.135.735-3.003 1.162-1.54 2.016-2.016c.868-.476 1.84-.714 2.92-.714.742 0 1.42.126 2.037.378s1.14.63 1.575 1.134v-5.754zm-5.922 13.482c.63 0 1.197-.14 1.7-.42a3.18 3.18 0 0 0 1.197-1.24c.294-.533.44-1.148.44-1.848s-.147-1.316-.44-1.848-.693-.938-1.197-1.218c-.504-.294-1.07-.44-1.7-.44s-1.197.147-1.7.44c-.504.28-.903.686-1.197 1.218s-.44 1.148-.44 1.848.147 1.316.44 1.848.693.945 1.197 1.24c.504.28 1.07.42 1.7.42zm19.898-3.444a10.07 10.07 0 0 1-.042.777h-8.8c.154.826.553 1.484 1.197 1.974.658.476 1.47.714 2.436.714 1.232 0 2.247-.406 3.045-1.218l1.407 1.617a4.74 4.74 0 0 1-1.911 1.365c-.77.308-1.638.462-2.604.462-1.232 0-2.317-.245-3.255-.735s-1.666-1.17-2.184-2.037c-.504-.882-.756-1.876-.756-2.982 0-1.092.245-2.072.735-2.94a5.34 5.34 0 0 1 2.079-2.058c.882-.5 1.876-.735 2.982-.735 1.092 0 2.065.245 2.92.735.868.476 1.54 1.155 2.016 2.037.5.868.735 1.876.735 3.024zm-5.67-3.696c-.84 0-1.554.252-2.142.756-.574.5-.924 1.148-1.05 1.974h6.363c-.112-.812-.455-1.47-1.03-1.974s-1.288-.756-2.142-.756zm20.736 8.63c-.308.252-.686.44-1.134.567a4.95 4.95 0 0 1-1.386.189c-1.232 0-2.184-.322-2.856-.966s-1.008-1.582-1.008-2.814v-5.397h-1.848v-2.1h1.848v-2.562h2.625v2.562h3.003v2.1h-3.003v5.334c0 .546.133.966.4 1.26.266.28.65.42 1.155.42.588 0 1.078-.154 1.47-.462zm6.83.756c-1.134 0-2.156-.245-3.066-.735a5.46 5.46 0 0 1-2.142-2.037c-.504-.882-.756-1.876-.756-2.982s.252-2.093.756-2.96c.518-.868 1.232-1.547 2.142-2.037s1.932-.735 3.066-.735c1.148 0 2.177.245 3.087.735s1.617 1.17 2.12 2.037c.518.868.777 1.855.777 2.96s-.26 2.1-.777 2.982c-.504.868-1.2 1.547-2.12 2.037s-1.94.735-3.087.735zm0-2.247c.966 0 1.764-.322 2.394-.966s.945-1.5.945-2.54-.315-1.897-.945-2.54-1.428-.966-2.394-.966-1.764.322-2.394.966c-.616.644-.924 1.5-.924 2.54s.308 1.897.924 2.54c.63.644 1.428.966 2.394.966zm25.68-9.114L179.62 461h-2.52l-2.898-7.728-2.94 7.728h-2.52l-4.116-11.214h2.478l2.96 8.274 3.087-8.274h2.205l3.024 8.316 3.045-8.316zm5.74-.126c1.652 0 2.912.4 3.78 1.197.882.784 1.323 1.974 1.323 3.57V461h-2.478v-1.365c-.322.5-.784.868-1.386 1.134-.588.252-1.302.378-2.142.378s-1.575-.14-2.205-.42c-.63-.294-1.12-.693-1.47-1.197-.336-.518-.504-1.1-.504-1.743 0-1.008.37-1.813 1.113-2.415.756-.616 1.94-.924 3.55-.924h2.898v-.168c0-.784-.238-1.386-.714-1.806-.462-.42-1.155-.63-2.08-.63a6.13 6.13 0 0 0-1.869.294c-.602.196-1.113.47-1.533.82l-1.03-1.9c.588-.448 1.295-.8 2.12-1.03s1.7-.357 2.625-.357zm-.357 9.576c.658 0 1.24-.147 1.743-.44.518-.308.882-.742 1.092-1.302v-1.302h-2.7c-1.512 0-2.268.497-2.268 1.5a1.34 1.34 0 0 0 .567 1.134c.377.28.903.42 1.575.42zm11.328-7.812c.756-1.176 2.086-1.764 4-1.764v2.5c-.224-.042-.427-.063-.6-.063-1.022 0-1.82.3-2.394.903-.574.588-.86 1.442-.86 2.562V461h-2.625v-11.214h2.5zm17.097-6.006V461h-2.52v-1.45c-.434.532-.973.93-1.617 1.197-.63.266-1.33.4-2.1.4-1.078 0-2.05-.238-2.92-.714-.854-.476-1.526-1.148-2.016-2.016-.5-.882-.735-1.9-.735-3.024s.245-2.135.735-3.003 1.162-1.54 2.016-2.016c.868-.476 1.84-.714 2.92-.714.742 0 1.42.126 2.037.378s1.14.63 1.575 1.134v-5.754zm-5.922 13.482c.63 0 1.197-.14 1.7-.42a3.18 3.18 0 0 0 1.197-1.24c.294-.533.44-1.148.44-1.848s-.147-1.316-.44-1.848-.693-.938-1.197-1.218c-.504-.294-1.07-.44-1.7-.44s-1.197.147-1.7.44c-.504.28-.903.686-1.197 1.218s-.44 1.148-.44 1.848.147 1.316.44 1.848.693.945 1.197 1.24c.504.28 1.07.42 1.7.42zm15.16-9.114h2.625V461h-2.625zm1.323-1.848c-.476 0-.875-.147-1.197-.44-.322-.308-.483-.686-.483-1.134a1.44 1.44 0 0 1 .483-1.113c.322-.308.72-.462 1.197-.462a1.71 1.71 0 0 1 1.197.44c.322.28.483.637.483 1.07a1.6 1.6 0 0 1-.483 1.176c-.308.308-.707.462-1.197.462zm11.1 1.722c1.414 0 2.548.413 3.402 1.24s1.28 2.05 1.28 3.675V461h-2.625v-6.1c0-.98-.23-1.715-.693-2.205-.462-.504-1.12-.756-1.974-.756-.966 0-1.73.294-2.3.882-.56.574-.84 1.407-.84 2.5V461h-2.625v-11.214h2.5v1.45c.434-.518.98-.9 1.638-1.176s1.4-.4 2.226-.4zm18.308.126l-4.8 11.215h-2.7l-4.8-11.214h2.73l3.486 8.316 3.6-8.316zm11.875 5.67a10.07 10.07 0 0 1-.042.777h-8.8c.154.826.553 1.484 1.197 1.974.658.476 1.47.714 2.436.714 1.232 0 2.247-.406 3.045-1.218l1.407 1.617a4.74 4.74 0 0 1-1.911 1.365c-.77.308-1.638.462-2.604.462-1.232 0-2.317-.245-3.255-.735s-1.666-1.17-2.184-2.037c-.504-.882-.756-1.876-.756-2.982 0-1.092.245-2.072.735-2.94a5.34 5.34 0 0 1 2.079-2.058c.882-.5 1.876-.735 2.982-.735 1.092 0 2.065.245 2.92.735.868.476 1.54 1.155 2.016 2.037.5.868.735 1.876.735 3.024zm-5.67-3.696c-.84 0-1.554.252-2.142.756-.574.5-.924 1.148-1.05 1.974h6.363c-.112-.812-.455-1.47-1.03-1.974s-1.288-.756-2.142-.756zm11.656 9.387a10.04 10.04 0 0 1-2.667-.357c-.868-.238-1.56-.54-2.08-.903l1.008-1.995c.504.336 1.106.6 1.806.82.714.196 1.414.294 2.1.294 1.568 0 2.352-.413 2.352-1.24 0-.392-.203-.665-.6-.82-.392-.154-1.03-.3-1.9-.44-.924-.14-1.68-.3-2.268-.483a3.59 3.59 0 0 1-1.512-.945c-.42-.462-.63-1.1-.63-1.9a2.96 2.96 0 0 1 1.323-2.54c.896-.644 2.1-.966 3.612-.966a10.01 10.01 0 0 1 2.31.273c.77.168 1.4.4 1.9.693l-1.008 1.995c-.952-.56-2.023-.84-3.213-.84-.77 0-1.358.12-1.764.357-.392.224-.588.525-.588.903 0 .42.2.72.63.903.434.168 1.1.33 1.995.483.896.14 1.63.3 2.205.483s1.064.5 1.47.924c.42.434.63 1.05.63 1.848 0 1.05-.455 1.9-1.365 2.52s-2.15.945-3.717.945zm14.084-.756c-.308.252-.686.44-1.134.567a4.95 4.95 0 0 1-1.386.189c-1.232 0-2.184-.322-2.856-.966s-1.008-1.582-1.008-2.814v-5.397h-1.848v-2.1h1.848v-2.562h2.625v2.562h3.003v2.1h-3.003v5.334c0 .546.133.966.4 1.26.266.28.65.42 1.155.42.588 0 1.078-.154 1.47-.462zm2.16-10.605h2.625V461h-2.625zm1.323-1.848c-.476 0-.875-.147-1.197-.44-.322-.308-.483-.686-.483-1.134a1.44 1.44 0 0 1 .483-1.113c.322-.308.72-.462 1.197-.462a1.71 1.71 0 0 1 1.197.44c.322.28.483.637.483 1.07a1.6 1.6 0 0 1-.483 1.176c-.308.308-.707.462-1.197.462zm11.1 1.722c1.414 0 2.548.413 3.402 1.24s1.28 2.05 1.28 3.675V461h-2.625v-6.1c0-.98-.23-1.715-.693-2.205-.462-.504-1.12-.756-1.974-.756-.966 0-1.73.294-2.3.882-.56.574-.84 1.407-.84 2.5V461h-2.625v-11.214h2.5v1.45c.434-.518.98-.9 1.638-1.176s1.4-.4 2.226-.4zm19.245.126v9.513c0 3.948-2.016 5.922-6.048 5.922a10.96 10.96 0 0 1-3.066-.42c-.966-.266-1.764-.658-2.394-1.176l1.176-1.974c.5.406 1.106.728 1.848.966.756.252 1.52.378 2.3.378 1.232 0 2.135-.28 2.7-.84s.86-1.414.86-2.562v-.588c-.448.5-.994.86-1.638 1.113s-1.35.378-2.12.378c-1.064 0-2.03-.224-2.898-.672-.854-.462-1.533-1.106-2.037-1.932s-.735-1.77-.735-2.835.245-2.002.735-2.814c.504-.826 1.183-1.463 2.037-1.9.868-.448 1.834-.672 2.898-.672.812 0 1.547.133 2.205.4.672.266 1.232.672 1.68 1.218v-1.5zm-5.985 8.484c.994 0 1.806-.294 2.436-.882.644-.602.966-1.38.966-2.33 0-.938-.322-1.7-.966-2.3-.63-.588-1.442-.882-2.436-.882-1.008 0-1.834.294-2.478.882-.63.588-.945 1.35-.945 2.3 0 .952.315 1.73.945 2.33.644.588 1.47.882 2.478.882z"/></g><path d="M51.425 500v-4.064l-3.152-6.432h1.424l1.36 2.96.496 1.136.512 1.152h.064l.544-1.152.512-1.136 1.344-2.96h1.392l-3.152 6.432V500zm8.153.192c-.48 0-.94-.09-1.376-.272-.427-.18-.805-.443-1.136-.784-.33-.352-.597-.78-.8-1.28-.192-.512-.288-1.088-.288-1.728 0-.65.096-1.227.288-1.728.203-.512.47-.944.8-1.296s.71-.62 1.136-.8c.437-.18.896-.272 1.376-.272s.933.09 1.36.272c.437.18.82.448 1.152.8s.592.784.784 1.296c.203.5.304 1.077.304 1.728 0 .64-.1 1.216-.304 1.728-.192.5-.453.928-.784 1.28-.33.34-.715.603-1.152.784-.427.18-.88.272-1.36.272zm0-1.088c.33 0 .635-.07.912-.208.277-.15.512-.352.704-.608a2.89 2.89 0 0 0 .464-.944c.107-.363.16-.768.16-1.216s-.053-.853-.16-1.216a2.88 2.88 0 0 0-.464-.96c-.192-.267-.427-.47-.704-.608-.277-.15-.58-.224-.912-.224s-.635.075-.912.224c-.277.14-.517.34-.72.608a3.08 3.08 0 0 0-.448.96c-.107.363-.16.768-.16 1.216s.053.853.16 1.216.256.677.448.944c.203.256.443.46.72.608.277.14.58.208.912.208zm7.92 1.088c-.832 0-1.44-.256-1.824-.768-.373-.512-.56-1.27-.56-2.272v-4.928h1.328v4.752c0 .736.112 1.27.336 1.6.235.32.608.48 1.12.48.405 0 .763-.1 1.072-.304.31-.213.65-.55 1.024-1.008v-5.52h1.312V500h-1.088l-.112-1.216h-.048c-.363.427-.747.768-1.152 1.024-.395.256-.864.384-1.408.384zm6.43-.192v-7.776h1.088l.112 1.408h.048c.267-.49.587-.88.96-1.168.384-.288.8-.432 1.248-.432.31 0 .587.053.832.16l-.256 1.152c-.128-.043-.245-.075-.352-.096s-.24-.032-.4-.032c-.33 0-.677.133-1.04.4-.352.267-.66.73-.928 1.392V500zm10.542.192c-.65 0-1.195-.192-1.632-.576-.427-.384-.64-.928-.64-1.632 0-.853.38-1.504 1.136-1.952.757-.46 1.968-.78 3.632-.96 0-.245-.027-.485-.08-.72a1.69 1.69 0 0 0-.24-.624c-.117-.18-.283-.325-.496-.432-.203-.117-.464-.176-.784-.176-.448 0-.87.085-1.264.256a6.21 6.21 0 0 0-1.056.576l-.512-.912c.363-.235.805-.46 1.328-.672.523-.224 1.1-.336 1.728-.336.95 0 1.637.293 2.064.88.427.576.64 1.35.64 2.32V500h-1.088l-.112-.928h-.048a6.93 6.93 0 0 1-1.2.8 3.04 3.04 0 0 1-1.376.32zm.384-1.056c.373 0 .725-.085 1.056-.256.33-.18.683-.443 1.056-.784v-2.16c-.65.085-1.2.187-1.648.304-.437.117-.795.256-1.072.416-.267.16-.464.347-.592.56a1.32 1.32 0 0 0-.176.672c0 .448.133.768.4.96s.592.288.976.288zm5.886.864v-7.776h1.088l.112 1.12H92c.373-.373.763-.683 1.168-.928.416-.256.896-.384 1.44-.384.82 0 1.42.256 1.792.768.384.512.576 1.27.576 2.272V500h-1.312v-4.752c0-.736-.117-1.264-.352-1.584-.235-.33-.608-.496-1.12-.496-.405 0-.763.1-1.072.304s-.66.5-1.056.896V500zm10.782.192a4.18 4.18 0 0 1-1.584-.304 4.96 4.96 0 0 1-1.312-.768l.656-.88c.34.277.688.5 1.04.672.362.17.778.256 1.248.256.512 0 .896-.117 1.152-.352s.384-.523.384-.864c0-.203-.054-.38-.16-.528s-.246-.277-.416-.384a2.54 2.54 0 0 0-.56-.304l-.64-.256-.832-.32c-.278-.128-.528-.277-.752-.448-.213-.18-.39-.39-.528-.624s-.208-.517-.208-.848c0-.31.06-.597.176-.864.128-.277.304-.512.528-.704.235-.203.517-.357.848-.464a3.34 3.34 0 0 1 1.12-.176c.5 0 .938.085 1.344.256.416.17.773.38 1.072.624l-.624.832c-.267-.203-.544-.368-.832-.496a2.3 2.3 0 0 0-.944-.192c-.49 0-.854.112-1.088.336-.224.224-.336.485-.336.784 0 .18.048.34.144.48.096.128.224.245.384.352a4.24 4.24 0 0 0 .544.272l.656.24.832.336c.288.117.544.267.768.448.224.17.405.384.544.64.15.256.224.565.224.928a2.11 2.11 0 0 1-.192.896c-.118.277-.3.523-.544.736-.235.213-.534.38-.896.496-.352.128-.758.192-1.216.192zm5.903-.192l-2.16-7.776h1.344l1.152 4.496.24 1.088.224 1.072h.064l.256-1.072.272-1.088 1.2-4.496h1.28l1.216 4.496.272 1.088.272 1.072h.064l.24-1.072.24-1.088 1.136-4.496h1.248l-2.08 7.776h-1.6l-1.12-4.176-.272-1.104-.256-1.136h-.064l-.256 1.152-1.376 5.264zm13.342.192a3.97 3.97 0 0 1-1.472-.272c-.448-.192-.843-.46-1.184-.8-.33-.352-.592-.78-.784-1.28s-.288-1.072-.288-1.712.096-1.21.288-1.712a4.19 4.19 0 0 1 .784-1.296c.33-.352.704-.62 1.12-.8a3.06 3.06 0 0 1 1.296-.288c.5 0 .928.085 1.312.256.394.17.72.416.976.736.266.32.47.704.608 1.152s.208.95.208 1.504l-.016.416c0 .128-.01.24-.032.336h-5.248c.053.832.31 1.493.768 1.984.47.48 1.077.72 1.824.72a3.12 3.12 0 0 0 1.024-.16c.32-.117.624-.267.912-.448l.464.864c-.342.213-.72.4-1.136.56s-.89.24-1.424.24zm-2.448-4.704h4.16c0-.79-.17-1.387-.512-1.792-.33-.416-.8-.624-1.408-.624a2.05 2.05 0 0 0-.8.16c-.246.107-.47.267-.672.48-.203.203-.374.453-.512.752-.128.3-.214.64-.256 1.024zm7.233 4.512v-7.776h1.088l.112 1.408h.048c.267-.49.587-.88.96-1.168.384-.288.8-.432 1.248-.432.3 0 .587.053.832.16l-.256 1.152a2.82 2.82 0 0 0-.352-.096 2.11 2.11 0 0 0-.4-.032c-.33 0-.677.133-1.04.4-.352.267-.66.73-.928 1.392V500zm7.517.192c-.555 0-1.083-.1-1.584-.304s-.94-.46-1.312-.768l.656-.88c.34.277.688.5 1.04.672.362.17.778.256 1.248.256.512 0 .896-.117 1.152-.352s.384-.523.384-.864c0-.203-.054-.38-.16-.528s-.246-.277-.416-.384a2.54 2.54 0 0 0-.56-.304l-.64-.256-.832-.32c-.278-.128-.528-.277-.752-.448-.214-.18-.4-.39-.528-.624s-.208-.517-.208-.848c0-.31.058-.597.176-.864.128-.277.304-.512.528-.704.234-.203.517-.357.848-.464a3.34 3.34 0 0 1 1.12-.176c.5 0 .938.085 1.344.256.416.17.773.38 1.072.624l-.624.832c-.267-.203-.544-.368-.832-.496a2.3 2.3 0 0 0-.944-.192c-.49 0-.854.112-1.088.336-.224.224-.336.485-.336.784 0 .18.048.34.144.48.096.128.224.245.384.352a4.24 4.24 0 0 0 .544.272l.656.24.832.336c.288.117.544.267.768.448.224.17.405.384.544.64.15.256.224.565.224.928a2.11 2.11 0 0 1-.192.896c-.118.277-.3.523-.544.736-.235.213-.534.38-.896.496-.352.128-.758.192-1.216.192zm9.106-.192l-2.16-7.776h1.344l1.152 4.496.24 1.088.224 1.072h.064l.256-1.072.272-1.088 1.2-4.496h1.28l1.216 4.496.272 1.088.272 1.072h.064l.24-1.072.24-1.088 1.136-4.496h1.248l-2.08 7.776h-1.6l-1.12-4.176-.272-1.104-.256-1.136h-.064l-.256 1.152-1.376 5.264zm10.252 0v-7.776h1.312V500zm.672-9.376c-.256 0-.474-.08-.656-.24a.8.8 0 0 1-.256-.608c0-.256.086-.46.256-.608.182-.16.4-.24.656-.24s.47.08.64.24c.182.15.272.352.272.608 0 .245-.1.448-.272.608-.17.16-.384.24-.64.24zm4.658 9.568c-.502 0-.86-.15-1.072-.448s-.32-.736-.32-1.312v-9.824h1.312v9.92c0 .213.037.363.112.448s.16.128.256.128h.112a.71.71 0 0 0 .176-.032l.176.992a1.12 1.12 0 0 1-.304.096 2.62 2.62 0 0 1-.448.032zm4.078 0c-.502 0-.86-.15-1.072-.448s-.32-.736-.32-1.312v-9.824h1.312v9.92c0 .213.037.363.112.448s.16.128.256.128h.112a.71.71 0 0 0 .176-.032l.176.992a1.12 1.12 0 0 1-.304.096 2.62 2.62 0 0 1-.448.032zm5.89-.192v-11.392h1.312v3.104l-.048 1.6c.373-.352.763-.65 1.168-.896.405-.256.88-.384 1.424-.384.82 0 1.42.256 1.792.768.384.512.576 1.27.576 2.272V500h-1.312v-4.752c0-.736-.117-1.264-.352-1.584-.235-.33-.608-.496-1.12-.496-.405 0-.763.1-1.072.304s-.66.5-1.056.896V500zm11.855.192c-.522 0-1.013-.09-1.472-.272-.448-.192-.842-.46-1.184-.8-.33-.352-.592-.78-.784-1.28s-.288-1.072-.288-1.712.096-1.21.288-1.712c.203-.512.464-.944.784-1.296.33-.352.704-.62 1.12-.8a3.06 3.06 0 0 1 1.296-.288c.49 0 .928.085 1.312.256.395.17.72.416.976.736.267.32.47.704.608 1.152s.208.95.208 1.504l-.016.416a1.52 1.52 0 0 1-.032.336h-5.248c.054.832.3 1.493.768 1.984.47.48 1.078.72 1.824.72a3.11 3.11 0 0 0 1.024-.16c.32-.117.624-.267.912-.448l.464.864c-.34.213-.72.4-1.136.56s-.9.24-1.424.24zm-2.448-4.704h4.16c0-.79-.17-1.387-.512-1.792-.33-.416-.8-.624-1.408-.624-.277 0-.544.053-.8.16-.245.107-.47.267-.672.48-.202.203-.373.453-.512.752-.128.3-.213.64-.256 1.024zm8.626 4.704c-.502 0-.86-.15-1.072-.448s-.32-.736-.32-1.312v-9.824h1.312v9.92c0 .213.037.363.112.448s.16.128.256.128h.112a.71.71 0 0 0 .176-.032l.176.992a1.12 1.12 0 0 1-.304.096 2.62 2.62 0 0 1-.448.032zm2.686 3.088v-11.056h1.088l.112.896h.048a5.99 5.99 0 0 1 1.152-.768c.426-.213.87-.32 1.328-.32.5 0 .944.096 1.328.288a2.48 2.48 0 0 1 .96.8c.256.34.448.757.576 1.248.138.48.208 1.024.208 1.632 0 .66-.09 1.253-.272 1.776-.182.512-.427.95-.736 1.312a3.21 3.21 0 0 1-1.072.832c-.406.18-.832.272-1.28.272-.363 0-.726-.08-1.088-.24-.352-.16-.7-.38-1.072-.656l.032 1.36v2.624zm3.216-4.192c.32 0 .613-.07.88-.208a2.14 2.14 0 0 0 .704-.608c.202-.267.357-.592.464-.976a4.44 4.44 0 0 0 .176-1.296c0-.427-.038-.816-.112-1.168s-.198-.65-.368-.896c-.16-.256-.374-.453-.64-.592-.256-.14-.566-.208-.928-.208-.33 0-.667.09-1.008.272-.33.18-.688.443-1.072.784v4.08c.352.3.693.512 1.024.64.33.117.624.176.88.176zm11.134 1.104c-.832 0-1.44-.256-1.824-.768-.373-.512-.56-1.27-.56-2.272v-4.928h1.328v4.752c0 .736.112 1.27.336 1.6.235.32.608.48 1.12.48.405 0 .763-.1 1.072-.304.31-.213.65-.55 1.024-1.008v-5.52h1.312V500h-1.088l-.112-1.216h-.048c-.363.427-.747.768-1.152 1.024-.395.256-.864.384-1.408.384zm8.463 0c-.555 0-1.083-.1-1.584-.304a4.96 4.96 0 0 1-1.312-.768l.656-.88c.34.277.688.5 1.04.672.363.17.78.256 1.248.256.512 0 .896-.117 1.152-.352s.384-.523.384-.864a.88.88 0 0 0-.16-.528 1.45 1.45 0 0 0-.416-.384 2.54 2.54 0 0 0-.56-.304l-.64-.256-.832-.32c-.277-.128-.528-.277-.752-.448-.213-.18-.39-.39-.528-.624s-.208-.517-.208-.848a2.13 2.13 0 0 1 .176-.864c.128-.277.304-.512.528-.704.235-.203.517-.357.848-.464.33-.117.704-.176 1.12-.176.49 0 .94.085 1.344.256.416.17.773.38 1.072.624l-.624.832c-.267-.203-.544-.368-.832-.496a2.3 2.3 0 0 0-.944-.192c-.49 0-.853.112-1.088.336-.224.224-.336.485-.336.784 0 .18.048.34.144.48.096.128.224.245.384.352a4.24 4.24 0 0 0 .544.272l.656.24.832.336c.288.117.544.267.768.448.224.17.405.384.544.64.15.256.224.565.224.928a2.11 2.11 0 0 1-.192.896c-.117.277-.3.523-.544.736-.235.213-.533.38-.896.496-.352.128-.757.192-1.216.192zm10.146 0c-.832 0-1.44-.256-1.824-.768-.373-.512-.56-1.27-.56-2.272v-4.928h1.328v4.752c0 .736.112 1.27.336 1.6.235.32.608.48 1.12.48.406 0 .763-.1 1.072-.304.3-.213.65-.55 1.024-1.008v-5.52h1.312V500h-1.088l-.112-1.216h-.048c-.362.427-.746.768-1.152 1.024-.394.256-.864.384-1.408.384zm6.43-.192v-7.776h1.088l.112 1.12h.048c.374-.373.763-.683 1.168-.928.416-.256.896-.384 1.44-.384.822 0 1.42.256 1.792.768.384.512.576 1.27.576 2.272V500h-1.312v-4.752c0-.736-.117-1.264-.352-1.584-.234-.33-.608-.496-1.12-.496a1.91 1.91 0 0 0-1.072.304c-.31.203-.66.5-1.056.896V500zm11.406.192c-.98 0-1.765-.352-2.352-1.056-.576-.704-.864-1.707-.864-3.008 0-.63.09-1.195.272-1.696.192-.512.443-.944.752-1.296s.667-.624 1.072-.816.832-.288 1.28-.288.838.08 1.168.24.667.38 1.008.656l-.064-1.328v-2.992h1.328V500h-1.088l-.112-.912h-.048a5.01 5.01 0 0 1-1.072.784 2.65 2.65 0 0 1-1.28.32zm.288-1.104a2.14 2.14 0 0 0 1.024-.256c.32-.18.64-.453.96-.816v-4.064c-.33-.3-.65-.507-.96-.624a2.33 2.33 0 0 0-.928-.192c-.31 0-.602.075-.88.224-.266.14-.5.34-.704.608-.202.256-.362.565-.48.928a3.95 3.95 0 0 0-.176 1.216c0 .94.187 1.67.56 2.192s.902.784 1.584.784zm9.083 1.104c-.522 0-1.013-.09-1.472-.272-.448-.192-.842-.46-1.184-.8-.33-.352-.592-.78-.784-1.28s-.288-1.072-.288-1.712.096-1.21.288-1.712c.203-.512.464-.944.784-1.296.33-.352.704-.62 1.12-.8a3.06 3.06 0 0 1 1.296-.288c.49 0 .928.085 1.312.256.395.17.72.416.976.736.267.32.47.704.608 1.152s.208.95.208 1.504l-.016.416a1.52 1.52 0 0 1-.032.336h-5.248c.054.832.3 1.493.768 1.984.47.48 1.078.72 1.824.72a3.11 3.11 0 0 0 1.024-.16c.32-.117.624-.267.912-.448l.464.864c-.34.213-.72.4-1.136.56s-.9.24-1.424.24zm-2.448-4.704h4.16c0-.79-.17-1.387-.512-1.792-.33-.416-.8-.624-1.408-.624-.277 0-.544.053-.8.16-.245.107-.47.267-.672.48-.202.203-.373.453-.512.752-.128.3-.213.64-.256 1.024zm7.234 4.512v-7.776h1.088l.112 1.408h.048c.267-.49.587-.88.96-1.168.384-.288.8-.432 1.248-.432.31 0 .587.053.832.16l-.256 1.152a2.82 2.82 0 0 0-.352-.096 2.12 2.12 0 0 0-.4-.032c-.33 0-.677.133-1.04.4-.352.267-.66.73-.928 1.392V500zm7.516.192c-.554 0-1.082-.1-1.584-.304s-.938-.46-1.312-.768l.656-.88c.342.277.688.5 1.04.672.363.17.78.256 1.248.256.512 0 .896-.117 1.152-.352s.384-.523.384-.864a.88.88 0 0 0-.16-.528 1.44 1.44 0 0 0-.416-.384 2.52 2.52 0 0 0-.56-.304l-.64-.256-.832-.32c-.277-.128-.528-.277-.752-.448-.213-.18-.39-.39-.528-.624s-.208-.517-.208-.848a2.13 2.13 0 0 1 .176-.864c.128-.277.304-.512.528-.704.235-.203.518-.357.848-.464.33-.117.704-.176 1.12-.176.49 0 .94.085 1.344.256.416.17.774.38 1.072.624l-.624.832c-.266-.203-.544-.368-.832-.496s-.602-.192-.944-.192c-.5 0-.853.112-1.088.336-.224.224-.336.485-.336.784 0 .18.048.34.144.48.096.128.224.245.384.352.16.096.342.187.544.272l.656.24.832.336c.288.117.544.267.768.448.224.17.406.384.544.64.15.256.224.565.224.928a2.11 2.11 0 0 1-.192.896c-.117.277-.298.523-.544.736-.234.213-.533.38-.896.496-.352.128-.757.192-1.216.192zm6.807 0c-.416 0-.768-.064-1.056-.192-.277-.128-.507-.304-.688-.528-.17-.224-.293-.496-.368-.816a4.63 4.63 0 0 1-.112-1.056v-4.304h-1.152v-.992l1.216-.08.16-2.176h1.104v2.176h2.096v1.072h-2.096v4.32c0 .48.085.853.256 1.12.18.256.496.384.944.384a1.73 1.73 0 0 0 .448-.064 3.52 3.52 0 0 0 .432-.144l.256.992c-.213.075-.448.14-.704.192-.245.064-.49.096-.736.096zm4.406 0c-.65 0-1.194-.192-1.632-.576-.426-.384-.64-.928-.64-1.632 0-.853.38-1.504 1.136-1.952.758-.46 1.968-.78 3.632-.96 0-.245-.026-.485-.08-.72-.042-.235-.122-.443-.24-.624s-.282-.325-.496-.432c-.202-.117-.464-.176-.784-.176-.448 0-.87.085-1.264.256s-.746.363-1.056.576l-.512-.912c.363-.235.806-.46 1.328-.672.523-.224 1.1-.336 1.728-.336.95 0 1.638.293 2.064.88.427.576.64 1.35.64 2.32V500h-1.088l-.112-.928h-.048c-.373.31-.773.576-1.2.8-.426.213-.885.32-1.376.32zm.384-1.056a2.26 2.26 0 0 0 1.056-.256c.33-.18.683-.443 1.056-.784v-2.16c-.65.085-1.2.187-1.648.304a4.5 4.5 0 0 0-1.072.416c-.266.16-.464.347-.592.56a1.32 1.32 0 0 0-.176.672c0 .448.134.768.4.96s.592.288.976.288zm5.887.864v-7.776h1.088l.112 1.12h.048c.373-.373.763-.683 1.168-.928.416-.256.896-.384 1.44-.384.82 0 1.42.256 1.792.768.384.512.576 1.27.576 2.272V500H283.3v-4.752c0-.736-.117-1.264-.352-1.584-.235-.33-.608-.496-1.12-.496-.405 0-.763.1-1.072.304s-.66.5-1.056.896V500zm11.406.192c-.98 0-1.765-.352-2.352-1.056-.576-.704-.864-1.707-.864-3.008 0-.63.09-1.195.272-1.696.192-.512.443-.944.752-1.296s.667-.624 1.072-.816.832-.288 1.28-.288.837.08 1.168.24.667.38 1.008.656l-.064-1.328v-2.992h1.328V500h-1.088l-.112-.912h-.048c-.31.3-.667.56-1.072.784-.395.213-.82.32-1.28.32zm.288-1.104a2.14 2.14 0 0 0 1.024-.256c.32-.18.64-.453.96-.816v-4.064c-.33-.3-.65-.507-.96-.624-.3-.128-.608-.192-.928-.192-.31 0-.603.075-.88.224-.267.14-.5.34-.704.608-.203.256-.363.565-.48.928a3.95 3.95 0 0 0-.176 1.216c0 .94.187 1.67.56 2.192s.9.784 1.584.784zm9.134.912v-11.392h1.312v3.104l-.048 1.6c.373-.352.763-.65 1.168-.896.405-.256.88-.384 1.424-.384.82 0 1.42.256 1.792.768.384.512.576 1.27.576 2.272V500h-1.312v-4.752c0-.736-.117-1.264-.352-1.584-.235-.33-.608-.496-1.12-.496-.405 0-.763.1-1.072.304s-.66.5-1.056.896V500zm11.727.192c-.48 0-.938-.09-1.376-.272-.426-.18-.805-.443-1.136-.784a4.1 4.1 0 0 1-.8-1.28c-.192-.512-.288-1.088-.288-1.728 0-.65.096-1.227.288-1.728.203-.512.47-.944.8-1.296s.7-.62 1.136-.8c.438-.18.896-.272 1.376-.272s.934.09 1.36.272c.438.18.822.448 1.152.8s.592.784.784 1.296c.203.5.304 1.077.304 1.728 0 .64-.1 1.216-.304 1.728-.192.5-.453.928-.784 1.28a3.39 3.39 0 0 1-1.152.784c-.426.18-.88.272-1.36.272zm0-1.088c.33 0 .635-.07.912-.208a2.13 2.13 0 0 0 .704-.608c.203-.267.358-.58.464-.944s.16-.768.16-1.216-.053-.853-.16-1.216a2.86 2.86 0 0 0-.464-.96c-.192-.267-.426-.47-.704-.608-.277-.15-.58-.224-.912-.224a1.9 1.9 0 0 0-.912.224 2.06 2.06 0 0 0-.72.608c-.192.267-.34.587-.448.96a4.33 4.33 0 0 0-.16 1.216 4.33 4.33 0 0 0 .16 1.216c.107.363.256.677.448.944a2.31 2.31 0 0 0 .72.608 2.01 2.01 0 0 0 .912.208zm6.818.896l-2.16-7.776h1.344l1.152 4.496.24 1.088.224 1.072h.064l.256-1.072.272-1.088 1.2-4.496h1.28l1.216 4.496.272 1.088.272 1.072h.064l.24-1.072.24-1.088 1.136-4.496h1.248L324.25 500h-1.6l-1.12-4.176-.272-1.104-.256-1.136h-.064l-.256 1.152-1.376 5.264zm-268.08 24v-6.704h-1.056v-.992l1.056-.08v-1.232c0-.8.18-1.43.544-1.888.373-.46.95-.688 1.728-.688.245 0 .475.027.688.08a3.14 3.14 0 0 1 .608.176l-.288 1.008c-.288-.128-.58-.192-.88-.192-.725 0-1.088.5-1.088 1.504v1.232h1.648v1.072h-1.648V524zm5.927.192c-.65 0-1.195-.192-1.632-.576-.427-.384-.64-.928-.64-1.632 0-.853.38-1.504 1.136-1.952.757-.46 1.968-.78 3.632-.96a3.24 3.24 0 0 0-.08-.72c-.043-.235-.123-.443-.24-.624s-.283-.325-.496-.432c-.203-.117-.464-.176-.784-.176-.448 0-.87.085-1.264.256s-.747.363-1.056.576l-.512-.912c.363-.235.805-.46 1.328-.672.523-.224 1.1-.336 1.728-.336.95 0 1.637.293 2.064.88.427.576.64 1.35.64 2.32V524h-1.088l-.112-.928h-.048a6.93 6.93 0 0 1-1.2.8 3.04 3.04 0 0 1-1.376.32zm.384-1.056c.373 0 .725-.085 1.056-.256.33-.18.683-.443 1.056-.784v-2.16c-.65.085-1.2.187-1.648.304-.437.117-.795.256-1.072.416-.267.16-.464.347-.592.56a1.32 1.32 0 0 0-.176.672c0 .448.133.768.4.96s.592.288.976.288zM61.9 524v-7.776h1.088l.112 1.12h.048c.34-.373.71-.683 1.104-.928a2.41 2.41 0 0 1 1.312-.384c.597 0 1.06.133 1.392.4.34.256.592.62.752 1.088.405-.448.81-.805 1.216-1.072a2.38 2.38 0 0 1 1.344-.416c.8 0 1.392.256 1.776.768.395.512.592 1.27.592 2.272V524h-1.312v-4.752c0-.736-.117-1.264-.352-1.584-.235-.33-.597-.496-1.088-.496-.587 0-1.237.4-1.952 1.2V524H66.6v-4.752c0-.736-.117-1.264-.352-1.584-.235-.33-.603-.496-1.104-.496-.587 0-1.237.4-1.952 1.2V524zm13.266 0v-7.776h1.312V524zm.672-9.376c-.256 0-.475-.08-.656-.24-.17-.16-.256-.363-.256-.608 0-.256.085-.46.256-.608.18-.16.4-.24.656-.24a.9.9 0 0 1 .64.24c.18.15.272.352.272.608 0 .245-.09.448-.272.608a.9.9 0 0 1-.64.24zm4.657 9.568c-.5 0-.86-.15-1.072-.448s-.32-.736-.32-1.312v-9.824h1.312v9.92c0 .213.037.363.112.448s.16.128.256.128h.112c.043 0 .1-.01.176-.032l.176.992a1.11 1.11 0 0 1-.304.096c-.117.02-.267.032-.448.032zM83.17 524v-7.776h1.312V524zm.672-9.376c-.256 0-.475-.08-.656-.24-.17-.16-.256-.363-.256-.608 0-.256.085-.46.256-.608.18-.16.4-.24.656-.24a.9.9 0 0 1 .64.24c.18.15.272.352.272.608 0 .245-.09.448-.272.608a.9.9 0 0 1-.64.24zm5.058 9.568c-.65 0-1.195-.192-1.632-.576-.427-.384-.64-.928-.64-1.632 0-.853.38-1.504 1.136-1.952.757-.46 1.968-.78 3.632-.96 0-.245-.027-.485-.08-.72a1.69 1.69 0 0 0-.24-.624c-.117-.18-.283-.325-.496-.432-.203-.117-.464-.176-.784-.176-.448 0-.87.085-1.264.256a6.21 6.21 0 0 0-1.056.576l-.512-.912c.363-.235.805-.46 1.328-.672.523-.224 1.1-.336 1.728-.336.95 0 1.637.293 2.064.88.427.576.64 1.35.64 2.32V524h-1.088l-.112-.928h-.048c-.373.31-.773.576-1.2.8a3.04 3.04 0 0 1-1.376.32zm.384-1.056c.373 0 .725-.085 1.056-.256.33-.18.683-.443 1.056-.784v-2.16c-.65.085-1.2.187-1.648.304-.437.117-.795.256-1.072.416-.267.16-.464.347-.592.56a1.32 1.32 0 0 0-.176.672c0 .448.133.768.4.96s.592.288.976.288zm5.886.864v-7.776h1.088l.112 1.408h.048c.267-.49.587-.88.96-1.168.384-.288.8-.432 1.248-.432.31 0 .587.053.832.16l-.256 1.152a2.84 2.84 0 0 0-.352-.096c-.107-.02-.24-.032-.4-.032-.33 0-.677.133-1.04.4-.352.267-.66.73-.928 1.392V524zm8.878 3.344a2.38 2.38 0 0 1-.496-.048c-.15-.02-.288-.06-.416-.112l.256-1.04.288.064a1.06 1.06 0 0 0 .304.048c.448 0 .81-.16 1.088-.48.288-.31.512-.704.672-1.184l.176-.576-3.12-7.792h1.36l1.584 4.304.368 1.088.384 1.104h.064l.336-1.104.32-1.088 1.392-4.304h1.28l-2.928 8.416c-.138.384-.293.74-.464 1.072s-.373.613-.608.848c-.234.245-.5.437-.8.576s-.645.208-1.04.208zm10.303-3.152a3.56 3.56 0 0 1-1.376-.272c-.427-.18-.806-.443-1.136-.784-.33-.352-.598-.78-.8-1.28-.192-.512-.288-1.088-.288-1.728 0-.65.096-1.227.288-1.728.202-.512.47-.944.8-1.296s.71-.62 1.136-.8a3.56 3.56 0 0 1 1.376-.272c.48 0 .933.09 1.36.272a3.3 3.3 0 0 1 1.152.8 3.84 3.84 0 0 1 .784 1.296c.202.5.304 1.077.304 1.728 0 .64-.102 1.216-.304 1.728-.192.5-.454.928-.784 1.28a3.41 3.41 0 0 1-1.152.784c-.427.18-.88.272-1.36.272zm0-1.088a2.01 2.01 0 0 0 .912-.208 2.14 2.14 0 0 0 .704-.608 2.91 2.91 0 0 0 .464-.944 4.33 4.33 0 0 0 .16-1.216 4.33 4.33 0 0 0-.16-1.216c-.107-.373-.262-.693-.464-.96a1.92 1.92 0 0 0-.704-.608 1.9 1.9 0 0 0-.912-.224c-.33 0-.635.075-.912.224-.278.14-.518.34-.72.608-.192.267-.342.587-.448.96-.107.363-.16.768-.16 1.216s.053.853.16 1.216a3.08 3.08 0 0 0 .448.944c.202.256.442.46.72.608.277.14.58.208.912.208zm7.92 1.088c-.832 0-1.44-.256-1.824-.768-.374-.512-.56-1.27-.56-2.272v-4.928h1.328v4.752c0 .736.112 1.27.336 1.6.234.32.608.48 1.12.48a1.91 1.91 0 0 0 1.072-.304c.31-.213.65-.55 1.024-1.008v-5.52h1.312V524h-1.088l-.112-1.216h-.048c-.363.427-.747.768-1.152 1.024-.395.256-.864.384-1.408.384zm11.426 0c-.65 0-1.195-.192-1.632-.576-.427-.384-.64-.928-.64-1.632 0-.853.378-1.504 1.136-1.952.757-.46 1.968-.78 3.632-.96 0-.245-.027-.485-.08-.72a1.7 1.7 0 0 0-.24-.624 1.24 1.24 0 0 0-.496-.432c-.203-.117-.464-.176-.784-.176-.448 0-.87.085-1.264.256s-.747.363-1.056.576l-.512-.912c.362-.235.805-.46 1.328-.672.522-.224 1.098-.336 1.728-.336.95 0 1.637.293 2.064.88.426.576.64 1.35.64 2.32V524h-1.088l-.112-.928h-.048a6.98 6.98 0 0 1-1.2.8 3.04 3.04 0 0 1-1.376.32zm.384-1.056a2.27 2.27 0 0 0 1.056-.256c.33-.18.682-.443 1.056-.784v-2.16c-.65.085-1.2.187-1.648.304-.438.117-.795.256-1.072.416-.267.16-.464.347-.592.56-.118.203-.176.427-.176.672 0 .448.133.768.4.96s.592.288.976.288zm5.886.864v-7.776h1.088l.112 1.408h.048c.267-.49.587-.88.96-1.168.384-.288.8-.432 1.248-.432.3 0 .587.053.832.16l-.256 1.152a2.82 2.82 0 0 0-.352-.096 2.11 2.11 0 0 0-.4-.032c-.33 0-.677.133-1.04.4-.352.267-.66.73-.928 1.392V524zm8.543.192c-.523 0-1.013-.09-1.472-.272-.448-.192-.843-.46-1.184-.8-.33-.352-.592-.78-.784-1.28s-.288-1.072-.288-1.712.096-1.21.288-1.712c.203-.512.464-.944.784-1.296.33-.352.704-.62 1.12-.8a3.06 3.06 0 0 1 1.296-.288c.49 0 .928.085 1.312.256.395.17.72.416.976.736a3.3 3.3 0 0 1 .608 1.152c.14.448.208.95.208 1.504l-.016.416c0 .128-.01.24-.032.336h-5.248c.053.832.31 1.493.768 1.984.47.48 1.077.72 1.824.72.373 0 .715-.053 1.024-.16.32-.117.624-.267.912-.448l.464.864c-.34.213-.72.4-1.136.56s-.89.24-1.424.24zm-2.448-4.704h4.16c0-.79-.17-1.387-.512-1.792-.33-.416-.8-.624-1.408-.624-.277 0-.544.053-.8.16-.245.107-.47.267-.672.48-.203.203-.373.453-.512.752-.128.3-.213.64-.256 1.024zm11.67 4.512l-2.16-7.776h1.344l1.152 4.496.24 1.088.224 1.072h.064l.256-1.072.272-1.088 1.2-4.496h1.28l1.216 4.496.272 1.088.272 1.072h.064l.24-1.072.24-1.088 1.136-4.496h1.248l-2.08 7.776h-1.6l-1.12-4.176-.272-1.104-.256-1.136h-.064l-.256 1.152-1.376 5.264zm10.252 0v-7.776h1.312V524zm.672-9.376c-.256 0-.475-.08-.656-.24-.17-.16-.256-.363-.256-.608 0-.256.085-.46.256-.608.18-.16.4-.24.656-.24a.9.9 0 0 1 .64.24c.18.15.272.352.272.608 0 .245-.09.448-.272.608a.9.9 0 0 1-.64.24zm5.713 9.568c-.416 0-.768-.064-1.056-.192-.277-.128-.506-.304-.688-.528-.17-.224-.293-.496-.368-.816s-.112-.672-.112-1.056v-4.304h-1.152v-.992l1.216-.08.16-2.176h1.104v2.176h2.096v1.072h-2.096v4.32c0 .48.086.853.256 1.12.182.256.496.384.944.384a1.73 1.73 0 0 0 .448-.064 3.52 3.52 0 0 0 .432-.144l.256.992c-.213.075-.448.14-.704.192a2.9 2.9 0 0 1-.736.096zm2.96-.192v-11.392h1.312v3.104l-.048 1.6c.373-.352.762-.65 1.168-.896.405-.256.88-.384 1.424-.384.82 0 1.418.256 1.792.768.384.512.576 1.27.576 2.272V524h-1.312v-4.752c0-.736-.118-1.264-.352-1.584-.235-.33-.608-.496-1.12-.496-.406 0-.763.1-1.072.304s-.662.5-1.056.896V524zm11.906 0v-7.776h1.312V524zm.672-9.376c-.256 0-.475-.08-.656-.24-.17-.16-.256-.363-.256-.608 0-.256.085-.46.256-.608.18-.16.4-.24.656-.24a.9.9 0 0 1 .64.24c.18.15.272.352.272.608 0 .245-.09.448-.272.608a.9.9 0 0 1-.64.24zM193.17 524v-7.776h1.088l.112 1.12h.048c.374-.373.763-.683 1.168-.928.416-.256.896-.384 1.44-.384.822 0 1.42.256 1.792.768.384.512.576 1.27.576 2.272V524h-1.312v-4.752c0-.736-.117-1.264-.352-1.584-.234-.33-.608-.496-1.12-.496a1.91 1.91 0 0 0-1.072.304c-.31.203-.66.5-1.056.896V524zm10.43 0l-2.8-7.776h1.36l1.472 4.416.352 1.152.368 1.136h.064l.352-1.136.352-1.152 1.472-4.416h1.296L205.137 524zm8.88.192a3.97 3.97 0 0 1-1.472-.272c-.448-.192-.843-.46-1.184-.8-.33-.352-.592-.78-.784-1.28s-.288-1.072-.288-1.712.096-1.21.288-1.712a4.19 4.19 0 0 1 .784-1.296c.33-.352.704-.62 1.12-.8a3.06 3.06 0 0 1 1.296-.288c.5 0 .928.085 1.312.256.394.17.72.416.976.736.266.32.47.704.608 1.152s.208.95.208 1.504l-.016.416c0 .128-.01.24-.032.336h-5.248c.053.832.31 1.493.768 1.984.47.48 1.077.72 1.824.72a3.12 3.12 0 0 0 1.024-.16c.32-.117.624-.267.912-.448l.464.864c-.342.213-.72.4-1.136.56s-.89.24-1.424.24zm-2.448-4.704h4.16c0-.79-.17-1.387-.512-1.792-.33-.416-.8-.624-1.408-.624a2.05 2.05 0 0 0-.8.16c-.246.107-.47.267-.672.48-.203.203-.374.453-.512.752-.128.3-.214.64-.256 1.024zm9.265 4.704c-.555 0-1.083-.1-1.584-.304a4.96 4.96 0 0 1-1.312-.768l.656-.88c.34.277.688.5 1.04.672.363.17.78.256 1.248.256.512 0 .896-.117 1.152-.352s.384-.523.384-.864a.88.88 0 0 0-.16-.528 1.45 1.45 0 0 0-.416-.384 2.54 2.54 0 0 0-.56-.304l-.64-.256-.832-.32c-.277-.128-.528-.277-.752-.448-.213-.18-.39-.39-.528-.624s-.208-.517-.208-.848a2.13 2.13 0 0 1 .176-.864c.128-.277.304-.512.528-.704.235-.203.517-.357.848-.464.33-.117.704-.176 1.12-.176.49 0 .94.085 1.344.256.416.17.773.38 1.072.624l-.624.832c-.267-.203-.544-.368-.832-.496a2.3 2.3 0 0 0-.944-.192c-.49 0-.853.112-1.088.336-.224.224-.336.485-.336.784 0 .18.048.34.144.48.096.128.224.245.384.352a4.24 4.24 0 0 0 .544.272l.656.24.832.336c.288.117.544.267.768.448.224.17.405.384.544.64.15.256.224.565.224.928a2.11 2.11 0 0 1-.192.896c-.117.277-.3.523-.544.736-.235.213-.533.38-.896.496-.352.128-.757.192-1.216.192zm6.807 0c-.416 0-.768-.064-1.056-.192a1.88 1.88 0 0 1-.688-.528 2.11 2.11 0 0 1-.368-.816 4.63 4.63 0 0 1-.112-1.056v-4.304h-1.152v-.992l1.216-.08.16-2.176h1.104v2.176h2.096v1.072h-2.096v4.32c0 .48.085.853.256 1.12.18.256.496.384.944.384.138 0 .288-.02.448-.064a3.52 3.52 0 0 0 .432-.144l.256.992a5.5 5.5 0 0 1-.704.192 2.91 2.91 0 0 1-.736.096zm2.958-.192v-7.776h1.312V524zm.672-9.376c-.256 0-.475-.08-.656-.24-.17-.16-.256-.363-.256-.608 0-.256.085-.46.256-.608.18-.16.4-.24.656-.24a.9.9 0 0 1 .64.24c.18.15.272.352.272.608 0 .245-.09.448-.272.608a.9.9 0 0 1-.64.24zM233 524v-7.776h1.088l.112 1.12h.048c.373-.373.762-.683 1.168-.928.416-.256.896-.384 1.44-.384.82 0 1.418.256 1.792.768.384.512.576 1.27.576 2.272V524h-1.312v-4.752c0-.736-.118-1.264-.352-1.584-.235-.33-.608-.496-1.12-.496-.406 0-.763.1-1.072.304s-.662.5-1.056.896V524zm11.374 3.584a5.55 5.55 0 0 1-1.312-.144c-.395-.085-.736-.22-1.024-.4-.278-.18-.496-.4-.656-.656a1.74 1.74 0 0 1-.224-.896c0-.33.1-.645.304-.944s.48-.57.832-.816v-.064c-.192-.117-.358-.277-.496-.48-.128-.213-.192-.475-.192-.784 0-.33.1-.62.272-.864s.373-.437.576-.576v-.064c-.256-.213-.49-.496-.704-.848-.203-.363-.304-.78-.304-1.248 0-.427.074-.81.224-1.152.16-.34.373-.63.64-.864.266-.245.576-.432.928-.56.362-.128.74-.192 1.136-.192a2.57 2.57 0 0 1 .592.064c.192.032.362.075.512.128h2.704v1.008h-1.6c.18.18.33.41.448.688.128.277.192.58.192.912 0 .416-.075.795-.224 1.136a2.58 2.58 0 0 1-.608.848c-.256.224-.56.4-.912.528-.342.128-.7.192-1.104.192-.192 0-.4-.02-.592-.064-.203-.053-.395-.123-.576-.208a1.78 1.78 0 0 0-.352.4c-.096.14-.144.315-.144.528 0 .245.096.448.288.608s.554.24 1.088.24h1.504c.906 0 1.584.15 2.032.448.458.288.688.757.688 1.408 0 .363-.09.704-.272 1.024-.182.33-.443.62-.784.864s-.758.437-1.248.576c-.48.15-1.024.224-1.632.224zm0-6.928c.224 0 .432-.043.624-.128a1.53 1.53 0 0 0 .528-.368c.16-.16.282-.352.368-.576a2.29 2.29 0 0 0 .128-.784c0-.576-.16-1.02-.48-1.328a1.59 1.59 0 0 0-1.168-.48 1.59 1.59 0 0 0-1.168.48c-.32.31-.48.752-.48 1.328 0 .288.042.55.128.784.085.224.202.416.352.576.16.16.336.283.528.368.202.085.416.128.64.128zm.192 6.016a3.29 3.29 0 0 0 1.008-.144c.31-.085.57-.203.784-.352.213-.14.378-.304.496-.496s.176-.39.176-.592c0-.363-.134-.613-.4-.752s-.656-.208-1.168-.208h-1.344c-.15 0-.315-.01-.496-.032a2.19 2.19 0 0 1-.512-.096c-.278.203-.48.416-.608.64s-.192.448-.192.672c0 .416.197.747.592.992.405.245.96.368 1.664.368zm10.24-2.48c-.65 0-1.195-.192-1.632-.576-.427-.384-.64-.928-.64-1.632 0-.853.38-1.504 1.136-1.952.757-.46 1.968-.78 3.632-.96 0-.245-.027-.485-.08-.72a1.7 1.7 0 0 0-.24-.624c-.117-.18-.283-.325-.496-.432-.203-.117-.464-.176-.784-.176-.448 0-.87.085-1.264.256s-.747.363-1.056.576l-.512-.912c.363-.235.805-.46 1.328-.672.523-.224 1.1-.336 1.728-.336.95 0 1.637.293 2.064.88.427.576.64 1.35.64 2.32V524h-1.088l-.112-.928h-.048c-.373.31-.773.576-1.2.8a3.04 3.04 0 0 1-1.376.32zm.384-1.056a2.27 2.27 0 0 0 1.056-.256c.33-.18.683-.443 1.056-.784v-2.16c-.65.085-1.2.187-1.648.304-.437.117-.795.256-1.072.416-.267.16-.464.347-.592.56a1.32 1.32 0 0 0-.176.672c0 .448.133.768.4.96s.592.288.976.288zm5.887.864v-7.776h1.088l.112 1.12h.048c.373-.373.762-.683 1.168-.928.416-.256.896-.384 1.44-.384.82 0 1.418.256 1.792.768.384.512.576 1.27.576 2.272V524H266v-4.752c0-.736-.118-1.264-.352-1.584-.235-.33-.608-.496-1.12-.496-.406 0-.763.1-1.072.304s-.662.5-1.056.896V524zm11.406.192c-.982 0-1.766-.352-2.352-1.056-.576-.704-.864-1.707-.864-3.008 0-.63.1-1.195.272-1.696.192-.512.442-.944.752-1.296s.666-.624 1.072-.816.832-.288 1.28-.288.837.08 1.168.24.666.38 1.008.656l-.064-1.328v-2.992h1.328V524h-1.088l-.112-.912h-.048a5.06 5.06 0 0 1-1.072.784c-.395.213-.822.32-1.28.32zm.288-1.104a2.14 2.14 0 0 0 1.024-.256c.32-.18.64-.453.96-.816v-4.064c-.33-.3-.65-.507-.96-.624-.3-.128-.608-.192-.928-.192a1.83 1.83 0 0 0-.88.224c-.267.14-.502.34-.704.608-.203.256-.363.565-.48.928a3.92 3.92 0 0 0-.176 1.216c0 .94.186 1.67.56 2.192s.9.784 1.584.784zm12.206 1.104c-.512 0-.992-.09-1.44-.272a3.36 3.36 0 0 1-1.168-.784c-.32-.352-.576-.78-.768-1.28-.182-.512-.272-1.088-.272-1.728 0-.65.1-1.227.304-1.728.202-.512.474-.944.816-1.296s.736-.62 1.184-.8c.458-.18.938-.272 1.44-.272.512 0 .95.09 1.312.272a4.46 4.46 0 0 1 .96.64l-.672.864c-.224-.203-.464-.368-.72-.496-.246-.128-.523-.192-.832-.192-.352 0-.678.075-.976.224a2.11 2.11 0 0 0-.768.608c-.214.267-.384.587-.512.96a3.92 3.92 0 0 0-.176 1.216 3.92 3.92 0 0 0 .176 1.216 3.13 3.13 0 0 0 .48.944c.213.256.47.46.768.608.298.14.624.208.976.208.362 0 .693-.075.992-.224a4.25 4.25 0 0 0 .832-.56l.576.88a4.33 4.33 0 0 1-1.168.736 3.58 3.58 0 0 1-1.344.256zm7.033 0c-.523 0-1.013-.09-1.472-.272-.448-.192-.843-.46-1.184-.8-.33-.352-.592-.78-.784-1.28s-.288-1.072-.288-1.712.096-1.21.288-1.712c.203-.512.464-.944.784-1.296.33-.352.704-.62 1.12-.8a3.06 3.06 0 0 1 1.296-.288c.49 0 .928.085 1.312.256.395.17.72.416.976.736a3.3 3.3 0 0 1 .608 1.152c.14.448.208.95.208 1.504l-.016.416c0 .128-.01.24-.032.336h-5.248c.053.832.31 1.493.768 1.984.47.48 1.077.72 1.824.72.373 0 .715-.053 1.024-.16.32-.117.624-.267.912-.448l.464.864c-.34.213-.72.4-1.136.56s-.89.24-1.424.24zm-2.448-4.704h4.16c0-.79-.17-1.387-.512-1.792-.33-.416-.8-.624-1.408-.624-.277 0-.544.053-.8.16-.245.107-.47.267-.672.48-.203.203-.373.453-.512.752-.128.3-.213.64-.256 1.024zm7.233 4.512v-7.776h1.088l.112 1.408h.048c.267-.49.587-.88.96-1.168.384-.288.8-.432 1.248-.432.3 0 .587.053.832.16l-.256 1.152a2.82 2.82 0 0 0-.352-.096 2.11 2.11 0 0 0-.4-.032c-.33 0-.677.133-1.04.4-.352.267-.66.73-.928 1.392V524zm7.995.192c-.416 0-.768-.064-1.056-.192-.277-.128-.506-.304-.688-.528-.17-.224-.293-.496-.368-.816s-.112-.672-.112-1.056v-4.304h-1.152v-.992l1.216-.08.16-2.176h1.104v2.176h2.096v1.072h-2.096v4.32c0 .48.086.853.256 1.12.182.256.496.384.944.384a1.73 1.73 0 0 0 .448-.064 3.52 3.52 0 0 0 .432-.144l.256.992c-.213.075-.448.14-.704.192a2.9 2.9 0 0 1-.736.096zm4.407 0c-.65 0-1.195-.192-1.632-.576-.427-.384-.64-.928-.64-1.632 0-.853.378-1.504 1.136-1.952.757-.46 1.968-.78 3.632-.96 0-.245-.027-.485-.08-.72a1.7 1.7 0 0 0-.24-.624 1.24 1.24 0 0 0-.496-.432c-.203-.117-.464-.176-.784-.176-.448 0-.87.085-1.264.256s-.747.363-1.056.576l-.512-.912c.362-.235.805-.46 1.328-.672.522-.224 1.098-.336 1.728-.336.95 0 1.637.293 2.064.88.426.576.64 1.35.64 2.32V524h-1.088l-.112-.928h-.048a6.98 6.98 0 0 1-1.2.8 3.04 3.04 0 0 1-1.376.32zm.384-1.056a2.27 2.27 0 0 0 1.056-.256c.33-.18.682-.443 1.056-.784v-2.16c-.65.085-1.2.187-1.648.304-.438.117-.795.256-1.072.416-.267.16-.464.347-.592.56-.118.203-.176.427-.176.672 0 .448.133.768.4.96s.592.288.976.288zm5.886.864v-7.776h1.312V524zm.672-9.376c-.256 0-.474-.08-.656-.24a.8.8 0 0 1-.256-.608c0-.256.086-.46.256-.608.182-.16.4-.24.656-.24s.47.08.64.24c.182.15.272.352.272.608 0 .245-.1.448-.272.608-.17.16-.384.24-.64.24zm3.266 9.376v-7.776h1.088l.112 1.12h.048c.373-.373.762-.683 1.168-.928.416-.256.896-.384 1.44-.384.82 0 1.418.256 1.792.768.384.512.576 1.27.576 2.272V524h-1.312v-4.752c0-.736-.118-1.264-.352-1.584-.235-.33-.608-.496-1.12-.496-.406 0-.763.1-1.072.304s-.662.5-1.056.896V524zm-192.542 24v-6.704h-1.056v-.992l1.056-.08v-1.232c0-.8.18-1.43.544-1.888.373-.46.95-.688 1.728-.688.245 0 .475.027.688.08a3.13 3.13 0 0 1 .608.176l-.288 1.008c-.288-.128-.58-.192-.88-.192-.725 0-1.088.5-1.088 1.504v1.232h1.648v1.072h-1.648V548zm4.448 0v-7.776h1.312V548zm.672-9.376c-.256 0-.475-.08-.656-.24-.17-.16-.256-.363-.256-.608 0-.256.085-.46.256-.608.18-.16.4-.24.656-.24a.9.9 0 0 1 .64.24c.18.15.272.352.272.608 0 .245-.09.448-.272.608a.9.9 0 0 1-.64.24zM135.25 548v-7.776h1.088l.112 1.12h.048c.373-.373.762-.683 1.168-.928.416-.256.896-.384 1.44-.384.82 0 1.418.256 1.792.768.384.512.576 1.27.576 2.272V548h-1.312v-4.752c0-.736-.118-1.264-.352-1.584-.235-.33-.608-.496-1.12-.496-.406 0-.763.1-1.072.304s-.662.5-1.056.896V548zm10.542.192c-.65 0-1.195-.192-1.632-.576-.427-.384-.64-.928-.64-1.632 0-.853.378-1.504 1.136-1.952.757-.46 1.968-.78 3.632-.96 0-.245-.027-.485-.08-.72a1.7 1.7 0 0 0-.24-.624 1.24 1.24 0 0 0-.496-.432c-.203-.117-.464-.176-.784-.176-.448 0-.87.085-1.264.256s-.747.363-1.056.576l-.512-.912c.362-.235.805-.46 1.328-.672.522-.224 1.098-.336 1.727-.336.95 0 1.638.293 2.065.88.426.576.64 1.35.64 2.32V548h-1.088l-.112-.928h-.048a6.98 6.98 0 0 1-1.2.8 3.04 3.04 0 0 1-1.376.32zm.384-1.056a2.27 2.27 0 0 0 1.056-.256c.33-.18.682-.443 1.056-.784v-2.16c-.65.085-1.2.187-1.648.304-.438.117-.795.256-1.072.416-.267.16-.464.347-.592.56-.118.203-.177.427-.177.672 0 .448.134.768.4.96s.592.288.976.288zm5.886.864v-7.776h1.088l.112 1.12h.048c.373-.373.763-.683 1.168-.928.416-.256.896-.384 1.44-.384.82 0 1.42.256 1.792.768.384.512.576 1.27.576 2.272V548h-1.312v-4.752c0-.736-.117-1.264-.352-1.584-.235-.33-.608-.496-1.12-.496-.405 0-.763.1-1.072.304s-.66.5-1.056.896V548zm11.822.192c-.512 0-.992-.09-1.44-.272s-.837-.443-1.168-.784c-.32-.352-.576-.78-.768-1.28-.18-.512-.272-1.088-.272-1.728 0-.65.1-1.227.304-1.728.203-.512.475-.944.816-1.296s.736-.62 1.184-.8a3.89 3.89 0 0 1 1.44-.272c.512 0 .95.09 1.312.272a4.41 4.41 0 0 1 .96.64l-.672.864c-.224-.203-.464-.368-.72-.496-.245-.128-.523-.192-.832-.192-.352 0-.677.075-.976.224a2.11 2.11 0 0 0-.768.608c-.213.267-.384.587-.512.96a3.95 3.95 0 0 0-.176 1.216 3.95 3.95 0 0 0 .176 1.216 3.13 3.13 0 0 0 .48.944c.213.256.47.46.768.608.3.14.624.208.976.208a2.19 2.19 0 0 0 .992-.224 4.22 4.22 0 0 0 .832-.56l.576.88c-.352.31-.74.555-1.168.736a3.58 3.58 0 0 1-1.344.256zm4.225-.192v-7.776h1.312V548zm.672-9.376c-.256 0-.475-.08-.656-.24-.17-.16-.256-.363-.256-.608 0-.256.085-.46.256-.608.18-.16.4-.24.656-.24a.9.9 0 0 1 .64.24c.18.15.272.352.272.608 0 .245-.09.448-.272.608a.9.9 0 0 1-.64.24zm5.057 9.568c-.65 0-1.194-.192-1.632-.576-.426-.384-.64-.928-.64-1.632 0-.853.38-1.504 1.136-1.952.758-.46 1.968-.78 3.632-.96 0-.245-.026-.485-.08-.72-.042-.235-.122-.443-.24-.624s-.282-.325-.496-.432c-.202-.117-.464-.176-.784-.176-.448 0-.87.085-1.264.256s-.746.363-1.056.576l-.512-.912c.363-.235.806-.46 1.328-.672.523-.224 1.1-.336 1.728-.336.95 0 1.638.293 2.064.88.427.576.64 1.35.64 2.32V548h-1.088l-.112-.928h-.048c-.373.31-.773.576-1.2.8-.426.213-.885.32-1.376.32zm.384-1.056a2.26 2.26 0 0 0 1.056-.256c.33-.18.683-.443 1.056-.784v-2.16c-.65.085-1.2.187-1.648.304a4.5 4.5 0 0 0-1.072.416c-.266.16-.464.347-.592.56a1.32 1.32 0 0 0-.176.672c0 .448.134.768.4.96s.592.288.976.288zm7.28 1.056c-.5 0-.86-.15-1.072-.448s-.32-.736-.32-1.312v-9.824h1.312v9.92c0 .213.037.363.112.448s.16.128.256.128h.112a.7.7 0 0 0 .176-.032l.176.992a1.11 1.11 0 0 1-.304.096c-.117.02-.267.032-.448.032zm5.89 3.088v-11.056h1.088l.112.896h.048a5.99 5.99 0 0 1 1.152-.768 2.94 2.94 0 0 1 1.328-.32c.5 0 .944.096 1.328.288a2.48 2.48 0 0 1 .96.8c.256.34.448.757.576 1.248.14.48.208 1.024.208 1.632 0 .66-.09 1.253-.272 1.776-.18.512-.427.95-.736 1.312a3.2 3.2 0 0 1-1.072.832c-.405.18-.832.272-1.28.272-.363 0-.725-.08-1.088-.24-.352-.16-.71-.38-1.072-.656l.032 1.36v2.624zm3.216-4.192c.32 0 .613-.07.88-.208a2.14 2.14 0 0 0 .704-.608c.203-.267.357-.592.464-.976a4.44 4.44 0 0 0 .176-1.296c0-.427-.037-.816-.112-1.168s-.197-.65-.368-.896c-.16-.256-.373-.453-.64-.592-.256-.14-.565-.208-.928-.208-.33 0-.667.09-1.008.272-.33.18-.688.443-1.072.784v4.08c.352.3.693.512 1.024.64.33.117.624.176.88.176zm5.66.912v-7.776h1.088l.112 1.408h.048c.267-.49.587-.88.96-1.168.384-.288.8-.432 1.248-.432.31 0 .587.053.832.16l-.256 1.152a2.82 2.82 0 0 0-.352-.096 2.12 2.12 0 0 0-.4-.032c-.33 0-.677.133-1.04.4-.352.267-.66.73-.928 1.392V548zm8.415.192a3.56 3.56 0 0 1-1.376-.272c-.427-.18-.806-.443-1.136-.784-.33-.352-.598-.78-.8-1.28-.192-.512-.288-1.088-.288-1.728 0-.65.096-1.227.288-1.728.202-.512.47-.944.8-1.296s.71-.62 1.136-.8a3.56 3.56 0 0 1 1.376-.272c.48 0 .933.09 1.36.272a3.3 3.3 0 0 1 1.152.8 3.84 3.84 0 0 1 .784 1.296c.202.5.304 1.077.304 1.728 0 .64-.102 1.216-.304 1.728-.192.5-.454.928-.784 1.28a3.41 3.41 0 0 1-1.152.784c-.427.18-.88.272-1.36.272zm0-1.088a2.01 2.01 0 0 0 .912-.208 2.14 2.14 0 0 0 .704-.608 2.91 2.91 0 0 0 .464-.944 4.33 4.33 0 0 0 .16-1.216 4.33 4.33 0 0 0-.16-1.216c-.107-.373-.262-.693-.464-.96a1.92 1.92 0 0 0-.704-.608 1.9 1.9 0 0 0-.912-.224c-.33 0-.635.075-.912.224-.278.14-.518.34-.72.608-.192.267-.342.587-.448.96-.107.363-.16.768-.16 1.216s.053.853.16 1.216a3.08 3.08 0 0 0 .448.944c.202.256.442.46.72.608.277.14.58.208.912.208zm8.304 1.088c-.982 0-1.766-.352-2.352-1.056-.576-.704-.864-1.707-.864-3.008 0-.63.1-1.195.272-1.696.192-.512.442-.944.752-1.296s.666-.624 1.072-.816.832-.288 1.28-.288.837.08 1.168.24.666.38 1.008.656l-.064-1.328v-2.992h1.328V548h-1.088l-.112-.912h-.048a5.06 5.06 0 0 1-1.072.784c-.395.213-.822.32-1.28.32zm.288-1.104a2.14 2.14 0 0 0 1.024-.256c.32-.18.64-.453.96-.816v-4.064c-.33-.3-.65-.507-.96-.624-.3-.128-.608-.192-.928-.192a1.83 1.83 0 0 0-.88.224c-.267.14-.502.34-.704.608-.203.256-.363.565-.48.928a3.92 3.92 0 0 0-.176 1.216c0 .94.186 1.67.56 2.192s.9.784 1.584.784zm8.203 1.104c-.832 0-1.44-.256-1.824-.768-.374-.512-.56-1.27-.56-2.272v-4.928h1.328v4.752c0 .736.112 1.27.336 1.6.234.32.608.48 1.12.48a1.91 1.91 0 0 0 1.072-.304c.31-.213.65-.55 1.024-1.008v-5.52h1.312V548h-1.088l-.112-1.216h-.048c-.363.427-.747.768-1.152 1.024-.395.256-.864.384-1.408.384zm9.503 0c-.512 0-.992-.09-1.44-.272a3.36 3.36 0 0 1-1.168-.784c-.32-.352-.576-.78-.768-1.28-.182-.512-.272-1.088-.272-1.728 0-.65.1-1.227.304-1.728.202-.512.474-.944.816-1.296s.736-.62 1.184-.8c.458-.18.938-.272 1.44-.272.512 0 .95.09 1.312.272a4.46 4.46 0 0 1 .96.64l-.672.864c-.224-.203-.464-.368-.72-.496-.246-.128-.523-.192-.832-.192-.352 0-.678.075-.976.224a2.11 2.11 0 0 0-.768.608c-.214.267-.384.587-.512.96a3.92 3.92 0 0 0-.176 1.216 3.92 3.92 0 0 0 .176 1.216 3.13 3.13 0 0 0 .48.944c.213.256.47.46.768.608.298.14.624.208.976.208.362 0 .693-.075.992-.224a4.25 4.25 0 0 0 .832-.56l.576.88a4.33 4.33 0 0 1-1.168.736 3.58 3.58 0 0 1-1.344.256zm6.516 0c-.416 0-.768-.064-1.056-.192-.277-.128-.506-.304-.688-.528-.17-.224-.293-.496-.368-.816s-.112-.672-.112-1.056v-4.304h-1.152v-.992l1.216-.08.16-2.176h1.104v2.176h2.096v1.072h-2.096v4.32c0 .48.086.853.256 1.12.182.256.496.384.944.384a1.73 1.73 0 0 0 .448-.064 3.52 3.52 0 0 0 .432-.144l.256.992c-.213.075-.448.14-.704.192a2.9 2.9 0 0 1-.736.096zm4.834 0c-.554 0-1.082-.1-1.584-.304s-.938-.46-1.312-.768l.656-.88c.342.277.688.5 1.04.672.363.17.78.256 1.248.256.512 0 .896-.117 1.152-.352s.384-.523.384-.864a.88.88 0 0 0-.16-.528 1.44 1.44 0 0 0-.416-.384 2.52 2.52 0 0 0-.56-.304l-.64-.256-.832-.32c-.277-.128-.528-.277-.752-.448-.213-.18-.39-.39-.528-.624s-.208-.517-.208-.848a2.13 2.13 0 0 1 .176-.864c.128-.277.304-.512.528-.704.235-.203.518-.357.848-.464.33-.117.704-.176 1.12-.176.49 0 .94.085 1.344.256.416.17.774.38 1.072.624l-.624.832c-.266-.203-.544-.368-.832-.496s-.602-.192-.944-.192c-.5 0-.853.112-1.088.336-.224.224-.336.485-.336.784 0 .18.048.34.144.48.096.128.224.245.384.352.16.096.342.187.544.272l.656.24.832.336c.288.117.544.267.768.448.224.17.406.384.544.64.15.256.224.565.224.928a2.11 2.11 0 0 1-.192.896c-.117.277-.298.523-.544.736-.234.213-.533.38-.896.496-.352.128-.757.192-1.216.192zm5.36 0c-.267 0-.496-.09-.688-.272-.182-.192-.272-.432-.272-.72 0-.31.1-.555.272-.736a.94.94 0 0 1 .688-.288.87.87 0 0 1 .656.288c.192.18.288.427.288.736 0 .288-.096.528-.288.72-.182.18-.4.272-.656.272z" fill="#637d96"/><g filter="url(#A)"><path d="M0 0h375v83H0z" fill="#262f3a"/></g><path d="M21.4 63l4.3-4.3c.188-.188.294-.444.294-.7s-.106-.522-.294-.7-.444-.294-.7-.294-.522.106-.7.294L20 61.6l-4.3-4.3c-.188-.188-.444-.294-.7-.294s-.522.106-.7.294-.294.444-.294.7.106.522.294.7l4.3 4.3-4.3 4.3a1 1 0 0 0-.296.71 1 1 0 0 0 .296.71 1 1 0 0 0 .71.296 1 1 0 0 0 .71-.296l4.3-4.3 4.3 4.3a1 1 0 0 0 .71.296 1 1 0 0 0 .71-.296 1 1 0 0 0 .296-.71 1 1 0 0 0-.296-.71z" fill="#fff"/><path d="M375 0H0v44h375z" fill="#262f3a"/><path d="M338.667 17.834h16.666c1.197 0 2.167.97 2.167 2.167v6c0 1.197-.97 2.167-2.167 2.167h-16.666c-1.197 0-2.167-.97-2.167-2.167v-6c0-1.197.97-2.167 2.167-2.167z" opacity=".35" stroke="#fff"/><g fill="#fff"><path d="M359 21v4a2.17 2.17 0 0 0 0-4z" opacity=".4"/><path d="M338 20.5c0-.736.597-1.333 1.333-1.333h15.334c.736 0 1.333.597 1.333 1.333v4.667c0 .736-.597 1.333-1.333 1.333h-15.334c-.736 0-1.333-.597-1.333-1.333z"/><g fill-rule="evenodd"><path d="M323.33 19.44a8.64 8.64 0 0 1 5.953 2.378.31.31 0 0 0 .434-.003l1.156-1.167a.32.32 0 0 0-.003-.456 10.9 10.9 0 0 0-15.08 0 .32.32 0 0 0-.003.456l1.156 1.167a.31.31 0 0 0 .434.003 8.64 8.64 0 0 1 5.953-2.378zm0 3.796a4.9 4.9 0 0 1 3.294 1.27.31.31 0 0 0 .434-.006l1.154-1.167a.32.32 0 0 0 .094-.23c-.001-.086-.036-.17-.098-.23a7.16 7.16 0 0 0-9.753 0c-.062.06-.097.142-.098.23a.32.32 0 0 0 .094.23l1.154 1.167a.31.31 0 0 0 .434.006c.902-.817 2.075-1.27 3.3-1.27zm2.313 2.554a.31.31 0 0 1-.094.23l-1.997 2.016a.31.31 0 0 1-.443 0l-1.998-2.016a.31.31 0 0 1-.094-.23c.002-.086.04-.168.104-.226a3.42 3.42 0 0 1 4.419 0 .31.31 0 0 1 .103.227zm-15.976-8.3h-1a1 1 0 0 0-1 1v8.667a1 1 0 0 0 1 1h1a1 1 0 0 0 1-1V18.5a1 1 0 0 0-1-1zM304 19.832h1a1 1 0 0 1 1 1v6.333a1 1 0 0 1-1 1h-1a1 1 0 0 1-1-1v-6.333a1 1 0 0 1 1-1zm-3.667 2.333h-1a1 1 0 0 0-1 1v4a1 1 0 0 0 1 1h1a1 1 0 0 0 1-1v-4a1 1 0 0 0-1-1zm-4.666 2h-1a1 1 0 0 0-1 1v2a1 1 0 0 0 1 1h1a1 1 0 0 0 1-1v-2a1 1 0 0 0-1-1z"/></g><path d="M37.32 28.1c2.688 0 4.285-2.102 4.285-5.662 0-1.34-.256-2.468-.747-3.34-.7-1.355-1.934-2.087-3.48-2.087-2.3 0-3.926 1.545-3.926 3.713 0 2.036 1.465 3.516 3.48 3.516 1.238 0 2.24-.58 2.74-1.582h.125c0 2.417-.916 3.86-2.46 3.86-.908 0-1.6-.498-1.853-1.296H33.6c.315 1.736 1.787 2.878 3.72 2.878zm.066-5.36c-1.216 0-2.08-.864-2.08-2.073 0-1.18.908-2.08 2.087-2.08s2.087.916 2.087 2.1c0 1.18-.886 2.043-2.095 2.043zm7.31 5.256a1.12 1.12 0 0 0 1.172-1.157c0-.666-.476-1.157-1.172-1.157a1.12 1.12 0 0 0-1.172 1.157c0 .66.483 1.157 1.172 1.157zm0-5.493c.696 0 1.172-.5 1.172-1.15 0-.666-.476-1.157-1.172-1.157a1.12 1.12 0 0 0-1.172 1.157c0 .66.483 1.15 1.172 1.15zm8.027 5.34h1.8v-1.97h1.428v-1.597h-1.428v-7.002h-2.666l-4.307 6.914v1.685h5.164zM49.3 24.2l3.34-5.398h.102V24.3H49.3zM60 27.833h1.9v-10.57h-1.882l-2.76 1.933v1.817l2.63-1.846H60z"/></g><g fill="#000"><path d="M78 0h219c-2.106.603-3.582 2.495-3.655 4.684l-.028.877c0 13.497-10.942 24.438-24.44 24.438H106.122c-13.497 0-24.44-10.94-24.44-24.438l-.03-.877A5.04 5.04 0 0 0 78 0zm174.5 799h-129a2.5 2.5 0 1 0 0 5h129a2.5 2.5 0 1 0 0-5z"/></g><path d="M16 739a4 4 0 0 1 4-4h336a4 4 0 0 1 4 4v36a4 4 0 0 1-4 4H20a4 4 0 0 1-4-4z" fill="#3799f0" fill-rule="evenodd"/><path d="M162.067 763.192c1.344 0 2.448-.544 3.296-1.52l-.992-1.168c-.592.64-1.312 1.072-2.24 1.072-1.76 0-2.88-1.44-2.88-3.824 0-2.352 1.216-3.792 2.928-3.792.816 0 1.44.368 1.984.912l.992-1.2c-.656-.704-1.712-1.328-3.024-1.328-2.64 0-4.784 2.032-4.784 5.456 0 3.472 2.08 5.392 4.72 5.392zm8.098 0c1.968 0 3.744-1.504 3.744-4.112 0-2.624-1.776-4.128-3.744-4.128-1.952 0-3.728 1.504-3.728 4.128 0 2.608 1.776 4.112 3.728 4.112zm0-1.504c-1.152 0-1.84-1.04-1.84-2.608 0-1.584.688-2.624 1.84-2.624s1.856 1.04 1.856 2.624c0 1.568-.704 2.608-1.856 2.608zM175.73 763h1.84v-5.488c.656-.64 1.103-.976 1.792-.976.864 0 1.232.48 1.232 1.776V763h1.84v-4.928c0-1.984-.736-3.12-2.416-3.12-1.072 0-1.872.56-2.576 1.248h-.064l-.128-1.056h-1.52zm11.72.192c.624 0 1.168-.144 1.6-.288l-.32-1.36c-.224.096-.544.176-.816.176-.752 0-1.104-.448-1.104-1.376V756.6h2v-1.456h-2V753h-1.536l-.224 2.144-1.216.08v1.376h1.12v3.744c0 1.696.672 2.848 2.496 2.848zm3.013-.192h1.84v-7.856h-1.84zm.928-9.232c.656 0 1.104-.416 1.104-1.056 0-.624-.448-1.04-1.104-1.04s-1.104.416-1.104 1.04c0 .64.448 1.056 1.104 1.056zm3.26 9.232h1.84v-5.488c.656-.64 1.104-.976 1.792-.976.864 0 1.232.48 1.232 1.776V763h1.84v-4.928c0-1.984-.736-3.12-2.416-3.12-1.072 0-1.872.56-2.576 1.248h-.064l-.128-1.056h-1.52zm11.3.192c1.072 0 1.84-.528 2.528-1.344h.048l.144 1.152h1.504v-7.856h-1.84v5.376c-.592.768-1.056 1.088-1.744 1.088-.848 0-1.216-.48-1.216-1.776v-4.688h-1.84v4.928c0 1.984.736 3.12 2.416 3.12zm9.914 0c.992 0 1.936-.352 2.688-.848l-.624-1.152c-.576.368-1.152.576-1.824.576-1.264 0-2.16-.8-2.32-2.192h4.992c.048-.192.08-.544.08-.896 0-2.192-1.12-3.728-3.248-3.728-1.84 0-3.616 1.568-3.616 4.128 0 2.592 1.696 4.112 3.872 4.112zm-2.096-4.864c.16-1.264.96-1.952 1.888-1.952 1.072 0 1.6.736 1.6 1.952z" fill="#fff"/></g></svg>