<svg fill="none" height="812" viewBox="0 0 375 812" width="375" xmlns="http://www.w3.org/2000/svg" xmlns:xlink="http://www.w3.org/1999/xlink"><filter id="a" color-interpolation-filters="sRGB" filterUnits="userSpaceOnUse" height="123" width="415" x="-20" y="709"><feFlood flood-opacity="0" result="BackgroundImageFix"/><feGaussianBlur in="BackgroundImage" stdDeviation="10"/><feComposite in2="SourceAlpha" operator="in" result="effect1_backgroundBlur"/><feColorMatrix in="SourceAlpha" type="matrix" values="0 0 0 0 0 0 0 0 0 0 0 0 0 0 0 0 0 0 127 0"/><feOffset dy="-.5"/><feColorMatrix type="matrix" values="0 0 0 0 0 0 0 0 0 0 0 0 0 0 0 0 0 0 0.3 0"/><feBlend in2="effect1_backgroundBlur" mode="normal" result="effect2_dropShadow"/><feBlend in="SourceGraphic" in2="effect2_dropShadow" mode="normal" result="shape"/></filter><path d="m0 0h375v812h-375z" fill="#fff"/><path d="m0 46h375v265h-375z" fill="#262f3a"/><g filter="url(#a)"><path d="m0 0h375v83h-375z" fill="#fff" transform="translate(0 729)"/><path d="m375 729h-375v49h375z" fill="#fff"/><path d="m15.0669 773v-6.56h1.64c1.0134 0 1.7834.28 2.31.84.5267.56.79 1.363.79 2.41 0 .52-.0666.987-.2 1.4-.1333.407-.33.753-.59 1.04-.26.28-.58.497-.96.65-.38.147-.8166.22-1.31.22zm.83-.68h.75c.7667 0 1.34-.23 1.72-.69.3867-.46.58-1.107.58-1.94s-.1933-1.47-.58-1.91c-.38-.44-.9533-.66-1.72-.66h-.75zm6.4824.8c-.4067 0-.7467-.12-1.02-.36-.2667-.24-.4-.58-.4-1.02 0-.533.2366-.94.71-1.22.4733-.287 1.23-.487 2.27-.6 0-.153-.0167-.303-.05-.45-.0267-.147-.0767-.277-.15-.39-.0734-.113-.1767-.203-.31-.27-.1267-.073-.29-.11-.49-.11-.28 0-.5434.053-.79.16-.2467.107-.4667.227-.66.36l-.32-.57c.2266-.147.5033-.287.83-.42.3266-.14.6866-.21 1.08-.21.5933 0 1.0233.183 1.29.55.2666.36.4.843.4 1.45v2.98h-.68l-.07-.58h-.03c-.2334.193-.4834.36-.75.5-.2667.133-.5534.2-.86.2zm.24-.66c.2333 0 .4533-.053.66-.16.2066-.113.4266-.277.66-.49v-1.35c-.4067.053-.75.117-1.03.19-.2734.073-.4967.16-.67.26-.1667.1-.29.217-.37.35-.0734.127-.11.267-.11.42 0 .28.0833.48.25.6.1666.12.37.18.61.18zm5.069.66c-.3466 0-.6766-.063-.99-.19-.3133-.127-.5866-.287-.82-.48l.41-.55c.2134.173.43.313.65.42.2267.107.4867.16.78.16.32 0 .56-.073.72-.22s.24-.327.24-.54c0-.127-.0333-.237-.1-.33-.0666-.093-.1533-.173-.26-.24-.1-.073-.2166-.137-.35-.19-.1333-.053-.2666-.107-.4-.16-.1733-.06-.3466-.127-.52-.2-.1733-.08-.33-.173-.47-.28-.1333-.113-.2433-.243-.33-.39-.0866-.147-.13-.323-.13-.53 0-.193.0367-.373.11-.54.08-.173.19-.32.33-.44.1467-.127.3234-.223.53-.29.2067-.073.44-.11.7-.11.3067 0 .5867.053.84.16.26.107.4834.237.67.39l-.39.52c-.1666-.127-.34-.23-.52-.31s-.3766-.12-.59-.12c-.3066 0-.5333.07-.68.21-.14.14-.21.303-.21.49 0 .113.03.213.09.3.06.08.14.153.24.22.1.06.2134.117.34.17.1334.047.27.097.41.15.1734.067.3467.137.52.21.18.073.34.167.48.28.14.107.2534.24.34.4.0934.16.14.353.14.58 0 .2-.04.387-.12.56-.0733.173-.1866.327-.34.46-.1466.133-.3333.237-.56.31-.22.08-.4733.12-.76.12zm3.0395-.12v-7.12h.82v1.94l-.03 1c.2333-.22.4767-.407.73-.56.2533-.16.55-.24.89-.24.5133 0 .8867.16 1.12.48.24.32.36.793.36 1.42v3.08h-.82v-2.97c0-.46-.0733-.79-.22-.99-.1467-.207-.38-.31-.7-.31-.2533 0-.4767.063-.67.19s-.4133.313-.66.56v3.52zm7.7094.12c-.2266 0-.4633-.053-.71-.16-.24-.113-.4666-.267-.68-.46h-.03l-.07.5h-.66v-7.12h.82v1.94l-.02.88c.22-.193.46-.353.72-.48.26-.133.5267-.2.8-.2.3134 0 .59.06.83.18.24.113.44.28.6.5.1667.213.29.473.37.78.0867.3.13.637.13 1.01 0 .413-.0566.783-.17 1.11-.1133.327-.2666.603-.46.83-.1933.227-.4166.4-.67.52-.2533.113-.52.17-.8.17zm-.14-.69c.2 0 .3834-.043.55-.13.1734-.093.32-.22.44-.38.1267-.167.2234-.37.29-.61.0734-.24.11-.51.11-.81 0-.267-.0233-.51-.07-.73-.0466-.22-.1233-.407-.23-.56-.1-.16-.2333-.283-.4-.37-.16-.087-.3533-.13-.58-.13-.3933 0-.8266.22-1.3.66v2.55c.2134.187.4234.32.63.4.2134.073.4.11.56.11zm5.5274.69c-.3 0-.5867-.057-.86-.17-.2667-.113-.5033-.277-.71-.49-.2067-.22-.3733-.487-.5-.8-.12-.32-.18-.68-.18-1.08 0-.407.06-.767.18-1.08.1267-.32.2933-.59.5-.81s.4433-.387.71-.5c.2733-.113.56-.17.86-.17s.5833.057.85.17c.2733.113.5133.28.72.5s.37.49.49.81c.1267.313.19.673.19 1.08 0 .4-.0633.76-.19 1.08-.12.313-.2833.58-.49.8-.2067.213-.4467.377-.72.49-.2667.113-.55.17-.85.17zm0-.68c.2067 0 .3967-.043.57-.13.1733-.093.32-.22.44-.38.1267-.167.2233-.363.29-.59s.1-.48.1-.76-.0333-.533-.1-.76c-.0667-.233-.1633-.433-.29-.6-.12-.167-.2667-.293-.44-.38-.1733-.093-.3633-.14-.57-.14s-.3967.047-.57.14c-.1733.087-.3233.213-.45.38-.12.167-.2133.367-.28.6-.0667.227-.1.48-.1.76s.0333.533.1.76.16.423.28.59c.1267.16.2767.287.45.38.1733.087.3633.13.57.13zm4.6332.68c-.4067 0-.7467-.12-1.02-.36-.2667-.24-.4-.58-.4-1.02 0-.533.2367-.94.71-1.22.4733-.287 1.23-.487 2.27-.6 0-.153-.0167-.303-.05-.45-.0267-.147-.0767-.277-.15-.39s-.1767-.203-.31-.27c-.1267-.073-.29-.11-.49-.11-.28 0-.5433.053-.79.16s-.4667.227-.66.36l-.32-.57c.2267-.147.5033-.287.83-.42.3267-.14.6867-.21 1.08-.21.5933 0 1.0233.183 1.29.55.2667.36.4.843.4 1.45v2.98h-.68l-.07-.58h-.03c-.2333.193-.4833.36-.75.5-.2667.133-.5533.2-.86.2zm.24-.66c.2333 0 .4533-.053.66-.16.2067-.113.4267-.277.66-.49v-1.35c-.4067.053-.75.117-1.03.19-.2733.073-.4967.16-.67.26-.1667.1-.29.217-.37.35-.0733.127-.11.267-.11.42 0 .28.0833.48.25.6s.37.18.61.18zm3.7991.54v-4.86h.68l.07.88h.03c.1666-.307.3666-.55.6-.73.24-.18.5-.27.78-.27.1933 0 .3666.033.52.1l-.16.72c-.08-.027-.1534-.047-.22-.06-.0667-.013-.15-.02-.25-.02-.2067 0-.4234.083-.65.25-.22.167-.4134.457-.58.87v3.12zm5.1491.12c-.6133 0-1.1033-.22-1.47-.66-.36-.44-.54-1.067-.54-1.88 0-.393.0567-.747.17-1.06.12-.32.2767-.59.47-.81s.4167-.39.67-.51.52-.18.8-.18.5233.05.73.15.4167.237.63.41l-.04-.83v-1.87h.83v7.12h-.68l-.07-.57h-.03c-.1933.187-.4167.35-.67.49-.2467.133-.5133.2-.8.2zm.18-.69c.2267 0 .44-.053.64-.16.2-.113.4-.283.6-.51v-2.54c-.2067-.187-.4067-.317-.6-.39-.1867-.08-.38-.12-.58-.12-.1933 0-.3767.047-.55.14-.1667.087-.3133.213-.44.38-.1267.16-.2267.353-.3.58s-.11.48-.11.76c0 .587.1167 1.043.35 1.37s.5633.49.99.49z" fill="#262f3a"/><path d="m32.2917 752.667c.4144 0 .8118-.165 1.1048-.458s.4577-.69.4577-1.105c.0051-.052.0051-.104 0-.156l2.9062-2.906h.2396.2396l1.6771 1.677v.083c0 .414.1646.812.4576 1.105s.6905.458 1.1049.458.8118-.165 1.1048-.458.4577-.691.4577-1.105v-.083l3.7916-3.823c.3091 0 .6112-.092.8681-.263.257-.172.4572-.416.5755-.702.1183-.285.1492-.599.0889-.902-.0603-.304-.2091-.582-.4276-.801-.2185-.218-.4969-.367-.8-.427s-.6173-.029-.9028.089-.5295.318-.7012.575-.2634.559-.2634.868c-.0051.052-.0051.105 0 .157l-3.7604 3.76h-.1666l-1.8021-1.833c0-.415-.1647-.812-.4577-1.105s-.6904-.458-1.1048-.458-.8119.165-1.1049.458-.4576.69-.4576 1.105l-3.125 3.125c-.4144 0-.8119.164-1.1049.457s-.4576.691-.4576 1.105c0 .415.1646.812.4576 1.105s.6905.458 1.1049.458zm14.0625 4.166h-17.7084v-17.708c0-.276-.1097-.541-.3051-.737-.1953-.195-.4603-.305-.7365-.305-.2763 0-.5413.11-.7366.305-.1954.196-.3051.461-.3051.737v18.75c0 .276.1097.541.3051.737.1953.195.4603.305.7366.305h18.75c.2762 0 .5412-.11.7365-.305.1954-.196.3051-.461.3051-.737s-.1097-.541-.3051-.737c-.1953-.195-.4603-.305-.7365-.305z" fill="#262f3a"/><g fill="#99abbd"><path d="m167.94 769.33-.31 1h1.97l-.31-1c-.12-.367-.233-.73-.34-1.09-.106-.367-.213-.74-.32-1.12h-.04c-.1.38-.203.753-.31 1.12-.106.36-.22.723-.34 1.09zm-2 3.67 2.22-6.56h.94l2.22 6.56h-.89l-.62-2h-2.39l-.63 2zm8.01.12c-.614 0-1.104-.22-1.47-.66-.36-.44-.54-1.067-.54-1.88 0-.393.056-.747.17-1.06.12-.32.276-.59.47-.81.193-.22.416-.39.67-.51.253-.12.52-.18.8-.18s.523.05.73.15c.206.1.416.237.63.41l-.04-.83v-1.87h.83v7.12h-.68l-.07-.57h-.03c-.194.187-.417.35-.67.49-.247.133-.514.2-.8.2zm.18-.69c.226 0 .44-.053.64-.16.2-.113.4-.283.6-.51v-2.54c-.207-.187-.407-.317-.6-.39-.187-.08-.38-.12-.58-.12-.194 0-.377.047-.55.14-.167.087-.314.213-.44.38-.127.16-.227.353-.3.58-.074.227-.11.48-.11.76 0 .587.116 1.043.35 1.37.233.327.563.49.99.49zm5.487.69c-.614 0-1.104-.22-1.47-.66-.36-.44-.54-1.067-.54-1.88 0-.393.056-.747.17-1.06.12-.32.276-.59.47-.81.193-.22.416-.39.67-.51.253-.12.52-.18.8-.18s.523.05.73.15c.206.1.416.237.63.41l-.04-.83v-1.87h.83v7.12h-.68l-.07-.57h-.03c-.194.187-.417.35-.67.49-.247.133-.514.2-.8.2zm.18-.69c.226 0 .44-.053.64-.16.2-.113.4-.283.6-.51v-2.54c-.207-.187-.407-.317-.6-.39-.187-.08-.38-.12-.58-.12-.194 0-.377.047-.55.14-.167.087-.314.213-.44.38-.127.16-.227.353-.3.58-.074.227-.11.48-.11.76 0 .587.116 1.043.35 1.37.233.327.563.49.99.49zm6.088.57v-4.19h-.66v-.62l.66-.05v-.77c0-.5.114-.893.34-1.18.234-.287.594-.43 1.08-.43.154 0 .297.017.43.05.14.027.267.063.38.11l-.18.63c-.18-.08-.363-.12-.55-.12-.453 0-.68.313-.68.94v.77h1.03v.67h-1.03v4.19zm4.32.12c-.52 0-.9-.16-1.14-.48-.233-.32-.35-.793-.35-1.42v-3.08h.83v2.97c0 .46.07.793.21 1 .147.2.38.3.7.3.254 0 .477-.063.67-.19.194-.133.407-.343.64-.63v-3.45h.82v4.86h-.68l-.07-.76h-.03c-.226.267-.466.48-.72.64-.246.16-.54.24-.88.24zm4.14-.12v-4.86h.68l.07.7h.03c.233-.233.476-.427.73-.58.26-.16.56-.24.9-.24.513 0 .886.16 1.12.48.24.32.36.793.36 1.42v3.08h-.82v-2.97c0-.46-.074-.79-.22-.99-.147-.207-.38-.31-.7-.31-.254 0-.477.063-.67.19-.194.127-.414.313-.66.56v3.52zm7.248.12c-.613 0-1.103-.22-1.47-.66-.36-.44-.54-1.067-.54-1.88 0-.393.057-.747.17-1.06.12-.32.277-.59.47-.81.194-.22.417-.39.67-.51.254-.12.52-.18.8-.18s.524.05.73.15c.207.1.417.237.63.41l-.04-.83v-1.87h.83v7.12h-.68l-.07-.57h-.03c-.193.187-.416.35-.67.49-.246.133-.513.2-.8.2zm.18-.69c.227 0 .44-.053.64-.16.2-.113.4-.283.6-.51v-2.54c-.206-.187-.406-.317-.6-.39-.186-.08-.38-.12-.58-.12-.193 0-.376.047-.55.14-.166.087-.313.213-.44.38-.126.16-.226.353-.3.58-.073.227-.11.48-.11.76 0 .587.117 1.043.35 1.37.234.327.564.49.99.49zm5.097.69c-.346 0-.676-.063-.99-.19-.313-.127-.586-.287-.82-.48l.41-.55c.214.173.43.313.65.42.227.107.487.16.78.16.32 0 .56-.073.72-.22s.24-.327.24-.54c0-.127-.033-.237-.1-.33-.066-.093-.153-.173-.26-.24-.1-.073-.216-.137-.35-.19-.133-.053-.266-.107-.4-.16-.173-.06-.346-.127-.52-.2-.173-.08-.33-.173-.47-.28-.133-.113-.243-.243-.33-.39-.086-.147-.13-.323-.13-.53 0-.193.037-.373.11-.54.08-.173.19-.32.33-.44.147-.127.324-.223.53-.29.207-.073.44-.11.7-.11.307 0 .587.053.84.16.26.107.484.237.67.39l-.39.52c-.166-.127-.34-.23-.52-.31s-.376-.12-.59-.12c-.306 0-.533.07-.68.21-.14.14-.21.303-.21.49 0 .113.03.213.09.3.06.08.14.153.24.22.1.06.214.117.34.17.134.047.27.097.41.15.174.067.347.137.52.21.18.073.34.167.48.28.14.107.254.24.34.4.094.16.14.353.14.58 0 .2-.04.387-.12.56-.073.173-.186.327-.34.46-.146.133-.333.237-.56.31-.22.08-.473.12-.76.12z"/><path d="m192.667 751.625h-5.396c.121-.334.185-.686.187-1.042v-1.041h2.605c.276 0 .541-.11.736-.305.195-.196.305-.461.305-.737s-.11-.541-.305-.737c-.195-.195-.46-.305-.736-.305h-2.605v-1.041c-.002-.447.143-.882.413-1.238.269-.355.649-.613 1.079-.731.431-.119.888-.092 1.302.075.414.168.761.467.988.852.138.24.366.416.633.488.268.073.553.036.794-.103.24-.138.416-.366.488-.633.072-.268.035-.553-.103-.794-.477-.749-1.182-1.325-2.01-1.646-.828-.32-1.737-.368-2.594-.135-.858.233-1.618.733-2.171 1.428-.552.695-.869 1.549-.902 2.437v1.041h-1.042c-.276 0-.541.11-.736.305-.196.196-.305.461-.305.737s.109.541.305.737c.195.195.46.305.736.305h1.042v1.041c0 .277-.11.542-.305.737s-.46.305-.737.305c-.276 0-.541.11-.736.305-.196.195-.305.46-.305.737 0 .276.109.541.305.736.195.196.46.305.736.305h8.334c.276 0 .541-.109.736-.305.196-.195.305-.46.305-.736 0-.277-.109-.542-.305-.737-.195-.195-.46-.305-.736-.305zm-4.167-14.583c-2.266 0-4.482.672-6.366 1.931s-3.353 3.048-4.22 5.142-1.094 4.398-.652 6.62c.442 2.223 1.533 4.265 3.136 5.867 1.602 1.603 3.644 2.694 5.867 3.136 2.222.442 4.526.215 6.62-.652s3.883-2.336 5.142-4.22 1.931-4.1 1.931-6.366c0-3.039-1.207-5.953-3.356-8.102s-5.063-3.356-8.102-3.356zm0 20.833c-1.854 0-3.667-.55-5.208-1.58-1.542-1.03-2.744-2.494-3.453-4.207-.71-1.713-.896-3.598-.534-5.417s1.255-3.489 2.566-4.8 2.981-2.204 4.8-2.566 3.704-.176 5.417.534c1.713.709 3.177 1.911 4.207 3.453 1.03 1.541 1.58 3.354 1.58 5.208 0 2.486-.988 4.871-2.746 6.629s-4.143 2.746-6.629 2.746z"/><path d="m253.717 773v-6.56h1.95c.333 0 .636.03.91.09.28.06.516.153.71.28.2.127.353.293.46.5.113.2.17.443.17.73 0 .327-.084.623-.25.89-.16.26-.397.44-.71.54v.04c.4.073.723.24.97.5.246.26.37.617.37 1.07 0 .32-.06.6-.18.84s-.29.44-.51.6-.484.28-.79.36c-.307.08-.644.12-1.01.12zm.83-3.77h.97c.56 0 .963-.097 1.21-.29.246-.193.37-.457.37-.79 0-.38-.13-.65-.39-.81-.254-.16-.637-.24-1.15-.24h-1.01zm0 3.11h1.14c.566 0 1.006-.103 1.32-.31.313-.213.47-.54.47-.98 0-.407-.154-.703-.46-.89-.307-.193-.75-.29-1.33-.29h-1.14zm5.959.78c-.314 0-.537-.093-.67-.28-.134-.187-.2-.46-.2-.82v-6.14h.82v6.2c0 .133.023.227.07.28.046.053.1.08.16.08h.07c.026 0 .063-.007.11-.02l.11.62c-.054.027-.117.047-.19.06-.074.013-.167.02-.28.02zm3.688 0c-.3 0-.586-.057-.86-.17-.266-.113-.503-.277-.71-.49-.206-.22-.373-.487-.5-.8-.12-.32-.18-.68-.18-1.08 0-.407.06-.767.18-1.08.127-.32.294-.59.5-.81.207-.22.444-.387.71-.5.274-.113.56-.17.86-.17s.584.057.85.17c.274.113.514.28.72.5.207.22.37.49.49.81.127.313.19.673.19 1.08 0 .4-.063.76-.19 1.08-.12.313-.283.58-.49.8-.206.213-.446.377-.72.49-.266.113-.55.17-.85.17zm0-.68c.207 0 .397-.043.57-.13.174-.093.32-.22.44-.38.127-.167.224-.363.29-.59.067-.227.1-.48.1-.76s-.033-.533-.1-.76c-.066-.233-.163-.433-.29-.6-.12-.167-.266-.293-.44-.38-.173-.093-.363-.14-.57-.14-.206 0-.396.047-.57.14-.173.087-.323.213-.45.38-.12.167-.213.367-.28.6-.066.227-.1.48-.1.76s.034.533.1.76c.067.227.16.423.28.59.127.16.277.287.45.38.174.087.364.13.57.13zm5.29 2.8c-.3 0-.573-.03-.82-.09-.246-.053-.46-.137-.64-.25-.173-.113-.31-.25-.41-.41-.093-.16-.14-.347-.14-.56 0-.207.064-.403.19-.59.127-.187.3-.357.52-.51v-.04c-.12-.073-.223-.173-.31-.3-.08-.133-.12-.297-.12-.49 0-.207.057-.387.17-.54.114-.153.234-.273.36-.36v-.04c-.16-.133-.306-.31-.44-.53-.126-.227-.19-.487-.19-.78 0-.267.047-.507.14-.72.1-.213.234-.393.4-.54.167-.153.36-.27.58-.35.227-.08.464-.12.71-.12.134 0 .257.013.37.04.12.02.227.047.32.08h1.69v.63h-1c.114.113.207.257.28.43.08.173.12.363.12.57 0 .26-.046.497-.14.71-.093.207-.22.383-.38.53-.16.14-.35.25-.57.33-.213.08-.443.12-.69.12-.12 0-.243-.013-.37-.04-.126-.033-.246-.077-.36-.13-.086.073-.16.157-.22.25-.06.087-.09.197-.09.33 0 .153.06.28.18.38s.347.15.68.15h.94c.567 0 .99.093 1.27.28.287.18.43.473.43.88 0 .227-.056.44-.17.64-.113.207-.276.387-.49.54-.213.153-.473.273-.78.36-.3.093-.64.14-1.02.14zm0-4.33c.14 0 .27-.027.39-.08.127-.053.237-.13.33-.23.1-.1.177-.22.23-.36.054-.147.08-.31.08-.49 0-.36-.1-.637-.3-.83-.2-.2-.443-.3-.73-.3-.286 0-.53.1-.73.3-.2.193-.3.47-.3.83 0 .18.027.343.08.49.054.14.127.26.22.36.1.1.21.177.33.23.127.053.26.08.4.08zm.12 3.76c.234 0 .444-.03.63-.09.194-.053.357-.127.49-.22.134-.087.237-.19.31-.31.074-.12.11-.243.11-.37 0-.227-.083-.383-.25-.47-.166-.087-.41-.13-.73-.13h-.84c-.093 0-.196-.007-.31-.02-.106-.007-.213-.027-.32-.06-.173.127-.3.26-.38.4s-.12.28-.12.42c0 .26.124.467.37.62.254.153.6.23 1.04.23z"/><path d="m267.25 746.333h-1.15c-.305 0-.598.123-.813.342-.216.219-.337.516-.337.825s.121.606.337.825c.215.219.508.342.813.342h1.15c.305 0 .598-.123.813-.342.216-.219.337-.516.337-.825s-.121-.606-.337-.825c-.215-.219-.508-.342-.813-.342zm0 4.667h-1.15c-.305 0-.598.123-.813.342-.216.219-.337.515-.337.825 0 .309.121.606.337.825.215.218.508.341.813.341h1.15c.305 0 .598-.123.813-.341.216-.219.337-.516.337-.825 0-.31-.121-.606-.337-.825-.215-.219-.508-.342-.813-.342zm-6.9-7h6.9c.305 0 .598-.123.813-.342.216-.219.337-.515.337-.825 0-.309-.121-.606-.337-.825-.215-.218-.508-.341-.813-.341h-6.9c-.305 0-.598.123-.813.341-.216.219-.337.516-.337.825 0 .31.121.606.337.825.215.219.508.342.813.342zm11.5-7h-16.1c-.305 0-.598.123-.813.342-.216.219-.337.515-.337.825v3.5h-3.45c-.305 0-.598.123-.813.341-.216.219-.337.516-.337.825v11.667c0 .928.363 1.818 1.01 2.475.647.656 1.525 1.025 2.44 1.025h14.95c1.22 0 2.39-.492 3.253-1.367.862-.875 1.347-2.062 1.347-3.3v-15.166c0-.31-.121-.606-.337-.825-.215-.219-.508-.342-.813-.342zm-17.25 17.5c0 .309-.121.606-.337.825-.215.219-.508.342-.813.342s-.598-.123-.813-.342c-.216-.219-.337-.516-.337-.825v-10.5h2.3zm16.1-1.167c0 .619-.242 1.213-.674 1.65-.431.438-1.016.684-1.626.684h-11.707c.134-.374.204-.769.207-1.167v-15.167h13.8zm-10.35-4.666h1.15c.305 0 .598-.123.813-.342.216-.219.337-.516.337-.825s-.121-.606-.337-.825c-.215-.219-.508-.342-.813-.342h-1.15c-.305 0-.598.123-.813.342-.216.219-.337.516-.337.825s.121.606.337.825c.215.219.508.342.813.342zm0 4.666h1.15c.305 0 .598-.123.813-.341.216-.219.337-.516.337-.825 0-.31-.121-.606-.337-.825-.215-.219-.508-.342-.813-.342h-1.15c-.305 0-.598.123-.813.342-.216.219-.337.515-.337.825 0 .309.121.606.337.825.215.218.508.341.813.341z"/><path d="m323.626 773v-6.56h1.64c1.013 0 1.783.28 2.31.84s.79 1.363.79 2.41c0 .52-.067.987-.2 1.4-.133.407-.33.753-.59 1.04-.26.28-.58.497-.96.65-.38.147-.817.22-1.31.22zm.83-.68h.75c.767 0 1.34-.23 1.72-.69.387-.46.58-1.107.58-1.94s-.193-1.47-.58-1.91c-.38-.44-.953-.66-1.72-.66h-.75zm6.482.8c-.406 0-.746-.12-1.02-.36-.266-.24-.4-.58-.4-1.02 0-.533.237-.94.71-1.22.474-.287 1.23-.487 2.27-.6 0-.153-.016-.303-.05-.45-.026-.147-.076-.277-.15-.39-.073-.113-.176-.203-.31-.27-.126-.073-.29-.11-.49-.11-.28 0-.543.053-.79.16-.246.107-.466.227-.66.36l-.32-.57c.227-.147.504-.287.83-.42.327-.14.687-.21 1.08-.21.594 0 1.024.183 1.29.55.267.36.4.843.4 1.45v2.98h-.68l-.07-.58h-.03c-.233.193-.483.36-.75.5-.266.133-.553.2-.86.2zm.24-.66c.234 0 .454-.053.66-.16.207-.113.427-.277.66-.49v-1.35c-.406.053-.75.117-1.03.19-.273.073-.496.16-.67.26-.166.1-.29.217-.37.35-.073.127-.11.267-.11.42 0 .28.084.48.25.6.167.12.37.18.61.18zm4.849.54-1.75-4.86h.85l.92 2.76c.074.24.147.48.22.72.08.24.157.477.23.71h.04c.074-.233.147-.47.22-.71.074-.24.147-.48.22-.72l.92-2.76h.81l-1.72 4.86zm3.738 0v-4.86h.82v4.86zm.42-5.86c-.16 0-.296-.05-.41-.15-.106-.1-.16-.227-.16-.38 0-.16.054-.287.16-.38.114-.1.25-.15.41-.15s.294.05.4.15c.114.093.17.22.17.38 0 .153-.056.28-.17.38-.106.1-.24.15-.4.15zm3.821 5.98c-.613 0-1.103-.22-1.47-.66-.36-.44-.54-1.067-.54-1.88 0-.393.057-.747.17-1.06.12-.32.277-.59.47-.81.194-.22.417-.39.67-.51.254-.12.52-.18.8-.18s.524.05.73.15c.207.1.417.237.63.41l-.04-.83v-1.87h.83v7.12h-.68l-.07-.57h-.03c-.193.187-.416.35-.67.49-.246.133-.513.2-.8.2zm.18-.69c.227 0 .44-.053.64-.16.2-.113.4-.283.6-.51v-2.54c-.206-.187-.406-.317-.6-.39-.186-.08-.38-.12-.58-.12-.193 0-.376.047-.55.14-.166.087-.313.213-.44.38-.126.16-.226.353-.3.58-.073.227-.11.48-.11.76 0 .587.117 1.043.35 1.37.234.327.564.49.99.49zm5.797.69c-.327 0-.633-.057-.92-.17-.28-.12-.527-.287-.74-.5-.207-.22-.37-.487-.49-.8s-.18-.67-.18-1.07.06-.757.18-1.07c.127-.32.29-.59.49-.81.207-.22.44-.387.7-.5.26-.12.53-.18.81-.18.307 0 .58.053.82.16.247.107.45.26.61.46.167.2.293.44.38.72s.13.593.13.94c0 .087-.003.173-.01.26 0 .08-.007.15-.02.21h-3.28c.033.52.193.933.48 1.24.293.3.673.45 1.14.45.233 0 .447-.033.64-.1.2-.073.39-.167.57-.28l.29.54c-.213.133-.45.25-.71.35s-.557.15-.89.15zm-1.53-2.94h2.6c0-.493-.107-.867-.32-1.12-.207-.26-.5-.39-.88-.39-.173 0-.34.033-.5.1-.153.067-.293.167-.42.3-.127.127-.233.283-.32.47-.08.187-.133.4-.16.64z"/><path d="m338.1 738.083c-2.02.004-3.996.595-5.686 1.702s-3.022 2.681-3.834 4.531c-.811 1.851-1.067 3.897-.736 5.89s1.234 3.847 2.6 5.336c.975 1.057 2.159 1.901 3.477 2.478 1.317.577 2.74.875 4.179.875s2.862-.298 4.179-.875c1.318-.577 2.502-1.421 3.477-2.478 1.366-1.489 2.269-3.343 2.6-5.336s.075-4.039-.736-5.89c-.812-1.85-2.144-3.424-3.834-4.531s-3.666-1.698-5.686-1.702zm0 18.75c-2.158-.003-4.23-.843-5.781-2.343.471-1.147 1.272-2.127 2.301-2.817s2.241-1.059 3.48-1.059 2.451.369 3.48 1.059 1.83 1.67 2.301 2.817c-1.551 1.5-3.623 2.34-5.781 2.343zm-2.083-10.416c0-.412.122-.815.351-1.158.229-.342.554-.609.935-.767.38-.158.799-.199 1.203-.119.405.081.776.279 1.067.571.292.291.49.662.57 1.066.081.404.039.823-.118 1.204-.158.381-.425.706-.768.935-.342.229-.745.351-1.157.351-.553 0-1.082-.219-1.473-.61s-.61-.921-.61-1.473zm9.281 6.25c-.931-1.592-2.363-2.831-4.073-3.521.53-.602.876-1.343.995-2.136.12-.793.008-1.604-.322-2.334-.33-.731-.864-1.351-1.538-1.786-.673-.435-1.458-.667-2.26-.667s-1.587.232-2.26.667c-.674.435-1.208 1.055-1.538 1.786-.33.73-.442 1.541-.322 2.334.119.793.465 1.534.995 2.136-1.71.69-3.142 1.929-4.073 3.521-.742-1.264-1.134-2.702-1.135-4.167 0-2.21.878-4.33 2.44-5.893 1.563-1.562 3.683-2.44 5.893-2.44s4.33.878 5.893 2.44c1.562 1.563 2.44 3.683 2.44 5.893-.001 1.465-.393 2.903-1.135 4.167z"/><path d="m98.5911 769.33-.31 1h1.9699l-.3099-1c-.12-.367-.2333-.73-.34-1.09-.1067-.367-.2133-.74-.32-1.12h-.04c-.1.38-.2033.753-.31 1.12-.1067.36-.22.723-.34 1.09zm-2 3.67 2.22-6.56h.94l2.2199 6.56h-.89l-.62-2h-2.3899l-.63 2zm8.2689.12c-.32 0-.62-.057-.9-.17s-.523-.277-.73-.49c-.2-.22-.36-.487-.48-.8-.113-.32-.17-.68-.17-1.08 0-.407.064-.767.19-1.08.127-.32.297-.59.51-.81.214-.22.46-.387.74-.5.287-.113.587-.17.9-.17.32 0 .594.057.82.17.227.113.427.247.6.4l-.42.54c-.14-.127-.29-.23-.45-.31-.153-.08-.326-.12-.52-.12-.22 0-.423.047-.61.14-.186.087-.346.213-.48.38-.133.167-.24.367-.32.6-.073.227-.11.48-.11.76s.037.533.11.76c.074.227.174.423.3.59.134.16.294.287.48.38.187.087.39.13.61.13.227 0 .434-.047.62-.14.194-.1.367-.217.52-.35l.36.55c-.22.193-.463.347-.73.46-.266.107-.546.16-.84.16zm4.193 0c-.26 0-.48-.04-.66-.12-.173-.08-.316-.19-.43-.33-.106-.14-.183-.31-.23-.51-.046-.2-.07-.42-.07-.66v-2.69h-.72v-.62l.76-.05.1-1.36h.69v1.36h1.31v.67h-1.31v2.7c0 .3.054.533.16.7.114.16.31.24.59.24.087 0 .18-.013.28-.04s.19-.057.27-.09l.16.62c-.133.047-.28.087-.44.12-.153.04-.306.06-.46.06zm1.969-.12v-4.86h.82v4.86zm.42-5.86c-.16 0-.296-.05-.41-.15-.106-.1-.16-.227-.16-.38 0-.16.054-.287.16-.38.114-.1.25-.15.41-.15s.294.05.4.15c.114.093.17.22.17.38 0 .153-.056.28-.17.38-.106.1-.24.15-.4.15zm3.211 5.86-1.75-4.86h.85l.92 2.76c.074.24.147.48.22.72.08.24.157.477.23.71h.04c.074-.233.147-.47.22-.71.074-.24.147-.48.22-.72l.92-2.76h.81l-1.72 4.86zm3.738 0v-4.86h.82v4.86zm.42-5.86c-.16 0-.296-.05-.41-.15-.106-.1-.16-.227-.16-.38 0-.16.054-.287.16-.38.114-.1.25-.15.41-.15s.294.05.4.15c.114.093.17.22.17.38 0 .153-.056.28-.17.38-.106.1-.24.15-.4.15zm3.691 5.98c-.26 0-.48-.04-.66-.12-.173-.08-.317-.19-.43-.33-.107-.14-.183-.31-.23-.51s-.07-.42-.07-.66v-2.69h-.72v-.62l.76-.05.1-1.36h.69v1.36h1.31v.67h-1.31v2.7c0 .3.053.533.16.7.113.16.31.24.59.24.087 0 .18-.013.28-.04s.19-.057.27-.09l.16.62c-.133.047-.28.087-.44.12-.153.04-.307.06-.46.06zm2.049 1.97c-.113 0-.217-.01-.31-.03-.093-.013-.18-.037-.26-.07l.16-.65c.053.013.113.027.18.04.067.02.13.03.19.03.28 0 .507-.1.68-.3.18-.193.32-.44.42-.74l.11-.36-1.95-4.87h.85l.99 2.69c.073.213.15.44.23.68.087.233.167.463.24.69h.04c.073-.22.143-.45.21-.69s.133-.467.2-.68l.87-2.69h.8l-1.83 5.26c-.087.24-.183.463-.29.67s-.233.383-.38.53c-.147.153-.313.273-.5.36s-.403.13-.65.13z"/><path d="m113 752h-10c-.265 0-.52.105-.707.293-.188.187-.293.442-.293.707s.105.52.293.707c.187.188.442.293.707.293h10c.265 0 .52-.105.707-.293.188-.187.293-.442.293-.707s-.105-.52-.293-.707c-.187-.188-.442-.293-.707-.293zm-10-8h18c.265 0 .52-.105.707-.293.188-.187.293-.442.293-.707s-.105-.52-.293-.707c-.187-.188-.442-.293-.707-.293h-18c-.265 0-.52.105-.707.293-.188.187-.293.442-.293.707s.105.52.293.707c.187.188.442.293.707.293zm18 3h-18c-.265 0-.52.105-.707.293-.188.187-.293.442-.293.707s.105.52.293.707c.187.188.442.293.707.293h18c.265 0 .52-.105.707-.293.188-.187.293-.442.293-.707s-.105-.52-.293-.707c-.187-.188-.442-.293-.707-.293z"/></g><path d="m252.5 798h-129c-1.381 0-2.5 1.119-2.5 2.5s1.119 2.5 2.5 2.5h129c1.381 0 2.5-1.119 2.5-2.5s-1.119-2.5-2.5-2.5z" fill="#000"/></g><path d="m375 0h-375v46h375z" fill="#262f3a"/><path d="m78 0h219c-2.106.60269-3.582 2.49525-3.655 4.68446l-.028.87734c0 13.4969-10.942 24.4382-24.439 24.4382h-162.756c-13.4971 0-24.4385-10.9413-24.4385-24.4382l-.029-.87733c-.0722-2.18922-1.5486-4.08178-3.6545-4.68447z" fill="#000"/><path d="m338.667 19.8334h16.666c1.197 0 2.167.97 2.167 2.1666v6c0 1.1967-.97 2.1667-2.167 2.1667h-16.666c-1.197 0-2.167-.97-2.167-2.1667v-6c0-1.1966.97-2.1666 2.167-2.1666z" opacity=".35" stroke="#f1f1f1"/><g fill="#fff"><path d="m359 23v4c.805-.3387 1.328-1.1268 1.328-2 0-.8731-.523-1.6612-1.328-2z" opacity=".4"/><path d="m338 22.6667c0-.7364.597-1.3333 1.333-1.3333h15.334c.736 0 1.333.5969 1.333 1.3333v4.6667c0 .7364-.597 1.3333-1.333 1.3333h-15.334c-.736 0-1.333-.5969-1.333-1.3333z"/><path clip-rule="evenodd" d="m323.33 21.608c2.216.0001 4.348.8516 5.953 2.3783.121.1179.315.1164.434-.0033l1.156-1.1667c.06-.0607.094-.1429.093-.2285 0-.0856-.035-.1674-.096-.2275-4.215-4.0395-10.865-4.0395-15.08 0-.061.06-.096.1418-.096.2274-.001.0856.033.1679.093.2286l1.156 1.1667c.119.1199.313.1214.434.0033 1.606-1.5268 3.737-2.3783 5.953-2.3783zm0 3.7957c1.218-.0001 2.392.4524 3.294 1.2696.123.116.315.1135.434-.0056l1.154-1.1667c.061-.0612.095-.1442.094-.2305-.001-.0862-.036-.1685-.098-.2285-2.748-2.5564-7.004-2.5564-9.753 0-.062.06-.097.1423-.098.2286s.033.1693.094.2304l1.154 1.1667c.119.1191.312.1216.434.0056.902-.8166 2.075-1.2691 3.291-1.2696zm2.313 2.5538c.002.0865-.032.1699-.094.2305l-1.997 2.0157c-.058.0592-.138.0926-.222.0926-.083 0-.163-.0334-.221-.0926l-1.998-2.0157c-.062-.0606-.096-.1441-.094-.2306s.04-.1684.104-.2264c1.275-1.0789 3.144-1.0789 4.419 0 .064.058.102.14.103.2265z" fill-rule="evenodd"/><path clip-rule="evenodd" d="m309.667 19.6666h-1c-.553 0-1 .4477-1 1v8.6667c0 .5523.447 1 1 1h1c.552 0 1-.4477 1-1v-8.6667c0-.5523-.448-1-1-1zm-5.667 2.3334h1c.552 0 1 .4477 1 1v6.3333c0 .5523-.448 1-1 1h-1c-.552 0-1-.4477-1-1v-6.3333c0-.5523.448-1 1-1zm-3.667 2.3333h-1c-.552 0-1 .4477-1 1v4c0 .5523.448 1 1 1h1c.553 0 1-.4477 1-1v-4c0-.5523-.447-1-1-1zm-4.666 2h-1c-.553 0-1 .4477-1 1v2c0 .5523.447 1 1 1h1c.552 0 1-.4477 1-1v-2c0-.5523-.448-1-1-1z" fill-rule="evenodd"/><path d="m37.3208 30.2563c2.688 0 4.2847-2.102 4.2847-5.6616 0-1.3403-.2564-2.4682-.7471-3.3398-.7105-1.355-1.9336-2.0874-3.479-2.0874-2.2998 0-3.9258 1.5454-3.9258 3.7134 0 2.0361 1.4649 3.5156 3.479 3.5156 1.2378 0 2.2412-.5786 2.7393-1.582h.0219.0367.0659c0 2.4169-.9155 3.8598-2.461 3.8598-.9082 0-1.6113-.498-1.853-1.2964h-1.8823c.3149 1.7359 1.7871 2.8784 3.7207 2.8784zm.0659-5.3613c-1.2158 0-2.0801-.8642-2.0801-2.0727 0-1.1792.9082-2.0801 2.0874-2.0801s2.0874.9155 2.0874 2.1094c0 1.1792-.8862 2.0434-2.0947 2.0434z"/><path d="m44.6966 30.1538c.6958 0 1.1719-.498 1.1719-1.1572 0-.6665-.4761-1.1572-1.1719-1.1572-.6885 0-1.1719.4907-1.1719 1.1572 0 .6592.4834 1.1572 1.1719 1.1572zm0-5.4932c.6958 0 1.1719-.4907 1.1719-1.1499 0-.6665-.4761-1.1572-1.1719-1.1572-.6885 0-1.1719.4907-1.1719 1.1572 0 .6592.4834 1.1499 1.1719 1.1499z"/><path d="m52.7241 30h1.8091v-1.9702h1.4282v-1.5967h-1.4282v-7.0019h-2.666c-1.8677 2.8125-3.3545 5.1635-4.3067 6.914v1.6846h5.1636zm-3.4131-3.6328c1.2305-2.168 2.3291-3.9038 3.3399-5.398h.1025v5.5079h-3.4424z"/><path d="m59.99 30h1.8897v-10.5688h-1.8823l-2.7613 1.9335v1.8165l2.6294-1.8458h.1245z"/></g><rect fill="#f2f2f2" height="22" rx="4" width="140" x="24" y="116"/><rect fill="#f2f2f2" height="22" rx="4" width="140" x="24" y="174"/><rect fill="#f2f2f2" height="16" rx="4" width="140" x="24" y="246"/><rect fill="#a6a6a6" height="11" rx="4" width="106" x="24" y="142"/><rect fill="#a6a6a6" height="11" rx="4" width="106" x="24" y="200"/><rect fill="#a6a6a6" height="11" rx="4" width="106" x="31" y="307"/><rect fill="#a6a6a6" height="20" rx="4" width="164" x="31" y="324"/><rect fill="#a6a6a6" height="20" rx="4" width="164" x="31" y="324"/><rect fill="#f3f3f3" height="116" rx="4" width="343" x="15" y="292"/><rect fill="#d2d2d2" height="11" rx="4" width="106" x="31" y="307"/><rect fill="#d2d2d2" height="20" rx="4" width="164" x="31" y="324"/><rect fill="#f3f3f3" height="116" rx="4" width="343" x="15" y="421"/><rect fill="#d2d2d2" height="11" rx="4" width="106" x="31" y="436"/><rect fill="#d2d2d2" height="20" rx="4" width="164" x="31" y="453"/><rect fill="#f3f3f3" height="116" rx="4" width="343" x="15" y="550"/><rect fill="#d2d2d2" height="11" rx="4" width="106" x="31" y="565"/><rect fill="#d2d2d2" height="20" rx="4" width="164" x="31" y="582"/></svg>