<svg width="16" height="17" viewBox="0 0 16 17" fill="none" xmlns="http://www.w3.org/2000/svg">
<path d="M8.50208 10.5164L12.2687 6.74307C12.3312 6.68109 12.3808 6.60736 12.4147 6.52612C12.4485 6.44488 12.4659 6.35774 12.4659 6.26973C12.4659 6.18173 12.4485 6.09459 12.4147 6.01335C12.3808 5.93211 12.3312 5.85838 12.2687 5.7964C12.1438 5.67223 11.9749 5.60254 11.7987 5.60254C11.6226 5.60254 11.4537 5.67223 11.3287 5.7964L7.99541 9.0964L4.69541 5.7964C4.5705 5.67223 4.40153 5.60254 4.22541 5.60254C4.04929 5.60254 3.88032 5.67223 3.75541 5.7964C3.69242 5.85814 3.6423 5.93177 3.60797 6.01302C3.57364 6.09427 3.55578 6.18153 3.55541 6.26973C3.55578 6.35794 3.57364 6.44519 3.60797 6.52644C3.6423 6.60769 3.69242 6.68132 3.75541 6.74307L7.52208 10.5164C7.5845 10.5841 7.66027 10.6381 7.74461 10.675C7.82894 10.712 7.92001 10.731 8.01208 10.731C8.10414 10.731 8.19521 10.712 8.27955 10.675C8.36388 10.6381 8.43965 10.5841 8.50208 10.5164V10.5164Z" fill="#262626"/>
</svg>
