<svg width="24" height="24" viewBox="0 0 24 24" fill="none" xmlns="http://www.w3.org/2000/svg">
<rect width="24" height="24" fill="white"/>
<path d="M11.7065 4C13.3121 4 14.7152 4.31823 15.9158 4.95469C17.1164 5.59116 18.0422 6.48799 18.6931 7.6452C19.3585 8.78794 19.6912 10.1115 19.6912 11.6159C19.6912 13.1058 19.3585 14.4293 18.6931 15.5865C18.0422 16.7437 17.1092 17.6406 15.8941 18.277C14.6935 18.9135 13.2976 19.2317 11.7065 19.2317H6V4H11.7065ZM11.4678 16.0205C12.8709 16.0205 13.963 15.6371 14.7441 14.8705C15.5252 14.1039 15.9158 13.019 15.9158 11.6159C15.9158 10.2127 15.5252 9.12063 14.7441 8.33952C13.963 7.55841 12.8709 7.16785 11.4678 7.16785H9.71029V16.0205H11.4678Z" fill="black"/>
</svg>
