<svg width="375" height="812" viewBox="0 0 375 812" fill="none" xmlns="http://www.w3.org/2000/svg">
<rect width="375" height="812" fill="white"/>
<path d="M345 0H30C13.4315 0 0 13.4315 0 30V782C0 798.569 13.4315 812 30 812H345C361.569 812 375 798.569 375 782V30C375 13.4315 361.569 0 345 0Z" fill="white"/>
<path d="M0 161.5H375" stroke="#F0F0F0"/>
<rect x="25" y="186" width="73" height="18" rx="4" fill="#D9D9D9"/>
<rect x="144" y="186" width="89" height="18" rx="4" fill="#D9D9D9"/>
<rect x="278" y="186" width="69" height="18" rx="4" fill="#D9D9D9"/>
<rect width="375" height="171" fill="white"/>
<g clip-path="url(#clip0)">
<path d="M78 -2H297V-2C294.894 -1.39731 293.418 0.495246 293.345 2.68446L293.317 3.5618V3.5618C293.317 17.0587 282.375 28 268.878 28H106.122C92.6249 28 81.6835 17.0587 81.6835 3.5618V3.5618L81.6545 2.68447C81.5823 0.49525 80.1059 -1.39731 78 -2V-2Z" fill="black"/>
<path opacity="0.35" d="M338.667 17.8334H355.333C356.53 17.8334 357.5 18.8034 357.5 20V26C357.5 27.1967 356.53 28.1667 355.333 28.1667H338.667C337.47 28.1667 336.5 27.1967 336.5 26V20C336.5 18.8034 337.47 17.8334 338.667 17.8334Z" stroke="black"/>
<path opacity="0.4" d="M359 21.0001V25.0001C359.805 24.6613 360.328 23.8732 360.328 23.0001C360.328 22.1269 359.805 21.3388 359 21.0001" fill="black"/>
<path d="M338 20.6667C338 19.9303 338.597 19.3334 339.333 19.3334H354.667C355.403 19.3334 356 19.9303 356 20.6667V25.3334C356 26.0698 355.403 26.6667 354.667 26.6667H339.333C338.597 26.6667 338 26.0698 338 25.3334V20.6667Z" fill="black"/>
<path fill-rule="evenodd" clip-rule="evenodd" d="M323.33 19.608C325.546 19.6081 327.677 20.4596 329.283 21.9863C329.404 22.1042 329.598 22.1027 329.717 21.983L330.873 20.8163C330.933 20.7556 330.967 20.6734 330.966 20.5878C330.966 20.5022 330.931 20.4204 330.87 20.3603C326.655 16.3208 320.005 16.3208 315.79 20.3603C315.729 20.4203 315.694 20.5021 315.694 20.5877C315.693 20.6733 315.727 20.7556 315.787 20.8163L316.943 21.983C317.062 22.1029 317.256 22.1044 317.377 21.9863C318.983 20.4595 321.114 19.608 323.33 19.608ZM323.33 23.4037C324.548 23.4036 325.722 23.8561 326.624 24.6733C326.746 24.7893 326.939 24.7868 327.058 24.6677L328.212 23.501C328.273 23.4398 328.307 23.3568 328.306 23.2705C328.305 23.1843 328.27 23.102 328.208 23.042C325.459 20.4856 321.204 20.4856 318.455 23.042C318.393 23.102 318.358 23.1843 318.357 23.2706C318.356 23.3569 318.39 23.4399 318.451 23.501L319.605 24.6677C319.724 24.7868 319.917 24.7893 320.039 24.6733C320.941 23.8567 322.114 23.4042 323.33 23.4037ZM325.643 25.9575C325.645 26.044 325.611 26.1274 325.549 26.188L323.552 28.2037C323.493 28.2629 323.414 28.2963 323.33 28.2963C323.247 28.2963 323.167 28.2629 323.109 28.2037L321.111 26.188C321.049 26.1274 321.015 26.0439 321.017 25.9574C321.019 25.8709 321.056 25.789 321.121 25.731C322.396 24.6521 324.264 24.6521 325.54 25.731C325.604 25.789 325.642 25.871 325.643 25.9575Z" fill="black"/>
<path fill-rule="evenodd" clip-rule="evenodd" d="M309.667 17.6666H308.667C308.114 17.6666 307.667 18.1143 307.667 18.6666V27.3333C307.667 27.8856 308.114 28.3333 308.667 28.3333H309.667C310.219 28.3333 310.667 27.8856 310.667 27.3333V18.6666C310.667 18.1143 310.219 17.6666 309.667 17.6666ZM304 20H305C305.552 20 306 20.4477 306 21V27.3333C306 27.8856 305.552 28.3333 305 28.3333H304C303.448 28.3333 303 27.8856 303 27.3333V21C303 20.4477 303.448 20 304 20ZM300.333 22.3333H299.333C298.781 22.3333 298.333 22.781 298.333 23.3333V27.3333C298.333 27.8856 298.781 28.3333 299.333 28.3333H300.333C300.886 28.3333 301.333 27.8856 301.333 27.3333V23.3333C301.333 22.781 300.886 22.3333 300.333 22.3333ZM295.667 24.3333H294.667C294.114 24.3333 293.667 24.781 293.667 25.3333V27.3333C293.667 27.8856 294.114 28.3333 294.667 28.3333H295.667C296.219 28.3333 296.667 27.8856 296.667 27.3333V25.3333C296.667 24.781 296.219 24.3333 295.667 24.3333Z" fill="black"/>
<path d="M37.3207 28.2563C40.0087 28.2563 41.6054 26.1543 41.6054 22.5947C41.6054 21.2544 41.349 20.1265 40.8583 19.2549C40.1479 17.8999 38.9247 17.1675 37.3793 17.1675C35.0795 17.1675 33.4535 18.7129 33.4535 20.8809C33.4535 22.917 34.9184 24.3965 36.9325 24.3965C38.1703 24.3965 39.1737 23.8179 39.6718 22.8145H39.6938C39.6938 22.8145 39.7231 22.8145 39.7304 22.8145C39.745 22.8145 39.7963 22.8145 39.7963 22.8145C39.7963 25.2314 38.8808 26.6743 37.3354 26.6743C36.4272 26.6743 35.724 26.1763 35.4823 25.3779H33.6C33.9149 27.1138 35.3871 28.2563 37.3207 28.2563ZM37.3866 22.895C36.1708 22.895 35.3065 22.0308 35.3065 20.8223C35.3065 19.6431 36.2148 18.7422 37.394 18.7422C38.5732 18.7422 39.4814 19.6577 39.4814 20.8516C39.4814 22.0308 38.5951 22.895 37.3866 22.895Z" fill="black"/>
<path d="M44.6965 28.1538C45.3923 28.1538 45.8684 27.6558 45.8684 26.9966C45.8684 26.3301 45.3923 25.8394 44.6965 25.8394C44.008 25.8394 43.5246 26.3301 43.5246 26.9966C43.5246 27.6558 44.008 28.1538 44.6965 28.1538ZM44.6965 22.6606C45.3923 22.6606 45.8684 22.1699 45.8684 21.5107C45.8684 20.8442 45.3923 20.3535 44.6965 20.3535C44.008 20.3535 43.5246 20.8442 43.5246 21.5107C43.5246 22.1699 44.008 22.6606 44.6965 22.6606Z" fill="black"/>
<path d="M52.7241 28H54.5332V26.0298H55.9614V24.4331H54.5332V17.4312H51.8672C49.9995 20.2437 48.5127 22.5947 47.5606 24.3452V26.0298H52.7241V28ZM49.311 24.3672C50.5415 22.1992 51.6401 20.4634 52.6509 18.9692H52.7534V24.4771H49.311V24.3672Z" fill="black"/>
<path d="M59.99 28H61.8797V17.4312H59.9974L57.2361 19.3647V21.1812L59.8655 19.3354H59.99V28Z" fill="black"/>
</g>
<rect x="16" y="96" width="56" height="56" rx="28" fill="#F0F0F0"/>
<line y1="170.5" x2="375" y2="170.5" stroke="#F0F0F0"/>
<rect x="16" y="52" width="24" height="24" rx="12" fill="#F0F0F0"/>
<rect x="335" y="52" width="24" height="24" rx="12" fill="#F0F0F0"/>
<g filter="url(#filter0_bd)">
<rect width="375" height="83" transform="translate(0 729)" fill="white"/>
<path d="M292.85 773V765.727H297.41V766.672H293.948V768.888H297.172V769.829H293.948V772.055H297.453V773H292.85ZM298.55 773V767.545H299.612V773H298.55ZM299.087 766.704C298.902 766.704 298.743 766.642 298.611 766.519C298.481 766.394 298.416 766.245 298.416 766.072C298.416 765.897 298.481 765.747 298.611 765.624C298.743 765.499 298.902 765.436 299.087 765.436C299.271 765.436 299.429 765.499 299.559 765.624C299.692 765.747 299.758 765.897 299.758 766.072C299.758 766.245 299.692 766.394 299.559 766.519C299.429 766.642 299.271 766.704 299.087 766.704ZM301.862 765.727V773H300.801V765.727H301.862ZM303.051 773V767.545H304.113V773H303.051ZM303.587 766.704C303.402 766.704 303.244 766.642 303.111 766.519C302.981 766.394 302.916 766.245 302.916 766.072C302.916 765.897 302.981 765.747 303.111 765.624C303.244 765.499 303.402 765.436 303.587 765.436C303.772 765.436 303.929 765.499 304.059 765.624C304.192 765.747 304.258 765.897 304.258 766.072C304.258 766.245 304.192 766.394 304.059 766.519C303.929 766.642 303.772 766.704 303.587 766.704ZM309.389 768.877L308.426 769.048C308.386 768.924 308.322 768.807 308.234 768.696C308.149 768.585 308.033 768.494 307.886 768.423C307.74 768.352 307.556 768.316 307.336 768.316C307.035 768.316 306.784 768.384 306.583 768.518C306.382 768.651 306.281 768.823 306.281 769.033C306.281 769.216 306.349 769.362 306.484 769.474C306.619 769.585 306.836 769.676 307.137 769.747L308.004 769.946C308.505 770.062 308.88 770.241 309.126 770.482C309.372 770.724 309.495 771.037 309.495 771.423C309.495 771.75 309.4 772.041 309.211 772.297C309.024 772.55 308.762 772.749 308.426 772.893C308.092 773.038 307.705 773.11 307.265 773.11C306.654 773.11 306.156 772.98 305.77 772.719C305.384 772.457 305.147 772.084 305.06 771.601L306.086 771.445C306.15 771.712 306.281 771.915 306.48 772.052C306.679 772.187 306.938 772.254 307.258 772.254C307.606 772.254 307.884 772.182 308.092 772.038C308.301 771.891 308.405 771.712 308.405 771.501C308.405 771.331 308.341 771.188 308.213 771.072C308.088 770.956 307.895 770.868 307.634 770.809L306.711 770.607C306.202 770.491 305.826 770.306 305.582 770.053C305.34 769.799 305.219 769.478 305.219 769.09C305.219 768.768 305.309 768.487 305.489 768.245C305.669 768.004 305.918 767.815 306.235 767.68C306.552 767.543 306.916 767.474 307.325 767.474C307.915 767.474 308.379 767.602 308.717 767.858C309.056 768.111 309.28 768.451 309.389 768.877Z" fill="#5600AF"/>
<path d="M301 737C299.06 737.004 297.164 737.571 295.541 738.634C293.919 739.696 292.64 741.208 291.861 742.984C291.082 744.76 290.836 746.724 291.154 748.638C291.472 750.551 292.339 752.331 293.65 753.76V753.76C294.586 754.775 295.723 755.585 296.988 756.139C298.253 756.693 299.619 756.979 301 756.979C302.381 756.979 303.747 756.693 305.012 756.139C306.277 755.585 307.414 754.775 308.35 753.76V753.76C309.661 752.331 310.528 750.551 310.846 748.638C311.164 746.724 310.918 744.76 310.139 742.984C309.36 741.208 308.081 739.696 306.459 738.634C304.836 737.571 302.94 737.004 301 737V737ZM301 755C298.928 754.997 296.939 754.19 295.45 752.75C295.902 751.65 296.671 750.708 297.659 750.046C298.647 749.383 299.81 749.03 301 749.03C302.19 749.03 303.353 749.383 304.341 750.046C305.329 750.708 306.098 751.65 306.55 752.75C305.061 754.19 303.072 754.997 301 755ZM299 745C299 744.604 299.117 744.218 299.337 743.889C299.557 743.56 299.869 743.304 300.235 743.152C300.6 743.001 301.002 742.961 301.39 743.038C301.778 743.116 302.135 743.306 302.414 743.586C302.694 743.865 302.884 744.222 302.962 744.61C303.039 744.998 302.999 745.4 302.848 745.765C302.696 746.131 302.44 746.443 302.111 746.663C301.782 746.883 301.396 747 301 747C300.47 747 299.961 746.789 299.586 746.414C299.211 746.039 299 745.53 299 745ZM307.91 751C307.017 749.472 305.641 748.283 304 747.62C304.509 747.043 304.841 746.331 304.955 745.569C305.07 744.808 304.962 744.03 304.646 743.328C304.329 742.627 303.817 742.032 303.17 741.614C302.523 741.196 301.77 740.974 301 740.974C300.23 740.974 299.477 741.196 298.83 741.614C298.183 742.032 297.671 742.627 297.354 743.328C297.038 744.03 296.93 744.808 297.045 745.569C297.159 746.331 297.491 747.043 298 747.62C296.359 748.283 294.983 749.472 294.09 751C293.378 749.787 293.002 748.406 293 747C293 744.878 293.843 742.843 295.343 741.343C296.843 739.843 298.878 739 301 739C303.122 739 305.157 739.843 306.657 741.343C308.157 742.843 309 744.878 309 747C308.998 748.406 308.622 749.787 307.91 751V751Z" fill="#5600AF"/>
<path d="M177.201 767.638C177.163 767.302 177.006 767.041 176.732 766.857C176.457 766.67 176.112 766.576 175.695 766.576C175.397 766.576 175.139 766.623 174.921 766.718C174.703 766.81 174.534 766.938 174.413 767.102C174.295 767.263 174.235 767.446 174.235 767.652C174.235 767.825 174.276 767.974 174.356 768.099C174.439 768.225 174.547 768.33 174.679 768.415C174.814 768.498 174.959 768.568 175.113 768.625C175.266 768.679 175.414 768.724 175.556 768.76L176.267 768.945C176.499 769.001 176.737 769.078 176.98 769.175C177.224 769.272 177.45 769.4 177.659 769.559C177.867 769.718 178.035 769.914 178.163 770.148C178.293 770.383 178.358 770.663 178.358 770.99C178.358 771.402 178.252 771.768 178.039 772.087C177.828 772.407 177.521 772.659 177.119 772.844C176.719 773.028 176.235 773.121 175.666 773.121C175.122 773.121 174.651 773.034 174.253 772.862C173.855 772.689 173.544 772.444 173.319 772.126C173.094 771.807 172.97 771.428 172.946 770.99H174.047C174.068 771.253 174.154 771.472 174.303 771.647C174.454 771.82 174.647 771.949 174.882 772.034C175.118 772.117 175.378 772.158 175.659 772.158C175.97 772.158 176.245 772.11 176.487 772.013C176.731 771.913 176.922 771.776 177.062 771.601C177.202 771.423 177.272 771.216 177.272 770.979C177.272 770.764 177.21 770.588 177.087 770.45C176.966 770.313 176.802 770.199 176.593 770.109C176.387 770.019 176.154 769.94 175.894 769.871L175.034 769.637C174.452 769.478 173.99 769.245 173.649 768.938C173.311 768.63 173.142 768.223 173.142 767.716C173.142 767.297 173.255 766.931 173.483 766.619C173.71 766.306 174.018 766.063 174.406 765.891C174.794 765.715 175.232 765.628 175.72 765.628C176.212 765.628 176.647 765.714 177.023 765.887C177.402 766.06 177.7 766.298 177.918 766.601C178.136 766.902 178.249 767.247 178.259 767.638H177.201ZM181.695 773.11C181.158 773.11 180.695 772.995 180.307 772.766C179.921 772.534 179.622 772.208 179.412 771.789C179.203 771.368 179.099 770.874 179.099 770.308C179.099 769.75 179.203 769.257 179.412 768.831C179.622 768.405 179.916 768.072 180.292 767.833C180.671 767.594 181.114 767.474 181.621 767.474C181.928 767.474 182.227 767.525 182.515 767.627C182.804 767.729 183.064 767.889 183.293 768.107C183.523 768.324 183.704 768.607 183.836 768.955C183.969 769.301 184.035 769.721 184.035 770.216V770.592H179.699V769.797H182.995C182.995 769.518 182.938 769.27 182.824 769.055C182.711 768.837 182.551 768.665 182.345 768.54C182.141 768.414 181.902 768.352 181.628 768.352C181.329 768.352 181.069 768.425 180.846 768.572C180.626 768.716 180.456 768.906 180.335 769.14C180.217 769.372 180.157 769.624 180.157 769.896V770.518C180.157 770.882 180.221 771.192 180.349 771.448C180.479 771.704 180.661 771.899 180.893 772.034C181.125 772.167 181.396 772.233 181.706 772.233C181.907 772.233 182.09 772.205 182.256 772.148C182.422 772.089 182.565 772.001 182.686 771.885C182.807 771.769 182.899 771.626 182.963 771.455L183.968 771.636C183.887 771.932 183.743 772.192 183.535 772.414C183.329 772.634 183.069 772.806 182.757 772.929C182.447 773.05 182.093 773.11 181.695 773.11ZM186.561 773.121C186.215 773.121 185.903 773.057 185.623 772.929C185.344 772.799 185.123 772.611 184.959 772.364C184.798 772.118 184.718 771.816 184.718 771.459C184.718 771.151 184.777 770.898 184.895 770.699C185.014 770.5 185.173 770.343 185.375 770.227C185.576 770.111 185.801 770.023 186.049 769.964C186.298 769.905 186.551 769.86 186.809 769.829C187.136 769.791 187.401 769.76 187.605 769.737C187.808 769.71 187.956 769.669 188.049 769.612C188.141 769.555 188.187 769.463 188.187 769.335V769.31C188.187 769 188.1 768.76 187.924 768.589C187.752 768.419 187.494 768.334 187.15 768.334C186.793 768.334 186.511 768.413 186.305 768.572C186.102 768.728 185.961 768.902 185.883 769.094L184.885 768.866C185.003 768.535 185.176 768.268 185.403 768.064C185.633 767.858 185.897 767.709 186.195 767.616C186.493 767.522 186.807 767.474 187.136 767.474C187.354 767.474 187.585 767.5 187.829 767.553C188.075 767.602 188.304 767.695 188.517 767.83C188.733 767.964 188.909 768.157 189.047 768.408C189.184 768.657 189.253 768.98 189.253 769.378V773H188.216V772.254H188.173C188.104 772.392 188.001 772.527 187.864 772.659C187.727 772.792 187.55 772.902 187.335 772.989C187.119 773.077 186.861 773.121 186.561 773.121ZM186.792 772.268C187.085 772.268 187.336 772.21 187.544 772.094C187.755 771.978 187.915 771.827 188.024 771.64C188.135 771.451 188.191 771.248 188.191 771.033V770.33C188.153 770.367 188.079 770.403 187.971 770.436C187.864 770.467 187.742 770.494 187.605 770.518C187.468 770.539 187.334 770.559 187.204 770.578C187.073 770.595 186.964 770.609 186.877 770.621C186.671 770.647 186.483 770.691 186.312 770.752C186.144 770.814 186.009 770.902 185.907 771.018C185.808 771.132 185.758 771.284 185.758 771.473C185.758 771.736 185.855 771.935 186.049 772.07C186.244 772.202 186.491 772.268 186.792 772.268ZM190.427 773V767.545H191.453V768.412H191.51C191.609 768.118 191.785 767.888 192.035 767.719C192.289 767.549 192.575 767.464 192.895 767.464C192.961 767.464 193.039 767.466 193.129 767.471C193.222 767.476 193.294 767.482 193.346 767.489V768.504C193.303 768.492 193.227 768.479 193.119 768.465C193.01 768.449 192.901 768.44 192.792 768.44C192.541 768.44 192.317 768.494 192.121 768.6C191.927 768.704 191.773 768.85 191.659 769.037C191.545 769.222 191.489 769.432 191.489 769.669V773H190.427ZM196.127 773.11C195.599 773.11 195.144 772.991 194.763 772.751C194.385 772.51 194.093 772.177 193.89 771.754C193.686 771.33 193.584 770.844 193.584 770.298C193.584 769.744 193.689 769.255 193.897 768.831C194.105 768.405 194.399 768.072 194.778 767.833C195.156 767.594 195.603 767.474 196.116 767.474C196.531 767.474 196.9 767.551 197.224 767.705C197.549 767.857 197.81 768.07 198.009 768.344C198.21 768.619 198.33 768.94 198.368 769.307H197.334C197.278 769.051 197.147 768.831 196.944 768.646C196.742 768.462 196.473 768.369 196.134 768.369C195.838 768.369 195.579 768.447 195.356 768.604C195.136 768.758 194.965 768.978 194.841 769.264C194.718 769.548 194.657 769.884 194.657 770.273C194.657 770.67 194.717 771.014 194.838 771.303C194.959 771.591 195.129 771.815 195.349 771.974C195.572 772.132 195.833 772.212 196.134 772.212C196.335 772.212 196.518 772.175 196.681 772.102C196.847 772.026 196.985 771.918 197.096 771.778C197.21 771.639 197.289 771.471 197.334 771.274H198.368C198.33 771.627 198.215 771.942 198.023 772.219C197.831 772.496 197.575 772.714 197.253 772.872C196.933 773.031 196.558 773.11 196.127 773.11ZM200.325 769.761V773H199.263V765.727H200.311V768.433H200.378C200.506 768.14 200.701 767.906 200.964 767.734C201.227 767.561 201.57 767.474 201.994 767.474C202.368 767.474 202.695 767.551 202.974 767.705C203.256 767.859 203.474 768.089 203.628 768.394C203.784 768.697 203.862 769.076 203.862 769.531V773H202.8V769.658C202.8 769.258 202.697 768.948 202.491 768.728C202.285 768.505 201.999 768.394 201.632 768.394C201.381 768.394 201.156 768.447 200.957 768.554C200.761 768.661 200.606 768.817 200.492 769.023C200.381 769.226 200.325 769.473 200.325 769.761Z" fill="#262626"/>
<path d="M197.71 755.29L194 751.61C195.44 749.814 196.138 747.535 195.949 745.241C195.76 742.947 194.7 740.813 192.986 739.277C191.271 737.741 189.034 736.92 186.733 736.982C184.432 737.045 182.243 737.988 180.615 739.615C178.988 741.243 178.045 743.432 177.982 745.733C177.92 748.034 178.741 750.271 180.277 751.986C181.813 753.7 183.947 754.76 186.241 754.949C188.535 755.138 190.814 754.44 192.61 753L196.29 756.68C196.383 756.774 196.494 756.848 196.615 756.899C196.737 756.95 196.868 756.976 197 756.976C197.132 756.976 197.263 756.95 197.385 756.899C197.506 756.848 197.617 756.774 197.71 756.68C197.89 756.494 197.991 756.244 197.991 755.985C197.991 755.726 197.89 755.476 197.71 755.29V755.29ZM187 753C185.616 753 184.262 752.589 183.111 751.82C181.96 751.051 181.063 749.958 180.533 748.679C180.003 747.4 179.864 745.992 180.135 744.634C180.405 743.277 181.071 742.029 182.05 741.05C183.029 740.071 184.277 739.405 185.634 739.135C186.992 738.864 188.4 739.003 189.679 739.533C190.958 740.063 192.051 740.96 192.82 742.111C193.589 743.262 194 744.616 194 746C194 747.857 193.263 749.637 191.95 750.95C190.637 752.263 188.857 753 187 753V753Z" fill="#262626"/>
<path d="M55.8678 768.092H54.7599C54.7173 767.856 54.638 767.647 54.522 767.467C54.406 767.287 54.2639 767.135 54.0958 767.009C53.9277 766.884 53.7395 766.789 53.5312 766.725C53.3252 766.661 53.1062 766.629 52.8742 766.629C52.4552 766.629 52.08 766.735 51.7485 766.945C51.4195 767.156 51.159 767.465 50.9673 767.872C50.7779 768.279 50.6832 768.777 50.6832 769.364C50.6832 769.955 50.7779 770.455 50.9673 770.862C51.159 771.269 51.4206 771.577 51.7521 771.786C52.0835 771.994 52.4564 772.098 52.8707 772.098C53.1003 772.098 53.3181 772.067 53.5241 772.006C53.7324 771.942 53.9206 771.848 54.0887 771.725C54.2568 771.602 54.3989 771.452 54.5149 771.274C54.6332 771.094 54.7149 770.888 54.7599 770.656L55.8678 770.66C55.8087 771.017 55.6938 771.346 55.5234 771.647C55.3553 771.945 55.1387 772.203 54.8735 772.421C54.6107 772.637 54.3101 772.804 53.9715 772.922C53.633 773.04 53.2637 773.099 52.8636 773.099C52.2339 773.099 51.6728 772.95 51.1803 772.652C50.6879 772.351 50.2997 771.922 50.0156 771.363C49.7339 770.804 49.593 770.138 49.593 769.364C49.593 768.587 49.735 767.921 50.0191 767.364C50.3032 766.806 50.6915 766.377 51.1839 766.079C51.6763 765.778 52.2362 765.628 52.8636 765.628C53.2495 765.628 53.6093 765.683 53.9431 765.795C54.2793 765.904 54.5812 766.065 54.8487 766.278C55.1162 766.488 55.3375 766.746 55.5127 767.052C55.6879 767.355 55.8063 767.702 55.8678 768.092ZM59.1532 773.11C58.6419 773.11 58.1956 772.993 57.8145 772.759C57.4333 772.524 57.1374 772.196 56.9267 771.775C56.716 771.353 56.6106 770.861 56.6106 770.298C56.6106 769.732 56.716 769.237 56.9267 768.813C57.1374 768.389 57.4333 768.06 57.8145 767.826C58.1956 767.592 58.6419 767.474 59.1532 767.474C59.6646 767.474 60.1109 767.592 60.492 767.826C60.8732 768.06 61.1691 768.389 61.3798 768.813C61.5905 769.237 61.6959 769.732 61.6959 770.298C61.6959 770.861 61.5905 771.353 61.3798 771.775C61.1691 772.196 60.8732 772.524 60.492 772.759C60.1109 772.993 59.6646 773.11 59.1532 773.11ZM59.1568 772.219C59.4882 772.219 59.7628 772.131 59.9807 771.956C60.1985 771.781 60.3594 771.548 60.4636 771.256C60.5701 770.965 60.6234 770.644 60.6234 770.294C60.6234 769.946 60.5701 769.626 60.4636 769.335C60.3594 769.042 60.1985 768.806 59.9807 768.629C59.7628 768.451 59.4882 768.362 59.1568 768.362C58.823 768.362 58.546 768.451 58.3258 768.629C58.108 768.806 57.9459 769.042 57.8393 769.335C57.7352 769.626 57.6831 769.946 57.6831 770.294C57.6831 770.644 57.7352 770.965 57.8393 771.256C57.9459 771.548 58.108 771.781 58.3258 771.956C58.546 772.131 58.823 772.219 59.1568 772.219ZM62.641 773V767.545H63.6602V768.433H63.7277C63.8413 768.133 64.0272 767.898 64.2852 767.73C64.5433 767.56 64.8522 767.474 65.2121 767.474C65.5766 767.474 65.882 767.56 66.1283 767.73C66.3768 767.901 66.5603 768.135 66.6787 768.433H66.7355C66.8657 768.142 67.0729 767.91 67.357 767.737C67.641 767.562 67.9796 767.474 68.3726 767.474C68.8674 767.474 69.271 767.629 69.5835 767.94C69.8984 768.25 70.0558 768.717 70.0558 769.342V773H68.994V769.442C68.994 769.072 68.8934 768.805 68.6922 768.639C68.4909 768.473 68.2507 768.391 67.9713 768.391C67.6257 768.391 67.357 768.497 67.1652 768.71C66.9734 768.921 66.8775 769.192 66.8775 769.523V773H65.8193V769.374C65.8193 769.078 65.727 768.84 65.5423 768.661C65.3577 768.481 65.1174 768.391 64.8214 768.391C64.6202 768.391 64.4344 768.444 64.2639 768.55C64.0958 768.655 63.9597 768.8 63.8555 768.987C63.7537 769.174 63.7028 769.391 63.7028 769.637V773H62.641ZM71.2389 773V767.545H72.2581V768.433H72.3256C72.4392 768.133 72.6251 767.898 72.8831 767.73C73.1412 767.56 73.4501 767.474 73.81 767.474C74.1745 767.474 74.4799 767.56 74.7262 767.73C74.9747 767.901 75.1582 768.135 75.2766 768.433H75.3334C75.4636 768.142 75.6708 767.91 75.9548 767.737C76.2389 767.562 76.5775 767.474 76.9705 767.474C77.4653 767.474 77.8689 767.629 78.1814 767.94C78.4963 768.25 78.6537 768.717 78.6537 769.342V773H77.5919V769.442C77.5919 769.072 77.4913 768.805 77.2901 768.639C77.0888 768.473 76.8485 768.391 76.5692 768.391C76.2235 768.391 75.9548 768.497 75.7631 768.71C75.5713 768.921 75.4754 769.192 75.4754 769.523V773H74.4172V769.374C74.4172 769.078 74.3249 768.84 74.1402 768.661C73.9556 768.481 73.7153 768.391 73.4193 768.391C73.2181 768.391 73.0323 768.444 72.8618 768.55C72.6937 768.655 72.5576 768.8 72.4534 768.987C72.3516 769.174 72.3007 769.391 72.3007 769.637V773H71.2389ZM83.2921 770.738V767.545H84.3574V773H83.3134V772.055H83.2566C83.1311 772.347 82.9299 772.589 82.6529 772.783C82.3783 772.975 82.0362 773.071 81.6266 773.071C81.2762 773.071 80.9661 772.994 80.6962 772.84C80.4287 772.684 80.218 772.453 80.0641 772.148C79.9126 771.842 79.8368 771.465 79.8368 771.015V767.545H80.8986V770.887C80.8986 771.259 81.0016 771.555 81.2076 771.775C81.4135 771.995 81.681 772.105 82.0101 772.105C82.209 772.105 82.4067 772.055 82.6032 771.956C82.802 771.857 82.9666 771.706 83.0968 771.505C83.2293 771.304 83.2944 771.048 83.2921 770.738ZM86.6059 769.761V773H85.5441V767.545H86.5633V768.433H86.6307C86.7562 768.144 86.9527 767.912 87.2202 767.737C87.4901 767.562 87.8298 767.474 88.2394 767.474C88.6111 767.474 88.9366 767.553 89.216 767.709C89.4953 767.863 89.7119 768.092 89.8658 768.398C90.0197 768.703 90.0966 769.081 90.0966 769.531V773H89.0349V769.658C89.0349 769.263 88.9319 768.954 88.7259 768.732C88.5199 768.507 88.237 768.394 87.8772 768.394C87.631 768.394 87.412 768.447 87.2202 768.554C87.0308 768.661 86.8805 768.817 86.7692 769.023C86.6603 769.226 86.6059 769.473 86.6059 769.761ZM91.2807 773V767.545H92.3424V773H91.2807ZM91.8169 766.704C91.6322 766.704 91.4736 766.642 91.341 766.519C91.2108 766.394 91.1457 766.245 91.1457 766.072C91.1457 765.897 91.2108 765.747 91.341 765.624C91.4736 765.499 91.6322 765.436 91.8169 765.436C92.0015 765.436 92.159 765.499 92.2892 765.624C92.4218 765.747 92.488 765.897 92.488 766.072C92.488 766.245 92.4218 766.394 92.2892 766.519C92.159 766.642 92.0015 766.704 91.8169 766.704ZM96.0771 767.545V768.398H93.0976V767.545H96.0771ZM93.8967 766.239H94.9584V771.398C94.9584 771.604 94.9892 771.759 95.0508 771.864C95.1123 771.965 95.1916 772.035 95.2887 772.073C95.3881 772.109 95.4958 772.126 95.6119 772.126C95.6971 772.126 95.7717 772.121 95.8356 772.109C95.8995 772.097 95.9492 772.087 95.9847 772.08L96.1765 772.957C96.1149 772.981 96.0273 773.005 95.9137 773.028C95.8001 773.054 95.658 773.069 95.4876 773.071C95.2082 773.076 94.9478 773.026 94.7063 772.922C94.4648 772.818 94.2695 772.657 94.1204 772.439C93.9712 772.221 93.8967 771.948 93.8967 771.619V766.239ZM97.6828 775.031C97.5241 775.031 97.3797 775.018 97.2495 774.992C97.1193 774.969 97.0222 774.942 96.9583 774.914L97.214 774.044C97.5052 774.125 97.749 774.13 97.9455 774.062C98.1444 773.996 98.3113 773.786 98.4463 773.433L98.5776 773.071L96.5819 767.545H97.7183L99.0997 771.778H99.1565L100.538 767.545L101.685 767.556L99.4299 773.728C99.3257 774.01 99.1932 774.248 99.0322 774.442C98.8712 774.636 98.6794 774.783 98.4569 774.882C98.2344 774.982 97.9763 775.031 97.6828 775.031Z" fill="#262626"/>
<path d="M75.3 747.22C75.8336 746.758 76.2616 746.187 76.5549 745.545C76.8482 744.903 77 744.206 77 743.5C77 742.174 76.4732 740.902 75.5355 739.964C74.5979 739.027 73.3261 738.5 72 738.5C70.6739 738.5 69.4021 739.027 68.4645 739.964C67.5268 740.902 67 742.174 67 743.5C67 744.206 67.1518 744.903 67.4451 745.545C67.7384 746.187 68.1664 746.758 68.7 747.22C67.3001 747.854 66.1125 748.878 65.279 750.169C64.4455 751.46 64.0015 752.963 64 754.5C64 754.765 64.1054 755.02 64.2929 755.207C64.4804 755.395 64.7348 755.5 65 755.5C65.2652 755.5 65.5196 755.395 65.7071 755.207C65.8946 755.02 66 754.765 66 754.5C66 752.909 66.6321 751.383 67.7574 750.257C68.8826 749.132 70.4087 748.5 72 748.5C73.5913 748.5 75.1174 749.132 76.2426 750.257C77.3679 751.383 78 752.909 78 754.5C78 754.765 78.1054 755.02 78.2929 755.207C78.4804 755.395 78.7348 755.5 79 755.5C79.2652 755.5 79.5196 755.395 79.7071 755.207C79.8946 755.02 80 754.765 80 754.5C79.9985 752.963 79.5545 751.46 78.721 750.169C77.8875 748.878 76.6999 747.854 75.3 747.22V747.22ZM72 746.5C71.4067 746.5 70.8266 746.324 70.3333 745.994C69.8399 745.665 69.4554 745.196 69.2284 744.648C69.0013 744.1 68.9419 743.497 69.0576 742.915C69.1734 742.333 69.4591 741.798 69.8787 741.379C70.2982 740.959 70.8328 740.673 71.4147 740.558C71.9967 740.442 72.5999 740.501 73.1481 740.728C73.6962 740.955 74.1648 741.34 74.4944 741.833C74.8241 742.327 75 742.907 75 743.5C75 744.296 74.6839 745.059 74.1213 745.621C73.5587 746.184 72.7956 746.5 72 746.5ZM81.74 746.82C82.38 746.099 82.798 745.209 82.9438 744.256C83.0896 743.304 82.9569 742.329 82.5618 741.45C82.1666 740.571 81.5258 739.825 80.7165 739.301C79.9071 738.778 78.9638 738.5 78 738.5C77.7348 738.5 77.4804 738.605 77.2929 738.793C77.1054 738.98 77 739.235 77 739.5C77 739.765 77.1054 740.02 77.2929 740.207C77.4804 740.395 77.7348 740.5 78 740.5C78.7956 740.5 79.5587 740.816 80.1213 741.379C80.6839 741.941 81 742.704 81 743.5C80.9986 744.025 80.8593 744.541 80.5961 744.995C80.3328 745.45 79.9549 745.827 79.5 746.09C79.3517 746.176 79.2279 746.298 79.1404 746.445C79.0528 746.592 79.0045 746.759 79 746.93C78.9958 747.1 79.0349 747.268 79.1137 747.418C79.1924 747.569 79.3081 747.697 79.45 747.79L79.84 748.05L79.97 748.12C81.1754 748.692 82.1923 749.596 82.901 750.726C83.6096 751.857 83.9805 753.166 83.97 754.5C83.97 754.765 84.0754 755.02 84.2629 755.207C84.4504 755.395 84.7048 755.5 84.97 755.5C85.2352 755.5 85.4896 755.395 85.6771 755.207C85.8646 755.02 85.97 754.765 85.97 754.5C85.9782 752.965 85.5938 751.454 84.8535 750.11C84.1131 748.766 83.0413 747.633 81.74 746.82V746.82Z" fill="#262626"/>
<rect x="121" y="799" width="134" height="5" rx="2.5" fill="black"/>
</g>
<rect x="16" y="235" width="343" height="40" rx="8" fill="#F9F7FB"/>
<path d="M159.5 256H153.5V262C153.5 262.265 153.395 262.52 153.207 262.707C153.02 262.895 152.765 263 152.5 263C152.235 263 151.98 262.895 151.793 262.707C151.605 262.52 151.5 262.265 151.5 262V256H145.5C145.235 256 144.98 255.895 144.793 255.707C144.605 255.52 144.5 255.265 144.5 255C144.5 254.735 144.605 254.48 144.793 254.293C144.98 254.105 145.235 254 145.5 254H151.5V248C151.5 247.735 151.605 247.48 151.793 247.293C151.98 247.105 152.235 247 152.5 247C152.765 247 153.02 247.105 153.207 247.293C153.395 247.48 153.5 247.735 153.5 248V254H159.5C159.765 254 160.02 254.105 160.207 254.293C160.395 254.48 160.5 254.735 160.5 255C160.5 255.265 160.395 255.52 160.207 255.707C160.02 255.895 159.765 256 159.5 256Z" fill="#5600AF"/>
<path d="M170.386 261H168.909L173.182 249.364H174.636L178.909 261H177.432L173.955 251.205H173.864L170.386 261ZM170.932 256.455H176.886V257.705H170.932V256.455ZM183.755 261.182C183.028 261.182 182.386 260.998 181.829 260.631C181.272 260.259 180.837 259.737 180.522 259.062C180.208 258.384 180.051 257.583 180.051 256.659C180.051 255.742 180.208 254.947 180.522 254.273C180.837 253.598 181.274 253.078 181.835 252.71C182.395 252.343 183.043 252.159 183.778 252.159C184.346 252.159 184.795 252.254 185.125 252.443C185.458 252.629 185.712 252.841 185.886 253.08C186.064 253.314 186.202 253.508 186.301 253.659H186.414V249.364H187.755V261H186.46V259.659H186.301C186.202 259.818 186.062 260.019 185.88 260.261C185.698 260.5 185.439 260.714 185.102 260.903C184.765 261.089 184.316 261.182 183.755 261.182ZM183.937 259.977C184.475 259.977 184.929 259.837 185.301 259.557C185.672 259.273 185.954 258.881 186.147 258.381C186.34 257.877 186.437 257.295 186.437 256.636C186.437 255.985 186.342 255.415 186.153 254.926C185.964 254.434 185.683 254.051 185.312 253.778C184.941 253.502 184.483 253.364 183.937 253.364C183.369 253.364 182.895 253.509 182.517 253.801C182.142 254.089 181.859 254.481 181.67 254.977C181.484 255.47 181.392 256.023 181.392 256.636C181.392 257.258 181.486 257.822 181.676 258.33C181.869 258.833 182.153 259.235 182.528 259.534C182.907 259.83 183.376 259.977 183.937 259.977ZM193.613 261.182C192.885 261.182 192.243 260.998 191.687 260.631C191.13 260.259 190.694 259.737 190.38 259.062C190.065 258.384 189.908 257.583 189.908 256.659C189.908 255.742 190.065 254.947 190.38 254.273C190.694 253.598 191.132 253.078 191.692 252.71C192.253 252.343 192.901 252.159 193.635 252.159C194.204 252.159 194.653 252.254 194.982 252.443C195.315 252.629 195.569 252.841 195.743 253.08C195.921 253.314 196.06 253.508 196.158 253.659H196.272V249.364H197.613V261H196.317V259.659H196.158C196.06 259.818 195.92 260.019 195.738 260.261C195.556 260.5 195.296 260.714 194.959 260.903C194.622 261.089 194.173 261.182 193.613 261.182ZM193.795 259.977C194.332 259.977 194.787 259.837 195.158 259.557C195.529 259.273 195.812 258.881 196.005 258.381C196.198 257.877 196.295 257.295 196.295 256.636C196.295 255.985 196.2 255.415 196.01 254.926C195.821 254.434 195.541 254.051 195.17 253.778C194.798 253.502 194.34 253.364 193.795 253.364C193.226 253.364 192.753 253.509 192.374 253.801C191.999 254.089 191.717 254.481 191.528 254.977C191.342 255.47 191.249 256.023 191.249 256.636C191.249 257.258 191.344 257.822 191.533 258.33C191.726 258.833 192.01 259.235 192.385 259.534C192.764 259.83 193.234 259.977 193.795 259.977ZM210.777 254.227L209.572 254.568C209.496 254.367 209.385 254.172 209.237 253.983C209.093 253.79 208.896 253.631 208.646 253.506C208.396 253.381 208.076 253.318 207.686 253.318C207.152 253.318 206.707 253.441 206.35 253.688C205.998 253.93 205.822 254.239 205.822 254.614C205.822 254.947 205.943 255.21 206.186 255.403C206.428 255.597 206.807 255.758 207.322 255.886L208.618 256.205C209.398 256.394 209.979 256.684 210.362 257.074C210.744 257.46 210.936 257.958 210.936 258.568C210.936 259.068 210.792 259.515 210.504 259.909C210.22 260.303 209.822 260.614 209.311 260.841C208.799 261.068 208.205 261.182 207.527 261.182C206.636 261.182 205.9 260.989 205.316 260.602C204.733 260.216 204.364 259.652 204.208 258.909L205.481 258.591C205.602 259.061 205.832 259.413 206.169 259.648C206.51 259.883 206.955 260 207.504 260C208.129 260 208.625 259.867 208.993 259.602C209.364 259.333 209.549 259.011 209.549 258.636C209.549 258.333 209.443 258.08 209.231 257.875C209.019 257.667 208.693 257.511 208.254 257.409L206.799 257.068C206 256.879 205.413 256.585 205.038 256.188C204.667 255.786 204.481 255.284 204.481 254.682C204.481 254.189 204.619 253.754 204.896 253.375C205.176 252.996 205.557 252.699 206.038 252.483C206.523 252.267 207.072 252.159 207.686 252.159C208.549 252.159 209.227 252.348 209.72 252.727C210.216 253.106 210.568 253.606 210.777 254.227ZM212.874 261V252.273H214.215V261H212.874ZM213.556 250.818C213.295 250.818 213.069 250.729 212.88 250.551C212.694 250.373 212.601 250.159 212.601 249.909C212.601 249.659 212.694 249.445 212.88 249.267C213.069 249.089 213.295 249 213.556 249C213.817 249 214.041 249.089 214.226 249.267C214.416 249.445 214.511 249.659 214.511 249.909C214.511 250.159 214.416 250.373 214.226 250.551C214.041 250.729 213.817 250.818 213.556 250.818ZM220.114 264.455C219.466 264.455 218.909 264.371 218.443 264.205C217.977 264.042 217.589 263.826 217.279 263.557C216.972 263.292 216.727 263.008 216.546 262.705L217.614 261.955C217.735 262.114 217.888 262.295 218.074 262.5C218.26 262.708 218.513 262.888 218.835 263.04C219.161 263.195 219.587 263.273 220.114 263.273C220.818 263.273 221.4 263.102 221.858 262.761C222.316 262.42 222.546 261.886 222.546 261.159V259.386H222.432C222.333 259.545 222.193 259.742 222.011 259.977C221.833 260.208 221.576 260.415 221.239 260.597C220.905 260.775 220.455 260.864 219.886 260.864C219.182 260.864 218.549 260.697 217.989 260.364C217.432 260.03 216.991 259.545 216.665 258.909C216.343 258.273 216.182 257.5 216.182 256.591C216.182 255.697 216.339 254.919 216.654 254.256C216.968 253.589 217.405 253.074 217.966 252.71C218.527 252.343 219.174 252.159 219.909 252.159C220.477 252.159 220.928 252.254 221.261 252.443C221.599 252.629 221.856 252.841 222.034 253.08C222.216 253.314 222.356 253.508 222.455 253.659H222.591V252.273H223.886V261.25C223.886 262 223.716 262.61 223.375 263.08C223.038 263.553 222.583 263.9 222.011 264.119C221.443 264.343 220.811 264.455 220.114 264.455ZM220.068 259.659C220.606 259.659 221.061 259.536 221.432 259.29C221.803 259.044 222.085 258.689 222.279 258.227C222.472 257.765 222.568 257.212 222.568 256.568C222.568 255.939 222.474 255.384 222.284 254.903C222.095 254.422 221.815 254.045 221.443 253.773C221.072 253.5 220.614 253.364 220.068 253.364C219.5 253.364 219.027 253.508 218.648 253.795C218.273 254.083 217.991 254.47 217.801 254.955C217.616 255.439 217.523 255.977 217.523 256.568C217.523 257.174 217.618 257.71 217.807 258.176C218 258.638 218.284 259.002 218.659 259.267C219.038 259.528 219.508 259.659 220.068 259.659ZM227.602 255.75V261H226.261V252.273H227.556V253.636H227.67C227.875 253.193 228.185 252.837 228.602 252.568C229.019 252.295 229.556 252.159 230.216 252.159C230.806 252.159 231.324 252.28 231.767 252.523C232.21 252.761 232.555 253.125 232.801 253.614C233.047 254.098 233.17 254.712 233.17 255.455V261H231.829V255.545C231.829 254.86 231.651 254.326 231.295 253.943C230.939 253.557 230.45 253.364 229.829 253.364C229.401 253.364 229.019 253.456 228.681 253.642C228.348 253.828 228.085 254.098 227.892 254.455C227.699 254.811 227.602 255.242 227.602 255.75Z" fill="#5600AF"/>
<rect x="16" y="289" width="343" height="56" rx="4" fill="#F3F3F3"/>
<rect x="32" y="308" width="59" height="18" rx="4" fill="#D9D9D9"/>
<rect x="16" y="353" width="343" height="56" rx="4" fill="#F3F3F3"/>
<rect x="32" y="372" width="59" height="18" rx="4" fill="#D9D9D9"/>
<rect x="16" y="417" width="343" height="56" rx="4" fill="#F3F3F3"/>
<rect x="32" y="436" width="59" height="18" rx="4" fill="#D9D9D9"/>
<rect x="16" y="481" width="343" height="56" rx="4" fill="#F3F3F3"/>
<rect x="32" y="500" width="59" height="18" rx="4" fill="#D9D9D9"/>
<rect x="16" y="545" width="343" height="56" rx="4" fill="#F3F3F3"/>
<rect x="32" y="564" width="59" height="18" rx="4" fill="#D9D9D9"/>
<rect x="16" y="609" width="343" height="56" rx="4" fill="#F3F3F3"/>
<rect x="32" y="628" width="59" height="18" rx="4" fill="#D9D9D9"/>
<rect x="16" y="673" width="343" height="56" rx="4" fill="#F3F3F3"/>
<rect x="32" y="692" width="59" height="18" rx="4" fill="#D9D9D9"/>
<rect x="16" y="235" width="343" height="40" rx="4" fill="#D9D9D9"/>
<rect x="88" y="103" width="45" height="18" rx="4" fill="#D9D9D9"/>
<rect x="88" y="103" width="45" height="18" rx="4" fill="#D9D9D9"/>
<rect x="88" y="127" width="59" height="18" rx="4" fill="#D9D9D9"/>
<defs>
<filter id="filter0_bd" x="-20" y="709" width="415" height="123" filterUnits="userSpaceOnUse" color-interpolation-filters="sRGB">
<feFlood flood-opacity="0" result="BackgroundImageFix"/>
<feGaussianBlur in="BackgroundImage" stdDeviation="10"/>
<feComposite in2="SourceAlpha" operator="in" result="effect1_backgroundBlur"/>
<feColorMatrix in="SourceAlpha" type="matrix" values="0 0 0 0 0 0 0 0 0 0 0 0 0 0 0 0 0 0 127 0"/>
<feOffset dy="-0.5"/>
<feColorMatrix type="matrix" values="0 0 0 0 0 0 0 0 0 0 0 0 0 0 0 0 0 0 0.3 0"/>
<feBlend mode="normal" in2="effect1_backgroundBlur" result="effect2_dropShadow"/>
<feBlend mode="normal" in="SourceGraphic" in2="effect2_dropShadow" result="shape"/>
</filter>
<clipPath id="clip0">
<rect width="375" height="44" fill="white"/>
</clipPath>
</defs>
</svg>
