<svg width="687" height="649" viewBox="0 0 687 649" fill="none" xmlns="http://www.w3.org/2000/svg">
<g clip-path="url(#clip0)">
<rect width="687" height="649" fill="white"/>
<g filter="url(#filter0_d)">
<circle cx="191.468" cy="186.468" r="171.16" transform="rotate(-18.951 191.468 186.468)" fill="#1D1D1D"/>
<circle cx="191.468" cy="186.468" r="166.881" transform="rotate(-18.951 191.468 186.468)" stroke="white" stroke-width="8.55798"/>
</g>
<g clip-path="url(#clip1)">
<path d="M139.751 294.192C136.756 285.468 139.162 279.765 146.971 277.083C148.707 276.487 150.376 276.191 151.98 276.192C153.583 276.194 154.472 276.448 154.646 276.954C154.762 277.292 154.76 277.778 154.641 278.411C154.521 279.045 154.353 279.399 154.137 279.473C154.088 279.489 153.783 279.445 153.222 279.342C152.661 279.239 151.902 279.203 150.943 279.236C149.983 279.268 148.998 279.458 147.986 279.806C144.925 280.857 143.034 282.45 142.311 284.583C141.589 286.718 141.794 289.435 142.928 292.737C145.27 299.558 149.14 302.042 154.539 300.188C156.443 299.534 157.943 298.844 159.042 298.116L156.534 290.813L152.304 292.266C151.823 292.431 151.457 292.153 151.209 291.43L151.01 290.851C150.762 290.128 150.879 289.684 151.361 289.518L157.688 287.346C158.411 287.098 158.896 287.335 159.144 288.058L162.434 297.639C163.03 299.374 160.64 301.165 155.267 303.01C147.82 305.567 142.648 302.628 139.751 294.192Z" fill="white"/>
<path d="M166.73 298.022L162.372 285.333C161.868 283.864 161.447 282.835 161.112 282.25C160.645 281.44 160.4 280.999 160.375 280.927C160.276 280.638 160.432 280.349 160.845 280.059C161.257 279.769 161.59 279.58 161.843 279.494C162.096 279.407 162.279 279.371 162.392 279.386C162.505 279.401 162.622 279.449 162.744 279.528C162.865 279.608 162.968 279.693 163.055 279.785C163.14 279.877 163.238 280.006 163.349 280.17C163.459 280.333 163.551 280.464 163.624 280.56C163.697 280.656 163.788 280.8 163.894 280.992C164.001 281.185 164.078 281.313 164.127 281.377C164.784 279.13 165.871 277.747 167.39 277.226C168.064 276.994 168.628 276.948 169.081 277.089C169.533 277.231 169.83 277.505 169.971 277.915C170.111 278.325 170.185 278.778 170.194 279.273C170.203 279.77 170.111 280.05 169.918 280.116C169.821 280.15 169.563 280.164 169.145 280.16C168.725 280.156 168.257 280.242 167.739 280.42C167.221 280.598 166.748 280.97 166.322 281.533C165.896 282.098 165.613 282.605 165.472 283.057L165.224 283.749L169.768 296.98C169.95 297.51 169.558 297.941 168.594 298.272L168.449 298.322C167.484 298.652 166.912 298.553 166.73 298.022Z" fill="white"/>
<path d="M178.935 292.256C176.95 291.186 175.406 289.042 174.301 285.825C173.196 282.608 173.069 279.923 173.921 277.772C174.771 275.62 176.51 274.093 179.138 273.191C184.247 271.437 187.882 273.705 190.042 279.995C190.116 280.212 190.075 280.564 189.918 281.048C189.761 281.533 189.574 281.812 189.357 281.887L177.934 285.809C178.765 287.76 179.787 289.052 181.002 289.686C182.216 290.32 183.715 290.331 185.498 289.718C187.138 289.155 188.512 288.252 189.621 287.009C189.996 286.611 190.207 286.404 190.256 286.387C190.497 286.304 190.85 286.453 191.318 286.831C191.785 287.21 192.059 287.52 192.142 287.76C192.308 288.242 191.824 288.974 190.693 289.955C189.561 290.937 188.14 291.721 186.429 292.309C183.417 293.344 180.919 293.327 178.935 292.256ZM186.439 279.98C185.131 276.172 183.031 274.764 180.14 275.757C177.03 276.825 175.997 279.308 177.04 283.207L186.439 279.98Z" fill="white"/>
<path d="M197.698 285.813C195.714 284.743 194.169 282.599 193.065 279.382C191.96 276.165 191.833 273.48 192.685 271.329C193.535 269.177 195.274 267.65 197.901 266.748C203.011 264.994 206.645 267.262 208.805 273.552C208.88 273.769 208.838 274.121 208.681 274.605C208.525 275.09 208.338 275.369 208.121 275.444L196.698 279.366C197.53 281.317 198.552 282.609 199.766 283.243C200.981 283.877 202.48 283.887 204.263 283.275C205.902 282.712 207.277 281.809 208.385 280.566C208.76 280.168 208.972 279.961 209.02 279.944C209.262 279.861 209.615 280.01 210.082 280.388C210.549 280.767 210.824 281.077 210.907 281.317C211.072 281.799 210.588 282.531 209.457 283.512C208.325 284.494 206.905 285.278 205.194 285.865C202.18 286.901 199.682 286.884 197.698 285.813ZM205.203 273.537C203.896 269.729 201.795 268.321 198.904 269.314C195.795 270.382 194.762 272.865 195.804 276.764L205.203 273.537Z" fill="white"/>
<path d="M215.173 281.388L210.816 268.699C210.311 267.23 209.891 266.201 209.556 265.615C209.089 264.806 208.843 264.365 208.819 264.293C208.719 264.004 208.876 263.714 209.289 263.424C209.701 263.135 210.034 262.946 210.287 262.859C210.539 262.773 210.722 262.737 210.836 262.751C210.948 262.767 211.065 262.815 211.187 262.893C211.309 262.973 211.412 263.059 211.498 263.151C211.584 263.242 211.681 263.371 211.792 263.535C211.902 263.699 211.994 263.83 212.067 263.925C212.141 264.022 212.231 264.166 212.338 264.358C212.444 264.551 212.521 264.679 212.57 264.742C213.565 262.38 215.056 260.858 217.044 260.176C219.032 259.493 220.729 259.49 222.132 260.166C223.537 260.843 224.553 262.097 225.182 263.928L229.49 276.473C229.672 277.003 229.281 277.434 228.316 277.765L228.171 277.815C227.207 278.145 226.635 278.046 226.453 277.516L222.244 265.26C221.864 264.151 221.248 263.399 220.398 263.004C219.549 262.609 218.532 262.614 217.353 263.019C215.617 263.615 214.388 264.98 213.667 267.114L218.21 280.345C218.392 280.875 218 281.306 217.037 281.637L216.892 281.687C215.929 282.017 215.355 281.918 215.173 281.388Z" fill="white"/>
<path d="M232.973 272.852C232.783 272.297 232.829 271.527 233.11 270.541C233.391 269.556 233.725 268.997 234.111 268.864C234.256 268.814 234.614 268.84 235.187 268.94C236.972 269.27 238.574 269.191 239.997 268.703C242.262 267.925 243.093 266.656 242.489 264.897C242.224 264.126 241.639 263.6 240.733 263.317C239.828 263.036 238.795 262.871 237.634 262.825C236.473 262.779 235.298 262.671 234.108 262.501C232.918 262.33 231.775 261.827 230.68 260.99C229.584 260.154 228.758 258.923 228.199 257.296C227.64 255.669 227.596 254.128 228.067 252.674C228.913 250.039 230.975 248.159 234.253 247.034C236.084 246.405 237.718 246.141 239.153 246.24C240.589 246.34 241.413 246.703 241.628 247.329C241.81 247.86 241.806 248.596 241.618 249.536C241.429 250.477 241.13 251.018 240.72 251.158C240.623 251.191 240.378 251.182 239.982 251.129C238.87 251.026 237.681 251.192 236.415 251.626C235.149 252.061 234.344 252.58 233.999 253.183C233.654 253.787 233.594 254.414 233.818 255.065C234.041 255.715 234.601 256.169 235.498 256.427C236.395 256.685 237.415 256.833 238.56 256.871C239.704 256.91 240.878 257.011 242.08 257.178C243.282 257.345 244.431 257.846 245.526 258.682C246.622 259.518 247.428 260.69 247.945 262.196C248.462 263.702 248.67 265.072 248.569 266.306C248.467 267.54 248.11 268.599 247.497 269.483C246.305 271.187 244.551 272.435 242.237 273.23C239.923 274.024 237.862 274.342 236.056 274.18C234.249 274.016 233.222 273.575 232.973 272.852Z" fill="#8AC640"/>
<path d="M254.244 266.296C252.175 265.134 250.598 262.975 249.514 259.818C248.43 256.661 248.349 253.994 249.272 251.818C250.196 249.641 252.091 248.061 254.96 247.076C257.829 246.091 260.289 246.175 262.343 247.33C264.396 248.484 265.964 250.64 267.048 253.797C268.132 256.955 268.221 259.625 267.315 261.808C266.407 263.993 264.52 265.577 261.651 266.562C258.782 267.547 256.314 267.458 254.244 266.296ZM254.942 257.973C256.205 261.649 257.951 263.104 260.18 262.338C262.408 261.573 262.893 259.352 261.631 255.677C260.369 252.002 258.622 250.547 256.394 251.312C254.164 252.077 253.681 254.298 254.942 257.973Z" fill="#8AC640"/>
<path d="M274.14 259.626C272.105 258.561 270.526 256.395 269.405 253.128C268.283 249.863 268.192 247.146 269.131 244.978C270.071 242.81 272.131 241.18 275.313 240.087C276.783 239.582 278.227 239.336 279.646 239.347C281.064 239.359 281.906 239.75 282.171 240.521C282.295 240.883 282.239 241.522 282.001 242.438C281.763 243.356 281.5 243.863 281.211 243.962C281.114 243.996 280.868 243.986 280.473 243.933C279.23 243.767 277.995 243.894 276.766 244.317C275.536 244.739 274.75 245.507 274.404 246.623C274.06 247.738 274.212 249.235 274.857 251.115C275.503 252.995 276.287 254.281 277.212 254.974C278.136 255.667 279.232 255.796 280.497 255.362C281.763 254.927 282.89 254.23 283.882 253.269C284.217 252.992 284.41 252.845 284.457 252.829C284.82 252.704 285.345 252.922 286.036 253.479C286.725 254.038 287.146 254.533 287.294 254.966C287.443 255.399 287.313 255.889 286.908 256.432C286.501 256.976 285.954 257.46 285.265 257.885C283.838 258.752 282.692 259.335 281.824 259.633C278.738 260.694 276.178 260.691 274.14 259.626Z" fill="#8AC640"/>
<path d="M290.282 255.195L281.692 230.178C281.427 229.407 282.017 228.773 283.463 228.276L284.476 227.928C285.923 227.432 286.778 227.57 287.043 228.341L291.959 242.657L292.115 242.644L294.244 234.598C294.398 234.033 295.056 233.552 296.213 233.155L297.551 232.695C298.901 232.232 299.637 232.18 299.761 232.542C299.828 232.736 299.802 233.014 299.684 233.377L297.117 242.26L306.212 249.564C306.521 249.835 306.704 250.055 306.762 250.224C306.886 250.585 306.261 251.002 304.888 251.473L303.369 251.995C302.189 252.4 301.386 252.42 300.964 252.053L293.084 245.464L292.952 245.55L295.633 253.359C295.898 254.13 295.308 254.764 293.862 255.261L292.848 255.608C291.401 256.104 290.547 255.967 290.282 255.195Z" fill="#8AC640"/>
</g>
<g clip-path="url(#clip2)">
<path d="M112.527 177.52C108.336 181.587 98.7406 196.715 97.2693 200.726C95.6999 204.771 93.2336 200.14 93.1845 191.063C93.0854 183.757 95.5119 172.954 102.099 162.147C105.975 155.886 115.646 145.444 121.619 139.229C122.82 137.94 139.073 123.376 154.648 113.536C155.984 112.639 153.726 116.592 153.774 118.328C153.783 126.651 113.89 176.065 113.89 176.065L112.527 177.52Z" fill="#010101"/>
<path d="M215.025 242.789C217.724 247.778 217.075 248.439 211.823 251.01C206.57 253.581 201.845 252.902 199.904 252.035C197.962 251.167 196.626 248.23 197.154 244.982C197.43 242.914 198.11 242.024 197.86 239.699C197.643 237.473 197.867 236.848 197.99 235.93C198.146 235.109 198.009 234.389 196.458 229.554C194.907 224.718 191.713 215.735 190.891 211.745C190.035 207.657 208.941 207.519 208.941 207.519C208.941 207.519 208.355 218.895 208.119 221.715C207.882 224.536 209.595 229.206 209.932 230.186C210.268 231.166 210.549 233.26 210.289 233.459C210.028 233.658 212.177 235.769 212.094 237.441C212.173 238.948 214.658 242.039 215.025 242.789Z" fill="#010101"/>
<path d="M170.041 90.7212C168.174 87.1992 166.238 79.6462 166.618 78.2016C167.924 74.0278 180.726 69.1943 184.816 72.1718C186.598 73.5319 187.913 77.6818 188.626 80.3953C189.339 83.1084 190.604 89.0282 191.146 90.9245C191.519 92.3302 178.049 99.3653 173.634 96.7181C172.415 96.0414 170.041 90.7212 170.041 90.7212Z" fill="#010101"/>
<path d="M247.042 221.167C254.501 223.427 259.376 222.629 262.953 223.154C266.529 223.68 266.789 226.987 261.995 229.619C258.148 231.816 251.142 232.469 246.83 233.949C242.517 235.43 233.081 239.218 229.927 238.329C226.281 237.281 226.242 233.021 226.242 233.021C226.286 230.596 226.597 225.12 224.663 221.402C222.729 217.684 221.204 215.797 218.489 212.676C215.774 209.555 211.634 201.007 212.838 200.045C214.042 199.084 213.818 199.709 215.717 199.495C217.615 199.281 219.777 199.196 223.599 197.884C227.422 196.571 231.433 194.536 232.803 193.737C234.172 192.939 235.247 192.24 235.8 195.447C236.353 198.653 236.835 204.842 238.251 209.286C239.668 213.73 241.418 218.826 242.015 219.607C242.611 220.388 245.104 220.628 247.042 221.167Z" fill="#010101"/>
<path d="M181.246 97.8298C173.663 110.842 153.663 120.558 126.8 143.148C119.904 148.911 101.866 165.294 100.034 176.551C113.785 160.764 124.833 172.199 131.017 185.742C136.8 198.437 145.722 203.043 162.444 196.862C179.656 190.514 188.414 198.791 197.288 209.001C191.017 160.428 202.886 146.493 209.831 135.453C224.529 111.891 189.412 91.3006 181.246 97.8298Z" fill="#8AC640"/>
<path d="M181.246 97.8297C158.47 115.73 133.664 126.767 109.938 155.621C104.298 162.487 92.6379 177.665 96.2599 197.786C103.063 181.865 123.196 157.861 150.932 137.491C164.93 127.206 175.286 120.035 187.351 109.867C184.218 103.93 183.376 101.48 181.246 97.8297Z" fill="#8AC640"/>
<path d="M232.714 140.194C232.714 140.194 233.039 147.204 230.022 150.541C230.022 150.541 227.615 152.463 221.083 151.31C219.213 150.966 216.994 148.332 216.754 147.318C216.045 144.932 217.145 143.35 217.145 143.35C217.145 143.35 217.805 140.165 219.7 139.624C221.596 139.082 224.833 138.299 225.51 137.08C226.055 135.798 231.8 136.893 232.714 140.194Z" fill="#010101"/>
<path d="M171.563 92.2807C171.563 92.2807 172.887 97.4138 173.278 100.785C173.382 101.407 170.543 102.71 168.689 104.333C176.844 114.68 201.605 106.068 202.854 99.1753C200.916 98.636 197.207 98.0466 195.536 97.9634C193.863 97.8798 193.995 97.9443 192.955 95.234C191.915 92.5231 189.968 87.4947 189.301 86.1899C188.634 84.8849 173.443 90.101 171.563 92.2807Z" fill="#010101"/>
<path d="M172.542 91.9441C172.542 91.9441 173.518 94.7862 174.166 97.6311C174.506 98.9387 174.677 99.7562 174.818 100.804C174.922 101.426 179.159 102.599 181.923 107.457C190.228 116.328 199.323 107.399 202.115 100.853C200.176 100.313 197.123 99.7178 193.78 99.5513C192.107 99.4678 192.356 97.9586 191.316 95.2482C190.276 92.5379 188.504 88.654 187.803 87.2514C187.102 85.849 174.423 89.7641 172.542 91.9441Z" fill="#F0EFEF"/>
<path d="M171.562 92.2809C171.562 92.2809 172.07 94.079 172.483 96.2376C174.194 97.0739 176.466 98.2661 178.11 98.9067C179.262 99.3882 181.384 98.5499 183.344 97.8766C185.108 97.271 186.743 96.9284 187.295 96.3011C188.594 94.9783 190.175 92.2447 190.944 90.3368C190.241 88.6065 189.571 86.974 189.204 86.2233C188.633 84.8851 173.443 90.1011 171.562 92.2809Z" fill="#010101"/>
<path d="M183.038 96.6665C181.862 97.0705 180.456 97.444 179.311 97.6178C178.787 97.6884 178.196 97.5626 177.737 97.501C176.882 97.2463 175.994 96.8944 175.009 96.5749C173.037 95.9376 172.703 95.285 172.603 94.9915C171.169 88.5814 168.503 83.6904 168.503 83.6904C168.503 83.6904 166.908 81.2797 170.396 79.3149C173.885 77.35 176.105 76.4783 176.105 76.4783C176.105 76.4783 178.458 75.6706 182.353 75.2094C186.312 74.6167 186.535 77.4986 186.535 77.4986C186.535 77.4986 187.437 82.9954 190.243 88.9344C190.344 89.2279 190.482 89.9475 189.317 91.662C188.281 93.1133 187.573 94.5611 186.563 95.1275C185.552 95.6941 184.214 96.2629 183.038 96.6665Z" fill="#010101"/>
<path d="M175.231 73.9299C168.763 76.1508 168.094 78.3524 166.905 80.9519C166.682 81.5762 167.985 84.4157 170.825 90.4521L171.707 90.1493C171.707 90.1493 170.513 88.587 169.904 86.4954C169.296 84.4039 169.722 84.3674 169.259 83.9782C168.665 83.5243 167.545 82.8135 168.973 81.228C170.4 79.6423 173.75 80.4639 177.116 79.4178C180.414 78.1756 182.65 75.4358 184.751 75.8102C186.851 76.1842 186.404 77.4334 186.214 78.1563C186.024 78.8789 186.446 78.5144 187.251 80.5391C188.056 82.5634 188.073 84.5296 188.073 84.5296L188.955 84.2268C187.39 77.7527 186.84 74.8741 186.377 74.4847C183.971 72.9009 181.733 71.8066 175.231 73.9299Z" fill="#010101"/>
<path d="M232.815 140.489C232.815 140.489 233.006 147.106 230.086 150.409C229.168 150.287 229.064 149.665 228.075 149.018C227.778 148.792 227.024 148.831 226.63 148.638C226.235 148.445 226.165 147.921 225.54 147.698C225.013 147.441 224.82 147.836 224.327 147.676C223.801 147.419 223.534 146.963 223.14 146.77C222.876 146.641 222.058 146.813 221.795 146.683C221.137 146.362 216.522 146.96 216.382 145.913C216.268 144.308 216.682 142.961 216.682 142.961C216.682 142.961 217.602 139.577 219.497 139.036C221.393 138.495 223.292 138.281 223.969 137.063C224.711 135.712 232.033 137.252 232.815 140.489Z" fill="#010101"/>
<path d="M205.201 101.546C205.201 101.546 210.87 97.9558 216.464 100.527C222.092 103.196 223.547 108.393 223.35 111.967C224.866 112.871 228.037 115.725 228.014 120.444C236.367 123.711 236.419 133.116 232.555 140.687C232.555 140.687 229.433 136.062 223.844 137.653C223.367 135.626 217.536 135.874 218.236 129.937C214.209 130.334 213.433 127.752 211.768 124.818C210.201 121.85 205.201 101.546 205.201 101.546Z" fill="#010101"/>
<path d="M203.889 105.064C203.889 105.064 209.798 98.982 215.425 101.651C221.053 104.32 221.424 109.232 221.227 112.806C222.743 113.709 226.536 116.461 226.448 121.311C226.491 122.392 224.335 123.132 223.641 126.219C226.787 122.618 229.44 122.365 231.297 124.904C234.184 128.843 232.963 135.179 231.326 139.027C231.293 138.929 231.161 138.865 231.127 138.767C231.241 140.372 231.726 143.382 229.863 147.528C228.931 149.601 227.688 149.808 225.887 149.988C223.759 150.171 222.77 149.524 219.521 148.997C217.65 148.654 218.162 147.272 217.859 146.391C217.792 146.195 217.887 145.833 218.047 145.34C218.074 144.783 218.393 143.798 218.972 142.612C218.972 142.612 219.641 140.411 221.537 139.869C223.432 139.328 225.258 138.263 225.58 137.605C224.402 134.175 220.448 135.422 219.801 129.071C219.798 128.744 220.12 128.085 221.62 127.351C219.1 127.668 217.988 127.94 215.784 126.945C214.238 126.271 212.885 125.201 211.984 123.539C210.354 120.702 203.889 105.064 203.889 105.064Z" fill="#F0EFEF"/>
<path d="M181.09 105.991C180.233 105.408 175.849 102.532 169.528 102.949C167.693 103.031 167.087 104.773 165.758 106.325C165.166 106.2 162.674 105.96 161.733 107.049C160.793 108.139 160.245 109.095 159.237 109.988C158.547 109.896 156.98 110.435 155.874 111.362C154.734 112.192 153.077 113.747 152.09 116.934C152.361 121.552 173.236 110.878 173.236 110.878L181.09 105.991Z" fill="#010101"/>
<path d="M181.287 105.923C177.78 105.922 177.025 102.128 169.865 103.929C168.459 104.302 167.947 105.683 167.203 106.705C167.861 107.027 168.62 107.643 169.183 108.326C167.965 107.649 165.959 106.913 164.29 107.157C162.719 107.369 162.109 108.783 160.81 110.106C161.205 110.298 161.668 110.687 162.261 111.141C160.586 110.731 159.506 110.773 157.879 112.098C156.739 112.927 154.66 114.847 153.706 118.132C153.977 122.751 173.335 110.844 173.335 110.844L181.287 105.923Z" fill="#8AC640"/>
<path d="M200.25 101.165C200.25 101.165 199.879 100.087 199.445 99.1408C199.378 98.9449 198.426 98.7238 198.358 98.528L198.095 98.3989C198.095 98.3989 199.36 96.9785 200.705 97.065C202.113 97.0194 203.371 98.45 203.371 98.45C205.356 96.8922 205.855 97.7069 207.337 98.5126C209.521 97.2146 210.117 97.9957 212.328 99.6473C212.328 99.6473 210.463 99.959 207.235 101.724C204.07 103.358 200.216 101.067 200.25 101.165Z" fill="#010101"/>
<path d="M199.689 100.809C199.689 100.809 200.108 100.117 199.878 100.086C200.754 99.1283 201.989 97.9378 203.315 99.5642C205.3 98.0059 205.964 98.9832 207.446 99.7896C209.752 97.5733 210.486 99.0736 210.918 99.6923C210.036 99.9952 208.796 100.531 207.099 101.332C203.935 102.967 199.557 100.745 199.689 100.809Z" fill="#8AC640"/>
<path d="M165.527 109.801C165.527 109.801 171.786 109.842 176.389 107.933C180.959 105.926 188.86 102.775 194.047 103.842C194.047 103.842 197.919 100.759 202.405 100.424C206.892 100.088 216.861 104.554 217.165 112.776C217.137 113.334 216.132 114.555 214.83 115.55C214.83 115.55 216.759 118.612 216.329 121.828C215.865 124.945 214.577 131.084 216.902 138.174C217.208 139.384 217.853 141.901 218.061 143.144C210.315 145.476 197.579 146.671 186.082 150.838C185.743 149.531 185.571 148.713 185.232 147.405L185.526 147.305C183.827 144.272 183.059 142.673 181.629 140.425C177.098 139.352 172.235 137.954 167.12 133.904C162.102 129.82 165.527 109.801 165.527 109.801Z" fill="#010101"/>
<path d="M221.528 149.733C221.528 149.733 235.075 169.403 231.051 180.974C231.051 180.974 233.575 184.818 232.673 190.168C232.954 192.262 233.07 194.195 233.449 196.255C234.968 204.827 233.989 208.997 237.877 222.234L231.963 224.155C231.963 224.155 228.046 214.982 224.272 210.691C222.121 208.253 216.202 206.012 215.086 202.123C214.272 199.115 214.019 196.463 217.671 190.827C216.111 185.008 208.576 181.569 202.19 160.098L221.528 149.733Z" fill="#010101"/>
<path d="M219.461 149.456C224.461 158.914 233.168 172.468 229.092 181.974C229.857 183.246 230.726 185.138 231.108 187.527C231.316 188.77 231.361 190.179 231.343 191.719C231.17 194.407 231.956 197.972 232.369 200.131C233.888 208.703 234.022 209.095 237.91 222.331L231.996 224.252C231.996 224.252 228.079 215.08 224.305 210.789C222.154 208.35 218.862 206.742 217.354 202.987C216.149 200.114 216.187 193.527 221.155 192.041C216.789 180.283 212.108 184.52 202.158 160.328L219.461 149.456Z" fill="#F0EFEF"/>
<path d="M165.527 109.801C165.527 109.801 167.919 109.746 170.338 109.135C172.757 108.523 175.238 107.452 177.458 106.58C182.028 104.573 188.524 101.794 193.809 102.828C193.809 102.828 195.99 101.203 198.703 100.49C199.913 100.184 201.426 100.76 202.932 100.682C207.614 100.279 214.187 106.019 214.546 113.127C214.518 113.685 212.978 113.666 211.578 114.695C212.343 115.966 213.616 119.035 213.192 122.905C212.67 126.809 211.995 131.862 215.213 139.96C204.755 143.003 199.913 143.899 189.552 146.908C187.425 143.585 185.592 140.161 184.855 138.332C185.991 137.175 186.573 136.319 187.248 134.772C184.476 136.272 183.233 136.479 181.132 136.105C179.031 135.731 174.818 133.671 172.544 132.152C172.28 132.023 172.313 135.627 169.897 136.567C168.577 135.595 171.056 130.69 169.899 129.554C165.733 125.397 165.527 109.801 165.527 109.801Z" fill="#F0EFEF"/>
<path d="M217.451 141.053C217.451 141.053 218.858 144.514 219.161 145.396C219.498 146.376 221.292 149.047 221.86 150.385C221.422 152.617 218.165 158.447 210.177 162.943C202.354 167.601 186.639 158.207 186.639 158.207C186.496 156.832 186.197 152.771 186.21 150.575C186.241 150.346 186.269 149.788 186.201 149.593C186.646 148.016 217.451 141.053 217.451 141.053Z" fill="#010101"/>
<path d="M215.397 142.087C216.238 144.537 217.235 146.167 218.068 147.634C219.534 150.308 220.957 151.901 221.597 153.763C223.548 159.447 215.764 161.024 209.558 163.374C201.736 168.033 190.039 157.259 190.039 157.259C189.853 154.802 189.37 152.12 189.511 149.661C189.205 148.451 188.897 146.914 188.759 146.194C200.716 142.089 209.379 139.881 214.448 138.688C215.014 139.698 215.458 141.628 215.397 142.087Z" fill="#F0EFEF"/>
<path d="M210.329 157.961C210.329 157.961 201.164 148.18 186.759 156.961C186.636 168.726 185.777 182.497 193.487 194.42C191.767 199.941 188.884 203.67 191.677 211.804C194.47 219.938 195.334 221.176 195.334 221.176L207.002 217.827C207.002 217.827 209.077 211.747 208.763 206.047C208.651 204.442 208.134 201.662 206.797 198.725C206.987 198.002 208.182 196.059 207.47 193.345C207.47 193.345 212.046 188.487 212.824 180.222C213.641 172.709 210.939 167.393 210.329 157.961Z" fill="#010101"/>
<path d="M210.329 157.961C209.665 156.984 202.11 147.746 188.683 155.862C187.964 181.526 194.331 189.858 197.017 193.536C193.759 202.872 191.651 205.348 197.943 219.841L205.587 217.216C207.197 210.419 207.274 208.091 204.946 200.674C204.846 200.38 204.071 201.632 203.623 202.881C203.168 199.641 204.632 198.481 205.267 196.182C205.585 195.196 205.671 193.851 205.133 192.283C210.412 185.322 210.974 178.664 210.391 172.181C210.155 167.662 209.204 160.428 210.329 157.961Z" fill="#F0EFEF"/>
<path d="M180.704 150.494C180.704 150.494 183.384 149.683 186.006 149.659C188.529 149.669 188.697 150.159 189.916 150.837C191.135 151.514 193.795 152.244 193.908 153.848C193.981 154.7 193.559 155.064 193.108 155.985C192.915 156.38 191.566 159.473 191.177 159.935C190.951 160.231 190.66 160.661 190.433 160.957C190.207 161.254 189.527 162.145 189.3 162.442C188.488 163.269 187.903 163.799 186.791 164.07C186.791 164.07 184.307 164.814 182.167 163.686C182.167 163.686 181.702 162.969 181.959 162.443C181.959 162.443 179.295 161.386 178.304 160.412C177.312 159.438 176.739 157.772 176.829 156.755C176.722 155.805 179.702 152.043 180.704 150.494Z" fill="#010101"/>
<path d="M215.898 245.009L216.445 247.561C216.445 247.561 215.933 248.941 209.333 251.098C202.635 253.288 200.165 251.836 199.207 250.96L197.94 248.546C197.94 248.546 198.575 246.247 198.869 246.146C201.092 245.601 209.452 246.018 214.818 245.051C215.306 244.884 215.471 245.046 215.898 245.009Z" fill="#010101"/>
<path d="M228.392 235.132C228.762 236.21 228.664 236.243 229.034 237.322C230.513 237.8 233.622 237.28 239.174 235.264C247.241 232.275 255.696 232.33 264.369 227.598L263.862 225.801L262.946 226.006L229.402 234.565L228.392 235.132Z" fill="#010101"/>
<path d="M236.724 236.105C237.508 235.836 238.292 235.567 239.174 235.264C244.399 233.251 249.801 232.711 255.292 231.154C258.1 230.08 261.393 228.182 260.392 226.225L231.752 233.43C230.725 235.864 232.537 236.995 236.724 236.105Z" fill="#010101"/>
<path d="M190.607 205.816C191.691 206.101 198.881 207.577 208.415 203.755C208.858 205.685 210.201 209.277 208.076 217.128C206.997 221.004 207.019 227.132 209.017 234.225C209.654 235.759 211.007 236.828 210.537 239.29C211.366 240.429 213.809 242.439 215.132 243.738C216.454 245.037 217.452 246.667 212.292 248.548C207.033 250.463 198.305 252.803 198.068 248.283C197.916 245.925 198.808 243.099 198.701 242.149C198.594 241.2 197.685 238.554 198.745 236.218C198.533 230.813 196.428 226.277 194.62 221.968C192.548 217.53 189.926 210.213 190.607 205.816Z" fill="#010101"/>
<path d="M172.296 122.814C176.058 111.115 167.62 105.686 157.222 111.776C153.017 114.206 149.586 118.89 151.243 124.675C149.84 125.376 146.576 126.716 146.996 133.364C147.337 138.506 146.954 139.623 145.507 142.749C144.609 144.92 147.355 147.812 149.274 149.892C155.795 157.075 167.236 154.023 176.97 157.802C179.282 156.241 180.952 152.491 181.097 150.359C172.136 145 172.498 141.589 168.604 138.544C171.011 136.621 175.971 130.646 172.296 122.814Z" fill="#010101"/>
<path d="M170.722 122.698C170.911 121.975 171.16 120.465 171.286 119.874C171.351 119.742 173.068 121.234 173.133 121.103C174.298 115.882 172.83 109.374 169.59 109.829C168.87 109.967 167.496 110.111 166.282 110.088C164.087 110.075 162.323 110.681 159.389 112.346C155.346 114.61 152.111 119.227 153.659 123.736C153.76 124.03 157.1 123.868 159.228 127.192C157.05 125.638 153.728 124.259 151.363 127.263C148.836 130.431 152.117 134.563 149.488 140.944C148.589 143.115 149.459 145.007 152.372 148.389C157.041 153.689 170.239 152.881 178.825 156.507C180.157 155.282 180.696 153.344 181.077 151.899C175.085 148.807 171.84 145.101 169.49 142.402C166.676 139.314 164.206 137.862 159.833 136.295C161.833 136.375 163.441 136.59 164.426 136.909C165.51 137.194 166.817 136.855 167.859 136.059C171.57 133.143 171.805 126.488 170.722 122.698Z" fill="#F0EFEF"/>
<path d="M213.892 109.627C214.876 113.452 211.493 112.533 209.788 112.351C206.41 112.087 203.167 112.214 199.737 113.392C196.307 114.57 191.997 116.378 188.512 118.671C183.725 121.958 182.123 122.399 179.367 122.03C176.578 121.563 171.385 119.84 171.385 119.84C171.385 119.84 171.623 120.854 173.041 121.792C174.853 122.922 178.369 123.907 182.628 123.868C184.692 123.817 186.027 122.919 187.559 121.956C195.541 116.805 204.618 113.249 213.976 115.295C214.435 115.356 215.605 114.297 215.891 113.213C216.237 111.671 213.892 109.627 213.892 109.627Z" fill="#010101"/>
<path d="M182.122 162.277C183.074 162.499 184.155 162.456 185.535 162.968C185.535 162.968 184.653 163.271 184.127 163.013C183.536 162.888 182.253 162.342 182.122 162.277Z" fill="#0A1825"/>
<path d="M183.759 74.836C183.162 74.055 180.467 73.2269 175.469 74.943C170.079 76.7939 169.083 78.9985 169.288 79.914C169.389 80.208 170.074 83.4792 170.413 84.7865C170.413 84.7865 170.952 86.3545 171.857 88.6728C172.493 90.2072 173.188 90.9545 174.091 92.9456C175.027 95.0339 176.086 96.204 177.77 97.5983C178.361 97.7235 178.854 97.8834 179.378 97.8132C181.473 97.5318 184.936 96.4522 186.63 95.323C187.607 94.659 188.34 92.3257 188.062 90.5586C187.747 88.3663 187.634 86.7612 187.295 85.4539C187.053 84.1131 186.175 81.2368 186.004 80.419C185.558 78.1623 183.924 74.9983 183.759 74.836Z" fill="#F0EFEF"/>
<path d="M215.062 199.501C215.062 199.501 221.03 199.971 233.196 193.603C233.196 193.603 235.829 213.076 240.625 221.618C240.625 221.618 243.098 223.399 256.994 223.666C256.994 223.666 262.954 223.154 263.7 225.966C263.7 225.966 264.098 226.486 257.367 228.578C250.635 230.67 243.959 231.648 239.549 233.162C235.138 234.677 230.502 236.488 229.28 235.483C227.995 234.61 228.029 231.202 228.697 229C229.431 226.667 228.567 225.429 227.325 222.131C224.035 213.51 214.275 206.783 215.062 199.501Z" fill="#010101"/>
<path d="M214.556 201.538C214.206 202.753 216.268 206.208 218.494 209.497C220.719 212.787 223.616 214.203 226.158 220.012C228.667 225.724 229.034 226.475 228.546 230.477C228.057 234.478 228.645 237.783 234.46 235.896C240.276 234.009 243.345 232.735 249.528 231.599C255.711 230.462 257.87 230.049 260.936 228.449C264.002 226.848 264.318 225.534 262.61 225.025C260.901 224.517 254.846 225.391 251.723 224.271C248.765 223.315 241.092 222.663 240.725 221.913C239.522 219.367 236.126 209.797 235.539 206.493C234.953 203.188 234.09 198.444 233.883 197.201C233.675 195.958 234.251 194.445 232.72 195.409C231.188 196.373 225.219 199.409 220.414 200.73C215.609 202.052 214.749 201.142 214.556 201.538Z" fill="#8AC640"/>
<path opacity="0.3" d="M228.286 230.676C230.221 230.888 232.874 230.635 234.736 229.996C234.736 229.996 235.16 233.466 236.911 235.055C238.662 236.645 229.34 238.531 229.34 238.531L226.559 231.708L228.286 230.676Z" fill="#010101"/>
<path opacity="0.3" d="M257.151 230.187C258.551 229.158 259.023 227.024 257.177 225.796C255.233 224.601 253.956 224.711 255.687 224.007C257.417 223.303 265.231 225.002 265.231 225.002L262.942 229.184L257.151 230.187Z" fill="#010101"/>
<path opacity="0.3" d="M215.574 205.461C218.097 205.471 221.595 204.489 224.501 203.381C227.408 202.274 231.683 200.367 234.189 198.411C236.694 196.456 236.225 198.917 236.225 198.917L235.162 200.926C235.162 200.926 231.943 203.675 225.833 205.663C218.645 208.022 216.22 207.978 216.22 207.978L215.574 205.461Z" fill="#010101"/>
<path opacity="0.3" d="M217.452 210.294C219.976 210.304 223.473 209.322 226.38 208.214C229.286 207.107 233.206 205.761 235.678 203.707C236.72 202.911 236.606 204.812 236.606 204.812L236.419 205.863C236.419 205.863 233.068 208.547 227.056 210.501C219.868 212.86 218.392 212.709 218.392 212.709L217.452 210.294Z" fill="#010101"/>
<path d="M187.395 143.815C187.63 144.501 196.587 145.698 201.07 145.035C205.553 144.372 214.105 140.56 215.376 139.795L215.65 141.234C215.65 141.234 205.703 146.403 196.926 147.006C188.149 147.61 188.864 146.816 188.864 146.816L187.395 143.815Z" fill="#010101"/>
<path d="M199.733 233.031C201.111 233.216 205.695 232.846 208.237 231.316C208.595 231.083 205.915 224.554 205.95 221.145C206.071 216.393 207.441 212.088 206.06 204.236C201.809 205.258 196.735 205.794 194.015 205.852C194.177 216.533 198.082 224.395 199.733 233.031Z" fill="#F0EFEF"/>
<path d="M208.419 236.95C209.172 236.911 209.931 237.526 209.96 236.969C210.048 235.952 208.399 234.657 207.897 233.515C207.863 233.416 207.897 233.515 207.863 233.416C206.712 232.936 200.7 234.89 201.227 235.147C200.978 236.657 199.833 236.831 200.316 239.514C200.558 240.854 201.756 239.238 203.191 238.636C201.151 241.308 198.888 244.606 199.07 246.734C199.424 249.68 200.674 250.127 204.119 250.588C206.869 250.301 209.941 249.356 212.259 248.45C214.737 247.052 214.79 245.61 213.4 244.115C211.314 241.872 209.352 238.711 208.419 236.95Z" fill="#F0EFEF"/>
<path d="M165.784 109.274C169.657 110.026 173.998 107.988 175.63 107.318C176.022 107.183 179.706 105.151 179.936 105.181C180.361 105.145 180.462 105.439 180.462 105.439C180.462 105.439 179.261 106.727 175.997 108.067C172.928 109.34 169.137 110.423 166.742 110.15C163.922 109.914 165.784 109.274 165.784 109.274Z" fill="#010101"/>
<path d="M199.744 99.6945C200.467 99.8843 204.794 100.042 207.066 101.234C209.074 102.298 208.257 102.469 207.828 102.178C207.268 101.822 203.523 100.807 202.178 100.721C200.834 100.635 199.061 100.258 198.994 100.062C198.926 99.8661 199.744 99.6945 199.744 99.6945Z" fill="#010101"/>
<path d="M179.898 151.976C182.673 150.804 185.849 150.48 188.384 151.801C189.701 152.444 191.639 152.984 191.78 154.031C191.881 154.325 191.561 155.311 191.274 156.067C191.114 156.56 190.535 157.745 190.342 158.14C190.051 158.569 189.049 160.118 188.823 160.415C188.596 160.712 188.372 161.337 188.112 161.536C187.301 162.362 186.088 162.34 184.939 162.187C183.791 162.033 184.934 161.531 183.586 161.118C180.301 160.164 178.393 159.394 178.226 155.398C178.088 154.679 178.897 153.524 179.898 151.976Z" fill="#F0EFEF"/>
<path opacity="0.4" d="M147.202 138.113C139.593 144.67 120.987 163.549 115.795 169.167C122.231 170.681 127.44 177.876 131.017 185.741C131.384 186.492 131.718 187.144 132.085 187.894C132.419 188.547 132.685 189.003 132.884 189.264C132.918 189.362 132.985 189.558 133.116 189.622C133.481 171.858 148.438 148.097 148.785 146.554C148.975 145.831 147.218 143.586 147.749 140.665C148.436 136.923 151.396 134.372 147.202 138.113Z" fill="#010101"/>
<path opacity="0.4" d="M193.582 204.905C194.994 194.341 192.13 185.683 188.566 175.622C187.119 171.408 188.104 164.386 187.109 166.591C183.483 175.176 172.925 192.606 162.478 196.96C177.304 191.321 185.775 196.848 193.582 204.905Z" fill="#010101"/>
<path d="M110.03 180.458C114.237 174.522 137.865 149.209 144.082 144.663C150.266 140.02 147.202 138.114 147.202 138.114C147.202 138.114 123.149 159.958 109.894 176.232" fill="#010101"/>
<path opacity="0.4" d="M182.627 123.868C180.07 123.76 179.215 127.012 180.678 129.358C182.142 131.704 188.409 132.729 191.312 142.141C193.741 149.852 193.151 153.56 193.151 153.56L187.812 150.135C187.812 150.135 183.59 139.752 181.777 138.622C179.965 137.491 174.971 136.029 172.898 135.097C170.825 134.165 173.484 131.062 172.346 128.384C171.242 125.806 171.287 119.874 171.287 119.874L182.627 123.868Z" fill="#010101"/>
<path opacity="0.4" d="M210.585 160.939C212.913 168.357 218.315 178.663 220.784 183.622C223.254 188.581 224.27 188.67 223.51 191.561C222.716 194.353 221.937 198.784 221.937 198.784L214.972 200.517C214.972 200.517 218.007 191.806 217.863 190.432C217.72 189.057 211.35 180.398 211.35 180.398L210.585 160.939Z" fill="#010101"/>
<path opacity="0.4" d="M173.995 96.8131C176.411 99.3794 178.547 100.18 181.496 100.154C183.266 100.203 189.71 98.8674 191.218 95.2815C191.858 93.6373 189.994 90.4428 189.994 90.4428L185.956 96.8688L177.939 98.0882L176.283 96.1369L173.995 96.8131Z" fill="#010101"/>
<path d="M176.905 103.373C180.025 104.165 186.934 103.545 188.799 103.234C190.697 103.02 192.765 99.7901 193.936 98.7309C195.171 97.5399 197.584 96.2728 201.432 97.9097C201.827 98.1027 201.285 99.7133 201.285 99.7133C201.153 99.6489 200.565 99.8508 199.646 99.7279C198.728 99.6054 197.941 99.5465 196.798 100.048C192.1 102.319 191.888 104.254 187.239 104.754C182.591 105.255 181.243 104.841 177.097 106.484" fill="#8AC640"/>
<path d="M176.905 103.373C180.025 104.165 186.934 103.545 188.799 103.234C190.697 103.02 192.765 99.7901 193.936 98.7309C195.171 97.5399 197.584 96.2728 201.432 97.9097C201.827 98.1027 201.285 99.7133 201.285 99.7133C201.153 99.6489 200.565 99.8508 199.646 99.7279C198.728 99.6054 197.941 99.5465 196.798 100.048C192.1 102.319 191.888 104.254 187.239 104.754C182.591 105.255 181.243 104.841 177.097 106.484" stroke="#010101" stroke-width="0.806829" stroke-miterlimit="10" stroke-linejoin="round"/>
<path d="M176.124 103.97C179.829 104.232 186.606 103.548 188.504 103.335C190.403 103.121 192.639 100.381 193.709 99.0276C195.621 96.6181 199.194 96.8155 201.236 97.9769C202.586 98.7182 203.214 99.2696 203.315 99.5635C203.45 99.9552 202.139 99.9673 202.139 99.9673C201.352 99.9089 200.534 100.081 199.812 99.8896C198.893 99.7673 197.907 99.4486 196.765 99.9499C192.067 102.221 191.659 104.223 187.108 104.69C182.558 105.157 181.177 104.645 176.77 106.487" fill="#8AC640"/>
<path d="M192.364 200.721C192.101 200.593 192.425 200.262 192.229 200.33C190.956 200.767 188.855 200.393 187.403 199.357C181.103 194.728 173.549 192.83 162.477 196.96C145.853 203.107 136.833 198.535 131.05 185.84C127.908 178.922 123.558 172.636 118.194 170.096L116.347 172.374C122.201 174.746 125.858 180.611 129.833 188.997C135.911 201.591 148.581 204.033 160.997 199.989C173.903 195.776 179.418 196.841 186.44 201.66C188.715 203.18 190.715 203.26 192.188 203.083L192.364 200.721Z" fill="#010101"/>
<path opacity="0.4" d="M216.2 122.091C216.998 123.46 218.758 126.033 220.797 126.866C221.719 127.316 221.884 127.479 221.296 127.68C220.708 127.882 216.328 129.167 216.328 129.167L214.446 127.513L216.2 122.091Z" fill="#010101"/>
</g>
<g filter="url(#filter1_d)">
<g clip-path="url(#clip3)">
<rect x="420.333" y="295" width="251.524" height="251.524" rx="12.7599" transform="rotate(17.6667 420.333 295)" fill="white"/>
<path d="M659.994 371.332L420.333 295L344 534.662L583.662 610.994L659.994 371.332Z" fill="#F7DF1E"/>
<path d="M521.689 533.514C524.006 542.933 528.441 550.728 539.55 554.266C548.881 557.238 556.328 554.472 558.38 548.028C560.84 540.306 555.586 535.62 546.746 527.856L541.885 523.647C527.839 511.547 519.805 499.435 525.645 481.099C531.025 464.209 547.99 455.45 568.102 461.855C582.421 466.416 591.128 474.678 594.39 490.089L573.267 495.764C571.611 487.61 568.314 483.556 561.847 481.496C555.25 479.395 549.737 482.248 547.996 487.715C545.844 494.471 549.157 498.539 557.487 505.801L562.349 510.006C578.87 524.306 587.01 536.113 581.02 554.92C574.562 575.196 555.096 581.232 533.705 574.419C512.79 567.757 502.452 553.486 500.001 538.317L521.689 533.514ZM441.511 510.127C443.05 517.53 444.578 523.862 452.316 526.326C459.715 528.683 465.305 527.275 468.89 516.018L493.28 439.441L515.8 446.613L491.313 523.495C483.886 546.815 466.834 553.074 446.877 546.718C428.845 540.975 421.375 528.317 419.644 515.386L441.511 510.127Z" fill="black"/>
</g>
<rect x="422.374" y="298.95" width="245.236" height="245.236" rx="9.61581" transform="rotate(17.6667 422.374 298.95)" stroke="white" stroke-width="6.28811"/>
</g>
</g>
<defs>
<filter id="filter0_d" x="-31.1348" y="-36.1348" width="445.205" height="445.205" filterUnits="userSpaceOnUse" color-interpolation-filters="sRGB">
<feFlood flood-opacity="0" result="BackgroundImageFix"/>
<feColorMatrix in="SourceAlpha" type="matrix" values="0 0 0 0 0 0 0 0 0 0 0 0 0 0 0 0 0 0 127 0"/>
<feMorphology radius="0.855798" operator="dilate" in="SourceAlpha" result="effect1_dropShadow"/>
<feOffset/>
<feGaussianBlur stdDeviation="2.13949"/>
<feColorMatrix type="matrix" values="0 0 0 0 0.441667 0 0 0 0 0.441667 0 0 0 0 0.441667 0 0 0 0.3 0"/>
<feBlend mode="normal" in2="BackgroundImageFix" result="effect1_dropShadow"/>
<feBlend mode="normal" in="SourceGraphic" in2="effect1_dropShadow" result="shape"/>
</filter>
<filter id="filter1_d" x="340.227" y="291.227" width="323.54" height="323.54" filterUnits="userSpaceOnUse" color-interpolation-filters="sRGB">
<feFlood flood-opacity="0" result="BackgroundImageFix"/>
<feColorMatrix in="SourceAlpha" type="matrix" values="0 0 0 0 0 0 0 0 0 0 0 0 0 0 0 0 0 0 127 0"/>
<feMorphology radius="0.628811" operator="dilate" in="SourceAlpha" result="effect1_dropShadow"/>
<feOffset/>
<feGaussianBlur stdDeviation="1.57203"/>
<feColorMatrix type="matrix" values="0 0 0 0 0.441667 0 0 0 0 0.441667 0 0 0 0 0.441667 0 0 0 0.3 0"/>
<feBlend mode="normal" in2="BackgroundImageFix" result="effect1_dropShadow"/>
<feBlend mode="normal" in="SourceGraphic" in2="effect1_dropShadow" result="shape"/>
</filter>
<clipPath id="clip0">
<rect width="687" height="649" fill="white"/>
</clipPath>
<clipPath id="clip1">
<rect width="173.564" height="31.5406" fill="white" transform="translate(133.53 278.115) rotate(-18.951)"/>
</clipPath>
<clipPath id="clip2">
<rect width="156.182" height="181.039" fill="white" transform="translate(63.6479 110.627) rotate(-18.951)"/>
</clipPath>
<clipPath id="clip3">
<rect x="420.333" y="295" width="251.524" height="251.524" rx="12.7599" transform="rotate(17.6667 420.333 295)" fill="white"/>
</clipPath>
</defs>
</svg>
