<svg fill="none" height="481" viewBox="0 0 935 481" width="935" xmlns="http://www.w3.org/2000/svg" xmlns:xlink="http://www.w3.org/1999/xlink"><clipPath id="a"><path d="m17 20c0-11.04569 8.9543-20 20-20h182c11.046 0 20 8.95431 20 20v440.704c0 11.046-8.954 20-20 20h-182c-11.0457 0-20-8.954-20-20z"/></clipPath><clipPath id="b"><path d="m249 20c0-11.04569 8.954-20 20-20h182c11.046 0 20 8.95431 20 20v440.704c0 11.046-8.954 20-20 20h-182c-11.046 0-20-8.954-20-20z"/></clipPath><clipPath id="c"><path d="m481 20c0-11.04569 8.954-20 20-20h182c11.046 0 20 8.95431 20 20v440.704c0 11.046-8.954 20-20 20h-182c-11.046 0-20-8.954-20-20z"/></clipPath><clipPath id="d"><path d="m713 20c0-11.04569 8.954-20 20-20h181.675c11.046 0 20 8.95431 20 20v440c0 11.046-8.954 20-20 20h-181.675c-11.046 0-20-8.954-20-20z"/></clipPath><g clip-path="url(#a)"><path d="m17 0h222v480.704h-222z" fill="#fff"/><path d="m17 0h222v188.848h-222z" fill="#5600af"/><path d="m76.8706 40.5585h2.8187l3.3704 6.095h.1345l3.3704-6.095h2.8187l-5.0118 8.6379v5.1396h-2.4891v-5.1396zm16.756 13.9793c-1.0091 0-1.8837-.222-2.6237-.666s-1.314-1.0651-1.7221-1.8634c-.4037-.7983-.6055-1.7312-.6055-2.7986s.2018-2.0025.6055-2.8053c.4081-.8027.9821-1.4261 1.7221-1.8701s1.6146-.666 2.6237-.666 1.8836.222 2.6236.666 1.3118 1.0674 1.7155 1.8701c.4081.8028.6121 1.7379.6121 2.8053s-.204 2.0003-.6121 2.7986c-.4037.7983-.9755 1.4194-1.7155 1.8634s-1.6145.666-2.6236.666zm.0134-1.9509c.5472 0 1.0046-.1502 1.3724-.4507.3677-.305.6413-.7131.8207-1.2244.1839-.5113.2758-1.0808.2758-1.7087 0-.6324-.0919-1.2042-.2758-1.7155-.1794-.5157-.453-.9261-.8207-1.2311-.3678-.3049-.8252-.4574-1.3724-.4574-.5606 0-1.027.1525-1.3992.4574-.3678.305-.6436.7154-.8275 1.2311-.1794.5113-.2691 1.0831-.2691 1.7155 0 .6279.0897 1.1974.2691 1.7087.1839.5113.4597.9194.8275 1.2244.3722.3005.8386.4507 1.3992.4507zm13.591-2.5967v-5.9873h2.435v10.3331h-2.361v-1.8365h-.108c-.233.5785-.617 1.0516-1.15 1.4194-.529.3678-1.182.5516-1.958.5516-.677 0-1.276-.1502-1.796-.4507-.516-.305-.919-.7467-1.211-1.3253-.291-.583-.437-1.2871-.437-2.1123v-6.5793h2.435v6.2026c0 .6547.179 1.175.538 1.5607s.83.5785 1.413.5785c.359 0 .706-.0874 1.043-.2623.336-.1749.612-.4351.827-.7804.22-.3498.33-.7871.33-1.3118zm4.939 4.3458v-10.3331h2.362v1.7222h.107c.189-.5965.511-1.0562.969-1.3791.462-.3274.989-.4911 1.581-.4911.134 0 .285.0067.451.0202.17.009.311.0247.423.0471v2.2402c-.103-.0359-.266-.0673-.491-.0942-.219-.0314-.432-.0471-.639-.0471-.444 0-.843.0964-1.197.2893-.35.1883-.626.4507-.828.7871-.202.3363-.302.7243-.302 1.1638v6.0747zm16.045.1816c-.812 0-1.538-.2085-2.18-.6256-.641-.4171-1.148-1.0225-1.52-1.8164-.372-.7938-.559-1.758-.559-2.8927 0-1.1481.189-2.1168.566-2.9062.381-.7938.894-1.3925 1.54-1.7962.646-.4081 1.366-.6121 2.16-.6121.605 0 1.103.1031 1.493.3094.39.2018.7.4463.928.7333.229.2825.406.5494.532.8005h.101v-5.1531h2.442v13.7775h-2.395v-1.628h-.148c-.126.2511-.307.518-.545.8005-.238.2781-.552.5158-.942.7131-.39.1974-.881.296-1.473.296zm.679-1.998c.516 0 .956-.139 1.319-.4171.363-.2825.639-.6749.827-1.1772.189-.5023.283-1.0876.283-1.7558 0-.6683-.094-1.2491-.283-1.7424-.184-.4933-.457-.8768-.82-1.1504-.359-.2736-.801-.4103-1.326-.4103-.542 0-.995.1412-1.359.4238-.363.2825-.636.6727-.82 1.1705s-.276 1.0674-.276 1.7088c0 .6458.092 1.2221.276 1.7289.188.5023.464.8992.827 1.1907.368.287.819.4305 1.352.4305zm7.419 1.8164v-10.3331h2.435v10.3331zm1.224-11.7996c-.39 0-.724-.1279-1.002-.3835-.274-.2601-.411-.5718-.411-.9351 0-.3677.139-.6794.418-.9351.278-.2601.609-.3902.995-.3902s.715.1301.989.3902c.278.2557.417.5674.417.9351 0 .3633-.139.675-.417.9351-.274.2556-.603.3835-.989.3835zm8.209 15.8494c-.874 0-1.626-.1166-2.254-.3498-.627-.2332-1.132-.5449-1.513-.9351s-.646-.8185-.794-1.2849l2.193-.5315c.099.1839.242.3723.431.5651.188.1974.441.3611.76.4911.323.1346.729.2018 1.217.2018.691 0 1.263-.1659 1.716-.4978s.679-.8678.679-1.6078v-1.9576h-.121c-.125.2511-.309.509-.551.7736-.238.2646-.554.4866-.949.666-.39.1794-.881.2691-1.473.2691-.794 0-1.514-.1861-2.16-.5584-.641-.3767-1.152-.9373-1.533-1.6818-.377-.749-.566-1.6863-.566-2.812 0-1.1347.189-2.0922.566-2.8725.381-.7849.894-1.3791 1.54-1.7828.646-.4081 1.366-.6121 2.16-.6121.605 0 1.103.1031 1.493.3094.395.2018.709.4463.942.7333.233.2825.41.5494.531.8005h.135v-1.7087h2.401v10.5013c0 .8656-.21 1.5854-.632 2.1594-.421.5786-.998 1.0091-1.729 1.2917-.731.287-1.561.4305-2.489.4305zm.02-6.1083c.516 0 .956-.1256 1.319-.3768.363-.2511.639-.6122.827-1.0831.189-.4709.283-1.036.283-1.6952 0-.6503-.094-1.2199-.283-1.7088-.184-.4888-.457-.8678-.82-1.1369-.359-.2736-.801-.4103-1.326-.4103-.542 0-.995.1412-1.359.4238-.363.2825-.636.6705-.82 1.1638-.184.4888-.276 1.045-.276 1.6684 0 .6323.092 1.1862.276 1.6616.188.4709.464.8387.827 1.1033.368.2601.819.3902 1.352.3902zm7.326 2.0585v-10.3331h2.436v10.3331zm1.225-11.7996c-.391 0-.725-.1279-1.003-.3835-.273-.2601-.41-.5718-.41-.9351 0-.3677.139-.6794.417-.9351.278-.2601.61-.3902.996-.3902.385 0 .715.1301.989.3902.278.2557.417.5674.417.9351 0 .3633-.139.675-.417.9351-.274.2556-.604.3835-.989.3835zm8.875 1.4665v1.8836h-5.941v-1.8836zm-4.474-2.4756h2.435v9.7007c0 .3274.05.5785.148.7535.103.1704.238.287.404.3498s.35.0942.552.0942c.152 0 .291-.0113.417-.0337.13-.0224.228-.0426.296-.0605l.41 1.9038c-.13.0448-.316.0942-.558.148-.238.0538-.53.0852-.875.0942-.61.0179-1.159-.074-1.648-.2758-.489-.2063-.877-.5248-1.164-.9553-.282-.4306-.422-.9687-.417-1.6146zm9.484 13.0172c-.655 0-1.245-.1166-1.77-.3498-.52-.2377-.932-.5875-1.237-1.0494-.301-.462-.451-1.0315-.451-1.7088 0-.583.108-1.0651.323-1.4463s.509-.6862.881-.9149c.372-.2288.792-.4014 1.258-.518.471-.1211.958-.2086 1.46-.2624.605-.0628 1.096-.1188 1.473-.1682.377-.0538.651-.1345.821-.2422.175-.1121.262-.2847.262-.518v-.0403c0-.5068-.15-.8992-.45-1.1773-.301-.2781-.734-.4171-1.299-.4171-.596 0-1.069.1301-1.419.3902-.346.2601-.579.5673-.7.9216l-2.274-.3229c.18-.6279.476-1.1526.888-1.5742.413-.426.917-.7444 1.514-.9552.596-.2153 1.256-.3229 1.978-.3229.498 0 .993.0583 1.486.1749.494.1166.945.3094 1.353.5785.408.2646.735.6257.982 1.0831.251.4575.377 1.0293.377 1.7155v6.9156h-2.342v-1.4195h-.08c-.148.2871-.357.5562-.626.8073-.264.2467-.599.4463-1.002.5987-.399.148-.868.222-1.406.222zm.632-1.7894c.489 0 .913-.0964 1.272-.2893.358-.1973.634-.4574.827-.7803.197-.323.296-.675.296-1.0562v-1.2177c-.076.0628-.206.1211-.39.1749-.18.0539-.381.101-.606.1413-.224.0404-.446.0763-.666.1077-.219.0313-.41.0583-.571.0807-.364.0493-.689.13-.976.2422-.287.1121-.513.2691-.679.4709-.166.1973-.249.4529-.249.7669 0 .4485.163.7871.491 1.0158.327.2287.744.3431 1.251.3431zm9.708-12.1966v13.7775h-2.436v-13.7775zm-109.0335 32.1757-2.22.2422c-.0628-.2243-.1727-.4351-.3297-.6324-.1525-.1973-.3588-.3565-.6189-.4776s-.5785-.1817-.9553-.1817c-.5068 0-.9328.1099-1.2781.3297-.3409.2197-.5091.5045-.5046.8543-.0045.3005.1054.5449.3296.7333.2288.1884.6055.3431 1.1302.4642l1.7626.3767c.9777.2108 1.7042.5449 2.1796 1.0024.4799.4574.7221 1.0562.7266 1.7962-.0045.6503-.1951 1.2243-.5719 1.7221-.3722.4934-.8902.8791-1.554 1.1571-.6637.2781-1.4261.4171-2.2872.4171-1.2648 0-2.2828-.2646-3.0542-.7938-.7714-.5337-1.2311-1.2759-1.3791-2.2267l2.3747-.2288c.1077.4665.3364.8185.6862 1.0562s.805.3566 1.3656.3566c.5786 0 1.0428-.1189 1.3926-.3566.3543-.2377.5314-.5314.5314-.8812 0-.296-.1143-.5405-.3431-.7333-.2242-.1929-.574-.3409-1.0494-.444l-1.7626-.37c-.9911-.2063-1.7244-.5539-2.1998-1.0427-.4754-.4934-.7108-1.1168-.7063-1.8702-.0045-.6369.1681-1.1885.518-1.6549.3543-.4709.8454-.8342 1.4732-1.0899.6324-.2601 1.3612-.3901 2.1864-.3901 1.2109 0 2.1639.2578 2.8591.7736.6996.5158 1.1324 1.2131 1.2984 2.0922zm2.23 7.6018v-10.3331h2.4353v10.3331zm1.2244-11.7996c-.3902 0-.7243-.1279-1.0024-.3835-.2735-.2601-.4103-.5718-.4103-.9351 0-.3677.139-.6794.4171-.9351.278-.2601.6099-.3902.9956-.3902s.7153.1301.9889.3902c.2781.2557.4171.5674.4171.9351 0 .3633-.139.675-.4171.9351-.2736.2556-.6032.3835-.9889.3835zm8.209 15.8494c-.8746 0-1.6258-.1166-2.2537-.3498s-1.1324-.5449-1.5136-.9351-.6458-.8185-.7938-1.2849l2.1931-.5315c.0986.1839.2421.3723.4305.5651.1884.1974.4418.3611.7602.4911.3229.1346.7288.2018 1.2176.2018.6907 0 1.2625-.1659 1.7155-.4978s.6794-.8678.6794-1.6078v-1.9576h-.1211c-.1255.2511-.3094.509-.5516.7736-.2377.2646-.5539.4866-.9485.666-.3902.1794-.8813.2691-1.4733.2691-.7938 0-1.5136-.1861-2.1595-.5584-.6413-.3767-1.1526-.9373-1.5338-1.6818-.3767-.749-.5651-1.6863-.5651-2.812 0-1.1347.1884-2.0922.5651-2.8725.3812-.7849.8947-1.3791 1.5406-1.7828.6458-.4081 1.3656-.6121 2.1594-.6121.6055 0 1.1033.1031 1.4935.3094.3946.2018.7086.4463.9418.7333.2332.2825.4104.5494.5314.8005h.1346v-1.7087h2.4016v10.5013c0 .8656-.2108 1.5854-.6323 2.1594-.4216.5786-.9979 1.0091-1.7289 1.2917-.7311.287-1.5608.4305-2.4891.4305zm.0201-6.1083c.5158 0 .9553-.1256 1.3186-.3768.3633-.2511.6391-.6122.8274-1.0831.1884-.4709.2826-1.036.2826-1.6952 0-.6503-.0942-1.2199-.2826-1.7088-.1838-.4888-.4574-.8678-.8207-1.1369-.3588-.2736-.8005-.4103-1.3253-.4103-.5426 0-.9956.1412-1.3589.4238-.3632.2825-.6368.6705-.8207 1.1638-.1839.4888-.2758 1.045-.2758 1.6684 0 .6323.0919 1.1862.2758 1.6616.1884.4709.4642.8387.8275 1.1033.3677.2601.8184.3902 1.3521.3902zm9.7613-3.996v6.0545h-2.4353v-10.3331h2.3277v1.7558h.1211c.2377-.5785.6166-1.0382 1.1369-1.3791.5247-.3408 1.1728-.5112 1.9442-.5112.7131 0 1.3342.1524 1.8634.4574.5337.305.9463.7467 1.2378 1.3253.296.5785.4418 1.2804.4373 2.1056v6.5793h-2.4353v-6.2025c0-.6907-.1794-1.2311-.5381-1.6213-.3543-.3902-.8454-.5853-1.4733-.5853-.4261 0-.805.0942-1.1369.2826-.3274.1838-.5853.4507-.7737.8005-.1838.3498-.2758.7736-.2758 1.2715zm17.6427 6.2361c-.812 0-1.539-.2085-2.18-.6256s-1.148-1.0225-1.52-1.8164c-.373-.7938-.559-1.758-.559-2.8927 0-1.1481.189-2.1168.565-2.9062.382-.7938.895-1.3925 1.541-1.7962.646-.4081 1.366-.6121 2.159-.6121.606 0 1.104.1031 1.494.3094.39.2018.699.4463.928.7333.229.2825.406.5494.532.8005h.101v-5.1531h2.442v13.7775h-2.395v-1.628h-.148c-.126.2511-.308.518-.545.8005-.238.2781-.552.5158-.942.7131-.39.1974-.881.296-1.473.296zm.679-1.998c.516 0 .955-.139 1.319-.4171.363-.2825.639-.6749.827-1.1772s.283-1.0876.283-1.7558c0-.6683-.095-1.2491-.283-1.7424-.184-.4933-.457-.8768-.821-1.1504-.358-.2736-.8-.4103-1.325-.4103-.543 0-.996.1412-1.359.4238-.363.2825-.637.6727-.821 1.1705-.183.4978-.275 1.0674-.275 1.7088 0 .6458.092 1.2221.275 1.7289.189.5023.465.8992.828 1.1907.368.287.818.4305 1.352.4305zm7.419 1.8164v-10.3331h2.435v10.3331zm1.224-11.7996c-.39 0-.724-.1279-1.002-.3835-.274-.2601-.411-.5718-.411-.9351 0-.3677.139-.6794.417-.9351.278-.2601.61-.3902.996-.3902s.715.1301.989.3902c.278.2557.417.5674.417.9351 0 .3633-.139.675-.417.9351-.274.2556-.603.3835-.989.3835zm8.222 12.0014c-1.031 0-1.917-.2265-2.657-.6794-.735-.453-1.303-1.0786-1.702-1.8769-.395-.8028-.592-1.7267-.592-2.7717 0-1.0494.202-1.9756.605-2.7783.404-.8073.974-1.4352 1.709-1.8837.74-.453 1.615-.6794 2.624-.6794.839 0 1.581.1547 2.227.4641.65.305 1.168.7378 1.554 1.2984.385.5561.605 1.2064.659 1.9509h-2.328c-.094-.4978-.318-.9127-.673-1.2445-.349-.3364-.818-.5046-1.406-.5046-.497 0-.935.1346-1.311.4037-.377.2646-.671.6458-.882 1.1436-.206.4978-.309 1.0943-.309 1.7895 0 .7041.103 1.3095.309 1.8163.207.5023.496.8903.868 1.1638.377.2691.819.4037 1.325.4037.359 0 .68-.0673.962-.2018.288-.1391.527-.3387.72-.5988s.325-.5763.397-.9485h2.328c-.058.731-.274 1.3791-.646 1.9442-.372.5606-.879 1.0001-1.52 1.3185-.642.3139-1.395.4709-2.261.4709zm11.586-10.5349v1.8836h-5.94v-1.8836zm-4.473-2.4756h2.435v9.7007c0 .3274.049.5785.148.7535.103.1704.238.287.404.3498s.349.0942.551.0942c.153 0 .292-.0113.417-.0337.13-.0224.229-.0426.296-.0605l.411 1.9038c-.13.0448-.316.0942-.559.148-.237.0538-.529.0852-.874.0942-.61.0179-1.16-.074-1.648-.2758-.489-.2063-.877-.5248-1.164-.9553-.283-.4306-.422-.9687-.417-1.6146zm6.51 12.8087v-10.3331h2.435v10.3331zm1.224-11.7996c-.39 0-.724-.1279-1.002-.3835-.274-.2601-.41-.5718-.41-.9351 0-.3677.139-.6794.417-.9351.278-.2601.61-.3902.995-.3902.386 0 .716.1301.989.3902.278.2557.417.5674.417.9351 0 .3633-.139.675-.417.9351-.273.2556-.603.3835-.989.3835zm8.223 12.0014c-1.009 0-1.884-.222-2.624-.666s-1.314-1.0651-1.722-1.8634c-.404-.7983-.605-1.7312-.605-2.7986s.201-2.0025.605-2.8053c.408-.8027.982-1.4261 1.722-1.8701s1.615-.666 2.624-.666 1.883.222 2.623.666 1.312 1.0674 1.716 1.8701c.408.8028.612 1.7379.612 2.8053s-.204 2.0003-.612 2.7986c-.404.7983-.976 1.4194-1.716 1.8634s-1.614.666-2.623.666zm.013-1.9509c.547 0 1.005-.1502 1.373-.4507.367-.305.641-.7131.82-1.2244.184-.5113.276-1.0808.276-1.7087 0-.6324-.092-1.2042-.276-1.7155-.179-.5157-.453-.9261-.82-1.2311-.368-.3049-.826-.4574-1.373-.4574-.56 0-1.027.1525-1.399.4574-.368.305-.644.7154-.827 1.2311-.18.5113-.27 1.0831-.27 1.7155 0 .6279.09 1.1974.27 1.7087.183.5113.459.9194.827 1.2244.372.3005.839.4507 1.399.4507zm9.44-4.3054v6.0545h-2.435v-10.3331h2.328v1.7558h.121c.237-.5785.616-1.0382 1.137-1.3791.524-.3408 1.172-.5112 1.944-.5112.713 0 1.334.1524 1.863.4574.534.305.947.7467 1.238 1.3253.296.5785.442 1.2804.437 2.1056v6.5793h-2.435v-6.2025c0-.6907-.179-1.2311-.538-1.6213-.354-.3902-.845-.5853-1.473-.5853-.426 0-.805.0942-1.137.2826-.328.1838-.585.4507-.774.8005-.184.3498-.276.7736-.276 1.2715zm12.083 6.263c-.655 0-1.245-.1166-1.77-.3498-.52-.2377-.933-.5875-1.238-1.0494-.3-.462-.45-1.0315-.45-1.7088 0-.583.107-1.0651.323-1.4463.215-.3812.509-.6862.881-.9149.372-.2288.791-.4014 1.258-.518.471-.1211.957-.2086 1.46-.2624.605-.0628 1.096-.1188 1.473-.1682.377-.0538.65-.1345.821-.2422.175-.1121.262-.2847.262-.518v-.0403c0-.5068-.15-.8992-.451-1.1773-.3-.2781-.733-.4171-1.298-.4171-.597 0-1.07.1301-1.419.3902-.346.2601-.579.5673-.7.9216l-2.274-.3229c.179-.6279.475-1.1526.888-1.5742.413-.426.917-.7444 1.514-.9552.596-.2153 1.255-.3229 1.978-.3229.497 0 .993.0583 1.486.1749.494.1166.944.3094 1.352.5785.409.2646.736.6257.983 1.0831.251.4575.376 1.0293.376 1.7155v6.9156h-2.341v-1.4195h-.08c-.148.2871-.357.5562-.626.8073-.265.2467-.599.4463-1.002.5987-.4.148-.868.222-1.406.222zm.632-1.7894c.489 0 .913-.0964 1.271-.2893.359-.1973.635-.4574.828-.7803.197-.323.296-.675.296-1.0562v-1.2177c-.076.0628-.207.1211-.39.1749-.18.0539-.382.101-.606.1413-.224.0404-.446.0763-.666.1077-.22.0313-.41.0583-.572.0807-.363.0493-.688.13-.975.2422-.287.1121-.514.2691-.68.4709-.166.1973-.248.4529-.248.7669 0 .4485.163.7871.491 1.0158.327.2287.744.3431 1.251.3431zm7.272 1.5809v-10.3331h2.361v1.7222h.108c.188-.5965.511-1.0562.969-1.3791.462-.3274.989-.4911 1.581-.4911.134 0 .284.0067.45.0202.171.009.312.0247.424.0471v2.2402c-.103-.0359-.267-.0673-.491-.0942-.22-.0314-.433-.0471-.639-.0471-.444 0-.843.0964-1.197.2893-.35.1883-.626.4507-.828.7871-.202.3363-.303.7243-.303 1.1638v6.0747zm9.339 3.8547c-.332 0-.639-.0269-.921-.0807-.279-.0493-.501-.1099-.666-.1816l.565-1.8904c.529.1525.973.1772 1.332.074.363-.0987.661-.4328.894-1.0024l.209-.5583-3.747-10.5484h2.583l2.382 7.8036h.107l2.388-7.8036 2.604.0135-4.151 11.5709c-.193.5382-.448 1.0023-.767 1.3925-.318.3902-.708.6884-1.17.8947-.458.2108-1.005.3162-1.642.3162z" fill="#fff"/><rect height="340.992" rx="11.248" stroke="#262626" stroke-width="1.184" width="156.841" x="49.56" y="121.36"/></g><g clip-path="url(#b)"><path d="m249 0h222v480.704h-222z" fill="#fff"/><path d="m249 0h222v188.256h-222z" fill="#00bdaa"/><rect height="339.808" rx="11.248" stroke="#262626" stroke-width="1.184" width="156.294" x="281.56" y="122.544"/><path d="m301.923 44.346c-.063-.5875-.328-1.045-.794-1.3724-.462-.3274-1.063-.4911-1.803-.4911-.52 0-.967.0785-1.339.2355s-.657.37-.854.6391c-.198.2691-.298.5763-.303.9216 0 .2871.065.536.195.7468.135.2107.316.3901.545.5381.229.1435.482.2646.76.3633s.559.1816.841.2489l1.292.3229c.52.1211 1.02.2848 1.5.4911.484.2063.917.4664 1.298.7804.386.3139.691.6929.915 1.1369s.337.9642.337 1.5607c0 .8073-.207 1.5181-.619 2.1326-.413.6099-1.009 1.0875-1.79 1.4329-.776.3408-1.715.5112-2.819.5112-1.071 0-2.002-.1659-2.791-.4978-.785-.3319-1.4-.8162-1.844-1.4531-.439-.6368-.677-1.4127-.713-2.3276h2.456c.036.4799.184.879.444 1.1975.26.3184.598.5561 1.016.713.421.157.892.2355 1.412.2355.543 0 1.018-.0807 1.426-.2422.413-.1659.736-.3947.969-.6862.233-.296.352-.6413.357-1.036-.005-.3588-.11-.6548-.316-.888-.207-.2377-.496-.435-.868-.592-.368-.1614-.799-.3049-1.292-.4305l-1.567-.4036c-1.135-.2916-2.032-.7333-2.691-1.3253-.655-.5965-.982-1.3881-.982-2.3747 0-.8118.219-1.5227.659-2.1326.444-.6099 1.047-1.0831 1.809-1.4194.763-.3409 1.626-.5113 2.59-.5113.978 0 1.835.1704 2.57.5113.74.3363 1.321.805 1.743 1.406.421.5964.639 1.2826.652 2.0585zm7.68 10.1985c-.654 0-1.244-.1166-1.769-.3498-.52-.2377-.933-.5875-1.238-1.0494-.3-.462-.45-1.0315-.45-1.7088 0-.583.107-1.0651.323-1.4463.215-.3812.509-.6862.881-.9149.372-.2288.791-.4014 1.258-.518.471-.1211.957-.2086 1.46-.2624.605-.0628 1.096-.1188 1.473-.1682.377-.0538.65-.1345.821-.2422.175-.1121.262-.2847.262-.518v-.0403c0-.5068-.15-.8992-.451-1.1773-.3-.2781-.733-.4171-1.298-.4171-.597 0-1.07.1301-1.42.3902-.345.2601-.578.5673-.699.9216l-2.274-.3229c.179-.6279.475-1.1526.888-1.5742.413-.426.917-.7444 1.514-.9552.596-.2153 1.255-.3229 1.977-.3229.498 0 .994.0583 1.487.1749.494.1166.944.3094 1.352.5785.408.2646.736.6257.983 1.0831.251.4575.376 1.0293.376 1.7155v6.9156h-2.341v-1.4195h-.081c-.148.2871-.356.5562-.625.8073-.265.2467-.599.4463-1.003.5987-.399.148-.867.222-1.406.222zm.633-1.7894c.489 0 .912-.0964 1.271-.2893.359-.1973.635-.4574.828-.7803.197-.323.296-.675.296-1.0562v-1.2177c-.077.0628-.207.1211-.39.1749-.18.0539-.382.101-.606.1413-.224.0404-.446.0763-.666.1077-.22.0313-.41.0583-.572.0807-.363.0493-.688.13-.975.2422-.287.1121-.514.2691-.68.4709-.166.1973-.249.4529-.249.7669 0 .4485.164.7871.492 1.0158.327.2287.744.3431 1.251.3431zm16.132-8.7522-3.68 10.3331h-2.691l-3.68-10.3331h2.597l2.375 7.6758h.107l2.382-7.6758zm5.908 10.5349c-1.036 0-1.931-.2153-2.684-.6458-.749-.435-1.325-1.0495-1.729-1.8433-.404-.7983-.606-1.7379-.606-2.8187 0-1.0629.202-1.9958.606-2.7985.408-.8073.978-1.4352 1.709-1.8837.731-.453 1.59-.6794 2.576-.6794.637 0 1.238.1031 1.803.3094.57.2018 1.072.5158 1.507.9418.44.4261.785.9688 1.036 1.628.251.6548.377 1.4352.377 2.3411v.7468h-8.47v-1.6415h6.135c-.004-.4664-.105-.8813-.302-1.2445-.198-.3678-.473-.6571-.828-.8679-.35-.2108-.758-.3161-1.224-.3161-.498 0-.935.121-1.312.3632-.377.2377-.67.5517-.881.9418-.207.3857-.312.8096-.316 1.2715v1.4329c0 .601.109 1.1167.329 1.5473.22.426.527.7534.922.9822.395.2242.856.3363 1.386.3363.354 0 .675-.0493.962-.148.287-.1031.536-.2534.746-.4507.211-.1973.37-.4418.478-.7333l2.274.2557c-.144.6009-.417 1.1257-.821 1.5741-.399.444-.91.7894-1.534 1.036-.623.2422-1.336.3633-2.139.3633zm9.514-2.0854-.087.74c-.063.5651-.175 1.1391-.337 1.7221-.157.5876-.323 1.128-.498 1.6213-.174.4934-.316.8813-.423 1.1638h-1.642c.063-.2735.148-.6458.256-1.1167.112-.4709.22-1.0001.323-1.5876s.172-1.184.208-1.7895l.047-.7534zm11.509 2.0854c-1.009 0-1.884-.222-2.624-.666s-1.314-1.0651-1.722-1.8634c-.404-.7983-.606-1.7312-.606-2.7986s.202-2.0025.606-2.8053c.408-.8027.982-1.4261 1.722-1.8701s1.615-.666 2.624-.666 1.883.222 2.623.666 1.312 1.0674 1.716 1.8701c.408.8028.612 1.7379.612 2.8053s-.204 2.0003-.612 2.7986c-.404.7983-.976 1.4194-1.716 1.8634s-1.614.666-2.623.666zm.013-1.9509c.547 0 1.005-.1502 1.373-.4507.367-.305.641-.7131.82-1.2244.184-.5113.276-1.0808.276-1.7087 0-.6324-.092-1.2042-.276-1.7155-.179-.5157-.453-.9261-.82-1.2311-.368-.3049-.826-.4574-1.373-.4574-.56 0-1.027.1525-1.399.4574-.368.305-.644.7154-.828 1.2311-.179.5113-.269 1.0831-.269 1.7155 0 .6279.09 1.1974.269 1.7087.184.5113.46.9194.828 1.2244.372.3005.839.4507 1.399.4507zm7.005 1.7491v-10.3331h2.361v1.7222h.108c.188-.5965.511-1.0562.969-1.3791.462-.3274.989-.4911 1.581-.4911.134 0 .284.0067.45.0202.171.009.312.0247.424.0471v2.2402c-.103-.0359-.267-.0673-.491-.0942-.22-.0314-.433-.0471-.639-.0471-.444 0-.843.0964-1.198.2893-.349.1883-.625.4507-.827.7871-.202.3363-.303.7243-.303 1.1638v6.0747zm11.579 4.0498c-.874 0-1.625-.1166-2.253-.3498s-1.133-.5449-1.514-.9351-.646-.8185-.794-1.2849l2.193-.5315c.099.1839.242.3723.431.5651.188.1974.442.3611.76.4911.323.1346.729.2018 1.218.2018.69 0 1.262-.1659 1.715-.4978s.68-.8678.68-1.6078v-1.9576h-.122c-.125.2511-.309.509-.551.7736-.238.2646-.554.4866-.949.666-.39.1794-.881.2691-1.473.2691-.794 0-1.514-.1861-2.159-.5584-.642-.3767-1.153-.9373-1.534-1.6818-.377-.749-.565-1.6863-.565-2.812 0-1.1347.188-2.0922.565-2.8725.381-.7849.894-1.3791 1.54-1.7828.646-.4081 1.366-.6121 2.16-.6121.605 0 1.103.1031 1.493.3094.395.2018.709.4463.942.7333.233.2825.41.5494.531.8005h.135v-1.7087h2.402v10.5013c0 .8656-.211 1.5854-.633 2.1594-.421.5786-.998 1.0091-1.729 1.2917-.731.287-1.56.4305-2.489.4305zm.02-6.1083c.516 0 .956-.1256 1.319-.3768.363-.2511.639-.6122.827-1.0831.189-.4709.283-1.036.283-1.6952 0-.6503-.094-1.2199-.283-1.7088-.183-.4888-.457-.8678-.82-1.1369-.359-.2736-.801-.4103-1.326-.4103-.542 0-.995.1412-1.358.4238-.364.2825-.637.6705-.821 1.1638-.184.4888-.276 1.045-.276 1.6684 0 .6323.092 1.1862.276 1.6616.188.4709.464.8387.827 1.1033.368.2601.819.3902 1.352.3902zm10.3 2.267c-.655 0-1.245-.1166-1.769-.3498-.521-.2377-.933-.5875-1.238-1.0494-.301-.462-.451-1.0315-.451-1.7088 0-.583.108-1.0651.323-1.4463s.509-.6862.881-.9149c.373-.2288.792-.4014 1.258-.518.471-.1211.958-.2086 1.46-.2624.606-.0628 1.097-.1188 1.473-.1682.377-.0538.651-.1345.821-.2422.175-.1121.262-.2847.262-.518v-.0403c0-.5068-.15-.8992-.45-1.1773-.301-.2781-.734-.4171-1.299-.4171-.596 0-1.069.1301-1.419.3902-.345.2601-.579.5673-.7.9216l-2.274-.3229c.18-.6279.476-1.1526.888-1.5742.413-.426.918-.7444 1.514-.9552.597-.2153 1.256-.3229 1.978-.3229.498 0 .993.0583 1.487.1749.493.1166.944.3094 1.352.5785.408.2646.735.6257.982 1.0831.251.4575.377 1.0293.377 1.7155v6.9156h-2.341v-1.4195h-.081c-.148.2871-.357.5562-.626.8073-.264.2467-.598.4463-1.002.5987-.399.148-.868.222-1.406.222zm.632-1.7894c.489 0 .913-.0964 1.272-.2893.359-.1973.634-.4574.827-.7803.198-.323.296-.675.296-1.0562v-1.2177c-.076.0628-.206.1211-.39.1749-.179.0539-.381.101-.605.1413-.225.0404-.447.0763-.666.1077-.22.0313-.411.0583-.572.0807-.364.0493-.689.13-.976.2422-.287.1121-.513.2691-.679.4709-.166.1973-.249.4529-.249.7669 0 .4485.164.7871.491 1.0158s.745.3431 1.251.3431zm9.708-4.4736v6.0545h-2.436v-10.3331h2.328v1.7558h.121c.238-.5785.617-1.0382 1.137-1.3791.525-.3408 1.173-.5112 1.944-.5112.713 0 1.335.1524 1.864.4574.533.305.946.7467 1.238 1.3253.296.5785.441 1.2804.437 2.1056v6.5793h-2.435v-6.2025c0-.6907-.18-1.2311-.539-1.6213-.354-.3902-.845-.5853-1.473-.5853-.426 0-.805.0942-1.137.2826-.327.1838-.585.4507-.773.8005-.184.3498-.276.7736-.276 1.2715zm9.109 6.0545v-10.3331h2.435v10.3331zm1.224-11.7996c-.39 0-.724-.1279-1.002-.3835-.274-.2601-.411-.5718-.411-.9351 0-.3677.139-.6794.417-.9351.278-.2601.61-.3902.996-.3902s.715.1301.989.3902c.278.2557.417.5674.417.9351 0 .3633-.139.675-.417.9351-.274.2556-.603.3835-.989.3835zm3.58 11.7996v-1.5473l5.328-6.6802v-.0874h-5.153v-2.0182h8.134v1.6616l-5.073 6.5659v.0874h5.248v2.0182zm15.051.2018c-1.036 0-1.931-.2153-2.684-.6458-.749-.435-1.325-1.0495-1.729-1.8433-.404-.7983-.605-1.7379-.605-2.8187 0-1.0629.201-1.9958.605-2.7985.408-.8073.978-1.4352 1.709-1.8837.731-.453 1.59-.6794 2.576-.6794.637 0 1.238.1031 1.803.3094.57.2018 1.072.5158 1.507.9418.44.4261.785.9688 1.036 1.628.251.6548.377 1.4352.377 2.3411v.7468h-8.47v-1.6415h6.135c-.004-.4664-.105-.8813-.302-1.2445-.198-.3678-.473-.6571-.828-.8679-.35-.2108-.758-.3161-1.224-.3161-.498 0-.935.121-1.312.3632-.377.2377-.67.5517-.881.9418-.207.3857-.312.8096-.316 1.2715v1.4329c0 .601.109 1.1167.329 1.5473.22.426.527.7534.922.9822.395.2242.856.3363 1.386.3363.354 0 .675-.0493.962-.148.287-.1031.536-.2534.746-.4507.211-.1973.37-.4418.478-.7333l2.274.2557c-.144.6009-.417 1.1257-.821 1.5741-.399.444-.91.7894-1.534 1.036-.623.2422-1.336.3633-2.139.3633zm-102.426 26.0067c-.655 0-1.245-.1166-1.769-.3498-.521-.2377-.933-.5875-1.238-1.0494-.301-.462-.451-1.0315-.451-1.7088 0-.583.108-1.0651.323-1.4463s.509-.6862.881-.9149c.373-.2288.792-.4014 1.258-.518.471-.1211.958-.2086 1.46-.2624.606-.0628 1.097-.1188 1.473-.1682.377-.0538.651-.1345.821-.2422.175-.1121.262-.2847.262-.518v-.0403c0-.5068-.15-.8992-.45-1.1773-.301-.2781-.734-.4171-1.299-.4171-.596 0-1.069.1301-1.419.3902-.345.2601-.579.5673-.7.9216l-2.274-.3229c.18-.6279.476-1.1526.888-1.5742.413-.426.918-.7444 1.514-.9552.597-.2153 1.256-.3229 1.978-.3229.498 0 .993.0583 1.487.1749.493.1166.944.3094 1.352.5785.408.2646.735.6257.982 1.0831.251.4575.377 1.0293.377 1.7155v6.9156h-2.341v-1.4195h-.081c-.148.2871-.357.5562-.626.8073-.264.2467-.598.4463-1.002.5987-.399.148-.868.222-1.406.222zm.632-1.7894c.489 0 .913-.0964 1.272-.2893.359-.1973.634-.4574.827-.7803.198-.323.296-.675.296-1.0562v-1.2177c-.076.0628-.206.1211-.39.1749-.179.0539-.381.101-.605.1413-.225.0404-.447.0763-.666.1077-.22.0313-.411.0583-.572.0807-.364.0493-.689.13-.976.2422-.287.1121-.513.2691-.679.4709-.166.1973-.249.4529-.249.7669 0 .4485.164.7871.491 1.0158s.745.3431 1.251.3431zm9.708-4.4736v6.0545h-2.436v-10.3331h2.328v1.7558h.121c.238-.5785.617-1.0382 1.137-1.3791.525-.3408 1.173-.5112 1.944-.5112.713 0 1.335.1524 1.864.4574.533.305.946.7467 1.238 1.3253.296.5785.441 1.2804.437 2.1056v6.5793h-2.435v-6.2025c0-.6907-.18-1.2311-.539-1.6213-.354-.3902-.845-.5853-1.473-.5853-.426 0-.805.0942-1.137.2826-.327.1838-.585.4507-.773.8005-.184.3498-.276.7736-.276 1.2715zm12.943 6.2361c-.812 0-1.538-.2085-2.18-.6256-.641-.4171-1.148-1.0225-1.52-1.8164-.372-.7938-.558-1.758-.558-2.8927 0-1.1481.188-2.1168.565-2.9062.381-.7938.894-1.3925 1.54-1.7962.646-.4081 1.366-.6121 2.16-.6121.605 0 1.103.1031 1.493.3094.39.2018.7.4463.929.7333.228.2825.405.5494.531.8005h.101v-5.1531h2.442v13.7775h-2.395v-1.628h-.148c-.126.2511-.307.518-.545.8005-.238.2781-.552.5158-.942.7131-.39.1974-.881.296-1.473.296zm.679-1.998c.516 0 .956-.139 1.319-.4171.363-.2825.639-.6749.827-1.1772.189-.5023.283-1.0876.283-1.7558 0-.6683-.094-1.2491-.283-1.7424-.183-.4933-.457-.8768-.82-1.1504-.359-.2736-.801-.4103-1.326-.4103-.542 0-.995.1412-1.358.4238-.364.2825-.637.6727-.821 1.1705s-.276 1.0674-.276 1.7088c0 .6458.092 1.2221.276 1.7289.188.5023.464.8992.827 1.1907.368.287.819.4305 1.352.4305zm20.285-5.7854-2.22.2422c-.063-.2243-.173-.4351-.33-.6324-.152-.1973-.359-.3565-.619-.4776s-.578-.1817-.955-.1817c-.507 0-.933.1099-1.278.3297-.341.2197-.509.5045-.505.8543-.004.3005.106.5449.33.7333.229.1884.605.3431 1.13.4642l1.763.3767c.977.2108 1.704.5449 2.179 1.0024.48.4574.722 1.0562.727 1.7962-.005.6503-.195 1.2243-.572 1.7221-.372.4934-.89.8791-1.554 1.1571-.664.2781-1.426.4171-2.287.4171-1.265 0-2.283-.2646-3.054-.7938-.772-.5337-1.231-1.2759-1.379-2.2267l2.374-.2288c.108.4665.337.8185.686 1.0562.35.2377.805.3566 1.366.3566.579 0 1.043-.1189 1.393-.3566.354-.2377.531-.5314.531-.8812 0-.296-.114-.5405-.343-.7333-.224-.1929-.574-.3409-1.049-.444l-1.763-.37c-.991-.2063-1.724-.5539-2.2-1.0427-.475-.4934-.711-1.1168-.706-1.8702-.005-.6369.168-1.1885.518-1.6549.354-.4709.845-.8342 1.473-1.0899.632-.2601 1.361-.3901 2.186-.3901 1.211 0 2.164.2578 2.86.7736.699.5158 1.132 1.2131 1.298 2.0922zm4.665 1.5473v6.0545h-2.435v-13.7775h2.381v5.2002h.122c.242-.583.616-1.0427 1.123-1.3791.511-.3408 1.162-.5112 1.951-.5112.717 0 1.343.1502 1.877.4507s.946.74 1.238 1.3185c.296.5786.444 1.2849.444 2.1191v6.5793h-2.436v-6.2025c0-.6952-.179-1.2356-.538-1.6213-.354-.3902-.852-.5853-1.493-.5853-.431 0-.817.0942-1.157.2826-.337.1838-.601.4507-.794.8005-.189.3498-.283.7736-.283 1.2715zm12.156 6.263c-.654 0-1.244-.1166-1.769-.3498-.52-.2377-.933-.5875-1.238-1.0494-.3-.462-.45-1.0315-.45-1.7088 0-.583.107-1.0651.323-1.4463.215-.3812.509-.6862.881-.9149.372-.2288.791-.4014 1.258-.518.471-.1211.957-.2086 1.46-.2624.605-.0628 1.096-.1188 1.473-.1682.377-.0538.65-.1345.821-.2422.175-.1121.262-.2847.262-.518v-.0403c0-.5068-.15-.8992-.451-1.1773-.3-.2781-.733-.4171-1.298-.4171-.597 0-1.07.1301-1.42.3902-.345.2601-.578.5673-.699.9216l-2.274-.3229c.179-.6279.475-1.1526.888-1.5742.413-.426.917-.7444 1.514-.9552.596-.2153 1.255-.3229 1.977-.3229.498 0 .994.0583 1.487.1749.494.1166.944.3094 1.352.5785.408.2646.736.6257.983 1.0831.251.4575.376 1.0293.376 1.7155v6.9156h-2.341v-1.4195h-.081c-.148.2871-.356.5562-.625.8073-.265.2467-.599.4463-1.003.5987-.399.148-.867.222-1.406.222zm.633-1.7894c.489 0 .912-.0964 1.271-.2893.359-.1973.635-.4574.828-.7803.197-.323.296-.675.296-1.0562v-1.2177c-.077.0628-.207.1211-.39.1749-.18.0539-.382.101-.606.1413-.224.0404-.446.0763-.666.1077-.22.0313-.41.0583-.572.0807-.363.0493-.688.13-.975.2422-.287.1121-.514.2691-.68.4709-.166.1973-.249.4529-.249.7669 0 .4485.164.7871.492 1.0158.327.2287.744.3431 1.251.3431zm7.272 1.5809v-10.3331h2.361v1.7222h.108c.188-.5965.511-1.0562.969-1.3791.462-.3274.989-.4911 1.581-.4911.134 0 .284.0067.45.0202.171.009.312.0247.424.0471v2.2402c-.103-.0359-.267-.0673-.491-.0942-.22-.0314-.433-.0471-.639-.0471-.444 0-.843.0964-1.198.2893-.349.1883-.625.4507-.827.7871-.202.3363-.303.7243-.303 1.1638v6.0747zm11.66.2018c-1.036 0-1.931-.2153-2.684-.6458-.749-.435-1.325-1.0495-1.729-1.8433-.404-.7983-.606-1.7379-.606-2.8187 0-1.0629.202-1.9958.606-2.7985.408-.8073.978-1.4352 1.709-1.8837.731-.453 1.59-.6794 2.576-.6794.637 0 1.238.1031 1.803.3094.57.2018 1.072.5158 1.507.9418.44.4261.785.9688 1.036 1.628.251.6548.377 1.4352.377 2.3411v.7468h-8.47v-1.6415h6.135c-.004-.4664-.105-.8813-.302-1.2445-.198-.3678-.473-.6571-.828-.8679-.35-.2108-.758-.3161-1.224-.3161-.498 0-.935.121-1.312.3632-.377.2377-.67.5517-.881.9418-.207.3857-.312.8096-.316 1.2715v1.4329c0 .601.109 1.1167.329 1.5473.22.426.527.7534.922.9822.395.2242.856.3363 1.386.3363.354 0 .675-.0493.962-.148.287-.1031.536-.2534.746-.4507.211-.1973.37-.4418.478-.7333l2.274.2557c-.144.6009-.417 1.1257-.821 1.5741-.399.444-.91.7894-1.534 1.036-.623.2422-1.336.3633-2.139.3633z" fill="#fff"/></g><g clip-path="url(#c)"><path d="m481 20c0-11.04569 8.954-20 20-20h182c11.046 0 20 8.95431 20 20v440.704c0 11.046-8.954 20-20 20h-182c-11.046 0-20-8.954-20-20z" fill="#5600af"/><path d="m481 0h222v480.704h-222z" fill="#fff"/><path d="m481 0h222v188.256h-222z" fill="#fe346e"/><path d="m519.433 40.5585h3.054l4.09 9.9833h.162l4.09-9.9833h3.054v13.7775h-2.395v-9.4653h-.128l-3.807 9.4249h-1.79l-3.807-9.4451h-.128v9.4855h-2.395zm21.568 13.9793c-1.01 0-1.884-.222-2.624-.666s-1.314-1.0651-1.722-1.8634c-.404-.7983-.606-1.7312-.606-2.7986s.202-2.0025.606-2.8053c.408-.8027.982-1.4261 1.722-1.8701s1.614-.666 2.624-.666c1.009 0 1.883.222 2.623.666s1.312 1.0674 1.716 1.8701c.408.8028.612 1.7379.612 2.8053s-.204 2.0003-.612 2.7986c-.404.7983-.976 1.4194-1.716 1.8634s-1.614.666-2.623.666zm.013-1.9509c.547 0 1.005-.1502 1.372-.4507.368-.305.642-.7131.821-1.2244.184-.5113.276-1.0808.276-1.7087 0-.6324-.092-1.2042-.276-1.7155-.179-.5157-.453-.9261-.821-1.2311-.367-.3049-.825-.4574-1.372-.4574-.561 0-1.027.1525-1.399.4574-.368.305-.644.7154-.828 1.2311-.179.5113-.269 1.0831-.269 1.7155 0 .6279.09 1.1974.269 1.7087.184.5113.46.9194.828 1.2244.372.3005.838.4507 1.399.4507zm7.005 1.7491v-10.3331h2.361v1.7222h.108c.188-.5965.511-1.0562.968-1.3791.462-.3274.989-.4911 1.581-.4911.135 0 .285.0067.451.0202.171.009.312.0247.424.0471v2.2402c-.103-.0359-.267-.0673-.491-.0942-.22-.0314-.433-.0471-.639-.0471-.444 0-.843.0964-1.198.2893-.35.1883-.625.4507-.827.7871-.202.3363-.303.7243-.303 1.1638v6.0747zm11.66.2018c-1.036 0-1.931-.2153-2.684-.6458-.749-.435-1.326-1.0495-1.729-1.8433-.404-.7983-.606-1.7379-.606-2.8187 0-1.0629.202-1.9958.606-2.7985.408-.8073.977-1.4352 1.708-1.8837.732-.453 1.59-.6794 2.577-.6794.637 0 1.238.1031 1.803.3094.57.2018 1.072.5158 1.507.9418.439.4261.785.9688 1.036 1.628.251.6548.377 1.4352.377 2.3411v.7468h-8.47v-1.6415h6.135c-.004-.4664-.105-.8813-.303-1.2445-.197-.3678-.473-.6571-.827-.8679-.35-.2108-.758-.3161-1.224-.3161-.498 0-.935.121-1.312.3632-.377.2377-.671.5517-.881.9418-.207.3857-.312.8096-.317 1.2715v1.4329c0 .601.11 1.1167.33 1.5473.22.426.527.7534.922.9822.394.2242.856.3363 1.385.3363.355 0 .675-.0493.962-.148.288-.1031.536-.2534.747-.4507s.37-.4418.478-.7333l2.274.2557c-.144.6009-.417 1.1257-.821 1.5741-.399.444-.91.7894-1.534 1.036-.623.2422-1.336.3633-2.139.3633zm16.514-10.5349v1.8836h-5.941v-1.8836zm-4.474-2.4756h2.435v9.7007c0 .3274.05.5785.148.7535.103.1704.238.287.404.3498s.35.0942.552.0942c.152 0 .291-.0113.417-.0337.13-.0224.228-.0426.296-.0605l.41 1.9038c-.13.0448-.316.0942-.558.148-.238.0538-.53.0852-.875.0942-.61.0179-1.159-.074-1.648-.2758-.489-.2063-.877-.5248-1.164-.9553-.282-.4306-.421-.9687-.417-1.6146zm9.168 6.7542v6.0545h-2.436v-13.7775h2.382v5.2002h.121c.242-.583.617-1.0427 1.123-1.3791.512-.3408 1.162-.5112 1.951-.5112.718 0 1.343.1502 1.877.4507s.946.74 1.238 1.3185c.296.5786.444 1.2849.444 2.1191v6.5793h-2.435v-6.2025c0-.6952-.18-1.2356-.539-1.6213-.354-.3902-.852-.5853-1.493-.5853-.431 0-.816.0942-1.157.2826-.336.1838-.601.4507-.794.8005-.188.3498-.282.7736-.282 1.2715zm13.757 6.2563c-1.036 0-1.931-.2153-2.684-.6458-.749-.435-1.326-1.0495-1.729-1.8433-.404-.7983-.606-1.7379-.606-2.8187 0-1.0629.202-1.9958.606-2.7985.408-.8073.977-1.4352 1.708-1.8837.732-.453 1.59-.6794 2.577-.6794.637 0 1.238.1031 1.803.3094.57.2018 1.072.5158 1.507.9418.439.4261.785.9688 1.036 1.628.251.6548.377 1.4352.377 2.3411v.7468h-8.47v-1.6415h6.135c-.004-.4664-.105-.8813-.303-1.2445-.197-.3678-.473-.6571-.827-.8679-.35-.2108-.758-.3161-1.224-.3161-.498 0-.935.121-1.312.3632-.377.2377-.671.5517-.881.9418-.207.3857-.312.8096-.317 1.2715v1.4329c0 .601.11 1.1167.33 1.5473.22.426.527.7534.922.9822.394.2242.856.3363 1.385.3363.355 0 .675-.0493.962-.148.288-.1031.536-.2534.747-.4507s.37-.4418.478-.7333l2.274.2557c-.144.6009-.417 1.1257-.821 1.5741-.399.444-.91.7894-1.534 1.036-.623.2422-1.336.3633-2.139.3633zm9.09-6.2563v6.0545h-2.435v-10.3331h2.327v1.7558h.122c.237-.5785.616-1.0382 1.136-1.3791.525-.3408 1.173-.5112 1.945-.5112.713 0 1.334.1524 1.863.4574.534.305.946.7467 1.238 1.3253.296.5785.442 1.2804.437 2.1056v6.5793h-2.435v-6.2025c0-.6907-.179-1.2311-.538-1.6213-.355-.3902-.846-.5853-1.474-.5853-.426 0-.805.0942-1.136.2826-.328.1838-.586.4507-.774.8005-.184.3498-.276.7736-.276 1.2715zm13.808-4.2786h2.435v10.9049c0 .7445-.141 1.3612-.424 1.85-.282.4933-.695.8589-1.238 1.0966-.538.2377-1.193.3498-1.964.3363-.072-.0045-.143-.0067-.215-.0067-.076 0-.159-.0022-.249-.0067v-1.9846c.067.0045.128.0068.182.0068.053.0044.109.0067.168.0067.466 0 .8-.1144 1.002-.3431.202-.2243.303-.5539.303-.9889zm1.211-1.4665c-.39 0-.725-.1279-1.003-.3835-.273-.2601-.41-.5718-.41-.9351 0-.3677.139-.6794.417-.9351.278-.2601.61-.3902.996-.3902.385 0 .715.1301.989.3902.278.2557.417.5674.417.9351 0 .3633-.139.675-.417.9351-.274.2556-.604.3835-.989.3835zm10.314 7.4538v-5.9873h2.436v10.3331h-2.362v-1.8365h-.107c-.234.5785-.617 1.0517-1.151 1.4194-.529.3678-1.181.5516-1.957.5516-.678 0-1.276-.1502-1.797-.4507-.515-.305-.919-.7467-1.21-1.3253-.292-.583-.438-1.2871-.438-2.1123v-6.5793h2.436v6.2026c0 .6547.179 1.175.538 1.5607s.829.5785 1.412.5785c.359 0 .707-.0874 1.043-.2623.337-.1749.612-.4351.828-.7804.219-.3498.329-.7871.329-1.3118zm13.107-3.256-2.22.2422c-.063-.2243-.173-.4351-.33-.6324-.152-.1973-.359-.3565-.619-.4776s-.578-.1817-.955-.1817c-.507 0-.933.1099-1.278.3297-.341.2197-.509.5045-.505.8543-.004.3005.106.5449.33.7333.229.1884.605.3431 1.13.4642l1.763.3767c.977.2108 1.704.5449 2.179 1.0024.48.4574.722 1.0562.727 1.7962-.005.6503-.195 1.2243-.572 1.7221-.372.4934-.89.8791-1.554 1.1571-.664.2781-1.426.4171-2.287.4171-1.265 0-2.283-.2646-3.055-.7938-.771-.5337-1.231-1.2759-1.379-2.2267l2.375-.2288c.108.4665.336.8185.686 1.0562s.805.3566 1.366.3566c.578 0 1.043-.1189 1.392-.3566.355-.2377.532-.5314.532-.8812 0-.296-.114-.5405-.343-.7333-.224-.1929-.574-.3409-1.05-.444l-1.762-.37c-.991-.2063-1.725-.5539-2.2-1.0427-.475-.4934-.711-1.1168-.706-1.8702-.005-.6369.168-1.1885.518-1.6549.354-.4709.845-.8342 1.473-1.0899.632-.2601 1.361-.3901 2.186-.3901 1.211 0 2.164.2578 2.859.7736.7.5158 1.133 1.2132 1.299 2.0922zm7.39-2.7313v1.8836h-5.941v-1.8836zm-4.474-2.4756h2.435v9.7007c0 .3274.05.5785.148.7535.103.1704.238.287.404.3498s.35.0942.552.0942c.152 0 .291-.0113.417-.0337.13-.0224.228-.0426.296-.0605l.41 1.9038c-.13.0448-.316.0942-.558.148-.238.0538-.53.0852-.875.0942-.61.0179-1.159-.074-1.648-.2758-.489-.2063-.877-.5248-1.164-.9553-.282-.4306-.422-.9687-.417-1.6146zm14.183 13.0172c-.655 0-1.245-.1166-1.77-.3498-.52-.2377-.932-.5875-1.237-1.0494-.301-.462-.451-1.0315-.451-1.7088 0-.583.108-1.0651.323-1.4463s.509-.6862.881-.9149c.372-.2288.792-.4014 1.258-.518.471-.1211.958-.2086 1.46-.2624.605-.0628 1.096-.1188 1.473-.1682.377-.0538.651-.1345.821-.2422.175-.1121.262-.2847.262-.518v-.0403c0-.5068-.15-.8992-.45-1.1773-.301-.2781-.734-.4171-1.299-.4171-.596 0-1.069.1301-1.419.3902-.346.2601-.579.5673-.7.9216l-2.274-.3229c.18-.6279.476-1.1526.888-1.5742.413-.426.917-.7444 1.514-.9552.596-.2153 1.256-.3229 1.978-.3229.498 0 .993.0583 1.486.1749.494.1166.945.3094 1.353.5785.408.2646.735.6257.982 1.0831.251.4575.377 1.0293.377 1.7155v6.9156h-2.342v-1.4195h-.08c-.148.2871-.357.5562-.626.8073-.264.2467-.599.4463-1.002.5987-.399.148-.868.222-1.406.222zm.632-1.7894c.489 0 .913-.0964 1.272-.2893.358-.1973.634-.4574.827-.7803.197-.323.296-.675.296-1.0562v-1.2177c-.076.0628-.206.1211-.39.1749-.18.0539-.381.101-.606.1413-.224.0404-.446.0763-.666.1077-.219.0313-.41.0583-.571.0807-.364.0493-.689.13-.976.2422-.287.1121-.513.2691-.679.4709-.166.1973-.249.4529-.249.7669 0 .4485.163.7871.491 1.0158.327.2287.744.3431 1.251.3431zm-104.405 17.2478-3.679 10.3331h-2.691l-3.68-10.3331h2.597l2.374 7.6758h.108l2.381-7.6758zm1.686 10.3331v-10.3331h2.435v10.3331zm1.224-11.7996c-.39 0-.724-.1279-1.002-.3835-.274-.2601-.411-.5718-.411-.9351 0-.3677.139-.6794.417-.9351.278-.2601.61-.3902.996-.3902s.715.1301.989.3902c.278.2557.417.5674.417.9351 0 .3633-.139.675-.417.9351-.274.2556-.603.3835-.989.3835zm7.55 11.9812c-.812 0-1.539-.2085-2.18-.6256s-1.148-1.0225-1.52-1.8164c-.373-.7938-.559-1.758-.559-2.8927 0-1.1481.189-2.1168.565-2.9062.382-.7938.895-1.3925 1.541-1.7962.646-.4081 1.366-.6121 2.159-.6121.606 0 1.104.1031 1.494.3094.39.2018.699.4463.928.7333.229.2825.406.5494.532.8005h.101v-5.1531h2.442v13.7775h-2.395v-1.628h-.148c-.126.2512-.308.518-.545.8005-.238.2781-.552.5158-.942.7131-.39.1974-.881.296-1.473.296zm.679-1.998c.516 0 .955-.139 1.319-.4171.363-.2825.639-.6749.827-1.1772s.283-1.0876.283-1.7558c0-.6683-.095-1.2491-.283-1.7424-.184-.4933-.457-.8768-.821-1.1504-.358-.2735-.8-.4103-1.325-.4103-.543 0-.996.1412-1.359.4238-.363.2825-.637.6727-.821 1.1705-.183.4978-.275 1.0674-.275 1.7088 0 .6458.092 1.2221.275 1.7289.189.5023.465.8992.828 1.1907.368.287.818.4305 1.352.4305zm11.993 2.0182c-1.036 0-1.931-.2153-2.684-.6458-.749-.435-1.325-1.0495-1.729-1.8433-.404-.7983-.605-1.7379-.605-2.8187 0-1.0629.201-1.9958.605-2.7985.408-.8073.978-1.4352 1.709-1.8837.731-.453 1.59-.6794 2.576-.6794.637 0 1.238.1031 1.803.3094.57.2018 1.072.5158 1.507.9418.44.4261.785.9688 1.036 1.628.251.6548.377 1.4352.377 2.3411v.7468h-8.47v-1.6415h6.135c-.004-.4664-.105-.8813-.302-1.2445-.198-.3678-.473-.6571-.828-.8679-.35-.2108-.758-.3161-1.224-.3161-.498 0-.935.121-1.312.3632-.377.2377-.67.5517-.881.9418-.206.3857-.312.8096-.316 1.2715v1.4329c0 .601.11 1.1167.329 1.5473.22.426.527.7534.922.9822.395.2242.857.3363 1.386.3363.354 0 .675-.0493.962-.148.287-.1031.536-.2534.746-.4507.211-.1973.37-.4418.478-.7333l2.274.2557c-.144.6009-.417 1.1257-.821 1.5741-.399.444-.91.7894-1.534 1.036-.623.2422-1.336.3633-2.139.3633zm11.162 0c-1.009 0-1.883-.222-2.623-.666s-1.314-1.0651-1.722-1.8634c-.404-.7983-.606-1.7312-.606-2.7986s.202-2.0025.606-2.8053c.408-.8027.982-1.4261 1.722-1.8701s1.614-.666 2.623-.666 1.884.222 2.624.666 1.312 1.0674 1.715 1.8701c.409.8028.613 1.7379.613 2.8053s-.204 2.0003-.613 2.7986c-.403.7983-.975 1.4194-1.715 1.8634s-1.615.666-2.624.666zm.014-1.9509c.547 0 1.004-.1502 1.372-.4507.368-.305.641-.7131.821-1.2244.184-.5113.276-1.0808.276-1.7087 0-.6324-.092-1.2042-.276-1.7155-.18-.5157-.453-.9261-.821-1.2311-.368-.3049-.825-.4574-1.372-.4574-.561 0-1.027.1525-1.399.4574-.368.305-.644.7154-.828 1.2311-.179.5113-.269 1.0831-.269 1.7155 0 .6279.09 1.1974.269 1.7087.184.5113.46.9194.828 1.2244.372.3005.838.4507 1.399.4507zm19.87-5.8527-2.22.2422c-.062-.2243-.172-.4351-.329-.6324-.153-.1973-.359-.3565-.619-.4776s-.579-.1817-.955-.1817c-.507 0-.933.1099-1.279.3297-.34.2197-.509.5045-.504.8543-.005.3005.105.5449.33.7333.228.1884.605.3431 1.13.4642l1.762.3767c.978.2108 1.705.5449 2.18 1.0024.48.4574.722 1.0562.726 1.7962-.004.6503-.195 1.2243-.571 1.7221-.373.4934-.891.8791-1.554 1.1571-.664.2781-1.427.4171-2.288.4171-1.264 0-2.282-.2646-3.054-.7938-.771-.5337-1.231-1.2759-1.379-2.2267l2.375-.2288c.107.4665.336.8185.686 1.0562s.805.3566 1.366.3566c.578 0 1.042-.1189 1.392-.3566.354-.2377.532-.5314.532-.8812 0-.296-.115-.5405-.343-.7333-.225-.1929-.575-.3409-1.05-.444l-1.762-.37c-.992-.2063-1.725-.5539-2.2-1.0427-.476-.4934-.711-1.1168-.707-1.8702-.004-.6369.169-1.1885.518-1.6549.355-.4709.846-.8342 1.474-1.0899.632-.2601 1.361-.3901 2.186-.3901 1.211 0 2.164.2578 2.859.7736.7.5158 1.133 1.2132 1.298 2.0922zm2.231 7.6018v-10.3331h2.435v10.3331zm1.224-11.7996c-.39 0-.724-.1279-1.002-.3835-.274-.2601-.411-.5718-.411-.9351 0-.3677.139-.6794.417-.9351.278-.2601.61-.3902.996-.3902s.715.1301.989.3902c.278.2557.417.5674.417.9351 0 .3633-.139.675-.417.9351-.274.2556-.603.3835-.989.3835zm8.209 15.8494c-.875 0-1.626-.1166-2.254-.3498s-1.132-.5449-1.513-.9351c-.382-.3902-.646-.8185-.794-1.2849l2.193-.5315c.099.1839.242.3723.43.5651.189.1974.442.3611.761.4911.323.1346.728.2018 1.217.2018.691 0 1.263-.1659 1.716-.4978s.679-.8678.679-1.6078v-1.9576h-.121c-.126.2511-.309.509-.552.7736-.237.2646-.553.4866-.948.666-.39.1794-.881.2691-1.473.2691-.794 0-1.514-.1861-2.16-.5584-.641-.3767-1.152-.9373-1.534-1.6818-.376-.749-.565-1.6863-.565-2.812 0-1.1346.189-2.0922.565-2.8725.382-.7849.895-1.3791 1.541-1.7828.646-.4081 1.366-.6121 2.159-.6121.606 0 1.104.1031 1.494.3094.394.2018.708.4463.942.7333.233.2825.41.5494.531.8005h.135v-1.7087h2.401v10.5013c0 .8656-.211 1.5854-.632 2.1594-.422.5786-.998 1.0091-1.729 1.2917-.731.287-1.561.4305-2.489.4305zm.02-6.1083c.516 0 .955-.1256 1.319-.3768.363-.2511.639-.6122.827-1.0831s.283-1.036.283-1.6952c0-.6503-.095-1.2199-.283-1.7088-.184-.4888-.457-.8678-.821-1.1369-.358-.2735-.8-.4103-1.325-.4103-.543 0-.996.1412-1.359.4238-.363.2825-.637.6705-.821 1.1638-.183.4888-.275 1.045-.275 1.6684 0 .6323.092 1.1862.275 1.6616.189.4709.465.8387.828 1.1033.368.2601.818.3902 1.352.3902zm9.761-3.996v6.0545h-2.435v-10.3331h2.328v1.7558h.121c.237-.5785.616-1.0382 1.137-1.3791.524-.3408 1.172-.5112 1.944-.5112.713 0 1.334.1524 1.863.4574.534.305.947.7467 1.238 1.3253.296.5785.442 1.2804.437 2.1056v6.5793h-2.435v-6.2025c0-.6907-.179-1.2311-.538-1.6213-.354-.3902-.845-.5853-1.473-.5853-.426 0-.805.0942-1.137.2826-.328.1838-.585.4507-.774.8005-.184.3498-.276.7736-.276 1.2715z" fill="#fff"/><rect height="340.4" rx="10.952" stroke="#262626" stroke-width="1.776" width="156.249" x="513.856" y="121.656"/></g><g clip-path="url(#d)"><path d="m713 0h221.675v480h-221.675z" fill="#fff"/><path d="m713 0h221.675v187.98h-221.675z" fill="#f1e7b6"/><path d="m754.332 54.2857v-13.7573h5.159c1.057 0 1.944.1971 2.66.5912.721.3941 1.265.9359 1.633 1.6256.371.6852.557 1.4644.557 2.3376 0 .8823-.186 1.666-.557 2.3511-.372.6852-.921 1.2249-1.646 1.6189-.726.3897-1.619.5845-2.68.5845h-3.419v-2.0489h3.083c.618 0 1.124-.1074 1.518-.3224.394-.2149.685-.5105.873-.8867.193-.3762.289-.8083.289-1.2965 0-.4881-.096-.918-.289-1.2897-.188-.3717-.481-.6605-.88-.8665-.394-.2105-.902-.3158-1.525-.3158h-2.284v11.6749zm16.419.2015c-1.007 0-1.881-.2216-2.619-.665-.739-.4433-1.313-1.0636-1.72-1.8607-.403-.7971-.605-1.7286-.605-2.7945 0-1.0658.202-1.9995.605-2.8011.407-.8016.981-1.4241 1.72-1.8675.738-.4433 1.612-.665 2.619-.665 1.008 0 1.881.2217 2.62.665.739.4434 1.31 1.0659 1.713 1.8675.408.8016.611 1.7353.611 2.8011 0 1.0659-.203 1.9974-.611 2.7945-.403.7971-.974 1.4174-1.713 1.8607-.739.4434-1.612.665-2.62.665zm.014-1.948c.546 0 1.003-.15 1.37-.4501.367-.3045.641-.712.82-1.2226.183-.5105.275-1.0792.275-1.7062 0-.6314-.092-1.2024-.275-1.7129-.179-.515-.453-.9248-.82-1.2293s-.824-.4568-1.37-.4568c-.56 0-1.026.1523-1.397.4568-.368.3045-.643.7143-.827 1.2293-.179.5105-.268 1.0815-.268 1.7129 0 .627.089 1.1957.268 1.7062.184.5106.459.9181.827 1.2226.371.3001.837.4501 1.397.4501zm8.847 1.7465-2.916-10.3179h2.479l1.814 7.2548h.094l1.854-7.2548h2.452l1.854 7.2145h.1l1.787-7.2145h2.486l-2.922 10.3179h-2.533l-1.935-6.9727h-.141l-1.934 6.9727zm17.992.2015c-1.034 0-1.928-.2149-2.68-.6448-.748-.4344-1.323-1.048-1.726-1.8406-.403-.7971-.605-1.7353-.605-2.8146 0-1.0614.202-1.9928.605-2.7945.407-.806.976-1.433 1.706-1.8808.73-.4523 1.587-.6785 2.573-.6785.636 0 1.236.103 1.8.309.569.2015 1.07.515 1.505.9404.438.4255.783.9674 1.034 1.6257.251.6538.376 1.433.376 2.3376v.7457h-8.457v-1.6391h6.126c-.004-.4657-.105-.88-.302-1.2427-.197-.3672-.472-.6561-.826-.8666-.35-.2104-.757-.3157-1.223-.3157-.497 0-.934.1209-1.31.3628-.376.2373-.669.5508-.88.9404-.206.3851-.311.8083-.315 1.2696v1.4308c0 .6001.109 1.1151.329 1.545.219.4254.526.7524.92.9808.394.2239.855.3358 1.384.3358.354 0 .674-.0492.96-.1478.287-.103.536-.253.746-.45.211-.1971.37-.4411.477-.7322l2.27.2552c-.143.6001-.416 1.1241-.819 1.5719-.399.4434-.909.7882-1.532 1.0345-.622.2418-1.334.3627-2.136.3627zm6.645-.2015v-10.3179h2.358v1.7196h.108c.188-.5956.51-1.0546.967-1.3771.461-.3269.988-.4903 1.579-.4903.134 0 .284.0067.45.0201.17.009.311.0247.423.047v2.2369c-.103-.0358-.267-.0671-.49-.094-.22-.0313-.433-.047-.639-.047-.443 0-.842.0963-1.195.2888-.35.1881-.625.4501-.827.786-.201.3358-.302.7232-.302 1.1621v6.0658zm11.643.2015c-1.034 0-1.927-.2149-2.68-.6448-.748-.4344-1.323-1.048-1.726-1.8406-.403-.7971-.605-1.7353-.605-2.8146 0-1.0614.202-1.9928.605-2.7945.407-.806.976-1.433 1.706-1.8808.73-.4523 1.588-.6785 2.573-.6785.636 0 1.236.103 1.8.309.569.2015 1.07.515 1.505.9404.439.4255.783.9674 1.034 1.6257.251.6538.376 1.433.376 2.3376v.7457h-8.457v-1.6391h6.126c-.004-.4657-.105-.88-.302-1.2427-.197-.3672-.472-.6561-.826-.8666-.349-.2104-.757-.3157-1.223-.3157-.497 0-.933.1209-1.31.3628-.376.2373-.669.5508-.88.9404-.206.3851-.311.8083-.315 1.2696v1.4308c0 .6001.109 1.1151.329 1.545.219.4254.526.7524.92.9808.394.2239.856.3358 1.384.3358.354 0 .674-.0492.961-.1478.286-.103.535-.253.745-.45.211-.1971.37-.4411.477-.7322l2.271.2552c-.144.6001-.417 1.1241-.82 1.5719-.398.4434-.909.7882-1.531 1.0345-.623.2418-1.335.3627-2.137.3627zm10.475-.0201c-.811 0-1.537-.2083-2.177-.6247-.64-.4165-1.146-1.0211-1.518-1.8137-.372-.7927-.558-1.7555-.558-2.8885 0-1.1465.189-2.1138.565-2.902.38-.7926.893-1.3905 1.538-1.7935.645-.4075 1.364-.6113 2.156-.6113.605 0 1.102.103 1.492.309.389.2015.698.4456.927.7322.228.2821.405.5486.53.7994h.101v-5.1456h2.438v13.7573h-2.391v-1.6256h-.148c-.125.2508-.307.5172-.544.7994-.237.2776-.551.515-.94.712-.39.1971-.88.2956-1.471.2956zm.678-1.9951c.515 0 .954-.1388 1.317-.4165.362-.2821.638-.674.826-1.1755.188-.5016.282-1.086.282-1.7533 0-.6672-.094-1.2472-.282-1.7398-.184-.4926-.457-.8755-.82-1.1487-.358-.2731-.799-.4097-1.323-.4097-.542 0-.994.141-1.357.4232-.363.2821-.636.6717-.819 1.1688-.184.4971-.276 1.0658-.276 1.7062 0 .6449.092 1.2204.276 1.7264.188.5016.463.8979.826 1.189.367.2866.817.4299 1.35.4299zm12.207 1.8137v-13.7573h2.432v5.1456h.101c.125-.2508.302-.5173.53-.7994.229-.2866.538-.5307.927-.7322.39-.206.887-.309 1.492-.309.797 0 1.516.2038 2.156.6113.645.403 1.155 1.0009 1.532 1.7935.38.7882.571 1.7555.571 2.902 0 1.133-.186 2.0958-.558 2.8885-.372.7926-.878 1.3972-1.518 1.8137-.641.4164-1.366.6247-2.177.6247-.591 0-1.081-.0985-1.471-.2956-.389-.197-.703-.4344-.94-.712-.233-.2822-.414-.5486-.544-.7994h-.141v1.6256zm2.385-5.159c0 .6673.094 1.2517.282 1.7533.193.5015.468.8934.826 1.1755.363.2777.802.4165 1.317.4165.537 0 .987-.1433 1.35-.4299.363-.2911.636-.6874.82-1.189.188-.506.282-1.0815.282-1.7264 0-.6404-.092-1.2091-.276-1.7062-.183-.4971-.456-.8867-.819-1.1688-.363-.2822-.815-.4232-1.357-.4232-.52 0-.961.1366-1.323.4097-.363.2732-.639.6561-.827 1.1487-.183.4926-.275 1.0726-.275 1.7398zm10.583 9.0081c-.331 0-.638-.0269-.92-.0806-.278-.0493-.499-.1097-.665-.1814l.564-1.8876c.529.1523.972.1769 1.33.0739.363-.0985.661-.4321.894-1.0009l.208-.5575-3.742-10.5329h2.58l2.378 7.7922h.107l2.385-7.7922 2.6.0134-4.145 11.554c-.193.5373-.448 1.0008-.766 1.3905-.318.3896-.707.6874-1.169.8934-.457.2105-1.003.3157-1.639.3157zm19.251-14.167v1.8808h-5.932v-1.8808zm-4.467-2.4721h2.431v9.6866c0 .3269.05.5777.148.7523.103.1702.237.2866.403.3493s.349.0941.551.0941c.152 0 .291-.0112.416-.0336.13-.0224.229-.0426.296-.0605l.41 1.9011c-.13.0447-.316.094-.558.1477-.237.0538-.528.0851-.873.0941-.609.0179-1.158-.0739-1.646-.2754-.488-.206-.875-.524-1.162-.9539-.282-.4299-.421-.9673-.416-1.6122zm9.154 6.7443v6.0457h-2.432v-13.7573h2.378v5.1926h.121c.242-.5822.616-1.0412 1.122-1.3771.51-.3403 1.16-.5105 1.948-.5105.716 0 1.341.15 1.874.4501.533.3.945.7389 1.236 1.3166.296.5777.443 1.283.443 2.116v6.5696h-2.431v-6.1934c0-.6942-.18-1.2338-.538-1.6189-.354-.3897-.851-.5845-1.491-.5845-.43 0-.815.0941-1.155.2822-.336.1836-.601.45-.793.7993-.188.3493-.282.7725-.282 1.2696zm13.737 6.2472c-1.035 0-1.928-.2149-2.68-.6448-.748-.4344-1.324-1.048-1.727-1.8406-.403-.7971-.604-1.7353-.604-2.8146 0-1.0614.201-1.9928.604-2.7945.408-.806.977-1.433 1.706-1.8808.73-.4523 1.588-.6785 2.573-.6785.636 0 1.236.103 1.801.309.568.2015 1.07.515 1.504.9404.439.4255.784.9674 1.035 1.6257.25.6538.376 1.433.376 2.3376v.7457h-8.457v-1.6391h6.126c-.005-.4657-.105-.88-.302-1.2427-.197-.3672-.473-.6561-.827-.8666-.349-.2104-.756-.3157-1.222-.3157-.497 0-.934.1209-1.31.3628-.376.2373-.67.5508-.88.9404-.206.3851-.311.8083-.316 1.2696v1.4308c0 .6001.11 1.1151.329 1.545.22.4254.527.7524.921.9808.394.2239.855.3358 1.383.3358.354 0 .674-.0492.961-.1478.287-.103.535-.253.746-.45.21-.1971.369-.4411.477-.7322l2.27.2552c-.143.6001-.416 1.1241-.819 1.5719-.399.4434-.91.7882-1.532 1.0345-.622.2418-1.335.3627-2.136.3627zm-111.237 26c-1.03 0-1.915-.2261-2.654-.6784-.734-.4523-1.301-1.0771-1.699-1.8742-.394-.8016-.591-1.7241-.591-2.7676 0-1.0479.201-1.9726.604-2.7743.403-.806.972-1.433 1.707-1.8808.738-.4523 1.612-.6785 2.619-.6785.838 0 1.579.1545 2.224.4635.649.3045 1.166.7367 1.552 1.2965.385.5553.604 1.2046.658 1.948h-2.324c-.094-.4971-.318-.9113-.672-1.2427-.349-.3359-.817-.5038-1.404-.5038-.497 0-.934.1343-1.31.403-.376.2643-.67.6449-.88 1.142-.206.4971-.309 1.0927-.309 1.7868 0 .7031.103 1.3077.309 1.8137.206.5016.495.889.867 1.1622.376.2686.817.403 1.323.403.358 0 .678-.0672.96-.2015.287-.1389.527-.3381.719-.5979.193-.2597.325-.5754.397-.9471h2.324c-.058.7299-.273 1.377-.645 1.9413-.372.5598-.878.9987-1.518 1.3166-.641.3135-1.393.4702-2.257.4702zm10.917 0c-1.007 0-1.881-.2216-2.62-.665-.738-.4433-1.312-1.0636-1.719-1.8607-.403-.7971-.605-1.7286-.605-2.7945 0-1.0658.202-1.9995.605-2.8011.407-.8016.981-1.4241 1.719-1.8675.739-.4433 1.613-.665 2.62-.665 1.008 0 1.881.2217 2.62.665.739.4434 1.31 1.0659 1.713 1.8675.407.8016.611 1.7353.611 2.8011 0 1.0659-.204 1.9974-.611 2.7945-.403.7971-.974 1.4174-1.713 1.8607-.739.4434-1.612.665-2.62.665zm.014-1.948c.546 0 1.003-.15 1.37-.4501.367-.3045.64-.712.82-1.2226.183-.5105.275-1.0792.275-1.7062 0-.6314-.092-1.2024-.275-1.7129-.18-.515-.453-.9248-.82-1.2293s-.824-.4568-1.37-.4568c-.56 0-1.026.1523-1.398.4568-.367.3045-.642.7143-.826 1.2293-.179.5105-.268 1.0815-.268 1.7129 0 .627.089 1.1957.268 1.7062.184.5106.459.9181.826 1.2226.372.3001.838.4501 1.398.4501zm6.994 1.7465v-10.3179h2.324v1.7532h.121c.215-.5911.571-1.0524 1.068-1.3838.497-.3359 1.091-.5038 1.781-.5038.698 0 1.287.1702 1.766.5105.484.3359.824.7949 1.021 1.3771h.108c.228-.5732.613-1.03 1.155-1.3704.546-.3448 1.194-.5172 1.941-.5172.95 0 1.725.3001 2.325.9001.6.6001.9 1.4756.9 2.6266v6.9256h-2.439v-6.5495c0-.6404-.17-1.1083-.51-1.4039-.34-.3001-.757-.4501-1.25-.4501-.586 0-1.045.1836-1.377.5508-.327.3628-.49.8352-.49 1.4174v6.4353h-2.385v-6.6502c0-.5329-.161-.9584-.483-1.2763-.318-.318-.735-.477-1.25-.477-.349 0-.667.0896-.954.2687-.286.1747-.515.4232-.685.7457-.17.3179-.255.6896-.255 1.115v6.2741zm16.977 0v-10.3179h2.324v1.7532h.121c.215-.5911.571-1.0524 1.068-1.3838.497-.3359 1.09-.5038 1.78-.5038.699 0 1.288.1702 1.767.5105.483.3359.824.7949 1.021 1.3771h.107c.229-.5732.614-1.03 1.156-1.3704.546-.3448 1.193-.5172 1.941-.5172.949 0 1.724.3001 2.324.9001.6.6001.9 1.4756.9 2.6266v6.9256h-2.438v-6.5495c0-.6404-.17-1.1083-.511-1.4039-.34-.3001-.756-.4501-1.249-.4501-.587 0-1.046.1836-1.377.5508-.327.3628-.49.8352-.49 1.4174v6.4353h-2.385v-6.6502c0-.5329-.161-.9584-.484-1.2763-.318-.318-.734-.477-1.249-.477-.349 0-.667.0896-.954.2687-.287.1747-.515.4232-.685.7457-.17.3179-.256.6896-.256 1.115v6.2741zm23.553-4.3394v-5.9785h2.431v10.3179h-2.357v-1.8338h-.108c-.233.5777-.616 1.0501-1.149 1.4173-.528.3673-1.18.5509-1.954.5509-.677 0-1.274-.1501-1.794-.4501-.515-.3045-.918-.7456-1.209-1.3233-.291-.5822-.437-1.2853-.437-2.1093v-6.5696h2.432v6.1934c0 .6538.179 1.1733.537 1.5585.359.3851.829.5777 1.411.5777.358 0 .705-.0874 1.041-.262.336-.1747.612-.4344.827-.7792.219-.3493.329-.786.329-1.3099zm7.364-1.7063v6.0457h-2.432v-10.3179h2.324v1.7532h.121c.237-.5777.616-1.0367 1.135-1.3771.524-.3403 1.171-.5105 1.942-.5105.712 0 1.332.1523 1.86.4568.533.3045.945.7456 1.236 1.3233.296.5777.442 1.2786.437 2.1026v6.5696h-2.432v-6.1934c0-.6897-.179-1.2293-.537-1.6189-.354-.3897-.844-.5845-1.471-.5845-.426 0-.804.0941-1.135.2822-.327.1836-.585.45-.773.7993-.183.3493-.275.7725-.275 1.2696zm9.095 6.0457v-10.3179h2.432v10.3179zm1.223-11.7823c-.39 0-.724-.1277-1.001-.3829-.273-.2598-.41-.571-.41-.9338 0-.3672.139-.6784.416-.9337.278-.2597.61-.3896.995-.3896s.714.1299.987.3896c.278.2553.417.5665.417.9337 0 .3628-.139.674-.417.9338-.273.2552-.602.3829-.987.3829zm8.862 1.4644v1.8808h-5.932v-1.8808zm-4.467-2.4721h2.431v9.6866c0 .3269.05.5777.148.7523.103.1702.237.2866.403.3493s.349.0941.551.0941c.152 0 .291-.0112.416-.0336.13-.0224.229-.0426.296-.0605l.41 1.9011c-.13.0447-.316.094-.558.1477-.237.0538-.528.0851-.873.0941-.609.0179-1.158-.0739-1.646-.2754-.488-.206-.875-.524-1.162-.9539-.282-.4299-.421-.9673-.416-1.6122zm8.012 16.6391c-.332 0-.638-.0269-.921-.0806-.277-.0493-.499-.1097-.665-.1814l.565-1.8876c.528.1523.971.1769 1.33.0739.362-.0985.66-.4321.893-1.0009l.208-.5575-3.741-10.5329h2.579l2.378 7.7922h.108l2.384-7.7922 2.6.0134-4.145 11.554c-.192.5373-.447 1.0008-.765 1.3905-.318.3896-.708.6874-1.169.8934-.457.2105-1.003.3157-1.639.3157z" fill="#262626"/><rect height="339.31" rx="10.936" stroke="#262626" stroke-width="1.7734" width="155.747" x="746.399" y="122.069"/></g></svg>