<svg fill="none" height="650" viewBox="0 0 779 650" width="779" xmlns="http://www.w3.org/2000/svg"><path d="m0 0h779v650h-779z" fill="#fff"/><path d="m400 138c0-14.359 11.641-26 26-26h105c14.359 0 26 11.641 26 26s-11.641 26-26 26h-105c-14.359 0-26-11.641-26-26z" fill="#f0f0f0"/><path d="m458.513 144v-11.636h1.755v10.125h5.273v1.511zm11.434.193c-.553 0-1.053-.102-1.5-.307-.447-.208-.801-.509-1.062-.903-.258-.394-.386-.877-.386-1.449 0-.492.094-.898.284-1.216.189-.318.445-.57.767-.756.322-.185.682-.325 1.079-.42.398-.095.803-.167 1.216-.216.523-.06.947-.11 1.273-.148.326-.041.562-.108.71-.198.148-.091.222-.239.222-.444v-.039c0-.497-.14-.881-.421-1.154-.276-.273-.689-.409-1.238-.409-.572 0-1.023.127-1.353.381-.325.25-.551.528-.676.835l-1.596-.364c.189-.53.466-.958.829-1.284.368-.329.79-.568 1.267-.716.477-.151.979-.227 1.506-.227.348 0 .718.042 1.108.125.394.08.761.227 1.102.443.345.216.627.525.847.926.219.398.329.915.329 1.552v5.795h-1.659v-1.193h-.068c-.11.22-.275.435-.494.648-.22.212-.502.388-.847.528s-.757.21-1.239.21zm.37-1.363c.469 0 .871-.093 1.204-.279.337-.185.593-.428.767-.727.178-.303.267-.627.267-.972v-1.125c-.06.061-.178.118-.352.171-.17.049-.365.093-.585.13-.22.034-.434.067-.642.097-.208.027-.383.049-.523.068-.329.042-.631.112-.903.21-.269.099-.485.241-.648.427-.159.181-.239.424-.239.727 0 .42.156.738.466.954.311.212.707.319 1.188.319zm6.336 1.17v-11.636h1.699v4.324h.103c.098-.182.24-.393.426-.631.185-.239.443-.447.772-.625.33-.182.766-.273 1.307-.273.705 0 1.334.178 1.887.534s.986.869 1.301 1.54c.318.67.477 1.477.477 2.42 0 .944-.157 1.752-.472 2.427-.314.67-.746 1.187-1.295 1.551-.549.36-1.176.539-1.881.539-.53 0-.964-.089-1.301-.267-.333-.178-.595-.386-.784-.625-.189-.238-.335-.45-.437-.636h-.143v1.358zm1.665-4.364c0 .614.089 1.152.267 1.614s.436.824.773 1.085c.337.258.75.387 1.239.387.507 0 .931-.135 1.272-.404.341-.273.599-.642.773-1.108.178-.466.267-.99.267-1.574 0-.575-.087-1.092-.261-1.551-.171-.458-.428-.82-.773-1.085-.341-.265-.767-.398-1.278-.398-.493 0-.909.127-1.25.381-.338.254-.593.608-.767 1.062-.175.455-.262.985-.262 1.591zm11.976 4.54c-.86 0-1.6-.184-2.222-.551-.617-.371-1.094-.892-1.431-1.563-.334-.674-.5-1.464-.5-2.369 0-.894.166-1.682.5-2.363.337-.682.806-1.214 1.409-1.597.606-.383 1.314-.574 2.125-.574.492 0 .969.082 1.432.244.462.163.876.419 1.244.767.367.349.657.802.869 1.358.212.553.318 1.226.318 2.017v.603h-6.937v-1.273h5.273c0-.447-.091-.843-.273-1.187-.182-.349-.438-.624-.767-.824-.326-.201-.709-.302-1.148-.302-.477 0-.894.118-1.25.353-.352.231-.625.534-.818.909-.189.371-.284.774-.284 1.21v.994c0 .584.102 1.08.307 1.489.208.409.498.722.869.938.371.212.805.318 1.301.318.322 0 .616-.046.881-.137.265-.094.494-.234.687-.42s.341-.415.443-.688l1.608.29c-.128.474-.359.888-.693 1.244-.329.353-.744.627-1.244.824-.496.194-1.063.29-1.699.29zm7.328-11.812v11.636h-1.699v-11.636z" fill="#b9b9b9"/><path d="m99.5128 226v-11.636h1.7552v10.125h5.273v1.511zm11.4342.193c-.553 0-1.053-.102-1.5-.307-.447-.208-.801-.509-1.062-.903-.258-.394-.386-.877-.386-1.449 0-.492.094-.898.284-1.216.189-.318.445-.57.767-.756.322-.185.682-.325 1.079-.42.398-.095.803-.167 1.216-.216.523-.06.947-.11 1.273-.148.326-.041.562-.108.71-.198.148-.091.222-.239.222-.444v-.039c0-.497-.14-.881-.421-1.154-.276-.273-.689-.409-1.238-.409-.572 0-1.023.127-1.353.381-.325.25-.551.528-.676.835l-1.596-.364c.189-.53.466-.958.829-1.284.368-.329.79-.568 1.267-.716.477-.151.979-.227 1.506-.227.348 0 .718.042 1.108.125.394.08.761.227 1.102.443.345.216.627.525.847.926.219.398.329.915.329 1.552v5.795h-1.659v-1.193h-.068c-.11.22-.275.435-.494.648-.22.212-.502.388-.847.528s-.757.21-1.239.21zm.37-1.363c.469 0 .871-.093 1.204-.279.337-.185.593-.428.767-.727.178-.303.267-.627.267-.972v-1.125c-.06.061-.178.118-.352.171-.17.049-.365.093-.585.13-.22.034-.434.067-.642.097-.208.027-.383.049-.523.068-.329.042-.631.112-.903.21-.269.099-.485.241-.648.427-.159.181-.239.424-.239.727 0 .42.156.738.466.954.311.212.707.319 1.188.319zm6.336 1.17v-11.636h1.699v4.324h.103c.098-.182.24-.393.426-.631.185-.239.443-.447.772-.625.33-.182.766-.273 1.307-.273.705 0 1.334.178 1.887.534s.986.869 1.301 1.54c.318.67.477 1.477.477 2.42 0 .944-.157 1.752-.472 2.427-.314.67-.746 1.187-1.295 1.551-.549.36-1.176.539-1.881.539-.53 0-.964-.089-1.301-.267-.333-.178-.595-.386-.784-.625-.189-.238-.335-.45-.437-.636h-.143v1.358zm1.665-4.364c0 .614.089 1.152.267 1.614s.436.824.773 1.085c.337.258.75.387 1.239.387.507 0 .931-.135 1.272-.404.341-.273.599-.642.773-1.108.178-.466.267-.99.267-1.574 0-.575-.087-1.092-.261-1.551-.171-.458-.428-.82-.773-1.085-.341-.265-.767-.398-1.278-.398-.493 0-.909.127-1.25.381-.338.254-.593.608-.767 1.062-.175.455-.262.985-.262 1.591zm11.976 4.54c-.86 0-1.6-.184-2.222-.551-.617-.371-1.094-.892-1.431-1.563-.334-.674-.5-1.464-.5-2.369 0-.894.166-1.682.5-2.363.337-.682.806-1.214 1.409-1.597.606-.383 1.314-.574 2.125-.574.492 0 .969.082 1.432.244.462.163.876.419 1.244.767.367.349.657.802.869 1.358.212.553.318 1.226.318 2.017v.603h-6.937v-1.273h5.273c0-.447-.091-.843-.273-1.187-.182-.349-.438-.624-.767-.824-.326-.201-.709-.302-1.148-.302-.477 0-.894.118-1.25.353-.352.231-.625.534-.818.909-.189.371-.284.774-.284 1.21v.994c0 .584.102 1.08.307 1.489.208.409.498.722.869.938.371.212.805.318 1.301.318.322 0 .616-.046.881-.137.265-.094.494-.234.687-.42s.341-.415.443-.688l1.608.29c-.128.474-.359.888-.693 1.244-.329.353-.744.627-1.244.824-.496.194-1.063.29-1.699.29zm7.328-11.812v11.636h-1.699v-11.636z" fill="#5600af"/><path d="m66 195h106v-2h-106zm106 50h-106v2h106zm-106 0c-13.8071 0-25-11.193-25-25h-2c0 14.912 12.0883 27 27 27zm131-25c0 13.807-11.193 25-25 25v2c14.912 0 27-12.088 27-27zm-25-25c13.807 0 25 11.193 25 25h2c0-14.912-12.088-27-27-27zm-106-2c-14.9117 0-27 12.088-27 27h2c0-13.807 11.1929-25 25-25z" fill="#5600af"/><path d="m221 220c0-14.359 11.641-26 26-26h106c14.359 0 26 11.641 26 26s-11.641 26-26 26h-106c-14.359 0-26-11.641-26-26z" fill="#f9f7fb"/><path d="m280.513 226v-11.636h1.755v10.125h5.273v1.511zm11.434.193c-.553 0-1.053-.102-1.5-.307-.447-.208-.801-.509-1.062-.903-.258-.394-.386-.877-.386-1.449 0-.492.094-.898.284-1.216.189-.318.445-.57.767-.756.322-.185.682-.325 1.079-.42.398-.095.803-.167 1.216-.216.523-.06.947-.11 1.273-.148.326-.041.562-.108.71-.198.148-.091.222-.239.222-.444v-.039c0-.497-.14-.881-.421-1.154-.276-.273-.689-.409-1.238-.409-.572 0-1.023.127-1.353.381-.325.25-.551.528-.676.835l-1.596-.364c.189-.53.466-.958.829-1.284.368-.329.79-.568 1.267-.716.477-.151.979-.227 1.506-.227.348 0 .718.042 1.108.125.394.08.761.227 1.102.443.345.216.627.525.847.926.219.398.329.915.329 1.552v5.795h-1.659v-1.193h-.068c-.11.22-.275.435-.494.648-.22.212-.502.388-.847.528s-.757.21-1.239.21zm.37-1.363c.469 0 .871-.093 1.204-.279.337-.185.593-.428.767-.727.178-.303.267-.627.267-.972v-1.125c-.06.061-.178.118-.352.171-.17.049-.365.093-.585.13-.22.034-.434.067-.642.097-.208.027-.383.049-.523.068-.329.042-.631.112-.903.21-.269.099-.485.241-.648.427-.159.181-.239.424-.239.727 0 .42.156.738.466.954.311.212.707.319 1.188.319zm6.336 1.17v-11.636h1.699v4.324h.103c.098-.182.24-.393.426-.631.185-.239.443-.447.772-.625.33-.182.766-.273 1.307-.273.705 0 1.334.178 1.887.534s.986.869 1.301 1.54c.318.67.477 1.477.477 2.42 0 .944-.157 1.752-.472 2.427-.314.67-.746 1.187-1.295 1.551-.549.36-1.176.539-1.881.539-.53 0-.964-.089-1.301-.267-.333-.178-.595-.386-.784-.625-.189-.238-.335-.45-.437-.636h-.143v1.358zm1.665-4.364c0 .614.089 1.152.267 1.614s.436.824.773 1.085c.337.258.75.387 1.239.387.507 0 .931-.135 1.272-.404.341-.273.599-.642.773-1.108.178-.466.267-.99.267-1.574 0-.575-.087-1.092-.261-1.551-.171-.458-.428-.82-.773-1.085-.341-.265-.767-.398-1.278-.398-.493 0-.909.127-1.25.381-.338.254-.593.608-.767 1.062-.175.455-.262.985-.262 1.591zm11.976 4.54c-.86 0-1.6-.184-2.222-.551-.617-.371-1.094-.892-1.431-1.563-.334-.674-.5-1.464-.5-2.369 0-.894.166-1.682.5-2.363.337-.682.806-1.214 1.409-1.597.606-.383 1.314-.574 2.125-.574.492 0 .969.082 1.432.244.462.163.876.419 1.244.767.367.349.657.802.869 1.358.212.553.318 1.226.318 2.017v.603h-6.937v-1.273h5.273c0-.447-.091-.843-.273-1.187-.182-.349-.438-.624-.767-.824-.326-.201-.709-.302-1.148-.302-.477 0-.894.118-1.25.353-.352.231-.625.534-.818.909-.189.371-.284.774-.284 1.21v.994c0 .584.102 1.08.307 1.489.208.409.498.722.869.938.371.212.805.318 1.301.318.322 0 .616-.046.881-.137.265-.094.494-.234.687-.42s.341-.415.443-.688l1.608.29c-.128.474-.359.888-.693 1.244-.329.353-.744.627-1.244.824-.496.194-1.063.29-1.699.29zm7.328-11.812v11.636h-1.699v-11.636z" fill="#5600af"/><path d="m247 195h106v-2h-106zm106 50h-106v2h106zm-106 0c-13.807 0-25-11.193-25-25h-2c0 14.912 12.088 27 27 27zm131-25c0 13.807-11.193 25-25 25v2c14.912 0 27-12.088 27-27zm-25-25c13.807 0 25 11.193 25 25h2c0-14.912-12.088-27-27-27zm-106-2c-14.912 0-27 12.088-27 27h2c0-13.807 11.193-25 25-25z" fill="#5600af"/><path d="m402 220c0-14.359 11.641-26 26-26h106c14.359 0 26 11.641 26 26s-11.641 26-26 26h-106c-14.359 0-26-11.641-26-26z" fill="#f8f8f8"/><path d="m461.513 226v-11.636h1.755v10.125h5.273v1.511zm11.434.193c-.553 0-1.053-.102-1.5-.307-.447-.208-.801-.509-1.062-.903-.258-.394-.386-.877-.386-1.449 0-.492.094-.898.284-1.216.189-.318.445-.57.767-.756.322-.185.682-.325 1.079-.42.398-.095.803-.167 1.216-.216.523-.06.947-.11 1.273-.148.326-.041.562-.108.71-.198.148-.091.222-.239.222-.444v-.039c0-.497-.14-.881-.421-1.154-.276-.273-.689-.409-1.238-.409-.572 0-1.023.127-1.353.381-.325.25-.551.528-.676.835l-1.596-.364c.189-.53.466-.958.829-1.284.368-.329.79-.568 1.267-.716.477-.151.979-.227 1.506-.227.348 0 .718.042 1.108.125.394.08.761.227 1.102.443.345.216.627.525.847.926.219.398.329.915.329 1.552v5.795h-1.659v-1.193h-.068c-.11.22-.275.435-.494.648-.22.212-.502.388-.847.528s-.757.21-1.239.21zm.37-1.363c.469 0 .871-.093 1.204-.279.337-.185.593-.428.767-.727.178-.303.267-.627.267-.972v-1.125c-.06.061-.178.118-.352.171-.17.049-.365.093-.585.13-.22.034-.434.067-.642.097-.208.027-.383.049-.523.068-.329.042-.631.112-.903.21-.269.099-.485.241-.648.427-.159.181-.239.424-.239.727 0 .42.156.738.466.954.311.212.707.319 1.188.319zm6.336 1.17v-11.636h1.699v4.324h.103c.098-.182.24-.393.426-.631.185-.239.443-.447.772-.625.33-.182.766-.273 1.307-.273.705 0 1.334.178 1.887.534s.986.869 1.301 1.54c.318.67.477 1.477.477 2.42 0 .944-.157 1.752-.472 2.427-.314.67-.746 1.187-1.295 1.551-.549.36-1.176.539-1.881.539-.53 0-.964-.089-1.301-.267-.333-.178-.595-.386-.784-.625-.189-.238-.335-.45-.437-.636h-.143v1.358zm1.665-4.364c0 .614.089 1.152.267 1.614s.436.824.773 1.085c.337.258.75.387 1.239.387.507 0 .931-.135 1.272-.404.341-.273.599-.642.773-1.108.178-.466.267-.99.267-1.574 0-.575-.087-1.092-.261-1.551-.171-.458-.428-.82-.773-1.085-.341-.265-.767-.398-1.278-.398-.493 0-.909.127-1.25.381-.338.254-.593.608-.767 1.062-.175.455-.262.985-.262 1.591zm11.976 4.54c-.86 0-1.6-.184-2.222-.551-.617-.371-1.094-.892-1.431-1.563-.334-.674-.5-1.464-.5-2.369 0-.894.166-1.682.5-2.363.337-.682.806-1.214 1.409-1.597.606-.383 1.314-.574 2.125-.574.492 0 .969.082 1.432.244.462.163.876.419 1.244.767.367.349.657.802.869 1.358.212.553.318 1.226.318 2.017v.603h-6.937v-1.273h5.273c0-.447-.091-.843-.273-1.187-.182-.349-.438-.624-.767-.824-.326-.201-.709-.302-1.148-.302-.477 0-.894.118-1.25.353-.352.231-.625.534-.818.909-.189.371-.284.774-.284 1.21v.994c0 .584.102 1.08.307 1.489.208.409.498.722.869.938.371.212.805.318 1.301.318.322 0 .616-.046.881-.137.265-.094.494-.234.687-.42s.341-.415.443-.688l1.608.29c-.128.474-.359.888-.693 1.244-.329.353-.744.627-1.244.824-.496.194-1.063.29-1.699.29zm7.328-11.812v11.636h-1.699v-11.636z" fill="#b9b9b9"/><path d="m428 195h106v-2h-106zm106 50h-106v2h106zm-106 0c-13.807 0-25-11.193-25-25h-2c0 14.912 12.088 27 27 27zm131-25c0 13.807-11.193 25-25 25v2c14.912 0 27-12.088 27-27zm-25-25c13.807 0 25 11.193 25 25h2c0-14.912-12.088-27-27-27zm-106-2c-14.912 0-27 12.088-27 27h2c0-13.807 11.193-25 25-25z" fill="#b9b9b9"/><path d="m99.5128 308v-11.636h1.7552v10.125h5.273v1.511zm11.4342.193c-.553 0-1.053-.102-1.5-.307-.447-.208-.801-.509-1.062-.903-.258-.394-.386-.877-.386-1.449 0-.492.094-.898.284-1.216.189-.318.445-.57.767-.756.322-.185.682-.325 1.079-.42.398-.095.803-.167 1.216-.216.523-.06.947-.11 1.273-.148.326-.041.562-.108.71-.198.148-.091.222-.239.222-.444v-.039c0-.497-.14-.881-.421-1.154-.276-.273-.689-.409-1.238-.409-.572 0-1.023.127-1.353.381-.325.25-.551.528-.676.835l-1.596-.364c.189-.53.466-.958.829-1.284.368-.329.79-.568 1.267-.716.477-.151.979-.227 1.506-.227.348 0 .718.042 1.108.125.394.08.761.227 1.102.443.345.216.627.525.847.926.219.398.329.915.329 1.552v5.795h-1.659v-1.193h-.068c-.11.22-.275.435-.494.648-.22.212-.502.388-.847.528s-.757.21-1.239.21zm.37-1.363c.469 0 .871-.093 1.204-.279.337-.185.593-.428.767-.727.178-.303.267-.627.267-.972v-1.125c-.06.061-.178.118-.352.171-.17.049-.365.093-.585.13-.22.034-.434.067-.642.097-.208.027-.383.049-.523.068-.329.042-.631.112-.903.21-.269.099-.485.241-.648.427-.159.181-.239.424-.239.727 0 .42.156.738.466.954.311.212.707.319 1.188.319zm6.336 1.17v-11.636h1.699v4.324h.103c.098-.182.24-.393.426-.631.185-.239.443-.447.772-.625.33-.182.766-.273 1.307-.273.705 0 1.334.178 1.887.534s.986.869 1.301 1.54c.318.67.477 1.477.477 2.42 0 .944-.157 1.752-.472 2.427-.314.67-.746 1.187-1.295 1.551-.549.36-1.176.539-1.881.539-.53 0-.964-.089-1.301-.267-.333-.178-.595-.386-.784-.625-.189-.238-.335-.45-.437-.636h-.143v1.358zm1.665-4.364c0 .614.089 1.152.267 1.614s.436.824.773 1.085c.337.258.75.387 1.239.387.507 0 .931-.135 1.272-.404.341-.273.599-.642.773-1.108.178-.466.267-.99.267-1.574 0-.575-.087-1.092-.261-1.551-.171-.458-.428-.82-.773-1.085-.341-.265-.767-.398-1.278-.398-.493 0-.909.127-1.25.381-.338.254-.593.608-.767 1.062-.175.455-.262.985-.262 1.591zm11.976 4.54c-.86 0-1.6-.184-2.222-.551-.617-.371-1.094-.892-1.431-1.563-.334-.674-.5-1.464-.5-2.369 0-.894.166-1.682.5-2.363.337-.682.806-1.214 1.409-1.597.606-.383 1.314-.574 2.125-.574.492 0 .969.082 1.432.244.462.163.876.419 1.244.767.367.349.657.802.869 1.358.212.553.318 1.226.318 2.017v.603h-6.937v-1.273h5.273c0-.447-.091-.843-.273-1.187-.182-.349-.438-.624-.767-.824-.326-.201-.709-.302-1.148-.302-.477 0-.894.118-1.25.353-.352.231-.625.534-.818.909-.189.371-.284.774-.284 1.21v.994c0 .584.102 1.08.307 1.489.208.409.498.722.869.938.371.212.805.318 1.301.318.322 0 .616-.046.881-.137.265-.094.494-.234.687-.42s.341-.415.443-.688l1.608.29c-.128.474-.359.888-.693 1.244-.329.353-.744.627-1.244.824-.496.194-1.063.29-1.699.29zm7.328-11.812v11.636h-1.699v-11.636z" fill="#5600af"/><path d="m461.513 308v-11.636h1.755v10.125h5.273v1.511zm11.434.193c-.553 0-1.053-.102-1.5-.307-.447-.208-.801-.509-1.062-.903-.258-.394-.386-.877-.386-1.449 0-.492.094-.898.284-1.216.189-.318.445-.57.767-.756.322-.185.682-.325 1.079-.42.398-.095.803-.167 1.216-.216.523-.06.947-.11 1.273-.148.326-.041.562-.108.71-.198.148-.091.222-.239.222-.444v-.039c0-.497-.14-.881-.421-1.154-.276-.273-.689-.409-1.238-.409-.572 0-1.023.127-1.353.381-.325.25-.551.528-.676.835l-1.596-.364c.189-.53.466-.958.829-1.284.368-.329.79-.568 1.267-.716.477-.151.979-.227 1.506-.227.348 0 .718.042 1.108.125.394.08.761.227 1.102.443.345.216.627.525.847.926.219.398.329.915.329 1.552v5.795h-1.659v-1.193h-.068c-.11.22-.275.435-.494.648-.22.212-.502.388-.847.528s-.757.21-1.239.21zm.37-1.363c.469 0 .871-.093 1.204-.279.337-.185.593-.428.767-.727.178-.303.267-.627.267-.972v-1.125c-.06.061-.178.118-.352.171-.17.049-.365.093-.585.13-.22.034-.434.067-.642.097-.208.027-.383.049-.523.068-.329.042-.631.112-.903.21-.269.099-.485.241-.648.427-.159.181-.239.424-.239.727 0 .42.156.738.466.954.311.212.707.319 1.188.319zm6.336 1.17v-11.636h1.699v4.324h.103c.098-.182.24-.393.426-.631.185-.239.443-.447.772-.625.33-.182.766-.273 1.307-.273.705 0 1.334.178 1.887.534s.986.869 1.301 1.54c.318.67.477 1.477.477 2.42 0 .944-.157 1.752-.472 2.427-.314.67-.746 1.187-1.295 1.551-.549.36-1.176.539-1.881.539-.53 0-.964-.089-1.301-.267-.333-.178-.595-.386-.784-.625-.189-.238-.335-.45-.437-.636h-.143v1.358zm1.665-4.364c0 .614.089 1.152.267 1.614s.436.824.773 1.085c.337.258.75.387 1.239.387.507 0 .931-.135 1.272-.404.341-.273.599-.642.773-1.108.178-.466.267-.99.267-1.574 0-.575-.087-1.092-.261-1.551-.171-.458-.428-.82-.773-1.085-.341-.265-.767-.398-1.278-.398-.493 0-.909.127-1.25.381-.338.254-.593.608-.767 1.062-.175.455-.262.985-.262 1.591zm11.976 4.54c-.86 0-1.6-.184-2.222-.551-.617-.371-1.094-.892-1.431-1.563-.334-.674-.5-1.464-.5-2.369 0-.894.166-1.682.5-2.363.337-.682.806-1.214 1.409-1.597.606-.383 1.314-.574 2.125-.574.492 0 .969.082 1.432.244.462.163.876.419 1.244.767.367.349.657.802.869 1.358.212.553.318 1.226.318 2.017v.603h-6.937v-1.273h5.273c0-.447-.091-.843-.273-1.187-.182-.349-.438-.624-.767-.824-.326-.201-.709-.302-1.148-.302-.477 0-.894.118-1.25.353-.352.231-.625.534-.818.909-.189.371-.284.774-.284 1.21v.994c0 .584.102 1.08.307 1.489.208.409.498.722.869.938.371.212.805.318 1.301.318.322 0 .616-.046.881-.137.265-.094.494-.234.687-.42s.341-.415.443-.688l1.608.29c-.128.474-.359.888-.693 1.244-.329.353-.744.627-1.244.824-.496.194-1.063.29-1.699.29zm7.328-11.812v11.636h-1.699v-11.636z" fill="#b9b9b9"/><path d="m280.513 308v-11.636h1.755v10.125h5.273v1.511zm11.434.193c-.553 0-1.053-.102-1.5-.307-.447-.208-.801-.509-1.062-.903-.258-.394-.386-.877-.386-1.449 0-.492.094-.898.284-1.216.189-.318.445-.57.767-.756.322-.185.682-.325 1.079-.42.398-.095.803-.167 1.216-.216.523-.06.947-.11 1.273-.148.326-.041.562-.108.71-.198.148-.091.222-.239.222-.444v-.039c0-.497-.14-.881-.421-1.154-.276-.273-.689-.409-1.238-.409-.572 0-1.023.127-1.353.381-.325.25-.551.528-.676.835l-1.596-.364c.189-.53.466-.958.829-1.284.368-.329.79-.568 1.267-.716.477-.151.979-.227 1.506-.227.348 0 .718.042 1.108.125.394.08.761.227 1.102.443.345.216.627.525.847.926.219.398.329.915.329 1.552v5.795h-1.659v-1.193h-.068c-.11.22-.275.435-.494.648-.22.212-.502.388-.847.528s-.757.21-1.239.21zm.37-1.363c.469 0 .871-.093 1.204-.279.337-.185.593-.428.767-.727.178-.303.267-.627.267-.972v-1.125c-.06.061-.178.118-.352.171-.17.049-.365.093-.585.13-.22.034-.434.067-.642.097-.208.027-.383.049-.523.068-.329.042-.631.112-.903.21-.269.099-.485.241-.648.427-.159.181-.239.424-.239.727 0 .42.156.738.466.954.311.212.707.319 1.188.319zm6.336 1.17v-11.636h1.699v4.324h.103c.098-.182.24-.393.426-.631.185-.239.443-.447.772-.625.33-.182.766-.273 1.307-.273.705 0 1.334.178 1.887.534s.986.869 1.301 1.54c.318.67.477 1.477.477 2.42 0 .944-.157 1.752-.472 2.427-.314.67-.746 1.187-1.295 1.551-.549.36-1.176.539-1.881.539-.53 0-.964-.089-1.301-.267-.333-.178-.595-.386-.784-.625-.189-.238-.335-.45-.437-.636h-.143v1.358zm1.665-4.364c0 .614.089 1.152.267 1.614s.436.824.773 1.085c.337.258.75.387 1.239.387.507 0 .931-.135 1.272-.404.341-.273.599-.642.773-1.108.178-.466.267-.99.267-1.574 0-.575-.087-1.092-.261-1.551-.171-.458-.428-.82-.773-1.085-.341-.265-.767-.398-1.278-.398-.493 0-.909.127-1.25.381-.338.254-.593.608-.767 1.062-.175.455-.262.985-.262 1.591zm11.976 4.54c-.86 0-1.6-.184-2.222-.551-.617-.371-1.094-.892-1.431-1.563-.334-.674-.5-1.464-.5-2.369 0-.894.166-1.682.5-2.363.337-.682.806-1.214 1.409-1.597.606-.383 1.314-.574 2.125-.574.492 0 .969.082 1.432.244.462.163.876.419 1.244.767.367.349.657.802.869 1.358.212.553.318 1.226.318 2.017v.603h-6.937v-1.273h5.273c0-.447-.091-.843-.273-1.187-.182-.349-.438-.624-.767-.824-.326-.201-.709-.302-1.148-.302-.477 0-.894.118-1.25.353-.352.231-.625.534-.818.909-.189.371-.284.774-.284 1.21v.994c0 .584.102 1.08.307 1.489.208.409.498.722.869.938.371.212.805.318 1.301.318.322 0 .616-.046.881-.137.265-.094.494-.234.687-.42s.341-.415.443-.688l1.608.29c-.128.474-.359.888-.693 1.244-.329.353-.744.627-1.244.824-.496.194-1.063.29-1.699.29zm7.328-11.812v11.636h-1.699v-11.636z" fill="#5600af" opacity=".6"/><path d="m40 138c0-14.359 11.6406-26 26-26h105c14.359 0 26 11.641 26 26s-11.641 26-26 26h-105c-14.3594 0-26-11.641-26-26z" fill="#5600af"/><path d="m98.5128 144v-11.636h1.7552v10.125h5.273v1.511zm11.4342.193c-.553 0-1.053-.102-1.5-.307-.447-.208-.801-.509-1.062-.903-.258-.394-.386-.877-.386-1.449 0-.492.094-.898.284-1.216.189-.318.445-.57.767-.756.322-.185.682-.325 1.079-.42.398-.095.803-.167 1.216-.216.523-.06.947-.11 1.273-.148.326-.041.562-.108.71-.198.148-.091.222-.239.222-.444v-.039c0-.497-.14-.881-.421-1.154-.276-.273-.689-.409-1.238-.409-.572 0-1.023.127-1.353.381-.325.25-.551.528-.676.835l-1.596-.364c.189-.53.466-.958.829-1.284.368-.329.79-.568 1.267-.716.477-.151.979-.227 1.506-.227.348 0 .718.042 1.108.125.394.08.761.227 1.102.443.345.216.627.525.847.926.219.398.329.915.329 1.552v5.795h-1.659v-1.193h-.068c-.11.22-.275.435-.494.648-.22.212-.502.388-.847.528s-.757.21-1.239.21zm.37-1.363c.469 0 .871-.093 1.204-.279.337-.185.593-.428.767-.727.178-.303.267-.627.267-.972v-1.125c-.06.061-.178.118-.352.171-.17.049-.365.093-.585.13-.22.034-.434.067-.642.097-.208.027-.383.049-.523.068-.329.042-.631.112-.903.21-.269.099-.485.241-.648.427-.159.181-.239.424-.239.727 0 .42.156.738.466.954.311.212.707.319 1.188.319zm6.336 1.17v-11.636h1.699v4.324h.103c.098-.182.24-.393.426-.631.185-.239.443-.447.772-.625.33-.182.766-.273 1.307-.273.705 0 1.334.178 1.887.534s.986.869 1.301 1.54c.318.67.477 1.477.477 2.42 0 .944-.157 1.752-.472 2.427-.314.67-.746 1.187-1.295 1.551-.549.36-1.176.539-1.881.539-.53 0-.964-.089-1.301-.267-.333-.178-.595-.386-.784-.625-.189-.238-.335-.45-.437-.636h-.143v1.358zm1.665-4.364c0 .614.089 1.152.267 1.614s.436.824.773 1.085c.337.258.75.387 1.239.387.507 0 .931-.135 1.272-.404.341-.273.599-.642.773-1.108.178-.466.267-.99.267-1.574 0-.575-.087-1.092-.261-1.551-.171-.458-.428-.82-.773-1.085-.341-.265-.767-.398-1.278-.398-.493 0-.909.127-1.25.381-.338.254-.593.608-.767 1.062-.175.455-.262.985-.262 1.591zm11.976 4.54c-.86 0-1.6-.184-2.222-.551-.617-.371-1.094-.892-1.431-1.563-.334-.674-.5-1.464-.5-2.369 0-.894.166-1.682.5-2.363.337-.682.806-1.214 1.409-1.597.606-.383 1.314-.574 2.125-.574.492 0 .969.082 1.432.244.462.163.876.419 1.244.767.367.349.657.802.869 1.358.212.553.318 1.226.318 2.017v.603h-6.937v-1.273h5.273c0-.447-.091-.843-.273-1.187-.182-.349-.438-.624-.767-.824-.326-.201-.709-.302-1.148-.302-.477 0-.894.118-1.25.353-.352.231-.625.534-.818.909-.189.371-.284.774-.284 1.21v.994c0 .584.102 1.08.307 1.489.208.409.498.722.869.938.371.212.805.318 1.301.318.322 0 .616-.046.881-.137.265-.094.494-.234.687-.42s.341-.415.443-.688l1.608.29c-.128.474-.359.888-.693 1.244-.329.353-.744.627-1.244.824-.496.194-1.063.29-1.699.29zm7.328-11.812v11.636h-1.699v-11.636z" fill="#fff"/><path d="m220 138c0-14.359 11.641-26 26-26h105c14.359 0 26 11.641 26 26s-11.641 26-26 26h-105c-14.359 0-26-11.641-26-26z" fill="#490095"/><path d="m278.513 144v-11.636h1.755v10.125h5.273v1.511zm11.434.193c-.553 0-1.053-.102-1.5-.307-.447-.208-.801-.509-1.062-.903-.258-.394-.386-.877-.386-1.449 0-.492.094-.898.284-1.216.189-.318.445-.57.767-.756.322-.185.682-.325 1.079-.42.398-.095.803-.167 1.216-.216.523-.06.947-.11 1.273-.148.326-.041.562-.108.71-.198.148-.091.222-.239.222-.444v-.039c0-.497-.14-.881-.421-1.154-.276-.273-.689-.409-1.238-.409-.572 0-1.023.127-1.353.381-.325.25-.551.528-.676.835l-1.596-.364c.189-.53.466-.958.829-1.284.368-.329.79-.568 1.267-.716.477-.151.979-.227 1.506-.227.348 0 .718.042 1.108.125.394.08.761.227 1.102.443.345.216.627.525.847.926.219.398.329.915.329 1.552v5.795h-1.659v-1.193h-.068c-.11.22-.275.435-.494.648-.22.212-.502.388-.847.528s-.757.21-1.239.21zm.37-1.363c.469 0 .871-.093 1.204-.279.337-.185.593-.428.767-.727.178-.303.267-.627.267-.972v-1.125c-.06.061-.178.118-.352.171-.17.049-.365.093-.585.13-.22.034-.434.067-.642.097-.208.027-.383.049-.523.068-.329.042-.631.112-.903.21-.269.099-.485.241-.648.427-.159.181-.239.424-.239.727 0 .42.156.738.466.954.311.212.707.319 1.188.319zm6.336 1.17v-11.636h1.699v4.324h.103c.098-.182.24-.393.426-.631.185-.239.443-.447.772-.625.33-.182.766-.273 1.307-.273.705 0 1.334.178 1.887.534s.986.869 1.301 1.54c.318.67.477 1.477.477 2.42 0 .944-.157 1.752-.472 2.427-.314.67-.746 1.187-1.295 1.551-.549.36-1.176.539-1.881.539-.53 0-.964-.089-1.301-.267-.333-.178-.595-.386-.784-.625-.189-.238-.335-.45-.437-.636h-.143v1.358zm1.665-4.364c0 .614.089 1.152.267 1.614s.436.824.773 1.085c.337.258.75.387 1.239.387.507 0 .931-.135 1.272-.404.341-.273.599-.642.773-1.108.178-.466.267-.99.267-1.574 0-.575-.087-1.092-.261-1.551-.171-.458-.428-.82-.773-1.085-.341-.265-.767-.398-1.278-.398-.493 0-.909.127-1.25.381-.338.254-.593.608-.767 1.062-.175.455-.262.985-.262 1.591zm11.976 4.54c-.86 0-1.6-.184-2.222-.551-.617-.371-1.094-.892-1.431-1.563-.334-.674-.5-1.464-.5-2.369 0-.894.166-1.682.5-2.363.337-.682.806-1.214 1.409-1.597.606-.383 1.314-.574 2.125-.574.492 0 .969.082 1.432.244.462.163.876.419 1.244.767.367.349.657.802.869 1.358.212.553.318 1.226.318 2.017v.603h-6.937v-1.273h5.273c0-.447-.091-.843-.273-1.187-.182-.349-.438-.624-.767-.824-.326-.201-.709-.302-1.148-.302-.477 0-.894.118-1.25.353-.352.231-.625.534-.818.909-.189.371-.284.774-.284 1.21v.994c0 .584.102 1.08.307 1.489.208.409.498.722.869.938.371.212.805.318 1.301.318.322 0 .616-.046.881-.137.265-.094.494-.234.687-.42s.341-.415.443-.688l1.608.29c-.128.474-.359.888-.693 1.244-.329.353-.744.627-1.244.824-.496.194-1.063.29-1.699.29zm7.328-11.812v11.636h-1.699v-11.636z" fill="#fff"/><rect fill="#f9f7fb" height="40" rx="8" width="158" x="40" y="358"/><g fill="#5600af"><path d="m102.5 379h-6v6c0 .265-.1054.52-.2929.707-.1875.188-.4419.293-.7071.293s-.5196-.105-.7071-.293c-.1875-.187-.2929-.442-.2929-.707v-6h-6c-.2652 0-.5196-.105-.7071-.293-.1875-.187-.2929-.442-.2929-.707s.1054-.52.2929-.707c.1875-.188.4419-.293.7071-.293h6v-6c0-.265.1054-.52.2929-.707.1875-.188.4419-.293.7071-.293s.5196.105.7071.293c.1875.187.2929.442.2929.707v6h6c.265 0 .52.105.707.293.188.187.293.442.293.707s-.105.52-.293.707c-.187.188-.442.293-.707.293z"/><path d="m112.909 384v-11.636h1.409v10.386h5.409v1.25zm11.306.205c-.553 0-1.054-.105-1.505-.313-.451-.212-.809-.517-1.074-.915-.265-.401-.398-.886-.398-1.454 0-.5.099-.906.296-1.216.197-.315.46-.561.789-.739.33-.178.694-.31 1.091-.398.402-.09.805-.162 1.211-.215.53-.069.96-.12 1.289-.154.334-.038.576-.1.728-.187.155-.087.233-.239.233-.455v-.045c0-.561-.154-.997-.461-1.307-.303-.311-.763-.466-1.38-.466-.641 0-1.142.14-1.506.42-.364.281-.619.58-.767.898l-1.273-.454c.227-.531.53-.944.909-1.239.383-.299.8-.508 1.25-.625.455-.121.902-.182 1.341-.182.28 0 .602.034.966.102.368.065.722.199 1.063.404.344.204.63.513.858.926.227.413.34.966.34 1.659v5.75h-1.34v-1.182h-.069c-.091.19-.242.392-.454.608s-.494.4-.847.551c-.352.152-.782.228-1.29.228zm.205-1.205c.53 0 .977-.104 1.341-.312.367-.209.644-.478.829-.807.19-.33.285-.676.285-1.04v-1.227c-.057.068-.182.13-.375.187-.19.053-.41.101-.66.142-.246.038-.486.072-.721.102-.231.027-.419.05-.563.069-.348.045-.674.119-.977.221-.299.099-.542.248-.727.449-.182.197-.273.466-.273.807 0 .466.172.818.517 1.057.349.235.79.352 1.324.352zm6.345 1v-11.636h1.341v4.295h.113c.099-.151.235-.345.409-.579.178-.239.432-.451.762-.637.333-.189.784-.284 1.352-.284.735 0 1.383.184 1.943.551.561.368.998.888 1.313 1.563.314.674.471 1.469.471 2.386 0 .924-.157 1.725-.471 2.403-.315.675-.75 1.197-1.307 1.569-.557.367-1.199.551-1.926.551-.561 0-1.01-.093-1.347-.279-.337-.189-.596-.403-.778-.642-.182-.242-.322-.443-.421-.602h-.159v1.341zm1.318-4.364c0 .659.096 1.241.29 1.745.193.5.475.892.846 1.176.371.28.826.42 1.364.42.561 0 1.028-.147 1.403-.443.379-.299.663-.701.853-1.204.193-.508.289-1.072.289-1.694 0-.613-.094-1.166-.284-1.659-.185-.496-.468-.888-.846-1.176-.375-.292-.847-.437-1.415-.437-.546 0-1.004.138-1.375.414-.371.273-.652.656-.841 1.148-.189.489-.284 1.059-.284 1.71zm12.016 4.546c-.84 0-1.566-.186-2.176-.557-.606-.375-1.074-.898-1.403-1.568-.326-.674-.489-1.459-.489-2.352 0-.894.163-1.682.489-2.364.329-.686.788-1.22 1.375-1.602.591-.387 1.28-.58 2.068-.58.455 0 .904.076 1.347.227.443.152.846.398 1.21.739.364.337.653.784.869 1.341s.324 1.242.324 2.057v.568h-6.727v-1.159h5.363c0-.493-.098-.932-.295-1.318-.193-.387-.47-.692-.83-.915-.356-.224-.776-.335-1.261-.335-.534 0-.996.132-1.386.397-.387.262-.684.603-.892 1.023-.209.421-.313.871-.313 1.352v.773c0 .659.114 1.218.341 1.676.231.455.551.801.96 1.04.409.235.885.352 1.426.352.353 0 .671-.049.955-.147.288-.103.536-.254.744-.455.209-.205.37-.458.483-.761l1.296.363c-.137.44-.366.826-.688 1.159-.322.33-.719.587-1.193.773-.473.182-1.006.273-1.597.273zm6.915-11.818v11.636h-1.341v-11.636z"/><path d="m102.5 519h-6v6c0 .265-.1054.52-.2929.707-.1875.188-.4419.293-.7071.293s-.5196-.105-.7071-.293c-.1875-.187-.2929-.442-.2929-.707v-6h-6c-.2652 0-.5196-.105-.7071-.293-.1875-.187-.2929-.442-.2929-.707s.1054-.52.2929-.707c.1875-.188.4419-.293.7071-.293h6v-6c0-.265.1054-.52.2929-.707.1875-.188.4419-.293.7071-.293s.5196.105.7071.293c.1875.187.2929.442.2929.707v6h6c.265 0 .52.105.707.293.188.187.293.442.293.707s-.105.52-.293.707c-.187.188-.442.293-.707.293z"/><path d="m112.909 524v-11.636h1.409v10.386h5.409v1.25zm11.306.205c-.553 0-1.054-.105-1.505-.313-.451-.212-.809-.517-1.074-.915-.265-.401-.398-.886-.398-1.454 0-.5.099-.906.296-1.216.197-.315.46-.561.789-.739.33-.178.694-.31 1.091-.398.402-.09.805-.162 1.211-.215.53-.069.96-.12 1.289-.154.334-.038.576-.1.728-.187.155-.087.233-.239.233-.455v-.045c0-.561-.154-.997-.461-1.307-.303-.311-.763-.466-1.38-.466-.641 0-1.142.14-1.506.42-.364.281-.619.58-.767.898l-1.273-.454c.227-.531.53-.944.909-1.239.383-.299.8-.508 1.25-.625.455-.121.902-.182 1.341-.182.28 0 .602.034.966.102.368.065.722.199 1.063.404.344.204.63.513.858.926.227.413.34.966.34 1.659v5.75h-1.34v-1.182h-.069c-.091.19-.242.392-.454.608s-.494.4-.847.551c-.352.152-.782.228-1.29.228zm.205-1.205c.53 0 .977-.104 1.341-.312.367-.209.644-.478.829-.807.19-.33.285-.676.285-1.04v-1.227c-.057.068-.182.13-.375.187-.19.053-.41.101-.66.142-.246.038-.486.072-.721.102-.231.027-.419.05-.563.069-.348.045-.674.119-.977.221-.299.099-.542.248-.727.449-.182.197-.273.466-.273.807 0 .466.172.818.517 1.057.349.235.79.352 1.324.352zm6.345 1v-11.636h1.341v4.295h.113c.099-.151.235-.345.409-.579.178-.239.432-.451.762-.637.333-.189.784-.284 1.352-.284.735 0 1.383.184 1.943.551.561.368.998.888 1.313 1.563.314.674.471 1.469.471 2.386 0 .924-.157 1.725-.471 2.403-.315.675-.75 1.197-1.307 1.569-.557.367-1.199.551-1.926.551-.561 0-1.01-.093-1.347-.279-.337-.189-.596-.403-.778-.642-.182-.242-.322-.443-.421-.602h-.159v1.341zm1.318-4.364c0 .659.096 1.241.29 1.745.193.5.475.892.846 1.176.371.28.826.42 1.364.42.561 0 1.028-.147 1.403-.443.379-.299.663-.701.853-1.204.193-.508.289-1.072.289-1.694 0-.613-.094-1.166-.284-1.659-.185-.496-.468-.888-.846-1.176-.375-.292-.847-.437-1.415-.437-.546 0-1.004.138-1.375.414-.371.273-.652.656-.841 1.148-.189.489-.284 1.059-.284 1.71zm12.016 4.546c-.84 0-1.566-.186-2.176-.557-.606-.375-1.074-.898-1.403-1.568-.326-.674-.489-1.459-.489-2.352 0-.894.163-1.682.489-2.364.329-.686.788-1.22 1.375-1.602.591-.387 1.28-.58 2.068-.58.455 0 .904.076 1.347.227.443.152.846.398 1.21.739.364.337.653.784.869 1.341s.324 1.242.324 2.057v.568h-6.727v-1.159h5.363c0-.493-.098-.932-.295-1.318-.193-.387-.47-.692-.83-.915-.356-.224-.776-.335-1.261-.335-.534 0-.996.132-1.386.397-.387.262-.684.603-.892 1.023-.209.421-.313.871-.313 1.352v.773c0 .659.114 1.218.341 1.676.231.455.551.801.96 1.04.409.235.885.352 1.426.352.353 0 .671-.049.955-.147.288-.103.536-.254.744-.455.209-.205.37-.458.483-.761l1.296.363c-.137.44-.366.826-.688 1.159-.322.33-.719.587-1.193.773-.473.182-1.006.273-1.597.273zm6.915-11.818v11.636h-1.341v-11.636z"/></g><rect fill="#f9f7fb" height="40" rx="8" width="158" x="40" y="428"/><path d="m100.409 454v-11.636h1.409v10.386h5.409v1.25zm11.306.205c-.553 0-1.054-.105-1.505-.313-.451-.212-.809-.517-1.074-.915-.265-.401-.398-.886-.398-1.454 0-.5.099-.906.296-1.216.197-.315.46-.561.789-.739.33-.178.694-.31 1.091-.398.402-.09.805-.162 1.211-.215.53-.069.96-.12 1.289-.154.334-.038.576-.1.728-.187.155-.087.233-.239.233-.455v-.045c0-.561-.154-.997-.461-1.307-.303-.311-.763-.466-1.38-.466-.641 0-1.142.14-1.506.42-.364.281-.619.58-.767.898l-1.273-.454c.227-.531.53-.944.909-1.239.383-.299.8-.508 1.25-.625.455-.121.902-.182 1.341-.182.28 0 .602.034.966.102.368.065.722.199 1.063.404.344.204.63.513.858.926.227.413.34.966.34 1.659v5.75h-1.34v-1.182h-.069c-.091.19-.242.392-.454.608s-.494.4-.847.551c-.352.152-.782.228-1.29.228zm.205-1.205c.53 0 .977-.104 1.341-.312.367-.209.644-.478.829-.807.19-.33.285-.676.285-1.04v-1.227c-.057.068-.182.13-.375.187-.19.053-.41.101-.66.142-.246.038-.486.072-.721.102-.231.027-.419.05-.563.069-.348.045-.674.119-.977.221-.299.099-.542.248-.727.449-.182.197-.273.466-.273.807 0 .466.172.818.517 1.057.349.235.79.352 1.324.352zm6.345 1v-11.636h1.341v4.295h.113c.099-.151.235-.345.409-.579.178-.239.432-.451.762-.637.333-.189.784-.284 1.352-.284.735 0 1.383.184 1.943.551.561.368.998.888 1.313 1.563.314.674.471 1.469.471 2.386 0 .924-.157 1.725-.471 2.403-.315.675-.75 1.197-1.307 1.569-.557.367-1.199.551-1.926.551-.561 0-1.01-.093-1.347-.279-.337-.189-.596-.403-.778-.642-.182-.242-.322-.443-.421-.602h-.159v1.341zm1.318-4.364c0 .659.096 1.241.29 1.745.193.5.475.892.846 1.176.371.28.826.42 1.364.42.561 0 1.028-.147 1.403-.443.379-.299.663-.701.853-1.204.193-.508.289-1.072.289-1.694 0-.613-.094-1.166-.284-1.659-.185-.496-.468-.888-.846-1.176-.375-.292-.847-.437-1.415-.437-.546 0-1.004.138-1.375.414-.371.273-.652.656-.841 1.148-.189.489-.284 1.059-.284 1.71zm12.016 4.546c-.84 0-1.566-.186-2.176-.557-.606-.375-1.074-.898-1.403-1.568-.326-.674-.489-1.459-.489-2.352 0-.894.163-1.682.489-2.364.329-.686.788-1.22 1.375-1.602.591-.387 1.28-.58 2.068-.58.455 0 .904.076 1.347.227.443.152.846.398 1.21.739.364.337.653.784.869 1.341s.324 1.242.324 2.057v.568h-6.727v-1.159h5.363c0-.493-.098-.932-.295-1.318-.193-.387-.47-.692-.83-.915-.356-.224-.776-.335-1.261-.335-.534 0-.996.132-1.386.397-.387.262-.684.603-.892 1.023-.209.421-.313.871-.313 1.352v.773c0 .659.114 1.218.341 1.676.231.455.551.801.96 1.04.409.235.885.352 1.426.352.353 0 .671-.049.955-.147.288-.103.536-.254.744-.455.209-.205.37-.458.483-.761l1.296.363c-.137.44-.366.826-.688 1.159-.322.33-.719.587-1.193.773-.473.182-1.006.273-1.597.273zm6.915-11.818v11.636h-1.341v-11.636z" fill="#5600af"/><rect fill="#f8f8f8" height="40" rx="8" width="158" x="402" y="358"/><g fill="#b9b9b9"><path d="m464.5 379h-6v6c0 .265-.105.52-.293.707-.187.188-.442.293-.707.293s-.52-.105-.707-.293c-.188-.187-.293-.442-.293-.707v-6h-6c-.265 0-.52-.105-.707-.293-.188-.187-.293-.442-.293-.707s.105-.52.293-.707c.187-.188.442-.293.707-.293h6v-6c0-.265.105-.52.293-.707.187-.188.442-.293.707-.293s.52.105.707.293c.188.187.293.442.293.707v6h6c.265 0 .52.105.707.293.188.187.293.442.293.707s-.105.52-.293.707c-.187.188-.442.293-.707.293z"/><path d="m474.909 384v-11.636h1.409v10.386h5.409v1.25zm11.306.205c-.553 0-1.054-.105-1.505-.313-.451-.212-.809-.517-1.074-.915-.265-.401-.398-.886-.398-1.454 0-.5.099-.906.296-1.216.197-.315.46-.561.789-.739.33-.178.694-.31 1.091-.398.402-.09.805-.162 1.211-.215.53-.069.96-.12 1.289-.154.334-.038.576-.1.728-.187.155-.087.233-.239.233-.455v-.045c0-.561-.154-.997-.461-1.307-.303-.311-.763-.466-1.38-.466-.641 0-1.142.14-1.506.42-.364.281-.619.58-.767.898l-1.273-.454c.227-.531.53-.944.909-1.239.383-.299.8-.508 1.25-.625.455-.121.902-.182 1.341-.182.28 0 .602.034.966.102.368.065.722.199 1.063.404.344.204.63.513.858.926.227.413.34.966.34 1.659v5.75h-1.34v-1.182h-.069c-.091.19-.242.392-.454.608s-.494.4-.847.551c-.352.152-.782.228-1.29.228zm.205-1.205c.53 0 .977-.104 1.341-.312.367-.209.644-.478.829-.807.19-.33.285-.676.285-1.04v-1.227c-.057.068-.182.13-.375.187-.19.053-.41.101-.66.142-.246.038-.486.072-.721.102-.231.027-.419.05-.563.069-.348.045-.674.119-.977.221-.299.099-.542.248-.727.449-.182.197-.273.466-.273.807 0 .466.172.818.517 1.057.349.235.79.352 1.324.352zm6.345 1v-11.636h1.341v4.295h.113c.099-.151.235-.345.409-.579.178-.239.432-.451.762-.637.333-.189.784-.284 1.352-.284.735 0 1.383.184 1.943.551.561.368.998.888 1.313 1.563.314.674.471 1.469.471 2.386 0 .924-.157 1.725-.471 2.403-.315.675-.75 1.197-1.307 1.569-.557.367-1.199.551-1.926.551-.561 0-1.01-.093-1.347-.279-.337-.189-.596-.403-.778-.642-.182-.242-.322-.443-.421-.602h-.159v1.341zm1.318-4.364c0 .659.096 1.241.29 1.745.193.5.475.892.846 1.176.371.28.826.42 1.364.42.561 0 1.028-.147 1.403-.443.379-.299.663-.701.853-1.204.193-.508.289-1.072.289-1.694 0-.613-.094-1.166-.284-1.659-.185-.496-.468-.888-.846-1.176-.375-.292-.847-.437-1.415-.437-.546 0-1.004.138-1.375.414-.371.273-.652.656-.841 1.148-.189.489-.284 1.059-.284 1.71zm12.016 4.546c-.84 0-1.566-.186-2.176-.557-.606-.375-1.074-.898-1.403-1.568-.326-.674-.489-1.459-.489-2.352 0-.894.163-1.682.489-2.364.329-.686.788-1.22 1.375-1.602.591-.387 1.28-.58 2.068-.58.455 0 .904.076 1.347.227.443.152.846.398 1.21.739.364.337.653.784.869 1.341s.324 1.242.324 2.057v.568h-6.727v-1.159h5.363c0-.493-.098-.932-.295-1.318-.193-.387-.47-.692-.83-.915-.356-.224-.776-.335-1.261-.335-.534 0-.996.132-1.386.397-.387.262-.684.603-.892 1.023-.209.421-.313.871-.313 1.352v.773c0 .659.114 1.218.341 1.676.231.455.551.801.96 1.04.409.235.885.352 1.426.352.353 0 .671-.049.955-.147.288-.103.536-.254.744-.455.209-.205.37-.458.483-.761l1.296.363c-.137.44-.366.826-.688 1.159-.322.33-.719.587-1.193.773-.473.182-1.006.273-1.597.273zm6.915-11.818v11.636h-1.341v-11.636z"/><path d="m464.5 519h-6v6c0 .265-.105.52-.293.707-.187.188-.442.293-.707.293s-.52-.105-.707-.293c-.188-.187-.293-.442-.293-.707v-6h-6c-.265 0-.52-.105-.707-.293-.188-.187-.293-.442-.293-.707s.105-.52.293-.707c.187-.188.442-.293.707-.293h6v-6c0-.265.105-.52.293-.707.187-.188.442-.293.707-.293s.52.105.707.293c.188.187.293.442.293.707v6h6c.265 0 .52.105.707.293.188.187.293.442.293.707s-.105.52-.293.707c-.187.188-.442.293-.707.293z"/><path d="m474.909 524v-11.636h1.409v10.386h5.409v1.25zm11.306.205c-.553 0-1.054-.105-1.505-.313-.451-.212-.809-.517-1.074-.915-.265-.401-.398-.886-.398-1.454 0-.5.099-.906.296-1.216.197-.315.46-.561.789-.739.33-.178.694-.31 1.091-.398.402-.09.805-.162 1.211-.215.53-.069.96-.12 1.289-.154.334-.038.576-.1.728-.187.155-.087.233-.239.233-.455v-.045c0-.561-.154-.997-.461-1.307-.303-.311-.763-.466-1.38-.466-.641 0-1.142.14-1.506.42-.364.281-.619.58-.767.898l-1.273-.454c.227-.531.53-.944.909-1.239.383-.299.8-.508 1.25-.625.455-.121.902-.182 1.341-.182.28 0 .602.034.966.102.368.065.722.199 1.063.404.344.204.63.513.858.926.227.413.34.966.34 1.659v5.75h-1.34v-1.182h-.069c-.091.19-.242.392-.454.608s-.494.4-.847.551c-.352.152-.782.228-1.29.228zm.205-1.205c.53 0 .977-.104 1.341-.312.367-.209.644-.478.829-.807.19-.33.285-.676.285-1.04v-1.227c-.057.068-.182.13-.375.187-.19.053-.41.101-.66.142-.246.038-.486.072-.721.102-.231.027-.419.05-.563.069-.348.045-.674.119-.977.221-.299.099-.542.248-.727.449-.182.197-.273.466-.273.807 0 .466.172.818.517 1.057.349.235.79.352 1.324.352zm6.345 1v-11.636h1.341v4.295h.113c.099-.151.235-.345.409-.579.178-.239.432-.451.762-.637.333-.189.784-.284 1.352-.284.735 0 1.383.184 1.943.551.561.368.998.888 1.313 1.563.314.674.471 1.469.471 2.386 0 .924-.157 1.725-.471 2.403-.315.675-.75 1.197-1.307 1.569-.557.367-1.199.551-1.926.551-.561 0-1.01-.093-1.347-.279-.337-.189-.596-.403-.778-.642-.182-.242-.322-.443-.421-.602h-.159v1.341zm1.318-4.364c0 .659.096 1.241.29 1.745.193.5.475.892.846 1.176.371.28.826.42 1.364.42.561 0 1.028-.147 1.403-.443.379-.299.663-.701.853-1.204.193-.508.289-1.072.289-1.694 0-.613-.094-1.166-.284-1.659-.185-.496-.468-.888-.846-1.176-.375-.292-.847-.437-1.415-.437-.546 0-1.004.138-1.375.414-.371.273-.652.656-.841 1.148-.189.489-.284 1.059-.284 1.71zm12.016 4.546c-.84 0-1.566-.186-2.176-.557-.606-.375-1.074-.898-1.403-1.568-.326-.674-.489-1.459-.489-2.352 0-.894.163-1.682.489-2.364.329-.686.788-1.22 1.375-1.602.591-.387 1.28-.58 2.068-.58.455 0 .904.076 1.347.227.443.152.846.398 1.21.739.364.337.653.784.869 1.341s.324 1.242.324 2.057v.568h-6.727v-1.159h5.363c0-.493-.098-.932-.295-1.318-.193-.387-.47-.692-.83-.915-.356-.224-.776-.335-1.261-.335-.534 0-.996.132-1.386.397-.387.262-.684.603-.892 1.023-.209.421-.313.871-.313 1.352v.773c0 .659.114 1.218.341 1.676.231.455.551.801.96 1.04.409.235.885.352 1.426.352.353 0 .671-.049.955-.147.288-.103.536-.254.744-.455.209-.205.37-.458.483-.761l1.296.363c-.137.44-.366.826-.688 1.159-.322.33-.719.587-1.193.773-.473.182-1.006.273-1.597.273zm6.915-11.818v11.636h-1.341v-11.636z"/></g><rect fill="#f8f8f8" height="40" rx="8" width="158" x="402" y="428"/><path d="m462.409 454v-11.636h1.409v10.386h5.409v1.25zm11.306.205c-.553 0-1.054-.105-1.505-.313-.451-.212-.809-.517-1.074-.915-.265-.401-.398-.886-.398-1.454 0-.5.099-.906.296-1.216.197-.315.46-.561.789-.739.33-.178.694-.31 1.091-.398.402-.09.805-.162 1.211-.215.53-.069.96-.12 1.289-.154.334-.038.576-.1.728-.187.155-.087.233-.239.233-.455v-.045c0-.561-.154-.997-.461-1.307-.303-.311-.763-.466-1.38-.466-.641 0-1.142.14-1.506.42-.364.281-.619.58-.767.898l-1.273-.454c.227-.531.53-.944.909-1.239.383-.299.8-.508 1.25-.625.455-.121.902-.182 1.341-.182.28 0 .602.034.966.102.368.065.722.199 1.063.404.344.204.63.513.858.926.227.413.34.966.34 1.659v5.75h-1.34v-1.182h-.069c-.091.19-.242.392-.454.608s-.494.4-.847.551c-.352.152-.782.228-1.29.228zm.205-1.205c.53 0 .977-.104 1.341-.312.367-.209.644-.478.829-.807.19-.33.285-.676.285-1.04v-1.227c-.057.068-.182.13-.375.187-.19.053-.41.101-.66.142-.246.038-.486.072-.721.102-.231.027-.419.05-.563.069-.348.045-.674.119-.977.221-.299.099-.542.248-.727.449-.182.197-.273.466-.273.807 0 .466.172.818.517 1.057.349.235.79.352 1.324.352zm6.345 1v-11.636h1.341v4.295h.113c.099-.151.235-.345.409-.579.178-.239.432-.451.762-.637.333-.189.784-.284 1.352-.284.735 0 1.383.184 1.943.551.561.368.998.888 1.313 1.563.314.674.471 1.469.471 2.386 0 .924-.157 1.725-.471 2.403-.315.675-.75 1.197-1.307 1.569-.557.367-1.199.551-1.926.551-.561 0-1.01-.093-1.347-.279-.337-.189-.596-.403-.778-.642-.182-.242-.322-.443-.421-.602h-.159v1.341zm1.318-4.364c0 .659.096 1.241.29 1.745.193.5.475.892.846 1.176.371.28.826.42 1.364.42.561 0 1.028-.147 1.403-.443.379-.299.663-.701.853-1.204.193-.508.289-1.072.289-1.694 0-.613-.094-1.166-.284-1.659-.185-.496-.468-.888-.846-1.176-.375-.292-.847-.437-1.415-.437-.546 0-1.004.138-1.375.414-.371.273-.652.656-.841 1.148-.189.489-.284 1.059-.284 1.71zm12.016 4.546c-.84 0-1.566-.186-2.176-.557-.606-.375-1.074-.898-1.403-1.568-.326-.674-.489-1.459-.489-2.352 0-.894.163-1.682.489-2.364.329-.686.788-1.22 1.375-1.602.591-.387 1.28-.58 2.068-.58.455 0 .904.076 1.347.227.443.152.846.398 1.21.739.364.337.653.784.869 1.341s.324 1.242.324 2.057v.568h-6.727v-1.159h5.363c0-.493-.098-.932-.295-1.318-.193-.387-.47-.692-.83-.915-.356-.224-.776-.335-1.261-.335-.534 0-.996.132-1.386.397-.387.262-.684.603-.892 1.023-.209.421-.313.871-.313 1.352v.773c0 .659.114 1.218.341 1.676.231.455.551.801.96 1.04.409.235.885.352 1.426.352.353 0 .671-.049.955-.147.288-.103.536-.254.744-.455.209-.205.37-.458.483-.761l1.296.363c-.137.44-.366.826-.688 1.159-.322.33-.719.587-1.193.773-.473.182-1.006.273-1.597.273zm6.915-11.818v11.636h-1.341v-11.636z" fill="#b9b9b9"/><g opacity=".9"><rect fill="#efebf4" height="40" rx="8" width="158" x="221" y="358"/><g fill="#5600af"><path d="m283.5 379h-6v6c0 .265-.105.52-.293.707-.187.188-.442.293-.707.293s-.52-.105-.707-.293c-.188-.187-.293-.442-.293-.707v-6h-6c-.265 0-.52-.105-.707-.293-.188-.187-.293-.442-.293-.707s.105-.52.293-.707c.187-.188.442-.293.707-.293h6v-6c0-.265.105-.52.293-.707.187-.188.442-.293.707-.293s.52.105.707.293c.188.187.293.442.293.707v6h6c.265 0 .52.105.707.293.188.187.293.442.293.707s-.105.52-.293.707c-.187.188-.442.293-.707.293z"/><path d="m293.909 384v-11.636h1.409v10.386h5.409v1.25zm11.306.205c-.553 0-1.054-.105-1.505-.313-.451-.212-.809-.517-1.074-.915-.265-.401-.398-.886-.398-1.454 0-.5.099-.906.296-1.216.197-.315.46-.561.789-.739.33-.178.694-.31 1.091-.398.402-.09.805-.162 1.211-.215.53-.069.96-.12 1.289-.154.334-.038.576-.1.728-.187.155-.087.233-.239.233-.455v-.045c0-.561-.154-.997-.461-1.307-.303-.311-.763-.466-1.38-.466-.641 0-1.142.14-1.506.42-.364.281-.619.58-.767.898l-1.273-.454c.227-.531.53-.944.909-1.239.383-.299.8-.508 1.25-.625.455-.121.902-.182 1.341-.182.28 0 .602.034.966.102.368.065.722.199 1.063.404.344.204.63.513.858.926.227.413.34.966.34 1.659v5.75h-1.34v-1.182h-.069c-.091.19-.242.392-.454.608s-.494.4-.847.551c-.352.152-.782.228-1.29.228zm.205-1.205c.53 0 .977-.104 1.341-.312.367-.209.644-.478.829-.807.19-.33.285-.676.285-1.04v-1.227c-.057.068-.182.13-.375.187-.19.053-.41.101-.66.142-.246.038-.486.072-.721.102-.231.027-.419.05-.563.069-.348.045-.674.119-.977.221-.299.099-.542.248-.727.449-.182.197-.273.466-.273.807 0 .466.172.818.517 1.057.349.235.79.352 1.324.352zm6.345 1v-11.636h1.341v4.295h.113c.099-.151.235-.345.409-.579.178-.239.432-.451.762-.637.333-.189.784-.284 1.352-.284.735 0 1.383.184 1.943.551.561.368.998.888 1.313 1.563.314.674.471 1.469.471 2.386 0 .924-.157 1.725-.471 2.403-.315.675-.75 1.197-1.307 1.569-.557.367-1.199.551-1.926.551-.561 0-1.01-.093-1.347-.279-.337-.189-.596-.403-.778-.642-.182-.242-.322-.443-.421-.602h-.159v1.341zm1.318-4.364c0 .659.096 1.241.29 1.745.193.5.475.892.846 1.176.371.28.826.42 1.364.42.561 0 1.028-.147 1.403-.443.379-.299.663-.701.853-1.204.193-.508.289-1.072.289-1.694 0-.613-.094-1.166-.284-1.659-.185-.496-.468-.888-.846-1.176-.375-.292-.847-.437-1.415-.437-.546 0-1.004.138-1.375.414-.371.273-.652.656-.841 1.148-.189.489-.284 1.059-.284 1.71zm12.016 4.546c-.84 0-1.566-.186-2.176-.557-.606-.375-1.074-.898-1.403-1.568-.326-.674-.489-1.459-.489-2.352 0-.894.163-1.682.489-2.364.329-.686.788-1.22 1.375-1.602.591-.387 1.28-.58 2.068-.58.455 0 .904.076 1.347.227.443.152.846.398 1.21.739.364.337.653.784.869 1.341s.324 1.242.324 2.057v.568h-6.727v-1.159h5.363c0-.493-.098-.932-.295-1.318-.193-.387-.47-.692-.83-.915-.356-.224-.776-.335-1.261-.335-.534 0-.996.132-1.386.397-.387.262-.684.603-.892 1.023-.209.421-.313.871-.313 1.352v.773c0 .659.114 1.218.341 1.676.231.455.551.801.96 1.04.409.235.885.352 1.426.352.353 0 .671-.049.955-.147.288-.103.536-.254.744-.455.209-.205.37-.458.483-.761l1.296.363c-.137.44-.366.826-.688 1.159-.322.33-.719.587-1.193.773-.473.182-1.006.273-1.597.273zm6.915-11.818v11.636h-1.341v-11.636z"/></g></g><path d="m283.5 519h-6v6c0 .265-.105.52-.293.707-.187.188-.442.293-.707.293s-.52-.105-.707-.293c-.188-.187-.293-.442-.293-.707v-6h-6c-.265 0-.52-.105-.707-.293-.188-.187-.293-.442-.293-.707s.105-.52.293-.707c.187-.188.442-.293.707-.293h6v-6c0-.265.105-.52.293-.707.187-.188.442-.293.707-.293s.52.105.707.293c.188.187.293.442.293.707v6h6c.265 0 .52.105.707.293.188.187.293.442.293.707s-.105.52-.293.707c-.187.188-.442.293-.707.293z" fill="#5600af"/><path d="m293.909 524v-11.636h1.409v10.386h5.409v1.25zm11.306.205c-.553 0-1.054-.105-1.505-.313-.451-.212-.809-.517-1.074-.915-.265-.401-.398-.886-.398-1.454 0-.5.099-.906.296-1.216.197-.315.46-.561.789-.739.33-.178.694-.31 1.091-.398.402-.09.805-.162 1.211-.215.53-.069.96-.12 1.289-.154.334-.038.576-.1.728-.187.155-.087.233-.239.233-.455v-.045c0-.561-.154-.997-.461-1.307-.303-.311-.763-.466-1.38-.466-.641 0-1.142.14-1.506.42-.364.281-.619.58-.767.898l-1.273-.454c.227-.531.53-.944.909-1.239.383-.299.8-.508 1.25-.625.455-.121.902-.182 1.341-.182.28 0 .602.034.966.102.368.065.722.199 1.063.404.344.204.63.513.858.926.227.413.34.966.34 1.659v5.75h-1.34v-1.182h-.069c-.091.19-.242.392-.454.608s-.494.4-.847.551c-.352.152-.782.228-1.29.228zm.205-1.205c.53 0 .977-.104 1.341-.312.367-.209.644-.478.829-.807.19-.33.285-.676.285-1.04v-1.227c-.057.068-.182.13-.375.187-.19.053-.41.101-.66.142-.246.038-.486.072-.721.102-.231.027-.419.05-.563.069-.348.045-.674.119-.977.221-.299.099-.542.248-.727.449-.182.197-.273.466-.273.807 0 .466.172.818.517 1.057.349.235.79.352 1.324.352zm6.345 1v-11.636h1.341v4.295h.113c.099-.151.235-.345.409-.579.178-.239.432-.451.762-.637.333-.189.784-.284 1.352-.284.735 0 1.383.184 1.943.551.561.368.998.888 1.313 1.563.314.674.471 1.469.471 2.386 0 .924-.157 1.725-.471 2.403-.315.675-.75 1.197-1.307 1.569-.557.367-1.199.551-1.926.551-.561 0-1.01-.093-1.347-.279-.337-.189-.596-.403-.778-.642-.182-.242-.322-.443-.421-.602h-.159v1.341zm1.318-4.364c0 .659.096 1.241.29 1.745.193.5.475.892.846 1.176.371.28.826.42 1.364.42.561 0 1.028-.147 1.403-.443.379-.299.663-.701.853-1.204.193-.508.289-1.072.289-1.694 0-.613-.094-1.166-.284-1.659-.185-.496-.468-.888-.846-1.176-.375-.292-.847-.437-1.415-.437-.546 0-1.004.138-1.375.414-.371.273-.652.656-.841 1.148-.189.489-.284 1.059-.284 1.71zm12.016 4.546c-.84 0-1.566-.186-2.176-.557-.606-.375-1.074-.898-1.403-1.568-.326-.674-.489-1.459-.489-2.352 0-.894.163-1.682.489-2.364.329-.686.788-1.22 1.375-1.602.591-.387 1.28-.58 2.068-.58.455 0 .904.076 1.347.227.443.152.846.398 1.21.739.364.337.653.784.869 1.341s.324 1.242.324 2.057v.568h-6.727v-1.159h5.363c0-.493-.098-.932-.295-1.318-.193-.387-.47-.692-.83-.915-.356-.224-.776-.335-1.261-.335-.534 0-.996.132-1.386.397-.387.262-.684.603-.892 1.023-.209.421-.313.871-.313 1.352v.773c0 .659.114 1.218.341 1.676.231.455.551.801.96 1.04.409.235.885.352 1.426.352.353 0 .671-.049.955-.147.288-.103.536-.254.744-.455.209-.205.37-.458.483-.761l1.296.363c-.137.44-.366.826-.688 1.159-.322.33-.719.587-1.193.773-.473.182-1.006.273-1.597.273zm6.915-11.818v11.636h-1.341v-11.636z" fill="#5600af"/><g opacity=".9"><rect fill="#efebf4" height="40" rx="8" width="158" x="221" y="428"/><path d="m281.409 454v-11.636h1.409v10.386h5.409v1.25zm11.306.205c-.553 0-1.054-.105-1.505-.313-.451-.212-.809-.517-1.074-.915-.265-.401-.398-.886-.398-1.454 0-.5.099-.906.296-1.216.197-.315.46-.561.789-.739.33-.178.694-.31 1.091-.398.402-.09.805-.162 1.211-.215.53-.069.96-.12 1.289-.154.334-.038.576-.1.728-.187.155-.087.233-.239.233-.455v-.045c0-.561-.154-.997-.461-1.307-.303-.311-.763-.466-1.38-.466-.641 0-1.142.14-1.506.42-.364.281-.619.58-.767.898l-1.273-.454c.227-.531.53-.944.909-1.239.383-.299.8-.508 1.25-.625.455-.121.902-.182 1.341-.182.28 0 .602.034.966.102.368.065.722.199 1.063.404.344.204.63.513.858.926.227.413.34.966.34 1.659v5.75h-1.34v-1.182h-.069c-.091.19-.242.392-.454.608s-.494.4-.847.551c-.352.152-.782.228-1.29.228zm.205-1.205c.53 0 .977-.104 1.341-.312.367-.209.644-.478.829-.807.19-.33.285-.676.285-1.04v-1.227c-.057.068-.182.13-.375.187-.19.053-.41.101-.66.142-.246.038-.486.072-.721.102-.231.027-.419.05-.563.069-.348.045-.674.119-.977.221-.299.099-.542.248-.727.449-.182.197-.273.466-.273.807 0 .466.172.818.517 1.057.349.235.79.352 1.324.352zm6.345 1v-11.636h1.341v4.295h.113c.099-.151.235-.345.409-.579.178-.239.432-.451.762-.637.333-.189.784-.284 1.352-.284.735 0 1.383.184 1.943.551.561.368.998.888 1.313 1.563.314.674.471 1.469.471 2.386 0 .924-.157 1.725-.471 2.403-.315.675-.75 1.197-1.307 1.569-.557.367-1.199.551-1.926.551-.561 0-1.01-.093-1.347-.279-.337-.189-.596-.403-.778-.642-.182-.242-.322-.443-.421-.602h-.159v1.341zm1.318-4.364c0 .659.096 1.241.29 1.745.193.5.475.892.846 1.176.371.28.826.42 1.364.42.561 0 1.028-.147 1.403-.443.379-.299.663-.701.853-1.204.193-.508.289-1.072.289-1.694 0-.613-.094-1.166-.284-1.659-.185-.496-.468-.888-.846-1.176-.375-.292-.847-.437-1.415-.437-.546 0-1.004.138-1.375.414-.371.273-.652.656-.841 1.148-.189.489-.284 1.059-.284 1.71zm12.016 4.546c-.84 0-1.566-.186-2.176-.557-.606-.375-1.074-.898-1.403-1.568-.326-.674-.489-1.459-.489-2.352 0-.894.163-1.682.489-2.364.329-.686.788-1.22 1.375-1.602.591-.387 1.28-.58 2.068-.58.455 0 .904.076 1.347.227.443.152.846.398 1.21.739.364.337.653.784.869 1.341s.324 1.242.324 2.057v.568h-6.727v-1.159h5.363c0-.493-.098-.932-.295-1.318-.193-.387-.47-.692-.83-.915-.356-.224-.776-.335-1.261-.335-.534 0-.996.132-1.386.397-.387.262-.684.603-.892 1.023-.209.421-.313.871-.313 1.352v.773c0 .659.114 1.218.341 1.676.231.455.551.801.96 1.04.409.235.885.352 1.426.352.353 0 .671-.049.955-.147.288-.103.536-.254.744-.455.209-.205.37-.458.483-.761l1.296.363c-.137.44-.366.826-.688 1.159-.322.33-.719.587-1.193.773-.473.182-1.006.273-1.597.273zm6.915-11.818v11.636h-1.341v-11.636z" fill="#5600af"/></g><path d="m41.517 65v-17.4545h6.9887c1.2841 0 2.3551.1903 3.2131.571.8579.3807 1.5028.9091 1.9346 1.5852.4318.6705.6477 1.4432.6477 2.3182 0 .6818-.1363 1.2812-.4091 1.7983-.2727.5113-.6477.9318-1.125 1.2613-.4715.3239-1.0113.554-1.6193.6904v.1704c.6648.0284 1.287.2159 1.8665.5625.5852.3466 1.0597.8324 1.4233 1.4574.3636.6193.5455 1.358.5455 2.2159 0 .9262-.2302 1.7529-.6904 2.4801-.4545.7216-1.1278 1.2927-2.0199 1.7131-.892.4205-1.9914.6307-3.2983.6307zm3.6904-3.017h3.0085c1.0284 0 1.7784-.1961 2.25-.5881.4716-.3977.7074-.9262.7074-1.5852 0-.483-.1165-.9091-.3494-1.2785-.233-.3693-.5654-.659-.9972-.8693-.4261-.2102-.9347-.3153-1.5256-.3153h-3.0937zm0-7.1336h2.7358c.5057 0 .9545-.088 1.3466-.2642.3977-.1818.7102-.4375.9375-.767.2329-.3296.3494-.7244.3494-1.1847 0-.6307-.2244-1.1392-.6733-1.5255-.4432-.3864-1.0739-.5796-1.892-.5796h-2.804zm20.5035 4.5767v-7.517h3.6307v13.0909h-3.4858v-2.3778h-.1363c-.2955.767-.787 1.3835-1.4745 1.8494-.6818.4659-1.5142.6989-2.4971.6989-.875 0-1.6449-.1989-2.3097-.5966-.6648-.3978-1.1846-.9631-1.5596-1.6961-.3694-.7329-.5569-1.6108-.5625-2.6335v-8.3352h3.6306v7.6875c.0057.7727.2131 1.3835.6222 1.8324.4091.4488.9574.6733 1.6449.6733.4375 0 .8466-.0995 1.2273-.2983.3806-.2046.6875-.5057.9204-.9034.2386-.3978.3551-.8892.3494-1.4745zm13.4979-7.517v2.7273h-7.8835v-2.7273zm-6.0937-3.1364h3.6306v12.2046c0 .3352.0512.5966.1534.7841.1023.1818.2444.3096.4262.3835.1875.0738.4034.1108.6477.1108.1705 0 .3409-.0142.5114-.0426.1704-.0341.3011-.0597.392-.0767l.571 2.7017c-.1818.0568-.4375.1221-.767.196-.3295.0795-.7301.1278-1.2017.1449-.875.0341-1.6421-.0824-2.3011-.3495-.6535-.267-1.162-.6818-1.5256-1.2443s-.5426-1.2727-.5369-2.1307zm15.4218 3.1364v2.7273h-7.8835v-2.7273zm-6.0937-3.1364h3.6307v12.2046c0 .3352.0511.5966.1534.7841.1022.1818.2443.3096.4261.3835.1875.0738.4034.1108.6477.1108.1705 0 .3409-.0142.5114-.0426.1705-.0341.3011-.0597.392-.0767l.5711 2.7017c-.1818.0568-.4375.1221-.7671.196-.3295.0795-.7301.1278-1.2017.1449-.875.0341-1.642-.0824-2.3011-.3495-.6534-.267-1.1619-.6818-1.5256-1.2443-.3636-.5625-.5426-1.2727-.5369-2.1307zm14.2329 16.483c-1.3238 0-2.4687-.2813-3.4346-.8438-.9602-.5682-1.7017-1.3579-2.2245-2.3693-.5227-1.017-.784-2.196-.784-3.5369 0-1.3523.2613-2.5341.784-3.5455.5228-1.017 1.2643-1.8068 2.2245-2.3693.9659-.5682 2.1108-.8523 3.4346-.8523 1.3239 0 2.4659.2841 3.4259.8523.966.5625 1.71 1.3523 2.233 2.3693.523 1.0114.784 2.1932.784 3.5455 0 1.3409-.261 2.5199-.784 3.5369-.523 1.0114-1.267 1.8011-2.233 2.3693-.96.5625-2.102.8438-3.4259.8438zm.0171-2.8125c.6023 0 1.1051-.1705 1.5085-.5114.4034-.3466.7074-.8182.9119-1.4148.2103-.5965.3154-1.2755.3154-2.0369 0-.7613-.1051-1.4403-.3154-2.0369-.2045-.5966-.5085-1.0682-.9119-1.4148s-.9062-.5199-1.5085-.5199c-.608 0-1.1193.1733-1.5341.5199-.4091.3466-.7188.8182-.929 1.4148-.2045.5966-.3068 1.2756-.3068 2.0369 0 .7614.1023 1.4404.3068 2.0369.2102.5966.5199 1.0682.929 1.4148.4148.3409.9261.5114 1.5341.5114zm12.4178-5.0114v7.5682h-3.631v-13.0909h3.46v2.3097h.154c.29-.7614.775-1.3637 1.457-1.8069.682-.4488 1.509-.6733 2.48-.6733.909 0 1.702.1989 2.378.5966.676.3978 1.202.9659 1.577 1.7046.375.7329.562 1.6079.562 2.625v8.3352h-3.63v-7.6875c.005-.8011-.199-1.4261-.614-1.875-.415-.4545-.986-.6818-1.713-.6818-.489 0-.921.1051-1.296.3153-.369.2102-.659.5171-.869.9205-.204.3977-.31.8778-.315 1.4403zm22.191-1.7898-3.324.2046c-.057-.2841-.179-.5398-.366-.7671-.188-.2329-.435-.4176-.742-.5539-.301-.1421-.662-.2131-1.082-.2131-.563 0-1.037.1193-1.424.358-.386.2329-.579.5454-.579.9375 0 .3125.125.5767.375.7926s.679.3892 1.287.5199l2.369.4772c1.273.2614 2.222.6818 2.847 1.2614.625.5795.937 1.3409.937 2.2841 0 .8579-.253 1.6108-.758 2.2585-.5.6477-1.188 1.1534-2.063 1.5171-.869.3579-1.872.5369-3.008.5369-1.733 0-3.114-.3608-4.142-1.0824-1.023-.7273-1.623-1.7159-1.799-2.9659l3.571-.1875c.108.5284.37.9318.784 1.2102.415.2727.946.4091 1.594.4091.636 0 1.148-.1222 1.534-.3665.392-.25.591-.571.597-.963-.006-.3296-.145-.5995-.418-.8097-.273-.2159-.693-.3807-1.261-.4943l-2.267-.4517c-1.279-.2557-2.23-.6989-2.855-1.3296-.62-.6307-.929-1.4346-.929-2.4119 0-.8409.227-1.5653.682-2.1733.46-.608 1.105-1.0767 1.934-1.4062.835-.3296 1.813-.4944 2.932-.4944 1.653 0 2.955.3495 3.903 1.0483.955.6989 1.512 1.6506 1.671 2.8551z" fill="#262626"/></svg>