<svg fill="none" height="702" viewBox="0 0 779 702" width="779" xmlns="http://www.w3.org/2000/svg"><path d="m0 0h779v702h-779z" fill="#fff"/><path d="m56.9176 53.6562h-3.7329c-.0682-.4829-.2074-.9119-.4177-1.2869-.2102-.3807-.4801-.7045-.8096-.9716-.3296-.267-.7102-.4716-1.1421-.6136-.4261-.1421-.8892-.2131-1.3892-.2131-.9034 0-1.6903.2245-2.3608.6733-.6704.4432-1.1903 1.0909-1.5596 1.9432-.3693.8466-.554 1.875-.554 3.0852 0 1.2443.1847 2.2898.554 3.1364.375.8466.8977 1.4858 1.5682 1.9176.6704.4318 1.446.6477 2.3267.6477.4943 0 .9517-.0653 1.3721-.196.4262-.1307.804-.321 1.1335-.571.3296-.2557.6023-.5654.8182-.929.2216-.3636.375-.7784.4603-1.2443l3.7329.017c-.0966.8012-.3381 1.5739-.7244 2.3182-.3807.7387-.8949 1.4006-1.5426 1.9858-.6421.5796-1.4091 1.0398-2.3012 1.3807-.8863.3352-1.8892.5028-3.0085.5028-1.5568 0-2.9489-.3522-4.1761-1.0568-1.2216-.7045-2.1875-1.7244-2.8978-3.0596-.7045-1.3353-1.0568-2.9517-1.0568-4.8495 0-1.9034.358-3.5227 1.0739-4.8579.7159-1.3353 1.6875-2.3523 2.9148-3.0512 1.2272-.7045 2.6079-1.0568 4.142-1.0568 1.0114 0 1.9489.1421 2.8125.4262.8693.284 1.6392.6988 2.3097 1.2443.6704.5397 1.2159 1.2017 1.6363 1.9858.4262.7841.6989 1.6818.8182 2.6931zm8.4929 11.5995c-1.3239 0-2.4687-.2813-3.4346-.8438-.9603-.5682-1.7018-1.3579-2.2245-2.3693-.5227-1.017-.7841-2.196-.7841-3.5369 0-1.3523.2614-2.5341.7841-3.5455.5227-1.017 1.2642-1.8068 2.2245-2.3693.9659-.5682 2.1107-.8523 3.4346-.8523s2.4659.2841 3.4261.8523c.966.5625 1.7103 1.3523 2.233 2.3693.5227 1.0114.7841 2.1932.7841 3.5455 0 1.3409-.2614 2.5199-.7841 3.5369-.5227 1.0114-1.267 1.8011-2.233 2.3693-.9602.5625-2.1022.8438-3.4261.8438zm.0171-2.8125c.6022 0 1.1051-.1705 1.5085-.5114.4034-.3466.7074-.8182.9119-1.4148.2102-.5965.3154-1.2755.3154-2.0369 0-.7613-.1052-1.4403-.3154-2.0369-.2045-.5966-.5085-1.0682-.9119-1.4148s-.9063-.5199-1.5085-.5199c-.608 0-1.1194.1733-1.5341.5199-.4091.3466-.7188.8182-.929 1.4148-.2046.5966-.3068 1.2756-.3068 2.0369 0 .7614.1022 1.4404.3068 2.0369.2102.5966.5199 1.0682.929 1.4148.4147.3409.9261.5114 1.5341.5114zm12.4176-14.8977v17.4545h-3.6307v-17.4545zm8.8231 17.7102c-1.3238 0-2.4687-.2813-3.4346-.8438-.9603-.5682-1.7017-1.3579-2.2245-2.3693-.5227-1.017-.7841-2.196-.7841-3.5369 0-1.3523.2614-2.5341.7841-3.5455.5228-1.017 1.2642-1.8068 2.2245-2.3693.9659-.5682 2.1108-.8523 3.4346-.8523 1.3239 0 2.4659.2841 3.4262.8523.9659.5625 1.7102 1.3523 2.2329 2.3693.5227 1.0114.7841 2.1932.7841 3.5455 0 1.3409-.2614 2.5199-.7841 3.5369-.5227 1.0114-1.267 1.8011-2.2329 2.3693-.9603.5625-2.1023.8438-3.4262.8438zm.0171-2.8125c.6022 0 1.1051-.1705 1.5085-.5114.4034-.3466.7074-.8182.9119-1.4148.2103-.5965.3154-1.2755.3154-2.0369 0-.7613-.1051-1.4403-.3154-2.0369-.2045-.5966-.5085-1.0682-.9119-1.4148s-.9063-.5199-1.5085-.5199c-.608 0-1.1193.1733-1.5341.5199-.4091.3466-.7188.8182-.929 1.4148-.2045.5966-.3068 1.2756-.3068 2.0369 0 .7614.1023 1.4404.3068 2.0369.2102.5966.5199 1.0682.929 1.4148.4148.3409.9261.5114 1.5341.5114zm8.7869 2.5568v-13.0909h3.5199v2.2841h.1364c.2386-.8125.6392-1.4262 1.2014-1.8409.563-.4205 1.21-.6307 1.943-.6307.182 0 .378.0114.589.0341.21.0227.394.054.553.0937v3.2216c-.17-.0511-.406-.0966-.707-.1363-.301-.0398-.577-.0597-.827-.0597-.534 0-1.011.1165-1.431.3494-.415.2273-.7447.5455-.9891.9546-.2386.4091-.3579.8807-.3579 1.4148v7.4062zm20.7127-9.358-3.324.2046c-.057-.2841-.179-.5398-.367-.7671-.187-.2329-.434-.4176-.741-.5539-.301-.1421-.662-.2131-1.083-.2131-.562 0-1.036.1193-1.423.358-.386.2329-.579.5454-.579.9375 0 .3125.125.5767.375.7926s.679.3892 1.287.5199l2.369.4772c1.273.2614 2.221.6818 2.846 1.2614.625.5795.938 1.3409.938 2.2841 0 .8579-.253 1.6108-.759 2.2585-.5.6477-1.187 1.1534-2.062 1.5171-.869.3579-1.872.5369-3.009.5369-1.733 0-3.113-.3608-4.142-1.0824-1.022-.7273-1.622-1.7159-1.798-2.9659l3.571-.1875c.108.5284.369.9318.784 1.2102.415.2727.946.4091 1.594.4091.636 0 1.148-.1222 1.534-.3665.392-.25.591-.571.597-.963-.006-.3296-.145-.5995-.418-.8097-.273-.2159-.693-.3807-1.261-.4943l-2.267-.4517c-1.279-.2557-2.231-.6989-2.856-1.3296-.619-.6307-.929-1.4346-.929-2.4119 0-.8409.228-1.5653.682-2.1733.461-.608 1.105-1.0767 1.935-1.4062.835-.3296 1.812-.4944 2.932-.4944 1.653 0 2.954.3495 3.903 1.0483.955.6989 1.512 1.6506 1.671 2.8551z" fill="#262626"/><rect fill="#262626" height="56" rx="8" width="338" x="41" y="112"/><rect fill="#fff" height="55" rx="7.5" stroke="#000" width="330" x="408.5" y="112.5"/><path d="m73.794 193.139c-.7126 0-1.3423-.122-1.8892-.368-.5436-.245-.9695-.583-1.2777-1.014s-.4607-.921-.4574-1.471c-.0033-.431.0845-.827.2635-1.189.1823-.364.4292-.668.7408-.909.3115-.246.6595-.402 1.044-.468v-.059c-.5071-.123-.9131-.395-1.218-.816s-.4558-.905-.4524-1.452c-.0034-.52.1342-.984.4126-1.392.2817-.411.6679-.734 1.1584-.969s1.049-.353 1.6754-.353c.6198 0 1.1733.119 1.6605.358.4906.235.8767.558 1.1584.969.2817.408.4242.87.4276 1.387-.0034.547-.1591 1.031-.4674 1.452-.3082.421-.7092.693-1.2031.816v.059c.3812.066.7242.222 1.0291.468.3083.241.5535.545.7358.909.1856.362.2801.758.2834 1.189-.0033.55-.1591 1.04-.4673 1.471-.3083.431-.7358.769-1.2827 1.014-.5436.246-1.1683.368-1.8743.368zm0-1.258c.4209 0 .7855-.069 1.0938-.208.3082-.143.5468-.34.7159-.592.169-.255.2552-.554.2585-.895-.0033-.355-.0961-.668-.2784-.94-.179-.271-.4226-.485-.7308-.641-.3083-.156-.6613-.234-1.059-.234-.401 0-.7573.078-1.0689.234-.3115.156-.5568.37-.7358.641-.179.272-.2668.585-.2635.94-.0033.341.0779.64.2436.895.1691.252.4094.449.7209.592.3116.139.6795.208 1.1037.208zm0-4.738c.3381 0 .638-.067.8999-.203.2618-.136.4673-.325.6164-.567.1525-.242.2304-.525.2337-.85-.0033-.318-.0795-.597-.2287-.835-.1458-.239-.3496-.423-.6115-.552-.2618-.133-.5651-.199-.9098-.199-.3513 0-.6596.066-.9247.199-.2618.129-.4657.313-.6115.552-.1458.238-.2171.517-.2138.835-.0033.325.0696.608.2188.85.1491.242.3546.431.6164.567.2652.136.5701.203.9148.203zm8.7662 5.996c-.6231 0-1.1833-.119-1.6804-.358-.4939-.242-.8883-.573-1.1833-.994-.2949-.421-.4524-.902-.4723-1.442h1.4915c.0365.438.2304.797.5817 1.079s.7722.423 1.2628.423c.3911 0 .7374-.09 1.039-.269.305-.182.5436-.432.7159-.751.1757-.318.2635-.681.2635-1.088 0-.415-.0895-.784-.2684-1.109-.179-.325-.4259-.58-.7408-.766-.3116-.185-.6695-.28-1.0739-.283-.3082 0-.6181.053-.9296.159-.3116.106-.5635.245-.7557.418l-1.407-.209.5717-5.131h5.5981v1.318h-4.3204l-.3231 2.848h.0596c.1989-.192.4624-.353.7905-.482.3315-.129.6861-.194 1.064-.194.6197 0 1.1716.148 1.6555.443.4872.295.87.697 1.1484 1.208.2818.507.421 1.09.4176 1.75.0034.659-.1458 1.248-.4474 1.765-.2983.517-.7126.924-1.2429 1.223-.527.295-1.1319.442-1.8146.442zm10.6354-2.048v-.537c.0034-.384.0846-.736.2437-1.054.1624-.321.3977-.578.7059-.771.3083-.195.6828-.293 1.1236-.293.4508 0 .8286.096 1.1335.288.3049.193.5353.45.6911.771.1591.322.2386.675.2386 1.059v.537c0 .384-.0795.737-.2386 1.059-.1591.318-.3928.575-.701.77-.3049.193-.6795.289-1.1236.289-.4474 0-.8253-.096-1.1335-.289-.3083-.195-.5419-.452-.701-.77-.1558-.322-.2353-.675-.2387-1.059zm1.1584-.537v.537c.0033.285.0713.543.2039.775.1359.232.3728.348.7109.348.3348 0 .5684-.116.701-.348s.1989-.49.1989-.775v-.537c0-.285-.0647-.544-.1939-.776-.126-.232-.3613-.348-.706-.348-.3314 0-.5668.116-.706.348-.1359.232-.2055.491-.2088.776zm-6.2791-5.29v-.537c0-.384.0796-.737.2386-1.059.1624-.321.3978-.578.706-.77.3116-.193.6877-.289 1.1286-.289.4507 0 .8286.096 1.1335.289.3049.192.5353.449.691.77.1558.322.2337.675.2337 1.059v.537c0 .385-.0795.738-.2386 1.059-.1558.318-.3878.575-.6961.771-.3049.192-.6794.288-1.1235.288-.4508 0-.8303-.096-1.1385-.288-.305-.196-.537-.453-.6961-.771-.159-.321-.2386-.674-.2386-1.059zm1.1634-.537v.537c0 .285.0662.544.1988.776.1359.232.3729.348.711.348.3314 0 .5634-.116.696-.348.1359-.232.2038-.491.2038-.776v-.537c0-.285-.0646-.543-.1939-.775-.1292-.232-.3646-.348-.7059-.348-.3315 0-.5668.116-.706.348-.1359.232-.2038.49-.2038.775zm-.7508 8.273 7-10.182h1.1883l-7 10.182zm14.8315 0v-10.182h3.729c.722 0 1.321.119 1.794.358.474.235.829.555 1.064.96.236.401.353.853.353 1.357 0 .424-.077.782-.233 1.074-.156.288-.365.52-.627.696-.258.172-.543.298-.855.378v.099c.338.017.668.126.99.328.324.199.593.482.805.85s.318.816.318 1.343c0 .52-.123.987-.368 1.402-.242.411-.616.737-1.123.979-.507.239-1.155.358-1.944.358zm1.536-1.317h2.218c.735 0 1.262-.143 1.581-.428.318-.285.477-.641.477-1.069 0-.321-.081-.616-.244-.885-.162-.268-.394-.482-.696-.641-.298-.159-.653-.239-1.064-.239h-2.272zm0-4.46h2.059c.344 0 .654-.066.929-.199.279-.132.499-.318.661-.557.166-.242.249-.527.249-.855 0-.421-.147-.774-.442-1.059s-.748-.427-1.358-.427h-2.098zm8.991-4.405v10.182h-1.486v-10.182zm4.223 10.351c-.484 0-.922-.089-1.313-.268-.391-.183-.701-.446-.93-.791-.225-.345-.338-.767-.338-1.268 0-.431.083-.785.249-1.064.166-.278.389-.498.671-.661.282-.162.597-.285.945-.368s.702-.146 1.064-.189c.457-.053.828-.096 1.113-.129.285-.036.492-.094.622-.174.129-.079.194-.209.194-.388v-.034c0-.435-.123-.771-.368-1.01-.242-.238-.604-.358-1.084-.358-.501 0-.895.111-1.183.333-.285.219-.483.463-.592.731l-1.397-.318c.166-.464.408-.838.726-1.124.321-.288.691-.497 1.108-.626.418-.133.857-.199 1.318-.199.305 0 .628.037.969.11.345.069.667.198.965.387.301.189.548.459.741.811.192.348.288.8.288 1.357v5.071h-1.452v-1.044h-.059c-.097.192-.241.381-.433.567-.192.185-.439.339-.741.462-.301.123-.663.184-1.083.184zm.323-1.193c.411 0 .762-.081 1.054-.244.295-.162.518-.374.671-.636.156-.265.233-.549.233-.85v-.985c-.053.053-.155.103-.308.15-.149.043-.32.081-.512.114-.192.03-.379.058-.562.084-.182.024-.334.043-.457.06-.288.036-.552.098-.79.184-.236.086-.425.21-.567.373-.139.159-.209.371-.209.636 0 .368.136.647.408.835.271.186.618.279 1.039.279zm8.642 1.178c-.74 0-1.376-.167-1.91-.502-.53-.338-.938-.804-1.223-1.397s-.427-1.273-.427-2.038c0-.776.146-1.46.437-2.054.292-.596.703-1.062 1.233-1.397.531-.334 1.155-.502 1.875-.502.58 0 1.097.108 1.551.323.454.212.82.511 1.098.895.282.385.45.834.503 1.348h-1.447c-.08-.358-.262-.667-.547-.925-.282-.259-.66-.388-1.134-.388-.414 0-.777.109-1.088.328-.309.216-.549.524-.721.925-.173.398-.259.868-.259 1.412 0 .557.085 1.037.254 1.442.169.404.408.717.716.939.311.222.678.333 1.098.333.282 0 .537-.051.766-.154.232-.106.426-.257.582-.452.159-.196.27-.431.333-.706h1.447c-.053.494-.214.934-.483 1.322-.268.388-.628.693-1.078.915-.448.222-.973.333-1.576.333zm6.093-2.744-.009-1.815h.258l3.043-3.231h1.779l-3.47 3.679h-.233zm-1.367 2.59v-10.182h1.487v10.182zm4.823 0-2.735-3.629 1.024-1.039 3.535 4.668zm11.175-4.947v1.288h-4.515v-1.288zm9.504 4.947 1.671-10.182h1.193l-1.671 10.182zm-4.609-2.724.194-1.194h7.716l-.194 1.194zm1.03 2.724 1.67-10.182h1.193l-1.67 10.182zm-.438-6.264.194-1.193h7.716l-.194 1.193zm12.638 6.433c-.786-.003-1.457-.21-2.014-.621s-.982-1.01-1.277-1.795c-.295-.786-.443-1.732-.443-2.839 0-1.104.148-2.047.443-2.829.298-.782.725-1.379 1.282-1.79.56-.411 1.23-.616 2.009-.616s1.447.207 2.003.621c.557.411.983 1.008 1.278 1.79.298.779.447 1.72.447 2.824 0 1.11-.147 2.058-.442 2.844-.295.782-.721 1.38-1.278 1.795-.557.411-1.226.616-2.008.616zm0-1.327c.689 0 1.228-.337 1.616-1.01.391-.672.586-1.645.586-2.918 0-.845-.089-1.559-.268-2.143-.176-.586-.429-1.03-.761-1.332-.328-.305-.719-.457-1.173-.457-.686 0-1.225.338-1.616 1.014s-.588 1.649-.592 2.918c0 .849.088 1.566.264 2.153.179.583.432 1.026.761 1.327.328.298.722.448 1.183.448zm9.037 1.327c-.786-.003-1.457-.21-2.014-.621-.556-.411-.982-1.01-1.277-1.795-.295-.786-.443-1.732-.443-2.839 0-1.104.148-2.047.443-2.829.298-.782.726-1.379 1.282-1.79.561-.411 1.23-.616 2.009-.616s1.447.207 2.003.621c.557.411.983 1.008 1.278 1.79.298.779.448 1.72.448 2.824 0 1.11-.148 2.058-.443 2.844-.295.782-.721 1.38-1.278 1.795-.556.411-1.226.616-2.008.616zm0-1.327c.689 0 1.228-.337 1.616-1.01.391-.672.586-1.645.586-2.918 0-.845-.089-1.559-.268-2.143-.176-.586-.429-1.03-.761-1.332-.328-.305-.719-.457-1.173-.457-.686 0-1.225.338-1.616 1.014s-.588 1.649-.591 2.918c0 .849.087 1.566.263 2.153.179.583.433 1.026.761 1.327.328.298.722.448 1.183.448zm9.037 1.327c-.786-.003-1.457-.21-2.013-.621-.557-.411-.983-1.01-1.278-1.795-.295-.786-.443-1.732-.443-2.839 0-1.104.148-2.047.443-2.829.298-.782.726-1.379 1.282-1.79.561-.411 1.23-.616 2.009-.616s1.447.207 2.004.621c.556.411.982 1.008 1.277 1.79.299.779.448 1.72.448 2.824 0 1.11-.148 2.058-.443 2.844-.295.782-.721 1.38-1.277 1.795-.557.411-1.227.616-2.009.616zm0-1.327c.689 0 1.228-.337 1.616-1.01.391-.672.586-1.645.586-2.918 0-.845-.089-1.559-.268-2.143-.176-.586-.429-1.03-.761-1.332-.328-.305-.719-.457-1.173-.457-.686 0-1.225.338-1.616 1.014s-.588 1.649-.591 2.918c0 .849.087 1.566.263 2.153.179.583.433 1.026.761 1.327.328.298.722.448 1.183.448zm9.037 1.327c-.785-.003-1.457-.21-2.013-.621-.557-.411-.983-1.01-1.278-1.795-.295-.786-.443-1.732-.443-2.839 0-1.104.148-2.047.443-2.829.298-.782.726-1.379 1.283-1.79.56-.411 1.229-.616 2.008-.616s1.447.207 2.004.621c.556.411.982 1.008 1.277 1.79.299.779.448 1.72.448 2.824 0 1.11-.148 2.058-.443 2.844-.295.782-.721 1.38-1.277 1.795-.557.411-1.227.616-2.009.616zm0-1.327c.69 0 1.228-.337 1.616-1.01.391-.672.587-1.645.587-2.918 0-.845-.09-1.559-.269-2.143-.176-.586-.429-1.03-.761-1.332-.328-.305-.719-.457-1.173-.457-.686 0-1.225.338-1.616 1.014s-.588 1.649-.591 2.918c0 .849.088 1.566.263 2.153.179.583.433 1.026.761 1.327.328.298.722.448 1.183.448zm9.037 1.327c-.785-.003-1.456-.21-2.013-.621s-.983-1.01-1.278-1.795c-.295-.786-.442-1.732-.442-2.839 0-1.104.147-2.047.442-2.829.298-.782.726-1.379 1.283-1.79.56-.411 1.229-.616 2.008-.616s1.447.207 2.004.621c.557.411.982 1.008 1.277 1.79.299.779.448 1.72.448 2.824 0 1.11-.148 2.058-.443 2.844-.295.782-.72 1.38-1.277 1.795-.557.411-1.227.616-2.009.616zm0-1.327c.69 0 1.228-.337 1.616-1.01.391-.672.587-1.645.587-2.918 0-.845-.09-1.559-.269-2.143-.175-.586-.429-1.03-.76-1.332-.329-.305-.72-.457-1.174-.457-.686 0-1.224.338-1.616 1.014-.391.676-.588 1.649-.591 2.918 0 .849.088 1.566.263 2.153.179.583.433 1.026.761 1.327.328.298.723.448 1.183.448zm9.037 1.327c-.785-.003-1.456-.21-2.013-.621s-.983-1.01-1.278-1.795c-.295-.786-.442-1.732-.442-2.839 0-1.104.147-2.047.442-2.829.298-.782.726-1.379 1.283-1.79.56-.411 1.229-.616 2.008-.616s1.447.207 2.004.621c.557.411.983 1.008 1.278 1.79.298.779.447 1.72.447 2.824 0 1.11-.147 2.058-.442 2.844-.295.782-.721 1.38-1.278 1.795-.557.411-1.226.616-2.009.616zm0-1.327c.69 0 1.228-.337 1.616-1.01.391-.672.587-1.645.587-2.918 0-.845-.09-1.559-.269-2.143-.175-.586-.429-1.03-.76-1.332-.328-.305-.72-.457-1.174-.457-.686 0-1.224.338-1.615 1.014-.392.676-.589 1.649-.592 2.918 0 .849.088 1.566.263 2.153.179.583.433 1.026.761 1.327.328.298.723.448 1.183.448z" fill="#262626"/><path d="m433.216 180.818v10.182h-1.541v-8.641h-.059l-2.437 1.591v-1.471l2.541-1.661zm6.299 10.351c-.785-.003-1.456-.21-2.013-.621s-.983-1.01-1.278-1.795c-.295-.786-.442-1.732-.442-2.839 0-1.104.147-2.047.442-2.829.298-.782.726-1.379 1.283-1.79.56-.411 1.229-.616 2.008-.616s1.447.207 2.004.621c.557.411.983 1.008 1.278 1.79.298.779.447 1.72.447 2.824 0 1.11-.147 2.058-.442 2.844-.295.782-.721 1.38-1.278 1.795-.557.411-1.226.616-2.009.616zm0-1.327c.69 0 1.228-.337 1.616-1.01.391-.672.587-1.645.587-2.918 0-.845-.09-1.559-.269-2.143-.175-.586-.429-1.03-.76-1.332-.328-.305-.72-.457-1.174-.457-.686 0-1.224.338-1.615 1.014-.392.676-.589 1.649-.592 2.918 0 .849.088 1.566.263 2.153.179.583.433 1.026.761 1.327.328.298.723.448 1.183.448zm9.037 1.327c-.785-.003-1.456-.21-2.013-.621s-.983-1.01-1.278-1.795c-.295-.786-.442-1.732-.442-2.839 0-1.104.147-2.047.442-2.829.299-.782.726-1.379 1.283-1.79.56-.411 1.23-.616 2.008-.616.779 0 1.447.207 2.004.621.557.411.983 1.008 1.278 1.79.298.779.447 1.72.447 2.824 0 1.11-.147 2.058-.442 2.844-.295.782-.721 1.38-1.278 1.795-.557.411-1.226.616-2.009.616zm0-1.327c.69 0 1.228-.337 1.616-1.01.391-.672.587-1.645.587-2.918 0-.845-.09-1.559-.269-2.143-.175-.586-.429-1.03-.76-1.332-.328-.305-.719-.457-1.174-.457-.686 0-1.224.338-1.615 1.014s-.589 1.649-.592 2.918c0 .849.088 1.566.264 2.153.179.583.432 1.026.76 1.327.328.298.723.448 1.183.448zm10.807-.751v-.537c.004-.384.085-.736.244-1.054.162-.321.398-.578.706-.771.308-.195.683-.293 1.124-.293.45 0 .828.096 1.133.288.305.193.535.45.691.771.159.322.239.675.239 1.059v.537c0 .384-.08.737-.239 1.059-.159.318-.393.575-.701.77-.305.193-.679.289-1.123.289-.448 0-.826-.096-1.134-.289-.308-.195-.542-.452-.701-.77-.156-.322-.235-.675-.239-1.059zm1.159-.537v.537c.003.285.071.543.204.775.136.232.373.348.711.348.334 0 .568-.116.701-.348.132-.232.198-.49.198-.775v-.537c0-.285-.064-.544-.193-.776-.126-.232-.362-.348-.706-.348-.332 0-.567.116-.706.348-.136.232-.206.491-.209.776zm-6.279-5.29v-.537c0-.384.079-.737.238-1.059.163-.321.398-.578.706-.77.312-.193.688-.289 1.129-.289.451 0 .828.096 1.133.289.305.192.536.449.691.77.156.322.234.675.234 1.059v.537c0 .385-.079.738-.239 1.059-.155.318-.387.575-.696.771-.304.192-.679.288-1.123.288-.451 0-.83-.096-1.139-.288-.305-.196-.537-.453-.696-.771-.159-.321-.238-.674-.238-1.059zm1.163-.537v.537c0 .285.066.544.199.776.136.232.373.348.711.348.331 0 .563-.116.696-.348.136-.232.204-.491.204-.776v-.537c0-.285-.065-.543-.194-.775s-.365-.348-.706-.348c-.332 0-.567.116-.706.348-.136.232-.204.49-.204.775zm-.751 8.273 7-10.182h1.189l-7 10.182zm16.825 0-2.823-10.182h1.615l1.984 7.885h.095l2.063-7.885h1.601l2.063 7.89h.094l1.979-7.89h1.621l-2.829 10.182h-1.546l-2.143-7.626h-.08l-2.142 7.626zm13.06-4.534v4.534h-1.487v-10.182h1.467v3.789h.094c.179-.411.453-.738.82-.98.368-.242.849-.363 1.442-.363.524 0 .981.108 1.372.323.395.216.7.537.915.965.219.424.328.954.328 1.591v4.857h-1.486v-4.678c0-.56-.144-.995-.433-1.303-.288-.311-.689-.467-1.203-.467-.351 0-.666.074-.944.224-.276.149-.493.367-.652.656-.156.285-.233.63-.233 1.034zm6.935 4.534v-7.636h1.486v7.636zm.751-8.815c-.259 0-.481-.086-.667-.258-.182-.176-.273-.385-.273-.627 0-.245.091-.454.273-.626.186-.176.408-.263.667-.263.258 0 .479.087.661.263.186.172.278.381.278.626 0 .242-.092.451-.278.627-.182.172-.403.258-.661.258zm6.3 1.179v1.193h-4.171v-1.193zm-3.053-1.83h1.487v7.224c0 .288.043.505.129.651.086.143.197.24.333.293.139.05.29.075.453.075.119 0 .223-.008.313-.025.089-.016.159-.03.209-.04l.268 1.228c-.086.033-.209.067-.368.1-.159.036-.358.056-.596.059-.391.007-.756-.063-1.094-.208-.338-.146-.612-.372-.82-.677-.209-.304-.314-.687-.314-1.148zm7.906 9.62c-.752 0-1.4-.161-1.943-.482-.541-.325-.958-.781-1.253-1.367-.292-.59-.438-1.281-.438-2.073 0-.783.146-1.472.438-2.069.295-.596.706-1.062 1.233-1.397.53-.334 1.15-.502 1.859-.502.431 0 .849.071 1.253.214s.767.366 1.089.671c.321.305.575.701.76 1.188.186.484.279 1.073.279 1.765v.527h-6.071v-1.113h4.614c0-.391-.079-.738-.239-1.039-.159-.305-.382-.546-.671-.721-.285-.176-.62-.264-1.004-.264-.418 0-.782.103-1.094.308-.308.203-.547.468-.716.796-.165.325-.248.678-.248 1.059v.87c0 .51.089.944.268 1.302.183.358.436.632.761.821.325.185.704.278 1.138.278.282 0 .539-.04.771-.119.232-.083.432-.206.602-.368.169-.162.298-.363.387-.602l1.407.254c-.112.414-.315.777-.606 1.089-.289.308-.652.548-1.089.721-.434.169-.93.253-1.487.253zm13.13-5.101v1.288h-4.514v-1.288zm9.505 4.947 1.67-10.182h1.193l-1.67 10.182zm-4.609-2.724.194-1.194h7.716l-.194 1.194zm1.029 2.724 1.671-10.182h1.193l-1.671 10.182zm-.437-6.264.194-1.193h7.716l-.194 1.193zm12.747-1.372v1.193h-4.315v-1.193zm-3.132 7.636v-8.521c0-.478.104-.874.313-1.189.209-.318.486-.555.83-.71.345-.16.72-.239 1.124-.239.298 0 .553.025.766.074.212.047.369.09.472.13l-.348 1.203c-.07-.02-.159-.043-.269-.07-.109-.03-.242-.044-.397-.044-.362 0-.62.089-.776.268-.152.179-.229.437-.229.776v8.322zm8.3-7.636v1.193h-4.315v-1.193zm-3.132 7.636v-8.521c0-.478.104-.874.313-1.189.209-.318.486-.555.83-.71.345-.16.72-.239 1.124-.239.298 0 .553.025.766.074.212.047.369.09.472.13l-.348 1.203c-.07-.02-.159-.043-.269-.07-.109-.03-.242-.044-.397-.044-.362 0-.62.089-.776.268-.152.179-.229.437-.229.776v8.322zm8.3-7.636v1.193h-4.315v-1.193zm-3.132 7.636v-8.521c0-.478.104-.874.313-1.189.209-.318.486-.555.83-.71.345-.16.719-.239 1.124-.239.298 0 .553.025.765.074.213.047.37.09.473.13l-.348 1.203c-.07-.02-.159-.043-.269-.07-.109-.03-.242-.044-.397-.044-.362 0-.62.089-.776.268-.152.179-.229.437-.229.776v8.322zm8.3-7.636v1.193h-4.315v-1.193zm-3.132 7.636v-8.521c0-.478.104-.874.313-1.189.209-.318.486-.555.83-.71.345-.16.719-.239 1.124-.239.298 0 .553.025.765.074.213.047.37.09.473.13l-.348 1.203c-.07-.02-.159-.043-.269-.07-.109-.03-.242-.044-.397-.044-.362 0-.62.089-.776.268-.152.179-.229.437-.229.776v8.322zm8.3-7.636v1.193h-4.315v-1.193zm-3.132 7.636v-8.521c0-.478.104-.874.313-1.189.209-.318.486-.555.83-.71.345-.16.719-.239 1.124-.239.298 0 .553.025.765.074.213.047.37.09.473.13l-.348 1.203c-.07-.02-.159-.043-.269-.07-.109-.03-.242-.044-.397-.044-.362 0-.62.089-.776.268-.153.179-.229.437-.229.776v8.322zm8.3-7.636v1.193h-4.316v-1.193zm-3.132 7.636v-8.521c0-.478.104-.874.313-1.189.209-.318.485-.555.83-.71.345-.16.719-.239 1.124-.239.298 0 .553.025.765.074.213.047.37.09.473.13l-.348 1.203c-.07-.02-.159-.043-.269-.07-.109-.03-.242-.044-.398-.044-.361 0-.619.089-.775.268-.153.179-.229.437-.229.776v8.322z" fill="#262626"/><rect fill="#5600af" height="56" rx="8" width="339" x="40" y="344"/><rect fill="#f9f7fb" height="56" rx="8" width="331" x="408" y="344"/><path d="m70.8332 424v-10.182h3.6293c.7921 0 1.4484.144 1.9687.433.5204.288.9098.682 1.1683 1.183.2586.497.3878 1.057.3878 1.68 0 .627-.1309 1.19-.3927 1.691-.2586.497-.6496.891-1.1733 1.183-.5204.288-1.175.432-1.9638.432h-2.4957v-1.302h2.3565c.5005 0 .9065-.086 1.218-.259.3116-.175.5403-.414.6861-.716.1458-.301.2188-.644.2188-1.029 0-.384-.073-.726-.2188-1.024s-.3762-.532-.691-.701c-.3116-.169-.7226-.253-1.233-.253h-1.929v8.864zm13.6731-3.167v-4.469h1.4915v7.636h-1.4616v-1.322h-.0796c-.1757.407-.4574.747-.8452 1.019-.3844.268-.8634.402-1.4368.402-.4905 0-.9247-.107-1.3025-.323-.3745-.218-.6695-.542-.885-.969-.2121-.428-.3181-.956-.3181-1.586v-4.857h1.4865v4.678c0 .52.1441.935.4325 1.243s.6629.462 1.1236.462c.2784 0 .5551-.069.8302-.209.2784-.139.5088-.349.6911-.631.1856-.282.2767-.64.2734-1.074zm3.4888 3.167v-7.636h1.4368v1.213h.0796c.1392-.411.3844-.734.7358-.97.3546-.238.7557-.358 1.2031-.358.0928 0 .2022.004.3281.01.1293.007.2304.015.3033.025v1.422c-.0597-.017-.1657-.035-.3182-.055-.1525-.023-.3049-.035-.4574-.035-.3513 0-.6645.075-.9396.224-.2718.146-.4872.35-.6463.612-.1591.258-.2387.553-.2387.885v4.663zm5.3731 2.864v-10.5h1.4517v1.238h.1243c.0862-.16.2104-.343.3728-.552.1625-.209.3878-.391.6762-.547.2883-.159.6695-.239 1.1435-.239.6164 0 1.1666.156 1.6505.468.4839.311.8634.76 1.1385 1.347.2783.586.4173 1.292.4173 2.118 0 .825-.137 1.533-.4123 2.123-.2751.586-.6529 1.039-1.1335 1.357-.4806.315-1.0292.472-1.6456.472-.464 0-.8435-.078-1.1385-.234-.2917-.155-.5204-.338-.6861-.546-.1657-.209-.2933-.395-.3828-.557h-.0895v4.052zm1.4567-6.682c0 .537.0779 1.007.2336 1.412.1558.404.3812.721.6762.949.2949.226.6562.338 1.0838.338.4441 0 .8153-.117 1.1136-.353.2983-.238.5237-.561.6761-.969.1558-.408.2337-.867.2337-1.377 0-.504-.0762-.956-.2287-1.357-.1491-.401-.3745-.718-.6761-.95-.2983-.232-.6712-.348-1.1186-.348-.4309 0-.7955.111-1.0938.333-.295.222-.5187.532-.6711.93-.1525.397-.2287.862-.2287 1.392zm8.6701-6.364v10.182h-1.486v-10.182zm5.291 10.336c-.752 0-1.4-.161-1.944-.482-.54-.325-.957-.781-1.252-1.367-.292-.59-.438-1.281-.438-2.073 0-.783.146-1.472.438-2.069.295-.596.706-1.062 1.233-1.397.53-.334 1.15-.502 1.859-.502.431 0 .848.071 1.253.214.404.143.767.366 1.089.671.321.305.575.701.76 1.188.186.484.279 1.073.279 1.765v.527h-6.071v-1.113h4.614c0-.391-.08-.738-.239-1.039-.159-.305-.383-.546-.671-.721-.285-.176-.62-.264-1.004-.264-.418 0-.782.103-1.094.308-.308.203-.547.468-.716.796-.166.325-.248.678-.248 1.059v.87c0 .51.089.944.268 1.302.182.358.436.632.761.821.325.185.704.278 1.138.278.282 0 .539-.04.771-.119.232-.083.432-.206.601-.368s.299-.363.388-.602l1.407.254c-.113.414-.315.777-.606 1.089-.289.308-.652.548-1.089.721-.434.169-.93.253-1.487.253zm13.13-5.101v1.288h-4.514v-1.288zm9.505 4.947 1.67-10.182h1.193l-1.67 10.182zm-4.609-2.724.194-1.194h7.716l-.194 1.194zm1.029 2.724 1.671-10.182h1.193l-1.671 10.182zm-.437-6.264.194-1.193h7.715l-.193 1.193zm8.879 4.275v-1.243l4.4-6.95h.979v1.83h-.621l-3.147 4.981v.08h6.03v1.302zm4.827 1.989v-2.366l.01-.567v-7.249h1.457v10.182zm8.092.169c-.786-.003-1.457-.21-2.014-.621s-.983-1.01-1.278-1.795c-.295-.786-.442-1.732-.442-2.839 0-1.104.147-2.047.442-2.829.299-.782.726-1.379 1.283-1.79.56-.411 1.23-.616 2.009-.616s1.446.207 2.003.621c.557.411.983 1.008 1.278 1.79.298.779.447 1.72.447 2.824 0 1.11-.147 2.058-.442 2.844-.295.782-.721 1.38-1.278 1.795-.557.411-1.226.616-2.008.616zm0-1.327c.689 0 1.228-.337 1.615-1.01.392-.672.587-1.645.587-2.918 0-.845-.089-1.559-.268-2.143-.176-.586-.43-1.03-.761-1.332-.328-.305-.719-.457-1.173-.457-.686 0-1.225.338-1.616 1.014s-.588 1.649-.592 2.918c0 .849.088 1.566.264 2.153.179.583.432 1.026.76 1.327.329.298.723.448 1.184.448zm9.037 1.327c-.786-.003-1.457-.21-2.014-.621s-.982-1.01-1.277-1.795c-.295-.786-.443-1.732-.443-2.839 0-1.104.148-2.047.443-2.829.298-.782.725-1.379 1.282-1.79.56-.411 1.23-.616 2.009-.616s1.446.207 2.003.621c.557.411.983 1.008 1.278 1.79.298.779.447 1.72.447 2.824 0 1.11-.147 2.058-.442 2.844-.295.782-.721 1.38-1.278 1.795-.557.411-1.226.616-2.008.616zm0-1.327c.689 0 1.228-.337 1.616-1.01.391-.672.586-1.645.586-2.918 0-.845-.089-1.559-.268-2.143-.176-.586-.43-1.03-.761-1.332-.328-.305-.719-.457-1.173-.457-.686 0-1.225.338-1.616 1.014s-.588 1.649-.592 2.918c0 .849.088 1.566.264 2.153.179.583.432 1.026.761 1.327.328.298.722.448 1.183.448zm9.037 1.327c-.786-.003-1.457-.21-2.014-.621-.556-.411-.982-1.01-1.277-1.795-.295-.786-.443-1.732-.443-2.839 0-1.104.148-2.047.443-2.829.298-.782.726-1.379 1.282-1.79.56-.411 1.23-.616 2.009-.616s1.447.207 2.003.621c.557.411.983 1.008 1.278 1.79.298.779.448 1.72.448 2.824 0 1.11-.148 2.058-.443 2.844-.295.782-.721 1.38-1.278 1.795-.556.411-1.226.616-2.008.616zm0-1.327c.689 0 1.228-.337 1.616-1.01.391-.672.586-1.645.586-2.918 0-.845-.089-1.559-.268-2.143-.176-.586-.429-1.03-.761-1.332-.328-.305-.719-.457-1.173-.457-.686 0-1.225.338-1.616 1.014s-.588 1.649-.592 2.918c0 .849.088 1.566.264 2.153.179.583.432 1.026.761 1.327.328.298.722.448 1.183.448zm8.933 1.297c-.713 0-1.343-.122-1.89-.368-.543-.245-.969-.583-1.277-1.014-.309-.431-.461-.921-.458-1.471-.003-.431.085-.827.264-1.189.182-.364.429-.668.741-.909.311-.246.659-.402 1.044-.468v-.059c-.508-.123-.914-.395-1.218-.816-.305-.421-.456-.905-.453-1.452-.003-.52.134-.984.413-1.392.281-.411.668-.734 1.158-.969.491-.235 1.049-.353 1.676-.353.619 0 1.173.119 1.66.358.491.235.877.558 1.158.969.282.408.425.87.428 1.387-.003.547-.159 1.031-.467 1.452-.309.421-.71.693-1.203.816v.059c.381.066.724.222 1.029.468.308.241.553.545.735.909.186.362.281.758.284 1.189-.003.55-.159 1.04-.467 1.471-.309.431-.736.769-1.283 1.014-.544.246-1.168.368-1.874.368zm0-1.258c.42 0 .785-.069 1.093-.208.309-.143.547-.34.716-.592.169-.255.255-.554.259-.895-.004-.355-.096-.668-.279-.94-.179-.271-.422-.485-.73-.641-.309-.156-.662-.234-1.059-.234-.401 0-.758.078-1.069.234-.312.156-.557.37-.736.641-.179.272-.267.585-.264.94-.003.341.078.64.244.895.169.252.409.449.721.592.311.139.679.208 1.104.208zm0-4.738c.338 0 .638-.067.899-.203.262-.136.468-.325.617-.567.152-.242.23-.525.234-.85-.004-.318-.08-.597-.229-.835-.146-.239-.35-.423-.612-.552-.261-.133-.565-.199-.909-.199-.352 0-.66.066-.925.199-.262.129-.466.313-.612.552-.145.238-.217.517-.213.835-.004.325.069.608.218.85s.355.431.617.567c.265.136.57.203.915.203zm5.405 5.857v-1.114l3.445-3.569c.368-.388.671-.728.91-1.019.242-.295.423-.575.542-.841.119-.265.179-.546.179-.845 0-.338-.08-.63-.239-.875-.159-.248-.376-.439-.651-.572-.275-.135-.585-.203-.93-.203-.364 0-.682.074-.954.223-.272.15-.481.36-.627.632-.145.272-.218.59-.218.954h-1.467c0-.619.143-1.161.428-1.625s.676-.824 1.173-1.079c.497-.259 1.062-.388 1.695-.388.64 0 1.203.128 1.69.383.491.252.874.596 1.149 1.034.275.434.413.925.413 1.471 0 .378-.072.748-.214 1.109-.139.361-.383.764-.731 1.208-.348.441-.832.976-1.452 1.606l-2.023 2.118v.075h4.584v1.317z" fill="#262626"/><path d="m443.068 422v-10.182h3.629c.792 0 1.449.144 1.969.433.52.288.91.682 1.168 1.183.259.497.388 1.057.388 1.68 0 .627-.131 1.19-.393 1.691-.258.497-.649.891-1.173 1.183-.52.288-1.175.432-1.964.432h-2.495v-1.302h2.356c.501 0 .907-.086 1.218-.259.312-.175.54-.414.686-.716.146-.301.219-.644.219-1.029 0-.384-.073-.726-.219-1.024s-.376-.532-.691-.701c-.311-.169-.722-.253-1.233-.253h-1.929v8.864zm13.673-3.167v-4.469h1.492v7.636h-1.462v-1.322h-.08c-.175.407-.457.747-.845 1.019-.384.268-.863.402-1.436.402-.491 0-.925-.107-1.303-.323-.375-.218-.67-.542-.885-.969-.212-.428-.318-.956-.318-1.586v-4.857h1.486v4.678c0 .52.145.935.433 1.243s.663.462 1.123.462c.279 0 .556-.069.831-.209.278-.139.508-.349.691-.631.185-.282.277-.64.273-1.074zm3.489 3.167v-7.636h1.437v1.213h.079c.14-.411.385-.734.736-.97.355-.238.756-.358 1.203-.358.093 0 .202.004.328.01.13.007.231.015.304.025v1.422c-.06-.017-.166-.035-.319-.055-.152-.023-.304-.035-.457-.035-.351 0-.664.075-.94.224-.271.146-.487.35-.646.612-.159.258-.238.553-.238.885v4.663zm5.373 2.864v-10.5h1.452v1.238h.124c.086-.16.211-.343.373-.552s.388-.391.676-.547c.288-.159.67-.239 1.144-.239.616 0 1.166.156 1.65.468.484.311.863.76 1.139 1.347.278.586.417 1.292.417 2.118 0 .825-.137 1.533-.412 2.123-.276.586-.653 1.039-1.134 1.357-.481.315-1.029.472-1.646.472-.464 0-.843-.078-1.138-.234-.292-.155-.52-.338-.686-.546-.166-.209-.293-.395-.383-.557h-.089v4.052zm1.457-6.682c0 .537.078 1.007.233 1.412.156.404.382.721.677.949.295.226.656.338 1.083.338.444 0 .816-.117 1.114-.353.298-.238.524-.561.676-.969.156-.408.234-.867.234-1.377 0-.504-.076-.956-.229-1.357-.149-.401-.374-.718-.676-.95-.298-.232-.671-.348-1.119-.348-.431 0-.795.111-1.093.333-.295.222-.519.532-.672.93-.152.397-.228.862-.228 1.392zm8.67-6.364v10.182h-1.486v-10.182zm5.291 10.336c-.752 0-1.4-.161-1.944-.482-.54-.325-.958-.781-1.253-1.367-.291-.59-.437-1.281-.437-2.073 0-.783.146-1.472.437-2.069.295-.596.706-1.062 1.233-1.397.531-.334 1.151-.502 1.86-.502.431 0 .848.071 1.253.214.404.143.767.366 1.088.671.322.305.575.701.761 1.188.186.484.278 1.073.278 1.765v.527h-6.07v-1.113h4.614c0-.391-.08-.738-.239-1.039-.159-.305-.383-.546-.671-.721-.285-.176-.62-.264-1.004-.264-.418 0-.782.103-1.094.308-.308.203-.547.468-.716.796-.166.325-.249.678-.249 1.059v.87c0 .51.09.944.269 1.302.182.358.436.632.761.821.324.185.704.278 1.138.278.282 0 .539-.04.771-.119.232-.083.432-.206.601-.368s.299-.363.388-.602l1.407.254c-.113.414-.315.777-.607 1.089-.288.308-.651.548-1.088.721-.434.169-.93.253-1.487.253zm13.13-5.101v1.288h-4.514v-1.288zm9.505 4.947 1.67-10.182h1.193l-1.67 10.182zm-4.609-2.724.194-1.194h7.716l-.194 1.194zm1.029 2.724 1.671-10.182h1.193l-1.671 10.182zm-.437-6.264.193-1.193h7.716l-.194 1.193zm9.232 6.264v-10.182h6.314v1.323h-4.778v3.102h4.325v1.317h-4.325v4.44zm11.449-10.346c.454.003.902.086 1.343.249.441.162.838.429 1.193.8.358.368.643.865.855 1.492.215.626.325 1.408.328 2.346-.003.892-.094 1.686-.273 2.382-.176.692-.431 1.277-.766 1.755-.335.477-.739.84-1.213 1.088-.471.249-1.003.373-1.596.373-.606 0-1.145-.119-1.616-.358-.47-.238-.853-.568-1.148-.989-.295-.424-.479-.912-.552-1.462h1.516c.1.438.302.792.607 1.064.308.269.706.403 1.193.403.746 0 1.328-.325 1.745-.975.418-.652.628-1.564.632-2.734h-.08c-.172.285-.388.53-.646.736-.256.205-.542.364-.86.477-.319.113-.658.169-1.02.169-.586 0-1.121-.144-1.605-.432-.481-.289-.864-.685-1.149-1.189-.282-.503-.422-1.08-.422-1.73 0-.649.145-1.236.437-1.76.295-.527.706-.943 1.233-1.247.53-.309 1.152-.461 1.864-.458zm.005 1.293c-.387 0-.737.096-1.049.288-.308.192-.552.451-.73.776-.179.324-.269.687-.269 1.088 0 .395.086.753.259 1.074.175.322.414.577.715.766.305.186.653.278 1.045.278.291 0 .563-.056.815-.169.252-.112.471-.268.656-.467.189-.202.337-.431.443-.686.109-.259.164-.529.164-.81 0-.382-.09-.735-.269-1.059-.175-.325-.417-.585-.726-.781-.308-.199-.659-.298-1.054-.298zm5.649 9.053v-10.182h6.314v1.323h-4.777v3.102h4.325v1.317h-4.325v4.44zm8.407 0 4.445-8.79v-.074h-5.141v-1.318h6.732v1.362l-4.43 8.82zm7.904 0v-10.182h6.314v1.323h-4.778v3.102h4.325v1.317h-4.325v4.44zm8.203 0v-10.182h3.729c.722 0 1.32.119 1.794.358.474.235.829.555 1.064.96.236.401.353.853.353 1.357 0 .424-.078.782-.233 1.074-.156.288-.365.52-.627.696-.258.172-.543.298-.855.378v.099c.338.017.668.126.989.328.325.199.594.482.806.85s.318.816.318 1.343c0 .52-.123.987-.368 1.402-.242.411-.616.737-1.123.979-.508.239-1.155.358-1.944.358zm1.536-1.317h2.218c.735 0 1.262-.143 1.581-.428.318-.285.477-.641.477-1.069 0-.321-.081-.616-.244-.885-.162-.268-.394-.482-.696-.641-.298-.159-.653-.239-1.064-.239h-2.272zm0-4.46h2.058c.345 0 .655-.066.93-.199.279-.132.499-.318.661-.557.166-.242.249-.527.249-.855 0-.421-.148-.774-.443-1.059s-.747-.427-1.357-.427h-2.098z" fill="#262626"/><rect fill="#fe346e" height="56" rx="8" width="339" x="40" y="460"/><rect fill="#ffebf1" height="56" rx="8" width="331" x="408" y="460"/><path d="m70.8332 542v-10.182h3.6293c.7921 0 1.4484.144 1.9687.433.5204.288.9098.682 1.1683 1.183.2586.497.3878 1.057.3878 1.68 0 .627-.1309 1.19-.3927 1.691-.2586.497-.6496.891-1.1733 1.183-.5204.288-1.175.432-1.9638.432h-2.4957v-1.302h2.3565c.5005 0 .9065-.086 1.218-.259.3116-.175.5403-.414.6861-.716.1458-.301.2188-.644.2188-1.029 0-.384-.073-.726-.2188-1.024s-.3762-.532-.691-.701c-.3116-.169-.7226-.253-1.233-.253h-1.929v8.864zm8.8358 0v-7.636h1.4865v7.636zm.7507-8.815c-.2585 0-.4806-.086-.6662-.258-.1823-.176-.2735-.385-.2735-.627 0-.245.0912-.454.2735-.626.1856-.176.4077-.263.6662-.263s.4789.087.6612.263c.1856.172.2784.381.2784.626 0 .242-.0928.451-.2784.627-.1823.172-.4027.258-.6612.258zm4.2221 4.281v4.534h-1.4865v-7.636h1.4268v1.243h.0945c.1757-.405.4508-.73.8253-.975.3778-.245.8534-.368 1.4268-.368.5204 0 .9761.11 1.3672.328.3911.216.6944.537.9098.965.2155.427.3232.956.3232 1.586v4.857h-1.4865v-4.678c0-.554-.1442-.986-.4326-1.298-.2883-.315-.6844-.472-1.1882-.472-.3447 0-.6512.074-.9197.224-.2652.149-.4756.367-.6314.656-.1525.285-.2287.63-.2287 1.034zm8.2479 1.944-.01-1.815h.2586l3.0426-3.231h1.7798l-3.4702 3.679h-.2336zm-1.3672 2.59v-10.182h1.4865v10.182zm4.8224 0-2.7343-3.629 1.0241-1.039 3.5348 4.668zm11.1751-4.947v1.288h-4.514v-1.288zm9.504 4.947 1.671-10.182h1.193l-1.671 10.182zm-4.608-2.724.193-1.194h7.716l-.193 1.194zm1.029 2.724 1.67-10.182h1.193l-1.67 10.182zm-.438-6.264.194-1.193h7.716l-.194 1.193zm9.232 6.264v-10.182h6.314v1.323h-4.777v3.102h4.325v1.317h-4.325v4.44zm8.204 0v-10.182h6.383v1.323h-4.847v3.102h4.514v1.317h-4.514v3.118h4.907v1.322zm11.841.139c-.683 0-1.293-.117-1.83-.353-.533-.235-.956-.562-1.268-.979-.308-.421-.474-.908-.497-1.462h1.561c.02.302.121.564.304.786.185.218.427.387.725.507.299.119.63.179.995.179.401 0 .755-.07 1.064-.209.311-.139.555-.333.73-.582.176-.252.264-.542.264-.87 0-.341-.088-.641-.264-.9-.172-.261-.425-.467-.76-.616-.332-.149-.733-.224-1.203-.224h-.86v-1.253h.86c.378 0 .709-.068.994-.203.288-.136.514-.325.676-.567.163-.246.244-.532.244-.86 0-.315-.072-.589-.214-.821-.139-.235-.338-.419-.597-.551-.255-.133-.556-.199-.904-.199-.332 0-.642.061-.93.184-.285.119-.517.291-.696.517-.179.222-.275.489-.289.8h-1.486c.017-.55.179-1.034.487-1.452.312-.417.723-.744 1.233-.979.511-.235 1.077-.353 1.7-.353.653 0 1.217.128 1.691.383.477.252.845.588 1.103 1.009.262.421.392.882.388 1.382.004.57-.156 1.054-.477 1.452-.318.398-.742.664-1.273.8v.08c.676.103 1.2.371 1.571.805.375.434.56.973.557 1.616.003.56-.152 1.062-.467 1.506-.312.444-.738.794-1.278 1.049-.54.252-1.158.378-1.854.378zm5.265-2.128v-1.243l4.399-6.95h.98v1.83h-.622l-3.147 4.981v.08h6.031v1.302zm4.827 1.989v-2.366l.01-.567v-7.249h1.457v10.182zm8.101.139c-.454-.006-.901-.089-1.342-.248-.438-.159-.835-.425-1.193-.796s-.645-.87-.86-1.496c-.213-.627-.319-1.409-.319-2.347 0-.891.088-1.684.264-2.376.179-.696.436-1.283.771-1.76.334-.478.739-.84 1.213-1.089s1.006-.373 1.595-.373c.607 0 1.146.121 1.616.363.471.242.852.573 1.144.994.295.421.482.905.561 1.452h-1.516c-.103-.434-.306-.785-.611-1.054-.305-.272-.703-.408-1.194-.408-.745 0-1.327.327-1.745.98-.414.649-.623 1.558-.626 2.724h.075c.175-.288.391-.533.646-.736.258-.205.547-.362.865-.472.321-.113.66-.169 1.014-.169.59 0 1.124.144 1.601.433.481.285.863.679 1.148 1.183s.428 1.08.428 1.73-.147 1.238-.442 1.765c-.292.527-.703.945-1.233 1.253-.531.305-1.151.454-1.86.447zm-.005-1.292c.391 0 .741-.097 1.049-.289s.552-.451.731-.775c.179-.325.269-.688.269-1.089 0-.391-.088-.748-.264-1.069-.172-.321-.411-.577-.716-.766-.301-.189-.646-.283-1.034-.283-.295 0-.568.056-.82.169-.249.113-.468.268-.657.467-.188.199-.338.428-.447.686-.106.256-.159.526-.159.811 0 .381.088.734.263 1.059.179.325.423.586.731.785.312.196.663.294 1.054.294zm5.49 1.153v-10.182h6.384v1.323h-4.848v3.102h4.515v1.317h-4.515v3.118h4.907v1.322z" fill="#262626"/><path d="m443.068 540v-10.182h3.629c.792 0 1.449.144 1.969.433.52.288.91.682 1.168 1.183.259.497.388 1.057.388 1.68 0 .627-.131 1.19-.393 1.691-.258.497-.649.891-1.173 1.183-.52.288-1.175.432-1.964.432h-2.495v-1.302h2.356c.501 0 .907-.086 1.218-.259.312-.175.54-.414.686-.716.146-.301.219-.644.219-1.029 0-.384-.073-.726-.219-1.024s-.376-.532-.691-.701c-.311-.169-.722-.253-1.233-.253h-1.929v8.864zm8.836 0v-7.636h1.486v7.636zm.751-8.815c-.259 0-.481-.086-.667-.258-.182-.176-.273-.385-.273-.627 0-.245.091-.454.273-.626.186-.176.408-.263.667-.263.258 0 .478.087.661.263.185.172.278.381.278.626 0 .242-.093.451-.278.627-.183.172-.403.258-.661.258zm4.222 4.281v4.534h-1.487v-7.636h1.427v1.243h.094c.176-.405.451-.73.826-.975.378-.245.853-.368 1.427-.368.52 0 .976.11 1.367.328.391.216.694.537.91.965.215.427.323.956.323 1.586v4.857h-1.487v-4.678c0-.554-.144-.986-.432-1.298-.289-.315-.685-.472-1.189-.472-.344 0-.651.074-.919.224-.265.149-.476.367-.632.656-.152.285-.228.63-.228 1.034zm8.248 1.944-.01-1.815h.258l3.043-3.231h1.78l-3.471 3.679h-.233zm-1.368 2.59v-10.182h1.487v10.182zm4.823 0-2.735-3.629 1.025-1.039 3.534 4.668zm11.175-4.947v1.288h-4.515v-1.288zm9.504 4.947 1.671-10.182h1.193l-1.671 10.182zm-4.609-2.724.194-1.194h7.716l-.194 1.194zm1.03 2.724 1.67-10.182h1.193l-1.67 10.182zm-.438-6.264.194-1.193h7.716l-.194 1.193zm9.232 6.264v-10.182h6.314v1.323h-4.777v3.102h4.325v1.317h-4.325v4.44zm8.203 0v-10.182h6.314v1.323h-4.777v3.102h4.325v1.317h-4.325v4.44zm8.204 0v-10.182h6.383v1.323h-4.847v3.102h4.514v1.317h-4.514v3.118h4.907v1.322zm8.435 0v-10.182h3.729c.722 0 1.321.119 1.795.358.474.235.828.555 1.063.96.236.401.353.853.353 1.357 0 .424-.077.782-.233 1.074-.156.288-.365.52-.627.696-.258.172-.543.298-.855.378v.099c.338.017.668.126.99.328.324.199.593.482.805.85s.318.816.318 1.343c0 .52-.122.987-.368 1.402-.242.411-.616.737-1.123.979-.507.239-1.155.358-1.944.358zm1.536-1.317h2.218c.735 0 1.262-.143 1.581-.428.318-.285.477-.641.477-1.069 0-.321-.081-.616-.244-.885-.162-.268-.394-.482-.696-.641-.298-.159-.653-.239-1.064-.239h-2.272zm0-4.46h2.059c.344 0 .654-.066.929-.199.279-.132.499-.318.661-.557.166-.242.249-.527.249-.855 0-.421-.147-.774-.442-1.059s-.748-.427-1.358-.427h-2.098zm7.624 5.777v-10.182h6.314v1.323h-4.778v3.102h4.326v1.317h-4.326v4.44zm11.927-10.182v10.182h-1.541v-8.641h-.06l-2.436 1.591v-1.471l2.541-1.661z" fill="#262626"/><rect fill="#f1e7b6" height="56" rx="8" width="339" x="40" y="576"/><rect fill="#fefdf8" height="56" rx="8" width="331" x="408" y="576"/><path d="m70.0477 647.818h1.745l2.6598 4.629h.1094l2.6598-4.629h1.745l-3.6939 6.185v3.997h-1.5312v-3.997zm12.2972 10.336c-.7523 0-1.4003-.161-1.9439-.482-.5402-.325-.9578-.781-1.2528-1.367-.2917-.59-.4375-1.281-.4375-2.073 0-.783.1458-1.472.4375-2.069.295-.596.706-1.062 1.2329-1.397.5304-.334 1.1501-.502 1.8594-.502.4309 0 .8485.071 1.2529.214.4043.143.7672.366 1.0887.671s.5751.701.7607 1.188c.1856.484.2784 1.073.2784 1.765v.527h-6.0703v-1.113h4.6136c0-.391-.0795-.738-.2386-1.039-.1591-.305-.3828-.546-.6712-.721-.285-.176-.6198-.264-1.0042-.264-.4176 0-.7822.103-1.0938.308-.3082.203-.5469.468-.7159.796-.1657.325-.2486.678-.2486 1.059v.87c0 .51.0895.944.2685 1.302.1823.358.4358.632.7606.821.3249.185.7044.278 1.1385.278.2818 0 .5386-.04.7706-.119.232-.083.4326-.206.6016-.368s.2983-.363.3878-.602l1.4069.254c-.1126.414-.3148.777-.6065 1.089-.2883.308-.6513.548-1.0888.721-.4342.169-.9297.253-1.4865.253zm6.4121-10.336v10.182h-1.4865v-10.182zm3.4864 0v10.182h-1.4865v-10.182zm5.2164 10.336c-.7159 0-1.3407-.164-1.8743-.492s-.9479-.787-1.2429-1.377-.4425-1.28-.4425-2.068c0-.793.1475-1.485.4425-2.079.295-.593.7093-1.053 1.2429-1.382.5336-.328 1.1584-.492 1.8743-.492s1.3407.164 1.8743.492c.5336.329.9479.789 1.2429 1.382.295.594.442 1.286.442 2.079 0 .788-.147 1.478-.442 2.068s-.7093 1.049-1.2429 1.377-1.1584.492-1.8743.492zm.005-1.248c.464 0 .8485-.122 1.1534-.368.3049-.245.5303-.571.6761-.979.1492-.408.2237-.857.2237-1.347 0-.488-.0745-.935-.2237-1.343-.1458-.411-.3712-.74-.6761-.989s-.6894-.373-1.1534-.373c-.4674 0-.8551.124-1.1634.373-.3049.249-.5319.578-.6811.989-.1458.408-.2187.855-.2187 1.343 0 .49.0729.939.2187 1.347.1492.408.3762.734.6811.979.3083.246.696.368 1.1634.368zm6.6372 1.094-2.247-7.636h1.536l1.496 5.608h.075l1.501-5.608h1.537l1.491 5.583h.075l1.486-5.583h1.536l-2.242 7.636h-1.516l-1.551-5.513h-.115l-1.551 5.513zm18.101-4.947v1.288h-4.514v-1.288zm9.505 4.947 1.67-10.182h1.193l-1.67 10.182zm-4.609-2.724.194-1.194h7.716l-.194 1.194zm1.029 2.724 1.671-10.182h1.193l-1.671 10.182zm-.437-6.264.194-1.193h7.716l-.194 1.193zm9.232 6.264v-10.182h6.314v1.323h-4.778v3.102h4.326v1.317h-4.326v4.44zm11.927-10.182v10.182h-1.541v-8.641h-.06l-2.436 1.591v-1.471l2.54-1.661zm2.893 10.182v-10.182h6.384v1.323h-4.847v3.102h4.514v1.317h-4.514v3.118h4.907v1.322zm8.64 0 4.444-8.79v-.074h-5.14v-1.318h6.731v1.362l-4.429 8.82zm7.903 0v-10.182h3.729c.723 0 1.321.119 1.795.358.474.235.828.555 1.064.96.235.401.353.853.353 1.357 0 .424-.078.782-.234 1.074-.156.288-.365.52-.626.696-.259.172-.544.298-.856.378v.099c.339.017.668.126.99.328.325.199.593.482.805.85s.318.816.318 1.343c0 .52-.122.987-.367 1.402-.242.411-.617.737-1.124.979-.507.239-1.155.358-1.944.358zm1.537-1.317h2.217c.736 0 1.263-.143 1.581-.428s.477-.641.477-1.069c0-.321-.081-.616-.243-.885-.163-.268-.395-.482-.697-.641-.298-.159-.652-.239-1.063-.239h-2.272zm0-4.46h2.058c.344 0 .654-.066.929-.199.279-.132.499-.318.662-.557.165-.242.248-.527.248-.855 0-.421-.147-.774-.442-1.059s-.748-.427-1.357-.427h-2.098zm11.039 5.916c-.454-.006-.902-.089-1.342-.248-.438-.159-.836-.425-1.194-.796-.357-.371-.644-.87-.86-1.496-.212-.627-.318-1.409-.318-2.347 0-.891.088-1.684.264-2.376.179-.696.436-1.283.77-1.76.335-.478.739-.84 1.213-1.089s1.006-.373 1.596-.373c.607 0 1.145.121 1.616.363s.852.573 1.143.994c.295.421.483.905.562 1.452h-1.516c-.103-.434-.307-.785-.612-1.054-.305-.272-.702-.408-1.193-.408-.746 0-1.327.327-1.745.98-.414.649-.623 1.558-.626 2.724h.074c.176-.288.391-.533.647-.736.258-.205.547-.362.865-.472.321-.113.659-.169 1.014-.169.59 0 1.124.144 1.601.433.48.285.863.679 1.148 1.183s.428 1.08.428 1.73-.148 1.238-.443 1.765c-.291.527-.702.945-1.233 1.253-.53.305-1.15.454-1.859.447zm-.005-1.292c.391 0 .741-.097 1.049-.289s.552-.451.731-.775c.179-.325.268-.688.268-1.089 0-.391-.088-.748-.263-1.069-.173-.321-.411-.577-.716-.766-.302-.189-.646-.283-1.034-.283-.295 0-.569.056-.821.169-.248.113-.467.268-.656.467s-.338.428-.447.686c-.106.256-.159.526-.159.811 0 .381.088.734.263 1.059.179.325.423.586.731.785.312.196.663.294 1.054.294z" fill="#262626"/><path d="m442.283 645.818h1.745l2.659 4.629h.11l2.66-4.629h1.745l-3.694 6.185v3.997h-1.532v-3.997zm12.297 10.336c-.753 0-1.401-.161-1.944-.482-.54-.325-.958-.781-1.253-1.367-.292-.59-.437-1.281-.437-2.073 0-.783.145-1.472.437-2.069.295-.596.706-1.062 1.233-1.397.53-.334 1.15-.502 1.859-.502.431 0 .849.071 1.253.214.405.143.768.366 1.089.671.322.305.575.701.761 1.188.185.484.278 1.073.278 1.765v.527h-6.07v-1.113h4.613c0-.391-.079-.738-.238-1.039-.159-.305-.383-.546-.671-.721-.285-.176-.62-.264-1.005-.264-.417 0-.782.103-1.093.308-.309.203-.547.468-.716.796-.166.325-.249.678-.249 1.059v.87c0 .51.09.944.269 1.302.182.358.435.632.76.821.325.185.705.278 1.139.278.281 0 .538-.04.77-.119.232-.083.433-.206.602-.368s.298-.363.388-.602l1.407.254c-.113.414-.315.777-.607 1.089-.288.308-.651.548-1.089.721-.434.169-.929.253-1.486.253zm6.412-10.336v10.182h-1.487v-10.182zm3.486 0v10.182h-1.486v-10.182zm5.217 10.336c-.716 0-1.341-.164-1.875-.492-.533-.328-.948-.787-1.243-1.377-.294-.59-.442-1.28-.442-2.068 0-.793.148-1.485.442-2.079.295-.593.71-1.053 1.243-1.382.534-.328 1.159-.492 1.875-.492s1.34.164 1.874.492c.534.329.948.789 1.243 1.382.295.594.442 1.286.442 2.079 0 .788-.147 1.478-.442 2.068s-.709 1.049-1.243 1.377-1.158.492-1.874.492zm.005-1.248c.464 0 .848-.122 1.153-.368.305-.245.53-.571.676-.979.149-.408.224-.857.224-1.347 0-.488-.075-.935-.224-1.343-.146-.411-.371-.74-.676-.989s-.689-.373-1.153-.373c-.468 0-.855.124-1.164.373-.305.249-.532.578-.681.989-.146.408-.219.855-.219 1.343 0 .49.073.939.219 1.347.149.408.376.734.681.979.309.246.696.368 1.164.368zm6.637 1.094-2.247-7.636h1.536l1.496 5.608h.075l1.501-5.608h1.536l1.492 5.583h.074l1.487-5.583h1.536l-2.242 7.636h-1.516l-1.551-5.513h-.115l-1.551 5.513zm18.101-4.947v1.288h-4.514v-1.288zm9.505 4.947 1.67-10.182h1.193l-1.67 10.182zm-4.609-2.724.194-1.194h7.716l-.194 1.194zm1.029 2.724 1.671-10.182h1.193l-1.671 10.182zm-.437-6.264.194-1.193h7.715l-.193 1.193zm9.232 6.264v-10.182h6.314v1.323h-4.778v3.102h4.325v1.317h-4.325v4.44zm8.203 0v-10.182h6.384v1.323h-4.848v3.102h4.514v1.317h-4.514v3.118h4.907v1.322zm8.436 0v-10.182h6.314v1.323h-4.778v3.102h4.325v1.317h-4.325v4.44zm11.499 0h-3.296v-10.182h3.4c.998 0 1.855.204 2.571.612.716.404 1.264.986 1.645 1.745.385.755.577 1.662.577 2.719 0 1.061-.194 1.972-.582 2.735-.384.762-.941 1.349-1.67 1.759-.729.408-1.611.612-2.645.612zm-1.76-1.342h1.675c.776 0 1.421-.146 1.934-.438.514-.295.899-.721 1.154-1.278.255-.56.383-1.242.383-2.048 0-.799-.128-1.476-.383-2.033-.252-.557-.628-.98-1.129-1.268-.5-.288-1.122-.432-1.864-.432h-1.77zm8.567 1.342v-10.182h6.314v1.323h-4.778v3.102h4.326v1.317h-4.326v4.44zm11.504.139c-.712 0-1.342-.122-1.889-.368-.543-.245-.969-.583-1.277-1.014-.309-.431-.461-.921-.458-1.471-.003-.431.085-.827.264-1.189.182-.364.429-.668.74-.909.312-.246.66-.402 1.044-.468v-.059c-.507-.123-.913-.395-1.218-.816-.304-.421-.455-.905-.452-1.452-.003-.52.134-.984.413-1.392.281-.411.668-.734 1.158-.969.491-.235 1.049-.353 1.675-.353.62 0 1.174.119 1.661.358.491.235.877.558 1.158.969.282.408.425.87.428 1.387-.003.547-.159 1.031-.467 1.452-.309.421-.71.693-1.204.816v.059c.382.066.725.222 1.03.468.308.241.553.545.735.909.186.362.28.758.284 1.189-.004.55-.159 1.04-.468 1.471-.308.431-.735.769-1.282 1.014-.544.246-1.169.368-1.875.368zm0-1.258c.421 0 .786-.069 1.094-.208.308-.143.547-.34.716-.592.169-.255.255-.554.259-.895-.004-.355-.096-.668-.279-.94-.179-.271-.422-.485-.731-.641-.308-.156-.661-.234-1.059-.234-.401 0-.757.078-1.068.234-.312.156-.557.37-.736.641-.179.272-.267.585-.264.94-.003.341.078.64.244.895.169.252.409.449.721.592.311.139.679.208 1.103.208zm0-4.738c.339 0 .639-.067.9-.203.262-.136.468-.325.617-.567.152-.242.23-.525.233-.85-.003-.318-.079-.597-.228-.835-.146-.239-.35-.423-.612-.552-.262-.133-.565-.199-.91-.199-.351 0-.659.066-.924.199-.262.129-.466.313-.612.552-.146.238-.217.517-.214.835-.003.325.07.608.219.85s.355.431.617.567c.265.136.57.203.914.203z" fill="#262626"/><rect fill="#00bdaa" height="56" rx="8" width="339" x="40" y="228"/><path d="m77.7238 303.035c-.0961-.302-.2253-.572-.3878-.811-.159-.242-.3496-.447-.5717-.616-.222-.172-.4756-.303-.7606-.393-.2818-.089-.5917-.134-.9297-.134-.5734 0-1.0905.147-1.5512.442s-.8252.728-1.0937 1.298c-.2652.567-.3977 1.261-.3977 2.083 0 .825.1342 1.523.4027 2.093.2684.57.6363 1.003 1.1037 1.298.4673.295.9992.442 1.5958.442.5535 0 1.0358-.112 1.4468-.338.4143-.225.7341-.543.9595-.954.2287-.415.343-.902.343-1.462l.3978.075h-2.9134v-1.268h4.0021v1.158c0 .855-.1823 1.598-.5468 2.227-.3613.627-.8618 1.111-1.5015 1.452-.6363.342-1.3655.512-2.1875.512-.9214 0-1.7301-.212-2.4261-.636-.6927-.424-1.233-1.026-1.6207-1.805-.3878-.782-.5817-1.71-.5817-2.784 0-.812.1127-1.541.3381-2.187.2253-.647.5419-1.195.9495-1.646.411-.454.8933-.8 1.4468-1.039.5568-.242 1.165-.363 1.8245-.363.5502 0 1.0623.081 1.5363.244.4772.162.9015.392 1.2727.691.3745.298.6844.653.9297 1.064.2452.407.411.86.4971 1.357zm3.4764 6.965v-7.636h1.4368v1.213h.0796c.1392-.411.3844-.734.7357-.97.3547-.238.7557-.358 1.2032-.358.0928 0 .2022.004.3281.01.1293.007.2303.015.3033.025v1.422c-.0597-.017-.1658-.035-.3182-.055-.1525-.023-.3049-.035-.4574-.035-.3513 0-.6645.075-.9396.224-.2718.146-.4872.35-.6463.612-.1591.258-.2387.553-.2387.885v4.663zm8.3908.154c-.7523 0-1.4003-.161-1.9439-.482-.5402-.325-.9578-.781-1.2528-1.367-.2917-.59-.4375-1.281-.4375-2.073 0-.783.1458-1.472.4375-2.069.295-.596.706-1.062 1.2329-1.397.5303-.334 1.1501-.502 1.8594-.502.4309 0 .8485.071 1.2529.214.4043.143.7672.366 1.0887.671s.5751.701.7607 1.188c.1856.484.2784 1.073.2784 1.765v.527h-6.0703v-1.113h4.6136c0-.391-.0795-.738-.2386-1.039-.1591-.305-.3828-.546-.6712-.721-.285-.176-.6198-.264-1.0042-.264-.4177 0-.7822.103-1.0938.308-.3082.203-.5469.468-.7159.796-.1657.325-.2486.678-.2486 1.059v.87c0 .51.0895.944.2685 1.302.1823.358.4358.632.7606.821.3249.185.7043.278 1.1385.278.2818 0 .5386-.04.7706-.119.232-.083.4326-.206.6016-.368s.2983-.363.3878-.602l1.4069.254c-.1127.414-.3148.777-.6065 1.089-.2883.308-.6513.548-1.0888.721-.4342.169-.9297.253-1.4865.253zm8.2168 0c-.7524 0-1.4003-.161-1.9439-.482-.5402-.325-.9578-.781-1.2528-1.367-.2917-.59-.4375-1.281-.4375-2.073 0-.783.1458-1.472.4375-2.069.295-.596.7059-1.062 1.2329-1.397.5303-.334 1.1501-.502 1.8594-.502.4309 0 .8485.071 1.2529.214.4043.143.7672.366 1.0887.671.322.305.575.701.761 1.188.185.484.278 1.073.278 1.765v.527h-6.0702v-1.113h4.6136c0-.391-.0795-.738-.2386-1.039-.1591-.305-.3828-.546-.6712-.721-.285-.176-.6198-.264-1.0042-.264-.4177 0-.7822.103-1.0938.308-.3082.203-.5469.468-.7159.796-.1657.325-.2486.678-.2486 1.059v.87c0 .51.0895.944.2685 1.302.1823.358.4358.632.7606.821.3248.185.7043.278 1.1385.278.2818 0 .5386-.04.7706-.119.232-.083.4326-.206.6016-.368s.2983-.363.3878-.602l1.4073.254c-.113.414-.315.777-.607 1.089-.288.308-.6512.548-1.0887.721-.4342.169-.9297.253-1.4865.253zm6.4122-4.688v4.534h-1.487v-7.636h1.427v1.243h.095c.175-.405.45-.73.825-.975.378-.245.853-.368 1.427-.368.52 0 .976.11 1.367.328.391.216.694.537.91.965.215.427.323.956.323 1.586v4.857h-1.487v-4.678c0-.554-.144-.986-.432-1.298-.288-.315-.684-.472-1.188-.472-.345 0-.652.074-.92.224-.265.149-.476.367-.631.656-.153.285-.229.63-.229 1.034zm15.085-.413v1.288h-4.514v-1.288zm9.504 4.947 1.671-10.182h1.193l-1.67 10.182zm-4.608-2.724.194-1.194h7.716l-.194 1.194zm1.029 2.724 1.67-10.182h1.194l-1.671 10.182zm-.438-6.264.194-1.193h7.716l-.194 1.193zm12.638 6.433c-.785-.003-1.457-.21-2.013-.621-.557-.411-.983-1.01-1.278-1.795-.295-.786-.443-1.732-.443-2.839 0-1.104.148-2.047.443-2.829.298-.782.726-1.379 1.283-1.79.56-.411 1.229-.616 2.008-.616s1.447.207 2.004.621c.557.411.982 1.008 1.277 1.79.299.779.448 1.72.448 2.824 0 1.11-.148 2.058-.443 2.844-.295.782-.721 1.38-1.277 1.795-.557.411-1.227.616-2.009.616zm0-1.327c.69 0 1.228-.337 1.616-1.01.391-.672.587-1.645.587-2.918 0-.845-.09-1.559-.269-2.143-.176-.586-.429-1.03-.761-1.332-.328-.305-.719-.457-1.173-.457-.686 0-1.225.338-1.616 1.014s-.588 1.649-.591 2.918c0 .849.088 1.566.263 2.153.179.583.433 1.026.761 1.327.328.298.722.448 1.183.448zm9.037 1.327c-.785-.003-1.456-.21-2.013-.621s-.983-1.01-1.278-1.795c-.295-.786-.442-1.732-.442-2.839 0-1.104.147-2.047.442-2.829.298-.782.726-1.379 1.283-1.79.56-.411 1.229-.616 2.008-.616s1.447.207 2.004.621c.557.411.983 1.008 1.278 1.79.298.779.447 1.72.447 2.824 0 1.11-.148 2.058-.443 2.844-.294.782-.72 1.38-1.277 1.795-.557.411-1.227.616-2.009.616zm0-1.327c.69 0 1.228-.337 1.616-1.01.391-.672.587-1.645.587-2.918 0-.845-.09-1.559-.269-2.143-.175-.586-.429-1.03-.76-1.332-.329-.305-.72-.457-1.174-.457-.686 0-1.224.338-1.616 1.014-.391.676-.588 1.649-.591 2.918 0 .849.088 1.566.263 2.153.179.583.433 1.026.761 1.327.328.298.723.448 1.183.448zm5.632 1.158v-10.182h3.729c.722 0 1.32.119 1.794.358.474.235.829.555 1.064.96.236.401.353.853.353 1.357 0 .424-.078.782-.233 1.074-.156.288-.365.52-.627.696-.258.172-.543.298-.855.378v.099c.338.017.668.126.989.328.325.199.594.482.806.85s.318.816.318 1.343c0 .52-.123.987-.368 1.402-.242.411-.616.737-1.124.979-.507.239-1.155.358-1.943.358zm1.536-1.317h2.217c.736 0 1.263-.143 1.581-.428.319-.285.478-.641.478-1.069 0-.321-.082-.616-.244-.885-.162-.268-.394-.482-.696-.641-.298-.159-.653-.239-1.064-.239h-2.272zm0-4.46h2.058c.345 0 .655-.066.93-.199.278-.132.499-.318.661-.557.166-.242.249-.527.249-.855 0-.421-.148-.774-.443-1.059s-.747-.427-1.357-.427h-2.098zm10.92 5.777h-3.296v-10.182h3.401c.997 0 1.854.204 2.57.612.716.404 1.264.986 1.645 1.745.385.755.577 1.662.577 2.719 0 1.061-.194 1.972-.582 2.735-.384.762-.941 1.349-1.67 1.759-.729.408-1.611.612-2.645.612zm-1.76-1.342h1.676c.775 0 1.42-.146 1.934-.438.513-.295.898-.721 1.153-1.278.255-.56.383-1.242.383-2.048 0-.799-.128-1.476-.383-2.033-.252-.557-.628-.98-1.129-1.268-.5-.288-1.121-.432-1.864-.432h-1.77zm8.922 1.342h-1.631l3.664-10.182h1.775l3.664 10.182h-1.631l-2.878-8.332h-.08zm.273-3.987h5.29v1.292h-5.29zm9.529 3.987h-1.63l3.664-10.182h1.775l3.664 10.182h-1.631l-2.878-8.332h-.08zm.274-3.987h5.29v1.292h-5.29z" fill="#262626"/><rect fill="#e6f8f7" height="56" rx="8" width="331" x="408" y="228"/><path d="m449.959 301.035c-.096-.302-.226-.572-.388-.811-.159-.242-.35-.447-.572-.616-.222-.172-.475-.303-.76-.393-.282-.089-.592-.134-.93-.134-.574 0-1.091.147-1.551.442-.461.295-.826.728-1.094 1.298-.265.567-.398 1.261-.398 2.083 0 .825.134 1.523.403 2.093.268.57.636 1.003 1.104 1.298.467.295.999.442 1.595.442.554 0 1.036-.112 1.447-.338.415-.225.734-.543.96-.954.228-.415.343-.902.343-1.462l.398.075h-2.914v-1.268h4.002v1.158c0 .855-.182 1.598-.547 2.227-.361.627-.861 1.111-1.501 1.452-.636.342-1.366.512-2.188.512-.921 0-1.73-.212-2.426-.636-.692-.424-1.233-1.026-1.62-1.805-.388-.782-.582-1.71-.582-2.784 0-.812.113-1.541.338-2.187.225-.647.542-1.195.95-1.646.411-.454.893-.8 1.446-1.039.557-.242 1.165-.363 1.825-.363.55 0 1.062.081 1.536.244.477.162.902.392 1.273.691.374.298.684.653.93 1.064.245.407.411.86.497 1.357zm3.476 6.965v-7.636h1.437v1.213h.079c.14-.411.385-.734.736-.97.355-.238.756-.358 1.203-.358.093 0 .203.004.328.01.13.007.231.015.304.025v1.422c-.06-.017-.166-.035-.318-.055-.153-.023-.305-.035-.458-.035-.351 0-.664.075-.939.224-.272.146-.488.35-.647.612-.159.258-.238.553-.238.885v4.663zm8.391.154c-.752 0-1.4-.161-1.944-.482-.54-.325-.958-.781-1.253-1.367-.292-.59-.437-1.281-.437-2.073 0-.783.145-1.472.437-2.069.295-.596.706-1.062 1.233-1.397.53-.334 1.15-.502 1.859-.502.431 0 .849.071 1.253.214.405.143.768.366 1.089.671.322.305.575.701.761 1.188.185.484.278 1.073.278 1.765v.527h-6.07v-1.113h4.613c0-.391-.079-.738-.238-1.039-.159-.305-.383-.546-.671-.721-.285-.176-.62-.264-1.005-.264-.417 0-.782.103-1.093.308-.309.203-.547.468-.716.796-.166.325-.249.678-.249 1.059v.87c0 .51.09.944.269 1.302.182.358.435.632.76.821.325.185.705.278 1.139.278.282 0 .538-.04.77-.119.232-.083.433-.206.602-.368s.298-.363.388-.602l1.407.254c-.113.414-.315.777-.607 1.089-.288.308-.651.548-1.089.721-.434.169-.929.253-1.486.253zm8.217 0c-.753 0-1.401-.161-1.944-.482-.54-.325-.958-.781-1.253-1.367-.292-.59-.438-1.281-.438-2.073 0-.783.146-1.472.438-2.069.295-.596.706-1.062 1.233-1.397.53-.334 1.15-.502 1.859-.502.431 0 .849.071 1.253.214s.767.366 1.089.671c.321.305.575.701.761 1.188.185.484.278 1.073.278 1.765v.527h-6.07v-1.113h4.613c0-.391-.079-.738-.238-1.039-.159-.305-.383-.546-.672-.721-.285-.176-.619-.264-1.004-.264-.417 0-.782.103-1.094.308-.308.203-.546.468-.715.796-.166.325-.249.678-.249 1.059v.87c0 .51.089.944.268 1.302.183.358.436.632.761.821.325.185.704.278 1.139.278.281 0 .538-.04.77-.119.232-.083.433-.206.602-.368s.298-.363.388-.602l1.406.254c-.112.414-.314.777-.606 1.089-.288.308-.651.548-1.089.721-.434.169-.93.253-1.486.253zm6.412-4.688v4.534h-1.487v-7.636h1.427v1.243h.095c.175-.405.45-.73.825-.975.378-.245.853-.368 1.427-.368.52 0 .976.11 1.367.328.391.216.694.537.91.965.215.427.323.956.323 1.586v4.857h-1.487v-4.678c0-.554-.144-.986-.432-1.298-.289-.315-.685-.472-1.188-.472-.345 0-.652.074-.92.224-.265.149-.476.367-.632.656-.152.285-.228.63-.228 1.034zm15.085-.413v1.288h-4.514v-1.288zm9.504 4.947 1.671-10.182h1.193l-1.671 10.182zm-4.608-2.724.194-1.194h7.715l-.193 1.194zm1.029 2.724 1.67-10.182h1.193l-1.67 10.182zm-.438-6.264.194-1.193h7.716l-.194 1.193zm9.232 6.264v-10.182h6.384v1.323h-4.847v3.102h4.514v1.317h-4.514v3.118h4.907v1.322zm11.852.139c-.455-.006-.902-.089-1.343-.248-.437-.159-.835-.425-1.193-.796s-.645-.87-.86-1.496c-.212-.627-.318-1.409-.318-2.347 0-.891.088-1.684.263-2.376.179-.696.436-1.283.771-1.76.335-.478.739-.84 1.213-1.089s1.006-.373 1.596-.373c.606 0 1.145.121 1.616.363.47.242.851.573 1.143.994.295.421.482.905.562 1.452h-1.517c-.102-.434-.306-.785-.611-1.054-.305-.272-.703-.408-1.193-.408-.746 0-1.328.327-1.745.98-.415.649-.623 1.558-.627 2.724h.075c.176-.288.391-.533.646-.736.259-.205.547-.362.865-.472.322-.113.66-.169 1.014-.169.59 0 1.124.144 1.601.433.481.285.864.679 1.149 1.183s.427 1.08.427 1.73-.147 1.238-.442 1.765c-.292.527-.703.945-1.233 1.253-.53.305-1.15.454-1.859.447zm-.005-1.292c.391 0 .74-.097 1.049-.289.308-.192.551-.451.73-.775.179-.325.269-.688.269-1.089 0-.391-.088-.748-.264-1.069-.172-.321-.411-.577-.716-.766-.301-.189-.646-.283-1.034-.283-.295 0-.568.056-.82.169-.249.113-.467.268-.656.467s-.338.428-.448.686c-.106.256-.159.526-.159.811 0 .381.088.734.264 1.059.179.325.422.586.731.785.311.196.662.294 1.054.294zm5.489 1.153v-10.182h6.314v1.323h-4.777v3.102h4.325v1.317h-4.325v4.44zm11.505.139c-.713 0-1.343-.122-1.89-.368-.543-.245-.969-.583-1.277-1.014s-.461-.921-.458-1.471c-.003-.431.085-.827.264-1.189.182-.364.429-.668.741-.909.311-.246.659-.402 1.044-.468v-.059c-.507-.123-.913-.395-1.218-.816s-.456-.905-.453-1.452c-.003-.52.134-.984.413-1.392.282-.411.668-.734 1.158-.969.491-.235 1.049-.353 1.676-.353.619 0 1.173.119 1.66.358.491.235.877.558 1.159.969.281.408.424.87.427 1.387-.003.547-.159 1.031-.467 1.452s-.709.693-1.203.816v.059c.381.066.724.222 1.029.468.308.241.553.545.736.909.185.362.28.758.283 1.189-.003.55-.159 1.04-.467 1.471-.309.431-.736.769-1.283 1.014-.544.246-1.168.368-1.874.368zm0-1.258c.421 0 .785-.069 1.093-.208.309-.143.547-.34.716-.592.169-.255.256-.554.259-.895-.003-.355-.096-.668-.279-.94-.179-.271-.422-.485-.73-.641-.309-.156-.662-.234-1.059-.234-.401 0-.758.078-1.069.234-.312.156-.557.37-.736.641-.179.272-.267.585-.264.94-.003.341.078.64.244.895.169.252.409.449.721.592.312.139.679.208 1.104.208zm0-4.738c.338 0 .638-.067.9-.203.261-.136.467-.325.616-.567.152-.242.23-.525.234-.85-.004-.318-.08-.597-.229-.835-.146-.239-.35-.423-.612-.552-.261-.133-.565-.199-.909-.199-.352 0-.66.066-.925.199-.262.129-.466.313-.612.552-.145.238-.217.517-.213.835-.004.325.069.608.218.85.15.242.355.431.617.567.265.136.57.203.915.203zm5.544 5.857v-10.182h6.314v1.323h-4.778v3.102h4.326v1.317h-4.326v4.44zm8.407 0 4.445-8.79v-.074h-5.141v-1.318h6.732v1.362l-4.43 8.82z" fill="#262626"/><rect fill="#5600af" height="26" rx="8" width="49" x="330" y="405"/><path d="m341.979 423h-1.631l3.664-10.182h1.775l3.664 10.182h-1.631l-2.878-8.332h-.08zm.273-3.987h5.29v1.292h-5.29zm9.529 3.987h-1.63l3.664-10.182h1.775l3.664 10.182h-1.631l-2.879-8.332h-.079zm.274-3.987h5.29v1.292h-5.29zm9.529 3.987h-1.631l3.665-10.182h1.774l3.664 10.182h-1.63l-2.879-8.332h-.079zm.274-3.987h5.289v1.292h-5.289z" fill="#fff"/><rect fill="#f9f7fb" height="26" rx="8" width="49" x="690" y="405"/><path d="m701.979 423h-1.631l3.664-10.182h1.775l3.664 10.182h-1.631l-2.878-8.332h-.08zm.273-3.987h5.29v1.292h-5.29zm9.529 3.987h-1.63l3.664-10.182h1.775l3.664 10.182h-1.631l-2.879-8.332h-.079zm.274-3.987h5.29v1.292h-5.29zm9.529 3.987h-1.631l3.665-10.182h1.774l3.664 10.182h-1.63l-2.879-8.332h-.079zm.274-3.987h5.289v1.292h-5.289z" fill="#262626"/><rect fill="#fe346e" height="26" rx="8" width="49" x="330" y="523"/><path d="m346.979 541h-1.631l3.664-10.182h1.775l3.664 10.182h-1.631l-2.878-8.332h-.08zm.273-3.987h5.29v1.292h-5.29zm9.529 3.987h-1.63l3.664-10.182h1.775l3.664 10.182h-1.631l-2.879-8.332h-.079zm.274-3.987h5.29v1.292h-5.29z" fill="#fff"/><rect fill="#ffebf1" height="26" rx="8" width="49" x="690" y="523"/><path d="m701.979 541h-1.631l3.664-10.182h1.775l3.664 10.182h-1.631l-2.878-8.332h-.08zm.273-3.987h5.29v1.292h-5.29zm9.529 3.987h-1.63l3.664-10.182h1.775l3.664 10.182h-1.631l-2.879-8.332h-.079zm.274-3.987h5.29v1.292h-5.29zm9.529 3.987h-1.631l3.665-10.182h1.774l3.664 10.182h-1.63l-2.879-8.332h-.079zm.274-3.987h5.289v1.292h-5.289z" fill="#262626"/><rect fill="#f1e7b6" height="26" rx="8" width="49" x="330" y="639"/><path d="m341.979 657h-1.631l3.664-10.182h1.775l3.664 10.182h-1.631l-2.878-8.332h-.08zm.273-3.987h5.29v1.292h-5.29zm9.529 3.987h-1.63l3.664-10.182h1.775l3.664 10.182h-1.631l-2.879-8.332h-.079zm.274-3.987h5.29v1.292h-5.29zm9.529 3.987h-1.631l3.665-10.182h1.774l3.664 10.182h-1.63l-2.879-8.332h-.079zm.274-3.987h5.289v1.292h-5.289z" fill="#262626"/><rect fill="#fefdf8" height="26" rx="8" width="49" x="690" y="639"/><path d="m701.979 657h-1.631l3.664-10.182h1.775l3.664 10.182h-1.631l-2.878-8.332h-.08zm.273-3.987h5.29v1.292h-5.29zm9.529 3.987h-1.63l3.664-10.182h1.775l3.664 10.182h-1.631l-2.879-8.332h-.079zm.274-3.987h5.29v1.292h-5.29zm9.529 3.987h-1.631l3.665-10.182h1.774l3.664 10.182h-1.63l-2.879-8.332h-.079zm.274-3.987h5.289v1.292h-5.289z" fill="#262626"/><rect fill="#00bdaa" height="26" rx="8" width="49" x="330" y="291"/><path d="m341.979 309h-1.631l3.664-10.182h1.775l3.664 10.182h-1.631l-2.878-8.332h-.08zm.273-3.987h5.29v1.292h-5.29zm9.529 3.987h-1.63l3.664-10.182h1.775l3.664 10.182h-1.631l-2.879-8.332h-.079zm.274-3.987h5.29v1.292h-5.29zm9.529 3.987h-1.631l3.665-10.182h1.774l3.664 10.182h-1.63l-2.879-8.332h-.079zm.274-3.987h5.289v1.292h-5.289z" fill="#262626"/><rect fill="#e6f8f7" height="26" rx="8" width="49" x="690" y="291"/><path d="m701.979 309h-1.631l3.664-10.182h1.775l3.664 10.182h-1.631l-2.878-8.332h-.08zm.273-3.987h5.29v1.292h-5.29zm9.529 3.987h-1.63l3.664-10.182h1.775l3.664 10.182h-1.631l-2.879-8.332h-.079zm.274-3.987h5.29v1.292h-5.29zm9.529 3.987h-1.631l3.665-10.182h1.774l3.664 10.182h-1.63l-2.879-8.332h-.079zm.274-3.987h5.289v1.292h-5.289z" fill="#262626"/><rect fill="#262626" height="26" rx="8" width="49" x="330" y="174"/><path d="m341.979 192h-1.631l3.664-10.182h1.775l3.664 10.182h-1.631l-2.878-8.332h-.08zm.273-3.987h5.29v1.292h-5.29zm9.529 3.987h-1.63l3.664-10.182h1.775l3.664 10.182h-1.631l-2.879-8.332h-.079zm.274-3.987h5.29v1.292h-5.29zm9.529 3.987h-1.631l3.665-10.182h1.774l3.664 10.182h-1.63l-2.879-8.332h-.079zm.274-3.987h5.289v1.292h-5.289z" fill="#fff"/><rect fill="#fff" height="26" rx="8" width="49" x="690" y="174"/><path d="m701.979 192h-1.631l3.664-10.182h1.775l3.664 10.182h-1.631l-2.878-8.332h-.08zm.273-3.987h5.29v1.292h-5.29zm9.529 3.987h-1.63l3.664-10.182h1.775l3.664 10.182h-1.631l-2.879-8.332h-.079zm.274-3.987h5.29v1.292h-5.29zm9.529 3.987h-1.631l3.665-10.182h1.774l3.664 10.182h-1.63l-2.879-8.332h-.079zm.274-3.987h5.289v1.292h-5.289z" fill="#262626"/></svg>