<svg fill="none" height="300" viewBox="0 0 400 300" width="400" xmlns="http://www.w3.org/2000/svg"><path d="m365.59 248h-331.1803c-3.1102-.003-6.0922-1.239-8.2915-3.439-2.1992-2.199-3.4359-5.181-3.4385-8.291v-172.55c.0053-3.1084 1.2431-6.0879 3.4421-8.285 2.1989-2.197 5.1794-3.4324 8.2879-3.435h331.1803c3.11.0026 6.092 1.2393 8.291 3.4386 2.199 2.1992 3.436 5.1812 3.439 8.2914v172.55c-.006 3.108-1.243 6.088-3.442 8.285s-5.18 3.432-8.288 3.435zm-331.1803-195c-2.8424.0053-5.5671 1.1361-7.5779 3.145-2.0108 2.009-3.1442 4.7326-3.1521 7.575v172.56c.0079 2.842 1.1413 5.566 3.1521 7.575s4.7355 3.14 7.5779 3.145h331.1803c2.844-.005 5.57-1.137 7.581-3.149 2.011-2.011 3.143-4.737 3.149-7.581v-172.55c-.008-2.8424-1.142-5.566-3.152-7.575-2.011-2.0089-4.736-3.1397-7.578-3.145z" fill="#d1d3d4"/><path d="m354.67 220.599s-.94 6.57 0 7.42 2.06-.94 2.06-.94-.37 4.41 2 3.94c1.076-.254 2.033-.866 2.715-1.737.681-.871 1.046-1.947 1.035-3.053-.09-2-2.91-7.79-2.91-7.79" fill="#fff"/><path d="m358.369 231.51c-.415.005-.818-.144-1.13-.42-.664-.784-1.019-1.783-1-2.81-.252.211-.555.352-.88.41-.18.02-.363.001-.536-.056-.172-.057-.331-.15-.464-.274-1-.91-.44-5.78-.14-7.83.018-.12.082-.227.178-.299.097-.073.218-.104.337-.086.12.017.227.081.3.177.072.097.103.218.085.338-.48 3.41-.55 6.63-.14 7 .037.039.083.068.133.085.051.018.105.023.157.015.4-.05.9-.66 1.08-.95.057-.084.139-.148.235-.18.096-.033.2-.033.295 0 .098.031.182.095.238.18.056.086.082.188.072.29-.06.65-.05 2.65.66 3.29.105.089.23.15.365.178s.274.022.405-.018c.97-.228 1.833-.778 2.447-1.562.615-.783.944-1.753.933-2.748-.07-1.54-2.09-6-2.86-7.62-.051-.109-.058-.234-.017-.347.04-.114.124-.207.232-.258.109-.052.234-.058.347-.018.114.04.207.124.258.233.12.24 2.86 5.92 3 8 .021 1.218-.378 2.405-1.13 3.363s-1.812 1.628-3 1.897c-.152.024-.306.031-.46.02z" fill="#231f20"/><path d="m299.999 177s-4.29-9.93-5.85-10.31-4 6.87-4 6.87c2.114 2.169 4.094 4.463 5.93 6.87.26.364.5.741.72 1.13 1.42 2.72 3.2-4.56 3.2-4.56z" fill="#fff"/><path d="m297.44 182.629c-.32 0-.74-.16-1.12-.84-.208-.374-.438-.734-.69-1.08-1.824-2.387-3.787-4.664-5.88-6.82-.063-.056-.107-.131-.126-.213-.02-.082-.014-.168.016-.247.78-2.31 2.82-7.62 4.57-7.18s5.14 8.2 6.16 10.58c.03.091.03.189 0 .28-.38 1.6-1.42 5.32-2.83 5.51zm-6.84-9.17c2.062 2.117 3.989 4.361 5.77 6.72.272.376.522.766.75 1.17.18.32.3.37.32.37.5-.07 1.44-2.23 2-4.67-2-4.63-4.66-9.7-5.48-9.91-.51-.14-2.06 2.58-3.36 6.32z" fill="#231f20"/><path d="m332 262.9s.18 5 .84 5.25 10.61 2.44 10.42 1.41-5.63-7.32-5.63-7.32z" fill="#fff"/><path d="m342.289 270.27c-2.87 0-9.6-1.67-9.67-1.7-.23-.1-.92-.39-1.11-5.66-.005-.115.033-.227.107-.315.074-.087.179-.143.293-.155l5.63-.65c.074-.01.149-.001.219.025.07.027.132.069.181.125 1.29 1.5 5.53 6.47 5.73 7.54.021.107.012.218-.027.321-.039.102-.106.192-.193.259-.359.177-.761.25-1.16.21zm-9.85-7c-.012 1.515.197 3.024.62 4.48.6.24 7.93 1.77 9.6 1.6-1.61-2.327-3.364-4.551-5.25-6.66z" fill="#231f20"/><path d="m328.86 262s.28 6 0 6.1-11.61 1.31-11.25.66 6.09-6.76 6.09-6.76" fill="#fff"/><path d="m319.15 269.34c-1 0-1.72-.07-1.88-.27-.061-.081-.098-.176-.109-.277-.01-.1.006-.201.049-.293.37-.68 5.19-5.83 6.16-6.85.042-.042.091-.076.146-.099s.114-.034.174-.034c.059 0 .118.011.173.034s.105.057.147.099c.086.086.134.203.134.325s-.048.239-.134.325c-1.83 2-4.62 5-5.64 6.19 2 .06 8.59-.58 10.11-.8.07-.79 0-3.37-.1-5.68-.003-.121.041-.239.123-.328.082-.09.196-.144.317-.152.06-.002.121.007.177.027.057.021.109.053.154.094s.081.09.106.145c.026.054.04.114.043.174.29 6.35.06 6.43-.32 6.55-.05 0-6.51.82-9.83.82z" fill="#231f20"/><path d="m317.81 218.979 3.45 43.92h8.43l2.27-21.96v21.96l7.79 1.25 4-40.4z" fill="#231f20"/><path d="m339.75 264.649h-.08l-7.79-1.25c-.116-.019-.221-.079-.296-.169-.075-.089-.116-.203-.114-.321v-12.36l-1.29 12.45c-.015.122-.074.235-.166.316-.093.081-.211.125-.334.124h-8.42c-.125.001-.245-.045-.337-.128-.093-.083-.151-.198-.163-.322l-3.45-43.99c-.005-.075.007-.151.034-.222.028-.071.071-.135.126-.188.056-.05.123-.087.196-.108s.149-.025.224-.012l25.95 4.77c.121.022.229.089.303.187.074.099.109.221.097.343l-4 40.41c-.006.067-.026.132-.058.191-.033.059-.078.11-.132.149-.083.076-.189.122-.3.13zm-7.29-2.18 6.84 1.1 3.91-39.42-24.86-4.56 3.37 42.81h7.52l2.23-21.52c.003-.063.02-.125.048-.182.029-.057.069-.108.117-.149.049-.041.105-.072.166-.091.061-.018.125-.024.189-.018.127.008.247.064.334.157s.136.216.136.343z" fill="#231f20"/><path d="m319.8 188.4s-8.06-2.8-11.05-5.45-8.17-8.12-8.17-8.12l-5.58 6.11c2.476 4.442 5.434 8.597 8.82 12.39 5.06 5.44 15.9 9.71 15.9 9.71z" fill="#400082"/><path d="m96.1499 223.54-5.44 39.05h-7.78l-1.01-41.35z" fill="#fff"/><path d="m90.7093 263.09h-7.78c-.1302-.002-.2544-.054-.3474-.145-.0929-.091-.1476-.215-.1526-.345l-1-41.34c-.0036-.073.0099-.147.0394-.215.0295-.067.0742-.127.1306-.175.0552-.049.1206-.085.1915-.106.0709-.02.1455-.025.2185-.014l14.23 2.3c.0637.01.1249.032.18.066.0551.033.1031.077.1412.129s.0655.111.0808.174c.0152.063.0179.128.008.191l-5.44 39c-.0052.129-.0602.251-.1534.341-.0932.089-.2174.139-.3466.139zm-7.29-1h6.85l5.32-38.09-13.16-2.13z" fill="#231f20"/><path d="m82.9297 262.59v4.13s18.4803 2.28 18.3303 1.28-10.5503-5.39-10.5503-5.39z" fill="#231f20"/><path d="m99.4096 268.69c-3.5 0-10.5-.74-16.54-1.48-.1193-.015-.2291-.073-.3084-.163-.0792-.091-.1225-.207-.1216-.327v-4.13c-.0014-.065.0103-.13.0343-.191.0241-.06.06-.116.1056-.162.0456-.047.1001-.084.1602-.109s.1247-.038.1899-.038h7.78c.0625-.014.1274-.014.19 0 7.08 3 10.7404 4.94 10.8604 5.78.009.179-.052.355-.17.49-.686.297-1.437.411-2.1804.33zm-16-2.42c6.95.84 14.53 1.56 16.8704 1.46-3.1354-1.748-6.3749-3.301-9.7004-4.65h-7.15z" fill="#231f20"/><path d="m64.6699 223.54 5.45 39.05h7.77l1.38-41.35z" fill="#fff"/><path d="m77.8901 263.09h-7.77c-.1222-.001-.2399-.046-.3317-.127s-.1515-.192-.1683-.313l-5.44-39c-.0172-.129.0172-.261.0957-.365.0785-.105.195-.175.3243-.195l14.59-2.3c.073-.011.1476-.006.2185.014.0709.021.1363.057.1915.106.0543.05.0974.11.1267.177s.0441.14.0433.213l-1.38 41.3c-.0051.13-.0597.254-.1526.345-.093.091-.2172.143-.3474.145zm-7.34-1h6.86l1.34-40.26-13.51 2.17z" fill="#231f20"/><path d="m101.11 156.28c.015.984-.193 1.958-.61 2.85-.9648 2.095-2.5186 3.864-4.472 5.091-1.9533 1.227-4.2217 1.859-6.5281 1.819-3.46-.1-6.45-3.17-8.43-5.79-4.54-6-5.26-15.35-.33-21.37 1.78-2.18 3.29-4.49 6.27-5 1.0871-.197 2.2042-.147 3.2699.143 1.0658.291 2.0531.816 2.8901 1.537 2 1.77 2.92 4.49 3.46 7.12s.83 5.37 2 7.79c1.11 2.19 2.3701 3.76 2.4801 5.81z" fill="#fff"/><path d="m89.8695 166.55h-.3301c-2.91-.09-5.8799-2.1-8.82-6-5-6.63-5.1499-16.09-.3199-22 .21-.25.41-.5.61-.76 1.54-1.93 3.1399-3.94 5.9499-4.46 1.1624-.215 2.3583-.166 3.499.144 1.1408.31 2.1972.872 3.0911 1.646 2.27 2 3.1299 5 3.6199 7.4.12.6.2301 1.2.3401 1.8.2728 2.019.8143 3.993 1.61 5.87.3.63.6199 1.2.9195 1.75.864 1.288 1.403 2.767 1.57 4.31.021 1.06-.205 2.111-.66 3.07-.9705 2.132-2.5279 3.943-4.4897 5.224-1.9619 1.28-4.2474 1.976-6.5898 2.006zm-1.5201-32.34c-.4024.001-.804.038-1.1999.11-2.45.46-3.8601 2.23-5.3601 4.11l-.61.76c-4.48 5.48-4.33 14.6.34 20.76 2.75 3.63 5.45 5.51 8 5.59 2.2019.044 4.3683-.559 6.231-1.734s3.34-2.87 4.249-4.876c.3896-.821.5846-1.721.5696-2.63-.169-1.385-.6625-2.711-1.4396-3.87-.32-.56-.64-1.15-1-1.79-.8363-1.958-1.4048-4.02-1.6899-6.13-.11-.59-.2201-1.19-.3401-1.78-.46-2.25-1.2499-5.06-3.2999-6.84-1.2418-1.063-2.8161-1.657-4.4501-1.68z" fill="#231f20"/><path d="m90.5196 164.229s7.8401 13.7 9.7104 14.83l10.19-11.819 4.41 4.22s-9.7 18.299-15.4904 17.079c-5.79-1.22-13.7-15-13.7-15" fill="#fff"/><path d="m99.8997 189.1c-.2217-.004-.4426-.027-.66-.07-5.94-1.25-13.71-14.69-14-15.26-.051-.113-.0583-.241-.0206-.359.0378-.117.1179-.217.2249-.279.107-.063.2333-.083.3544-.057.1211.025.2285.095.3013.195.08.14 7.87 13.62 13.37 14.78 4.3703.93 12.0003-11.29 14.7703-16.49l-3.76-3.6-9.84 11.43c-.077.087-.182.145-.297.163-.115.019-.233-.004-.333-.063-1.9403-1.16-9.0903-13.6-9.8903-15-.065-.117-.081-.255-.0444-.383.0366-.129.1227-.237.2394-.302s.2544-.081.3829-.045c.1284.037.2371.123.3021.24 2.91 5.09 7.55 12.73 9.2203 14.39l9.78-11.48c.089-.101.215-.162.35-.17.068-.007.137.002.201.026.065.024.122.063.169.114l4.41 4.22c.078.074.13.172.148.278.018.107.001.216-.048.312-.94 1.84-9.36 17.41-15.3303 17.41z" fill="#231f20"/><path d="m291.89 123s4.33 40.65 4.67 41.2c1.02 1.823 1.373 3.945 1 6-.5 3.35-2.81 6.65-3.55 7s-4.82.31-4.87-.53 1.87-1.35 3-1.9 3.23-3.11 2.76-4.54-2.62-2.39-3.14-2.12-2.25 4.12-3.44 3.32.66-3.49 1.33-5.55-8.4-40.88-8.4-40.88" fill="#fff"/><path d="m292.109 177.86c-1.024.059-2.049-.112-3-.5-.119-.065-.221-.158-.296-.271-.075-.114-.121-.244-.134-.379-.06-1 1.16-1.46 2.34-1.94.32-.13.63-.26.9-.39 1-.49 2.9-2.87 2.52-4-.238-.489-.591-.913-1.028-1.236-.436-.324-.945-.538-1.482-.624-.06.07-.36.52-.59.88-.69 1.06-1.55 2.39-2.47 2.57-.287.058-.585.001-.83-.16-1.16-.79-.37-2.54.39-4.22.28-.63.57-1.28.76-1.86.42-1.59-4.77-25.16-8.37-40.62-.024-.118-.002-.24.061-.343.063-.102.163-.176.279-.207.12-.024.243-.001.346.064s.176.168.204.286c.93 4 9 39 8.35 41.11-.229.662-.496 1.309-.8 1.94-.55 1.22-1.23 2.73-.7 3.09.021.01.043.015.065.015.023 0 .045-.005.065-.015.54-.11 1.38-1.41 1.88-2.18s.7-1.06 1-1.2c.463-.141.962-.094 1.39.13.531.196 1.016.497 1.426.886.411.388.739.856.964 1.374.59 1.76-1.82 4.51-3 5.09-.28.14-.61.28-.95.42-.55.23-1.65.68-1.77 1 1.381.385 2.831.45 4.24.19.47-.2 2.77-3.25 3.27-6.6.363-1.952.038-3.97-.92-5.71-.35-.56-3.11-26.18-4.73-41.4-.011-.12.026-.241.103-.334.076-.094.187-.153.307-.166.12-.009.239.029.332.105.093.077.153.186.168.305 1.7 16 4.33 40.07 4.63 41.08 1.056 1.902 1.41 4.114 1 6.25-.5 3.36-2.84 6.92-3.83 7.32-.68.185-1.384.269-2.09.25z" fill="#231f20"/><path d="m222.57 121.53s-9.79 30.3-12.74 35.76-5 8.16-4.82 9.85 1 4.1 3.75 2.71 4.21-1.49 6.29-5.71c.88-1.79 16.95-37.14 16.95-37.14" fill="#fff"/><path d="m207.29 170.72c-.37.006-.735-.084-1.06-.26-1.21-.65-1.57-2.33-1.67-3.27-.15-1.33.85-3.06 2.5-5.92.7-1.2 1.49-2.57 2.37-4.2 2.89-5.36 12.61-35.38 12.7-35.68.039-.115.121-.211.229-.267s.234-.068.351-.033c.115.039.21.122.264.23.055.109.064.235.026.35-.4 1.24-9.83 30.4-12.76 35.83-.89 1.65-1.69 3-2.39 4.23-1.51 2.61-2.5 4.33-2.39 5.36.07.62.33 2.1 1.21 2.57.308.123.643.168.973.129.33-.038.645-.158.917-.349.43-.22.83-.41 1.21-.59 2-.93 3.19-1.5 4.87-4.91.87-1.76 16.73-36.8 16.89-37.16.059-.095.15-.166.258-.198.107-.033.222-.025.324.022.102.046.184.129.229.231.046.103.052.218.019.325-.65 1.44-16 35.41-16.9 37.18-1.82 3.7-3.28 4.39-5.3 5.34-.37.17-.76.36-1.19.58-.516.283-1.092.441-1.68.46z" fill="#231f20"/><path d="m204 143.49s5.33 13.42 5.85 13.8c1.659 1.282 2.811 3.11 3.25 5.16.85 3.28 0 7.22-.56 7.79s-4.32 2.16-4.69 1.41 1.19-2 2-2.91 1.77-4.13.77-5.26-3.34-1.19-3.71-.74-.47 4.68-1.88 4.4-.75-3.47-.94-5.63-7.88-13.7-7.88-13.7" fill="#fff"/><path d="m208.319 172.299h-.26c-.134-.012-.262-.058-.374-.134-.112-.075-.203-.176-.266-.296-.43-.86.49-1.79 1.39-2.7.24-.25.48-.49.68-.71.72-.84 1.55-3.77.77-4.66-.405-.352-.889-.601-1.411-.728s-1.067-.128-1.589-.002c0 .08-.12.61-.2 1-.22 1.25-.5 2.8-1.27 3.33-.119.084-.254.143-.397.172s-.29.029-.433-.002c-1.37-.28-1.33-2.19-1.28-4 0-.69 0-1.4 0-2-.13-1.5-4.74-8.89-7.81-13.49-.053-.1-.067-.217-.04-.328.028-.11.096-.206.19-.27.095-.063.21-.089.322-.073.113.016.216.074.288.161.79 1.19 7.76 11.71 8 13.92.036.7.036 1.401 0 2.1 0 1.34-.07 3 .55 3.12.022.012.046.018.07.018.025 0 .049-.006.07-.018.45-.31.72-1.82.88-2.73.028-.518.172-1.024.42-1.48.366-.312.841-.466 1.32-.43.567-.024 1.133.066 1.664.265s1.016.504 1.426.895c1.22 1.39.08 4.87-.77 5.85-.21.24-.46.5-.72.76-.42.42-1.25 1.27-1.24 1.59 1.432-.165 2.803-.669 4-1.47.35-.36 1.28-4.07.44-7.35-.424-1.94-1.509-3.672-3.07-4.9-.53-.38-3.56-7.82-6-14-.029-.057-.047-.119-.051-.183s.006-.129.028-.189c.023-.06.057-.115.102-.161s.099-.082.159-.106c.059-.024.123-.035.188-.033.064.003.127.019.184.047.058.028.109.068.151.117.041.049.072.107.089.168 2 5 5.27 13.05 5.75 13.64 1.721 1.338 2.914 3.24 3.37 5.37.85 3.29.07 7.48-.68 8.23-1.382.94-2.977 1.52-4.64 1.69z" fill="#231f20"/><path d="m116 141s-3.85 18.16-4.36 18.56c-1.594 1.375-2.655 3.264-3 5.34-.66 3.33.41 7.21 1 7.74s4.43 1.91 4.76 1.14-1.31-1.9-2.17-2.79-2-4-1.07-5.2 3.27-1.38 3.67-.95.74 4.65 2.13 4.28.55-3.51.61-5.67 5.89-17.26 5.89-17.26" fill="#fff"/><path d="m113.909 174.43c-1.589-.139-3.124-.649-4.48-1.49-.79-.7-1.8-4.84-1.15-8.17.348-2.151 1.429-4.115 3.06-5.56.48-1 2.85-11.74 4.25-18.35.012-.059.036-.115.069-.164.034-.05.077-.092.128-.125.05-.032.106-.054.165-.065s.12-.009.178.004c.12.024.224.095.292.196.067.101.092.225.068.344-3.89 18.32-4.37 18.7-4.52 18.83-1.493 1.312-2.48 3.106-2.79 5.07-.66 3.32.48 7 .86 7.31 1.22.718 2.589 1.142 4 1.24 0-.32-.89-1.12-1.33-1.52-.27-.24-.54-.48-.76-.71-.9-.94-2.24-4.35-1.1-5.8.387-.41.851-.739 1.366-.967.516-.228 1.071-.352 1.634-.363.479-.066.964.06 1.35.35.263.444.43.938.49 1.45.22.9.57 2.4 1 2.68.022.01.046.015.07.015s.048-.005.07-.015c.61-.16.48-1.81.37-3.15 0-.71-.11-1.44-.09-2.09.06-2.22 5.67-16.8 5.91-17.42.045-.112.132-.202.242-.251.111-.048.236-.052.348-.009.057.021.108.053.152.094.044.042.079.091.103.146s.037.114.038.175c.001.06-.01.119-.033.175-1.61 4.18-5.8 15.4-5.85 17.11-.003.668.027 1.335.09 2 .15 1.85.31 3.75-1 4.11-.141.036-.289.043-.433.021s-.283-.074-.407-.151c-.8-.48-1.16-2-1.45-3.25-.073-.36-.173-.715-.3-1.06-.538-.086-1.09-.045-1.61.118-.521.163-.996.444-1.39.822-.73.93.28 3.81 1 4.6.21.22.46.44.72.68.94.85 1.92 1.73 1.54 2.61-.056.124-.142.231-.25.313-.109.082-.235.136-.37.157-.082.025-.165.045-.25.06z" fill="#231f20"/><path d="m172.44 258.08s-1.87 5.79-1 6.45 17.18 4.63 18.4 4.54 4.69-.57 4.69-1.51-13.62-9.48-13.62-9.48" fill="#fff"/><path d="m189.78 269.52c-1.78 0-17.8-4-18.65-4.63s0-4.17.88-6.95c.018-.057.047-.109.085-.155.039-.045.086-.082.139-.109s.111-.043.17-.048c.06-.004.119.003.176.022.058.018.111.047.158.086.046.04.085.087.112.141.028.054.045.113.05.174.005.06-.002.121-.02.179-.91 2.8-1.45 5.53-1.17 6 .94.6 16.88 4.52 18.06 4.42 1.92-.15 3.9-.62 4.24-1-.81-1-7.38-5.37-13.37-9.13-.052-.032-.096-.073-.131-.122s-.059-.105-.072-.164c-.014-.058-.015-.119-.004-.178.011-.06.034-.116.067-.166.03-.051.071-.095.119-.13s.103-.06.161-.073.118-.014.176-.003.114.033.164.066c13.88 8.62 13.88 9.52 13.88 9.81 0 1.45-3.92 1.87-5.12 2z" fill="#231f20"/><path d="m157.889 258.08s3.38 5.79 2.11 6.49-18.16 5.2-19.15 5.06-6-.56-5.35-1.83 15.07-10.41 15.07-10.41z" fill="#fff"/><path d="m140.88 270.09h-.09l-.49-.06c-2.82-.33-4.79-.73-5.22-1.59-.071-.13-.108-.276-.108-.425 0-.148.037-.294.108-.425.73-1.31 12.81-9 15.22-10.57.087-.052.188-.076.29-.07l7.32.69c.071.006.141.029.201.068.061.038.112.09.149.152.48.82 2.83 5 2.4 6.5-.027.131-.082.254-.161.361-.08.108-.182.196-.299.259-1.09.61-17.47 5.11-19.32 5.11zm9.8-12.23c-5.49 3.5-14.25 9.28-14.78 10.16.07.17.66.64 4.51 1.09l.51.07c1.26 0 17.66-4.35 18.84-5 .33-.32-.55-2.83-2.17-5.66z" fill="#231f20"/><path d="m137.26 143.24 9.44 114.84h12.76l-.18-93.47 11.95 94.85h12.01l-2.36-117z" fill="#231f20"/><path d="m183.239 260h-12c-.122-.001-.24-.046-.331-.127-.092-.081-.152-.192-.169-.313l-10.94-86.89.16 85.41c.001.067-.012.134-.037.196-.026.062-.064.118-.113.164-.094.091-.219.141-.35.14h-12.76c-.126 0-.247-.047-.34-.132s-.15-.202-.16-.328l-9.44-114.84c-.007-.067.001-.136.024-.199.022-.064.059-.123.106-.171.045-.052.1-.094.162-.123s.13-.045.198-.047l43.62-.78c.066-.001.131.01.192.034.062.024.117.06.165.105.047.046.085.1.111.16.027.061.041.125.042.191l2.35 117c.004.067-.006.133-.03.195-.024.063-.062.119-.11.165-.042.054-.095.098-.155.131-.061.032-.127.052-.195.059zm-11.57-1h11.06l-2.34-116-42.59.77 9.36 113.86h11.84l-.17-93c-.003-.127.044-.249.13-.343.085-.093.204-.149.33-.157.127-.011.253.027.352.108.099.08.163.196.178.322z" fill="#231f20"/><path d="m149.8 76.2598s-15.36 2-18.74 5.19-14.82 55.9302-20.06 68.3102l11.44 5.82 11.07-40.27 1.94 33.46h47.42l-1.29-33.46s8.06 24.07 14.81 38l12.38-7.6s-20.08-46.9502-22.71-60.0002-36.26-9.45-36.26-9.45z" fill="#400082"/><path d="m93.4195 159.609s-21.85-4-26.16-.26 1.12 34.72 1.12 34.72l26.75-3s6.3405-21.24-1.71-31.46z" fill="#400082"/><path d="m68.44 164.23s-9.95 11.31-11.5 11.68-7.85-13.12-7.85-13.12l-6.84 5s8.72 19.9 12.29 21.4 26.34-19.08 13.9-24.96z" fill="#fff"/><path d="m54.9995 189.76c-.2088.007-.4167-.031-.61-.11-3.69-1.53-11.69-19.65-12.59-21.65-.0474-.105-.0574-.223-.0283-.334.0292-.111.0957-.208.1883-.276l6.84-5c.1244-.08.275-.109.42-.08.0714.021.1375.057.1943.105s.103.108.1357.175c2.77 6 6.37 12.56 7.35 12.84.83-.24 6.35-6 11.17-11.52.071-.083.1676-.14.2744-.162.1069-.021.218-.007.3156.042 4 1.9 5 5.46 2.86 10.28-3.16 7.07-13.01 15.69-16.52 15.69zm-12.13-21.76c2.54 5.74 9.15 19.64 11.86 20.78 1.72.73 12.34-7.16 15.88-15.08 1.86-4.16 1.17-7.12-2-8.8-2.14 2.42-10 11.17-11.51 11.55s-5.24-6.65-8.15-12.85z" fill="#231f20"/><path d="m87.5793 157 .24 6.29s-.86 1.85-6 .4-5.14-3.85-5.14-3.85-.19-11.77-.19-11.78c0-.62.28-6.71.18-12.11 6.28-.1 11.9-.63 11.9-.63-.61.61 1.63.71 1.62.71 1.0177-.013 2.0309.139 3 .45.36 3.62 2.19 13.65 1.75 15.75-.88 3.99-7.36 4.77-7.36 4.77z" fill="#fff"/><path d="m85.22 164.69c-1.2073-.033-2.4048-.228-3.56-.58-5.45-1.52-5.47-4.19-5.47-4.3-.19-11.76-.19-11.76-.19-11.81.09-2.11.27-7.36.18-12.1.0025-.123.0486-.24.13-.33.0857-.084.2005-.13.32-.13 6.2-.1 11.81-.63 11.87-.63.0943-.011.1896.008.2722.055s.1483.118.1878.205c.0297.087.0297.182 0 .27.3884.104.7879.161 1.19.17 1.0557-.009 2.1058.154 3.11.48.0818.029.1534.082.2065.151s.0855.152.0935.239c.12 1.15.39 3 .68 5 .65 4.4 1.38 9.39 1.07 10.89-.77 3.71-5.78 4.82-7.29 5.07l.23 5.88c.0151.072.0151.147 0 .22-.09.19-.67 1.24-3.03 1.25zm-8.12-28.31c.07 4.62-.1 9.62-.18 11.62 0 .1.18 11.81.18 11.81s.11 2.11 4.81 3.42c4 1.13 5.2.19 5.45-.09l-.24-6.14c-.0034-.114.0356-.226.1095-.313.0739-.086.1774-.143.2905-.157.06 0 6.17-.76 6.93-4.4.28-1.35-.48-6.47-1.08-10.58-.27-1.82-.52-3.55-.66-4.74-.8339-.229-1.6955-.34-2.56-.33-.47 0-1.75-.13-2.07-.62-1.52.07-6.02.42-10.98.52z" fill="#231f20"/><path d="m87.1595 146.109c.68 1.2 1.35 2.62 1 3-.65.71-2.47.24-2.47.24" fill="#fff"/><path d="m86.8796 150c-.4485-.005-.8948-.062-1.33-.17-.1326-.034-.2467-.118-.317-.235s-.0912-.258-.058-.39c.0331-.133.1176-.247.2348-.317.1172-.071.2576-.092.3902-.058.62.16 1.67.24 2-.09-.1768-.863-.5162-1.684-1-2.42-.0366-.058-.0611-.122-.072-.189s-.008-.136.0085-.202c.0165-.065.0462-.127.0874-.181s.093-.1.1523-.133c.0592-.033.1246-.054.1922-.061.0675-.008.1359-.001.2008.019.065.02.1251.053.1768.097.0517.045.0939.099.124.16 1.41 2.49 1.27 3.2.92 3.59-.2285.211-.4988.371-.7934.471s-.6069.137-.9166.109z" fill="#231f20"/><path d="m80.0793 160.14c-.4547.966-1.1419 1.804-2 2.44-1.6403 1.241-3.5417 2.093-5.56 2.49-2.5099.697-5.1733.606-7.63-.26-2.23-.91-4.59-3.18-4.06-5.75.7239-2.851 1.6087-5.659 2.65-8.41 2.79-8.43 4.21-21.45 14.67-23.39 7.88-1.46 13 .44 16.23 4.53 3.91 5 2.5 11.7-4.89 8.48-1.0089-.449-1.9033-1.121-2.6167-1.964-.7133-.843-1.2272-1.837-1.5033-2.906-.8508 2.18-2.2784 4.088-4.13 5.52-.6682.428-1.2654.958-1.77 1.57-2.17 3.1-1.07 7.53-.25 10.89.67 2.73 1.7 4.73.86 6.76z" fill="#fff"/><g fill="#231f20"><path d="m68.8201 166c-1.4057.019-2.8017-.235-4.11-.75-2.59-1.05-4.93-3.56-4.36-6.31.4854-2.1 1.1136-4.165 1.88-6.18.27-.77.54-1.54.79-2.28.49-1.5.94-3.12 1.41-4.84 2.22-8.08 4.74-17.24 13.64-18.89 7.53-1.39 13.16.19 16.71 4.71 2.36 3 2.93 6.66 1.35 8.7-.75 1-2.65 2.37-6.83.55-1.7803-.795-3.2045-2.22-4-4-.8971 1.785-2.1817 3.346-3.76 4.57l-.37.27c-.4918.328-.9303.729-1.3 1.19-2 2.87-1 7-.21 10.37v.12c.16.64.33 1.24.5 1.82.56 1.89 1 3.53.33 5.24-.4584 1.064-1.1771 1.996-2.09 2.71-1.694 1.299-3.6653 2.189-5.76 2.6-1.2543.276-2.5357.41-3.82.4zm14.32-38.75c-1.6411.013-3.2778.173-4.89.48-8.28 1.54-10.71 10.38-12.86 18.18-.47 1.73-.92 3.36-1.43 4.88-.24.75-.52 1.52-.79 2.3-.7455 1.957-1.3602 3.961-1.84 6-.45 2.19 1.6 4.31 3.76 5.19 2.3616.829 4.9211.909 7.33.23 1.9434-.375 3.7741-1.193 5.35-2.39.7737-.553 1.4073-1.279 1.85-2.12.57-1.39.16-2.8-.37-4.58-.17-.59-.35-1.21-.51-1.87v-.12c-.81-3.35-1.92-7.93.36-11.17.428-.551.9411-1.03 1.52-1.42l.36-.27c1.7958-1.365 3.18-3.199 4-5.3.0382-.1.1074-.185.1974-.242.0899-.058.196-.085.3026-.078.1061.006.2073.046.2885.115.0811.068.1378.161.1615.265.2598.995.7397 1.918 1.4044 2.702s1.497 1.409 2.4356 1.828c2.63 1.15 4.64 1.06 5.64-.24 1.28-1.66.7-4.87-1.34-7.47-2.62-3.28-6.19-4.88-10.93-4.88z"/><path d="m86.7897 152.879c-.7931-.043-1.568-.254-2.2731-.619-.7052-.366-1.3245-.877-1.8169-1.501-.0469-.046-.0841-.101-.1095-.162s-.0384-.127-.0384-.193.013-.131.0384-.192.0626-.116.1095-.163c.0951-.092.2224-.143.355-.143.1325 0 .2598.051.355.143.4155.562.9564 1.019 1.5796 1.335s1.3116.482 2.0104.485c1.3873-.223 2.6305-.985 3.46-2.12.0796-.105.1971-.175.3277-.196.1306-.02.2641.011.3723.086.1063.077.1785.192.2009.321.0225.129-.0066.262-.0809.369-.4968.686-1.1265 1.264-1.8515 1.7-.7251.436-1.5306.722-2.3685.84z"/><path d="m87.58 157s-4.2 0-5.79-1.4c0 0 1.55 2 6 4.69z"/><path d="m87.8202 160.77c-.0875-.004-.1729-.028-.25-.07-4.52-2.66-6.11-4.73-6.18-4.82-.069-.099-.0997-.22-.0864-.34.0134-.121.0698-.232.1589-.314.0891-.081.2048-.128.3257-.131s.2387.038.3318.115c1.18 1.07 4.33 1.28 5.45 1.27.1249 0 .2452.047.3363.133.091.085.146.202.1537.327l.25 3.29c.008.09-.0092.181-.0498.263-.0406.081-.103.149-.1802.197-.0776.05-.1676.078-.26.08zm-3.71-3.65c.9988.805 2.0476 1.547 3.14 2.22l-.14-1.87c-1.0084-.028-2.0123-.145-3-.35z"/><path d="m88.7301 145c-.0838.002-.1666-.019-.24-.06-.0579-.031-.109-.074-.1504-.125s-.0723-.11-.0909-.173-.0245-.13-.0174-.195c.0071-.066.0271-.129.0587-.187.51-.95 1.12-1.44 1.81-1.48.3529.016.6969.115 1.0044.289s.5698.417.7656.711c.0743.11.1018.245.0765.376-.0253.13-.1014.245-.2115.319-.11.075-.2451.102-.3754.077-.1304-.026-.2453-.102-.3196-.212-.11-.16-.49-.59-.87-.59-.31 0-.66.36-1 1-.0444.077-.1086.141-.186.185-.0773.044-.165.067-.254.065z"/><path d="m82.0798 145c-.0837-.001-.1659-.021-.24-.06-.0579-.031-.1091-.074-.1505-.125s-.0723-.11-.0909-.173c-.0185-.063-.0245-.13-.0174-.195.0071-.066.0271-.129.0588-.187.51-.95 1.12-1.44 1.82-1.48.3521.013.696.111 1.0024.285s.5663.419.7576.715c.0371.054.063.116.0761.18s.0131.131 0 .195c-.013.064-.0389.125-.076.18-.0372.054-.0848.1-.1401.135-.1091.074-.2426.101-.3717.077-.1291-.025-.2435-.099-.3183-.207-.0958-.151-.2214-.282-.3693-.383-.1479-.102-.3148-.172-.4907-.207-.31 0-.66.36-1 1-.0445.08-.1101.145-.1896.189-.0794.044-.1696.065-.2604.061z"/></g><path d="m50.1493 166.889c1-2.9.28-7.24-.45-9.5-.1853-.582-.4195-1.147-.7-1.69-.2558-.543-.6849-.986-1.22-1.26-.1163-.059-.2473-.083-.3769-.068-.1297.014-.2524.066-.3531.148-.1501.208-.2146.466-.18.72.0769 1.23.2745 2.449.59 3.64-.3849-.92-.6406-1.889-.76-2.88-.2582-1.141-.5923-2.263-1-3.36-.16-.54-.38-1.39-1-1.62-1.29-.51-.83 2.41-.78 3 .1371 1.405.4529 2.786.94 4.11-.38-1.06-.76-2.12-1.15-3.18-.2224-.907-.5304-1.791-.92-2.64-.15-.28-.37-.57-.68-.6-.1431.004-.2817.051-.3977.135s-.204.201-.2523.335c-.0808.276-.1013.566-.06.85.1.95.29 1.91.48 2.85.2508 1.007.5853 1.99 1 2.94-.73-2-1.53-3.9-2.25-5.88-.0649-.243-.2049-.46-.4-.62-.0961-.046-.2007-.073-.3073-.077-.1067-.005-.2132.011-.3132.049-.1.037-.1914.094-.2687.168-.0772.074-.1387.162-.1808.26-.1566.402-.1845.842-.08 1.26.3158 1.772.7877 3.512 1.41 5.2l-1.08-2.94c-.15-.4-.39-1.2-.89-1.28s-.91.41-1 .78c-.0915.452-.0674.92.07 1.36.9 3.82 2.48 9.14 5.17 12" fill="#fff"/><path d="m42.8393 169.55c-.1242-.002-.2429-.052-.3301-.14-2.14-2.27-3.9099-6.38-5.2799-12.21-.1661-.514-.1903-1.064-.07-1.59.1002-.325.3039-.609.5801-.807.2762-.199.6098-.302.9498-.293h.11c0-.16.0001-.32-.0799-.48-.1125-.515-.0672-1.052.1299-1.54.0882-.169.2099-.319.3578-.439s.3188-.209.5022-.261c.1455-.042.2979-.052.4477-.032.1497.021.2936.072.4224.152.1848.126.3331.298.4299.5.0083-.142.0421-.281.1001-.41.0772-.228.226-.426.4241-.562.1982-.137.4352-.207.6758-.198.2194.048.4243.148.598.29.1738.143.3115.324.402.53.05.1.1101.2.1501.3-.036-.302-.0073-.608.0841-.897.0913-.29.2433-.557.4458-.783.144-.102.3123-.164.4879-.18.1757-.016.3523.015.5121.09.76.3 1 1.23 1.21 1.85.12.41.24.76.36 1.12l.21.65c.1681-.176.3893-.292.6296-.33s.4864.004.7005.12c.6252.315 1.1282.828 1.43 1.46.2879.568.5255 1.16.7099 1.77.65 2 1.5801 6.6.4501 9.79-.0204.057-.0518.109-.0925.154-.0406.045-.0898.082-.1446.108-.0547.026-.1141.041-.1747.044s-.1211-.006-.1782-.026c-.0572-.021-.1097-.052-.1547-.093-.045-.04-.0815-.09-.1075-.144-.026-.055-.041-.114-.0441-.175-.003-.061.0059-.121.0263-.178 1-2.74.27-7-.45-9.19-.1646-.558-.3788-1.1-.64-1.62-.2073-.457-.5586-.833-1-1.07-.033-.016-.0688-.023-.105-.023-.0363 0-.0721.007-.1051.023 0 0-.06.12 0 .38.0751 1.202.266 2.394.5701 3.56.0371.114.0274.238-.027.345s-.149.188-.263.225c-.1141.037-.2382.027-.3451-.027-.1069-.055-.1878-.149-.2249-.263-.4059-.959-.6817-1.968-.82-3-.1323-.75-.3332-1.487-.6001-2.2-.12-.37-.2499-.73-.3499-1.09s-.3401-1.19-.6901-1.32c-.0362-.008-.0737-.008-.1099 0-.07 0-.29.39-.07 2.33v.21c.1208 1.285.3961 2.551.82 3.77l.09.23c.0389.115.0314.241-.0208.351-.0523.11-.1452.196-.2593.239-.1128.039-.2363.032-.3446-.018-.1082-.05-.1926-.141-.2353-.252l-.09-.24-1.0601-2.94c-.12-.34-.2099-.67-.2999-1-.1278-.553-.3261-1.088-.59-1.59-.18-.33-.29-.36-.32-.36s-.14.06-.18.18c-.0462.207-.0462.422 0 .63.09.89.2699 1.81.4399 2.69v.12c.05.24.11.48.18.71.28.71.5601 1.43.8301 2.15.0421.114.0373.24-.0133.35-.0506.111-.1429.197-.2567.24-.0557.022-.1153.032-.1752.031-.0599-.002-.1187-.016-.173-.041-.0543-.026-.1029-.062-.1428-.106-.0398-.045-.0701-.097-.0891-.154l-.3299-.82c-.18-.44-.3601-.88-.5101-1.35-.06-.17-.1299-.33-.1899-.5-.42-1.07-.84-2.13-1.23-3.21-.0416-.149-.1169-.286-.2201-.4-.0202-.01-.0424-.015-.0649-.015-.0226 0-.0448.005-.065.015-.1193.038-.2195.12-.2801.23-.0978.326-.0978.674 0 1 .281 1.727.7127 3.427 1.2901 5.08.0385.114.0307.238-.0216.347-.0524.108-.1451.192-.2584.233-.0565.02-.1164.029-.1763.026-.06-.003-.1187-.018-.1727-.044-.0541-.026-.1024-.063-.142-.108-.0397-.045-.07-.097-.0891-.154l-1.1399-3.02c-.2-.56-.3601-.85-.4901-.87s-.4399.24-.5099.46c-.0672.374-.0397.759.08 1.12 1.33 5.68 3 9.64 5.05 11.79.0861.086.1344.203.1344.325s-.0483.238-.1344.325c-.0801.072-.1825.114-.29.12z" fill="#231f20"/><path d="m47.4796 158.88s-2.93-.56-2.92 3.91z" fill="#fff"/><path d="m44.5602 163.25c-.1203-.003-.2347-.052-.3189-.138-.0841-.086-.1312-.202-.1311-.322-.0757-.684.0017-1.376.2265-2.027.2249-.65.5915-1.242 1.0735-1.733.2973-.243.6422-.421 1.0125-.523.3703-.101.7578-.124 1.1375-.067.0584.01.1142.032.1642.064.0499.032.0931.074.127.123s.0579.103.0705.161c.0127.059.0138.118.0033.177-.0105.058-.0325.114-.0645.164-.0321.05-.0737.093-.1224.127-.0488.034-.1037.058-.1617.071-.0581.012-.118.013-.1764.003-.2521-.031-.508-.011-.752.059-.2441.071-.4713.19-.668.351-.3649.404-.6421.879-.8142 1.395s-.2354 1.063-.1858 1.605c0 .12-.0471.236-.1312.322s-.1986.135-.3188.138z" fill="#231f20"/><path d="m319.799 188.399s21.9-.06 25.7 3.23-1 32.48-1 32.48l-27.66-2.11s-2.72-19.29 2.96-33.6z" fill="#400082"/><path d="m267.17 57.7798c-.249-.4893-.526-.9635-.83-1.42-2.1-3.14-2.91-1.45-5.9-2.5-5.14-1.81-7.54-6.15-14-3.43-6.05 2.55-10 6.76-10.91 13.51-.62 4.68.55 9.62-1.08 14-1.9 5.16-7.16 8.41-9.49 13.39s-1.28 11.1102 2 15.4902c3.438 4.348 8.413 7.211 13.9 8 5.44.738 10.977.225 16.19-1.5 4.09-1.24 8.12-3 11.14-6 6.95-6.9 7.54-17.3202 5.36-26.2702l-3.08-12.65c-.78-3.25-1.67-7.4-3.3-10.62z" fill="#fff"/><path d="m245.469 115.689c-1.577.005-3.152-.118-4.71-.37-5.606-.796-10.692-3.713-14.21-8.15-3.56-4.77-4.37-10.9995-2.05-15.9995 1.237-2.3296 2.799-4.4711 4.64-6.36 2-2.23 3.86-4.34 4.84-7s.91-5.38.87-8.32c-.076-1.8788-.013-3.7607.19-5.63.87-6.54 4.54-11.09 11.21-13.9 4.71-2 7.43-.36 10.3 1.37 1.28.8004 2.637 1.4704 4.05 2 .769.264 1.577.3958 2.39.39 1.41 0 2.35.18 3.76 2.3.32.4701.607.9612.86 1.47 1.386 3.0623 2.416 6.2732 3.07 9.57l3.32 13.86c2.65 10.89.64 20.6395-5.49 26.7395-2.68 2.66-6.29 4.61-11.35 6.15-3.784 1.194-7.722 1.827-11.69 1.88zm4.82-65.6295c-1.26.0259-2.502.3083-3.65.83-6.32 2.66-9.79 7-10.61 13.11-.195 1.823-.255 3.658-.18 5.49 0 2.89.09 5.88-.93 8.67s-3.07 5.11-5 7.31c-1.778 1.8154-3.287 3.8764-4.48 6.12-2.13 4.55-1.35 10.5695 1.94 14.9995 3.371 4.224 8.23 6.997 13.58 7.75 5.377.733 10.849.227 16-1.48 4.9-1.48 8.38-3.36 10.93-5.9 8.36-8.2995 6.44-20.7995 5.23-25.7895l-3.35-13.81c-.643-3.2201-1.649-6.3568-3-9.35-.237-.4701-.504-.9244-.8-1.36-1.2-1.8-1.83-1.82-3-1.86-.915.0014-1.825-.1507-2.69-.45-1.499-.5631-2.933-1.2838-4.28-2.15-1.82-1.11-3.51-2.13-5.71-2.13z" fill="#231f20"/><path d="m253.159 252s1.69 11.69 1.27 12.25-4.23.7-4.23.7v-2.53s-1.54 2.81-4.08 3.38-15.77.84-15.63 0 3.66-1.3 12.67-6.63l1-11.39" fill="#231f20"/><path d="m236.15 266.86c-3 0-5.51-.15-6-.58-.131-.149-.2-.342-.19-.54.11-.62.75-.9 2.46-1.63 3.523-1.504 6.941-3.245 10.23-5.21l1-11.14c.012-.133.076-.255.178-.341.102-.085.234-.126.367-.114.132.012.255.076.34.178.086.102.127.234.115.367l-1 11.39c-.005.078-.03.154-.072.22-.042.067-.1.122-.168.16-3.393 2.044-6.925 3.849-10.57 5.4-.54.23-1.07.46-1.43.64 2.61.36 12.27.2 14.59-.32s3.74-3.11 3.76-3.13c.052-.098.136-.174.238-.218.102-.043.215-.051.322-.022.107.025.203.087.27.174.068.087.103.195.1.306v2c1.118-.013 2.229-.164 3.31-.45-.231-3.984-.671-7.953-1.32-11.89-.019-.133.016-.267.097-.374.08-.107.2-.178.333-.196.132-.019.267.016.374.097.107.08.177.2.196.333 1.72 11.89 1.31 12.44 1.18 12.62-.47.62-2.77.83-4.61.9-.132-.006-.259-.055-.36-.14-.049-.046-.088-.102-.113-.164-.026-.062-.039-.129-.037-.196v-1c-.884 1.119-2.104 1.925-3.48 2.3-3.354.41-6.731.601-10.11.57z" fill="#231f20"/><path d="m266.37 251.939s-.16 11.78.27 12.34 4.22.7 4.22.7v-2.53s1.55 2.81 4.08 3.38 15.77.84 15.63 0-3.66-1.3-12.67-6.63l-1.37-6.65" fill="#231f20"/><path d="m284.91 266.86c-3.368.036-6.736-.148-10.08-.55-1.373-.375-2.59-1.181-3.47-2.3v1c0 .135-.054.264-.15.36-.101.092-.233.143-.37.14-1.84-.07-4.13-.28-4.6-.9-.35-.47-.47-4.72-.37-12.65.005-.13.06-.254.153-.345s.217-.143.347-.145c.066.001.13.015.191.042.06.026.114.064.16.111.045.048.081.103.105.165.024.061.035.126.034.192-.07 5.23 0 11.11.19 12 1.074.304 2.184.466 3.3.48v-2c-.001-.112.036-.22.104-.309.068-.088.164-.151.272-.178.108-.028.222-.019.325.026.102.045.186.123.239.221 0 0 1.47 2.62 3.75 3.13s12 .68 14.61.32c-.36-.17-.9-.4-1.45-.64-3.643-1.55-7.171-3.354-10.56-5.4-.06-.035-.112-.081-.153-.136s-.071-.118-.087-.184l-1.4-6.66c-.015-.065-.016-.131-.004-.196s.037-.127.073-.182c.037-.056.084-.103.139-.139.055-.037.117-.061.182-.073.064-.013.129-.014.193-.001s.125.038.179.074.1.083.136.137c.035.055.06.116.072.18l1.33 6.43c3.301 1.974 6.732 3.721 10.27 5.23 1.71.73 2.35 1 2.45 1.64.008.096-.004.192-.035.284-.031.091-.08.175-.145.246-.42.43-2.97.58-5.93.58z" fill="#231f20"/><path d="m253.139 201.77h-15.91c2.32 21.37 5.481 43.33 6.261 50.68l9.67-.42s-.221-27.85-.021-50.26z" fill="#fff"/><path d="m243.49 252.91c-.112-.002-.22-.045-.303-.12-.083-.076-.135-.179-.147-.29-.3-2.79-.94-7.67-1.74-13.85-1.3-9.94-3.08-23.57-4.52-36.83-.01-.063-.006-.128.013-.188.019-.061.052-.117.097-.162.042-.048.095-.086.153-.112.059-.026.123-.039.187-.038h15.91c.059-.003.118.008.174.03.055.023.105.057.146.1.044.042.08.093.104.15s.036.118.036.18c-.2 22.14 0 50 0 50.25 0 .118-.046.232-.128.318s-.194.136-.312.142zm-5.75-50.68c1.43 13.09 3.18 26.49 4.46 36.3.77 5.89 1.39 10.59 1.7 13.45l8.8-.39c0-3.62-.2-28.82 0-49.36z" fill="#231f20"/><path d="m262.56 201.77c1.71 22.31 3.81 50.17 3.81 50.17l10.16.61s1-27.46 1.74-50.78z" fill="#fff"/><path d="m276.529 253-10.16-.6c-.11-.007-.214-.055-.292-.134-.077-.08-.123-.185-.128-.296 0 0-2.11-27.85-3.81-50.16-.005-.062.002-.125.023-.184.02-.06.052-.114.094-.16.043-.046.094-.083.151-.108.058-.025.12-.038.182-.038h15.71c.062 0 .122.013.179.036.056.024.107.059.15.103.043.043.077.095.099.152.023.057.034.118.032.179-.79 23.32-1.75 50.77-1.75 50.77-.005.117-.054.228-.137.309-.084.082-.196.129-.313.131zm-9.73-1.49 9.29.55c.12-3.68 1-28.4 1.71-49.83h-14.74c1.57 20.66 3.48 45.83 3.74 49.28z" fill="#231f20"/><path d="m279.719 130c.08-1.14 13.14-4.69 13.14-4.69-5.36-17.1-6.28-23.74-13.6-32.1899-4.45-5.14-39-11.3-47.41 1.13-7.6 11.1799-13.32 31.5299-13.32 31.5299l13.89 6 2.6-6.91c-.125 5.745.358 11.487 1.44 17.13-2.85 29.93-5.64 78.86-6.11 89.41 0 0 8.36 3 30 3s32.47-3.09 32.47-3.09-9.18-59.41-10.13-68.8-5.84-21.6-5.84-21.6l2.37-17.82s-2.87-3.96.5 6.9z" fill="#400082"/><path d="m249.999 87-.28 6.57s1.12 5 7.35 4.37c5.75-.59 6.77-4.1 6.77-4.1l.94-18.31c0-.46-.14-3.28-.22-6.92-3.83.26-9.41-2.58-12.36-8.65-1.88 3.23-4.05 5.4-9.53 7.52.14 6.19-.74 13-.38 14.76 1.08 5.1 7.71 4.76 7.71 4.76z" fill="#fff"/><path d="m256 98.4598c-1.499.0875-2.984-.3382-4.209-1.2071-1.225-.8688-2.118-2.129-2.531-3.5729-.005-.0399-.005-.0802 0-.12l.27-6.09c-1.63 0-6.73-.57-7.68-5.13-.151-1.9051-.124-3.82.08-5.72.16-2.67.35-6 .28-9.12-.001-.094.026-.1861.078-.2645.051-.0784.125-.1396.212-.1755 5.45-2.1 7.53-4.28 9.3-7.32.044-.0697.104-.1272.176-.1674.071-.0402.152-.0617.234-.0626.084.0037.165.0297.236.0754.07.0458.127.1095.164.1846 2.81 5.79 8.28 8.64 11.92 8.4.061-.0059.123.0009.182.0198.058.0189.112.0496.158.0902.087.0889.14.2058.15.33 0 1.57.09 4 .21 6.82v.11c0 .01 0 0-.94 18.33.005.0365.005.0735 0 .11 0 .15-1.18 3.81-7.16 4.42-.375.0395-.752.0595-1.13.06zm-5.83-4.92c.14.54 1.36 4.51 6.84 3.95 5.06-.51 6.22-3.32 6.37-3.73.06-1.14.93-18.12.93-18.24-.11-2.58-.17-4.85-.21-6.43h-.05c-3.86 0-8.93-2.74-11.9-8.2-1.75 2.81-4 4.9-9 6.9.05 3.06-.14 6.27-.29 8.87-.181 1.8243-.214 3.6603-.1 5.49 1 4.64 7 4.4 7.24 4.39.064-.0026.127.0086.185.0328.059.0241.112.0607.155.1072.045.0447.08.0977.104.156.024.0584.036.1209.036.184z" fill="#231f20"/><path d="m252 71s-3.47 5.19-2.64 6.09 3.14.3 3.14.3" fill="#fff"/><path d="m250.939 78.1096c-.361.0337-.724-.0075-1.069-.1211-.344-.1135-.661-.297-.931-.5389-.95-1 1.22-4.65 2.59-6.71.074-.1096.187-.1858.316-.212.13-.0263.264-.0004.374.072.056.0354.103.0815.14.1357.038.0542.063.1153.076.1796.014.0644.014.1307 0 .1951-.013.0644-.039.1254-.076.1796-1.62 2.45-2.87 5-2.66 5.51.45.49 2 .3 2.62.13.064-.0165.13-.0203.195-.0112.066.0092.128.0311.185.0646.057.0334.106.0777.146.1303.039.0527.068.1126.084.1763.034.1273.016.2627-.049.3769-.066.1142-.174.198-.301.2331-.537.1275-1.087.1979-1.64.21z" fill="#231f20"/><path d="m248.727 70.6045c.024-.6181-.226-1.1293-.557-1.1417s-.618.4786-.642 1.0967c-.023.6181.227 1.1293.558 1.1417.331.0125.618-.4786.641-1.0967z" fill="#231f20"/><path d="m257.778 71.0345c.025-.6186-.224-1.1308-.555-1.144-.332-.0133-.62.4774-.645 1.096-.025.6185.224 1.1307.555 1.1439.332.0133.62-.4774.645-1.0959z" fill="#231f20"/><path d="m247.41 80.8695s6 4.94 9.67-2.14z" fill="#fff"/><path d="m251.87 83.0498c-1.74-.0897-3.41-.7149-4.78-1.79-.1-.0871-.163-.2091-.176-.3411s.025-.2639.106-.3689c.084-.1015.204-.1658.335-.1789s.262.026.365.1089c0 0 2.5 2 5.07 1.47 1.53-.32 2.83-1.48 3.85-3.45.069-.101.172-.1731.291-.2027s.244-.0147.353.042c.108.0567.192.1512.236.2656.043.1144.043.2407 0 .3551-1.16 2.26-2.69 3.59-4.53 4-.37.0689-.745.099-1.12.09z" fill="#231f20"/><path d="m250 87.0002s5.68-.54 8-3.09c-1.884 3.7018-4.748 6.8151-8.28 9z" fill="#231f20"/><path d="m249.76 93.4402c-.092.002-.182-.0223-.26-.07-.078-.0449-.142-.1109-.185-.1905-.042-.0796-.061-.1695-.055-.2595l.25-5.93c.008-.1196.057-.2327.139-.3202s.192-.1439.311-.1598c.06 0 5.52-.55 7.71-2.92.081-.0831.189-.1354.304-.1479.116-.0124.232.0157.329.0796.097.0638.169.1595.203.2705s.028.2305-.016.3378c-1.915 3.8129-4.855 7.0162-8.49 9.25-.075.0373-.157.0578-.24.06zm.73-6-.2 4.56c2.449-1.6667 4.537-3.8092 6.14-6.3-1.872.9045-3.878 1.4989-5.94 1.76z" fill="#231f20"/><path d="m261.739 71.8603s2.62-3.77 4.71-2.18 2.68 4.83-3.64 8.44" fill="#fff"/><path d="m262.809 78.62c-.088-.0007-.175-.0241-.252-.0678-.077-.0438-.142-.1065-.188-.1822-.062-.1174-.077-.2545-.042-.3828.035-.1284.118-.2383.232-.3072 3.86-2.2 4.76-4 4.83-5.2.012-.472-.096-.9393-.312-1.3587-.217-.4195-.536-.7776-.928-1.0413-.145-.1205-.316-.2072-.499-.2539-.184-.0467-.375-.0522-.561-.0161-1.21.19-2.53 1.75-2.94 2.33-.035.0577-.082.1075-.138.1463s-.119.066-.185.0797c-.067.0137-.135.0138-.202.0002-.066-.0136-.129-.0405-.185-.0793-.055-.0387-.103-.0884-.139-.1459-.036-.0576-.059-.1219-.07-.1889-.01-.0671-.006-.1356.011-.2012.017-.0657.047-.1272.088-.1809.07-.1 1.72-2.45 3.6-2.75.319-.0562.646-.0443.96.035.313.0793.607.2241.86.425.53.3604.958.8499 1.245 1.4221.287.5723.423 1.2083.395 1.8479-.09 1.4-1.09 3.58-5.33 6-.075.0464-.161.0706-.25.07z" fill="#231f20"/><path d="m149.2 111.59c-.087-.004-.173-.028-.25-.07l-6-3.47c-.073-.046-.133-.109-.175-.184s-.064-.16-.065-.246v-10.62c-.001-.0652.01-.13.034-.1906s.06-.1158.106-.1624c.046-.0465.1-.0835.16-.1088.06-.0252.125-.0382.19-.0382h10.61c.133 0 .26.0527.354.1464.093.0938.146.221.146.3536v10.61c-.001.076-.02.151-.055.218-.035.068-.084.126-.145.172l-4.63 3.48c-.081.062-.178.101-.28.11zm-5.48-4.26 5.45 3.16 4.16-3.12v-9.86h-9.61z" fill="#231f20"/><path d="m159.279 148.4c-.063.001-.127-.01-.186-.034-.06-.023-.114-.058-.159-.103-.046-.045-.082-.098-.107-.157s-.038-.122-.038-.186c-.67-22.12-2-64.19-2.06-65.15-.011-.1295.029-.2584.111-.3592s.2-.1657.329-.1808c.128-.0172.256.0161.359.0927.103.0767.172.1906.191.3173.11.81 1.86 58.65 2.06 65.25.003.131-.046.258-.135.353-.09.095-.214.152-.345.157z" fill="#231f20"/><path d="m279.72 130.43c-.103.001-.204-.033-.286-.097-.081-.063-.139-.153-.164-.253-6-26.3-5.7-26.73-5.55-26.93.071-.099.177-.167.297-.187.12-.021.244.007.343.077.071.058.125.134.155.221.03.086.035.18.015.269 0 1.25 3.35 16.39 5.63 26.34.015.058.018.119.009.179-.01.059-.031.117-.062.168-.032.051-.074.096-.123.131-.049.034-.105.059-.164.072z" fill="#231f20"/><path d="m182.37 140.57c-.119 0-.234-.047-.318-.132-.084-.084-.132-.199-.132-.318 0-1.68-1.26-41.2199-1.26-42.3399.016-.1091.071-.2088.155-.2808.083-.072.19-.1116.3-.1116s.217.0396.301.1116c.083.072.138.1717.154.2808 0 1.11 1.25 41.9099 1.26 42.3199.003.12-.042.237-.124.325s-.196.14-.316.145z" fill="#231f20"/><path d="m112 169.86c.343.583.861 1.043 1.48 1.316.619.272 1.308.344 1.97.204.451-.142.862-.389 1.2-.72 2.43-2.29 1.45-7.56-2-8.26-4.27-.84-4.27 5.01-2.65 7.46z" fill="#fff"/><path d="m114.72 171.94c-.634-.035-1.25-.22-1.797-.54-.548-.32-1.012-.765-1.353-1.3-1.14-1.77-1.5-5.12-.26-6.94.358-.535.879-.941 1.486-1.157s1.268-.231 1.884-.043c.848.202 1.623.637 2.237 1.255.615.619 1.045 1.396 1.243 2.245.313.947.365 1.961.148 2.935-.216.974-.693 1.871-1.378 2.595-.391.384-.867.669-1.39.83-.267.079-.543.12-.82.12zm-.91-9.16c-.342-.013-.682.062-.986.218-.305.156-.565.387-.754.672-1 1.49-.68 4.47.27 5.94.294.497.734.891 1.26 1.131.525.24 1.111.313 1.68.209.375-.13.716-.342 1-.62.56-.613.947-1.363 1.123-2.175.175-.811.133-1.655-.123-2.445-.157-.687-.501-1.318-.993-1.822-.492-.505-1.114-.864-1.797-1.038-.224-.046-.452-.07-.68-.07z" fill="#231f20"/><path d="m68.3795 194.07s-8.87 27.74-11.44 35.62c0 0 30.45 10.09 48.0895.7l-9.8995-39.32z" fill="#400082"/><path d="m79.5099 195.64c-3.3213.057-6.6261-.478-9.76-1.58-.0944-.057-.1653-.146-.1997-.251-.0343-.104-.0299-.218.0125-.32s.12-.185.2186-.234c.0986-.05.2117-.062.3186-.035.11 0 10.75 4.31 23.61-1.72.1101-.051.2361-.057.3504-.016.1142.042.2076.126.2596.236.0487.111.053.236.0121.349-.041.114-.1241.207-.2321.261-4.5599 2.165-9.5421 3.296-14.59 3.31z" fill="#231f20"/><path d="m261.78 144.84c-7.744-.128-15.462-.921-23.07-2.37-.12-.024-.224-.094-.292-.195-.067-.102-.092-.225-.068-.345.024-.119.094-.224.195-.291.101-.068.225-.092.345-.069.25.05 25.12 4.91 36.54.46.112-.042.237-.039.348.01.11.048.197.138.242.25.023.056.036.116.036.176-.001.061-.013.121-.038.176-.024.055-.06.105-.104.146-.045.041-.097.072-.154.092-3.76 1.46-8.76 1.96-13.98 1.96z" fill="#231f20"/><path d="m235.76 138.34c-.108.001-.213-.037-.296-.106-.082-.07-.137-.167-.154-.274-.16-.94-3.78-23.09.72-35.17.043-.114.129-.206.239-.257.111-.051.237-.055.351-.013.057.019.109.049.154.089s.081.088.106.142c.025.055.039.114.041.174.002.059-.009.119-.031.175-4.42 11.86-.72 34.48-.68 34.71.01.059.008.121-.006.18-.013.059-.038.114-.074.164-.035.049-.08.091-.131.123-.052.032-.109.053-.169.063z" fill="#231f20"/><path d="m170.75 57.1097c-.2-.4.47-9.92-.43-17-.77-6.09-7-9.45-12.55-9.87-4.509-.3126-9.009.7099-12.94 2.94-1.19.68-3.85 2.37-3.49 4.1-.082-.2827-.261-.5269-.507-.6883-.246-.1615-.542-.2295-.833-.1917-.291.0611-.567.1815-.809.3535-.243.172-.447.3921-.601.6465-.608 1.0976-.883 2.3487-.79 3.6 0 2 .63 3.52 1 5.46.34 1.76.67 3.51 1 5.27l.93 4.91c.026.7023.157 1.3968.39 2.06z" fill="#fff"/><path d="m141.13 59.1698c-.082.0002-.162-.0198-.233-.0582-.072-.0384-.133-.094-.177-.1618-.28-.534-.427-1.1272-.43-1.73-.006-.1812-.026-.3618-.06-.54l-1.94-10.17c-.11-.63-.26-1.21-.41-1.77-.36-1.2324-.559-2.5064-.59-3.79-.1-1.3236.189-2.6476.83-3.81.186-.3222.44-.6006.744-.8163.303-.2156.65-.3635 1.016-.4337.37-.0472.745.0154 1.08.18.52-1.34 2.15-2.53 3.62-3.36 4.017-2.2735 8.614-3.3167 13.22-3 5.7.42 12.21 3.83 13 10.32.474 4.7811.618 9.5892.43 14.39v2.54c.041.0677.063.1456.063.225 0 .0795-.022.1573-.063.225-.049.0704-.115.1268-.192.1636-.077.0369-.163.0529-.248.0464l-29.62 1.54zm-1-22.26h-.13c-.221.0516-.428.1485-.608.2845-.181.1361-.332.3082-.442.5055-.52 1.0041-.748 2.1331-.66 3.26.032 1.1928.22 2.3762.56 3.52.15.59.31 1.19.43 1.84l1.94 10.17c0 .16.05.39.07.63.026.3359.073.6698.14 1l28.74-1.5c0-.41 0-1.08 0-2.22.182-4.7507.042-9.5083-.42-14.24-.75-5.92-6.79-9-12.08-9.42-4.404-.3021-8.799.6959-12.64 2.87-2.23 1.27-3.45 2.59-3.25 3.54.002.1211-.038.2392-.113.334-.076.0948-.182.1603-.3.1852-.119.0249-.242.0076-.35-.0488-.107-.0565-.191-.1485-.237-.2604-.05-.1302-.138-.2426-.252-.3227-.114-.0802-.249-.1245-.388-.1273z" fill="#231f20"/><path d="m165.55 56.0702c.62-4.55 8.11-5.86 7.88-.5-.022 1.8535-.686 3.642-1.88 5.06-.611.6874-1.412 1.1786-2.302 1.4117s-1.829.1977-2.698-.1017" fill="#fff"/><path d="m167.999 62.7398c-.572.0061-1.14-.1027-1.67-.32-.132-.053-.238-.1566-.295-.2879-.056-.1312-.058-.2795-.005-.4121s.157-.2387.288-.295c.131-.0562.28-.058.412-.005.776.2572 1.609.2816 2.399.0701.789-.2115 1.499-.6496 2.041-1.2601 1.118-1.3271 1.734-3.0049 1.74-4.74.08-1.73-.75-2.8-2.28-2.94-1.063-.0762-2.116.2431-2.958.8965-.841.6535-1.412 1.5949-1.602 2.6435-.043.1079-.121.1982-.222.2566-.1.0583-.217.0812-.333.0651-.115-.0161-.221-.0704-.302-.1541-.08-.0836-.131-.192-.143-.3076.226-1.3141.935-2.4963 1.988-3.3142 1.052-.8179 2.373-1.2124 3.702-1.1058 1.63.14 3.33 1.27 3.21 4-.01 1.9763-.718 3.8854-2 5.39-.499.5621-1.11 1.0142-1.793 1.3276-.684.3133-1.425.481-2.177.4924z" fill="#231f20"/><path d="m146.81 56.5498c-.84-4.52-8.4-5.44-7.89-.11.093 1.8669.848 3.6396 2.13 5 .648.6582 1.476 1.11 2.38 1.2986s1.843.1056 2.7-.2386" fill="#fff"/><path d="m144.46 63.3401c-1.412-.019-2.762-.5813-3.77-1.57-1.358-1.4364-2.166-3.3063-2.28-5.28-.26-2.73 1.38-3.94 3-4.17 1.322-.1742 2.661.1533 3.753.9178 1.092.7646 1.858 1.9107 2.147 3.2122.013.0664.013.1347-.001.2009-.013.0663-.04.1291-.078.185-.038.0558-.087.1035-.144.1403-.057.0367-.12.0618-.187.0738-.066.013-.135.0127-.201-.0009s-.129-.0403-.185-.0785c-.056-.0381-.103-.087-.14-.1438-.037-.0567-.062-.1202-.074-.1868-.245-1.0369-.865-1.9469-1.739-2.5557-.875-.6089-1.943-.8739-3.001-.7443-1.52.21-2.29 1.32-2.13 3 .102 1.7334.81 3.3759 2 4.64.569.5906 1.299 1.0005 2.099 1.1784.801.1778 1.636.1158 2.401-.1784.061-.0285.127-.0447.195-.0476.067-.0028.134.0077.197.0309s.121.0588.171.1046c.049.0457.089.1009.117.1621.03.0602.048.1258.052.1931.005.0672-.005.1345-.027.198-.022.0636-.057.1219-.103.1715-.045.0497-.101.0896-.162.1174-.596.2866-1.249.4337-1.91.43z" fill="#231f20"/><path d="m148.6 77.1397s2.48 6.4 7.59 6.27 8.05-5.1 8.05-5.1l-.51-20.23-15.63-.4z" fill="#fff"/><path d="m155.999 83.9303c-5.29 0-7.81-6.33-7.92-6.6-.008-.0564-.008-.1137 0-.17l-.49-19.46c-.003-.0704.009-.1406.035-.2061.026-.0654.065-.1247.115-.1739.05-.0499.109-.0889.175-.1148.065-.0258.135-.0378.205-.0352l15.62.39c.132.0025.258.056.351.1492.093.0933.147.219.149.3508l.51 20.24c.007.0952-.018.1899-.07.27-.12.22-3.16 5.22-8.48 5.36zm-6.89-6.93c.3.71 2.63 5.87 6.93 5.87h.13c4.33-.11 7.07-4 7.55-4.72l-.5-19.59-14.59-.37z" fill="#231f20"/><path d="m148.8 66.84c.15.85 2.39 7.51 15.35 8.12l-.23-9.42c-2.18.42-6 3.15-8.37 3-1.997-.0374-3.971-.4302-5.83-1.16-.316-.1638-.623-.344-.92-.54z" fill="#231f20"/><path d="m164.149 75.4501c-14.26-.66-15.81-8.44-15.82-8.52-.021-.0949-.012-.1938.026-.2834.038-.0895.102-.1652.184-.2166.08-.0542.174-.0832.27-.0832.097 0 .191.029.27.0832.282.1723.572.3292.87.47 1.803.688 3.711 1.0601 5.64 1.1 1.26.1 3.17-.8 4.85-1.6 1.074-.5731 2.207-1.0258 3.38-1.35.073-.0122.147-.0087.217.0103.071.019.137.053.193.0997.057.044.102.1001.133.1642s.047.1345.047.2058l.24 9.41c.003.0688-.008.1375-.034.2013s-.065.1214-.116.1687c-.094.0905-.219.1408-.35.14zm-14.4-7.55c1.07 2 4.36 5.95 13.89 6.53l-.21-8.25c-.877.3229-1.735.6969-2.57 1.12-1.88.89-3.83 1.82-5.35 1.69-1.966-.0476-3.912-.4158-5.76-1.09z" fill="#231f20"/><path d="m155.58 70.1798h1.21c1.367-.0337 2.714-.3369 3.964-.8923 1.249-.5555 2.377-1.3521 3.318-2.3444.941-.9922 1.677-2.1605 2.166-3.4378s.72-2.6385.682-4.0055l-.42-16.45c-3.441 1.5446-7.128 2.4689-10.89 2.73-3.819.1523-7.62-.5908-11.1-2.17l.42 16.45c.033 1.3641.336 2.7082.889 3.9554.554 1.2471 1.348 2.3729 2.337 3.3128.99.94 2.154 1.6756 3.428 2.165 1.274.4893 2.632.7227 3.996.6868z" fill="#fff"/><g fill="#231f20"><path d="m166.499 43.0501.42 16.45c.035 1.3645-.2 2.7225-.69 3.9963-.491 1.2739-1.227 2.4386-2.168 3.4276s-2.067 1.783-3.315 2.3366c-1.248.5535-2.592.8558-3.957.8895h-1.21-.27c-2.708-.0043-5.308-1.0652-7.247-2.957-1.938-1.8918-3.062-4.4653-3.133-7.173l-.42-16.45c3.119 1.4147 6.496 2.1672 9.92 2.21h1.18c3.763-.2611 7.45-1.1854 10.89-2.73zm0-1c-.155-.0022-.309.0321-.45.1-3.322 1.4744-6.874 2.3642-10.5 2.63-.37 0-.74 0-1.12 0-3.253-.0508-6.462-.7654-9.43-2.1-.143-.0695-.301-.1038-.46-.1-.135-.0002-.27.0272-.394.0806-.125.0533-.238.1315-.331.2297-.094.0982-.166.2145-.213.3416-.048.1272-.068.2626-.062.3981l.42 16.45c.058 2.9832 1.287 5.824 3.422 7.9084 2.135 2.0845 5.005 3.2453 7.988 3.2316h.3 1.21c3.033-.0837 5.908-1.3687 7.994-3.5722 2.085-2.2035 3.21-5.1451 3.126-8.1778l-.47-16.47c-.001-.1719-.047-.3404-.133-.4892-.086-.1489-.209-.2732-.357-.3608-.162-.1005-.349-.1525-.54-.15z"/><path d="m155.739 60.1201c-.386.0196-.773.0196-1.16 0-.14-.0132-.276-.059-.395-.1336-.12-.0746-.221-.1761-.295-.2964-.84-1.32.9-6.5 1.45-8 .045-.1326.141-.2418.267-.3037s.271-.0713.403-.0263c.133.0451.242.141.304.2667.062.1256.071.2707.026.4033-1.2 3.39-1.92 6.66-1.56 7.16.935.044 1.872.0039 2.8-.12.067-.0113.136-.0092.202.0064.067.0156.129.0442.184.0843s.101.0907.136.149c.036.0583.059.123.068.1903.012.0671.01.1358-.006.202s-.044.1287-.084.1836c-.04.055-.091.1014-.149.1365-.059.0351-.123.0582-.191.0679-.665.0558-1.333.0658-2 .03z"/><path d="m156.68 66.8294c-1.486-.0539-2.94-.4473-4.25-1.15-.07-.0241-.133-.0626-.186-.113s-.095-.1114-.123-.1792c-.028-.0677-.042-.1406-.04-.2139s.02-.1453.052-.2113.077-.1245.134-.1717c.056-.0471.121-.0819.192-.1019.07-.0201.144-.025.217-.0145.072.0105.142.0363.204.0755 2.08 1 3.84 1.3 5.24.82.819-.2646 1.51-.8241 1.94-1.57.057-.1233.16-.2189.288-.2658.127-.0469.268-.0412.392.0158.123.0571.219.1607.266.2883.046.1275.041.2684-.016.3917-.537.9965-1.43 1.7537-2.5 2.12-.583.1956-1.195.2903-1.81.28z"/><path d="m160.54 52.0909c.347-.0318.569-.6995.496-1.4915-.072-.792-.412-1.4083-.758-1.3766-.347.0318-.569.6995-.496 1.4915.072.792.412 1.4083.758 1.3766z"/><path d="m151.29 52.9903c.347-.0317.569-.6995.496-1.4915-.072-.7919-.412-1.4083-.758-1.3765-.347.0317-.569.6994-.496 1.4914.072.792.412 1.4083.758 1.3766z"/><path d="m77.8894 262.59v4.13s-18.47 2.28-18.33 1.28 10.56-5.39 10.56-5.39z"/><path d="m61.4094 268.689c-.7395.093-1.4904-.007-2.18-.29-.0603-.065-.1057-.143-.1333-.227-.0277-.085-.0367-.174-.0267-.263.12-.84 3.77-2.78 10.85-5.78.0658-.015.1342-.015.2 0h7.77c.1326 0 .2598.053.3535.147.0938.094.1465.221.1465.353v4.13c-.0016.122-.047.238-.1279.328-.081.09-.1919.148-.3121.162-6.04.75-13.04 1.44-16.54 1.44zm-.88-1c2.36.1 9.91-.62 16.86-1.46v-3.19h-7.17c-3.3245 1.361-6.5608 2.927-9.69 4.69z"/><path d="m135 141.41c-.058.001-.116-.009-.17-.03s-.103-.052-.145-.092c-.041-.04-.075-.088-.098-.141-.024-.053-.036-.109-.037-.167l-2.8-45.8003c-.006-.1204.036-.2381.116-.3279.081-.0897.193-.1443.313-.1521.122-.0056.241.0361.332.1163.092.0801.148.1926.158.3137l2.791 45.8003c.004.06-.004.12-.024.177-.02.056-.05.109-.09.153-.04.045-.089.081-.143.107-.055.026-.113.04-.173.043z"/></g><path d="m288.24 174.579c.061.543.296 1.052.669 1.452.372.4.863.669 1.401.768.465.004.926-.097 1.346-.296.421-.2.792-.491 1.084-.854 1.108-1.175 1.809-2.676 2-4.28.22-1.83-.91-5.12-3.23-3.7-1.76 1.1-3.58 4.86-3.27 6.91z" fill="#fff"/><path d="m290.51 177.27h-.24c-.64-.108-1.228-.421-1.675-.892-.447-.47-.73-1.073-.805-1.718-.34-2.23 1.54-6.16 3.52-7.37.338-.256.746-.403 1.169-.421.424-.018.843.094 1.201.321 1.19.76 1.73 2.8 1.55 4.25-.208 1.708-.966 3.301-2.16 4.54-.32.373-.712.679-1.151.901-.439.221-.918.353-1.409.389zm2.12-9.49c-.301.011-.592.109-.84.28-1.68 1-3.38 4.58-3.1 6.45.048.443.236.859.536 1.187.301.329.698.554 1.134.643.395-.01.783-.104 1.139-.276.355-.173.669-.42.921-.724 1.044-1.097 1.713-2.498 1.91-4 .14-1.16-.32-2.84-1.15-3.37-.159-.12-.351-.186-.55-.19z" fill="#231f20"/><path d="m327.699 188-.59 4.56s.85 2 5.39.75 4.82-4.12 4.82-4.12l.15-9c0-.55-.25-5.89-.16-10.64-5.52-.08-15.24-.85-16.09-.55-.32 3.18-.33 13 0 14.85.78 3.5 6.48 4.15 6.48 4.15z" fill="#fff"/><path d="m329.84 194.2c-2.51 0-3.12-1.37-3.15-1.44-.019-.079-.019-.161 0-.24l.53-4.12c-1.43-.25-5.69-1.25-6.36-4.48-.4-1.9-.38-11.84-.07-15 .011-.085.045-.165.097-.232.053-.067.123-.118.203-.148.52-.19 2.68-.09 7.84.17 2.83.15 6 .32 8.41.36.062-.001.123.012.18.036.056.024.108.059.15.104.042.042.074.092.095.147s.029.114.025.173c-.07 4.1.09 8.72.16 10.52 0 .07 0 .07-.14 9.16 0 .17-.37 3.21-5.16 4.55-.912.274-1.857.422-2.81.44zm-2.26-1.72c.23.31 1.31 1.39 4.8.41 4.15-1.16 4.48-3.62 4.49-3.72s.14-8.86.14-9c-.07-1.81-.23-6.19-.17-10.19-2.33 0-5.32-.2-8-.34-2.92-.16-6.18-.33-7.21-.26-.28 3.42-.29 12.57.08 14.36.66 3.15 6 3.82 6 3.82.121.015.232.076.31.17.039.047.067.101.082.16.016.059.019.12.008.18z" fill="#231f20"/><path d="m328.069 178.47c-.6 1.05-1.19 2.3-.87 2.64.57.63 2.17.21 2.17.21" fill="#fff"/><path d="m328.31 182c-.269.019-.538-.016-.792-.104s-.489-.226-.688-.406c-.33-.36-.46-1 .8-3.22.069-.108.176-.185.3-.216s.255-.013.367.049c.111.063.194.166.232.288.038.123.027.255-.029.369-1 1.7-.89 2.12-.89 2.13.53.168 1.099.168 1.63 0 .132-.033.273-.012.39.058.117.071.202.185.235.317.033.133.012.273-.058.39-.071.118-.185.202-.317.235-.388.083-.784.119-1.18.11z" fill="#231f20"/><path d="m328.39 184.48h-.23c-.744-.106-1.459-.36-2.103-.746-.644-.387-1.204-.898-1.647-1.504-.077-.109-.108-.244-.085-.375.022-.131.096-.248.205-.325.108-.077.243-.108.374-.085.132.022.249.096.326.205.722.979 1.799 1.636 3 1.83.596-.006 1.183-.149 1.715-.418.532-.268.996-.656 1.355-1.132.046-.047.101-.084.162-.11.061-.025.127-.038.193-.038s.131.013.192.038c.061.026.116.063.163.11.092.095.143.222.143.355 0 .132-.051.26-.143.355-.442.543-.992.987-1.615 1.304-.624.317-1.307.499-2.005.536z" fill="#231f20"/><path d="m327.7 188s3.69 0 5.09-1.23c-1.288 2.045-3.092 3.714-5.23 4.84z" fill="#231f20"/><path d="m327.56 192.13c-.092.001-.182-.023-.26-.07-.076-.045-.138-.11-.181-.187-.042-.078-.062-.165-.059-.253l.14-3.62c.005-.13.06-.252.153-.341.093-.09.218-.14.347-.139.03-.006.06-.006.09 0 1 0 3.66-.19 4.66-1.1.09-.075.203-.116.32-.116s.23.041.32.116c.093.069.158.17.184.284.026.113.01.232-.044.336-1.335 2.115-3.204 3.84-5.42 5-.072.054-.16.085-.25.09zm.62-3.62-.09 2.21c1.148-.74 2.197-1.624 3.12-2.63-.993.246-2.008.386-3.03.42z" fill="#231f20"/><path d="m325.359 177.38c.299 0 .54-.573.54-1.28s-.241-1.28-.54-1.28c-.298 0-.54.573-.54 1.28s.242 1.28.54 1.28z" fill="#231f20"/><path d="m331.12 177.38c.298 0 .54-.573.54-1.28s-.242-1.28-.54-1.28-.54.573-.54 1.28.242 1.28.54 1.28z" fill="#231f20"/><path d="m337.85 177.38s-3-1.48-5.06-6.68c0 0-7.2 2.35-11.81 3.63 0 0-5.36-4.82-2.31-8.53s16-6.47 20.42-.87.41 14.35.41 14.35z" fill="#fff"/><path d="m339.5 179.73c-.064.002-.128-.01-.187-.036s-.111-.065-.153-.114l-1.6-1.84c-.51-.28-3.08-1.91-5-6.47-1.58.51-7.48 2.41-11.43 3.5-.073.019-.149.02-.222.003-.074-.018-.141-.053-.198-.103-2-1.77-5-6-2.37-9.16 2-2.41 7.49-4.24 12.48-4.22 2.75 0 6.49.63 8.66 3.36 4.57 5.76.63 14.45.47 14.82-.033.069-.082.128-.143.173-.061.046-.132.075-.207.087zm-6.71-9.48c.09.001.177.028.252.077.075.05.133.121.168.203 2 4.95 4.82 6.43 4.85 6.44l.14.11 1.16 1.34c.8-2.11 2.9-8.76-.63-13.2-1.52-1.91-4.34-3-7.94-3-4.69 0-10 1.7-11.77 3.88-2.44 3 1.22 6.88 2.09 7.73 4.56-1.27 11.46-3.53 11.53-3.55.048-.02.099-.03.15-.03z" fill="#231f20"/><path d="m335.54 176.42s2.06-3.24 4.37-.85.09 5.71-3.13 6.36" fill="#fff"/><path d="m336.78 182.38c-.105-.002-.205-.038-.287-.103-.081-.065-.139-.156-.163-.257-.024-.119.001-.243.068-.344.068-.102.173-.172.292-.196.798-.135 1.548-.474 2.177-.983.629-.51 1.116-1.174 1.413-1.927.151-.469.165-.971.041-1.447s-.381-.908-.741-1.243c-.194-.236-.438-.424-.716-.55-.277-.127-.58-.188-.884-.18-1.13.12-2 1.5-2.05 1.51-.028.059-.068.111-.118.154-.05.042-.108.073-.17.092-.063.018-.129.022-.194.013-.064-.009-.126-.032-.181-.067s-.102-.082-.138-.136c-.036-.055-.06-.116-.07-.181s-.006-.13.011-.193c.018-.063.048-.122.09-.172.304-.487.702-.909 1.171-1.24.468-.331.998-.566 1.559-.69.442-.028.885.048 1.293.222s.77.44 1.057.778c.474.452.811 1.029.972 1.664s.139 1.303-.062 1.926c-.347.908-.924 1.711-1.674 2.33s-1.648 1.032-2.606 1.2z" fill="#231f20"/><path d="m345.5 191.63s14.05 14.42 15.5 28.37l-7.07 3.63-14.18-21.74z" fill="#400082"/><path d="m352.59 222.08c-.075 0-.148-.019-.215-.053-.066-.035-.123-.086-.165-.147l-11.73-18c-.033-.05-.057-.106-.068-.165-.012-.059-.012-.119.001-.178.012-.059.035-.114.069-.164.034-.049.078-.091.128-.123.103-.066.227-.089.346-.065.12.024.225.094.294.195l11.73 18c.062.103.081.225.055.342s-.096.22-.195.287c-.074.049-.161.073-.25.071z" fill="#231f20"/></svg>