<svg fill="none" height="1216" viewBox="0 0 1440 1216" width="1440" xmlns="http://www.w3.org/2000/svg"><rect fill="#f8f8f8" height="1216" rx="20" width="1440"/><path d="m201.823 170.519h-13.717v2.98h10.393v.458c0 4.356-3.248 8.368-8.827 8.368-5.693 0-9.705-4.432-9.705-11.08 0-6.649 4.012-11.081 9.705-11.081 3.898 0 7.146 2.369 8.292 5.999l3.439-.459c-1.452-5.196-6.037-8.597-11.731-8.597-7.718 0-13.144 5.655-13.144 14.138 0 8.482 5.426 14.137 13.144 14.137 7.299 0 12.151-4.891 12.151-11.807zm13.486 14.863c5.808 0 10.049-4.585 10.049-10.316 0-5.732-4.241-10.317-10.049-10.317s-10.049 4.585-10.049 10.317c0 5.731 4.241 10.316 10.049 10.316zm0-2.827c-4.203 0-6.839-3.363-6.839-7.489 0-4.127 2.636-7.49 6.839-7.49s6.84 3.363 6.84 7.49c0 4.126-2.637 7.489-6.84 7.489zm29.668-.917v-9.362c0-4.47-2.904-7.527-7.986-7.527-4.852 0-7.986 2.407-8.215 6.304h3.21c.114-2.025 1.948-3.706 4.929-3.706 2.942 0 5.005 1.758 5.005 4.585v1.223s-4.05.038-6.457.153c-4.394.191-7.031 2.292-7.031 5.884s2.79 6.19 7.031 6.19c2.178 0 4.623-.764 6.419-3.248h.076c0 .841.077 2.102.192 2.866h2.98c-.115-.688-.153-2.063-.153-3.362zm-3.057-5.923v.726c0 4.165-3.095 6.114-6.113 6.114-2.56 0-4.165-1.185-4.165-3.248 0-2.025 1.452-3.133 4.356-3.324 2.331-.153 5.922-.268 5.922-.268zm7.622-18.99v28.275h3.056v-28.275z" fill="#262626"/><path d="m199.531 461.489h-3.286v22.391h-.077l-15.054-22.391h-3.439v27.511h3.286v-22.009h.076l15.055 22.009h3.439zm13.943 25.066c-4.012 0-6.114-3.057-6.496-6.534h15.857c0-6.649-3.209-11.196-9.476-11.272-5.769-.077-9.629 4.509-9.629 10.317 0 5.807 3.821 10.316 9.744 10.316 4.47 0 7.718-2.407 8.673-6.113l-3.209-.459c-.612 1.834-2.369 3.745-5.464 3.745zm-.229-14.979c3.82 0 5.769 3.325 6.113 5.77h-12.227c.344-2.445 2.293-5.77 6.114-5.77zm22.766 14.979c-4.012 0-6.113-3.057-6.495-6.534h15.857c0-6.649-3.21-11.196-9.476-11.272-5.77-.077-9.629 4.509-9.629 10.317 0 5.807 3.821 10.316 9.743 10.316 4.471 0 7.719-2.407 8.674-6.113l-3.21-.459c-.611 1.834-2.369 3.745-5.464 3.745zm-.229-14.979c3.821 0 5.77 3.325 6.114 5.77h-12.227c.344-2.445 2.292-5.77 6.113-5.77zm31.976-10.851h-3.057v11.463h-.076c-1.605-2.293-4.089-3.439-6.687-3.439-5.464 0-9.132 4.127-9.132 10.317 0 6.189 3.668 10.316 9.132 10.316 2.598 0 5.082-1.146 6.687-3.439h.076v3.057h3.057zm-9.362 10.928c4.242 0 6.381 3.439 6.381 7.413 0 4.012-2.139 7.412-6.381 7.412-3.821 0-6.381-2.98-6.381-7.412 0-4.433 2.56-7.413 6.381-7.413zm29.248 12.036c0-4.012-3.095-5.044-6.152-5.77-3.019-.764-6.037-.993-6.037-3.553 0-1.796 1.834-3.019 4.165-3.019 2.751 0 4.394 1.49 4.508 3.515h3.286c-.305-3.897-3.629-6.113-7.871-6.113-4.088 0-7.221 2.407-7.221 5.808 0 4.012 3.477 5.005 6.725 5.808 2.827.687 5.464 1.222 5.464 3.515 0 1.91-1.949 2.904-4.356 2.904-2.904 0-4.547-1.376-4.738-3.783h-3.439c.229 4.089 3.4 6.381 8.291 6.381 4.242 0 7.375-2.178 7.375-5.693z" fill="#262626"/><path d="m186.845 770.489h-9.17v27.511h3.286v-11.921h5.884c5.388 0 8.826-2.904 8.826-7.795 0-4.585-3.095-7.795-8.826-7.795zm.191 12.533h-6.075v-9.476h6.075c3.362 0 5.273 1.796 5.273 4.738 0 2.751-1.681 4.738-5.273 4.738zm26.933 11.616v-9.362c0-4.47-2.904-7.527-7.986-7.527-4.852 0-7.986 2.407-8.215 6.304h3.21c.114-2.025 1.948-3.706 4.929-3.706 2.942 0 5.005 1.758 5.005 4.585v1.223s-4.05.038-6.457.153c-4.394.191-7.031 2.292-7.031 5.884s2.79 6.19 7.031 6.19c2.178 0 4.623-.764 6.419-3.248h.076c0 .841.077 2.102.192 2.866h2.98c-.115-.688-.153-2.063-.153-3.362zm-3.057-5.923v.726c0 4.165-3.095 6.114-6.113 6.114-2.56 0-4.165-1.185-4.165-3.248 0-2.025 1.452-3.133 4.356-3.324 2.331-.153 5.922-.268 5.922-.268zm9.532-14.023c1.299 0 2.293-.993 2.293-2.292 0-1.261-.994-2.293-2.293-2.293s-2.293 1.032-2.293 2.293c0 1.299.994 2.292 2.293 2.292zm-1.528 3.439v19.869h3.056v-19.869zm8.797 0v19.869h3.057v-11.31c0-3.401 2.254-6.037 5.693-6.037 2.751 0 4.623 1.452 4.623 5.922v11.425h3.057v-12.151c0-5.311-2.866-8.1-6.992-8.1-1.987 0-4.738.955-6.305 2.98h-.076v-2.598zm40.604 20.251c5.464 0 9.132-4.127 9.132-10.316 0-6.19-3.668-10.317-9.132-10.317-2.598 0-5.082 1.146-6.687 3.439h-.076v-3.057h-3.057v26.938h3.057v-10.126h.076c1.605 2.293 4.089 3.439 6.687 3.439zm-.459-17.729c3.821 0 6.381 2.98 6.381 7.413 0 4.432-2.56 7.412-6.381 7.412-4.241 0-6.381-3.439-6.381-7.412 0-4.013 2.14-7.413 6.381-7.413zm23.087 17.729c5.808 0 10.049-4.585 10.049-10.316 0-5.732-4.241-10.317-10.049-10.317s-10.049 4.585-10.049 10.317c0 5.731 4.241 10.316 10.049 10.316zm0-2.827c-4.203 0-6.84-3.363-6.84-7.489 0-4.127 2.637-7.49 6.84-7.49s6.839 3.363 6.839 7.49c0 4.126-2.636 7.489-6.839 7.489zm15.807-20.863c1.299 0 2.292-.993 2.292-2.292 0-1.261-.993-2.293-2.292-2.293-1.3 0-2.293 1.032-2.293 2.293 0 1.299.993 2.292 2.293 2.292zm-1.529 3.439v19.869h3.057v-19.869zm8.797 0v19.869h3.057v-11.31c0-3.401 2.254-6.037 5.693-6.037 2.751 0 4.624 1.452 4.624 5.922v11.425h3.056v-12.151c0-5.311-2.865-8.1-6.992-8.1-1.987 0-4.738.955-6.305 2.98h-.076v-2.598zm32.131 2.751v-2.751h-5.541v-6.687l-3.056 1.147v5.54h-4.586v2.751h4.586v10.622c0 5.12 2.789 6.649 6.419 6.649.802 0 1.605-.153 2.178-.382v-2.904c-.535.229-1.261.382-1.873.382-2.063 0-3.668-.573-3.668-3.515v-10.852zm18.696 11.807c0-4.012-3.095-5.044-6.152-5.77-3.019-.764-6.037-.993-6.037-3.553 0-1.796 1.834-3.019 4.165-3.019 2.751 0 4.394 1.49 4.508 3.515h3.286c-.305-3.897-3.63-6.113-7.871-6.113-4.088 0-7.222 2.407-7.222 5.808 0 4.012 3.478 5.005 6.725 5.808 2.828.687 5.464 1.222 5.464 3.515 0 1.91-1.948 2.904-4.356 2.904-2.903 0-4.546-1.376-4.738-3.783h-3.438c.229 4.089 3.4 6.381 8.291 6.381 4.241 0 7.375-2.178 7.375-5.693z" fill="#262626"/><g fill="#000"><path d="m570.42 466.8h-3.92v15.715c0 3.78-2.1 6.055-5.81 6.055-3.43 0-5.775-1.995-5.775-6.055v-15.715h-3.92v15.855c0 5.915 3.955 9.695 9.695 9.695 5.775 0 9.73-3.78 9.73-9.695zm18.199 19.985c0-3.885-3.08-4.795-5.88-5.46-2.66-.665-4.935-.91-4.935-2.765 0-1.26 1.33-2.17 3.115-2.17 2.135 0 3.325 1.155 3.5 2.66h3.99c-.385-3.605-3.395-5.845-7.49-5.845-3.92 0-6.93 2.45-6.93 5.635 0 3.955 3.395 4.9 6.37 5.6 2.66.63 4.41 1.085 4.41 2.695 0 1.33-1.47 2.065-3.325 2.065-1.995 0-3.325-.875-3.64-2.8h-4.13c.35 3.78 3.29 5.95 7.875 5.95 4.13 0 7.07-2.24 7.07-5.565zm11.76 2.24c-2.835 0-4.9-1.995-5.215-5.04h14c0-7-3.885-10.745-9.065-10.78-5.11 0-8.925 3.955-8.925 9.59 0 5.6 3.78 9.555 9.17 9.555 3.85 0 6.895-1.715 8.33-5.67l-3.885-.525c-.63 1.61-2.17 2.87-4.41 2.87zm-.28-12.46c2.66 0 4.515 2.17 4.935 4.48h-9.835c.385-2.31 2.24-4.48 4.9-4.48zm26.596 10.22c0-3.885-3.08-4.795-5.88-5.46-2.66-.665-4.935-.91-4.935-2.765 0-1.26 1.33-2.17 3.115-2.17 2.135 0 3.325 1.155 3.5 2.66h3.99c-.385-3.605-3.395-5.845-7.49-5.845-3.92 0-6.93 2.45-6.93 5.635 0 3.955 3.395 4.9 6.37 5.6 2.66.63 4.41 1.085 4.41 2.695 0 1.33-1.47 2.065-3.325 2.065-1.995 0-3.325-.875-3.64-2.8h-4.13c.35 3.78 3.29 5.95 7.875 5.95 4.13 0 7.07-2.24 7.07-5.565zm28.958-20.685h-3.71v9.8h-.07c-1.26-1.505-3.255-2.695-5.915-2.695-4.865 0-8.505 3.85-8.505 9.59s3.64 9.555 8.505 9.555c2.66 0 4.655-1.19 5.915-2.695h.07v2.345h3.71zm-8.995 10.605c3.22 0 5.355 2.59 5.355 6.09s-2.135 6.09-5.355 6.09c-3.08 0-5.355-2.485-5.355-6.09 0-3.64 2.275-6.09 5.355-6.09zm15.891-5.495c1.435 0 2.555-1.12 2.555-2.555 0-1.4-1.12-2.555-2.555-2.555s-2.555 1.155-2.555 2.555c0 1.435 1.12 2.555 2.555 2.555zm-1.855 2.345v18.445h3.71v-18.445zm16.38 15.4c-3.15 0-5.18-2.555-5.18-6.16s2.03-6.16 5.18-6.16c2.1 0 3.955 1.19 4.655 3.675l3.85-.525c-1.085-4.165-4.27-6.58-8.4-6.58-5.425 0-9.135 3.955-9.135 9.59 0 5.6 3.71 9.555 9.135 9.555 4.13 0 7.315-2.415 8.4-6.58l-3.85-.525c-.7 2.52-2.555 3.71-4.655 3.71zm22.521-12.04v-3.36h-4.83v-6.055l-3.71 1.19v4.865h-3.955v3.36h3.955v8.715c0 4.935 2.835 6.545 6.3 6.545.875 0 1.75-.21 2.24-.42v-3.36c-.665.28-1.225.385-1.855.385-1.435 0-2.975-.42-2.975-3.01v-8.855zm5.508-5.705c1.435 0 2.555-1.12 2.555-2.555 0-1.4-1.12-2.555-2.555-2.555s-2.555 1.155-2.555 2.555c0 1.435 1.12 2.555 2.555 2.555zm-1.855 2.345v18.445h3.71v-18.445zm16.73 18.795c5.355 0 9.38-4.165 9.38-9.555 0-5.355-4.025-9.52-9.38-9.52s-9.38 4.165-9.38 9.52c0 5.39 4.025 9.555 9.38 9.555zm0-3.465c-3.255 0-5.53-2.59-5.53-6.09 0-3.465 2.275-6.09 5.53-6.09s5.53 2.625 5.53 6.09c0 3.5-2.275 6.09-5.53 6.09zm13.032-15.33v18.445h3.71v-10.465c0-2.835 1.855-4.9 4.585-4.9 2.135 0 3.535 1.365 3.535 4.62v10.745h3.71v-11.305c0-5.145-2.87-7.49-6.37-7.49-2.24 0-4.34 1.155-5.39 2.695h-.07v-2.345zm34.974 13.44v-6.615c0-4.305-3.115-7.175-7.77-7.175-4.55 0-7.665 2.275-7.875 6.09h3.85c.175-1.75 1.75-3.01 3.99-3.01 2.205 0 4.095 1.26 4.095 3.64v1.015s-3.395.035-5.635.14c-4.62.21-6.615 2.59-6.615 5.53 0 3.465 2.625 5.74 6.405 5.74 2.065 0 4.2-.665 5.88-2.8h.07c0 .63.035 1.75.14 2.45h3.64c-.14-.98-.175-2.38-.175-5.005zm-3.71-3.29v.7c0 3.115-2.415 4.795-5.11 4.795-1.96 0-3.29-.91-3.29-2.59 0-1.54 1.085-2.52 3.745-2.695 1.995-.105 4.655-.21 4.655-.21zm8.214-10.15v18.445h3.71v-10.185c0-3.115 1.33-4.725 4.655-4.725.455 0 1.05.07 1.54.175v-3.675c-.385-.14-.945-.175-1.33-.175-2.345 0-3.92 1.05-4.795 2.415h-.07v-2.275zm26.442 0-5.215 13.93h-.07l-5.075-13.93h-4.27l7.385 18.445-3.045 7h4.095l10.325-25.445zm29.859 13.44v-6.615c0-4.305-3.115-7.175-7.77-7.175-4.55 0-7.665 2.275-7.875 6.09h3.85c.175-1.75 1.75-3.01 3.99-3.01 2.205 0 4.095 1.26 4.095 3.64v1.015s-3.395.035-5.635.14c-4.62.21-6.615 2.59-6.615 5.53 0 3.465 2.625 5.74 6.405 5.74 2.065 0 4.2-.665 5.88-2.8h.07c0 .63.035 1.75.14 2.45h3.64c-.14-.98-.175-2.38-.175-5.005zm-3.71-3.29v.7c0 3.115-2.415 4.795-5.11 4.795-1.96 0-3.29-.91-3.29-2.59 0-1.54 1.085-2.52 3.745-2.695 1.995-.105 4.655-.21 4.655-.21zm22.109 3.08c0-3.885-3.08-4.795-5.88-5.46-2.66-.665-4.935-.91-4.935-2.765 0-1.26 1.33-2.17 3.115-2.17 2.135 0 3.325 1.155 3.5 2.66h3.99c-.385-3.605-3.395-5.845-7.49-5.845-3.92 0-6.93 2.45-6.93 5.635 0 3.955 3.395 4.9 6.37 5.6 2.66.63 4.41 1.085 4.41 2.695 0 1.33-1.47 2.065-3.325 2.065-1.995 0-3.325-.875-3.64-2.8h-4.13c.35 3.78 3.29 5.95 7.875 5.95 4.13 0 7.07-2.24 7.07-5.565zm11.808-13.23v18.445h3.71v-10.465c0-2.835 1.855-4.9 4.585-4.9 2.135 0 3.535 1.365 3.535 4.62v10.745h3.71v-11.305c0-5.145-2.87-7.49-6.37-7.49-2.24 0-4.34 1.155-5.39 2.695h-.07v-2.345zm28.561 15.47c-2.835 0-4.9-1.995-5.215-5.04h14c0-7-3.885-10.745-9.065-10.78-5.11 0-8.925 3.955-8.925 9.59 0 5.6 3.78 9.555 9.17 9.555 3.85 0 6.895-1.715 8.33-5.67l-3.885-.525c-.63 1.61-2.17 2.87-4.41 2.87zm-.28-12.46c2.66 0 4.515 2.17 4.935 4.48h-9.835c.385-2.31 2.24-4.48 4.9-4.48zm21.198 12.46c-2.835 0-4.9-1.995-5.215-5.04h14c0-7-3.885-10.745-9.065-10.78-5.11 0-8.925 3.955-8.925 9.59 0 5.6 3.78 9.555 9.17 9.555 3.85 0 6.895-1.715 8.33-5.67l-3.885-.525c-.63 1.61-2.17 2.87-4.41 2.87zm-.28-12.46c2.66 0 4.515 2.17 4.935 4.48h-9.835c.385-2.31 2.24-4.48 4.9-4.48zm30.193-10.465h-3.71v9.8h-.07c-1.26-1.505-3.255-2.695-5.915-2.695-4.865 0-8.505 3.85-8.505 9.59s3.64 9.555 8.505 9.555c2.66 0 4.655-1.19 5.915-2.695h.07v2.345h3.71zm-8.995 10.605c3.22 0 5.355 2.59 5.355 6.09s-2.135 6.09-5.355 6.09c-3.08 0-5.355-2.485-5.355-6.09 0-3.64 2.275-6.09 5.355-6.09zm11.935.21h3.255v15.085h3.71v-15.085h4.865v-3.36h-4.865v-1.54c0-2.31 1.54-2.87 2.975-2.87.63 0 1.19.105 1.855.42v-3.395c-.49-.21-1.365-.42-2.24-.42-3.465 0-6.3 1.715-6.3 6.65v1.155h-3.255zm21.131 15.435c2.555 0 4.34-1.085 5.53-2.555h.07v2.205h3.71v-18.445h-3.71v10.465c0 2.835-1.82 4.935-4.445 4.935-2.17 0-3.465-1.505-3.465-4.48v-10.92h-3.71v11.62c0 4.655 2.38 7.175 6.02 7.175zm14.013-26.25v25.9h3.71v-25.9zm27.358 10.815v-3.36h-4.832v-6.055l-3.71 1.19v4.865h-3.955v3.36h3.955v8.715c0 4.935 2.835 6.545 6.302 6.545.87 0 1.75-.21 2.24-.42v-3.36c-.67.28-1.23.385-1.86.385-1.43 0-2.972-.42-2.972-3.01v-8.855zm11.63 15.435c5.36 0 9.38-4.165 9.38-9.555 0-5.355-4.02-9.52-9.38-9.52-5.35 0-9.38 4.165-9.38 9.52 0 5.39 4.03 9.555 9.38 9.555zm0-3.465c-3.25 0-5.53-2.59-5.53-6.09 0-3.465 2.28-6.09 5.53-6.09 3.26 0 5.53 2.625 5.53 6.09 0 3.5-2.27 6.09-5.53 6.09zm21.71 3.465c5.35 0 9.38-4.165 9.38-9.555 0-5.355-4.03-9.52-9.38-9.52-5.36 0-9.38 4.165-9.38 9.52 0 5.39 4.02 9.555 9.38 9.555zm0-3.465c-3.26 0-5.53-2.59-5.53-6.09 0-3.465 2.27-6.09 5.53-6.09 3.25 0 5.53 2.625 5.53 6.09 0 3.5-2.28 6.09-5.53 6.09zm12.69-22.785v25.9h3.71v-25.9z"/><path d="m628.68 560.8h10.62v-2.4h-13.2v21.6h13.2v-2.4h-10.62v-7.2h8.82v-2.4h-8.82zm12.407 3.6 6.24 15.6h2.7l6.36-15.6h-2.76l-4.86 12.9h-.06l-4.74-12.9zm23.872 13.68c-3.15 0-4.8-2.4-5.1-5.13h12.45c0-5.22-2.52-8.79-7.44-8.85-4.53-.06-7.56 3.54-7.56 8.1s3 8.1 7.65 8.1c3.51 0 6.06-1.89 6.81-4.8l-2.52-.36c-.48 1.44-1.86 2.94-4.29 2.94zm-.18-11.76c3 0 4.53 2.61 4.8 4.53h-9.6c.27-1.92 1.8-4.53 4.8-4.53zm10.833-1.92v15.6h2.4v-8.82c0-2.82 1.23-4.62 4.35-4.62.3 0 .63.03.93.09v-2.34c-.3-.06-.66-.09-1.05-.09-1.86 0-3.48.9-4.17 2.4h-.06v-2.22zm22.019 0-4.86 12.9h-.06l-4.74-12.9h-2.88l6.24 15.6-2.67 6h2.97l8.76-21.6zm18.562-6.6h-2.4v9h-.06c-1.26-1.8-3.21-2.7-5.25-2.7-4.29 0-7.17 3.24-7.17 8.1s2.88 8.1 7.17 8.1c2.04 0 3.99-.9 5.25-2.7h.06v2.4h2.4zm-7.35 8.58c3.33 0 5.01 2.7 5.01 5.82 0 3.15-1.68 5.82-5.01 5.82-3 0-5.01-2.34-5.01-5.82s2.01-5.82 5.01-5.82zm23.654 10.98v-7.35c0-3.51-2.28-5.91-6.27-5.91-3.81 0-6.27 1.89-6.45 4.95h2.52c.09-1.59 1.53-2.91 3.87-2.91 2.31 0 3.93 1.38 3.93 3.6v.96s-3.18.03-5.07.12c-3.45.15-5.52 1.8-5.52 4.62s2.19 4.86 5.52 4.86c1.71 0 3.63-.6 5.04-2.55h.06c0 .66.06 1.65.15 2.25h2.34c-.09-.54-.12-1.62-.12-2.64zm-2.4-4.65v.57c0 3.27-2.43 4.8-4.8 4.8-2.01 0-3.27-.93-3.27-2.55 0-1.59 1.14-2.46 3.42-2.61 1.83-.12 4.65-.21 4.65-.21zm16.255-8.31-4.86 12.9h-.06l-4.74-12.9h-2.88l6.24 15.6-2.67 6h2.97l8.76-21.6zm18.975 13.68c-3.15 0-4.98-2.58-4.98-5.88s1.83-5.88 4.98-5.88c1.98 0 3.72 1.08 4.38 3.42l2.52-.36c-.99-3.6-3.6-5.28-6.9-5.28-4.65 0-7.5 3.54-7.5 8.1s2.85 8.1 7.5 8.1c3.3 0 5.91-1.68 6.9-5.28l-2.52-.36c-.66 2.34-2.4 3.42-4.38 3.42zm17.177 2.22c4.56 0 7.89-3.6 7.89-8.1s-3.33-8.1-7.89-8.1-7.89 3.6-7.89 8.1 3.33 8.1 7.89 8.1zm0-2.22c-3.3 0-5.37-2.64-5.37-5.88s2.07-5.88 5.37-5.88 5.37 2.64 5.37 5.88-2.07 5.88-5.37 5.88zm27.823-13.98c-2.07 0-4.05.96-5.25 2.7-.9-1.65-2.46-2.7-4.47-2.7-1.83 0-3.21.69-4.44 2.34h-.06v-2.04h-2.4v15.6h2.4v-8.88c0-2.67 1.68-4.8 4.02-4.8 1.89 0 3.3 1.11 3.3 3.6v10.08h2.4v-8.94c0-2.67 1.68-4.74 4.02-4.74 1.89 0 3.3 1.11 3.3 3.6v10.08h2.4v-10.26c0-3.3-2.13-5.64-5.22-5.64zm25.899 0c-2.07 0-4.05.96-5.25 2.7-.9-1.65-2.46-2.7-4.47-2.7-1.83 0-3.21.69-4.44 2.34h-.06v-2.04h-2.4v15.6h2.4v-8.88c0-2.67 1.68-4.8 4.02-4.8 1.89 0 3.3 1.11 3.3 3.6v10.08h2.4v-8.94c0-2.67 1.68-4.74 4.02-4.74 1.89 0 3.3 1.11 3.3 3.6v10.08h2.4v-10.26c0-3.3-2.13-5.64-5.22-5.64zm14.618 16.2c1.56 0 3.42-.69 4.65-2.34h.06v2.04h2.4v-15.6h-2.4v8.88c0 2.67-1.74 4.74-4.29 4.74-2.19 0-3.51-1.41-3.51-4.23v-9.39h-2.4v9.54c0 3.84 1.92 6.36 5.49 6.36zm12.801-18.6c1.02 0 1.8-.78 1.8-1.8 0-.99-.78-1.8-1.8-1.8s-1.8.81-1.8 1.8c0 1.02.78 1.8 1.8 1.8zm-1.2 2.7v15.6h2.4v-15.6zm6.907 0v15.6h2.4v-8.88c0-2.67 1.77-4.74 4.47-4.74 2.16 0 3.63 1.14 3.63 4.65v8.97h2.4v-9.54c0-4.17-2.25-6.36-5.49-6.36-1.56 0-3.72.75-4.95 2.34h-.06v-2.04zm23.856 13.68c-3.15 0-4.98-2.58-4.98-5.88s1.83-5.88 4.98-5.88c1.98 0 3.72 1.08 4.38 3.42l2.52-.36c-.99-3.6-3.6-5.28-6.9-5.28-4.65 0-7.5 3.54-7.5 8.1s2.85 8.1 7.5 8.1c3.3 0 5.91-1.68 6.9-5.28l-2.52-.36c-.66 2.34-2.4 3.42-4.38 3.42zm22.277-.72v-7.35c0-3.51-2.28-5.91-6.27-5.91-3.81 0-6.27 1.89-6.45 4.95h2.52c.09-1.59 1.53-2.91 3.87-2.91 2.31 0 3.93 1.38 3.93 3.6v.96s-3.18.03-5.07.12c-3.45.15-5.52 1.8-5.52 4.62s2.19 4.86 5.52 4.86c1.71 0 3.63-.6 5.04-2.55h.06c0 .66.06 1.65.15 2.25h2.34c-.09-.54-.12-1.62-.12-2.64zm-2.4-4.65v.57c0 3.27-2.43 4.8-4.8 4.8-2.01 0-3.27-.93-3.27-2.55 0-1.59 1.14-2.46 3.42-2.61 1.83-.12 4.65-.21 4.65-.21zm14.687-6.15v-2.16h-4.35v-5.25l-2.4.9v4.35h-3.6v2.16h3.6v8.34c0 4.02 2.19 5.22 5.04 5.22.63 0 1.26-.12 1.71-.3v-2.28c-.42.18-.99.3-1.47.3-1.62 0-2.88-.45-2.88-2.76v-8.52zm4.486-4.86c1.02 0 1.8-.78 1.8-1.8 0-.99-.78-1.8-1.8-1.8s-1.8.81-1.8 1.8c0 1.02.78 1.8 1.8 1.8zm-1.2 2.7v15.6h2.4v-15.6zm13.604 15.9c4.56 0 7.89-3.6 7.89-8.1s-3.33-8.1-7.89-8.1-7.89 3.6-7.89 8.1 3.33 8.1 7.89 8.1zm0-2.22c-3.3 0-5.37-2.64-5.37-5.88s2.07-5.88 5.37-5.88 5.37 2.64 5.37 5.88-2.07 5.88-5.37 5.88zm11.204-13.68v15.6h2.4v-8.88c0-2.67 1.77-4.74 4.47-4.74 2.16 0 3.63 1.14 3.63 4.65v8.97h2.4v-9.54c0-4.17-2.25-6.36-5.49-6.36-1.56 0-3.72.75-4.95 2.34h-.06v-2.04zm28.363 11.43c0-3.15-2.43-3.96-4.83-4.53-2.37-.6-4.74-.78-4.74-2.79 0-1.41 1.44-2.37 3.27-2.37 2.16 0 3.45 1.17 3.54 2.76h2.58c-.24-3.06-2.85-4.8-6.18-4.8-3.21 0-5.67 1.89-5.67 4.56 0 3.15 2.73 3.93 5.28 4.56 2.22.54 4.29.96 4.29 2.76 0 1.5-1.53 2.28-3.42 2.28-2.28 0-3.57-1.08-3.72-2.97h-2.7c.18 3.21 2.67 5.01 6.51 5.01 3.33 0 5.79-1.71 5.79-4.47z"/><path d="m628.68 621.8h10.62v-2.4h-13.2v21.6h13.2v-2.4h-10.62v-7.2h8.82v-2.4h-8.82zm27.279-3h-2.4v9h-.06c-1.26-1.8-3.21-2.7-5.25-2.7-4.29 0-7.17 3.24-7.17 8.1s2.88 8.1 7.17 8.1c2.04 0 3.99-.9 5.25-2.7h.06v2.4h2.4zm-7.35 8.58c3.33 0 5.01 2.7 5.01 5.82 0 3.15-1.68 5.82-5.01 5.82-3 0-5.01-2.34-5.01-5.82s2.01-5.82 5.01-5.82zm16.317 13.92c1.56 0 3.42-.69 4.65-2.34h.06v2.04h2.4v-15.6h-2.4v8.88c0 2.67-1.74 4.74-4.29 4.74-2.19 0-3.51-1.41-3.51-4.23v-9.39h-2.4v9.54c0 3.84 1.92 6.36 5.49 6.36zm17.608-2.22c-3.15 0-4.98-2.58-4.98-5.88s1.83-5.88 4.98-5.88c1.98 0 3.72 1.08 4.38 3.42l2.52-.36c-.99-3.6-3.6-5.28-6.9-5.28-4.65 0-7.5 3.54-7.5 8.1s2.85 8.1 7.5 8.1c3.3 0 5.91-1.68 6.9-5.28l-2.52-.36c-.66 2.34-2.4 3.42-4.38 3.42zm22.277-.72v-7.35c0-3.51-2.28-5.91-6.27-5.91-3.81 0-6.27 1.89-6.45 4.95h2.52c.09-1.59 1.53-2.91 3.87-2.91 2.31 0 3.93 1.38 3.93 3.6v.96s-3.18.03-5.07.12c-3.45.15-5.52 1.8-5.52 4.62s2.19 4.86 5.52 4.86c1.71 0 3.63-.6 5.04-2.55h.06c0 .66.06 1.65.15 2.25h2.34c-.09-.54-.12-1.62-.12-2.64zm-2.4-4.65v.57c0 3.27-2.43 4.8-4.8 4.8-2.01 0-3.27-.93-3.27-2.55 0-1.59 1.14-2.46 3.42-2.61 1.83-.12 4.65-.21 4.65-.21zm14.687-6.15v-2.16h-4.35v-5.25l-2.4.9v4.35h-3.6v2.16h3.6v8.34c0 4.02 2.19 5.22 5.04 5.22.63 0 1.26-.12 1.71-.3v-2.28c-.42.18-.99.3-1.47.3-1.62 0-2.88-.45-2.88-2.76v-8.52zm4.486-4.86c1.02 0 1.8-.78 1.8-1.8 0-.99-.78-1.8-1.8-1.8s-1.8.81-1.8 1.8c0 1.02.78 1.8 1.8 1.8zm-1.2 2.7v15.6h2.4v-15.6zm13.604 15.9c4.56 0 7.89-3.6 7.89-8.1s-3.33-8.1-7.89-8.1-7.89 3.6-7.89 8.1 3.33 8.1 7.89 8.1zm0-2.22c-3.3 0-5.37-2.64-5.37-5.88s2.07-5.88 5.37-5.88 5.37 2.64 5.37 5.88-2.07 5.88-5.37 5.88zm11.204-13.68v15.6h2.4v-8.88c0-2.67 1.77-4.74 4.47-4.74 2.16 0 3.63 1.14 3.63 4.65v8.97h2.4v-9.54c0-4.17-2.25-6.36-5.49-6.36-1.56 0-3.72.75-4.95 2.34h-.06v-2.04z"/><path d="m640.68 702-6-9.45c3.42-.45 5.55-2.61 5.55-6.03 0-3.6-2.43-6.12-6.93-6.12h-7.2v21.6h2.58v-9.36h3.3l5.7 9.36zm-12-19.2h4.77c2.64 0 4.14 1.41 4.14 3.72 0 2.16-1.32 3.72-4.14 3.72h-4.77zm21.162 17.28c-3.15 0-4.8-2.4-5.1-5.13h12.45c0-5.22-2.52-8.79-7.44-8.85-4.53-.06-7.56 3.54-7.56 8.1s3 8.1 7.65 8.1c3.51 0 6.06-1.89 6.81-4.8l-2.52-.36c-.48 1.44-1.86 2.94-4.29 2.94zm-.18-11.76c3 0 4.53 2.61 4.8 4.53h-9.6c.27-1.92 1.8-4.53 4.8-4.53zm10.833-8.52v22.2h2.4v-22.2zm18.681 19.56v-7.35c0-3.51-2.28-5.91-6.27-5.91-3.81 0-6.27 1.89-6.45 4.95h2.52c.09-1.59 1.53-2.91 3.87-2.91 2.31 0 3.93 1.38 3.93 3.6v.96s-3.18.03-5.07.12c-3.45.15-5.52 1.8-5.52 4.62s2.19 4.86 5.52 4.86c1.71 0 3.63-.6 5.04-2.55h.06c0 .66.06 1.65.15 2.25h2.34c-.09-.54-.12-1.62-.12-2.64zm-2.4-4.65v.57c0 3.27-2.43 4.8-4.8 4.8-2.01 0-3.27-.93-3.27-2.55 0-1.59 1.14-2.46 3.42-2.61 1.83-.12 4.65-.21 4.65-.21zm14.688-6.15v-2.16h-4.35v-5.25l-2.4.9v4.35h-3.6v2.16h3.6v8.34c0 4.02 2.19 5.22 5.04 5.22.63 0 1.26-.12 1.71-.3v-2.28c-.42.18-.99.3-1.47.3-1.62 0-2.88-.45-2.88-2.76v-8.52zm4.486-4.86c1.02 0 1.8-.78 1.8-1.8 0-.99-.78-1.8-1.8-1.8s-1.8.81-1.8 1.8c0 1.02.78 1.8 1.8 1.8zm-1.2 2.7v15.6h2.4v-15.6zm13.604 15.9c4.56 0 7.89-3.6 7.89-8.1s-3.33-8.1-7.89-8.1-7.89 3.6-7.89 8.1 3.33 8.1 7.89 8.1zm0-2.22c-3.3 0-5.37-2.64-5.37-5.88s2.07-5.88 5.37-5.88 5.37 2.64 5.37 5.88-2.07 5.88-5.37 5.88zm11.203-13.68v15.6h2.4v-8.88c0-2.67 1.77-4.74 4.47-4.74 2.16 0 3.63 1.14 3.63 4.65v8.97h2.4v-9.54c0-4.17-2.25-6.36-5.49-6.36-1.56 0-3.72.75-4.95 2.34h-.06v-2.04zm28.363 11.43c0-3.15-2.43-3.96-4.83-4.53-2.37-.6-4.74-.78-4.74-2.79 0-1.41 1.44-2.37 3.27-2.37 2.16 0 3.45 1.17 3.54 2.76h2.58c-.24-3.06-2.85-4.8-6.18-4.8-3.21 0-5.67 1.89-5.67 4.56 0 3.15 2.73 3.93 5.28 4.56 2.22.54 4.29.96 4.29 2.76 0 1.5-1.53 2.28-3.42 2.28-2.28 0-3.57-1.08-3.72-2.97h-2.7c.18 3.21 2.67 5.01 6.51 5.01 3.33 0 5.79-1.71 5.79-4.47zm10.507-11.73c-1.56 0-3.54.78-4.74 2.34h-.06v-8.64h-2.4v22.2h2.4v-8.88c0-2.67 1.65-4.74 4.35-4.74 2.16 0 3.51 1.11 3.51 4.35v9.27h2.4v-9.84c0-3.9-2.22-6.06-5.46-6.06zm10.999-2.4c1.02 0 1.8-.78 1.8-1.8 0-.99-.78-1.8-1.8-1.8s-1.8.81-1.8 1.8c0 1.02.78 1.8 1.8 1.8zm-1.2 2.7v15.6h2.4v-15.6zm14.617 15.9c4.29 0 7.17-3.24 7.17-8.1s-2.88-8.1-7.17-8.1c-2.04 0-3.99.9-5.25 2.7h-.06v-2.4h-2.4v21.15h2.4v-7.95h.06c1.26 1.8 3.21 2.7 5.25 2.7zm-.36-13.92c3 0 5.01 2.34 5.01 5.82s-2.01 5.82-5.01 5.82c-3.33 0-5.01-2.7-5.01-5.82 0-3.15 1.68-5.82 5.01-5.82z"/></g><circle cx="593" cy="571" fill="#5600af" r="8"/><circle cx="593" cy="632" fill="#5600af" r="8"/><circle cx="593" cy="693" fill="#5600af" r="8"/><path d="m570.42 160.8h-3.92v15.715c0 3.78-2.1 6.055-5.81 6.055-3.43 0-5.775-1.995-5.775-6.055v-15.715h-3.92v15.855c0 5.915 3.955 9.695 9.695 9.695 5.775 0 9.73-3.78 9.73-9.695zm18.199 19.985c0-3.885-3.08-4.795-5.88-5.46-2.66-.665-4.935-.91-4.935-2.765 0-1.26 1.33-2.17 3.115-2.17 2.135 0 3.325 1.155 3.5 2.66h3.99c-.385-3.605-3.395-5.845-7.49-5.845-3.92 0-6.93 2.45-6.93 5.635 0 3.955 3.395 4.9 6.37 5.6 2.66.63 4.41 1.085 4.41 2.695 0 1.33-1.47 2.065-3.325 2.065-1.995 0-3.325-.875-3.64-2.8h-4.13c.35 3.78 3.29 5.95 7.875 5.95 4.13 0 7.07-2.24 7.07-5.565zm11.76 2.24c-2.835 0-4.9-1.995-5.215-5.04h14c0-7-3.885-10.745-9.065-10.78-5.11 0-8.925 3.955-8.925 9.59 0 5.6 3.78 9.555 9.17 9.555 3.85 0 6.895-1.715 8.33-5.67l-3.885-.525c-.63 1.61-2.17 2.87-4.41 2.87zm-.28-12.46c2.66 0 4.515 2.17 4.935 4.48h-9.835c.385-2.31 2.24-4.48 4.9-4.48zm26.596 10.22c0-3.885-3.08-4.795-5.88-5.46-2.66-.665-4.935-.91-4.935-2.765 0-1.26 1.33-2.17 3.115-2.17 2.135 0 3.325 1.155 3.5 2.66h3.99c-.385-3.605-3.395-5.845-7.49-5.845-3.92 0-6.93 2.45-6.93 5.635 0 3.955 3.395 4.9 6.37 5.6 2.66.63 4.41 1.085 4.41 2.695 0 1.33-1.47 2.065-3.325 2.065-1.995 0-3.325-.875-3.64-2.8h-4.13c.35 3.78 3.29 5.95 7.875 5.95 4.13 0 7.07-2.24 7.07-5.565zm25.703 0c0-3.885-3.08-4.795-5.88-5.46-2.66-.665-4.935-.91-4.935-2.765 0-1.26 1.33-2.17 3.115-2.17 2.135 0 3.325 1.155 3.5 2.66h3.99c-.385-3.605-3.395-5.845-7.49-5.845-3.92 0-6.93 2.45-6.93 5.635 0 3.955 3.395 4.9 6.37 5.6 2.66.63 4.41 1.085 4.41 2.695 0 1.33-1.47 2.065-3.325 2.065-1.995 0-3.325-.875-3.64-2.8h-4.13c.35 3.78 3.29 5.95 7.875 5.95 4.13 0 7.07-2.24 7.07-5.565zm5.81-15.575c1.435 0 2.555-1.12 2.555-2.555 0-1.4-1.12-2.555-2.555-2.555s-2.555 1.155-2.555 2.555c0 1.435 1.12 2.555 2.555 2.555zm-1.855 2.345v18.445h3.71v-18.445zm25.2 0h-3.71v2.345h-.07c-1.715-1.82-3.43-2.625-5.775-2.625-4.9 0-8.295 3.745-8.295 9.03 0 5.32 3.395 9.065 8.295 9.065 2.345 0 4.06-.805 5.775-2.625h.07v1.225c0 3.605-1.645 6.125-5.11 6.125-2.275 0-4.165-1.155-4.865-3.605l-3.85.525c1.12 3.955 4.27 6.335 8.645 6.335 5.285 0 8.89-3.605 8.89-9.73zm-8.855 14.385c-3.01 0-5.145-2.415-5.145-5.635 0-3.185 2.135-5.6 5.145-5.6s5.18 2.415 5.18 5.6c0 3.22-2.17 5.635-5.18 5.635zm13.178-14.385v18.445h3.71v-10.465c0-2.835 1.855-4.9 4.585-4.9 2.135 0 3.535 1.365 3.535 4.62v10.745h3.71v-11.305c0-5.145-2.87-7.49-6.37-7.49-2.24 0-4.34 1.155-5.39 2.695h-.07v-2.345zm33.959 13.23c0-3.885-3.08-4.795-5.88-5.46-2.66-.665-4.935-.91-4.935-2.765 0-1.26 1.33-2.17 3.115-2.17 2.135 0 3.325 1.155 3.5 2.66h3.99c-.385-3.605-3.395-5.845-7.49-5.845-3.92 0-6.93 2.45-6.93 5.635 0 3.955 3.395 4.9 6.37 5.6 2.66.63 4.41 1.085 4.41 2.695 0 1.33-1.47 2.065-3.325 2.065-1.995 0-3.325-.875-3.64-2.8h-4.13c.35 3.78 3.29 5.95 7.875 5.95 4.13 0 7.07-2.24 7.07-5.565zm10.058-9.87h3.255v15.085h3.71v-15.085h4.865v-3.36h-4.865v-1.54c0-2.31 1.54-2.87 2.975-2.87.63 0 1.19.105 1.855.42v-3.395c-.49-.21-1.365-.42-2.24-.42-3.465 0-6.3 1.715-6.3 6.65v1.155h-3.255zm22.59 15.435c5.355 0 9.38-4.165 9.38-9.555 0-5.355-4.025-9.52-9.38-9.52s-9.38 4.165-9.38 9.52c0 5.39 4.025 9.555 9.38 9.555zm0-3.465c-3.255 0-5.53-2.59-5.53-6.09 0-3.465 2.275-6.09 5.53-6.09s5.53 2.625 5.53 6.09c0 3.5-2.275 6.09-5.53 6.09zm13.032-15.33v18.445h3.71v-10.185c0-3.115 1.33-4.725 4.655-4.725.455 0 1.05.07 1.54.175v-3.675c-.385-.14-.945-.175-1.33-.175-2.345 0-3.92 1.05-4.795 2.415h-.07v-2.275z" fill="#000"/><path d="m628.68 254.8h10.62v-2.4h-13.2v21.6h2.58v-9.6h8.82v-2.4h-8.82zm25.125 16.56v-7.35c0-3.51-2.28-5.91-6.27-5.91-3.81 0-6.27 1.89-6.45 4.95h2.52c.09-1.59 1.53-2.91 3.87-2.91 2.31 0 3.93 1.38 3.93 3.6v.96s-3.18.03-5.07.12c-3.45.15-5.52 1.8-5.52 4.62s2.19 4.86 5.52 4.86c1.71 0 3.63-.6 5.04-2.55h.06c0 .66.06 1.65.15 2.25h2.34c-.09-.54-.12-1.62-.12-2.64zm-2.4-4.65v.57c0 3.27-2.43 4.8-4.8 4.8-2.01 0-3.27-.93-3.27-2.55 0-1.59 1.14-2.46 3.42-2.61 1.83-.12 4.65-.21 4.65-.21zm23.044-8.61c-2.07 0-4.05.96-5.25 2.7-.9-1.65-2.46-2.7-4.47-2.7-1.83 0-3.21.69-4.44 2.34h-.06v-2.04h-2.4v15.6h2.4v-8.88c0-2.67 1.68-4.8 4.02-4.8 1.89 0 3.3 1.11 3.3 3.6v10.08h2.4v-8.94c0-2.67 1.68-4.74 4.02-4.74 1.89 0 3.3 1.11 3.3 3.6v10.08h2.4v-10.26c0-3.3-2.13-5.64-5.22-5.64zm10.778-2.4c1.02 0 1.8-.78 1.8-1.8 0-.99-.78-1.8-1.8-1.8s-1.8.81-1.8 1.8c0 1.02.78 1.8 1.8 1.8zm-1.2 2.7v15.6h2.4v-15.6zm6.907-6.6v22.2h2.4v-22.2zm17.332 6.6-4.86 12.9h-.06l-4.74-12.9h-2.88l6.24 15.6-2.67 6h2.97l8.76-21.6zm12.375 0v15.6h2.4v-8.88c0-2.67 1.77-4.74 4.47-4.74 2.16 0 3.63 1.14 3.63 4.65v8.97h2.4v-9.54c0-4.17-2.25-6.36-5.49-6.36-1.56 0-3.72.75-4.95 2.34h-.06v-2.04zm24.006 13.68c-3.15 0-4.8-2.4-5.1-5.13h12.45c0-5.22-2.52-8.79-7.44-8.85-4.53-.06-7.56 3.54-7.56 8.1s3 8.1 7.65 8.1c3.51 0 6.06-1.89 6.81-4.8l-2.52-.36c-.48 1.44-1.86 2.94-4.29 2.94zm-.18-11.76c3 0 4.53 2.61 4.8 4.53h-9.6c.27-1.92 1.8-4.53 4.8-4.53zm17.875 11.76c-3.15 0-4.8-2.4-5.1-5.13h12.45c0-5.22-2.52-8.79-7.44-8.85-4.53-.06-7.56 3.54-7.56 8.1s3 8.1 7.65 8.1c3.51 0 6.06-1.89 6.81-4.8l-2.52-.36c-.48 1.44-1.86 2.94-4.29 2.94zm-.18-11.76c3 0 4.53 2.61 4.8 4.53h-9.6c.27-1.92 1.8-4.53 4.8-4.53zm25.106-8.52h-2.4v9h-.06c-1.26-1.8-3.21-2.7-5.25-2.7-4.29 0-7.17 3.24-7.17 8.1s2.88 8.1 7.17 8.1c2.04 0 3.99-.9 5.25-2.7h.06v2.4h2.4zm-7.35 8.58c3.33 0 5.01 2.7 5.01 5.82 0 3.15-1.68 5.82-5.01 5.82-3 0-5.01-2.34-5.01-5.82s2.01-5.82 5.01-5.82zm22.963 9.45c0-3.15-2.43-3.96-4.83-4.53-2.37-.6-4.74-.78-4.74-2.79 0-1.41 1.44-2.37 3.27-2.37 2.16 0 3.45 1.17 3.54 2.76h2.58c-.24-3.06-2.85-4.8-6.18-4.8-3.21 0-5.67 1.89-5.67 4.56 0 3.15 2.73 3.93 5.28 4.56 2.22.54 4.29.96 4.29 2.76 0 1.5-1.53 2.28-3.42 2.28-2.28 0-3.57-1.08-3.72-2.97h-2.7c.18 3.21 2.67 5.01 6.51 5.01 3.33 0 5.79-1.71 5.79-4.47z" fill="#000"/><path d="m635.52 332.84c-4.47 0-7.62-3.42-7.62-8.64s3.15-8.64 7.62-8.64c3.06 0 5.55 1.8 6.45 4.65l2.7-.36c-1.14-4.08-4.56-6.75-9.15-6.75-6.06 0-10.32 4.44-10.32 11.1s4.26 11.1 10.32 11.1c4.59 0 8.04-2.67 9.18-6.75l-2.7-.36c-.9 2.85-3.42 4.65-6.48 4.65zm24.584-.48v-7.35c0-3.51-2.28-5.91-6.27-5.91-3.81 0-6.27 1.89-6.45 4.95h2.52c.09-1.59 1.53-2.91 3.87-2.91 2.31 0 3.93 1.38 3.93 3.6v.96s-3.18.03-5.07.12c-3.45.15-5.52 1.8-5.52 4.62s2.19 4.86 5.52 4.86c1.71 0 3.63-.6 5.04-2.55h.06c0 .66.06 1.65.15 2.25h2.34c-.09-.54-.12-1.62-.12-2.64zm-2.4-4.65v.57c0 3.27-2.43 4.8-4.8 4.8-2.01 0-3.27-.93-3.27-2.55 0-1.59 1.14-2.46 3.42-2.61 1.83-.12 4.65-.21 4.65-.21zm6.423-8.31v15.6h2.4v-8.82c0-2.82 1.23-4.62 4.35-4.62.3 0 .63.03.93.09v-2.34c-.3-.06-.66-.09-1.05-.09-1.86 0-3.48.9-4.17 2.4h-.06v-2.22zm16.858 13.68c-3.15 0-4.8-2.4-5.1-5.13h12.45c0-5.22-2.52-8.79-7.44-8.85-4.53-.06-7.56 3.54-7.56 8.1s3 8.1 7.65 8.1c3.51 0 6.06-1.89 6.81-4.8l-2.52-.36c-.48 1.44-1.86 2.94-4.29 2.94zm-.18-11.76c3 0 4.53 2.61 4.8 4.53h-9.6c.27-1.92 1.8-4.53 4.8-4.53zm17.875 11.76c-3.15 0-4.8-2.4-5.1-5.13h12.45c0-5.22-2.52-8.79-7.44-8.85-4.53-.06-7.56 3.54-7.56 8.1s3 8.1 7.65 8.1c3.51 0 6.06-1.89 6.81-4.8l-2.52-.36c-.48 1.44-1.86 2.94-4.29 2.94zm-.18-11.76c3 0 4.53 2.61 4.8 4.53h-9.6c.27-1.92 1.8-4.53 4.8-4.53zm10.832-1.92v15.6h2.4v-8.82c0-2.82 1.23-4.62 4.35-4.62.3 0 .63.03.93.09v-2.34c-.3-.06-.66-.09-1.05-.09-1.86 0-3.48.9-4.17 2.4h-.06v-2.22zm24.891 15.9c4.56 0 7.89-3.6 7.89-8.1s-3.33-8.1-7.89-8.1-7.89 3.6-7.89 8.1 3.33 8.1 7.89 8.1zm0-2.22c-3.3 0-5.37-2.64-5.37-5.88s2.07-5.88 5.37-5.88 5.37 2.64 5.37 5.88-2.07 5.88-5.37 5.88zm18.913 2.22c4.29 0 7.17-3.24 7.17-8.1s-2.88-8.1-7.17-8.1c-2.04 0-3.99.9-5.25 2.7h-.06v-2.4h-2.4v21.15h2.4v-7.95h.06c1.26 1.8 3.21 2.7 5.25 2.7zm-.36-13.92c3 0 5.01 2.34 5.01 5.82s-2.01 5.82-5.01 5.82c-3.33 0-5.01-2.7-5.01-5.82 0-3.15 1.68-5.82 5.01-5.82zm18.554 13.92c4.29 0 7.17-3.24 7.17-8.1s-2.88-8.1-7.17-8.1c-2.04 0-3.99.9-5.25 2.7h-.06v-2.4h-2.4v21.15h2.4v-7.95h.06c1.26 1.8 3.21 2.7 5.25 2.7zm-.36-13.92c3 0 5.01 2.34 5.01 5.82s-2.01 5.82-5.01 5.82c-3.33 0-5.01-2.7-5.01-5.82 0-3.15 1.68-5.82 5.01-5.82zm18.126 13.92c4.56 0 7.89-3.6 7.89-8.1s-3.33-8.1-7.89-8.1-7.89 3.6-7.89 8.1 3.33 8.1 7.89 8.1zm0-2.22c-3.3 0-5.37-2.64-5.37-5.88s2.07-5.88 5.37-5.88 5.37 2.64 5.37 5.88-2.07 5.88-5.37 5.88zm11.203-13.68v15.6h2.4v-8.82c0-2.82 1.23-4.62 4.35-4.62.3 0 .63.03.93.09v-2.34c-.3-.06-.66-.09-1.05-.09-1.86 0-3.48.9-4.17 2.4h-.06v-2.22zm20.13 2.16v-2.16h-4.35v-5.25l-2.4.9v4.35h-3.6v2.16h3.6v8.34c0 4.02 2.19 5.22 5.04 5.22.63 0 1.26-.12 1.71-.3v-2.28c-.42.18-.99.3-1.47.3-1.62 0-2.88-.45-2.88-2.76v-8.52zm8.325 13.74c1.56 0 3.42-.69 4.65-2.34h.06v2.04h2.4v-15.6h-2.4v8.88c0 2.67-1.74 4.74-4.29 4.74-2.19 0-3.51-1.41-3.51-4.23v-9.39h-2.4v9.54c0 3.84 1.92 6.36 5.49 6.36zm11.301-15.9v15.6h2.4v-8.88c0-2.67 1.77-4.74 4.47-4.74 2.16 0 3.63 1.14 3.63 4.65v8.97h2.4v-9.54c0-4.17-2.25-6.36-5.49-6.36-1.56 0-3.72.75-4.95 2.34h-.06v-2.04zm18.463-2.7c1.02 0 1.8-.78 1.8-1.8 0-.99-.78-1.8-1.8-1.8s-1.8.81-1.8 1.8c0 1.02.78 1.8 1.8 1.8zm-1.2 2.7v15.6h2.4v-15.6zm15.757 2.16v-2.16h-4.35v-5.25l-2.4.9v4.35h-3.6v2.16h3.6v8.34c0 4.02 2.19 5.22 5.04 5.22.63 0 1.26-.12 1.71-.3v-2.28c-.42.18-.99.3-1.47.3-1.62 0-2.88-.45-2.88-2.76v-8.52zm14.488-2.16-4.86 12.9h-.06l-4.74-12.9h-2.88l6.24 15.6-2.67 6h2.97l8.76-21.6z" fill="#000"/><path d="m641.91 396h2.85l-8.82-21.6h-2.82l-8.82 21.6h2.7l2.25-5.7h10.47zm-11.7-8.1 4.32-10.95h.06l4.2 10.95zm29.574-7.8c-1.56 0-3.54.78-4.74 2.34h-.06v-8.64h-2.4v22.2h2.4v-8.88c0-2.67 1.65-4.74 4.35-4.74 2.16 0 3.51 1.11 3.51 4.35v9.27h2.4v-9.84c0-3.9-2.22-6.06-5.46-6.06zm16.783 16.2c4.56 0 7.89-3.6 7.89-8.1s-3.33-8.1-7.89-8.1-7.89 3.6-7.89 8.1 3.33 8.1 7.89 8.1zm0-2.22c-3.3 0-5.37-2.64-5.37-5.88s2.07-5.88 5.37-5.88 5.37 2.64 5.37 5.88-2.07 5.88-5.37 5.88zm10.91 1.92h2.4v-2.4h.06c1.26 1.8 3.21 2.7 5.25 2.7 4.29 0 7.17-3.24 7.17-8.1s-2.88-8.1-7.17-8.1c-2.04 0-3.99.9-5.25 2.7h-.06v-9h-2.4zm7.35-13.62c3 0 5.01 2.34 5.01 5.82s-2.01 5.82-5.01 5.82c-3.33 0-5.01-2.67-5.01-5.82 0-3.12 1.68-5.82 5.01-5.82zm10.55 13.62h2.4v-2.4h.06c1.26 1.8 3.21 2.7 5.25 2.7 4.29 0 7.17-3.24 7.17-8.1s-2.88-8.1-7.17-8.1c-2.04 0-3.99.9-5.25 2.7h-.06v-9h-2.4zm7.35-13.62c3 0 5.01 2.34 5.01 5.82s-2.01 5.82-5.01 5.82c-3.33 0-5.01-2.67-5.01-5.82 0-3.12 1.68-5.82 5.01-5.82zm20.998-1.98-4.86 12.9h-.06l-4.74-12.9h-2.88l6.24 15.6-2.67 6h2.97l8.76-21.6z" fill="#000"/><circle cx="593" cy="265" fill="#5600af" r="8"/><circle cx="593" cy="326" fill="#5600af" r="8"/><circle cx="593" cy="387" fill="#5600af" r="8"/><g fill="#000"><path d="m571.855 774.8h-3.92v18.655h-.07l-12.67-18.655h-3.85v25.2h3.92v-18.515h.07l12.67 18.515h3.85zm13.01 25.55c5.355 0 9.38-4.165 9.38-9.555 0-5.355-4.025-9.52-9.38-9.52s-9.38 4.165-9.38 9.52c0 5.39 4.025 9.555 9.38 9.555zm0-3.465c-3.255 0-5.53-2.59-5.53-6.09 0-3.465 2.275-6.09 5.53-6.09s5.53 2.625 5.53 6.09c0 3.5-2.275 6.09-5.53 6.09zm22.718-11.97v-3.36h-4.83v-6.055l-3.71 1.19v4.865h-3.955v3.36h3.955v8.715c0 4.935 2.835 6.545 6.3 6.545.875 0 1.75-.21 2.24-.42v-3.36c-.665.28-1.225.385-1.855.385-1.435 0-2.975-.42-2.975-3.01v-8.855zm25.401 9.87c0-3.885-3.08-4.795-5.88-5.46-2.66-.665-4.935-.91-4.935-2.765 0-1.26 1.33-2.17 3.115-2.17 2.135 0 3.325 1.155 3.5 2.66h3.99c-.385-3.605-3.395-5.845-7.49-5.845-3.92 0-6.93 2.45-6.93 5.635 0 3.955 3.395 4.9 6.37 5.6 2.66.63 4.41 1.085 4.41 2.695 0 1.33-1.47 2.065-3.325 2.065-1.995 0-3.325-.875-3.64-2.8h-4.13c.35 3.78 3.29 5.95 7.875 5.95 4.13 0 7.07-2.24 7.07-5.565zm18.515.21v-6.615c0-4.305-3.115-7.175-7.77-7.175-4.55 0-7.665 2.275-7.875 6.09h3.85c.175-1.75 1.75-3.01 3.99-3.01 2.205 0 4.095 1.26 4.095 3.64v1.015s-3.395.035-5.635.14c-4.62.21-6.615 2.59-6.615 5.53 0 3.465 2.625 5.74 6.405 5.74 2.065 0 4.2-.665 5.88-2.8h.07c0 .63.035 1.75.14 2.45h3.64c-.14-.98-.175-2.38-.175-5.005zm-3.71-3.29v.7c0 3.115-2.415 4.795-5.11 4.795-1.96 0-3.29-.91-3.29-2.59 0-1.54 1.085-2.52 3.745-2.695 1.995-.105 4.655-.21 4.655-.21zm18.276-6.79v-3.36h-4.83v-6.055l-3.71 1.19v4.865h-3.955v3.36h3.955v8.715c0 4.935 2.835 6.545 6.3 6.545.875 0 1.75-.21 2.24-.42v-3.36c-.665.28-1.225.385-1.855.385-1.435 0-2.975-.42-2.975-3.01v-8.855zm5.507-5.705c1.435 0 2.555-1.12 2.555-2.555 0-1.4-1.12-2.555-2.555-2.555s-2.555 1.155-2.555 2.555c0 1.435 1.12 2.555 2.555 2.555zm-1.855 2.345v18.445h3.71v-18.445zm22.637 13.23c0-3.885-3.08-4.795-5.88-5.46-2.66-.665-4.935-.91-4.935-2.765 0-1.26 1.33-2.17 3.115-2.17 2.135 0 3.325 1.155 3.5 2.66h3.99c-.385-3.605-3.395-5.845-7.49-5.845-3.92 0-6.93 2.45-6.93 5.635 0 3.955 3.395 4.9 6.37 5.6 2.66.63 4.41 1.085 4.41 2.695 0 1.33-1.47 2.065-3.325 2.065-1.995 0-3.325-.875-3.64-2.8h-4.13c.35 3.78 3.29 5.95 7.875 5.95 4.13 0 7.07-2.24 7.07-5.565zm19.145-13.23h-10.325v-1.54c0-2.275 1.54-2.905 2.975-2.905.63 0 1.19.105 1.855.42v-3.36c-.49-.21-1.365-.42-2.24-.42-3.465 0-6.3 1.75-6.3 6.65v1.155h-3.255v3.36h3.255v15.085h3.71v-15.085h6.615v15.085h3.71zm-1.855-2.8c1.435 0 2.52-1.085 2.52-2.485s-1.085-2.52-2.52-2.52c-1.4 0-2.485 1.12-2.485 2.52s1.085 2.485 2.485 2.485zm14.67 18.27c-2.835 0-4.9-1.995-5.215-5.04h14c0-7-3.885-10.745-9.065-10.78-5.11 0-8.925 3.955-8.925 9.59 0 5.6 3.78 9.555 9.17 9.555 3.85 0 6.895-1.715 8.33-5.67l-3.885-.525c-.63 1.61-2.17 2.87-4.41 2.87zm-.28-12.46c2.66 0 4.515 2.17 4.935 4.48h-9.835c.385-2.31 2.24-4.48 4.9-4.48zm30.193-10.465h-3.71v9.8h-.07c-1.26-1.505-3.255-2.695-5.915-2.695-4.865 0-8.505 3.85-8.505 9.59s3.64 9.555 8.505 9.555c2.66 0 4.655-1.19 5.915-2.695h.07v2.345h3.71zm-8.995 10.605c3.22 0 5.355 2.59 5.355 6.09s-2.135 6.09-5.355 6.09c-3.08 0-5.355-2.485-5.355-6.09 0-3.64 2.275-6.09 5.355-6.09zm48.874-3.15h-4.06l-3.885 13.825h-.07l-4.62-13.825h-3.465l-4.55 13.825h-.07l-4.13-13.825h-4.2l6.23 18.445h4.095l4.34-13.125 4.41 13.125h3.99zm4.82-2.345c1.435 0 2.555-1.12 2.555-2.555 0-1.4-1.12-2.555-2.555-2.555s-2.555 1.155-2.555 2.555c0 1.435 1.12 2.555 2.555 2.555zm-1.855 2.345v18.445h3.71v-18.445zm19.487 3.36v-3.36h-4.83v-6.055l-3.71 1.19v4.865h-3.955v3.36h3.955v8.715c0 4.935 2.835 6.545 6.3 6.545.875 0 1.75-.21 2.24-.42v-3.36c-.665.28-1.225.385-1.855.385-1.435 0-2.975-.42-2.975-3.01v-8.855zm12.368-3.71c-2.205 0-4.235 1.155-5.285 2.695h-.07v-9.8h-3.71v25.9h3.71v-10.465c0-2.835 1.82-4.9 4.515-4.9 2.17 0 3.5 1.365 3.5 4.515v10.85h3.71v-11.41c0-5.04-2.87-7.385-6.37-7.385zm29.844 3.71v-3.36h-4.83v-6.055l-3.71 1.19v4.865h-3.955v3.36h3.955v8.715c0 4.935 2.835 6.545 6.3 6.545.875 0 1.75-.21 2.24-.42v-3.36c-.665.28-1.225.385-1.855.385-1.435 0-2.975-.42-2.975-3.01v-8.855zm11.633 15.435c5.355 0 9.38-4.165 9.38-9.555 0-5.355-4.025-9.52-9.38-9.52s-9.38 4.165-9.38 9.52c0 5.39 4.025 9.555 9.38 9.555zm0-3.465c-3.255 0-5.53-2.59-5.53-6.09 0-3.465 2.275-6.09 5.53-6.09s5.53 2.625 5.53 6.09c0 3.5-2.275 6.09-5.53 6.09zm30.524-22.785h-3.71v9.8h-.07c-1.26-1.505-3.255-2.695-5.915-2.695-4.865 0-8.505 3.85-8.505 9.59s3.64 9.555 8.505 9.555c2.66 0 4.655-1.19 5.915-2.695h.07v2.345h3.71zm-8.995 10.605c3.22 0 5.355 2.59 5.355 6.09s-2.135 6.09-5.355 6.09c-3.08 0-5.355-2.485-5.355-6.09 0-3.64 2.275-6.09 5.355-6.09zm28.595 10.29v-6.615c0-4.305-3.115-7.175-7.77-7.175-4.55 0-7.665 2.275-7.875 6.09h3.85c.175-1.75 1.75-3.01 3.99-3.01 2.205 0 4.095 1.26 4.095 3.64v1.015s-3.395.035-5.635.14c-4.62.21-6.615 2.59-6.615 5.53 0 3.465 2.625 5.74 6.405 5.74 2.065 0 4.2-.665 5.88-2.8h.07c0 .63.035 1.75.14 2.45h3.64c-.14-.98-.175-2.38-.175-5.005zm-3.71-3.29v.7c0 3.115-2.415 4.795-5.11 4.795-1.96 0-3.29-.91-3.29-2.59 0-1.54 1.085-2.52 3.745-2.695 1.995-.105 4.655-.21 4.655-.21zm19.72-10.15-5.215 13.93h-.07l-5.075-13.93h-4.27l7.385 18.445-3.045 7h4.095l10.325-25.445zm5.941 0h3.29l2.1-7.525h-4.13zm23.143 13.23c0-3.885-3.08-4.795-5.88-5.46-2.66-.665-4.935-.91-4.935-2.765 0-1.26 1.33-2.17 3.115-2.17 2.135 0 3.325 1.155 3.5 2.66h3.99c-.385-3.605-3.395-5.845-7.49-5.845-3.92 0-6.93 2.45-6.93 5.635 0 3.955 3.395 4.9 6.37 5.6 2.66.63 4.41 1.085 4.41 2.695 0 1.33-1.47 2.065-3.325 2.065-1.995 0-3.325-.875-3.64-2.8h-4.13c.35 3.78 3.29 5.95 7.875 5.95 4.13 0 7.07-2.24 7.07-5.565zm20.138 5.565c5.355 0 9.38-4.165 9.38-9.555 0-5.355-4.025-9.52-9.38-9.52s-9.38 4.165-9.38 9.52c0 5.39 4.025 9.555 9.38 9.555zm0-3.465c-3.255 0-5.53-2.59-5.53-6.09 0-3.465 2.275-6.09 5.53-6.09s5.53 2.625 5.53 6.09c0 3.5-2.275 6.09-5.53 6.09zm28.291-15.33v-1.54c0-2.275 1.51-2.905 2.98-2.905.63 0 1.19.105 1.85.42v-3.36c-.49-.21-1.4-.42-2.24-.42-3.46 0-6.3 1.75-6.3 6.65v1.155h-6.33v-1.54c0-2.275 1.54-2.905 2.97-2.905.63 0 1.19.105 1.86.42v-3.36c-.49-.21-1.37-.42-2.24-.42-3.47 0-6.3 1.75-6.3 6.65v1.155h-3.259v3.36h3.259v15.085h3.71v-15.085h6.33v15.085h3.71v-15.085h4.87v-3.36zm15.42 15.47c-2.83 0-4.9-1.995-5.21-5.04h14c0-7-3.89-10.745-9.07-10.78-5.11 0-8.92 3.955-8.92 9.59 0 5.6 3.78 9.555 9.17 9.555 3.85 0 6.89-1.715 8.33-5.67l-3.89-.525c-.63 1.61-2.17 2.87-4.41 2.87zm-.28-12.46c2.66 0 4.52 2.17 4.94 4.48h-9.84c.39-2.31 2.24-4.48 4.9-4.48zm12.7-3.01v18.445h3.71v-10.185c0-3.115 1.33-4.725 4.66-4.725.45 0 1.05.07 1.54.175v-3.675c-.39-.14-.95-.175-1.33-.175-2.35 0-3.92 1.05-4.8 2.415h-.07v-2.275zm27.09 13.23c0-3.885-3.08-4.795-5.88-5.46-2.66-.665-4.93-.91-4.93-2.765 0-1.26 1.33-2.17 3.11-2.17 2.14 0 3.33 1.155 3.5 2.66h3.99c-.38-3.605-3.39-5.845-7.49-5.845-3.92 0-6.93 2.45-6.93 5.635 0 3.955 3.4 4.9 6.37 5.6 2.66.63 4.41 1.085 4.41 2.695 0 1.33-1.47 2.065-3.32 2.065-2 0-3.33-.875-3.64-2.8h-4.13c.35 3.78 3.29 5.95 7.87 5.95 4.13 0 7.07-2.24 7.07-5.565z"/><path d="m649.91 888h2.85l-8.82-21.6h-2.82l-8.82 21.6h2.7l2.25-5.7h10.47zm-11.7-8.1 4.32-10.95h.06l4.2 10.95zm24.664 8.4c4.29 0 7.17-3.24 7.17-8.1s-2.88-8.1-7.17-8.1c-2.04 0-3.99.9-5.25 2.7h-.06v-2.4h-2.4v21.15h2.4v-7.95h.06c1.26 1.8 3.21 2.7 5.25 2.7zm-.36-13.92c3 0 5.01 2.34 5.01 5.82s-2.01 5.82-5.01 5.82c-3.33 0-5.01-2.7-5.01-5.82 0-3.15 1.68-5.82 5.01-5.82zm18.554 13.92c4.29 0 7.17-3.24 7.17-8.1s-2.88-8.1-7.17-8.1c-2.04 0-3.99.9-5.25 2.7h-.06v-2.4h-2.4v21.15h2.4v-7.95h.06c1.26 1.8 3.21 2.7 5.25 2.7zm-.36-13.92c3 0 5.01 2.34 5.01 5.82s-2.01 5.82-5.01 5.82c-3.33 0-5.01-2.7-5.01-5.82 0-3.15 1.68-5.82 5.01-5.82zm22.243 9.45c0-3.15-2.43-3.96-4.83-4.53-2.37-.6-4.74-.78-4.74-2.79 0-1.41 1.44-2.37 3.27-2.37 2.16 0 3.45 1.17 3.54 2.76h2.58c-.24-3.06-2.85-4.8-6.18-4.8-3.21 0-5.67 1.89-5.67 4.56 0 3.15 2.73 3.93 5.28 4.56 2.22.54 4.29.96 4.29 2.76 0 1.5-1.53 2.28-3.42 2.28-2.28 0-3.57-1.08-3.72-2.97h-2.7c.18 3.21 2.67 5.01 6.51 5.01 3.33 0 5.79-1.71 5.79-4.47zm24.494-18.03h-2.4v9h-.06c-1.26-1.8-3.21-2.7-5.25-2.7-4.29 0-7.17 3.24-7.17 8.1s2.88 8.1 7.17 8.1c2.04 0 3.99-.9 5.25-2.7h.06v2.4h2.4zm-7.35 8.58c3.33 0 5.01 2.7 5.01 5.82 0 3.15-1.68 5.82-5.01 5.82-3 0-5.01-2.34-5.01-5.82s2.01-5.82 5.01-5.82zm18.261 13.92c4.56 0 7.89-3.6 7.89-8.1s-3.33-8.1-7.89-8.1-7.89 3.6-7.89 8.1 3.33 8.1 7.89 8.1zm0-2.22c-3.3 0-5.37-2.64-5.37-5.88s2.07-5.88 5.37-5.88 5.37 2.64 5.37 5.88-2.07 5.88-5.37 5.88zm11.203-13.68v15.6h2.4v-8.88c0-2.67 1.77-4.74 4.47-4.74 2.16 0 3.63 1.14 3.63 4.65v8.97h2.4v-9.54c0-4.17-2.25-6.36-5.49-6.36-1.56 0-3.72.75-4.95 2.34h-.06v-2.04zm25.227 2.16v-2.16h-4.35v-5.25l-2.4.9v4.35h-3.6v2.16h3.6v8.34c0 4.02 2.19 5.22 5.04 5.22.63 0 1.26-.12 1.71-.3v-2.28c-.42.18-.99.3-1.47.3-1.62 0-2.88-.45-2.88-2.76v-8.52zm17.183 13.74c4.56 0 7.89-3.6 7.89-8.1s-3.33-8.1-7.89-8.1-7.89 3.6-7.89 8.1 3.33 8.1 7.89 8.1zm0-2.22c-3.3 0-5.37-2.64-5.37-5.88s2.07-5.88 5.37-5.88 5.37 2.64 5.37 5.88-2.07 5.88-5.37 5.88zm26.683-18.36c.48 0 1.05.12 1.47.3v-2.22c-.45-.18-1.11-.3-1.71-.3-2.85 0-5.04 1.38-5.04 5.4v1.5h-6.3v-1.74c0-2.31 1.26-2.94 2.88-2.94.48 0 1.05.12 1.47.3v-2.22c-.45-.18-1.11-.3-1.71-.3-2.85 0-5.04 1.38-5.04 5.4v1.5h-3v2.16h3v13.44h2.4v-13.44h6.3v13.44h2.4v-13.44h4.35v-2.16h-4.35v-1.74c0-2.31 1.26-2.94 2.88-2.94zm10.489 18.36c-3.15 0-4.8-2.4-5.1-5.13h12.45c0-5.22-2.52-8.79-7.44-8.85-4.53-.06-7.56 3.54-7.56 8.1s3 8.1 7.65 8.1c3.51 0 6.06-1.89 6.81-4.8l-2.52-.36c-.48 1.44-1.86 2.94-4.29 2.94zm-.18-11.76c3 0 4.53 2.61 4.8 4.53h-9.6c.27-1.92 1.8-4.53 4.8-4.53zm10.832-1.92v15.6h2.4v-8.82c0-2.82 1.23-4.62 4.35-4.62.3 0 .63.03.93.09v-2.34c-.3-.06-.66-.09-1.05-.09-1.86 0-3.48.9-4.17 2.4h-.06v-2.22zm31.881-6.6h-2.4v9h-.06c-1.26-1.8-3.21-2.7-5.25-2.7-4.29 0-7.17 3.24-7.17 8.1s2.88 8.1 7.17 8.1c2.04 0 3.99-.9 5.25-2.7h.06v2.4h2.4zm-7.35 8.58c3.33 0 5.01 2.7 5.01 5.82 0 3.15-1.68 5.82-5.01 5.82-3 0-5.01-2.34-5.01-5.82s2.01-5.82 5.01-5.82zm18.02 11.7c-3.15 0-4.8-2.4-5.1-5.13h12.45c0-5.22-2.52-8.79-7.44-8.85-4.53-.06-7.56 3.54-7.56 8.1s3 8.1 7.65 8.1c3.51 0 6.06-1.89 6.81-4.8l-2.52-.36c-.48 1.44-1.86 2.94-4.29 2.94zm-.18-11.76c3 0 4.53 2.61 4.8 4.53h-9.6c.27-1.92 1.8-4.53 4.8-4.53zm22.232 9.51c0-3.15-2.43-3.96-4.83-4.53-2.37-.6-4.74-.78-4.74-2.79 0-1.41 1.44-2.37 3.27-2.37 2.16 0 3.45 1.17 3.54 2.76h2.58c-.24-3.06-2.85-4.8-6.18-4.8-3.21 0-5.67 1.89-5.67 4.56 0 3.15 2.73 3.93 5.28 4.56 2.22.54 4.29.96 4.29 2.76 0 1.5-1.53 2.28-3.42 2.28-2.28 0-3.57-1.08-3.72-2.97h-2.7c.18 3.21 2.67 5.01 6.51 5.01 3.33 0 5.79-1.71 5.79-4.47zm4.808-14.13c1.02 0 1.8-.78 1.8-1.8 0-.99-.78-1.8-1.8-1.8s-1.8.81-1.8 1.8c0 1.02.78 1.8 1.8 1.8zm-1.2 2.7v15.6h2.4v-15.6zm6.907 0v15.6h2.4v-8.82c0-2.82 1.23-4.62 4.35-4.62.3 0 .63.03.93.09v-2.34c-.3-.06-.66-.09-1.05-.09-1.86 0-3.48.9-4.17 2.4h-.06v-2.22zm16.857 13.68c-3.15 0-4.8-2.4-5.1-5.13h12.45c0-5.22-2.52-8.79-7.44-8.85-4.53-.06-7.56 3.54-7.56 8.1s3 8.1 7.65 8.1c3.51 0 6.06-1.89 6.81-4.8l-2.52-.36c-.48 1.44-1.86 2.94-4.29 2.94zm-.18-11.76c3 0 4.53 2.61 4.8 4.53h-9.6c.27-1.92 1.8-4.53 4.8-4.53zm25.105-8.52h-2.4v9h-.06c-1.26-1.8-3.21-2.7-5.25-2.7-4.29 0-7.17 3.24-7.17 8.1s2.88 8.1 7.17 8.1c2.04 0 3.99-.9 5.25-2.7h.06v2.4h2.4zm-7.35 8.58c3.33 0 5.01 2.7 5.01 5.82 0 3.15-1.68 5.82-5.01 5.82-3 0-5.01-2.34-5.01-5.82s2.01-5.82 5.01-5.82zm17.271.18h3v13.44h2.4v-13.44h4.35v-2.16h-4.35v-1.74c0-2.37 1.26-2.88 2.88-2.88.48 0 1.05.12 1.47.3v-2.28c-.45-.18-1.11-.3-1.71-.3-2.85 0-5.04 1.32-5.04 5.4v1.5h-3zm18.236 13.74c1.56 0 3.42-.69 4.65-2.34h.06v2.04h2.4v-15.6h-2.4v8.88c0 2.67-1.74 4.74-4.29 4.74-2.19 0-3.51-1.41-3.51-4.23v-9.39h-2.4v9.54c0 3.84 1.92 6.36 5.49 6.36zm11.301-15.9v15.6h2.4v-8.88c0-2.67 1.769-4.74 4.469-4.74 2.16 0 3.63 1.14 3.63 4.65v8.97h2.4v-9.54c0-4.17-2.25-6.36-5.49-6.36-1.56 0-3.719.75-4.949 2.34h-.06v-2.04zm23.859 13.68c-3.15 0-4.98-2.58-4.98-5.88s1.83-5.88 4.98-5.88c1.98 0 3.72 1.08 4.38 3.42l2.52-.36c-.99-3.6-3.6-5.28-6.9-5.28-4.65 0-7.5 3.54-7.5 8.1s2.85 8.1 7.5 8.1c3.3 0 5.91-1.68 6.9-5.28l-2.52-.36c-.66 2.34-2.4 3.42-4.38 3.42zm18.74-11.52v-2.16h-4.35v-5.25l-2.4.9v4.35h-3.6v2.16h3.6v8.34c0 4.02 2.19 5.22 5.04 5.22.63 0 1.26-.12 1.71-.3v-2.28c-.42.18-.99.3-1.47.3-1.62 0-2.88-.45-2.88-2.76v-8.52zm4.49-4.86c1.02 0 1.8-.78 1.8-1.8 0-.99-.78-1.8-1.8-1.8s-1.8.81-1.8 1.8c0 1.02.78 1.8 1.8 1.8zm-1.2 2.7v15.6h2.4v-15.6zm13.6 15.9c4.56 0 7.89-3.6 7.89-8.1s-3.33-8.1-7.89-8.1-7.89 3.6-7.89 8.1 3.33 8.1 7.89 8.1zm0-2.22c-3.3 0-5.37-2.64-5.37-5.88s2.07-5.88 5.37-5.88 5.37 2.64 5.37 5.88-2.07 5.88-5.37 5.88zm11.2-13.68v15.6h2.4v-8.88c0-2.67 1.77-4.74 4.47-4.74 2.16 0 3.63 1.14 3.63 4.65v8.97h2.4v-9.54c0-4.17-2.25-6.36-5.49-6.36-1.56 0-3.72.75-4.95 2.34h-.06v-2.04zm29.06 12.96v-7.35c0-3.51-2.28-5.91-6.27-5.91-3.81 0-6.27 1.89-6.45 4.95h2.52c.09-1.59 1.53-2.91 3.87-2.91 2.31 0 3.93 1.38 3.93 3.6v.96s-3.18.03-5.07.12c-3.45.15-5.52 1.8-5.52 4.62s2.19 4.86 5.52 4.86c1.71 0 3.63-.6 5.04-2.55h.06c0 .66.06 1.65.15 2.25h2.34c-.09-.54-.12-1.62-.12-2.64zm-2.4-4.65v.57c0 3.27-2.43 4.8-4.8 4.8-2.01 0-3.27-.93-3.27-2.55 0-1.59 1.14-2.46 3.42-2.61 1.83-.12 4.65-.21 4.65-.21zm5.98-14.91v22.2h2.4v-22.2zm8.09 3.9c1.02 0 1.8-.78 1.8-1.8 0-.99-.78-1.8-1.8-1.8s-1.8.81-1.8 1.8c0 1.02.78 1.8 1.8 1.8zm-1.2 2.7v15.6h2.4v-15.6zm15.76 2.16v-2.16h-4.35v-5.25l-2.4.9v4.35h-3.6v2.16h3.6v8.34c0 4.02 2.19 5.22 5.04 5.22.63 0 1.26-.12 1.71-.3v-2.28c-.42.18-.99.3-1.47.3-1.62 0-2.88-.45-2.88-2.76v-8.52zm4.49-4.86c1.02 0 1.8-.78 1.8-1.8 0-.99-.78-1.8-1.8-1.8s-1.8.81-1.8 1.8c0 1.02.78 1.8 1.8 1.8zm-1.2 2.7v15.6h2.4v-15.6zm13.36 13.68c-3.15 0-4.8-2.4-5.1-5.13h12.45c0-5.22-2.52-8.79-7.44-8.85-4.53-.06-7.56 3.54-7.56 8.1s3 8.1 7.65 8.1c3.51 0 6.06-1.89 6.81-4.8l-2.52-.36c-.48 1.44-1.86 2.94-4.29 2.94zm-.18-11.76c3 0 4.53 2.61 4.8 4.53h-9.6c.27-1.92 1.8-4.53 4.8-4.53zm22.23 9.51c0-3.15-2.43-3.96-4.83-4.53-2.37-.6-4.74-.78-4.74-2.79 0-1.41 1.44-2.37 3.27-2.37 2.16 0 3.45 1.17 3.54 2.76h2.58c-.24-3.06-2.85-4.8-6.18-4.8-3.21 0-5.67 1.89-5.67 4.56 0 3.15 2.73 3.93 5.28 4.56 2.22.54 4.29.96 4.29 2.76 0 1.5-1.53 2.28-3.42 2.28-2.28 0-3.57-1.08-3.72-2.97h-2.7c.18 3.21 2.67 5.01 6.51 5.01 3.33 0 5.79-1.71 5.79-4.47z"/><path d="m639.41 949h2.58v-19.2h6.81v-2.4h-16.2v2.4h6.81zm18.999-15.9c-1.56 0-3.54.78-4.74 2.34h-.06v-8.64h-2.4v22.2h2.4v-8.88c0-2.67 1.65-4.74 4.35-4.74 2.16 0 3.51 1.11 3.51 4.35v9.27h2.4v-9.84c0-3.9-2.22-6.06-5.46-6.06zm16.543 13.98c-3.15 0-4.8-2.4-5.1-5.13h12.45c0-5.22-2.52-8.79-7.44-8.85-4.53-.06-7.56 3.54-7.56 8.1s3 8.1 7.65 8.1c3.51 0 6.06-1.89 6.81-4.8l-2.52-.36c-.48 1.44-1.86 2.94-4.29 2.94zm-.18-11.76c3 0 4.53 2.61 4.8 4.53h-9.6c.27-1.92 1.8-4.53 4.8-4.53zm21.279-1.92-4.86 12.9h-.06l-4.74-12.9h-2.88l6.24 15.6-2.67 6h2.97l8.76-21.6zm24.465 12.96v-7.35c0-3.51-2.28-5.91-6.27-5.91-3.81 0-6.27 1.89-6.45 4.95h2.52c.09-1.59 1.53-2.91 3.87-2.91 2.31 0 3.93 1.38 3.93 3.6v.96s-3.18.03-5.07.12c-3.45.15-5.52 1.8-5.52 4.62s2.19 4.86 5.52 4.86c1.71 0 3.63-.6 5.04-2.55h.06c0 .66.06 1.65.15 2.25h2.34c-.09-.54-.12-1.62-.12-2.64zm-2.4-4.65v.57c0 3.27-2.43 4.8-4.8 4.8-2.01 0-3.27-.93-3.27-2.55 0-1.59 1.14-2.46 3.42-2.61 1.83-.12 4.65-.21 4.65-.21zm6.423-8.31v15.6h2.4v-8.82c0-2.82 1.23-4.62 4.35-4.62.3 0 .63.03.93.09v-2.34c-.3-.06-.66-.09-1.05-.09-1.86 0-3.48.9-4.17 2.4h-.06v-2.22zm16.858 13.68c-3.15 0-4.8-2.4-5.1-5.13h12.45c0-5.22-2.52-8.79-7.44-8.85-4.53-.06-7.56 3.54-7.56 8.1s3 8.1 7.65 8.1c3.51 0 6.06-1.89 6.81-4.8l-2.52-.36c-.48 1.44-1.86 2.94-4.29 2.94zm-.18-11.76c3 0 4.53 2.61 4.8 4.53h-9.6c.27-1.92 1.8-4.53 4.8-4.53zm24.639 11.76c-3.15 0-4.98-2.58-4.98-5.88s1.83-5.88 4.98-5.88c1.98 0 3.72 1.08 4.38 3.42l2.52-.36c-.99-3.6-3.6-5.28-6.9-5.28-4.65 0-7.5 3.54-7.5 8.1s2.85 8.1 7.5 8.1c3.3 0 5.91-1.68 6.9-5.28l-2.52-.36c-.66 2.34-2.4 3.42-4.38 3.42zm15.527 2.22c1.56 0 3.42-.69 4.65-2.34h.06v2.04h2.4v-15.6h-2.4v8.88c0 2.67-1.74 4.74-4.29 4.74-2.19 0-3.51-1.41-3.51-4.23v-9.39h-2.4v9.54c0 3.84 1.92 6.36 5.49 6.36zm27.921-16.2c-2.07 0-4.05.96-5.25 2.7-.9-1.65-2.46-2.7-4.47-2.7-1.83 0-3.21.69-4.44 2.34h-.06v-2.04h-2.4v15.6h2.4v-8.88c0-2.67 1.68-4.8 4.02-4.8 1.89 0 3.3 1.11 3.3 3.6v10.08h2.4v-8.94c0-2.67 1.68-4.74 4.02-4.74 1.89 0 3.3 1.11 3.3 3.6v10.08h2.4v-10.26c0-3.3-2.13-5.64-5.22-5.64zm9.278 15.9h2.4v-2.4h.06c1.26 1.8 3.21 2.7 5.25 2.7 4.29 0 7.17-3.24 7.17-8.1s-2.88-8.1-7.17-8.1c-2.04 0-3.99.9-5.25 2.7h-.06v-9h-2.4zm7.35-13.62c3 0 5.01 2.34 5.01 5.82s-2.01 5.82-5.01 5.82c-3.33 0-5.01-2.67-5.01-5.82 0-3.12 1.68-5.82 5.01-5.82zm17.887 11.7c-3.15 0-4.8-2.4-5.1-5.13h12.45c0-5.22-2.52-8.79-7.44-8.85-4.53-.06-7.56 3.54-7.56 8.1s3 8.1 7.65 8.1c3.51 0 6.06-1.89 6.81-4.8l-2.52-.36c-.48 1.44-1.86 2.94-4.29 2.94zm-.18-11.76c3 0 4.53 2.61 4.8 4.53h-9.6c.27-1.92 1.8-4.53 4.8-4.53zm10.832-1.92v15.6h2.4v-8.82c0-2.82 1.23-4.62 4.35-4.62.3 0 .63.03.93.09v-2.34c-.3-.06-.66-.09-1.05-.09-1.86 0-3.48.9-4.17 2.4h-.06v-2.22zm22.093 11.43c0-3.15-2.43-3.96-4.83-4.53-2.37-.6-4.74-.78-4.74-2.79 0-1.41 1.44-2.37 3.27-2.37 2.16 0 3.45 1.17 3.54 2.76h2.58c-.24-3.06-2.85-4.8-6.18-4.8-3.21 0-5.67 1.89-5.67 4.56 0 3.15 2.73 3.93 5.28 4.56 2.22.54 4.29.96 4.29 2.76 0 1.5-1.53 2.28-3.42 2.28-2.28 0-3.57-1.08-3.72-2.97h-2.7c.18 3.21 2.67 5.01 6.51 5.01 3.33 0 5.79-1.71 5.79-4.47zm10.297 4.47c4.56 0 7.89-3.6 7.89-8.1s-3.33-8.1-7.89-8.1-7.89 3.6-7.89 8.1 3.33 8.1 7.89 8.1zm0-2.22c-3.3 0-5.37-2.64-5.37-5.88s2.07-5.88 5.37-5.88 5.37 2.64 5.37 5.88-2.07 5.88-5.37 5.88zm27.824-13.98c-2.07 0-4.05.96-5.25 2.7-.9-1.65-2.46-2.7-4.47-2.7-1.83 0-3.21.69-4.44 2.34h-.06v-2.04h-2.4v15.6h2.4v-8.88c0-2.67 1.68-4.8 4.02-4.8 1.89 0 3.3 1.11 3.3 3.6v10.08h2.4v-8.94c0-2.67 1.68-4.74 4.02-4.74 1.89 0 3.3 1.11 3.3 3.6v10.08h2.4v-10.26c0-3.3-2.13-5.64-5.22-5.64zm16.321 13.98c-3.15 0-4.8-2.4-5.1-5.13h12.45c0-5.22-2.52-8.79-7.44-8.85-4.53-.06-7.56 3.54-7.56 8.1s3 8.1 7.65 8.1c3.51 0 6.06-1.89 6.81-4.8l-2.52-.36c-.48 1.44-1.86 2.94-4.29 2.94zm-.18-11.76c3 0 4.53 2.61 4.8 4.53h-9.6c.27-1.92 1.8-4.53 4.8-4.53zm19.54-4.62c1.02 0 1.8-.78 1.8-1.8 0-.99-.78-1.8-1.8-1.8s-1.8.81-1.8 1.8c0 1.02.78 1.8 1.8 1.8zm-1.2 2.7v15.6h2.4v-15.6zm6.907 0v15.6h2.4v-8.88c0-2.67 1.77-4.74 4.47-4.74 2.16 0 3.63 1.14 3.63 4.65v8.97h2.4v-9.54c0-4.17-2.25-6.36-5.49-6.36-1.56 0-3.72.75-4.95 2.34h-.06v-2.04zm35.57 11.43c0-3.15-2.43-3.96-4.83-4.53-2.37-.6-4.74-.78-4.74-2.79 0-1.41 1.44-2.37 3.27-2.37 2.16 0 3.45 1.17 3.54 2.76h2.58c-.24-3.06-2.85-4.8-6.18-4.8-3.21 0-5.67 1.89-5.67 4.56 0 3.15 2.73 3.93 5.28 4.56 2.22.54 4.29.96 4.29 2.76 0 1.5-1.53 2.28-3.42 2.28-2.28 0-3.57-1.08-3.72-2.97h-2.7c.18 3.21 2.67 5.01 6.51 5.01 3.33 0 5.79-1.71 5.79-4.47zm11.017 4.47c4.29 0 7.17-3.24 7.17-8.1s-2.88-8.1-7.17-8.1c-2.04 0-3.99.9-5.25 2.7h-.06v-2.4h-2.4v21.15h2.4v-7.95h.06c1.26 1.8 3.21 2.7 5.25 2.7zm-.36-13.92c3 0 5.01 2.34 5.01 5.82s-2.01 5.82-5.01 5.82c-3.33 0-5.01-2.7-5.01-5.82 0-3.15 1.68-5.82 5.01-5.82zm17.89 11.7c-3.15 0-4.8-2.4-5.1-5.13h12.45c0-5.22-2.52-8.79-7.44-8.85-4.53-.06-7.56 3.54-7.56 8.1s3 8.1 7.65 8.1c3.51 0 6.06-1.89 6.81-4.8l-2.52-.36c-.48 1.44-1.86 2.94-4.29 2.94zm-.18-11.76c3 0 4.53 2.61 4.8 4.53h-9.6c.27-1.92 1.8-4.53 4.8-4.53zm17.87 11.76c-3.15 0-4.8-2.4-5.1-5.13h12.45c0-5.22-2.52-8.79-7.44-8.85-4.53-.06-7.56 3.54-7.56 8.1s3 8.1 7.65 8.1c3.51 0 6.06-1.89 6.81-4.8l-2.52-.36c-.48 1.44-1.86 2.94-4.29 2.94zm-.18-11.76c3 0 4.53 2.61 4.8 4.53h-9.6c.27-1.92 1.8-4.53 4.8-4.53zm25.11-8.52h-2.4v9h-.06c-1.26-1.8-3.21-2.7-5.25-2.7-4.29 0-7.17 3.24-7.17 8.1s2.88 8.1 7.17 8.1c2.04 0 3.99-.9 5.25-2.7h.06v2.4h2.4zm-7.35 8.58c3.33 0 5.01 2.7 5.01 5.82 0 3.15-1.68 5.82-5.01 5.82-3 0-5.01-2.34-5.01-5.82s2.01-5.82 5.01-5.82zm30.86 10.98v-7.35c0-3.51-2.28-5.91-6.27-5.91-3.81 0-6.27 1.89-6.45 4.95h2.52c.09-1.59 1.53-2.91 3.87-2.91 2.31 0 3.93 1.38 3.93 3.6v.96s-3.18.03-5.07.12c-3.45.15-5.52 1.8-5.52 4.62s2.19 4.86 5.52 4.86c1.71 0 3.63-.6 5.04-2.55h.06c0 .66.06 1.65.15 2.25h2.34c-.09-.54-.12-1.62-.12-2.64zm-2.4-4.65v.57c0 3.27-2.43 4.8-4.8 4.8-2.01 0-3.27-.93-3.27-2.55 0-1.59 1.14-2.46 3.42-2.61 1.83-.12 4.65-.21 4.65-.21zm6.42-8.31v15.6h2.4v-8.88c0-2.67 1.77-4.74 4.47-4.74 2.16 0 3.63 1.14 3.63 4.65v8.97h2.4v-9.54c0-4.17-2.25-6.36-5.49-6.36-1.56 0-3.72.75-4.95 2.34h-.06v-2.04zm31.24-6.6h-2.4v9h-.06c-1.26-1.8-3.21-2.7-5.25-2.7-4.29 0-7.17 3.24-7.17 8.1s2.88 8.1 7.17 8.1c2.04 0 3.99-.9 5.25-2.7h.06v2.4h2.4zm-7.35 8.58c3.33 0 5.01 2.7 5.01 5.82 0 3.15-1.68 5.82-5.01 5.82-3 0-5.01-2.34-5.01-5.82s2.01-5.82 5.01-5.82zm20.27-4.68c1.02 0 1.8-.78 1.8-1.8 0-.99-.78-1.8-1.8-1.8s-1.8.81-1.8 1.8c0 1.02.78 1.8 1.8 1.8zm-1.2 2.7v15.6h2.4v-15.6zm6.9 0v15.6h2.4v-8.88c0-2.67 1.77-4.74 4.47-4.74 2.16 0 3.63 1.14 3.63 4.65v8.97h2.4v-9.54c0-4.17-2.25-6.36-5.49-6.36-1.56 0-3.72.75-4.95 2.34h-.06v-2.04zm25.23 2.16v-2.16h-4.35v-5.25l-2.4.9v4.35h-3.6v2.16h3.6v8.34c0 4.02 2.19 5.22 5.04 5.22.63 0 1.26-.12 1.71-.3v-2.28c-.42.18-.99.3-1.47.3-1.62 0-2.88-.45-2.88-2.76v-8.52zm9.74 11.52c-3.15 0-4.8-2.4-5.1-5.13h12.45c0-5.22-2.52-8.79-7.44-8.85-4.53-.06-7.56 3.54-7.56 8.1s3 8.1 7.65 8.1c3.51 0 6.06-1.89 6.81-4.8l-2.52-.36c-.48 1.44-1.86 2.94-4.29 2.94zm-.18-11.76c3 0 4.53 2.61 4.8 4.53h-9.6c.27-1.92 1.8-4.53 4.8-4.53zm10.83-1.92v15.6h2.4v-8.82c0-2.82 1.23-4.62 4.35-4.62.3 0 .63.03.93.09v-2.34c-.3-.06-.66-.09-1.05-.09-1.86 0-3.48.9-4.17 2.4h-.06v-2.22zm22.34 12.96v-7.35c0-3.51-2.28-5.91-6.27-5.91-3.81 0-6.27 1.89-6.45 4.95h2.52c.09-1.59 1.53-2.91 3.87-2.91 2.31 0 3.93 1.38 3.93 3.6v.96s-3.18.03-5.07.12c-3.45.15-5.52 1.8-5.52 4.62s2.19 4.86 5.52 4.86c1.71 0 3.63-.6 5.04-2.55h.06c0 .66.06 1.65.15 2.25h2.34c-.09-.54-.12-1.62-.12-2.64zm-2.4-4.65v.57c0 3.27-2.43 4.8-4.8 4.8-2.01 0-3.27-.93-3.27-2.55 0-1.59 1.14-2.46 3.42-2.61 1.83-.12 4.65-.21 4.65-.21zm13.03 5.37c-3.15 0-4.98-2.58-4.98-5.88s1.83-5.88 4.98-5.88c1.98 0 3.72 1.08 4.38 3.42l2.52-.36c-.99-3.6-3.6-5.28-6.9-5.28-4.65 0-7.5 3.54-7.5 8.1s2.85 8.1 7.5 8.1c3.3 0 5.91-1.68 6.9-5.28l-2.52-.36c-.66 2.34-2.4 3.42-4.38 3.42zm18.74-11.52v-2.16h-4.35v-5.25l-2.4.9v4.35h-3.6v2.16h3.6v8.34c0 4.02 2.19 5.22 5.04 5.22.63 0 1.26-.12 1.71-.3v-2.28c-.42.18-.99.3-1.47.3-1.62 0-2.88-.45-2.88-2.76v-8.52zm4.49-4.86c1.02 0 1.8-.78 1.8-1.8 0-.99-.78-1.8-1.8-1.8s-1.8.81-1.8 1.8c0 1.02.78 1.8 1.8 1.8zm-1.2 2.7v15.6h2.4v-15.6zm13.6 15.9c4.56 0 7.89-3.6 7.89-8.1s-3.33-8.1-7.89-8.1-7.89 3.6-7.89 8.1 3.33 8.1 7.89 8.1zm0-2.22c-3.3 0-5.37-2.64-5.37-5.88s2.07-5.88 5.37-5.88 5.37 2.64 5.37 5.88-2.07 5.88-5.37 5.88zm11.2-13.68v15.6h2.4v-8.88c0-2.67 1.77-4.74 4.47-4.74 2.16 0 3.63 1.14 3.63 4.65v8.97h2.4v-9.54c0-4.17-2.25-6.36-5.49-6.36-1.56 0-3.72.75-4.95 2.34h-.06v-2.04zm28.37 11.43c0-3.15-2.43-3.96-4.83-4.53-2.37-.6-4.74-.78-4.74-2.79 0-1.41 1.44-2.37 3.27-2.37 2.16 0 3.45 1.17 3.54 2.76h2.58c-.24-3.06-2.85-4.8-6.18-4.8-3.21 0-5.67 1.89-5.67 4.56 0 3.15 2.73 3.93 5.28 4.56 2.22.54 4.29.96 4.29 2.76 0 1.5-1.53 2.28-3.42 2.28-2.28 0-3.57-1.08-3.72-2.97h-2.7c.18 3.21 2.67 5.01 6.51 5.01 3.33 0 5.79-1.71 5.79-4.47z"/><path d="m639.41 1010h2.58v-19.2h6.81v-2.4h-16.2v2.4h6.81zm18.999-15.9c-1.56 0-3.54.78-4.74 2.34h-.06v-8.64h-2.4v22.2h2.4v-8.88c0-2.67 1.65-4.74 4.35-4.74 2.16 0 3.51 1.11 3.51 4.35v9.27h2.4v-9.84c0-3.9-2.22-6.06-5.46-6.06zm16.543 13.98c-3.15 0-4.8-2.4-5.1-5.13h12.45c0-5.22-2.52-8.79-7.44-8.85-4.53-.06-7.56 3.54-7.56 8.1s3 8.1 7.65 8.1c3.51 0 6.06-1.89 6.81-4.8l-2.52-.36c-.48 1.44-1.86 2.94-4.29 2.94zm-.18-11.76c3 0 4.53 2.61 4.8 4.53h-9.6c.27-1.92 1.8-4.53 4.8-4.53zm21.279-1.92-4.86 12.9h-.06l-4.74-12.9h-2.88l6.24 15.6-2.67 6h2.97l8.76-21.6zm24.465 12.96v-7.35c0-3.51-2.28-5.91-6.27-5.91-3.81 0-6.27 1.89-6.45 4.95h2.52c.09-1.59 1.53-2.91 3.87-2.91 2.31 0 3.93 1.38 3.93 3.6v.96s-3.18.03-5.07.12c-3.45.15-5.52 1.8-5.52 4.62s2.19 4.86 5.52 4.86c1.71 0 3.63-.6 5.04-2.55h.06c0 .66.06 1.65.15 2.25h2.34c-.09-.54-.12-1.62-.12-2.64zm-2.4-4.65v.57c0 3.27-2.43 4.8-4.8 4.8-2.01 0-3.27-.93-3.27-2.55 0-1.59 1.14-2.46 3.42-2.61 1.83-.12 4.65-.21 4.65-.21zm6.423-8.31v15.6h2.4v-8.82c0-2.82 1.23-4.62 4.35-4.62.3 0 .63.03.93.09v-2.34c-.3-.06-.66-.09-1.05-.09-1.86 0-3.48.9-4.17 2.4h-.06v-2.22zm16.858 13.68c-3.15 0-4.8-2.4-5.1-5.13h12.45c0-5.22-2.52-8.79-7.44-8.85-4.53-.06-7.56 3.54-7.56 8.1s3 8.1 7.65 8.1c3.51 0 6.06-1.89 6.81-4.8l-2.52-.36c-.48 1.44-1.86 2.94-4.29 2.94zm-.18-11.76c3 0 4.53 2.61 4.8 4.53h-9.6c.27-1.92 1.8-4.53 4.8-4.53zm18.039-1.92v15.6h2.4v-8.88c0-2.67 1.77-4.74 4.47-4.74 2.16 0 3.63 1.14 3.63 4.65v8.97h2.4v-9.54c0-4.17-2.25-6.36-5.49-6.36-1.56 0-3.72.75-4.95 2.34h-.06v-2.04zm24.246 15.9c4.56 0 7.89-3.6 7.89-8.1s-3.33-8.1-7.89-8.1-7.89 3.6-7.89 8.1 3.33 8.1 7.89 8.1zm0-2.22c-3.3 0-5.37-2.64-5.37-5.88s2.07-5.88 5.37-5.88 5.37 2.64 5.37 5.88-2.07 5.88-5.37 5.88zm19.145-11.52v-2.16h-4.35v-5.25l-2.4.9v4.35h-3.6v2.16h3.6v8.34c0 4.02 2.19 5.22 5.04 5.22.63 0 1.26-.12 1.71-.3v-2.28c-.42.18-.99.3-1.47.3-1.62 0-2.88-.45-2.88-2.76v-8.52zm26.813-2.46c-2.07 0-4.05.96-5.25 2.7-.9-1.65-2.46-2.7-4.47-2.7-1.83 0-3.21.69-4.44 2.34h-.06v-2.04h-2.4v15.6h2.4v-8.88c0-2.67 1.68-4.8 4.02-4.8 1.89 0 3.3 1.11 3.3 3.6v10.08h2.4v-8.94c0-2.67 1.68-4.74 4.02-4.74 1.89 0 3.3 1.11 3.3 3.6v10.08h2.4v-10.26c0-3.3-2.13-5.64-5.22-5.64zm21.369 13.26v-7.35c0-3.51-2.28-5.91-6.27-5.91-3.81 0-6.27 1.89-6.45 4.95h2.52c.09-1.59 1.53-2.91 3.87-2.91 2.31 0 3.93 1.38 3.93 3.6v.96s-3.18.03-5.07.12c-3.45.15-5.52 1.8-5.52 4.62s2.19 4.86 5.52 4.86c1.71 0 3.63-.6 5.04-2.55h.06c0 .66.06 1.65.15 2.25h2.34c-.09-.54-.12-1.62-.12-2.64zm-2.4-4.65v.57c0 3.27-2.43 4.8-4.8 4.8-2.01 0-3.27-.93-3.27-2.55 0-1.59 1.14-2.46 3.42-2.61 1.83-.12 4.65-.21 4.65-.21zm6.423-8.31v15.6h2.4v-8.88c0-2.67 1.77-4.74 4.47-4.74 2.16 0 3.63 1.14 3.63 4.65v8.97h2.4v-9.54c0-4.17-2.25-6.36-5.49-6.36-1.56 0-3.72.75-4.95 2.34h-.06v-2.04zm25.227 2.16v-2.16h-4.35v-5.25l-2.4.9v4.35h-3.6v2.16h3.6v8.34c0 4.02 2.19 5.22 5.04 5.22.63 0 1.26-.12 1.71-.3v-2.28c-.42.18-.99.3-1.47.3-1.62 0-2.88-.45-2.88-2.76v-8.52zm9.736 11.52c-3.15 0-4.8-2.4-5.1-5.13h12.45c0-5.22-2.52-8.79-7.44-8.85-4.53-.06-7.56 3.54-7.56 8.1s3 8.1 7.65 8.1c3.51 0 6.06-1.89 6.81-4.8l-2.52-.36c-.48 1.44-1.86 2.94-4.29 2.94zm-.18-11.76c3 0 4.53 2.61 4.8 4.53h-9.6c.27-1.92 1.8-4.53 4.8-4.53zm12.332-4.62c1.02 0 1.8-.78 1.8-1.8 0-.99-.78-1.8-1.8-1.8s-1.8.81-1.8 1.8c0 1.02.78 1.8 1.8 1.8zm-1.2 2.7v15.6h2.4v-15.6zm6.907 0v15.6h2.4v-8.88c0-2.67 1.77-4.74 4.47-4.74 2.16 0 3.63 1.14 3.63 4.65v8.97h2.4v-9.54c0-4.17-2.25-6.36-5.49-6.36-1.56 0-3.72.75-4.95 2.34h-.06v-2.04zm24.006 13.68c-3.15 0-4.8-2.4-5.1-5.13h12.45c0-5.22-2.52-8.79-7.44-8.85-4.53-.06-7.56 3.54-7.56 8.1s3 8.1 7.65 8.1c3.51 0 6.06-1.89 6.81-4.8l-2.52-.36c-.48 1.44-1.86 2.94-4.29 2.94zm-.18-11.76c3 0 4.53 2.61 4.8 4.53h-9.6c.27-1.92 1.8-4.53 4.8-4.53zm25.105-8.52h-2.4v9h-.06c-1.26-1.8-3.21-2.7-5.25-2.7-4.29 0-7.17 3.24-7.17 8.1s2.88 8.1 7.17 8.1c2.04 0 3.99-.9 5.25-2.7h.06v2.4h2.4zm-7.35 8.58c3.33 0 5.01 2.7 5.01 5.82 0 3.15-1.68 5.82-5.01 5.82-3 0-5.01-2.34-5.01-5.82s2.01-5.82 5.01-5.82z"/><path d="m641.12 1049.4h-7.02v21.6h7.02c6.45 0 10.38-4.83 10.38-10.8s-3.93-10.8-10.38-10.8zm-.15 19.2h-4.29v-16.8h4.29c5.13 0 7.89 3.75 7.89 8.4s-2.76 8.4-7.89 8.4zm21.272 2.7c4.56 0 7.89-3.6 7.89-8.1s-3.33-8.1-7.89-8.1-7.89 3.6-7.89 8.1 3.33 8.1 7.89 8.1zm0-2.22c-3.3 0-5.37-2.64-5.37-5.88s2.07-5.88 5.37-5.88 5.37 2.64 5.37 5.88-2.07 5.88-5.37 5.88zm11.204-13.68v15.6h2.4v-8.88c0-2.67 1.77-4.74 4.47-4.74 2.16 0 3.63 1.14 3.63 4.65v8.97h2.4v-9.54c0-4.17-2.25-6.36-5.49-6.36-1.56 0-3.72.75-4.95 2.34h-.06v-2.04zm25.227 2.16v-2.16h-4.35v-5.25l-2.4.9v4.35h-3.6v2.16h3.6v8.34c0 4.02 2.19 5.22 5.04 5.22.63 0 1.26-.12 1.71-.3v-2.28c-.42.18-.99.3-1.47.3-1.62 0-2.88-.45-2.88-2.76v-8.52zm17.183 13.74c4.56 0 7.89-3.6 7.89-8.1s-3.33-8.1-7.89-8.1-7.89 3.6-7.89 8.1 3.33 8.1 7.89 8.1zm0-2.22c-3.3 0-5.37-2.64-5.37-5.88s2.07-5.88 5.37-5.88 5.37 2.64 5.37 5.88-2.07 5.88-5.37 5.88zm26.683-18.36c.48 0 1.05.12 1.47.3v-2.22c-.45-.18-1.11-.3-1.71-.3-2.85 0-5.04 1.38-5.04 5.4v1.5h-6.3v-1.74c0-2.31 1.26-2.94 2.88-2.94.48 0 1.05.12 1.47.3v-2.22c-.45-.18-1.11-.3-1.71-.3-2.85 0-5.04 1.38-5.04 5.4v1.5h-3v2.16h3v13.44h2.4v-13.44h6.3v13.44h2.4v-13.44h4.35v-2.16h-4.35v-1.74c0-2.31 1.26-2.94 2.88-2.94zm10.489 18.36c-3.15 0-4.8-2.4-5.1-5.13h12.45c0-5.22-2.52-8.79-7.44-8.85-4.53-.06-7.56 3.54-7.56 8.1s3 8.1 7.65 8.1c3.51 0 6.06-1.89 6.81-4.8l-2.52-.36c-.48 1.44-1.86 2.94-4.29 2.94zm-.18-11.76c3 0 4.53 2.61 4.8 4.53h-9.6c.27-1.92 1.8-4.53 4.8-4.53zm10.832-1.92v15.6h2.4v-8.82c0-2.82 1.23-4.62 4.35-4.62.3 0 .63.03.93.09v-2.34c-.3-.06-.66-.09-1.05-.09-1.86 0-3.48.9-4.17 2.4h-.06v-2.22zm29.99 12.96v-7.35c0-3.51-2.28-5.91-6.27-5.91-3.81 0-6.27 1.89-6.45 4.95h2.52c.09-1.59 1.53-2.91 3.87-2.91 2.31 0 3.93 1.38 3.93 3.6v.96s-3.18.03-5.07.12c-3.45.15-5.52 1.8-5.52 4.62s2.19 4.86 5.52 4.86c1.71 0 3.63-.6 5.04-2.55h.06c0 .66.06 1.65.15 2.25h2.34c-.09-.54-.12-1.62-.12-2.64zm-2.4-4.65v.57c0 3.27-2.43 4.8-4.8 4.8-2.01 0-3.27-.93-3.27-2.55 0-1.59 1.14-2.46 3.42-2.61 1.83-.12 4.65-.21 4.65-.21zm6.424-8.31v15.6h2.4v-8.88c0-2.67 1.77-4.74 4.47-4.74 2.16 0 3.63 1.14 3.63 4.65v8.97h2.4v-9.54c0-4.17-2.25-6.36-5.49-6.36-1.56 0-3.72.75-4.95 2.34h-.06v-2.04zm27.263 0-4.86 12.9h-.06l-4.74-12.9h-2.88l6.24 15.6-2.67 6h2.97l8.76-21.6zm24.705 0h-3.48l-6.39 6.6h-.06v-13.2h-2.4v22.2h2.4v-7.56h.06l6.84 7.56h3.54l-7.89-8.34zm4.405-2.7c1.02 0 1.8-.78 1.8-1.8 0-.99-.78-1.8-1.8-1.8s-1.8.81-1.8 1.8c0 1.02.78 1.8 1.8 1.8zm-1.2 2.7v15.6h2.4v-15.6zm6.907 0v15.6h2.4v-8.88c0-2.67 1.77-4.74 4.47-4.74 2.16 0 3.63 1.14 3.63 4.65v8.97h2.4v-9.54c0-4.17-2.25-6.36-5.49-6.36-1.56 0-3.72.75-4.95 2.34h-.06v-2.04zm31.236-6.6h-2.4v9h-.06c-1.26-1.8-3.21-2.7-5.25-2.7-4.29 0-7.17 3.24-7.17 8.1s2.88 8.1 7.17 8.1c2.04 0 3.99-.9 5.25-2.7h.06v2.4h2.4zm-7.35 8.58c3.33 0 5.01 2.7 5.01 5.82 0 3.15-1.68 5.82-5.01 5.82-3 0-5.01-2.34-5.01-5.82s2.01-5.82 5.01-5.82zm25.76 13.92c4.56 0 7.89-3.6 7.89-8.1s-3.33-8.1-7.89-8.1-7.89 3.6-7.89 8.1 3.33 8.1 7.89 8.1zm0-2.22c-3.3 0-5.37-2.64-5.37-5.88s2.07-5.88 5.37-5.88 5.37 2.64 5.37 5.88-2.07 5.88-5.37 5.88zm9.703-11.52h3v13.44h2.4v-13.44h4.35v-2.16h-4.35v-1.74c0-2.37 1.26-2.88 2.88-2.88.48 0 1.05.12 1.47.3v-2.28c-.45-.18-1.11-.3-1.71-.3-2.85 0-5.04 1.32-5.04 5.4v1.5h-3zm26.265 11.52c-3.15 0-4.98-2.58-4.98-5.88s1.83-5.88 4.98-5.88c1.98 0 3.72 1.08 4.38 3.42l2.52-.36c-.99-3.6-3.6-5.28-6.9-5.28-4.65 0-7.5 3.54-7.5 8.1s2.85 8.1 7.5 8.1c3.3 0 5.91-1.68 6.9-5.28l-2.52-.36c-.66 2.34-2.4 3.42-4.38 3.42zm15.527 2.22c1.56 0 3.42-.69 4.65-2.34h.06v2.04h2.4v-15.6h-2.4v8.88c0 2.67-1.74 4.74-4.29 4.74-2.19 0-3.51-1.41-3.51-4.23v-9.39h-2.4v9.54c0 3.84 1.92 6.36 5.49 6.36zm22.7-4.47c0-3.15-2.43-3.96-4.83-4.53-2.37-.6-4.74-.78-4.74-2.79 0-1.41 1.44-2.37 3.27-2.37 2.16 0 3.45 1.17 3.54 2.76h2.58c-.24-3.06-2.85-4.8-6.18-4.8-3.21 0-5.67 1.89-5.67 4.56 0 3.15 2.73 3.93 5.28 4.56 2.22.54 4.29.96 4.29 2.76 0 1.5-1.53 2.28-3.42 2.28-2.28 0-3.57-1.08-3.72-2.97h-2.7c.18 3.21 2.67 5.01 6.51 5.01 3.33 0 5.79-1.71 5.79-4.47zm11.864-9.27v-2.16h-4.35v-5.25l-2.4.9v4.35h-3.6v2.16h3.6v8.34c0 4.02 2.19 5.22 5.04 5.22.63 0 1.26-.12 1.71-.3v-2.28c-.42.18-.99.3-1.47.3-1.62 0-2.88-.45-2.88-2.76v-8.52zm9.981 13.74c4.56 0 7.89-3.6 7.89-8.1s-3.33-8.1-7.89-8.1-7.895 3.6-7.895 8.1 3.335 8.1 7.895 8.1zm0-2.22c-3.3 0-5.37-2.64-5.37-5.88s2.07-5.88 5.37-5.88 5.37 2.64 5.37 5.88-2.07 5.88-5.37 5.88zm27.82-13.98c-2.07 0-4.05.96-5.25 2.7-.9-1.65-2.46-2.7-4.47-2.7-1.83 0-3.21.69-4.44 2.34h-.06v-2.04h-2.4v15.6h2.4v-8.88c0-2.67 1.68-4.8 4.02-4.8 1.89 0 3.3 1.11 3.3 3.6v10.08h2.4v-8.94c0-2.67 1.68-4.74 4.02-4.74 1.89 0 3.3 1.11 3.3 3.6v10.08h2.4v-10.26c0-3.3-2.13-5.64-5.22-5.64zm10.78-2.4c1.02 0 1.8-.78 1.8-1.8 0-.99-.78-1.8-1.8-1.8s-1.8.81-1.8 1.8c0 1.02.78 1.8 1.8 1.8zm-1.2 2.7v15.6h2.4v-15.6zm17.85 2.28v-2.28h-11.64v2.28h8.46l-9.12 11.04v2.28h12.3v-2.28h-9.12zm15.09 10.68v-7.35c0-3.51-2.28-5.91-6.27-5.91-3.81 0-6.27 1.89-6.45 4.95h2.52c.09-1.59 1.53-2.91 3.87-2.91 2.31 0 3.93 1.38 3.93 3.6v.96s-3.18.03-5.07.12c-3.45.15-5.52 1.8-5.52 4.62s2.19 4.86 5.52 4.86c1.71 0 3.63-.6 5.04-2.55h.06c0 .66.06 1.65.15 2.25h2.34c-.09-.54-.12-1.62-.12-2.64zm-2.4-4.65v.57c0 3.27-2.43 4.8-4.8 4.8-2.01 0-3.27-.93-3.27-2.55 0-1.59 1.14-2.46 3.42-2.61 1.83-.12 4.65-.21 4.65-.21zm14.69-6.15v-2.16h-4.35v-5.25l-2.4.9v4.35h-3.6v2.16h3.6v8.34c0 4.02 2.19 5.22 5.04 5.22.63 0 1.26-.12 1.71-.3v-2.28c-.42.18-.99.3-1.47.3-1.62 0-2.88-.45-2.88-2.76v-8.52zm4.48-4.86c1.02 0 1.8-.78 1.8-1.8 0-.99-.78-1.8-1.8-1.8s-1.8.81-1.8 1.8c0 1.02.78 1.8 1.8 1.8zm-1.2 2.7v15.6h2.4v-15.6zm13.61 15.9c4.56 0 7.89-3.6 7.89-8.1s-3.33-8.1-7.89-8.1-7.89 3.6-7.89 8.1 3.33 8.1 7.89 8.1zm0-2.22c-3.3 0-5.37-2.64-5.37-5.88s2.07-5.88 5.37-5.88 5.37 2.64 5.37 5.88-2.07 5.88-5.37 5.88zm11.2-13.68v15.6h2.4v-8.88c0-2.67 1.77-4.74 4.47-4.74 2.16 0 3.63 1.14 3.63 4.65v8.97h2.4v-9.54c0-4.17-2.25-6.36-5.49-6.36-1.56 0-3.72.75-4.95 2.34h-.06v-2.04z"/></g><circle cx="593" cy="877" fill="#5600af" r="8"/><circle cx="593" cy="938" fill="#5600af" r="8"/><circle cx="593" cy="999" fill="#5600af" r="8"/><circle cx="593" cy="1060" fill="#5600af" r="8"/><path d="m274 173.5h245" stroke="#000"/><path d="m307 480.5h212" stroke="#000"/><path d="m383 788.5h136" stroke="#000"/></svg>