<svg fill="none" height="32" viewBox="0 0 32 32" width="32" xmlns="http://www.w3.org/2000/svg"><rect fill="#f8f8f8" height="32" rx="4" width="32"/><path d="m16.3 16.22c.5336-.4619.9616-1.0331 1.2549-1.675.2933-.6418.4451-1.3393.4451-2.045 0-1.3261-.5268-2.59785-1.4645-3.53553-.9376-.93769-2.2094-1.46447-3.5355-1.46447s-2.5979.52678-3.53553 1.46447c-.93769.93768-1.46447 2.20943-1.46447 3.53553-.00001.7057.1518 1.4032.44513 2.045.29332.6419.72129 1.2131 1.25487 1.675-1.39986.6339-2.58753 1.6575-3.42102 2.9485-.83348 1.2911-1.27751 2.7948-1.27898 4.3315 0 .2652.10536.5196.29289.7071.18754.1875.44189.2929.70711.2929s.51957-.1054.70711-.2929c.18753-.1875.29289-.4419.29289-.7071 0-1.5913.63214-3.1174 1.75736-4.2426 1.12522-1.1253 2.65134-1.7574 4.24264-1.7574s3.1174.6321 4.2426 1.7574c1.1253 1.1252 1.7574 2.6513 1.7574 4.2426 0 .2652.1054.5196.2929.7071s.4419.2929.7071.2929.5196-.1054.7071-.2929.2929-.4419.2929-.7071c-.0015-1.5367-.4455-3.0404-1.279-4.3315-.8335-1.291-2.0211-2.3146-3.421-2.9485zm-3.3-.72c-.5933 0-1.1734-.1759-1.6667-.5056-.4934-.3296-.8779-.7982-1.1049-1.3463-.2271-.5482-.28651-1.1514-.1708-1.7334.1158-.5819.4015-1.1165.8211-1.536.4195-.41958.9541-.7053 1.536-.82106.582-.11575 1.1852-.05634 1.7334.17072.5481.22706 1.0167.61154 1.3463 1.10494.3297.4933.5056 1.0734.5056 1.6667 0 .7956-.3161 1.5587-.8787 2.1213s-1.3257.8787-2.1213.8787zm9.74.32c.64-.7207 1.058-1.6109 1.2038-2.5637.1458-.9527.0131-1.9272-.382-2.8063-.3952-.87907-1.036-1.6252-1.8453-2.14858-.8094-.52337-1.7527-.80168-2.7165-.80142-.2652 0-.5196.10536-.7071.29289-.1875.18754-.2929.44189-.2929.70711s.1054.51957.2929.70711c.1875.18753.4419.29289.7071.29289.7956 0 1.5587.31607 2.1213.8787.5626.5626.8787 1.3257.8787 2.1213-.0014.5252-.1407 1.0409-.4039 1.4954-.2633.4545-.6412.832-1.0961 1.0946-.1483.0855-.2721.2077-.3596.3547-.0876.1471-.1359.3142-.1404.4853-.0042.1698.0349.3378.1137.4883.0787.1504.1944.2784.3363.3717l.39.26.13.07c1.2054.5717 2.2223 1.476 2.931 2.6063.7086 1.1303 1.0795 2.4396 1.069 3.7737 0 .2652.1054.5196.2929.7071s.4419.2929.7071.2929.5196-.1054.7071-.2929.2929-.4419.2929-.7071c.0082-1.5346-.3762-3.0457-1.1165-4.3899-.7404-1.3442-1.8122-2.4768-3.1135-3.2901z" fill="#262626"/></svg>