<svg fill="none" height="32" viewBox="0 0 32 32" width="32" xmlns="http://www.w3.org/2000/svg"><rect fill="#f8f8f8" height="32" rx="4" width="32"/><path d="m25.71 24.29-6.3-6.29h1.59c.2652 0 .5196-.1054.7071-.2929s.2929-.4419.2929-.7071-.1054-.5196-.2929-.7071-.4419-.2929-.7071-.2929h-3.59l5.66-5.66c.1047-.0896.1897-.2.2497-.324.0601-.12409.0938-.25923.0991-.39694.0053-.13772-.0179-.27506-.0682-.40338-.0502-.12833-.1265-.24487-.2239-.34233-.0975-.09745-.2141-.17371-.3424-.22399-.1283-.05027-.2656-.07348-.4034-.06816-.1377.00532-.2728.03905-.3969.09908-.124.06002-.2344.14504-.324.24972l-5.66 5.66v-3.59c0-.2652-.1054-.5196-.2929-.7071s-.4419-.2929-.7071-.2929-.5196.1054-.7071.2929-.2929.4419-.2929.7071v1.59l-6.29-6.3c-.09324-.09324-.20393-.1672-.32575-.21766s-.25239-.07643-.38425-.07643-.26242.02597-.38425.07643c-.12182.05046-.23251.12442-.32575.21766-.1883.18831-.29409.4437-.29409.71s.10579.5217.29409.71l6.3 6.29h-1.59c-.2652 0-.5196.1054-.7071.2929s-.2929.4419-.2929.7071.1054.5196.2929.7071.4419.2929.7071.2929h3.59l-5.66 5.66c-.18625.1874-.29079.4408-.29079.705s.10454.5176.29079.705c.18736.1863.44082.2908.705.2908.26419 0 .5176-.1045.705-.2908l5.66-5.66v3.59c0 .2652.1054.5196.2929.7071s.4419.2929.7071.2929.5196-.1054.7071-.2929.2929-.4419.2929-.7071v-1.59l6.29 6.3c.093.0937.2036.1681.3254.2189.1219.0508.2526.0769.3846.0769s.2627-.0261.3846-.0769c.1218-.0508.2324-.1252.3254-.2189.0937-.093.1681-.2036.2189-.3254.0508-.1219.0769-.2526.0769-.3846s-.0261-.2627-.0769-.3846c-.0508-.1218-.1252-.2324-.2189-.3254z" fill="#262626"/></svg>