<svg fill="none" height="32" viewBox="0 0 32 32" width="32" xmlns="http://www.w3.org/2000/svg"><rect fill="#f8f8f8" height="32" rx="4" width="32"/><path d="m24.16 8.61c-1.0617-1.062-2.4693-1.70768-3.9668-1.81962-1.4975-.11195-2.9854.31728-4.1932 1.20962-1.2724-.94637-2.856-1.37549-4.4321-1.20097-1.57608.17453-3.02749.93974-4.06196 2.14155-1.03446 1.20182-1.57515 2.75092-1.51317 4.33542s.72202 3.0867 1.8472 4.204l7.45003 7.45c.0929.0937.2035.1681.3254.2189s.2526.0769.3846.0769.2627-.0261.3845-.0769c.1219-.0508.2325-.1252.3255-.2189l7.45-7.45c.5826-.5823 1.0448-1.2737 1.3602-2.0346.3153-.761.4777-1.5767.4777-2.4004s-.1624-1.6394-.4777-2.4004c-.3154-.76095-.7776-1.45233-1.3602-2.0346zm-1.41 7.46-6.75 6.74-6.75003-6.74c-.59483-.5973-1.00003-1.357-1.16477-2.1837-.16475-.8267-.0817-1.6836.23872-2.4633s.86395-1.44741 1.5624-1.91938c.69848-.47197 1.52068-.72718 2.36368-.73362 1.1261.00276 2.2051.45233 3 1.25.0929.0937.2035.1681.3254.2189s.2526.0769.3846.0769.2627-.0261.3845-.0769c.1219-.0508.2325-.1252.3255-.2189.8183-.70912 1.8755-1.08086 2.9575-1.03998 1.0821.04088 2.1082.49132 2.8707 1.26018.7624.7688 1.2044 1.7986 1.2363 2.881.0319 1.0823-.3486 2.1364-1.0645 2.9488z" fill="#262626"/></svg>