<svg fill="none" height="32" viewBox="0 0 32 32" width="32" xmlns="http://www.w3.org/2000/svg"><rect fill="#f8f8f8" height="32" rx="4" width="32"/><path d="m13 13c-.1978 0-.3911.0586-.5556.1685-.1644.1099-.2926.2661-.3683.4488s-.0955.3838-.0569.5778.1338.3722.2737.512c.1399.1399.318.2351.512.2737s.3951.0188.5778-.0569.3389-.2039.4488-.3683c.1099-.1645.1685-.3578.1685-.5556 0-.2652-.1054-.5196-.2929-.7071s-.4419-.2929-.7071-.2929zm6 4c-.8914 0-1.7665.2382-2.5349.6901-.7683.4518-1.4019 1.1009-1.8351 1.8799-.1304.2296-.1646.5015-.0953.7563.0693.2547.2366.4718.4653.6037.1495.0847.3182.1295.49.13.1772-.0003.3511-.0477.504-.1373s.2792-.2182.366-.3727c.2604-.4716.6429-.8644 1.1074-1.1371s.9939-.4154 1.5326-.4129c.2652 0 .5196-.1054.7071-.2929s.2929-.4419.2929-.7071-.1054-.5196-.2929-.7071-.4419-.2929-.7071-.2929zm0-4c-.1978 0-.3911.0586-.5556.1685-.1644.1099-.2926.2661-.3683.4488s-.0955.3838-.0569.5778.1338.3722.2737.512c.1399.1399.318.2351.512.2737s.3951.0188.5778-.0569.3389-.2039.4488-.3683c.1099-.1645.1685-.3578.1685-.5556 0-.2652-.1054-.5196-.2929-.7071s-.4419-.2929-.7071-.2929zm-3-7c-1.9778 0-3.9112.58649-5.5557 1.6853-1.64449 1.09882-2.92621 2.6606-3.68309 4.4879-.75688 1.8272-.95491 3.8379-.56906 5.7777s1.33826 3.7216 2.73679 5.1202c1.39856 1.3985 3.18036 2.3509 5.12016 2.7368 1.9398.3858 3.9505.1878 5.7777-.5691 1.8273-.7569 3.3891-2.0386 4.4879-3.6831s1.6853-3.5779 1.6853-5.5557c0-1.3132-.2587-2.6136-.7612-3.8268-.5025-1.2133-1.2391-2.31568-2.1677-3.24427-.9286-.92858-2.031-1.66518-3.2443-2.16773-1.2132-.50254-2.5136-.7612-3.8268-.7612zm0 18c-1.5822 0-3.129-.4692-4.4446-1.3482-1.3156-.8791-2.34093-2.1285-2.94643-3.5903s-.76393-3.0704-.45525-4.6222c.30868-1.5519 1.07061-2.9773 2.18948-4.0962 1.1188-1.11877 2.5442-1.8807 4.0961-2.18938 1.5518-.30868 3.1604-.15026 4.6222.45524 1.4618.60551 2.7112 1.63084 3.5903 2.94644.879 1.3156 1.3482 2.8623 1.3482 4.4446 0 2.1217-.8428 4.1566-2.3431 5.6569-1.5003 1.5002-3.5352 2.3431-5.6569 2.3431z" fill="#262626"/></svg>