<svg fill="none" height="32" viewBox="0 0 32 32" width="32" xmlns="http://www.w3.org/2000/svg"><rect fill="#f8f8f8" height="32" rx="4" width="32"/><path d="m11.66 16.21c.0934.0927.2043.166.3261.2158.1218.0497.2523.075.3839.0742.1316.0008.2621-.0245.3839-.0742.1218-.0498.2327-.1231.3261-.2158l1.5-1.5c.0937-.093.1681-.2036.2189-.3254.0508-.1219.0769-.2526.0769-.3846s-.0261-.2627-.0769-.3846c-.0508-.1218-.1252-.2324-.2189-.3254l-1.5-1.5c-.1883-.1883-.4437-.2941-.71-.2941s-.5217.1058-.71.2941-.2941.4437-.2941.71.1058.5217.2941.71l.8.79-.8.79c-.0937.093-.1681.2036-.2189.3254-.0508.1219-.0769.2526-.0769.3846s.0261.2627.0769.3846c.0508.1218.1252.2324.2189.3254zm7.5 0c.0934.0927.2043.166.3261.2158.1218.0497.2523.075.3839.0742.1316.0008.2621-.0245.3839-.0742.1218-.0498.2327-.1231.3261-.2158.0937-.093.1681-.2036.2189-.3254.0508-.1219.0769-.2526.0769-.3846s-.0261-.2627-.0769-.3846c-.0508-.1218-.1252-.2324-.2189-.3254l-.79-.79.79-.79c.0932-.0932.1672-.2039.2177-.3258.0504-.1218.0764-.2523.0764-.3842s-.026-.2624-.0764-.3842c-.0505-.1219-.1245-.2326-.2177-.3258s-.2039-.1672-.3257-.2177c-.1219-.0504-.2524-.0764-.3843-.0764s-.2624.026-.3842.0764c-.1219.0505-.2326.1245-.3258.2177l-1.5 1.5c-.0937.093-.1681.2036-.2189.3254-.0508.1219-.0769.2526-.0769.3846s.0261.2627.0769.3846c.0508.1218.1252.2324.2189.3254zm.11 2c-.1731-.1298-.3836-.2-.6-.2s-.4269.0702-.6.2l-.74.55-.73-.55c-.1731-.1298-.3836-.2-.6-.2s-.4269.0702-.6.2l-.73.55-.74-.55c-.1731-.1298-.3836-.2-.6-.2s-.4269.0702-.6.2l-1.33 1c-.1051.0788-.1936.1775-.2605.2905s-.1109.2381-.1294.3681c-.0376.2625.0308.5292.1899.7414s.396.3524.6586.39c.2625.0375.5292-.0309.7414-.19l.73-.55.74.55c.0379.024.0781.0441.12.06.0692.0369.1433.0639.22.08h.13.23.12c.118-.0348.2295-.0889.33-.16l.73-.55.73.55c.1421.1051.3095.1706.4852.1899.1756.0193.3533-.0082.5148-.0799l.1-.05c.0397-.0139.0768-.0342.11-.06l.74-.55.73.55c.1731.1298.3836.2.6.2.1552 0 .3084-.0361.4472-.1056.1389-.0694.2597-.1702.3528-.2944.0788-.1051.1361-.2246.1687-.3518s.0398-.2596.0213-.3896c-.0186-.13-.0626-.2551-.1295-.3681s-.1554-.2117-.2605-.2905zm-3.27-12.21c-1.9778 0-3.9112.58649-5.5557 1.6853-1.64449 1.09882-2.92621 2.6606-3.68309 4.4879-.75688 1.8272-.95491 3.8379-.56906 5.7777s1.33826 3.7216 2.73679 5.1202c1.39856 1.3985 3.18036 2.3509 5.12016 2.7368 1.9398.3858 3.9505.1878 5.7777-.5691 1.8273-.7569 3.3891-2.0386 4.4879-3.6831s1.6853-3.5779 1.6853-5.5557c0-1.3132-.2587-2.6136-.7612-3.8268-.5025-1.2133-1.2391-2.31568-2.1677-3.24427-.9286-.92858-2.031-1.66518-3.2443-2.16773-1.2132-.50254-2.5136-.7612-3.8268-.7612zm0 18c-1.5822 0-3.129-.4692-4.4446-1.3482-1.3156-.8791-2.34093-2.1285-2.94643-3.5903s-.76393-3.0704-.45525-4.6222c.30868-1.5519 1.07061-2.9773 2.18948-4.0962 1.1188-1.11877 2.5442-1.8807 4.0961-2.18938 1.5518-.30868 3.1604-.15026 4.6222.45524 1.4618.60551 2.7112 1.63084 3.5903 2.94644.879 1.3156 1.3482 2.8623 1.3482 4.4446 0 2.1217-.8428 4.1566-2.3431 5.6569-1.5003 1.5002-3.5352 2.3431-5.6569 2.3431z" fill="#262626"/></svg>