<svg fill="none" height="32" viewBox="0 0 32 32" width="32" xmlns="http://www.w3.org/2000/svg"><rect fill="#f8f8f8" height="32" rx="4" width="32"/><path d="m25.71 19.58-4.52-4.51c.0946-.4606.1415-.9298.14-1.4-.0003-1.2893-.3257-2.5578-.946-3.68811-.6204-1.13031-1.5156-2.08601-2.6031-2.77874-1.0874-.69274-2.332-1.10016-3.6185-1.1846-1.2866-.08445-2.5737.1568-3.7424.70146-.148.06763-.2774.17039-.3767.29935-.09933.12896-.16568.28022-.19329.44065-.02749.15838-.0164.32106.03234.47425s.13365.29237.24765.40575l4.35 4.33999-1.8 1.8-4.33999-4.35c-.11433-.1122-.25394-.19528-.40708-.24227-.15314-.04698-.31533-.05649-.47292-.02772-.15941.02659-.31001.09143-.43889.18899-.12888.0975-.2322.2248-.30111.371-.54647 1.1725-.78751 2.4642-.7007 3.7549s.49865 2.5384 1.19722 3.6272c.69856 1.0887 1.66115 1.9831 2.79827 2.6 1.137.6168 2.4116.936 3.7052.9279.4702.0015.9394-.0454 1.4-.14l4.51 4.52c.093.0937.2036.1681.3254.2189.1219.0508.2526.0769.3846.0769s.2627-.0261.3846-.0769.2325-.1252.3254-.2189c.0937-.093.1681-.2036.2189-.3254.0508-.1219.0769-.2526.0769-.3846s-.0261-.2627-.0769-.3846c-.0508-.1218-.1252-.2324-.2189-.3254l-4.9-4.9c-.1224-.1216-.2743-.2095-.4408-.2551-.1664-.0455-.3419-.0472-.5092-.0049-.4828.1293-.9802.1965-1.48.2-.7479.0066-1.4898-.1349-2.1828-.4162-.6931-.2814-1.3236-.6971-1.8553-1.2232-.53168-.5261-.95401-1.1522-1.24267-1.8422-.28865-.6901-.43793-1.4304-.43922-2.1784-.00129-.335.02547-.6695.08-1l3.91999 3.93c.093.0937.2036.1681.3254.2189.1219.0508.2526.0769.3846.0769s.2627-.0261.3846-.0769.2325-.1252.3254-.2189l3.18-3.21c.1803-.1865.281-.4357.281-.695s-.1007-.5085-.281-.695l-3.89-3.91999c.3306-.05399.6651-.08075 1-.08 1.5021.00264 2.9417.60119 4.0028 1.66423 1.0612 1.06306 1.6572 2.50376 1.6572 4.00576-.0035.4998-.0707.9972-.2 1.48-.0423.1673-.0406.3428.0049.5092.0456.1665.1335.3184.2551.4408l4.9 4.9c.1883.1883.4437.2941.71.2941s.5217-.1058.71-.2941.2941-.4437.2941-.71-.1058-.5217-.2941-.71z" fill="#262626"/></svg>