<svg fill="none" height="32" viewBox="0 0 32 32" width="32" xmlns="http://www.w3.org/2000/svg"><rect fill="#f8f8f8" height="32" rx="4" width="32"/><path d="m25 18h-1v-7c0-.7956-.3161-1.55871-.8787-2.12132s-1.3257-.87868-2.1213-.87868h-10c-.7956 0-1.55871.31607-2.12132.87868s-.87868 1.32572-.87868 2.12132v7h-1c-.26522 0-.51957.1054-.70711.2929-.18753.1875-.29289.4419-.29289.7071v2c0 .7956.31607 1.5587.87868 2.1213s1.32567.8787 2.12132.8787h14c.7956 0 1.5587-.3161 2.1213-.8787s.8787-1.3257.8787-2.1213v-2c0-.2652-.1054-.5196-.2929-.7071s-.4419-.2929-.7071-.2929zm-15-7c0-.2652.1054-.5196.2929-.7071s.4419-.2929.7071-.2929h10c.2652 0 .5196.1054.7071.2929s.2929.4419.2929.7071v7h-12zm14 10c0 .2652-.1054.5196-.2929.7071s-.4419.2929-.7071.2929h-14c-.26522 0-.51957-.1054-.70711-.2929-.18753-.1875-.29289-.4419-.29289-.7071v-1h16z" fill="#262626"/></svg>