<svg fill="none" height="32" viewBox="0 0 112 32" width="112" xmlns="http://www.w3.org/2000/svg"><rect fill="#f9f7fb" height="32" rx="4" width="32"/><path d="m24.16 8.61c-1.0617-1.062-2.4693-1.70768-3.9668-1.81962-1.4975-.11195-2.9854.31728-4.1932 1.20962-1.2724-.94637-2.856-1.37549-4.4321-1.20097-1.57608.17453-3.02749.93974-4.06196 2.14155-1.03446 1.20182-1.57515 2.75092-1.51317 4.33542s.72202 3.0867 1.8472 4.204l7.45003 7.45c.0929.0937.2035.1681.3254.2189s.2526.0769.3846.0769.2627-.0261.3845-.0769c.1219-.0508.2325-.1252.3255-.2189l7.45-7.45c.5826-.5823 1.0448-1.2737 1.3602-2.0346.3153-.761.4777-1.5767.4777-2.4004s-.1624-1.6394-.4777-2.4004c-.3154-.76095-.7776-1.45233-1.3602-2.0346zm-1.41 7.46-6.75 6.74-6.75003-6.74c-.59483-.5973-1.00003-1.357-1.16477-2.1837-.16475-.8267-.0817-1.6836.23872-2.4633s.86395-1.44741 1.5624-1.91938c.69848-.47197 1.52068-.72718 2.36368-.73362 1.1261.00276 2.2051.45233 3 1.25.0929.0937.2035.1681.3254.2189s.2526.0769.3846.0769.2627-.0261.3845-.0769c.1219-.0508.2325-.1252.3255-.2189.8183-.70912 1.8755-1.08086 2.9575-1.03998 1.0821.04088 2.1082.49132 2.8707 1.26018.7624.7688 1.2044 1.7986 1.2363 2.881.0319 1.0823-.3486 2.1364-1.0645 2.9488z" fill="#5600af"/><rect fill="#f9f7fb" height="32" rx="4" width="32" x="40"/><path d="m58 16.5h-1v-1c0-.2652-.1054-.5195-.2929-.7071-.1875-.1875-.4419-.2929-.7071-.2929s-.5196.1054-.7071.2929c-.1875.1876-.2929.4419-.2929.7071v1h-1c-.2652 0-.5196.1054-.7071.2929-.1875.1876-.2929.4419-.2929.7071s.1054.5196.2929.7071c.1875.1876.4419.2929.7071.2929h1v1c0 .2652.1054.5196.2929.7071.1875.1876.4419.2929.7071.2929s.5196-.1053.7071-.2929c.1875-.1875.2929-.4419.2929-.7071v-1h1c.2652 0 .5196-.1053.7071-.2929.1875-.1875.2929-.4419.2929-.7071s-.1054-.5195-.2929-.7071c-.1875-.1875-.4419-.2929-.7071-.2929zm5-6.99998h-6.28l-.32-1c-.2074-.58677-.5923-1.09449-1.1011-1.45284-.5088-.35834-1.1165-.54956-1.7389-.54716h-4.56c-.7956 0-1.5587.31607-2.1213.87868s-.8787 1.32567-.8787 2.12132v12.99998c0 .7957.3161 1.5587.8787 2.1213.5626.5627 1.3257.8787 2.1213.8787h14c.7956 0 1.5587-.316 2.1213-.8787.5626-.5626.8787-1.3256.8787-2.1213v-10c0-.7956-.3161-1.5587-.8787-2.1213-.5626-.56261-1.3257-.87868-2.1213-.87868zm1 12.99998c0 .2652-.1054.5196-.2929.7071-.1875.1876-.4419.2929-.7071.2929h-14c-.2652 0-.5196-.1053-.7071-.2929-.1875-.1875-.2929-.4419-.2929-.7071v-12.99998c0-.26521.1054-.51957.2929-.7071.1875-.18754.4419-.2929.7071-.2929h4.56c.2096-.00054.4142.06482.5846.18684.1705.12203.2983.29454.3654.49316l.54 1.63998c.0671.1986.1949.3712.3654.4932.1704.122.375.1874.5846.1868h7c.2652 0 .5196.1054.7071.2929.1875.1876.2929.4419.2929.7071z" fill="#5600af"/><rect fill="#f9f7fb" height="32" rx="4" width="32" x="80"/><path d="m96.3 16.22c.5336-.4619.9616-1.0331 1.2549-1.675.2933-.6418.4451-1.3393.4451-2.045 0-1.3261-.5268-2.59785-1.4645-3.53553-.9376-.93769-2.2094-1.46447-3.5355-1.46447s-2.5979.52678-3.5355 1.46447c-.9377.93768-1.4645 2.20943-1.4645 3.53553 0 .7057.1518 1.4032.4451 2.045.2933.6419.7213 1.2131 1.2549 1.675-1.3999.6339-2.5875 1.6575-3.421 2.9485-.8335 1.2911-1.2775 2.7948-1.279 4.3315 0 .2652.1054.5196.2929.7071s.4419.2929.7071.2929.5196-.1054.7071-.2929.2929-.4419.2929-.7071c0-1.5913.6321-3.1174 1.7574-4.2426 1.1252-1.1253 2.6513-1.7574 4.2426-1.7574s3.1174.6321 4.2426 1.7574c1.1253 1.1252 1.7574 2.6513 1.7574 4.2426 0 .2652.1054.5196.2929.7071s.4419.2929.7071.2929c.265 0 .52-.1054.707-.2929.188-.1875.293-.4419.293-.7071-.001-1.5367-.445-3.0404-1.279-4.3315-.8335-1.291-2.0211-2.3146-3.421-2.9485zm-3.3-.72c-.5933 0-1.1734-.1759-1.6667-.5056-.4934-.3296-.8779-.7982-1.1049-1.3463-.2271-.5482-.2865-1.1514-.1708-1.7334.1158-.5819.4015-1.1165.8211-1.536.4195-.41958.9541-.7053 1.536-.82106.582-.11575 1.1852-.05634 1.7334.17072.5481.22706 1.0167.61154 1.3463 1.10494.3297.4933.5056 1.0734.5056 1.6667 0 .7956-.3161 1.5587-.8787 2.1213s-1.3257.8787-2.1213.8787zm9.74.32c.64-.7207 1.058-1.6109 1.204-2.5637.146-.9527.013-1.9272-.382-2.8063-.395-.87907-1.036-1.6252-1.846-2.14858-.809-.52337-1.7522-.80168-2.716-.80142-.2652 0-.5196.10536-.7071.29289-.1875.18754-.2929.44189-.2929.70711s.1054.51957.2929.70711c.1875.18753.4419.29289.7071.29289.7956 0 1.559.31607 2.121.8787.563.5626.879 1.3257.879 2.1213-.001.5252-.141 1.0409-.404 1.4954s-.641.832-1.096 1.0946c-.148.0855-.272.2077-.36.3547-.087.1471-.136.3142-.14.4853-.0042.1698.035.3378.114.4883.078.1504.194.2784.336.3717l.39.26.13.07c1.205.5717 2.222 1.476 2.931 2.6063s1.08 2.4396 1.069 3.7737c0 .2652.105.5196.293.7071.187.1875.442.2929.707.2929s.52-.1054.707-.2929c.188-.1875.293-.4419.293-.7071.008-1.5346-.376-3.0457-1.117-4.3899-.74-1.3442-1.812-2.4768-3.113-3.2901z" fill="#5600af"/></svg>