<svg fill="none" height="32" viewBox="0 0 32 32" width="32" xmlns="http://www.w3.org/2000/svg"><rect fill="#f8f8f8" height="32" rx="4" width="32"/><path d="m18 16.5h-1v-1c0-.2652-.1054-.5195-.2929-.7071-.1875-.1875-.4419-.2929-.7071-.2929s-.5196.1054-.7071.2929c-.1875.1876-.2929.4419-.2929.7071v1h-1c-.2652 0-.5196.1054-.7071.2929-.1875.1876-.2929.4419-.2929.7071s.1054.5196.2929.7071c.1875.1876.4419.2929.7071.2929h1v1c0 .2652.1054.5196.2929.7071.1875.1876.4419.2929.7071.2929s.5196-.1053.7071-.2929c.1875-.1875.2929-.4419.2929-.7071v-1h1c.2652 0 .5196-.1053.7071-.2929.1875-.1875.2929-.4419.2929-.7071s-.1054-.5195-.2929-.7071c-.1875-.1875-.4419-.2929-.7071-.2929zm5-6.99998h-6.28l-.32-1c-.2074-.58677-.5923-1.09449-1.1011-1.45284-.5088-.35834-1.1165-.54956-1.7389-.54716h-4.56c-.79565 0-1.55871.31607-2.12132.87868s-.87868 1.32567-.87868 2.12132v12.99998c0 .7957.31607 1.5587.87868 2.1213.56261.5627 1.32567.8787 2.12132.8787h14c.7956 0 1.5587-.316 2.1213-.8787.5626-.5626.8787-1.3256.8787-2.1213v-10c0-.7956-.3161-1.5587-.8787-2.1213-.5626-.56261-1.3257-.87868-2.1213-.87868zm1 12.99998c0 .2652-.1054.5196-.2929.7071-.1875.1876-.4419.2929-.7071.2929h-14c-.26522 0-.51957-.1053-.70711-.2929-.18753-.1875-.29289-.4419-.29289-.7071v-12.99998c0-.26521.10536-.51957.29289-.7071.18754-.18754.44189-.2929.70711-.2929h4.56c.2096-.00054.4142.06482.5846.18684.1705.12203.2983.29454.3654.49316l.54 1.63998c.0671.1986.1949.3712.3654.4932.1704.122.375.1874.5846.1868h7c.2652 0 .5196.1054.7071.2929.1875.1876.2929.4419.2929.7071z" fill="#262626"/></svg>