<svg fill="none" height="32" viewBox="0 0 32 32" width="32" xmlns="http://www.w3.org/2000/svg"><rect fill="#f8f8f8" height="32" rx="4" width="32"/><path d="m24.92 10.62c-.0476-.1227-.119-.2349-.21-.33l-3-3c-.0932-.09324-.2039-.1672-.3257-.21766-.1219-.05046-.2524-.07643-.3843-.07643-.2663 0-.5217.10579-.71.29409-.1883.18831-.2941.4437-.2941.71s.1058.5217.2941.71l1.3 1.29h-8.59c-.7956 0-1.5587.3161-2.1213.8787s-.8787 1.3257-.8787 2.1213v8.59l-1.29-1.3c-.1883-.1883-.4437-.2941-.71-.2941s-.52169.1058-.71.2941c-.1883.1883-.29409.4437-.29409.71s.10579.5217.29409.71l3 3c.0951.091.2073.1624.33.21.1197.0529.2491.0802.38.0802s.2603-.0273.38-.0802c.1228-.0476.2349-.119.33-.21l3-3c.1883-.1883.2941-.4437.2941-.71s-.1058-.5217-.2941-.71-.4437-.2941-.71-.2941-.5217.1058-.71.2941l-1.29 1.3v-8.59c0-.2652.1054-.5196.2929-.7071s.4419-.2929.7071-.2929h8.59l-1.3 1.29c-.0937.093-.1681.2036-.2189.3254-.0508.1219-.0769.2526-.0769.3846s.0261.2627.0769.3846c.0508.1218.1252.2324.2189.3254.093.0937.2036.1681.3254.2189.1219.0508.2526.0769.3846.0769s.2627-.0261.3846-.0769c.1218-.0508.2324-.1252.3254-.2189l3-3c.091-.0951.1624-.2072.21-.33.1-.2435.1-.5165 0-.76z" fill="#262626"/></svg>