<svg fill="none" height="32" viewBox="0 0 32 32" width="32" xmlns="http://www.w3.org/2000/svg"><rect fill="#f8f8f8" height="32" rx="4" width="32"/><path d="m7.70999 20.29c-.09511-.091-.20725-.1624-.33-.21-.24346-.1-.51654-.1-.76 0-.12275.0476-.2349.119-.33.21-.09104.0951-.16241.2072-.21.33-.07658.1821-.0975.3828-.06013.5768s.13137.3726.27013.5132c.0972.0883.20881.1594.33.21.1197.0529.24913.0802.38.0802s.2603-.0273.38-.0802c.12118-.0506.2328-.1217.33-.21.13876-.1406.23275-.3192.27013-.5132.03737-.194.01645-.3947-.06013-.5768-.0476-.1228-.11896-.2349-.21-.33zm3.29001-8.29h14c.2652 0 .5196-.1054.7071-.2929s.2929-.4419.2929-.7071-.1054-.5196-.2929-.7071-.4419-.2929-.7071-.2929h-14c-.2652 0-.5196.1054-.7071.2929-.1876.1875-.29291.4419-.29291.7071s.10531.5196.29291.7071c.1875.1875.4419.2929.7071.2929zm-3.29001 3.29c-.14063-.1388-.3192-.2328-.51319-.2701-.19399-.0374-.3947-.0165-.57681.0601-.12119.0506-.2328.1217-.33.21-.09104.0951-.16241.2072-.21.33-.05291.1197-.08023.2491-.08023.38s.02732.2603.08023.38c.05064.1212.12167.2328.21.33.0972.0883.20881.1594.33.21.1197.0529.24913.0802.38.0802s.2603-.0273.38-.0802c.12118-.0506.2328-.1217.33-.21.08833-.0972.15936-.2088.21-.33.0529-.1197.08023-.2491.08023-.38s-.02733-.2603-.08023-.38c-.0476-.1228-.11896-.2349-.21-.33zm17.29001-.29h-14c-.2652 0-.5196.1054-.7071.2929-.1876.1875-.29291.4419-.29291.7071s.10531.5196.29291.7071c.1875.1875.4419.2929.7071.2929h14c.2652 0 .5196-.1054.7071-.2929s.2929-.4419.2929-.7071-.1054-.5196-.2929-.7071-.4419-.2929-.7071-.2929zm-17.29001-4.71c-.09511-.091-.20725-.1624-.33-.21-.18211-.0766-.38283-.0975-.57682-.0601-.19398.0373-.37256.1313-.51318.2701-.08833.0972-.15936.2088-.21.33-.05291.1197-.08023.2491-.08023.38s.02732.2603.08023.38c.05064.1212.12167.2328.21.33.0972.0883.20881.1594.33.21.18211.0766.38282.0975.57681.0601.19399-.0373.37256-.1313.51319-.2701.08833-.0972.15936-.2088.21-.33.0529-.1197.08023-.2491.08023-.38s-.02733-.2603-.08023-.38c-.05064-.1212-.12167-.2328-.21-.33zm17.29001 9.71h-14c-.2652 0-.5196.1054-.7071.2929-.1876.1875-.29291.4419-.29291.7071s.10531.5196.29291.7071c.1875.1875.4419.2929.7071.2929h14c.2652 0 .5196-.1054.7071-.2929s.2929-.4419.2929-.7071-.1054-.5196-.2929-.7071-.4419-.2929-.7071-.2929z" fill="#262626"/></svg>