<svg fill="none" height="32" viewBox="0 0 32 32" width="32" xmlns="http://www.w3.org/2000/svg"><rect fill="#f8f8f8" height="32" rx="4" width="32"/><path d="m6.50003 12.86 8.99997 5.2c.152.0878.3245.134.5.134.1756 0 .348-.0462.5-.134l9-5.2c.1512-.0873.2768-.2125.3646-.3634.0877-.1509.1344-.3221.1354-.4966.0007-.1762-.0451-.3495-.1329-.5022-.0879-.1528-.2145-.2797-.3671-.3678l-9-5.19c-.152-.08776-.3244-.13397-.5-.13397-.1755 0-.348.04621-.5.13397l-8.99997 5.19c-.1526.0881-.27922.215-.36702.3678-.0878.1527-.13368.326-.13298.5022.00105.1745.04776.3457.13548.4966.08771.1509.21338.2761.36452.3634zm9.49997-4.86 7 4-7 4-6.99997-4zm8.5 7.17-8.5 4.83-8.49997-4.87c-.11413-.0661-.24022-.109-.371-.1262s-.26366-.0083-.391.0261-.24662.0936-.35097.1743-.1917.1812-.25703.2958c-.13037.2296-.16464.5015-.09532.7563s.23659.4718.46532.6037l8.99997 5.2c.152.0878.3245.134.5.134.1756 0 .348-.0462.5-.134l9-5.2c.2288-.1319.396-.3489.4654-.6037.0693-.2548.035-.5267-.0954-.7563-.0653-.1146-.1527-.2151-.257-.2958s-.2236-.1399-.351-.1743c-.1273-.0344-.2602-.0433-.391-.0261-.1307.0172-.2568.0601-.371.1262zm0 4-8.5 4.83-8.49997-4.87c-.11413-.0661-.24022-.109-.371-.1262s-.26366-.0083-.391.0261-.24662.0936-.35097.1743-.1917.1812-.25703.2958c-.13037.2296-.16464.5015-.09532.7563s.23659.4718.46532.6037l8.99997 5.2c.152.0878.3245.134.5.134.1756 0 .348-.0462.5-.134l9-5.2c.2288-.1319.396-.3489.4654-.6037.0693-.2548.035-.5267-.0954-.7563-.0653-.1146-.1527-.2151-.257-.2958s-.2236-.1399-.351-.1743c-.1273-.0344-.2602-.0433-.391-.0261-.1307.0172-.2568.0601-.371.1262z" fill="#262626"/></svg>