<svg fill="none" height="32" viewBox="0 0 32 32" width="32" xmlns="http://www.w3.org/2000/svg"><rect fill="#f8f8f8" height="32" rx="4" width="32"/><path d="m21.09 6.82001c-.9197-.75642-1.9967-1.29797-3.1523-1.58516-1.1557-.28718-2.3609-.31275-3.5277-.07484-1.5536.31382-2.979 1.08207-4.0953 2.20728-1.11632 1.1252-1.87323 2.55665-2.1747 4.11271-.22015 1.1667-.18015 2.3677.11716 3.5171.29732 1.1495.84461 2.2192 1.60284 3.1329.7037.7941 1.107 1.8095 1.14 2.87v3c0 .7957.3161 1.5587.8787 2.1213s1.3257.8787 2.1213.8787h4c.7957 0 1.5587-.3161 2.1213-.8787s.8787-1.3256.8787-2.1213v-2.81c.0336-1.1708.4637-2.2956 1.22-3.19 1.3251-1.6392 1.9498-3.7352 1.7382-5.8324s-1.2423-4.02611-2.8682-5.36759zm-2.09 17.17999c0 .2652-.1054.5196-.2929.7071-.1875.1876-.4419.2929-.7071.2929h-4c-.2652 0-.5196-.1053-.7071-.2929-.1875-.1875-.2929-.4419-.2929-.7071v-1h6zm1.67-7.24c-1.0055 1.1926-1.5921 2.682-1.67 4.24h-2v-3c0-.2652-.1054-.5196-.2929-.7071s-.4419-.2929-.7071-.2929-.5196.1054-.7071.2929-.2929.4419-.2929.7071v3h-2c-.0264-1.5319-.5931-3.0052-1.6-4.16-.6644-.796-1.1111-1.7506-1.2967-2.7706-.18557-1.0201-.10365-2.0709.2378-3.0499.3414-.9789.9307-1.85275 1.7104-2.53617.7797-.68341 1.7232-1.15312 2.7385-1.36332.8726-.17966 1.7742-.16276 2.6394.04947.8652.21222 1.6723.61445 2.3627 1.17748.6903.56303 1.2467 1.27273 1.6286 2.07754.3819.8049.5798 1.6847.5793 2.5755.0074 1.3699-.4629 2.6995-1.33 3.76z" fill="#262626"/></svg>