<svg fill="none" height="32" viewBox="0 0 32 32" width="32" xmlns="http://www.w3.org/2000/svg"><rect fill="#f8f8f8" height="32" rx="4" width="32"/><path d="m11 20c-.1978 0-.3911.0586-.5556.1685-.1644.1099-.2926.2661-.3683.4488s-.09547.3838-.0569.5778c.0386.194.1338.3722.2737.512.1398.1399.318.2351.512.2737s.3951.0188.5778-.0569.3389-.2039.4488-.3683c.1099-.1645.1685-.3578.1685-.5556 0-.2652-.1054-.5196-.2929-.7071s-.4419-.2929-.7071-.2929zm12.06-4 1.23-1.23c.5618-.5625.8774-1.325.8774-2.12s-.3156-1.5575-.8774-2.12l-2.83-2.82c-.5625-.5618-1.325-.87736-2.12-.87736s-1.5575.31556-2.12.87736l-1.22 1.23c-.0157-.78521-.3387-1.53294-.8996-2.08264s-1.315-.85752-2.1004-.85736h-4c-.79565 0-1.55871.31607-2.12132.87868s-.87868 1.32567-.87868 2.12132v14c0 .7956.31607 1.5587.87868 2.1213s1.32567.8787 2.12132.8787h14c.7956 0 1.5587-.3161 2.1213-.8787s.8787-1.3257.8787-2.1213v-4c.0002-.7854-.3077-1.5395-.8574-2.1004s-1.2974-.8839-2.0826-.8996zm-9.06 7c0 .2652-.1054.5196-.2929.7071s-.4419.2929-.7071.2929h-4c-.26522 0-.51957-.1054-.70711-.2929-.18753-.1875-.29289-.4419-.29289-.7071v-14c0-.26522.10536-.51957.29289-.70711.18754-.18753.44189-.29289.70711-.29289h4c.2652 0 .5196.10536.7071.29289.1875.18754.2929.44189.2929.70711zm2-11.24 2.64-2.64c.1874-.18625.4408-.29079.705-.29079s.5176.10454.705.29079l2.83 2.88c.1863.1874.2908.4408.2908.705s-.1045.5176-.2908.705l-2.88 2.88-4 3.95zm8 11.24c0 .2652-.1054.5196-.2929.7071s-.4419.2929-.7071.2929h-7.18c.1026-.2964.1599-.6065.17-.92l5.08-5.08h1.93c.2652 0 .5196.1054.7071.2929s.2929.4419.2929.7071z" fill="#262626"/></svg>