<svg fill="none" height="32" viewBox="0 0 32 32" width="32" xmlns="http://www.w3.org/2000/svg"><rect fill="#f8f8f8" height="32" rx="4" width="32"/><path d="m8 18.46c0-.2652-.10536-.5196-.29289-.7071-.18754-.1875-.44189-.2929-.70711-.2929s-.51957.1054-.70711.2929c-.18753.1875-.29289.4419-.29289.7071v1c0 .2652.10536.5196.29289.7071.18754.1875.44189.2929.70711.2929h1c.26522 0 .51957-.1054.70711-.2929.18753-.1875.29289-.4419.29289-.7071s-.10536-.5196-.29289-.7071c-.18754-.1875-.44189-.2929-.70711-.2929zm4.18-10.46h2.1c.2652 0 .5196-.10536.7071-.29289.1875-.18754.2929-.44189.2929-.70711s-.1054-.51957-.2929-.70711c-.1875-.18753-.4419-.29289-.7071-.29289h-2.1c-.2652 0-.5196.10536-.7071.29289-.1875.18754-.2929.44189-.2929.70711s.1054.51957.2929.70711c.1875.18753.4419.29289.7071.29289zm6.28 0c0 .26522.1054.51957.2929.70711.1875.18753.4419.29289.7071.29289s.5196-.10536.7071-.29289c.1875-.18754.2929-.44189.2929-.70711v-1c0-.26522-.1054-.51957-.2929-.70711-.1875-.18753-.4419-.29289-.7071-.29289h-1c-.2652 0-.5196.10536-.7071.29289-.1875.18754-.2929.44189-.2929.70711s.1054.51957.2929.70711c.1875.18753.4419.29289.7071.29289zm-10.46-2h-1c-.26522 0-.51957.10536-.70711.29289-.18753.18754-.29289.44189-.29289.70711v1c0 .26522.10536.51957.29289.70711.18754.18753.44189.29289.70711.29289s.51957-.10536.70711-.29289c.18753-.18754.29289-.44189.29289-.70711.26522 0 .51957-.10536.70711-.29289.18753-.18754.29289-.44189.29289-.70711s-.10536-.51957-.29289-.70711c-.18754-.18753-.44189-.29289-.70711-.29289zm-1 9.28c.26522 0 .51957-.1054.70711-.2929.18753-.1875.29289-.4419.29289-.7071v-2.1c0-.2652-.10536-.5196-.29289-.7071-.18754-.1875-.44189-.2929-.70711-.2929s-.51957.1054-.70711.2929c-.18753.1875-.29289.4419-.29289.7071v2.1c0 .2652.10536.5196.29289.7071.18754.1875.44189.2929.70711.2929zm12.82 8.72h-2.1c-.2652 0-.5196.1054-.7071.2929s-.2929.4419-.2929.7071.1054.5196.2929.7071.4419.2929.7071.2929h2.1c.2652 0 .5196-.1054.7071-.2929s.2929-.4419.2929-.7071-.1054-.5196-.2929-.7071-.4419-.2929-.7071-.2929zm5.18-12.46h-1c-.2652 0-.5196.1054-.7071.2929s-.2929.4419-.2929.7071.1054.5196.2929.7071.4419.2929.7071.2929c0 .2652.1054.5196.2929.7071s.4419.2929.7071.2929.5196-.1054.7071-.2929.2929-.4419.2929-.7071v-1c0-.2652-.1054-.5196-.2929-.7071s-.4419-.2929-.7071-.2929zm0 5.18c-.2652 0-.5196.1054-.7071.2929s-.2929.4419-.2929.7071v2.1c0 .2652.1054.5196.2929.7071s.4419.2929.7071.2929.5196-.1054.7071-.2929.2929-.4419.2929-.7071v-2.1c0-.2652-.1054-.5196-.2929-.7071s-.4419-.2929-.7071-.2929zm-4.54-5.18c0-.2652-.1054-.5196-.2929-.7071s-.4419-.2929-.7071-.2929-.5196.1054-.7071.2929-.2929.4419-.2929.7071h-5.92c-.2652 0-.5196.1054-.7071.2929s-.2929.4419-.2929.7071v5.92c-.2652 0-.5196.1054-.7071.2929s-.2929.4419-.2929.7071.1054.5196.2929.7071.4419.2929.7071.2929c0 .2652.1054.5196.2929.7071s.4419.2929.7071.2929.5196-.1054.7071-.2929.2929-.4419.2929-.7071h5.92c.1313 0 .2614-.0259.3827-.0761.1213-.0503.2315-.1239.3244-.2168s.1665-.2031.2168-.3244c.0502-.1213.0761-.2514.0761-.3827v-5.92c.2652 0 .5196-.1054.7071-.2929s.2929-.4419.2929-.7071-.1054-.5196-.2929-.7071-.4419-.2929-.7071-.2929zm-2 6.92h-4.92v-4.92h4.92zm6.54 4.54c-.2652 0-.5196.1054-.7071.2929s-.2929.4419-.2929.7071c-.2652 0-.5196.1054-.7071.2929s-.2929.4419-.2929.7071.1054.5196.2929.7071.4419.2929.7071.2929h1c.2652 0 .5196-.1054.7071-.2929s.2929-.4419.2929-.7071v-1c0-.2652-.1054-.5196-.2929-.7071s-.4419-.2929-.7071-.2929zm-11.46 1c0-.2652-.1054-.5196-.2929-.7071s-.4419-.2929-.7071-.2929-.5196.1054-.7071.2929-.2929.4419-.2929.7071v1c0 .2652.1054.5196.2929.7071s.4419.2929.7071.2929h1c.2652 0 .5196-.1054.7071-.2929s.2929-.4419.2929-.7071-.1054-.5196-.2929-.7071-.4419-.2929-.7071-.2929z" fill="#262626"/></svg>