<svg fill="none" height="32" viewBox="0 0 32 32" width="32" xmlns="http://www.w3.org/2000/svg"><rect fill="#f8f8f8" height="32" rx="4" width="32"/><path d="m25 15h-1.07c-.2232-1.76-1.0251-3.3959-2.2796-4.6504s-2.8904-2.05641-4.6504-2.2796v-1.07c0-.26522-.1054-.51957-.2929-.70711-.1875-.18753-.4419-.29289-.7071-.29289s-.5196.10536-.7071.29289c-.1875.18754-.2929.44189-.2929.70711v1.07c-1.76.22319-3.3959 1.0251-4.6504 2.2796s-2.05641 2.8904-2.2796 4.6504h-1.07c-.26522 0-.51957.1054-.70711.2929-.18753.1875-.29289.4419-.29289.7071s.10536.5196.29289.7071c.18754.1875.44189.2929.70711.2929h1.07c.22319 1.76 1.0251 3.3959 2.2796 4.6504s2.8904 2.0564 4.6504 2.2796v1.07c0 .2652.1054.5196.2929.7071s.4419.2929.7071.2929.5196-.1054.7071-.2929.2929-.4419.2929-.7071v-1.07c1.76-.2232 3.3959-1.0251 4.6504-2.2796s2.0564-2.8904 2.2796-4.6504h1.07c.2652 0 .5196-.1054.7071-.2929s.2929-.4419.2929-.7071-.1054-.5196-.2929-.7071-.4419-.2929-.7071-.2929zm-9 7c-1.1867 0-2.3467-.3519-3.3334-1.0112s-1.7558-1.5963-2.2099-2.6927-.57292-2.3028-.3414-3.4666c.2315-1.1639.8029-2.233 1.6421-3.0721.8391-.8392 1.9082-1.4106 3.0721-1.6421 1.1638-.23152 2.3702-.1127 3.4666.3414s2.0334 1.2232 2.6927 2.2099 1.0112 2.1467 1.0112 3.3334c0 1.5913-.6321 3.1174-1.7574 4.2426-1.1252 1.1253-2.6513 1.7574-4.2426 1.7574zm0-9c-.5933 0-1.1734.1759-1.6667.5056-.4934.3296-.8779.7982-1.1049 1.3463-.2271.5482-.2865 1.1514-.1708 1.7334.1158.5819.4015 1.1165.8211 1.536.4195.4196.9541.7053 1.536.8211.582.1157 1.1852.0563 1.7334-.1708.5481-.227 1.0167-.6115 1.3463-1.1049.3297-.4933.5056-1.0734.5056-1.6667 0-.7956-.3161-1.5587-.8787-2.1213s-1.3257-.8787-2.1213-.8787zm0 4c-.1978 0-.3911-.0586-.5556-.1685-.1644-.1099-.2926-.2661-.3683-.4488s-.0955-.3838-.0569-.5778.1338-.3722.2737-.512c.1398-.1399.318-.2351.512-.2737s.3951-.0188.5778.0569.3389.2039.4488.3683c.1099.1645.1685.3578.1685.5556 0 .2652-.1054.5196-.2929.7071s-.4419.2929-.7071.2929z" fill="#262626"/></svg>