<svg fill="none" height="300" viewBox="0 0 400 300" width="400" xmlns="http://www.w3.org/2000/svg"><path d="m175.76 78.4297s-51.67 90.1403-54 133.1903c-1 19.11 20.87 18.82 20.87 18.82l.29-12.79s44.39.43 70.25 2.41c47.6 3.66 91.26-29 91.26-29s-28.65-18.66-43.66-32.92-32.61-61.5003-32.61-61.5003z" fill="#fe346e"/><path d="m158.83 30.2398c-.36-1.33-3.1-2.88-3.1-2.88s2-3.45 1.13-4.36-8.86-2.39-9.86-1c-.78 1.11-2.86 11.09-3.71 15.3-3.81 7.39-12.61 28.6-12.61 39.79 0 8.25 16.26 11.0701 16.26 11.0701l7.22-52.3101c1.68-1.51 4.93-4.61 4.67-5.61z" fill="#fff"/><path d="m146.999 88.6699h-.08c-.68-.12-16.68-3-16.68-11.57 0-11.74 9.23-33.32 12.63-39.95 1.31-6.46 3-14.35 3.78-15.42.31-.45 1-.7 2.06-.78 2.71-.17 7.75.82 8.56 1.71s-.27 3.34-.87 4.52c.84.52 2.59 1.74 2.91 2.94.1.38.37 1.39-4.67 6l-7.19 52.14c-.008.0673-.03.1321-.065.1905-.034.0585-.08.1093-.135.1495-.076.0437-.162.0677-.25.07zm2.44-66.74c-.246 0-.486 0-.72 0-1 .07-1.23.31-1.25.34-.5.7-1.89 6.49-3.63 15.11.01.0428.01.0872 0 .13-4.24 8.24-12.55 29-12.55 39.56 0 6.94 12.62 9.92 15.34 10.48l7.14-51.79c.014-.1165.071-.2235.16-.3 3.63-3.3 4.54-4.79 4.51-5.12-.22-.83-1.87-2-2.86-2.58-.113-.0668-.196-.1757-.23-.303-.033-.1273-.015-.2628.05-.377.93-1.64 1.5-3.44 1.19-3.77s-4.47-1.38-7.2-1.38z" fill="#231f20"/><path d="m218.88 208.16c.25 1.13 20.08 64.64 20.08 64.64s27.81 6 29.47 1.84c1.28-3.21-14.53-7.13-14.53-7.13l-15.29-53.65" fill="#fff"/><path d="m262.57 276.59c-7.83 0-20.42-2.59-23.72-3.3-.087-.018-.167-.059-.232-.119s-.113-.136-.138-.221c-.81-2.6-19.83-63.54-20.09-64.68-.015-.064-.017-.131-.006-.196s.035-.127.071-.183c.035-.056.081-.104.135-.142s.115-.065.18-.079c.129-.027.265-.003.377.068s.192.183.223.312c.22 1 13.11 42.32 20 64.32 19.75 4.23 28 3.53 28.61 2.09.039-.083.06-.173.06-.265s-.021-.182-.06-.265c-1.18-2.28-10.6-5.06-14.13-5.93-.086-.022-.163-.066-.226-.128-.064-.061-.11-.138-.134-.222l-15.36-53.65c-.034-.127-.016-.263.049-.377.066-.114.174-.198.301-.233.062-.02.128-.027.193-.02s.128.027.185.058c.057.032.107.075.147.127s.069.112.085.175l15.21 53.37c2.24.57 13 3.43 14.5 6.37.112.207.178.435.194.67.015.235-.02.47-.104.69-.51 1.29-2.99 1.76-6.32 1.76z" fill="#231f20"/><path d="m189.17 202.3-.78 65.23s-25.31 8-30.87 5.75 15.86-10.13 15.86-10.13l-3-56.63" fill="#fff"/><path d="m160.37 274.17c-1.017.037-2.032-.105-3-.42-1-.42-1.24-1-1.23-1.46s.86-3.59 16.76-9.48l-3-56.26c-.004-.066.005-.132.026-.194.022-.062.055-.12.099-.169s.097-.089.156-.118.123-.045.189-.049c.066-.007.133 0 .197.02.063.02.122.054.171.098.05.044.09.098.118.159.028.06.043.126.044.193l3 56.64c.006.105-.021.21-.079.298s-.142.155-.241.192c-6.82 2.51-16.43 6.86-16.46 8.68 0 .24.38.43.61.52 5 2 27.15-4.72 30.19-5.66l.77-64.86c0-.133.053-.26.146-.354.094-.094.221-.146.354-.146.133.002.261.057.354.153.094.095.146.223.146.357l-.78 65.22c.002.106-.032.209-.095.294s-.153.147-.255.176c-.92.29-19.63 6.17-28.19 6.17z" fill="#231f20"/><path d="m236.369 156.47s10.41-1.55 11.25 0 1.27 8.44 1.27 8.44l-3.1.85s.85-6.76-.42-7-11.68.85-11.68.85z" fill="#fff"/><path d="m245.789 166.26c-.122-.004-.238-.05-.33-.13-.06-.055-.105-.124-.133-.201-.028-.076-.037-.158-.027-.239.38-3.11.35-6.14-.08-6.5-.82-.18-7.48.44-11.47.87-.1.012-.201-.007-.29-.053-.089-.047-.162-.119-.209-.207-.048-.089-.067-.189-.057-.289.011-.1.051-.194.116-.271l2.68-3.1c.075-.091.183-.148.3-.16 3.24-.48 10.86-1.42 11.77.25s1.28 7.94 1.33 8.65c.006.115-.027.228-.094.321-.068.092-.165.159-.276.189l-3.1.85zm-1.15-8.08c.28-.022.561-.022.84 0 1.31.29 1.24 3.73.9 6.85l2-.54c-.15-2.13-.57-6.72-1.18-7.83-.42-.66-5.23-.55-10.56.23l-1.72 2c2.43-.21 7.56-.71 9.72-.71z" fill="#231f20"/><path d="m202.2 168.85 64.89-7.22 3.89 50.52-69.19 4.66z" fill="#fff"/><g fill="#231f20"><path d="m201.789 217.31c-.063 0-.125-.013-.184-.037-.058-.024-.111-.059-.156-.103-.051-.045-.093-.1-.12-.162-.028-.063-.041-.13-.04-.198l.41-48c.002-.122.047-.238.128-.328s.192-.148.312-.162l64.9-7.22c.066-.008.133-.001.196.017.064.019.123.051.174.093.053.042.097.095.128.155.031.061.049.127.052.195l3.89 50.52c.007.066-.001.133-.022.197-.02.064-.054.122-.098.173-.089.1-.215.161-.35.17l-69.19 4.66zm.91-48-.41 47 68.15-4.58-3.81-49.51z"/><path d="m249.999 232-28-103.74-50.1-5.73s-5.53 69.57-6.33 111.08z"/><path d="m165.61 234.11c-.066.001-.131-.012-.191-.038-.061-.026-.115-.064-.159-.112-.049-.046-.088-.102-.114-.164s-.038-.129-.036-.196c.8-41 6.28-110.41 6.33-111.11.011-.136.076-.261.18-.35.105-.092.24-.141.38-.14l50.1 5.73c.1.012.194.054.271.12.076.066.132.153.159.25l28 103.74c.019.073.022.15.008.224s-.044.145-.088.206c-.048.058-.108.106-.175.141-.067.034-.14.054-.215.059l-84.43 1.61zm6.79-111c-.51 6.44-5.49 70.82-6.28 110l83.27-1.59-27.74-102.8z"/><path d="m167.809 264.189 4 5.48 18.11-4.14-.18 5.61s-39 7.37-36.59 2.4 14.66-9.35 14.66-9.35z"/><path d="m158.21 275.74c-2.82 0-4.84-.3-5.43-1.08-.146-.189-.232-.418-.248-.656-.016-.239.039-.476.158-.684 2.48-5.1 14.44-9.42 14.95-9.6.102-.039.214-.043.319-.012.104.03.196.094.261.182l3.79 5.22 17.79-4.11c.074-.019.152-.02.227-.002.075.017.145.052.203.102.059.048.106.11.137.179s.046.145.043.221l-.18 5.61c-.005.115-.047.224-.122.311-.074.087-.176.147-.288.169-4.4.87-22.33 4.15-31.61 4.15zm9.42-10.95c-2 .75-12 4.69-14 9-.1.2-.05.26 0 .3 1.64 2.14 22.58-.88 35.67-3.34l.15-4.56-17.47 4c-.097.022-.198.015-.29-.021-.093-.035-.173-.098-.23-.179z"/><path d="m257.52 266.47-4.29 5.25-17.85-5.16-.13 5.61s38.52 9.57 36.39 4.47-14.12-10.17-14.12-10.17z"/><path d="m268.16 278.6c-8.58 0-28.4-4.79-33-6-.111-.024-.21-.086-.28-.176s-.105-.201-.1-.314l.13-5.61c.001-.077.019-.151.054-.219.034-.068.084-.126.146-.171.062-.047.134-.079.21-.092.077-.014.155-.01.23.012l17.53 5.07 4.08-5c.069-.086.164-.146.27-.173s.218-.019.32.023c.49.21 12.2 5.2 14.38 10.44.106.213.147.452.119.688-.029.237-.126.46-.279.642-.53.64-1.89.88-3.81.88zm-32.4-6.82c12.93 3.2 33.66 7.4 35.42 5.35 0 0 .08-.1 0-.3-1.83-4.38-11.56-8.88-13.51-9.75l-4.06 5c-.063.073-.145.126-.237.155-.092.028-.19.03-.283.005l-17.23-5z"/></g><path d="m245.21 115.38c-5 8.41-9.94 17.07-15.76 25-5 6.77-1.53 14.71 2.65 21.17.77 1.18 1.72 2.42 3.1 2.73s4.62-.22 5.43-1.54c.57-.94.13-2.15-.14-3.1l-1.17-4.13c1.086-.35 2.205-.588 3.34-.71-1.37-1.12-2.55-2.36-3.84-3.56-.9-.85-2.58-2.33-2.37-3.74s4.32-4.49 5.38-5.4c2.326-2 4.583-4.097 6.77-6.29 4.82-4.8 10.25-10.27 12.76-16.73.332-.825.577-1.683.73-2.56 1.83-11.12-2.81-15.06-2.81-15.06z" fill="#fff"/><path d="m236.109 164.83c-.335.003-.67-.027-1-.09-1.53-.34-2.54-1.62-3.4-3-3.75-5.79-8.1-14.33-2.64-21.74 4.91-6.67 9.25-14 13.44-21.07l2.29-3.86c.021-.038.048-.071.08-.1l14.07-13.94c.091-.085.211-.133.335-.133.125 0 .245.048.335.133.2.17 4.84 4.25 3 15.52-.166.909-.42 1.8-.76 2.66-2.59 6.66-8.29 12.34-12.88 16.91-2.18 2.18-4.47 4.3-6.8 6.31l-.73.61c-1.19 1-4.35 3.59-4.48 4.48-.16 1.08 1.25 2.39 2.09 3.17l.13.13 1.14 1.09c.89.87 1.73 1.68 2.68 2.45.075.063.13.147.159.241.028.094.029.194.001.289-.027.093-.081.177-.156.239s-.167.101-.264.111c-.94.108-1.869.292-2.78.55l1.11 3.91c.226.51.343 1.062.343 1.62s-.117 1.11-.343 1.62c-.8 1.31-3.28 1.89-4.97 1.89zm9.5-49.14c-.76 1.26-1.513 2.527-2.26 3.8-4.21 7.1-8.55 14.44-13.5 21.15-5.09 6.91-.91 15.07 2.67 20.6.575 1.165 1.573 2.067 2.79 2.52 1.25.29 4.26-.28 4.89-1.31.287-.8.248-1.68-.11-2.45l-1.25-4.39c-.034-.125-.019-.258.042-.372.062-.113.165-.199.288-.238.759-.244 1.535-.435 2.32-.57-.65-.59-1.28-1.19-1.89-1.78l-1.12-1.08-.14-.12c-1-.92-2.62-2.45-2.39-4 .16-1.07 2-2.75 4.84-5.11l.71-.6c2.31-2 4.58-4.1 6.75-6.26 4.52-4.5 10.14-10.1 12.64-16.56.323-.793.561-1.617.71-2.46 1.47-8.93-1.35-13.12-2.33-14.26z" fill="#231f20"/><path d="m185.729 33.1602c1.861-1.6953 3.952-3.1193 6.21-4.23 2.07-.9239 4.364-1.2267 6.602-.8717 2.239.3551 4.326 1.3527 6.008 2.8717.571-.5 1.251-.8605 1.985-1.0531s1.503-.2121 2.245-.0569c5.11.84 8.26 5.69 10.14 10.13 1.51 3.57 1.67 7.41 2.87 11 1 3.08 3.15 5.66 4.73 8.58 3.677 6.5058 5.847 13.7539 6.35 21.21.53 10.43-3.22 21.2998-11.13 28.1098-3.241 2.768-7.094 4.727-11.24 5.714-4.147.988-8.468.976-12.61-.034-9.61-2.45-13.07-7.64-16.77-16.6798-3.19-7.81-3.67-16.33-4.79-24.59-1.63-11.91-.1-31.45 9.4-40.1z" fill="#fff"/><path d="m204.19 115.87c-2.165.002-4.321-.263-6.42-.79-9.6-2.45-13.29-7.64-17.12-17.0003-2.59-6.34-3.42-13.22-4.21-19.87-.2-1.62-.39-3.23-.61-4.84-1.55-11.4-.28-31.62 9.57-40.59 1.897-1.7265 4.028-3.1774 6.33-4.31 2.09-.9364 4.403-1.2633 6.671-.9431 2.268.3203 4.399 1.2746 6.149 2.7531.619-.4405 1.321-.7501 2.064-.91s1.51-.1667 2.256-.02c4.35.71 7.88 4.22 10.51 10.42.785 2.0398 1.361 4.1539 1.72 6.31.293 1.6122.683 3.2052 1.17 4.77.744 1.9536 1.721 3.8104 2.91 5.53.6 1 1.23 1.94 1.78 3 3.721 6.5702 5.912 13.8954 6.41 21.43.57 11.27-3.65 21.9303-11.31 28.5103-4.991 4.234-11.325 6.556-17.87 6.55zm-7.53-87.4603c-1.555.004-3.09.3452-4.5 1-2.216 1.0887-4.267 2.4859-6.09 4.15-9.56 8.71-10.77 28.52-9.25 39.72.22 1.61.42 3.23.61 4.85.79 6.59 1.61 13.4 4.15 19.62 3.78 9.2303 7.2 14.0003 16.44 16.3903 4.062.987 8.3.996 12.367.026 4.066-.97 7.844-2.891 11.023-5.606 7.42-6.38 11.52-16.7403 11-27.7003-.49-7.3841-2.64-14.5624-6.29-21-.54-1-1.15-2-1.75-2.91-1.227-1.7899-2.234-3.7203-3-5.75-.494-1.6021-.895-3.2315-1.2-4.88-.348-2.0903-.904-4.1406-1.66-6.12-2.49-5.86-5.77-9.17-9.76-9.82-.668-.1424-1.359-.126-2.019.0477-.66.1736-1.27.4998-1.781.9523-.096.0871-.221.1354-.35.1354-.13 0-.255-.0483-.35-.1354-2.057-1.9253-4.773-2.9884-7.59-2.97z" fill="#231f20"/><path d="m255.72 97.4894-27.27-25.09c-3.91-3.65-8.59-3.86-11.1-4-3.19-.2-65.15 0-65.15 0l-2.53 20.93 21.81 8c0 20.2196-.47 29.9996-.47 29.9996l52.35 4.65c4.116-7.722 7.311-15.902 9.52-24.37l8.67 6.6z" fill="#fff"/><path d="m223.36 132.37h-.05l-52.31-4.65c-.128-.015-.246-.078-.33-.177-.083-.098-.126-.224-.12-.353 0-.09.47-9.85.47-29.5902l-21.52-7.87c-.107-.038-.196-.1115-.255-.2081-.058-.0965-.081-.2102-.065-.3219l2.53-20.93c.014-.1203.072-.2311.162-.3121.09-.0809.207-.1264.328-.1279 2.53 0 62-.14 65.18 0h.18c2.55.15 7.28.45 11.23 4.14l27.26 25.09c.095.0864.154.2064.163.335.01.1285-.031.2557-.113.355l-14.17 16.6002c-.084.096-.2.156-.327.169-.126.013-.252-.022-.353-.099l-8.07-6.14c-2.226 8.251-5.376 16.225-9.39 23.77-.032.09-.09.168-.167.225-.076.057-.168.09-.263.095zm-51.83-5.61 51.54 4.59c4.017-7.617 7.148-15.67 9.33-24 .018-.081.056-.156.11-.218.055-.062.125-.109.202-.137.078-.028.162-.036.244-.023.081.013.158.047.224.098l8.3 6.31 13.52-15.8402-26.89-24.77c-3.69-3.45-8-3.72-10.61-3.88h-.18c-3-.18-59.09-.06-64.67 0l-2.43 20.09 21.43 7.86c.095.0361.178.1003.237.1841.059.0839.091.1835.093.2859.02 17.4902-.36 27.2502-.45 29.4502z" fill="#231f20"/><path d="m201.669 107.26c-.069.001-.138-.012-.202-.04s-.121-.068-.168-.12c-.047-.046-.084-.102-.109-.163-.026-.06-.039-.126-.039-.192s.013-.131.039-.192c.025-.061.062-.116.109-.163 3.78-3.54 9.55-9.3898 9.9-10.9998s-2.28-3.57-3.33-4.17c-.069-.0413-.127-.098-.171-.1656-.043-.0677-.07-.1445-.079-.2244-.004-.0807.009-.1613.04-.2359.032-.0745.079-.1409.14-.1941 1.7-1.3725 3.319-2.8416 4.85-4.4.35-.66-.69-5.27-1.87-9.15-.02-.0637-.027-.1307-.02-.1971.006-.0664.026-.1309.057-.1896.032-.0587.075-.1105.127-.1522.052-.0418.112-.0728.176-.0911.063-.0184.129-.0242.195-.017.065.0071.128.027.186.0586.057.0316.108.0742.149.1254s.072.11.09.173c.8 2.64 2.56 8.91 1.71 10-1.4 1.4579-2.889 2.8272-4.46 4.1 1.19.8 3.68 2.78 3.22 4.88-.54 2.46-9.21 10.6598-10.21 11.5798-.089.085-.206.135-.33.14z" fill="#231f20"/><path d="m189.7 107.26c-.09 0-.178-.024-.256-.069-.077-.046-.141-.112-.184-.191-.21-.39-5.27-9.6698-6-13.0998-.66-2.91 2.44-4.88 4-5.68-1.323-.8071-2.58-1.7165-3.76-2.72-1.16-1.16 2.14-5.08 5.1-8.17.044-.053.098-.0965.159-.1276.062-.0312.129-.0493.197-.0533.069-.004.138.0062.202.0299.065.0238.124.0606.173.1082.05.0476.089.105.116.1684.026.0635.039.1318.038.2006-.001.0687-.016.1366-.044.1992-.029.0626-.07.1186-.121.1646-2.92 3-5.25 6.17-5.09 6.81 1.378 1.0962 2.827 2.0985 4.34 3 .079.0489.142.1187.184.2016.041.0829.059.1758.05.2681-.008.0923-.042.1805-.097.2547-.056.0743-.131.1316-.217.1656-.05 0-4.94 2-4.27 4.93.75 3.3 5.9 12.7398 5.95 12.8398.042.076.063.162.061.249-.001.087-.026.172-.07.247-.044.074-.108.136-.183.179-.076.043-.161.065-.248.065z" fill="#231f20"/><path d="m191.35 77.0594 1.85 33.5896 15.61-34.2095z" fill="#231f20"/><path d="m193.2 111.15h-.1c-.109-.02-.208-.076-.281-.16-.072-.083-.114-.189-.119-.3l-1.84-33.5897c-.005-.0658.004-.1318.026-.1939.023-.062.058-.1186.104-.1661.089-.1007.215-.1618.35-.17l17.45-.62c.085-.0016.169.0187.245.059.075.0403.139.0991.185.171.042.073.064.1557.064.24 0 .0842-.022.167-.064.24l-15.61 34.2097c-.038.079-.095.147-.167.196s-.156.078-.243.084zm-1.32-33.6097 1.7 31.0597 14.42-31.5997z" fill="#231f20"/><path d="m172.239 67.6698s11.26 20.63 26.17 21.38 34.51-13.5 34.51-13.5-2.35-6.7-14.58-8.49c0 0-13.78 17.9-20.6 15.28s-11.08-15.83-11.08-15.83z" fill="#fe346e"/><path d="m192.609 66.5103-1.26 10.55s1.78 6.11 8.9 5.18 8.56-5.8 8.56-5.8l2.31-22.34s-2.88-1.49-5.23-13.57c0 0-5.32 5-15.49 2.6 0 0-3.17 10.22-3.07 15.68.09 5.3 5.2 7.61 5.28 7.7z" fill="#fff"/><path d="m198.819 82.84c-1.751.0201-3.463-.5149-4.891-1.5281s-2.499-2.4526-3.059-4.1119c-.01-.0662-.01-.1337 0-.2l1.22-10.22c-1.78-1-5.17-3.53-5.25-8-.1-5.48 3-15.42 3.09-15.84.037-.1202.119-.2216.229-.283s.239-.0783.361-.047c9.76 2.32 15-2.44 15-2.49.068-.059.149-.1001.236-.1193.088-.0193.178-.0161.264.0093.085.0276.16.0775.218.1444s.097.1484.112.2356c2.24 11.5 5 13.21 5 13.23.084.0493.153.1216.197.2084.044.0869.063.1846.053.2816l-2.3 22.39c-.08.3-1.63 5.27-9 6.24-.491.0605-.985.0939-1.48.1zm-7-5.83c.26.76 2.12 5.55 8.33 4.73 6.68-.87 8.08-5.25 8.14-5.44l2.26-22c-.83-.69-3.08-3.36-5-12.9-1.72 1.25-6.71 4.07-14.82 2.29-.6 2-3 10.4-2.91 15.08.07 4 3.11 6.23 4.91 7.2.084.0423.162.0962.23.16.054.0526.095.1171.119.1883.024.0713.032.1472.021.2217z" fill="#231f20"/><path d="m208.419 54.48c.332-.762.833-1.4382 1.466-1.9772.632-.5389 1.379-.9264 2.184-1.1328.519-.1932 1.074-.2718 1.627-.2303.552.0414 1.089.2018 1.573.4703.591.44 1.039 1.0453 1.286 1.7394s.284 1.4459.104 2.1606c-.212 1.0884-.713 2.0997-1.45 2.9283s-1.683 1.4439-2.74 1.7817c-1.426.3871-2.947.1929-4.23-.54" fill="#fff"/><path d="m210.999 60.9204c-1.053-.0056-2.087-.2847-3-.81-.064-.0289-.121-.0707-.167-.1229-.047-.0523-.082-.1137-.103-.1803s-.029-.137-.021-.2066c.008-.0695.03-.1367.065-.1972s.082-.1129.139-.1539.122-.0696.19-.084c.068-.0145.139-.0144.208.0003.068.0146.133.0434.189.0846 1.168.6565 2.545.8322 3.84.49.971-.3095 1.84-.875 2.515-1.6371.676-.7621 1.134-1.6925 1.325-2.6929.165-.6213.141-1.2777-.069-1.8852s-.597-1.1384-1.111-1.5248c-.422-.2309-.89-.3667-1.37-.3978s-.961.0432-1.41.2178c-.73.1856-1.409.5339-1.985 1.0188-.577.4848-1.037 1.0937-1.345 1.7812-.045.1246-.138.2262-.258.2824-.12.0563-.257.0626-.382.0176-.124-.0493-.224-.1443-.279-.2652-.056-.1209-.064-.2587-.021-.3848.358-.8379.905-1.5812 1.6-2.1712.694-.5901 1.516-1.0107 2.4-1.2288.587-.2216 1.216-.3113 1.841-.2629.626.0484 1.233.2337 1.779.5429.682.4922 1.2 1.1772 1.489 1.9668.289.7895.334 1.6474.131 2.4632-.231 1.1787-.776 2.2734-1.577 3.169-.8.8957-1.827 1.5592-2.973 1.921-.531.1628-1.084.247-1.64.25z" fill="#231f20"/><path d="m198.41 50.7197s-4.39 4.88-3.67 5.94 3.22.79 3.22.79" fill="#fff"/><g fill="#231f20"><path d="m197.25 57.9999c-.9 0-2.31-.15-2.92-1-.82-1.2 2-4.63 3.71-6.56.042-.0532.096-.097.156-.1289s.126-.0511.194-.0565.136.0032.201.0251c.064.022.124.0569.174.1027.051.0457.091.1013.12.1633.028.062.043.1292.045.1973.001.0682-.012.1359-.037.199-.026.0631-.065.1202-.113.168-2.08 2.32-3.77 4.82-3.61 5.35.39.57 1.89.64 2.74.55.131-.0141.262.0243.365.1067s.17.2022.185.3333c.014.1311-.024.2626-.107.3656-.082.103-.202.1693-.333.1844-.257.0139-.514.0139-.77 0z"/><path d="m203.686 51.389c.126-.6874-.166-1.3172-.653-1.4066-.488-.0895-.985.3952-1.111 1.0826-.126.6873.166 1.3171.653 1.4066.487.0894.985-.3953 1.111-1.0826z"/><path d="m196.333 49.8701c.132-.6889-.157-1.3231-.646-1.4165-.488-.0934-.99.3894-1.122 1.0783s.157 1.3231.645 1.4165.991-.3894 1.123-1.0783z"/><path d="m198.07 63.0003c-3.42 0-6.55-2.56-6.7-2.69-.059-.0389-.109-.0899-.146-.1494-.038-.0596-.062-.1264-.072-.1961-.01-.0698-.006-.1408.014-.2085.019-.0677.053-.1306.098-.1845.045-.0538.102-.0975.165-.1281.063-.0307.133-.0476.203-.0496s.141.0109.206.0378.123.0673.172.1184c0 0 3.78 3.09 7.22 2.33 1.71-.38 3.09-1.66 4.1-3.8.028-.06.067-.1139.116-.1585.049-.0447.106-.0792.169-.1015.062-.0223.128-.032.194-.0286s.131.02.191.0486c.059.0269.113.0655.158.1135.044.0479.079.1044.101.1659s.032.1269.029.1923c-.003.0653-.02.1294-.048.1883-1.16 2.44-2.77 3.91-4.8 4.36-.451.0961-.91.143-1.37.14z"/><path d="m192.61 66.5098s6.39 2.3 10.53.55c0 0-5.34 8.34-11.39 6.68z"/><path d="m193.389 74.4598c-.597.0011-1.192-.0762-1.77-.23-.117-.0325-.218-.1058-.286-.2067-.068-.1008-.097-.2225-.084-.3433l.87-7.23c.009-.0748.034-.1468.074-.2108.04-.0639.093-.1183.156-.1592.068-.032.141-.0486.215-.0486.075 0 .148.0166.215.0486.07 0 6.25 2.22 10.16.56.099-.0431.209-.0533.313-.029.105.0242.199.0815.269.1634.07.082.111.1842.118.2915.007.1072-.021.2139-.08.3041-.21.28-4.64 7.09-10.17 7.09zm-1.09-1.1c4.1.78 7.9-3.28 9.55-5.38-3.35.71-7.32-.34-8.81-.8z"/></g><path d="m239.999 112.77c-.492.483-.791 1.131-.84 1.82.079.505.289.981.61 1.38l1.29 1.88c.257.432.597.809 1 1.11 1.29.81 2.93-.2 4.08-1.19 5.212-4.467 9.869-9.544 13.87-15.12.37-.445.625-.974.74-1.54.12-1.06-.72-2.0004-1.5-2.7104s-1.81-2.27-2.64-2.52c-1.1-.34-1.64.61-2.46 1.4-1.686 1.64-3.353 3.3064-5 5.0004-3.15 3.38-6.15 6.89-9.15 10.49z" fill="#fff"/><path d="m243.139 119.749c-.46.005-.911-.123-1.3-.37-.472-.328-.867-.754-1.16-1.25l-1.29-1.88c-.376-.47-.618-1.033-.7-1.63.03-.814.37-1.587.95-2.16 3.16-3.87 6.18-7.31 9.23-10.51 1.59-1.67 3.26-3.3595 5-4.9995.15-.14.29-.3.43-.44.63-.68 1.34-1.44 2.53-1.08.86.4457 1.603 1.086 2.17 1.87.21.2557.434.4994.67.73.94.9 1.79 1.9 1.65 3.1395-.124.652-.413 1.262-.84 1.77-4.013 5.616-8.694 10.723-13.94 15.21-.904.925-2.111 1.493-3.4 1.6zm-2.72-6.66c-.409.389-.667.91-.73 1.47.076.417.259.806.53 1.13l1.28 1.88c.222.387.518.727.87 1 1 .64 2.47-.27 3.49-1.15 5.18-4.427 9.807-9.463 13.78-15 .322-.376.545-.826.65-1.31.09-.8-.59-1.5695-1.34-2.2895-.256-.2543-.5-.5213-.73-.8-.51-.58-1.27-1.47-1.72-1.6s-.83.09-1.5.8l-.46.48c-1.7 1.65-3.37 3.3395-4.95 4.9995-3.03 3.13-6.03 6.54-9.17 10.39z" fill="#231f20"/><path d="m145.849 88.1002c-.1.286-.138.5901-.111.8919s.119.5943.268.8578c.15.2634.355.4917.6.6695.245.1777.526.3008.823.3608l2.11.8501c.457.2197.954.3455 1.46.3699 1.52 0 2.33-1.79 2.74-3.26 1.859-6.6057 2.913-13.4116 3.14-20.27.066-.5737-.013-1.1547-.23-1.69-.49-1-1.7-1.25-2.76-1.43-.87-.15-2.76-.88-3.59-.63-1.1.33-1 1.42-1.27 2.53-.493 2.3-.943 4.61-1.35 6.93-.79 4.58-1.38 9.19-1.83 13.82z" fill="#fff"/><path d="m150.999 92.5997c-.55-.0333-1.089-.1689-1.59-.4001l-2.11-.8499c-.581-.1865-1.097-.5331-1.49-1-.433-.6943-.58-1.5296-.41-2.3301.48-5 1.08-9.5099 1.84-13.8599.4-2.29.85-4.62 1.35-6.94.05-.21.08-.41.11-.61.15-.91.32-1.94 1.51-2.3.97-.1031 1.951.0272 2.86.38.37.1.71.19 1 .24 1.28.22 2.54.58 3.11 1.69.26.6116.359 1.2792.29 1.94-.255 6.9194-1.346 13.7826-3.25 20.44-.82 2.93-2.2 3.59-3.2 3.62zm-4.61-4.46c-.115.5547-.042 1.1322.21 1.64.301.295.668.5144 1.07.64l2.11.8499c.391.201.821.3137 1.26.3301 1.21 0 1.9-1.6 2.27-2.89 1.842-6.5679 2.889-13.3328 3.12-20.15.061-.4908-.001-.9889-.18-1.45-.37-.72-1.37-1-2.39-1.17-.28 0-.65-.15-1.06-.26-.741-.2648-1.523-.3936-2.31-.38-.53.16-.64.54-.8 1.5 0 .21-.07.44-.12.66-.5 2.3-1 4.63-1.34 6.9-.81 4.33-1.41 8.84-1.89 13.78z" fill="#231f20"/><path d="m171.469 100.81c-.131-.008-.255-.067-.344-.164-.09-.097-.138-.225-.136-.356l.75-19.2905c.013-.13.073-.2509.169-.3395.095-.0885.221-.1386.351-.1405.066.0026.131.0181.19.0456.06.0276.114.0666.158.1149.045.0483.079.1049.102.1666s.033.1273.03.1929l-.74 19.2905c-.002.066-.018.131-.046.192-.028.06-.068.114-.118.159-.049.045-.107.079-.17.101s-.129.032-.196.028z" fill="#231f20"/><path d="m232.88 107.999c-.113-.002-.221-.041-.31-.11l-4.69-3.669c-.057-.039-.105-.088-.142-.146-.036-.057-.061-.122-.072-.189-.01-.068-.007-.137.01-.203.016-.066.047-.128.088-.182.042-.054.094-.099.154-.132s.126-.053.194-.06.136.001.201.022.125.055.177.099l4.7 3.67c.104.082.172.201.189.332s-.019.264-.099.369c-.048.061-.108.111-.177.146-.07.034-.146.053-.223.053z" fill="#231f20"/><path d="m150.379 33.3701c-.059.014-.121.014-.18 0-.06-.0232-.116-.0583-.163-.1031-.047-.0449-.085-.0987-.111-.1582-.026-.0596-.04-.1238-.041-.1888s.011-.1295.035-.1899c.322-.8467.96-1.5352 1.78-1.92-.973-.3169-1.839-.8987-2.5-1.68-.066-.1174-.101-.25-.101-.385s.035-.2676.101-.385c.54-1 4.32-1.35 6.52-1.46.066-.0054.133.0025.195.0234.063.021.121.0544.171.0983.049.044.089.0975.118.1573.028.0599.044.1248.046.191.006.132-.04.2611-.128.3599-.087.0989-.21.1599-.342.1701-1.894.0246-3.776.314-5.59.86 1.049.807 2.255 1.3861 3.54 1.7.133.0239.251.0994.327.2101.077.1106.107.2473.083.3799s-.099.2503-.21.3272c-.11.0769-.247.1067-.38.0828-.562-.0352-1.122.1045-1.601.3999-.48.2955-.857.7321-1.079 1.2501-.048.086-.119.1563-.206.2024-.087.0462-.186.0662-.284.0576z" fill="#231f20"/><path d="m151.08 28.4197h-.08l-4.16-.56c-.066-.0086-.129-.0299-.187-.063-.057-.033-.108-.077-.148-.1294-.081-.106-.118-.24-.1-.3726.017-.1326.086-.253.192-.3345.106-.0816.24-.1178.373-.1005l4.16.56c.132.0079.256.0682.344.1676.089.0994.134.2298.126.3624s-.069.2566-.168.3447c-.099.0882-.23.1332-.362.1253z" fill="#231f20"/><path d="m143 218.15c-.131-.013-.252-.077-.336-.178-.085-.101-.125-.231-.114-.362.05-.66 5.81-65.78 21-98.57.058-.119.161-.211.286-.256s.263-.039.384.016c.059.027.113.065.158.113.044.048.079.105.101.166.022.062.032.127.029.193-.003.065-.02.129-.048.188-15.12 32.63-20.86 97.58-20.92 98.23-.005.066-.023.13-.053.189-.03.058-.071.111-.122.153-.05.043-.108.075-.171.096-.063.02-.129.027-.194.022z" fill="#231f20"/><path d="m267.09 161.63 4.38.62 4.19 46.92-4.68 2.98z" fill="#fff"/><path d="m270.999 212.65c-.076-.001-.151-.018-.22-.05-.076-.04-.142-.099-.191-.17-.048-.071-.079-.154-.089-.24l-3.89-50.53c-.004-.074.007-.149.035-.218s.071-.131.125-.182c.055-.05.12-.088.191-.11.071-.023.146-.029.219-.02l4.38.62c.112.017.214.071.292.152s.127.186.138.298l4.19 46.92c.006.092-.012.183-.052.266-.041.082-.102.152-.178.204l-4.68 3c-.083.044-.176.064-.27.06zm-3.34-50.44 3.78 49.07 3.71-2.37-4.15-46.22z" fill="#231f20"/><path d="m204.179 54.8999c-2.57 0-4.12-2.18-4.81-3.91-1.12 1.19-3.72 3.47-6.92 3-4.2-.56-7.54-7.06-7.68-7.34-.045-.0753-.07-.1618-.07-.25s.025-.1747.07-.25c.05-.073.117-.1318.196-.1704s.167-.0557.254-.0496l28 2.32c.093.0104.181.0443.256.0986s.135.1272.174.2114c.034.0867.044.1809.028.2726-.016.0916-.057.1772-.118.2474-.18.2-4.37 5-8.58 5.72-.263.0548-.531.0883-.8.1zm-4.61-5.41h.1c.093.0175.179.062.246.1278.068.0658.114.15.134.2422 0 .18 1.24 4.59 4.81 4 2.91-.51 6-3.29 7.3-4.65l-26-2.16c1 1.72 3.6 5.61 6.47 6 3.63.48 6.56-3.3 6.59-3.34.04-.059.092-.1091.152-.147s.128-.0628.198-.073z" fill="#231f20"/><path d="m71.2196 236c-.0898-.001-.1777-.026-.2549-.071-.0773-.046-.1411-.111-.1851-.189-.0514-.09-.0723-.194-.0597-.297s.0581-.199.1297-.273c.3-.34 30.6704-34.16 25.81-47.35-3.18-8.62-33.21-18.12-33.51-18.22-.098-.029-.1844-.089-.2472-.169-.0628-.081-.0987-.179-.1028-.281-.0057-.104.0211-.207.0767-.295.0555-.088.1371-.156.2333-.195 8.13-3.32 15.92-7.2 21.81-10.21l1.75-.89c7.69-3.9 16.4204-8.31 19.0604-17.05.884-2.722.97-5.641.25-8.41-1.16-4.08-4.58-7.69-9.3704-9.91-9-4.15-20.9-4.93-29.62-5.5-.1248-.005-.2429-.058-.3302-.147-.0874-.089-.1374-.209-.1398-.333-.0037-.123.0381-.243.1175-.338.0793-.094.1906-.155.3125-.172 6.5686-.974 12.917-3.085 18.76-6.24 5.18-2.79 8.89-5.89 11.34-9.4803 7.2604-10.58 1.55-30.42-8-38.63-.0499-.0427-.0909-.0948-.1207-.1533-.0298-.0586-.0477-.1224-.0528-.1879-.0104-.1322.0323-.2631.1185-.3638.0862-.1008.2089-.1632.3411-.1736.1322-.0103.2631.0324.3639.1186 7.6 6.51 20.7904 7.45 25.0004 5.47 3.71-1.71 6.38-9.1 4.23-18-.031-.1273-.01-.2613.057-.3735s.176-.1935.303-.2265c.129-.0304.266-.0086.38.0605.114.0692.196.1803.23.3095 2.3 9.55-.63 17.26-4.78 19.18s-14.42 1.23-22.1204-2.95c3.5364 4.5403 6.0443 9.7949 7.3504 15.4 2 8.24 1.06 15.92-2.4704 21.0703-2.55 3.72-6.38 6.93-11.69 9.8-4.7738 2.589-9.8868 4.498-15.19 5.67 8.23.6 18.19 1.7 26 5.32 5.0604 2.34 8.6704 6.19 9.9104 10.55.78 2.962.69 6.087-.26 9-2.76 9.15-11.6904 13.66-19.5604 17.65l-1.75.89c-5.59 2.86-12.92 6.51-20.62 9.73 6 2 29.86 10.3 32.85 18.41 2.17 5.73-1.57 15.65-11.1 29.45-4.3283 6.176-8.9815 12.117-13.94 17.8 5.89-1 28.8204-4.93 37.6604-7.24.132-.034.273-.013.39.058.117.07.201.184.235.317.033.132.012.273-.058.39-.071.117-.185.201-.317.235-10.17 2.66-38.8504 7.45-39.1404 7.5z" fill="#d1d3d4"/><path d="m313.369 228.7c-.069.014-.14.014-.21 0-8.734-4.165-18.325-6.221-28-6-.064.001-.128-.01-.188-.033-.06-.024-.115-.059-.161-.103-.047-.045-.084-.098-.11-.157-.025-.059-.039-.123-.041-.187-.002-.066.008-.131.031-.193.022-.062.057-.118.101-.167.045-.048.099-.087.158-.114.06-.028.125-.043.19-.046 9.287-.219 18.507 1.618 27 5.38-3.09-5-5.61-10.42-4.85-16 .9-6.57 6.47-12.36 14.18-14.76 6.09-1.9 12.71-1.67 18.76-1.24-10.753-5.922-20.88-12.914-30.23-20.87-5.42-4.61-12.53-11.71-11.83-20.29.63-7.75 7.39-13.42 13.21-17.5 10.839-7.601 22.442-14.05 34.62-19.24-17.824.235-35.156-5.851-48.92-17.18-2.28-1.9-4.54-4-5.55-6.9-2.17-6.09 2.2-12.52 7-16.51 3.47-2.88 9.09-8.34 11.8-11-6.53 2.24-26.72 8.84-37.57 8.9-1.106.0531-2.209-.1641-3.212-.6328-1.004-.4687-1.878-1.1748-2.548-2.0572-4.38-5.7-1.76-18.89-.75-23.16-6.55 4.45-15.8 5.89-16.21 6-.065.0099-.131.0069-.195-.0088s-.124-.0439-.177-.0829c-.053-.0391-.098-.0881-.131-.1445-.034-.0563-.057-.1188-.067-.1838-.017-.1309.017-.2635.095-.3698.079-.1063.195-.1781.325-.2002.1 0 10.52-1.64 16.87-6.57.085-.0603.186-.0927.29-.0927s.206.0324.29.0927c.088.0587.155.1431.193.2416.037.0985.043.2063.017.3084-.05.17-4.61 17.31.25 23.63.571.7487 1.315 1.3468 2.169 1.7424s1.791.5767 2.731.5276c12.82-.07 39.05-9.47 39.32-9.56.107-.0383.223-.0394.33-.0031s.199.1079.26.2031c.062.0954.09.2094.077.3226-.013.1131-.065.2183-.147.2974-.08.09-8.71 8.71-13.43 12.62-4.56 3.78-8.72 9.81-6.72 15.42.94 2.62 3.07 4.65 5.25 6.46 14.287 11.778 32.459 17.791 50.95 16.86.121-.015.242.018.339.091.096.072.162.18.181.299.028.115.012.236-.043.341s-.146.186-.257.229c-13.044 5.341-25.453 12.116-37 20.2-5.64 3.95-12.18 9.43-12.78 16.76-.67 8.12 6.23 15 11.48 19.44 9.883 8.395 20.634 15.709 32.07 21.82.102.053.181.141.225.247s.05.224.015.333c-.03.11-.097.206-.19.272-.093.065-.206.097-.32.088-6.57-.5-14-1.07-20.71 1-6 1.87-12.52 6.91-13.49 13.95-.79 5.79 2.22 11.48 5.59 16.76.068.085.106.191.106.3s-.038.215-.106.3c-.092.077-.209.119-.33.12z" fill="#d1d3d4"/><path d="m239.19 224.28c-.113.001-.222-.036-.311-.105s-.152-.166-.179-.275l-22.43-86c-.017-.064-.02-.13-.011-.195s.031-.128.064-.185c.034-.057.078-.106.131-.146.052-.039.112-.068.176-.084.064-.018.13-.023.196-.014.066.008.129.03.186.063.057.034.106.079.146.132.039.054.067.114.082.179l22.43 86c.016.064.02.13.011.195s-.031.128-.064.185c-.034.056-.078.106-.131.145-.052.04-.112.069-.176.085z" fill="#fff"/></svg>