<svg fill="none" height="300" viewBox="0 0 400 300" width="400" xmlns="http://www.w3.org/2000/svg"><path d="m319.89 225.38h-239.7796c-.1327 0-.2598-.053-.3536-.147-.0938-.093-.1464-.221-.1464-.353 0-.133.0526-.26.1464-.354.0938-.093.2209-.146.3536-.146h239.7796c.133 0 .26.053.354.146.094.094.146.221.146.354 0 .132-.052.26-.146.353-.094.094-.221.147-.354.147z" fill="#d1d3d4"/><path d="m116.691 98.3303c-17.4503 12.6697-19.6903 39.1397-20.2103 59.0197-.45 18.69 3.7303 36.5 7.6203 54.73 3.81 17.83 18.28 27.55 35.54 31.55 25.63 6 53.72 6.64 79.77 3.77s26.74-28.56 24.12-49.58c-.72-5.8-4.81-9.45-9.23-12.6-5.45-3.88-10.28-8-14.11-13.59-12.34-18-13.07-39.21-21.31-58.69-6.53-15.4197-21.07-26.1597-37.88-25.6197s-32.72 2.58-44.31 11.01z" fill="#fff"/><path d="m189.801 249.55c-16.909.097-33.773-1.725-50.27-5.43-25.3-5.87-33.5-20.6-35.92-31.93l-.82-3.84c-3.7205-17.27-7.2305-33.58-6.8105-51 .23-9.25.85-21.28 3.76-32.32 3.2805-12.46 8.7205-21.32 16.6605-27.0902 12.25-8.94 29.43-10.63 44.6-11.12 16.38-.56 31.42 9.65 38.31 25.9302 3.23 7.62 5.33 15.62 7.37 23.35 3.16 12 6.42 24.35 13.9 35.24 3.31 4.83 7.49 8.86 14 13.48 4.46 3.18 8.69 7 9.44 12.94 2.4 19.22.43 32.53-6 40.7-4.24 5.37-10.48 8.54-18.55 9.43-9.852 1.099-19.757 1.653-29.67 1.66zm-72.8-150.8202c-16.77 12.1902-19.4905 37.7402-20.0005 58.6302-.41 17.31 3.0805 33.57 6.7905 50.78l.82 3.84c2.39 11.02 10.39 25.42 35.14 31.17 24 5.56 51.5 6.85 79.6 3.75 7.8-.86 13.81-3.91 17.88-9.06 6.27-8 8.17-21 5.81-40-.7-5.61-4.76-9.2-9-12.25-6.59-4.69-10.85-8.8-14.23-13.72-7.57-11-10.86-23.5-14-35.55-2-7.7-4.12-15.66-7.32-23.23-6.8-15.8502-21.49-25.7802-37.43-25.2702-15.06.49-32.06 2.18-44.06 10.91z" fill="#231f20"/><path d="m162.44 196.9c-3.104-.005-6.205-.182-9.29-.53-5.922-.677-11.761-1.947-17.43-3.79-7.74-2.51-12.94-5.37-16.84-9.27-5.93-5.93-8.19-13.93-9-19.59-2-13.12 0-27.6 1.44-35.06.933-5.112 2.976-9.958 5.984-14.196s6.908-7.766 11.426-10.334c6.27-3.65 13.75-5.9999 22.86-7.1999 9.54-1.25 16.41-.23 21.62 3.2099 8.49 5.61 10.91 16.41 12.66 27l3 18c.73 4.48 1.73 10.62 5.27 13.53 1.244.941 2.585 1.745 4 2.4 2.44 1.24 5 2.53 6.39 5.32 1.76 3.46 2.5 9.3.69 13.1-2 4.21-6.07 7-9 8.69-9.76 5.75-21.28 8.72-33.78 8.72zm-9.17-1.53c15.84 1.79 30.5-1 42.41-8.07 2.78-1.65 6.69-4.3 8.57-8.26 1.67-3.52 1-9-.68-12.22-1.28-2.5-3.55-3.65-6-4.88-1.479-.682-2.878-1.527-4.17-2.52-3.84-3.14-4.87-9.5-5.63-14.14l-3-18c-1.71-10.36-4.07-20.93-12.22-26.32-5-3.2899-11.65-4.2599-20.94-2.9999-9 1.18-16.34 3.4899-22.49 7.0699-4.392 2.497-8.184 5.926-11.107 10.047-2.924 4.121-4.908 8.832-5.813 13.803-1.38 7.4-3.4 21.76-1.44 34.73.83 5.52 3 13.3 8.77 19 3.78 3.79 8.85 6.57 16.44 9 5.607 1.822 11.383 3.075 17.24 3.74z" fill="#d1d3d4"/><path d="m119.46 178.64c-.099.001-.196-.028-.278-.084-.082-.055-.146-.134-.182-.226-.05-.122-.049-.259.001-.381.051-.121.147-.218.269-.269 7.48-3.09 12.45-2.36 12.66-2.33.13.022.247.094.325.2s.112.239.095.37c-.022.13-.094.247-.2.325-.107.078-.239.112-.37.095-.05 0-4.93-.71-12.13 2.26-.059.028-.124.042-.19.04z" fill="#d1d3d4"/><path d="m218.91 106.68.66 34.13-12.7 7.19 3.22-40.02z" fill="#fff"/><path d="m206.871 148.5c-.069.001-.138-.014-.201-.041-.064-.028-.121-.068-.168-.119s-.083-.111-.105-.176c-.023-.065-.032-.135-.026-.204l3.22-40c.008-.111.054-.217.13-.299.077-.082.179-.135.29-.151l8.83-1.3c.07-.01.142-.005.211.014s.133.052.189.096c.053.046.097.102.126.166s.044.134.044.204l.66 34.13c.003.09-.018.178-.063.256-.044.078-.109.142-.187.184l-12.7 7.19c-.077.041-.164.058-.25.05zm3.68-40.08-3.11 38.68 11.63-6.58-.65-33.26z" fill="#231f20"/><path d="m213.53 223.05s-2.63 29.95-1.53 31.95 26.8 5.84 27.27 3.1-12.6-8.12-12.6-8.12l2.88-24.51" fill="#fff"/><path d="m235.34 259.48c-7.2 0-22.72-2.36-23.79-4.28s1.04-27.2 1.45-32.2c.011-.133.074-.256.175-.342s.233-.129.365-.118c.133.01.256.073.342.174.087.102.129.233.118.366-1 11.48-2.33 30.22-1.61 31.62.93 1.23 17.38 4.24 24.28 3.74 1.84-.13 2.05-.49 2.06-.49.24-1.44-6.2-5-12.3-7.56-.1-.041-.184-.115-.239-.209-.054-.094-.075-.204-.061-.311l2.87-24.5c.018-.132.086-.252.191-.334s.237-.121.369-.106c.066.007.129.027.187.06.057.032.107.076.148.128.04.053.069.112.085.176.017.064.02.131.01.196l-2.83 24.13c3.5 1.46 13 5.7 12.55 8.52-.14.79-1.13 1.05-1.87 1.18-.827.12-1.663.174-2.5.16z" fill="#231f20"/><path d="m175.5 230.91s-3.61 26.49-1.74 27.25 27.26 2 26.87-.26-12.94-6.49-12.94-6.49l4.53-25.82" fill="#fff"/><path d="m190.62 259.65c-7.3 0-16-.59-17.05-1-1.94-.79.07-17.74 1.44-27.78.018-.131.086-.25.191-.33.105-.081.238-.117.369-.1.132.02.251.091.331.198.081.106.116.24.099.372-1.68 12.29-2.87 25.66-2 26.76 2.13.85 24.31 1.48 26.08.15-.52-1.25-6.83-4.06-12.58-6-.111-.04-.205-.118-.266-.22-.06-.102-.083-.222-.064-.34l4.54-25.83c.025-.13.099-.246.207-.322.108-.077.242-.108.373-.088.13.025.245.099.32.208s.103.242.08.372l-4.46 25.41c3.4 1.17 12.47 4.49 12.87 6.73.025.154.006.311-.054.454s-.159.267-.286.356c-.93.74-5.22 1-10.14 1z" fill="#231f20"/><path d="m203.471 177.8c.62 2.13 6 57.8 6 57.8h21.84s10.05-55.91 6.75-69.71c-2.27-9.5-12.59-14.14-23.09-11.06-15.63-.61-31.7-2.61-31.7-2.61z" fill="#231f20"/><path d="m231.35 236.101h-21.84c-.126 0-.247-.047-.34-.132-.092-.086-.15-.203-.16-.328-1.85-19-5.44-55-6-57.61l-20.09-25.5c-.055-.082-.084-.177-.084-.275s.029-.194.084-.275c.048-.088.122-.159.211-.204.09-.044.19-.061.289-.046.16 0 16.17 2 31.58 2.6 2.67-.843 5.481-1.14 8.268-.874 2.786.267 5.491 1.091 7.952 2.424 1.848 1.054 3.459 2.477 4.733 4.18 1.275 1.703 2.186 3.65 2.677 5.72 3.29 13.74-6.33 67.62-6.74 69.9-.022.124-.089.236-.189.314-.1.077-.225.115-.351.106zm-21.39-1h21c.9-5.13 9.77-56.17 6.68-69.09-.451-1.942-1.301-3.769-2.495-5.365-1.195-1.596-2.708-2.926-4.445-3.905-2.358-1.27-4.947-2.051-7.614-2.296-2.667-.246-5.355.049-7.906.866h-.16c-13-.51-26.51-2-30.54-2.47l19.42 24.63c.041.052.068.114.08.18.57 2.08 5.43 51.77 6.02 57.45z" fill="#231f20"/><path d="m144.501 155.21s-15.33 16.2-4.71 29 40.9-.66 40.9-.66l-7.56 50.29 22.18-.23s23.12-68.47 20.46-75.55-21.61-10.35-21.61-10.35z" fill="#231f20"/><path d="m173.13 234.39c-.072 0-.142-.016-.208-.045-.065-.029-.124-.072-.172-.125-.045-.055-.078-.12-.097-.188-.019-.069-.023-.141-.013-.212l7.42-49.41c-5.087 2.09-10.356 3.707-15.74 4.83-11.83 2.36-20.44.75-24.91-4.66-10.78-13 4.57-29.55 4.72-29.71.076-.082.179-.135.29-.15l49.67-7.45c.053-.01.107-.01.16 0 .78.13 19.25 3.4 22 10.67s-19.5 73.08-20.45 75.88c-.029.1-.089.187-.172.248-.084.062-.185.094-.288.092l-22.18.23zm7.56-51.29c.108-.001.214.035.3.1.072.053.128.125.162.208s.043.174.028.262l-7.47 49.72 21.24-.22c8-23.72 22.4-69.44 20.35-74.88-2.45-6.51-19.82-9.78-21.14-10l-49.42 7.41c-1.36 1.52-14.3 16.48-4.56 28.26 10.26 12.42 40-.66 40.3-.8.065-.034.136-.055.21-.06z" fill="#231f20"/><path d="m220.37 108.16c-1.22-13.2195-5.79-15.9395-5.79-15.9395-3.7-13.69-21.74-10.7-21.74-10.7s-24.33 3.14-33.16 18.08c-5.85 9.8895-.85 23.2995-3.4 36.4795-1.3 6.71-13.83 19.301-13.83 19.301l62.36-5s5.88-23.711 8.46-41.651z" fill="#00bdaa"/><path d="m207.541 97.2304c-2.1-1.43-4.09-2.85-6.74-3.34-3.92-.72-8-.16-11.92-1-4.25-.93-8.43-2.89-12.43-4.58-1.17-.49-.62 1.55-1.33.49-2.48-3.72-.51-8.56.86-12.24 3.046-8.5659 7.245-16.6771 12.48-24.11 2.79-3.83 13.3-17.75 17.75-8.42-1-2.1 7.91-2.87 9.07-2.77 10.83.89 16.57 12.82 15.46 22.62-.81 7.11-3.08 13.64-2.21 20.92.38 3.21 1.17 6.54.17 9.61-1.21 3.7-4.95 6.2196-8.81 6.6896-3.921.294-7.825-.765-11.06-2.9996-.44-.29-.83-.58-1.29-.87z" fill="#fff"/><path d="m218.31 101.65c-3.48-.11-6.859-1.198-9.75-3.1399l-1.3-.87-.32-.21c-1.835-1.4391-3.961-2.4627-6.23-3-1.829-.2896-3.678-.44-5.53-.45-2.151.0019-4.297-.199-6.41-.6-3.646-.9318-7.198-2.2006-10.61-3.79l-1.9-.81c-.1 0-.14 0-.14 0s0 .15-.05.23-.17.58-.56.63-.67-.32-.8-.52c-2.53-3.78-.77-8.48.64-12.25l.16-.45c3.053-8.6139 7.276-16.767 12.55-24.23 4.08-5.6 9.9-12.19 14.46-11.76.737.0869 1.443.3469 2.06.7588s1.127.9641 1.49 1.6112c1.75-1.66 8.5-2.06 9.25-2 2.148.189 4.234.8195 6.126 1.8519 1.893 1.0325 3.552 2.4447 4.874 4.1481 3.829 4.8802 5.598 11.0635 4.93 17.23-.27 2.32-.69 4.6-1.1 6.81-.87 4.7-1.69 9.14-1.12 14 .07.58.16 1.17.24 1.76.38 2.68.77 5.45-.09 8.07-1.2 3.68-4.91 6.5099-9.22 6.9999-.55.028-1.101.021-1.65-.02zm-42.19-13.9999c.182 0 .363.0374.53.11l1.9.82c3.36 1.5814 6.858 2.8501 10.45 3.79 2.055.3826 4.14.5734 6.23.57 1.905.0149 3.807.1686 5.69.46 2.406.5846 4.659 1.6755 6.61 3.2l.31.21c.42.29.84.58 1.28.86 2.51 1.6 6.42 3.4099 10.73 2.8899 3.93-.47 7.31-2.9999 8.39-6.3399.79-2.4.41-5 .05-7.62-.08-.59-.17-1.19-.24-1.78-.59-5 .28-9.72 1.13-14.3.4-2.18.82-4.45 1.08-6.74.645-5.8962-1.042-11.8107-4.7-16.48-1.244-1.5851-2.8-2.8981-4.571-3.8579-1.772-.9598-3.722-1.5459-5.729-1.7221-1.23-.11-7.71.59-8.56 1.82-.027.0324-.041.073-.041.115s.014.0827.041.115c.029.0597.045.1245.049.1906.003.0661-.006.1323-.029.1946-.022.0623-.057.1196-.101.1685-.045.0489-.099.0884-.159.1163-.059.0285-.123.0449-.188.0482-.066.0033-.131-.0065-.192-.0288-.062-.0224-.118-.0569-.166-.1014-.048-.0446-.087-.0983-.114-.158-.85-1.79-1.94-2.73-3.32-2.86-3.19-.29-8 3.74-13.56 11.36-5.218 7.3942-9.397 15.4695-12.42 24l-.17.45c-1.28 3.44-2.87 7.69-.95 11 .096-.1564.235-.2815.4-.36.106-.0533.222-.084.34-.09z" fill="#231f20"/><path d="m225.711 66.0001s-.43 11.3001-5.16 18.1101c-1.269 1.9262-3.07 3.4417-5.185 4.3616-2.115.9198-4.452 1.2041-6.725.8183l-5.34 13.2799s-2.67 6.82-10.57 2.43c-2.288-1.276-4.213-3.115-5.591-5.3428-1.379-2.2276-2.167-4.7701-2.289-7.3871l8.88-24.82s11.62-1.63 14.32-10.74c0-.05 9.04 9.89 17.66 9.29z" fill="#fff"/><path d="m197.611 106.93c-1.811-.073-3.573-.606-5.12-1.55-2.356-1.33-4.338-3.234-5.761-5.5345-1.423-2.3007-2.242-4.9239-2.379-7.6257-.011-.0562-.011-.1138 0-.17l8.88-24.82c.03-.0851.084-.16.154-.2165.071-.0564.156-.0923.246-.1035.11 0 11.33-1.71 13.92-10.39.025-.0831.071-.1581.134-.2177.064-.0596.141-.1018.226-.1223.086-.0219.176-.0194.261.0071.084.0265.16.0759.219.1429.09.1 9 9.74 17.25 9.12.071-.0053.142.0045.209.0286.068.0241.129.062.181.1114.051.0484.091.1075.117.1732s.037.1363.033.2068c0 .46-.49 11.52-5.25 18.38-1.295 1.936-3.104 3.4721-5.224 4.435s-4.467 1.3145-6.776 1.015l-5.19 12.9102c-.381.872-.931 1.66-1.617 2.319-.687.659-1.497 1.176-2.383 1.521-.684.245-1.404.373-2.13.38zm-12.26-14.6302c.147 2.5137.926 4.9498 2.262 7.0837 1.337 2.1335 3.19 3.8965 5.388 5.1265 2.49 1.39 4.68 1.76 6.5 1.1 1.505-.611 2.714-1.784 3.37-3.27l5.34-13.2902c.04-.1118.121-.2044.227-.2598.105-.0555.227-.0698.343-.0402 2.179.3763 4.421.1028 6.447-.7863 2.025-.8891 3.744-2.3545 4.943-4.2137 4-5.76 4.88-15 5-17.29-7.4.2-14.8-6.73-16.91-8.87-2.92 7.91-12.32 9.92-14.17 10.24z" fill="#231f20"/><path d="m199.001 67.5302s-.4-10.87-7.36-6.91-2.78 13 1.54 14.14" fill="#fff"/><g fill="#231f20"><path d="m193.2 75.2606h-.12c-2.65-.68-5.09-3.91-5.55-7.36-.254-1.5305-.014-3.102.683-4.4877.697-1.3858 1.817-2.5142 3.197-3.2223 1.86-1 3.48-1.21 4.81-.47 3 1.69 3.29 7.56 3.3 7.8-.002.0657-.018.1302-.045.1899-.028.0597-.067.1133-.115.1579-.049.0446-.105.0792-.167.1019s-.127.033-.193.0303c-.066.004-.132-.0053-.194-.0275-.062-.0221-.12-.0567-.168-.1015-.049-.0449-.088-.0991-.115-.1594s-.042-.1255-.043-.1916c0 0-.24-5.55-2.79-7-1-.56-2.29-.4-3.82.47-1.204.6142-2.181 1.5954-2.79 2.8016-.61 1.2062-.82 2.575-.6 3.9084.41 3 2.56 5.94 4.81 6.52.133.0172.253.0864.335.1924.081.106.117.24.1.3726s-.086.2529-.192.3345-.24.1177-.373.1005z"/><path d="m215.411 82.0703c-1.9 0-4.22-1.72-4.32-1.8-.106-.0795-.177-.198-.195-.3293-.019-.1312.015-.2646.095-.3707.081-.1039.199-.1723.329-.191.131-.0186.264.014.371.091.65.49 2.61 1.71 3.91 1.59.54-.38.06-4.29-1-8.36-.017-.0656-.021-.134-.012-.2012s.032-.1319.066-.1904c.035-.0585.08-.1097.134-.1506s.116-.0707.182-.0878c.065-.017.134-.021.201-.0117.067.0094.132.0319.19.0663.059.0343.11.0799.151.134s.071.1158.088.1814c.34 1.26 2 7.61.92 9.16-.083.127-.194.2334-.324.3114-.129.0779-.275.1254-.426.1386z"/><path d="m212.391 85.1806c-2.02.0322-3.999-.577-5.65-1.74-2.05-1.4626-3.5-3.6194-4.08-6.07-.003-.0657.007-.1312.03-.1929s.057-.1183.102-.1666c.044-.0483.098-.0874.158-.1149.059-.0275.124-.043.19-.0456.13-.0002.255.0494.35.1386.095.0893.152.2114.16.3414.586 2.1746 1.921 4.0727 3.77 5.36 2.41 1.66 5.47 1.93 9.08.8.065-.0197.134-.0263.202-.0194.069.007.135.0273.195.0598s.114.0765.157.1297c.043.0531.076.1142.096.1799.019.0656.026.1346.019.2028s-.027.1343-.06.1947c-.032.0603-.076.1137-.13.157-.053.0434-.114.0758-.179.0955-1.427.4515-2.914.6841-4.41.69z"/><path d="m208.64 89.2406s-7.45-2-11.11-4.64c0 0 .24 12.26 7 14.91z"/><path d="m204.54 100c-.06.01-.12.01-.18 0-7-2.75-7.32-14.86-7.33-15.37-.005-.0933.018-.186.066-.2662.048-.0801.119-.1441.204-.1838.077-.0511.167-.0784.26-.0784.092 0 .183.0273.26.0784 3.54 2.59 10.88 4.53 11 4.55.068.0193.132.0522.187.097.055.0447.1.1002.133.163.027.0649.041.1346.041.205s-.014.1401-.041.205l-4.14 10.29c-.039.0906-.103.168-.184.223-.082.055-.178.0853-.276.087zm-6.45-14.43c.22 2.83 1.29 10.9 6.18 13.27l3.7-9.28c-3.443-.9205-6.761-2.257-9.88-3.98z"/><path d="m212.015 69.6583c.351-1.0302.16-2.0266-.426-2.2256-.586-.1991-1.344.4747-1.694 1.5048s-.159 2.0266.426 2.2256c.586.1991 1.344-.4747 1.694-1.5048z"/><path d="m221.825 72.9952c.35-1.0302.159-2.0266-.426-2.2256-.586-.1991-1.345.4747-1.695 1.5048-.35 1.0302-.159 2.0266.427 2.2256.585.1991 1.344-.4747 1.694-1.5048z"/></g><path d="m203.101 143.35c-.24.41-6.51 9.82 5.39 9.06s23.06-28 26.24-30.76 10.06-13.13 10.33-15.64-7.8 2.39-7.8 2.39-29.4 26.66-34.16 34.95z" fill="#fff"/><path d="m207.201 153c-3 0-5-.76-5.92-2.27-1.42-2.36.23-5.72 1.34-7.51l.48.18-.44-.25c4.75-8.27 33.06-34 34.26-35.07 2.05-1.25 6.79-3.93 8.19-3 .172.116.307.28.387.472s.102.404.063.608c-.29 2.65-7.16 13.09-10.5 16-.81.7-2.36 3.43-4.15 6.59-5 8.87-13.47 23.73-22.39 24.3-.46-.12-.9-.05-1.32-.05zm37.11-47.18c-.95 0-3.89 1.3-6.79 3.06-.22.21-29.32 26.64-34 34.76l-.06.1c-.8 1.29-2.52 4.5-1.33 6.47.82 1.38 3 2 6.32 1.75 8.37-.54 16.64-15.1 21.58-23.79 2-3.51 3.43-6.05 4.37-6.85 3.06-2.63 9.9-12.93 10.16-15.31 0-.08 0-.13 0-.13-.069-.064-.157-.102-.25-.11z" fill="#231f20"/><path d="m234.291 87.1804 14.51-1.03-6.61 30.9596-15.59 1.87z" fill="#231f20"/><path d="m226.6 119.48c-.071-.001-.142-.016-.207-.045-.066-.03-.125-.072-.173-.125-.054-.06-.092-.133-.111-.211-.019-.079-.019-.161.001-.239l7.7-31.8002c.024-.1035.081-.1966.162-.2651.081-.0686.182-.1089.288-.1149l14.51-1c.077-.0051.154.0076.225.037.071.0295.135.075.185.133.051.058.088.1271.107.2019.019.0747.02.1529.003.2281l-6.61 31.0002c-.022.101-.075.194-.152.264s-.174.114-.278.126l-15.59 1.88zm8.09-31.8302-7.44 30.7502 14.53-1.75 6.4-29.9502z" fill="#231f20"/><path d="m239.371 106.32c-.623 1.794-1.039 3.652-1.24 5.54-.079.45-.034.914.13 1.34.197.332.48.605.82.79 1.533.818 3.266 1.188 5 1.07.904.051 1.802-.179 2.57-.66.609-.506 1.054-1.181 1.28-1.94.662-2 .837-4.129.51-6.21-.144-1.032-.423-2.041-.83-3-.567-.814-1.078-1.666-1.53-2.55l-.83 3c-2.25-.38-5.03.17-5.88 2.62z" fill="#fff"/><path d="m243.731 115.561c-1.712.081-3.413-.317-4.91-1.15-.42-.234-.767-.58-1-1-.22-.511-.283-1.075-.18-1.62.197-1.927.62-3.823 1.26-5.65.9-2.61 3.71-3.27 6-3l.71-2.58c.006-.066.024-.13.055-.188.031-.059.072-.111.123-.153s.109-.074.172-.094c.063-.019.129-.026.195-.02.065.005.129.024.188.055.058.03.11.072.152.123.042.05.074.109.094.172s.027.129.021.195c.255.468.536.922.84 1.36.238.318.455.652.65 1 .429 1.01.721 2.072.87 3.16.338 2.158.153 4.367-.54 6.44-.263.851-.767 1.608-1.45 2.18-.855.536-1.853.797-2.86.75zm.3-11.49c-1.78 0-3.57.63-4.19 2.42-.608 1.754-1.014 3.573-1.21 5.42-.072.357-.044.727.08 1.07.152.248.37.449.63.58 1.461.784 3.117 1.131 4.77 1 .802.042 1.598-.153 2.29-.56.524-.453.906-1.046 1.1-1.71.643-1.932.807-3.991.48-6-.128-.999-.394-1.975-.79-2.9-.05-.11-.35-.55-.56-.88l-.36-.54-.5 1.8c-.033.116-.107.216-.208.283-.101.066-.223.093-.342.077-.405-.052-.813-.072-1.22-.06z" fill="#231f20"/><path d="m161.891 121.41s15 37.7 22.24 36.9 32.93-25.41 39.29-31.45 16.86-14.65 18.83-18.85-.67-7.68-2.52-7.27-9.44 3.19-9.44 3.19 2.31-5.9298 1.35-6.1998-5.34 2.9998-6.44 12.1198l-35 24.25-8.55-23.1" fill="#fff"/><path d="m183.92 158.82c-7.51 0-21-33.38-22.5-37.23-.046-.125-.041-.262.013-.384.054-.121.154-.217.277-.266.123-.045.26-.04.38.014.119.054.213.153.26.276 4.08 10.26 15.78 36.59 21.53 36.59h.19c4.57-.5 17.45-10.81 38.3-30.64l.71-.68c1.67-1.59 3.6-3.32 5.64-5.16 5.47-4.93 11.67-10.52 13.08-13.53.481-.885.707-1.886.654-2.892s-.383-1.978-.954-2.808c-.174-.282-.421-.511-.715-.665-.294-.153-.624-.224-.955-.205-1.8.4-9.29 3.14-9.36 3.17-.09.034-.188.04-.282.02-.095-.021-.181-.069-.248-.138-.068-.068-.114-.155-.134-.25-.019-.094-.011-.192.024-.282.763-1.765 1.284-3.625 1.55-5.5298-.92.26-4.68 3.3998-5.68 11.6898-.01.07-.034.136-.07.196s-.084.113-.14.154l-35 24.25c-.064.042-.137.069-.213.08-.076.01-.154.003-.227-.02-.071-.023-.136-.062-.19-.114-.053-.052-.095-.115-.12-.186l-8.54-23.07c-.041-.123-.032-.258.025-.375s.157-.207.28-.252c.122-.044.257-.039.376.015.118.053.211.151.259.272l8.31 22.46 34.3-23.76c.84-6.58 3.5-10.4998 5.54-11.8698.421-.3416.96-.5033 1.5-.45.104.0322.2.0852.282.1557.083.0705.15.157.198.2543.43.86-.44 3.5998-1.11 5.4398 2.15-.78 7-2.51 8.48-2.84.513-.065 1.034.015 1.504.23.47.216.871.559 1.156.99.697.974 1.107 2.124 1.183 3.319s-.185 2.387-.753 3.441c-1.5 3.18-7.51 8.6-13.32 13.84-2 1.83-4 3.57-5.62 5.15l-.71.68c-7.84 7.44-31.67 30.11-38.88 30.9z" fill="#231f20"/><path d="m208.001 195.15c-.063.011-.127.011-.19 0-.122-.051-.219-.147-.271-.268-.053-.121-.056-.258-.009-.382.12-.31 12.06-30.84 8.59-38-.116-.281-.291-.534-.513-.741-.223-.208-.488-.364-.777-.459-.066-.018-.127-.049-.181-.091s-.098-.095-.132-.154c-.033-.059-.055-.125-.063-.193-.008-.067-.003-.136.016-.202.018-.065.049-.127.091-.18.043-.054.095-.099.154-.132.06-.033.125-.055.193-.063.067-.008.136-.003.202.015.424.132.814.354 1.143.651.33.297.592.662.767 1.069 3.66 7.5-8.06 37.49-8.56 38.76-.03.102-.09.191-.173.257-.082.066-.182.106-.287.113z" fill="#fff"/><path d="m212.611 116.16h-.08c-.066-.009-.129-.032-.186-.067-.056-.034-.105-.08-.144-.135-.038-.054-.065-.115-.079-.18s-.014-.132-.001-.198c.782-4.361.88-8.818.29-13.21-.023-.132.008-.268.086-.378s.196-.184.329-.207c.132-.022.268.009.378.087s.184.196.207.328c.621 4.504.52 9.079-.3 13.55-.02.118-.081.224-.173.3-.092.075-.208.115-.327.11z" fill="#231f20"/><path d="m177.91 71.71c-3.42 7.7-9.44 22 4.41 23 2.901.2042 5.769-.7242 8-2.59 4-3.4-.19-12-2.21-15.95" fill="#fff"/><path d="m183.14 95.2504c-.29 0-.57 0-.86 0-3.88-.29-6.56-1.64-8-4-3.23-5.4.92-14.71 3.15-19.71.021-.0671.056-.1289.103-.1815.046-.0526.103-.0948.167-.1238s.134-.0442.204-.0447c.07-.0004.14.014.204.0423s.122.0698.169.1218c.048.0521.083.1135.105.1803.022.0667.03.1374.022.2072-.007.0699-.029.1375-.064.1984-2 4.5-6.16 13.84-3.21 18.79 1.24 2.07 3.66 3.26 7.2 3.52 2.785.1971 5.536-.6998 7.67-2.5 3.88-3.27-.8-12.36-2.34-15.34-.059-.1181-.069-.2549-.028-.3804.041-.1256.13-.2297.248-.2896.058-.0311.121-.0504.186-.0566.065-.0063.131.0006.193.0202.063.0195.121.0514.171.0938.05.0423.09.0942.12.1526 2.83 5.49 6.12 13.17 2.09 16.56-2.101 1.7645-4.756 2.7344-7.5 2.74z" fill="#231f20"/><path d="m180.69 184.1c-.086 0-.171-.022-.246-.064s-.138-.103-.184-.176c-.035-.056-.057-.119-.068-.184-.01-.065-.007-.132.009-.196s.044-.125.084-.178c.039-.053.088-.098.145-.132.07 0 7-4.25 8.79-7 .072-.111.185-.189.314-.217s.265-.004.376.067c.11.076.187.191.213.322s0 .267-.073.378c-1.94 3-8.81 7.15-9.1 7.33-.082.037-.171.054-.26.05z" fill="#fff"/><g fill="#d1d3d4"><path d="m283.001 181.1c-.124-1.82.264-3.639 1.12-5.25.843-1.064 1.627-2.172 2.35-3.32 1-2.14.3-4.64.54-7 .2-1.962 1.065-3.797 2.45-5.2 1.22-1.24 2.8-2.09 4-3.38 1.92-2.12 2.47-5.09 3.56-7.74 1.555-3.727 4.237-6.874 7.67-9-2.1 4.21 2.67 9.56.51 13.73-.68 1.32-2 2.29-2.49 3.69-1.21 3.38 2.82 7 1.53 10.4-.64 1.68-2.44 2.65-3.27 4.24-1.13 2.14-.25 4.74-.34 7.16-.12 3.34-2.16 6.33-4.57 8.63-1.5 1.45-3.17 2.69-4.8 4-1.94 1.56-2.76 3.19-4.47.69-2.366-3.434-3.683-7.481-3.79-11.65z"/><path d="m280.879 183c.62-2.58 1.07-5.38 0-7.82-1.19-2.76-4.15-4.7-4.5-7.69-.23-1.95.76-3.93.37-5.86s-2-3.24-3.26-4.66c-2.972-3.297-4.736-7.508-5-11.94-2.004 2.38-3.624 5.059-4.8 7.94-1 2.94-1 6.39.7 9 .498.605.905 1.279 1.21 2 .59 1.9-1 3.68-1.88 5.48-.496 1.031-.703 2.177-.6 3.317.104 1.139.516 2.229 1.19 3.153 1.71 2.13 5 3 5.84 5.55.208.966.305 1.952.29 2.94.178 1.715.866 3.338 1.974 4.659 1.109 1.321 2.588 2.279 4.246 2.751 2 .49 2-.31 2.34-2 .45-2.33 1.33-4.53 1.88-6.82z"/><path d="m287.3 164.44c1.43-5 2-10.15 3.52-15.08 1.287-3.86 2.858-7.621 4.7-11.25l-6.16 2.59c-2 .84-4.11 1.82-5 3.75-1.62 3.35 1.29 7.66-.41 11-.739 1.081-1.555 2.107-2.44 3.07-1.81 2.54-1.53 6-.54 9 .43 1.27 2.3 7.85 4 6 .67-.74.73-3.47 1-4.47.36-1.55.89-3.05 1.33-4.61z"/><path d="m283.941 230.35c1.23-8.11 5.07-36.69 5.11-37l-1.06-.14c0 .29-3.88 28.86-5.1 37z"/><path d="m282.491 238h1.07c-.07-9.63-4.09-46.43-6.4-49l-.79.72c1.54 1.72 6.03 35.1 6.12 48.28z"/><path d="m280.409 236.171h1.06c-.91-20.76 3.49-64.35 3.53-64.79l-1.06-.11c-.04.39-4.45 44.06-3.53 64.9z"/></g><path d="m294.48 210.8h-22.91l1.61 23.2c.132 1.934.993 3.746 2.409 5.069 1.417 1.324 3.283 2.06 5.221 2.061h4.43c1.939-.003 3.805-.74 5.222-2.063 1.418-1.323 2.282-3.133 2.418-5.067z" fill="#fff"/><path d="m285.241 241.62h-4.43c-2.063-.007-4.046-.793-5.554-2.201-1.507-1.407-2.428-3.332-2.576-5.389l-1.6-23.19c-.007-.069.001-.139.023-.204.022-.066.059-.126.107-.176.046-.05.101-.09.163-.117.062-.028.129-.042.197-.043h22.91c.069 0 .137.014.201.041.063.028.12.068.167.119s.083.111.106.176c.022.066.031.135.026.204l-1.6 23.16c-.144 2.063-1.064 3.995-2.573 5.409-1.51 1.413-3.499 2.203-5.567 2.211zm-13.13-30.32 1.57 22.7c.128 1.805.935 3.494 2.257 4.73 1.323 1.235 3.063 1.924 4.873 1.93h4.43c1.81-.006 3.552-.695 4.876-1.93s2.133-2.924 2.264-4.73l1.62-22.7z" fill="#d1d3d4"/></svg>