<svg fill="none" height="32" viewBox="0 0 32 32" width="32" xmlns="http://www.w3.org/2000/svg"><rect fill="#f8f8f8" height="32" rx="4" width="32"/><path d="m13.88 18.12-.15-.12-.18-.1-.18-.05c-.1606-.0321-.3267-.0244-.4837.0227-.1569.0471-.2999.132-.4163.2473-.0989.0906-.1744.2039-.22.33-.0529.1197-.0802.2491-.0802.38s.0273.2603.0802.38c.1075.2403.2997.4326.54.54.1202.0513.2493.0784.38.08.1338-.0025.266-.0296.39-.08.1219-.0483.2313-.1235.32-.22.0936-.0912.1683-.2.22-.32.0478-.1209.0716-.25.07-.38.0034-.1312-.024-.2613-.08-.38-.0458-.1236-.1174-.2361-.21-.33zm-6.36998-5.36c.13231-.0005.26319-.0273.38506-.0788.12188-.0515.23232-.1267.32494-.2212l4.23998-4.23998c.1863-.18736.2908-.44082.2908-.705 0-.26419-.1045-.51764-.2908-.705-.1873-.18625-.4408-.29079-.705-.29079s-.5176.10454-.705.29079l-4.23998 4.23998c-.18625.1874-.29079.4408-.29079.705s.10454.5177.29079.705c.18463.1884.43623.2963.7.3zm17.67998 6.78c-.1873-.1862-.4408-.2908-.705-.2908s-.5176.1046-.705.2908l-4.24 4.24c-.1404.1393-.2364.3171-.2758.5109-.0393.1938-.0204.3949.0546.578.0749.183.2024.3397.3664.4503.164.1105.357.17.5548.1708.1323-.0005.2632-.0273.3851-.0788s.2323-.1267.3249-.2212l4.24-4.19c.0999-.0935.1796-.2066.234-.3321.0545-.1256.0826-.261.0826-.3979 0-.1368-.0281-.2723-.0826-.3978-.0544-.1256-.1341-.2386-.234-.3322zm.17-5.66c.002-.7939-.3109-1.5563-.87-2.12l-4.25-4.24998c-.5723-.54301-1.3311-.84572-2.12-.84572s-1.5477.30271-2.12.84572l-8.48998 8.48998c-.5618.5625-.87736 1.325-.87736 2.12s.31556 1.5575.87736 2.12l4.24998 4.25c.5625.5618 1.325.8774 2.12.8774s1.5575-.3156 2.12-.8774l8.49-8.49c.5591-.5637.872-1.326.87-2.12zm-2.29.71-8.48 8.48c-.0929.0937-.2035.1681-.3254.2189s-.2526.0769-.3846.0769-.2627-.0261-.3846-.0769c-.1218-.0508-.2324-.1252-.3254-.2189l-4.23998-4.24c-.09373-.0929-.16812-.2035-.21889-.3254s-.07691-.2526-.07691-.3846.02614-.2627.07691-.3846c.05077-.1218.12516-.2324.21889-.3254l8.47998-8.47998c.093-.09373.2036-.16812.3254-.21889.1219-.05077.2526-.07691.3846-.07691s.2627.02614.3846.07691.2325.12516.3254.21889l4.24 4.23998c.0937.093.1681.2036.2189.3254.0508.1219.0769.2526.0769.3846s-.0261.2627-.0769.3846-.1252.2325-.2189.3254z" fill="#262626"/></svg>