<svg width="1440" height="1216" viewBox="0 0 1440 1216" fill="none" xmlns="http://www.w3.org/2000/svg">
<rect width="1440" height="1216" rx="20" fill="#F8F8F8"/>
<path d="M305.88 153.2H302.44V166H287.24V153.2H283.8V182H287.24V169.2H302.44V182H305.88V153.2ZM320.815 182.4C326.895 182.4 331.335 177.6 331.335 171.6C331.335 165.6 326.895 160.8 320.815 160.8C314.735 160.8 310.295 165.6 310.295 171.6C310.295 177.6 314.735 182.4 320.815 182.4ZM320.815 179.44C316.415 179.44 313.655 175.92 313.655 171.6C313.655 167.28 316.415 163.76 320.815 163.76C325.215 163.76 327.975 167.28 327.975 171.6C327.975 175.92 325.215 179.44 320.815 179.44ZM364.772 161.2H361.172L356.292 178.4H356.212L350.492 161.2H347.212L341.572 178.4H341.492L336.332 161.2H332.572L339.532 182H343.492L348.852 165.68L354.332 182H358.132L364.772 161.2ZM399.749 160.8C396.989 160.8 394.349 162.08 392.749 164.4C391.549 162.2 389.469 160.8 386.789 160.8C384.349 160.8 382.509 161.72 380.869 163.92H380.789V161.2H377.589V182H380.789V170.16C380.789 166.6 383.029 163.76 386.149 163.76C388.669 163.76 390.549 165.24 390.549 168.56V182H393.749V170.08C393.749 166.52 395.989 163.76 399.109 163.76C401.629 163.76 403.509 165.24 403.509 168.56V182H406.709V168.32C406.709 163.92 403.869 160.8 399.749 160.8ZM414.12 157.6C415.48 157.6 416.52 156.56 416.52 155.2C416.52 153.88 415.48 152.8 414.12 152.8C412.76 152.8 411.72 153.88 411.72 155.2C411.72 156.56 412.76 157.6 414.12 157.6ZM412.52 161.2V182H415.72V161.2H412.52ZM440.019 161.2H436.819V164.24H436.739C434.779 161.8 432.379 160.8 429.739 160.8C423.859 160.8 420.139 165.32 420.139 171.04C420.139 176.76 423.859 181.28 429.739 181.28C432.379 181.28 434.779 180.36 436.739 177.92H436.819V180.2C436.819 184.56 434.499 187.44 430.379 187.44C427.299 187.44 424.779 185.8 423.979 182.88L420.619 183.36C421.779 187.6 425.379 190.4 430.379 190.4C436.179 190.4 440.019 186.6 440.019 179.8V161.2ZM430.099 178.24C425.899 178.24 423.499 174.76 423.499 171.04C423.499 167.32 425.899 163.84 430.099 163.84C434.299 163.84 436.699 167.32 436.699 171.04C436.699 174.76 434.299 178.24 430.099 178.24ZM454.806 160.8C452.726 160.8 450.086 161.84 448.486 163.92H448.406V152.4H445.206V182H448.406V170.16C448.406 166.6 450.606 163.84 454.206 163.84C457.086 163.84 458.886 165.32 458.886 169.64V182H462.086V168.88C462.086 163.68 459.126 160.8 454.806 160.8ZM478.491 164.08V161.2H472.691V154.2L469.491 155.4V161.2H464.691V164.08H469.491V175.2C469.491 180.56 472.411 182.16 476.211 182.16C477.051 182.16 477.891 182 478.491 181.76V178.72C477.931 178.96 477.171 179.12 476.531 179.12C474.371 179.12 472.691 178.52 472.691 175.44V164.08H478.491ZM521.881 161.2H518.281L513.401 178.4H513.321L507.601 161.2H504.321L498.681 178.4H498.601L493.441 161.2H489.681L496.641 182H500.601L505.961 165.68L511.441 182H515.241L521.881 161.2ZM533.308 179.44C529.108 179.44 526.908 176.24 526.508 172.6H543.108C543.108 165.64 539.748 160.88 533.188 160.8C527.148 160.72 523.108 165.52 523.108 171.6C523.108 177.68 527.108 182.4 533.308 182.4C537.988 182.4 541.388 179.88 542.388 176L539.028 175.52C538.388 177.44 536.548 179.44 533.308 179.44ZM533.068 163.76C537.068 163.76 539.108 167.24 539.468 169.8H526.668C527.028 167.24 529.068 163.76 533.068 163.76ZM566.72 160.8C564.64 160.8 562 161.84 560.4 163.92H560.32V152.4H557.12V182H560.32V170.16C560.32 166.6 562.52 163.84 566.12 163.84C569 163.84 570.8 165.32 570.8 169.64V182H574V168.88C574 163.68 571.04 160.8 566.72 160.8ZM588.777 179.44C584.577 179.44 582.377 176.24 581.977 172.6H598.577C598.577 165.64 595.217 160.88 588.657 160.8C582.617 160.72 578.577 165.52 578.577 171.6C578.577 177.68 582.577 182.4 588.777 182.4C593.457 182.4 596.857 179.88 597.857 176L594.497 175.52C593.857 177.44 592.017 179.44 588.777 179.44ZM588.537 163.76C592.537 163.76 594.577 167.24 594.937 169.8H582.137C582.497 167.24 584.537 163.76 588.537 163.76ZM602.98 152.4V182H606.18V152.4H602.98ZM622.049 182.4C627.769 182.4 631.609 178.08 631.609 171.6C631.609 165.12 627.769 160.8 622.049 160.8C619.329 160.8 616.729 162 615.049 164.4H614.969V161.2H611.769V189.4H614.969V178.8H615.049C616.729 181.2 619.329 182.4 622.049 182.4ZM621.569 163.84C625.569 163.84 628.249 166.96 628.249 171.6C628.249 176.24 625.569 179.36 621.569 179.36C617.129 179.36 614.889 175.76 614.889 171.6C614.889 167.4 617.129 163.84 621.569 163.84ZM657.436 164.08V161.2H651.636V154.2L648.436 155.4V161.2H643.636V164.08H648.436V175.2C648.436 180.56 651.356 182.16 655.156 182.16C655.996 182.16 656.836 182 657.436 181.76V178.72C656.876 178.96 656.116 179.12 655.476 179.12C653.316 179.12 651.636 178.52 651.636 175.44V164.08H657.436ZM671.017 160.8C668.937 160.8 666.297 161.84 664.697 163.92H664.617V152.4H661.417V182H664.617V170.16C664.617 166.6 666.817 163.84 670.417 163.84C673.297 163.84 675.097 165.32 675.097 169.64V182H678.297V168.88C678.297 163.68 675.337 160.8 671.017 160.8ZM693.073 179.44C688.873 179.44 686.673 176.24 686.273 172.6H702.873C702.873 165.64 699.513 160.88 692.953 160.8C686.913 160.72 682.873 165.52 682.873 171.6C682.873 177.68 686.873 182.4 693.073 182.4C697.753 182.4 701.153 179.88 702.153 176L698.793 175.52C698.153 177.44 696.313 179.44 693.073 179.44ZM692.833 163.76C696.833 163.76 698.873 167.24 699.233 169.8H686.433C686.793 167.24 688.833 163.76 692.833 163.76ZM724.006 182.4C726.086 182.4 728.566 181.48 730.206 179.28H730.286V182H733.486V161.2H730.286V173.04C730.286 176.6 727.966 179.36 724.566 179.36C721.646 179.36 719.886 177.48 719.886 173.72V161.2H716.686V173.92C716.686 179.04 719.246 182.4 724.006 182.4ZM754.273 176.44C754.273 172.24 751.033 171.16 747.833 170.4C744.673 169.6 741.513 169.36 741.513 166.68C741.513 164.8 743.433 163.52 745.873 163.52C748.753 163.52 750.473 165.08 750.593 167.2H754.033C753.713 163.12 750.233 160.8 745.793 160.8C741.513 160.8 738.233 163.32 738.233 166.88C738.233 171.08 741.873 172.12 745.273 172.96C748.233 173.68 750.993 174.24 750.993 176.64C750.993 178.64 748.953 179.68 746.433 179.68C743.393 179.68 741.673 178.24 741.473 175.72H737.873C738.113 180 741.433 182.4 746.553 182.4C750.993 182.4 754.273 180.12 754.273 176.44ZM767.683 179.44C763.483 179.44 761.283 176.24 760.883 172.6H777.483C777.483 165.64 774.123 160.88 767.563 160.8C761.523 160.72 757.483 165.52 757.483 171.6C757.483 177.68 761.483 182.4 767.683 182.4C772.363 182.4 775.763 179.88 776.763 176L773.403 175.52C772.763 177.44 770.923 179.44 767.683 179.44ZM767.443 163.76C771.443 163.76 773.483 167.24 773.843 169.8H761.043C761.403 167.24 763.443 163.76 767.443 163.76ZM781.886 161.2V182H785.086V170.24C785.086 166.48 786.726 164.08 790.886 164.08C791.286 164.08 791.726 164.12 792.126 164.2V161.08C791.726 161 791.246 160.96 790.726 160.96C788.246 160.96 786.086 162.16 785.166 164.16H785.086V161.2H781.886ZM817.553 164.08V161.2H811.753V154.2L808.553 155.4V161.2H803.753V164.08H808.553V175.2C808.553 180.56 811.473 182.16 815.273 182.16C816.113 182.16 816.953 182 817.553 181.76V178.72C816.993 178.96 816.233 179.12 815.593 179.12C813.433 179.12 811.753 178.52 811.753 175.44V164.08H817.553ZM830.854 182.4C836.934 182.4 841.374 177.6 841.374 171.6C841.374 165.6 836.934 160.8 830.854 160.8C824.774 160.8 820.334 165.6 820.334 171.6C820.334 177.6 824.774 182.4 830.854 182.4ZM830.854 179.44C826.454 179.44 823.694 175.92 823.694 171.6C823.694 167.28 826.454 163.76 830.854 163.76C835.254 163.76 838.014 167.28 838.014 171.6C838.014 175.92 835.254 179.44 830.854 179.44ZM870.602 176.44C870.602 172.24 867.362 171.16 864.162 170.4C861.002 169.6 857.842 169.36 857.842 166.68C857.842 164.8 859.762 163.52 862.202 163.52C865.082 163.52 866.802 165.08 866.922 167.2H870.362C870.042 163.12 866.562 160.8 862.122 160.8C857.842 160.8 854.562 163.32 854.562 166.88C854.562 171.08 858.202 172.12 861.602 172.96C864.562 173.68 867.322 174.24 867.322 176.64C867.322 178.64 865.282 179.68 862.762 179.68C859.722 179.68 858.002 178.24 857.802 175.72H854.202C854.442 180 857.762 182.4 862.882 182.4C867.322 182.4 870.602 180.12 870.602 176.44ZM884.331 182.4C890.411 182.4 894.851 177.6 894.851 171.6C894.851 165.6 890.411 160.8 884.331 160.8C878.251 160.8 873.811 165.6 873.811 171.6C873.811 177.6 878.251 182.4 884.331 182.4ZM884.331 179.44C879.931 179.44 877.171 175.92 877.171 171.6C877.171 167.28 879.931 163.76 884.331 163.76C888.731 163.76 891.491 167.28 891.491 171.6C891.491 175.92 888.731 179.44 884.331 179.44ZM899.269 161.2V182H902.469V170.24C902.469 166.48 904.109 164.08 908.269 164.08C908.669 164.08 909.109 164.12 909.509 164.2V161.08C909.109 161 908.629 160.96 908.109 160.96C905.629 160.96 903.469 162.16 902.549 164.16H902.469V161.2H899.269ZM926.108 164.08V161.2H920.308V154.2L917.108 155.4V161.2H912.308V164.08H917.108V175.2C917.108 180.56 920.028 182.16 923.828 182.16C924.668 182.16 925.508 182 926.108 181.76V178.72C925.548 178.96 924.788 179.12 924.148 179.12C921.988 179.12 920.308 178.52 920.308 175.44V164.08H926.108ZM949.018 182.4C955.098 182.4 959.538 177.6 959.538 171.6C959.538 165.6 955.098 160.8 949.018 160.8C942.938 160.8 938.498 165.6 938.498 171.6C938.498 177.6 942.938 182.4 949.018 182.4ZM949.018 179.44C944.618 179.44 941.858 175.92 941.858 171.6C941.858 167.28 944.618 163.76 949.018 163.76C953.418 163.76 956.178 167.28 956.178 171.6C956.178 175.92 953.418 179.44 949.018 179.44ZM971.076 182.4C973.156 182.4 975.636 181.48 977.276 179.28H977.356V182H980.556V161.2H977.356V173.04C977.356 176.6 975.036 179.36 971.636 179.36C968.716 179.36 966.956 177.48 966.956 173.72V161.2H963.756V173.92C963.756 179.04 966.316 182.4 971.076 182.4ZM997.944 164.08V161.2H992.144V154.2L988.944 155.4V161.2H984.144V164.08H988.944V175.2C988.944 180.56 991.864 182.16 995.664 182.16C996.504 182.16 997.344 182 997.944 181.76V178.72C997.384 178.96 996.624 179.12 995.984 179.12C993.824 179.12 992.144 178.52 992.144 175.44V164.08H997.944ZM1023.33 164.08V161.2H1017.53V154.2L1014.33 155.4V161.2H1009.53V164.08H1014.33V175.2C1014.33 180.56 1017.25 182.16 1021.05 182.16C1021.89 182.16 1022.73 182 1023.33 181.76V178.72C1022.77 178.96 1022.01 179.12 1021.37 179.12C1019.21 179.12 1017.53 178.52 1017.53 175.44V164.08H1023.33ZM1036.92 160.8C1034.84 160.8 1032.2 161.84 1030.6 163.92H1030.52V152.4H1027.32V182H1030.52V170.16C1030.52 166.6 1032.72 163.84 1036.32 163.84C1039.2 163.84 1041 165.32 1041 169.64V182H1044.2V168.88C1044.2 163.68 1041.24 160.8 1036.92 160.8ZM1058.97 179.44C1054.77 179.44 1052.57 176.24 1052.17 172.6H1068.77C1068.77 165.64 1065.41 160.88 1058.85 160.8C1052.81 160.72 1048.77 165.52 1048.77 171.6C1048.77 177.68 1052.77 182.4 1058.97 182.4C1063.65 182.4 1067.05 179.88 1068.05 176L1064.69 175.52C1064.05 177.44 1062.21 179.44 1058.97 179.44ZM1058.73 163.76C1062.73 163.76 1064.77 167.24 1065.13 169.8H1052.33C1052.69 167.24 1054.73 163.76 1058.73 163.76ZM1082.78 161.2V182H1085.98V170.24C1085.98 166.48 1087.62 164.08 1091.78 164.08C1092.18 164.08 1092.62 164.12 1093.02 164.2V161.08C1092.62 161 1092.14 160.96 1091.62 160.96C1089.14 160.96 1086.98 162.16 1086.06 164.16H1085.98V161.2H1082.78ZM1099.04 157.6C1100.4 157.6 1101.44 156.56 1101.44 155.2C1101.44 153.88 1100.4 152.8 1099.04 152.8C1097.68 152.8 1096.64 153.88 1096.64 155.2C1096.64 156.56 1097.68 157.6 1099.04 157.6ZM1097.44 161.2V182H1100.64V161.2H1097.44ZM1124.94 161.2H1121.74V164.24H1121.66C1119.7 161.8 1117.3 160.8 1114.66 160.8C1108.78 160.8 1105.06 165.32 1105.06 171.04C1105.06 176.76 1108.78 181.28 1114.66 181.28C1117.3 181.28 1119.7 180.36 1121.66 177.92H1121.74V180.2C1121.74 184.56 1119.42 187.44 1115.3 187.44C1112.22 187.44 1109.7 185.8 1108.9 182.88L1105.54 183.36C1106.7 187.6 1110.3 190.4 1115.3 190.4C1121.1 190.4 1124.94 186.6 1124.94 179.8V161.2ZM1115.02 178.24C1110.82 178.24 1108.42 174.76 1108.42 171.04C1108.42 167.32 1110.82 163.84 1115.02 163.84C1119.22 163.84 1121.62 167.32 1121.62 171.04C1121.62 174.76 1119.22 178.24 1115.02 178.24ZM1139.73 160.8C1137.65 160.8 1135.01 161.84 1133.41 163.92H1133.33V152.4H1130.13V182H1133.33V170.16C1133.33 166.6 1135.53 163.84 1139.13 163.84C1142.01 163.84 1143.81 165.32 1143.81 169.64V182H1147.01V168.88C1147.01 163.68 1144.05 160.8 1139.73 160.8ZM1163.41 164.08V161.2H1157.61V154.2L1154.41 155.4V161.2H1149.61V164.08H1154.41V175.2C1154.41 180.56 1157.33 182.16 1161.13 182.16C1161.97 182.16 1162.81 182 1163.41 181.76V178.72C1162.85 178.96 1162.09 179.12 1161.45 179.12C1159.29 179.12 1157.61 178.52 1157.61 175.44V164.08H1163.41ZM1192.2 176.44C1192.2 172.24 1188.96 171.16 1185.76 170.4C1182.6 169.6 1179.44 169.36 1179.44 166.68C1179.44 164.8 1181.36 163.52 1183.8 163.52C1186.68 163.52 1188.4 165.08 1188.52 167.2H1191.96C1191.64 163.12 1188.16 160.8 1183.72 160.8C1179.44 160.8 1176.16 163.32 1176.16 166.88C1176.16 171.08 1179.8 172.12 1183.2 172.96C1186.16 173.68 1188.92 174.24 1188.92 176.64C1188.92 178.64 1186.88 179.68 1184.36 179.68C1181.32 179.68 1179.6 178.24 1179.4 175.72H1175.8C1176.04 180 1179.36 182.4 1184.48 182.4C1188.92 182.4 1192.2 180.12 1192.2 176.44ZM1198.61 157.6C1199.97 157.6 1201.01 156.56 1201.01 155.2C1201.01 153.88 1199.97 152.8 1198.61 152.8C1197.25 152.8 1196.21 153.88 1196.21 155.2C1196.21 156.56 1197.25 157.6 1198.61 157.6ZM1197.01 161.2V182H1200.21V161.2H1197.01ZM1224.51 161.2H1221.31V164.24H1221.23C1219.27 161.8 1216.87 160.8 1214.23 160.8C1208.35 160.8 1204.63 165.32 1204.63 171.04C1204.63 176.76 1208.35 181.28 1214.23 181.28C1216.87 181.28 1219.27 180.36 1221.23 177.92H1221.31V180.2C1221.31 184.56 1218.99 187.44 1214.87 187.44C1211.79 187.44 1209.27 185.8 1208.47 182.88L1205.11 183.36C1206.27 187.6 1209.87 190.4 1214.87 190.4C1220.67 190.4 1224.51 186.6 1224.51 179.8V161.2ZM1214.59 178.24C1210.39 178.24 1207.99 174.76 1207.99 171.04C1207.99 167.32 1210.39 163.84 1214.59 163.84C1218.79 163.84 1221.19 167.32 1221.19 171.04C1221.19 174.76 1218.79 178.24 1214.59 178.24ZM1229.7 161.2V182H1232.9V170.16C1232.9 166.6 1235.26 163.84 1238.86 163.84C1241.74 163.84 1243.7 165.36 1243.7 170.04V182H1246.9V169.28C1246.9 163.72 1243.9 160.8 1239.58 160.8C1237.5 160.8 1234.62 161.8 1232.98 163.92H1232.9V161.2H1229.7ZM281.8 244.08H285.8V262H289V244.08H294.8V241.2H289V238.88C289 235.72 290.68 235.04 292.84 235.04C293.48 235.04 294.24 235.2 294.8 235.44V232.4C294.2 232.16 293.32 232 292.52 232C288.72 232 285.8 233.76 285.8 239.2V241.2H281.8V244.08ZM307.143 262.4C313.223 262.4 317.663 257.6 317.663 251.6C317.663 245.6 313.223 240.8 307.143 240.8C301.063 240.8 296.623 245.6 296.623 251.6C296.623 257.6 301.063 262.4 307.143 262.4ZM307.143 259.44C302.743 259.44 299.983 255.92 299.983 251.6C299.983 247.28 302.743 243.76 307.143 243.76C311.543 243.76 314.303 247.28 314.303 251.6C314.303 255.92 311.543 259.44 307.143 259.44ZM322.081 241.2V262H325.281V250.24C325.281 246.48 326.921 244.08 331.081 244.08C331.481 244.08 331.921 244.12 332.321 244.2V241.08C331.921 241 331.441 240.96 330.921 240.96C328.441 240.96 326.281 242.16 325.361 244.16H325.281V241.2H322.081ZM355.548 240.8C353.468 240.8 350.828 241.84 349.228 243.92H349.148V232.4H345.948V262H349.148V250.16C349.148 246.6 351.348 243.84 354.948 243.84C357.828 243.84 359.628 245.32 359.628 249.64V262H362.828V248.88C362.828 243.68 359.868 240.8 355.548 240.8ZM370.214 237.6C371.574 237.6 372.614 236.56 372.614 235.2C372.614 233.88 371.574 232.8 370.214 232.8C368.854 232.8 367.814 233.88 367.814 235.2C367.814 236.56 368.854 237.6 370.214 237.6ZM368.614 241.2V262H371.814V241.2H368.614ZM399.983 240.8C397.223 240.8 394.583 242.08 392.983 244.4C391.783 242.2 389.703 240.8 387.023 240.8C384.583 240.8 382.743 241.72 381.103 243.92H381.023V241.2H377.823V262H381.023V250.16C381.023 246.6 383.263 243.76 386.383 243.76C388.903 243.76 390.783 245.24 390.783 248.56V262H393.983V250.08C393.983 246.52 396.223 243.76 399.343 243.76C401.863 243.76 403.743 245.24 403.743 248.56V262H406.943V248.32C406.943 243.92 404.103 240.8 399.983 240.8ZM431.235 233.96H428.035L411.155 262H414.355L431.235 233.96ZM445.236 240.8C443.156 240.8 440.516 241.84 438.916 243.92H438.836V232.4H435.636V262H438.836V250.16C438.836 246.6 441.036 243.84 444.636 243.84C447.516 243.84 449.316 245.32 449.316 249.64V262H452.516V248.88C452.516 243.68 449.556 240.8 445.236 240.8ZM467.292 259.44C463.092 259.44 460.892 256.24 460.492 252.6H477.092C477.092 245.64 473.732 240.88 467.172 240.8C461.132 240.72 457.092 245.52 457.092 251.6C457.092 257.68 461.092 262.4 467.292 262.4C471.972 262.4 475.372 259.88 476.372 256L473.012 255.52C472.372 257.44 470.532 259.44 467.292 259.44ZM467.052 243.76C471.052 243.76 473.092 247.24 473.452 249.8H460.652C461.012 247.24 463.052 243.76 467.052 243.76ZM481.495 241.2V262H484.695V250.24C484.695 246.48 486.335 244.08 490.495 244.08C490.895 244.08 491.335 244.12 491.735 244.2V241.08C491.335 241 490.855 240.96 490.335 240.96C487.855 240.96 485.695 242.16 484.775 244.16H484.695V241.2H481.495ZM511.993 240.8C511.993 236.48 508.713 232.8 503.473 232.8C497.993 232.8 494.833 236.72 494.553 241.2H497.953C498.313 238.6 499.993 236 503.433 236C506.833 236 508.593 238.4 508.593 240.8C508.593 243.12 507.593 244.24 505.993 245.76C504.513 247.16 501.593 249.24 501.593 252.52V254.4H504.953V252.84C504.953 250.32 506.793 249.32 507.873 248.32C509.273 247.04 511.993 244.88 511.993 240.8ZM503.273 262.32C504.633 262.32 505.673 261.28 505.673 259.92C505.673 258.6 504.633 257.52 503.273 257.52C501.913 257.52 500.873 258.6 500.873 259.92C500.873 261.28 501.913 262.32 503.273 262.32Z" fill="black"/>
<path d="M185.009 185.344L175.437 175.85C179.153 171.218 180.952 165.339 180.465 159.42C179.978 153.502 177.242 147.996 172.82 144.033C168.398 140.07 162.626 137.952 156.69 138.114C150.754 138.277 145.106 140.707 140.907 144.906C136.708 149.105 134.278 154.753 134.115 160.689C133.953 166.625 136.071 172.397 140.034 176.819C143.997 181.241 149.503 183.977 155.421 184.464C161.339 184.951 167.219 183.152 171.851 179.436L181.345 188.93C181.585 189.172 181.87 189.364 182.185 189.495C182.499 189.626 182.836 189.693 183.177 189.693C183.517 189.693 183.855 189.626 184.169 189.495C184.483 189.364 184.769 189.172 185.009 188.93C185.474 188.449 185.733 187.806 185.733 187.137C185.733 186.468 185.474 185.825 185.009 185.344ZM157.379 179.436C153.807 179.436 150.316 178.377 147.346 176.393C144.376 174.409 142.061 171.588 140.695 168.288C139.328 164.989 138.97 161.358 139.667 157.855C140.364 154.352 142.084 151.134 144.609 148.608C147.135 146.083 150.353 144.363 153.856 143.666C157.359 142.969 160.99 143.327 164.289 144.694C167.589 146.06 170.41 148.375 172.394 151.345C174.378 154.315 175.437 157.806 175.437 161.378C175.437 166.167 173.535 170.76 170.148 174.147C166.761 177.534 162.168 179.436 157.379 179.436Z" fill="#5600AF"/>
<path d="M305.88 966.2H302.44V979H287.24V966.2H283.8V995H287.24V982.2H302.44V995H305.88V966.2ZM320.815 995.4C326.895 995.4 331.335 990.6 331.335 984.6C331.335 978.6 326.895 973.8 320.815 973.8C314.735 973.8 310.295 978.6 310.295 984.6C310.295 990.6 314.735 995.4 320.815 995.4ZM320.815 992.44C316.415 992.44 313.655 988.92 313.655 984.6C313.655 980.28 316.415 976.76 320.815 976.76C325.215 976.76 327.975 980.28 327.975 984.6C327.975 988.92 325.215 992.44 320.815 992.44ZM364.772 974.2H361.172L356.292 991.4H356.212L350.492 974.2H347.212L341.572 991.4H341.492L336.332 974.2H332.572L339.532 995H343.492L348.852 978.68L354.332 995H358.132L364.772 974.2ZM399.749 973.8C396.989 973.8 394.349 975.08 392.749 977.4C391.549 975.2 389.469 973.8 386.789 973.8C384.349 973.8 382.509 974.72 380.869 976.92H380.789V974.2H377.589V995H380.789V983.16C380.789 979.6 383.029 976.76 386.149 976.76C388.669 976.76 390.549 978.24 390.549 981.56V995H393.749V983.08C393.749 979.52 395.989 976.76 399.109 976.76C401.629 976.76 403.509 978.24 403.509 981.56V995H406.709V981.32C406.709 976.92 403.869 973.8 399.749 973.8ZM414.12 970.6C415.48 970.6 416.52 969.56 416.52 968.2C416.52 966.88 415.48 965.8 414.12 965.8C412.76 965.8 411.72 966.88 411.72 968.2C411.72 969.56 412.76 970.6 414.12 970.6ZM412.52 974.2V995H415.72V974.2H412.52ZM440.019 974.2H436.819V977.24H436.739C434.779 974.8 432.379 973.8 429.739 973.8C423.859 973.8 420.139 978.32 420.139 984.04C420.139 989.76 423.859 994.28 429.739 994.28C432.379 994.28 434.779 993.36 436.739 990.92H436.819V993.2C436.819 997.56 434.499 1000.44 430.379 1000.44C427.299 1000.44 424.779 998.8 423.979 995.88L420.619 996.36C421.779 1000.6 425.379 1003.4 430.379 1003.4C436.179 1003.4 440.019 999.6 440.019 992.8V974.2ZM430.099 991.24C425.899 991.24 423.499 987.76 423.499 984.04C423.499 980.32 425.899 976.84 430.099 976.84C434.299 976.84 436.699 980.32 436.699 984.04C436.699 987.76 434.299 991.24 430.099 991.24ZM454.806 973.8C452.726 973.8 450.086 974.84 448.486 976.92H448.406V965.4H445.206V995H448.406V983.16C448.406 979.6 450.606 976.84 454.206 976.84C457.086 976.84 458.886 978.32 458.886 982.64V995H462.086V981.88C462.086 976.68 459.126 973.8 454.806 973.8ZM478.491 977.08V974.2H472.691V967.2L469.491 968.4V974.2H464.691V977.08H469.491V988.2C469.491 993.56 472.411 995.16 476.211 995.16C477.051 995.16 477.891 995 478.491 994.76V991.72C477.931 991.96 477.171 992.12 476.531 992.12C474.371 992.12 472.691 991.52 472.691 988.44V977.08H478.491ZM521.881 974.2H518.281L513.401 991.4H513.321L507.601 974.2H504.321L498.681 991.4H498.601L493.441 974.2H489.681L496.641 995H500.601L505.961 978.68L511.441 995H515.241L521.881 974.2ZM533.308 992.44C529.108 992.44 526.908 989.24 526.508 985.6H543.108C543.108 978.64 539.748 973.88 533.188 973.8C527.148 973.72 523.108 978.52 523.108 984.6C523.108 990.68 527.108 995.4 533.308 995.4C537.988 995.4 541.388 992.88 542.388 989L539.028 988.52C538.388 990.44 536.548 992.44 533.308 992.44ZM533.068 976.76C537.068 976.76 539.108 980.24 539.468 982.8H526.668C527.028 980.24 529.068 976.76 533.068 976.76ZM579.28 973.8C576.52 973.8 573.88 975.08 572.28 977.4C571.08 975.2 569 973.8 566.32 973.8C563.88 973.8 562.04 974.72 560.4 976.92H560.32V974.2H557.12V995H560.32V983.16C560.32 979.6 562.56 976.76 565.68 976.76C568.2 976.76 570.08 978.24 570.08 981.56V995H573.28V983.08C573.28 979.52 575.52 976.76 578.64 976.76C581.16 976.76 583.04 978.24 583.04 981.56V995H586.24V981.32C586.24 976.92 583.4 973.8 579.28 973.8ZM607.772 991.48V981.68C607.772 977 604.732 973.8 599.412 973.8C594.332 973.8 591.052 976.32 590.812 980.4H594.172C594.292 978.28 596.212 976.52 599.332 976.52C602.412 976.52 604.572 978.36 604.572 981.32V982.6C604.572 982.6 600.332 982.64 597.812 982.76C593.212 982.96 590.452 985.16 590.452 988.92C590.452 992.68 593.372 995.4 597.812 995.4C600.092 995.4 602.652 994.6 604.532 992H604.612C604.612 992.88 604.692 994.2 604.812 995H607.932C607.812 994.28 607.772 992.84 607.772 991.48ZM604.572 985.28V986.04C604.572 990.4 601.332 992.44 598.172 992.44C595.492 992.44 593.812 991.2 593.812 989.04C593.812 986.92 595.332 985.76 598.372 985.56C600.812 985.4 604.572 985.28 604.572 985.28ZM628.99 974.2H624.35L615.83 983H615.75V965.4H612.55V995H615.75V984.92H615.83L624.95 995H629.67L619.15 983.88L628.99 974.2ZM640.652 992.44C636.452 992.44 634.252 989.24 633.852 985.6H650.452C650.452 978.64 647.092 973.88 640.532 973.8C634.492 973.72 630.452 978.52 630.452 984.6C630.452 990.68 634.452 995.4 640.652 995.4C645.332 995.4 648.732 992.88 649.732 989L646.372 988.52C645.732 990.44 643.892 992.44 640.652 992.44ZM640.412 976.76C644.412 976.76 646.452 980.24 646.812 982.8H634.012C634.372 980.24 636.412 976.76 640.412 976.76ZM676.264 977.08V974.2H670.464V967.2L667.264 968.4V974.2H662.464V977.08H667.264V988.2C667.264 993.56 670.184 995.16 673.984 995.16C674.824 995.16 675.664 995 676.264 994.76V991.72C675.704 991.96 674.944 992.12 674.304 992.12C672.144 992.12 670.464 991.52 670.464 988.44V977.08H676.264ZM689.845 973.8C687.765 973.8 685.125 974.84 683.525 976.92H683.445V965.4H680.245V995H683.445V983.16C683.445 979.6 685.645 976.84 689.245 976.84C692.125 976.84 693.925 978.32 693.925 982.64V995H697.125V981.88C697.125 976.68 694.165 973.8 689.845 973.8ZM711.902 992.44C707.702 992.44 705.502 989.24 705.102 985.6H721.702C721.702 978.64 718.342 973.88 711.782 973.8C705.742 973.72 701.702 978.52 701.702 984.6C701.702 990.68 705.702 995.4 711.902 995.4C716.582 995.4 719.982 992.88 720.982 989L717.622 988.52C716.982 990.44 715.142 992.44 711.902 992.44ZM711.662 976.76C715.662 976.76 717.702 980.24 718.062 982.8H705.262C705.622 980.24 707.662 976.76 711.662 976.76ZM742.834 995.4C744.914 995.4 747.394 994.48 749.034 992.28H749.114V995H752.314V974.2H749.114V986.04C749.114 989.6 746.794 992.36 743.394 992.36C740.474 992.36 738.714 990.48 738.714 986.72V974.2H735.514V986.92C735.514 992.04 738.074 995.4 742.834 995.4ZM768.182 995.4C773.902 995.4 777.742 991.08 777.742 984.6C777.742 978.12 773.902 973.8 768.182 973.8C765.462 973.8 762.862 975 761.182 977.4H761.102V974.2H757.902V1002.4H761.102V991.8H761.182C762.862 994.2 765.462 995.4 768.182 995.4ZM767.702 976.84C771.702 976.84 774.382 979.96 774.382 984.6C774.382 989.24 771.702 992.36 767.702 992.36C763.262 992.36 761.022 988.76 761.022 984.6C761.022 980.4 763.262 976.84 767.702 976.84ZM781.769 965.4V995H784.969V965.4H781.769ZM799.487 995.4C805.567 995.4 810.007 990.6 810.007 984.6C810.007 978.6 805.567 973.8 799.487 973.8C793.407 973.8 788.967 978.6 788.967 984.6C788.967 990.6 793.407 995.4 799.487 995.4ZM799.487 992.44C795.087 992.44 792.327 988.92 792.327 984.6C792.327 980.28 795.087 976.76 799.487 976.76C803.887 976.76 806.647 980.28 806.647 984.6C806.647 988.92 803.887 992.44 799.487 992.44ZM830.545 991.48V981.68C830.545 977 827.505 973.8 822.185 973.8C817.105 973.8 813.825 976.32 813.585 980.4H816.945C817.065 978.28 818.985 976.52 822.105 976.52C825.185 976.52 827.345 978.36 827.345 981.32V982.6C827.345 982.6 823.105 982.64 820.585 982.76C815.985 982.96 813.225 985.16 813.225 988.92C813.225 992.68 816.145 995.4 820.585 995.4C822.865 995.4 825.425 994.6 827.305 992H827.385C827.385 992.88 827.465 994.2 827.585 995H830.705C830.585 994.28 830.545 992.84 830.545 991.48ZM827.345 985.28V986.04C827.345 990.4 824.105 992.44 820.945 992.44C818.265 992.44 816.585 991.2 816.585 989.04C816.585 986.92 818.105 985.76 821.145 985.56C823.585 985.4 827.345 985.28 827.345 985.28ZM854.549 965.4H851.349V977.4H851.269C849.589 975 846.989 973.8 844.269 973.8C838.549 973.8 834.709 978.12 834.709 984.6C834.709 991.08 838.549 995.4 844.269 995.4C846.989 995.4 849.589 994.2 851.269 991.8H851.349V995H854.549V965.4ZM844.749 976.84C849.189 976.84 851.429 980.44 851.429 984.6C851.429 988.8 849.189 992.36 844.749 992.36C840.749 992.36 838.069 989.24 838.069 984.6C838.069 979.96 840.749 976.84 844.749 976.84ZM880.057 995.4C885.777 995.4 889.617 991.08 889.617 984.6C889.617 978.12 885.777 973.8 880.057 973.8C877.337 973.8 874.737 975 873.057 977.4H872.977V974.2H869.777V1002.4H872.977V991.8H873.057C874.737 994.2 877.337 995.4 880.057 995.4ZM879.577 976.84C883.577 976.84 886.257 979.96 886.257 984.6C886.257 989.24 883.577 992.36 879.577 992.36C875.137 992.36 872.897 988.76 872.897 984.6C872.897 980.4 875.137 976.84 879.577 976.84ZM894.034 974.2V995H897.234V983.24C897.234 979.48 898.874 977.08 903.034 977.08C903.434 977.08 903.874 977.12 904.274 977.2V974.08C903.874 974 903.394 973.96 902.874 973.96C900.394 973.96 898.234 975.16 897.314 977.16H897.234V974.2H894.034ZM916.831 995.4C922.911 995.4 927.351 990.6 927.351 984.6C927.351 978.6 922.911 973.8 916.831 973.8C910.751 973.8 906.311 978.6 906.311 984.6C906.311 990.6 910.751 995.4 916.831 995.4ZM916.831 992.44C912.431 992.44 909.671 988.92 909.671 984.6C909.671 980.28 912.431 976.76 916.831 976.76C921.231 976.76 923.991 980.28 923.991 984.6C923.991 988.92 921.231 992.44 916.831 992.44ZM940.959 992.44C936.759 992.44 934.319 989 934.319 984.6C934.319 980.2 936.759 976.76 940.959 976.76C943.599 976.76 945.919 978.2 946.799 981.32L950.159 980.84C948.839 976.04 945.359 973.8 940.959 973.8C934.759 973.8 930.959 978.52 930.959 984.6C930.959 990.68 934.759 995.4 940.959 995.4C945.359 995.4 948.839 993.16 950.159 988.36L946.799 987.88C945.919 991 943.599 992.44 940.959 992.44ZM963.542 992.44C959.342 992.44 957.142 989.24 956.742 985.6H973.342C973.342 978.64 969.982 973.88 963.422 973.8C957.382 973.72 953.342 978.52 953.342 984.6C953.342 990.68 957.342 995.4 963.542 995.4C968.222 995.4 971.622 992.88 972.622 989L969.262 988.52C968.622 990.44 966.782 992.44 963.542 992.44ZM963.302 976.76C967.302 976.76 969.342 980.24 969.702 982.8H956.902C957.262 980.24 959.302 976.76 963.302 976.76ZM992.945 989.44C992.945 985.24 989.705 984.16 986.505 983.4C983.345 982.6 980.185 982.36 980.185 979.68C980.185 977.8 982.105 976.52 984.545 976.52C987.425 976.52 989.145 978.08 989.265 980.2H992.705C992.385 976.12 988.905 973.8 984.465 973.8C980.185 973.8 976.905 976.32 976.905 979.88C976.905 984.08 980.545 985.12 983.945 985.96C986.905 986.68 989.665 987.24 989.665 989.64C989.665 991.64 987.625 992.68 985.105 992.68C982.065 992.68 980.345 991.24 980.145 988.72H976.545C976.785 993 980.105 995.4 985.225 995.4C989.665 995.4 992.945 993.12 992.945 989.44ZM1012.55 989.44C1012.55 985.24 1009.31 984.16 1006.11 983.4C1002.95 982.6 999.795 982.36 999.795 979.68C999.795 977.8 1001.71 976.52 1004.15 976.52C1007.03 976.52 1008.75 978.08 1008.87 980.2H1012.31C1011.99 976.12 1008.51 973.8 1004.07 973.8C999.795 973.8 996.515 976.32 996.515 979.88C996.515 984.08 1000.15 985.12 1003.55 985.96C1006.51 986.68 1009.27 987.24 1009.27 989.64C1009.27 991.64 1007.23 992.68 1004.71 992.68C1001.67 992.68 999.955 991.24 999.755 988.72H996.155C996.395 993 999.715 995.4 1004.83 995.4C1009.27 995.4 1012.55 993.12 1012.55 989.44ZM1035.57 992.44C1031.37 992.44 1029.17 989.24 1028.77 985.6H1045.37C1045.37 978.64 1042.01 973.88 1035.45 973.8C1029.41 973.72 1025.37 978.52 1025.37 984.6C1025.37 990.68 1029.37 995.4 1035.57 995.4C1040.25 995.4 1043.65 992.88 1044.65 989L1041.29 988.52C1040.65 990.44 1038.81 992.44 1035.57 992.44ZM1035.33 976.76C1039.33 976.76 1041.37 980.24 1041.73 982.8H1028.93C1029.29 980.24 1031.33 976.76 1035.33 976.76ZM1065.9 991.48V981.68C1065.9 977 1062.86 973.8 1057.54 973.8C1052.46 973.8 1049.18 976.32 1048.94 980.4H1052.3C1052.42 978.28 1054.34 976.52 1057.46 976.52C1060.54 976.52 1062.7 978.36 1062.7 981.32V982.6C1062.7 982.6 1058.46 982.64 1055.94 982.76C1051.34 982.96 1048.58 985.16 1048.58 988.92C1048.58 992.68 1051.5 995.4 1055.94 995.4C1058.22 995.4 1060.78 994.6 1062.66 992H1062.74C1062.74 992.88 1062.82 994.2 1062.94 995H1066.06C1065.94 994.28 1065.9 992.84 1065.9 991.48ZM1062.7 985.28V986.04C1062.7 990.4 1059.46 992.44 1056.3 992.44C1053.62 992.44 1051.94 991.2 1051.94 989.04C1051.94 986.92 1053.46 985.76 1056.5 985.56C1058.94 985.4 1062.7 985.28 1062.7 985.28ZM1086.46 989.44C1086.46 985.24 1083.22 984.16 1080.02 983.4C1076.86 982.6 1073.7 982.36 1073.7 979.68C1073.7 977.8 1075.62 976.52 1078.06 976.52C1080.94 976.52 1082.66 978.08 1082.78 980.2H1086.22C1085.9 976.12 1082.42 973.8 1077.98 973.8C1073.7 973.8 1070.42 976.32 1070.42 979.88C1070.42 984.08 1074.06 985.12 1077.46 985.96C1080.42 986.68 1083.18 987.24 1083.18 989.64C1083.18 991.64 1081.14 992.68 1078.62 992.68C1075.58 992.68 1073.86 991.24 1073.66 988.72H1070.06C1070.3 993 1073.62 995.4 1078.74 995.4C1083.18 995.4 1086.46 993.12 1086.46 989.44ZM1104.41 974.2L1097.93 991.4H1097.85L1091.53 974.2H1087.69L1096.01 995L1092.45 1003H1096.41L1108.09 974.2H1104.41ZM1137.03 991.48V981.68C1137.03 977 1133.99 973.8 1128.67 973.8C1123.59 973.8 1120.31 976.32 1120.07 980.4H1123.43C1123.55 978.28 1125.47 976.52 1128.59 976.52C1131.67 976.52 1133.83 978.36 1133.83 981.32V982.6C1133.83 982.6 1129.59 982.64 1127.07 982.76C1122.47 982.96 1119.71 985.16 1119.71 988.92C1119.71 992.68 1122.63 995.4 1127.07 995.4C1129.35 995.4 1131.91 994.6 1133.79 992H1133.87C1133.87 992.88 1133.95 994.2 1134.07 995H1137.19C1137.07 994.28 1137.03 992.84 1137.03 991.48ZM1133.83 985.28V986.04C1133.83 990.4 1130.59 992.44 1127.43 992.44C1124.75 992.44 1123.07 991.2 1123.07 989.04C1123.07 986.92 1124.59 985.76 1127.63 985.56C1130.07 985.4 1133.83 985.28 1133.83 985.28ZM1142.39 974.2V995H1145.59V983.16C1145.59 979.6 1147.95 976.84 1151.55 976.84C1154.43 976.84 1156.39 978.36 1156.39 983.04V995H1159.59V982.28C1159.59 976.72 1156.59 973.8 1152.27 973.8C1150.19 973.8 1147.31 974.8 1145.67 976.92H1145.59V974.2H1142.39ZM1184.04 965.4H1180.84V977.4H1180.76C1179.08 975 1176.48 973.8 1173.76 973.8C1168.04 973.8 1164.2 978.12 1164.2 984.6C1164.2 991.08 1168.04 995.4 1173.76 995.4C1176.48 995.4 1179.08 994.2 1180.76 991.8H1180.84V995H1184.04V965.4ZM1174.24 976.84C1178.68 976.84 1180.92 980.44 1180.92 984.6C1180.92 988.8 1178.68 992.36 1174.24 992.36C1170.24 992.36 1167.56 989.24 1167.56 984.6C1167.56 979.96 1170.24 976.84 1174.24 976.84ZM285.8 1050.6C287.16 1050.6 288.2 1049.56 288.2 1048.2C288.2 1046.88 287.16 1045.8 285.8 1045.8C284.44 1045.8 283.4 1046.88 283.4 1048.2C283.4 1049.56 284.44 1050.6 285.8 1050.6ZM284.2 1054.2V1075H287.4V1054.2H284.2ZM293.409 1054.2V1075H296.609V1063.16C296.609 1059.6 298.969 1056.84 302.569 1056.84C305.449 1056.84 307.409 1058.36 307.409 1063.04V1075H310.609V1062.28C310.609 1056.72 307.609 1053.8 303.289 1053.8C301.209 1053.8 298.329 1054.8 296.689 1056.92H296.609V1054.2H293.409ZM314.027 1057.08H318.027V1075H321.227V1057.08H327.027V1054.2H321.227V1051.88C321.227 1048.72 322.907 1048.04 325.067 1048.04C325.707 1048.04 326.467 1048.2 327.027 1048.44V1045.4C326.427 1045.16 325.547 1045 324.747 1045C320.947 1045 318.027 1046.76 318.027 1052.2V1054.2H314.027V1057.08ZM339.37 1075.4C345.45 1075.4 349.89 1070.6 349.89 1064.6C349.89 1058.6 345.45 1053.8 339.37 1053.8C333.29 1053.8 328.85 1058.6 328.85 1064.6C328.85 1070.6 333.29 1075.4 339.37 1075.4ZM339.37 1072.44C334.97 1072.44 332.21 1068.92 332.21 1064.6C332.21 1060.28 334.97 1056.76 339.37 1056.76C343.77 1056.76 346.53 1060.28 346.53 1064.6C346.53 1068.92 343.77 1072.44 339.37 1072.44ZM354.308 1054.2V1075H357.508V1063.24C357.508 1059.48 359.148 1057.08 363.308 1057.08C363.708 1057.08 364.148 1057.12 364.548 1057.2V1054.08C364.148 1054 363.668 1053.96 363.148 1053.96C360.668 1053.96 358.508 1055.16 357.588 1057.16H357.508V1054.2H354.308ZM390.726 1053.8C387.966 1053.8 385.326 1055.08 383.726 1057.4C382.526 1055.2 380.446 1053.8 377.766 1053.8C375.326 1053.8 373.486 1054.72 371.846 1056.92H371.766V1054.2H368.566V1075H371.766V1063.16C371.766 1059.6 374.006 1056.76 377.126 1056.76C379.646 1056.76 381.526 1058.24 381.526 1061.56V1075H384.726V1063.08C384.726 1059.52 386.966 1056.76 390.086 1056.76C392.606 1056.76 394.486 1058.24 394.486 1061.56V1075H397.686V1061.32C397.686 1056.92 394.846 1053.8 390.726 1053.8ZM419.217 1071.48V1061.68C419.217 1057 416.177 1053.8 410.857 1053.8C405.777 1053.8 402.497 1056.32 402.257 1060.4H405.617C405.737 1058.28 407.657 1056.52 410.777 1056.52C413.857 1056.52 416.017 1058.36 416.017 1061.32V1062.6C416.017 1062.6 411.777 1062.64 409.257 1062.76C404.657 1062.96 401.897 1065.16 401.897 1068.92C401.897 1072.68 404.817 1075.4 409.257 1075.4C411.537 1075.4 414.097 1074.6 415.977 1072H416.057C416.057 1072.88 416.137 1074.2 416.257 1075H419.377C419.257 1074.28 419.217 1072.84 419.217 1071.48ZM416.017 1065.28V1066.04C416.017 1070.4 412.777 1072.44 409.617 1072.44C406.937 1072.44 405.257 1071.2 405.257 1069.04C405.257 1066.92 406.777 1065.76 409.817 1065.56C412.257 1065.4 416.017 1065.28 416.017 1065.28ZM435.6 1057.08V1054.2H429.8V1047.2L426.6 1048.4V1054.2H421.8V1057.08H426.6V1068.2C426.6 1073.56 429.52 1075.16 433.32 1075.16C434.16 1075.16 435 1075 435.6 1074.76V1071.72C435.04 1071.96 434.28 1072.12 433.64 1072.12C431.48 1072.12 429.8 1071.52 429.8 1068.44V1057.08H435.6ZM441.581 1050.6C442.941 1050.6 443.981 1049.56 443.981 1048.2C443.981 1046.88 442.941 1045.8 441.581 1045.8C440.221 1045.8 439.181 1046.88 439.181 1048.2C439.181 1049.56 440.221 1050.6 441.581 1050.6ZM439.981 1054.2V1075H443.181V1054.2H439.981ZM446.791 1054.2L455.111 1075H458.711L467.191 1054.2H463.511L457.031 1071.4H456.951L450.631 1054.2H446.791ZM478.62 1072.44C474.42 1072.44 472.22 1069.24 471.82 1065.6H488.42C488.42 1058.64 485.06 1053.88 478.5 1053.8C472.46 1053.72 468.42 1058.52 468.42 1064.6C468.42 1070.68 472.42 1075.4 478.62 1075.4C483.3 1075.4 486.7 1072.88 487.7 1069L484.34 1068.52C483.7 1070.44 481.86 1072.44 478.62 1072.44ZM478.38 1056.76C482.38 1056.76 484.42 1060.24 484.78 1062.8H471.98C472.34 1060.24 474.38 1056.76 478.38 1056.76ZM509.063 1053.8C509.063 1049.48 505.783 1045.8 500.543 1045.8C495.063 1045.8 491.903 1049.72 491.623 1054.2H495.023C495.383 1051.6 497.063 1049 500.503 1049C503.903 1049 505.663 1051.4 505.663 1053.8C505.663 1056.12 504.663 1057.24 503.063 1058.76C501.583 1060.16 498.663 1062.24 498.663 1065.52V1067.4H502.023V1065.84C502.023 1063.32 503.863 1062.32 504.943 1061.32C506.343 1060.04 509.063 1057.88 509.063 1053.8ZM500.343 1075.32C501.703 1075.32 502.743 1074.28 502.743 1072.92C502.743 1071.6 501.703 1070.52 500.343 1070.52C498.983 1070.52 497.943 1071.6 497.943 1072.92C497.943 1074.28 498.983 1075.32 500.343 1075.32Z" fill="black"/>
<path d="M176.83 969.218L151.909 954.926C150.56 954.147 149.03 953.739 147.473 953.743C145.915 953.747 144.387 954.164 143.043 954.95C141.699 955.736 140.586 956.864 139.819 958.219C139.052 959.574 138.657 961.108 138.674 962.665V991.353C138.674 993.693 139.604 995.937 141.259 997.591C142.913 999.246 145.157 1000.18 147.497 1000.18C149.046 1000.17 150.568 999.764 151.909 998.989L176.83 984.697C178.169 983.922 179.281 982.808 180.054 981.468C180.826 980.127 181.233 978.608 181.233 977.06C181.233 975.513 180.826 973.993 180.054 972.653C179.281 971.313 178.169 970.199 176.83 969.424V969.218ZM174.25 980.027L149.329 994.526C148.77 994.842 148.139 995.009 147.497 995.009C146.855 995.009 146.224 994.842 145.666 994.526C145.109 994.204 144.646 993.742 144.325 993.185C144.003 992.628 143.834 991.996 143.834 991.353V962.562C143.834 961.919 144.003 961.287 144.325 960.73C144.646 960.173 145.109 959.71 145.666 959.389C146.227 959.077 146.856 958.908 147.497 958.898C148.139 958.912 148.767 959.08 149.329 959.389L174.25 973.784C174.807 974.105 175.27 974.568 175.592 975.125C175.913 975.682 176.083 976.314 176.083 976.957C176.083 977.6 175.913 978.232 175.592 978.789C175.27 979.346 174.807 979.809 174.25 980.13V980.027Z" fill="#5600AF"/>
<path d="M305.88 695.473H302.44V708.273H287.24V695.473H283.8V724.273H287.24V711.473H302.44V724.273H305.88V695.473ZM320.815 724.673C326.895 724.673 331.335 719.873 331.335 713.873C331.335 707.873 326.895 703.073 320.815 703.073C314.735 703.073 310.295 707.873 310.295 713.873C310.295 719.873 314.735 724.673 320.815 724.673ZM320.815 721.713C316.415 721.713 313.655 718.193 313.655 713.873C313.655 709.553 316.415 706.033 320.815 706.033C325.215 706.033 327.975 709.553 327.975 713.873C327.975 718.193 325.215 721.713 320.815 721.713ZM364.772 703.473H361.172L356.292 720.673H356.212L350.492 703.473H347.212L341.572 720.673H341.492L336.332 703.473H332.572L339.532 724.273H343.492L348.852 707.953L354.332 724.273H358.132L364.772 703.473ZM399.749 703.073C396.989 703.073 394.349 704.353 392.749 706.673C391.549 704.473 389.469 703.073 386.789 703.073C384.349 703.073 382.509 703.993 380.869 706.193H380.789V703.473H377.589V724.273H380.789V712.433C380.789 708.873 383.029 706.033 386.149 706.033C388.669 706.033 390.549 707.513 390.549 710.833V724.273H393.749V712.353C393.749 708.793 395.989 706.033 399.109 706.033C401.629 706.033 403.509 707.513 403.509 710.833V724.273H406.709V710.593C406.709 706.193 403.869 703.073 399.749 703.073ZM414.12 699.873C415.48 699.873 416.52 698.833 416.52 697.473C416.52 696.153 415.48 695.073 414.12 695.073C412.76 695.073 411.72 696.153 411.72 697.473C411.72 698.833 412.76 699.873 414.12 699.873ZM412.52 703.473V724.273H415.72V703.473H412.52ZM440.019 703.473H436.819V706.513H436.739C434.779 704.073 432.379 703.073 429.739 703.073C423.859 703.073 420.139 707.593 420.139 713.313C420.139 719.033 423.859 723.553 429.739 723.553C432.379 723.553 434.779 722.633 436.739 720.193H436.819V722.473C436.819 726.833 434.499 729.713 430.379 729.713C427.299 729.713 424.779 728.073 423.979 725.153L420.619 725.633C421.779 729.873 425.379 732.673 430.379 732.673C436.179 732.673 440.019 728.873 440.019 722.073V703.473ZM430.099 720.513C425.899 720.513 423.499 717.033 423.499 713.313C423.499 709.593 425.899 706.113 430.099 706.113C434.299 706.113 436.699 709.593 436.699 713.313C436.699 717.033 434.299 720.513 430.099 720.513ZM454.806 703.073C452.726 703.073 450.086 704.113 448.486 706.193H448.406V694.673H445.206V724.273H448.406V712.433C448.406 708.873 450.606 706.113 454.206 706.113C457.086 706.113 458.886 707.593 458.886 711.913V724.273H462.086V711.153C462.086 705.953 459.126 703.073 454.806 703.073ZM478.491 706.353V703.473H472.691V696.473L469.491 697.673V703.473H464.691V706.353H469.491V717.473C469.491 722.833 472.411 724.433 476.211 724.433C477.051 724.433 477.891 724.273 478.491 724.033V720.993C477.931 721.233 477.171 721.393 476.531 721.393C474.371 721.393 472.691 720.793 472.691 717.713V706.353H478.491ZM521.881 703.473H518.281L513.401 720.673H513.321L507.601 703.473H504.321L498.681 720.673H498.601L493.441 703.473H489.681L496.641 724.273H500.601L505.961 707.953L511.441 724.273H515.241L521.881 703.473ZM533.308 721.713C529.108 721.713 526.908 718.513 526.508 714.873H543.108C543.108 707.913 539.748 703.153 533.188 703.073C527.148 702.993 523.108 707.793 523.108 713.873C523.108 719.953 527.108 724.673 533.308 724.673C537.988 724.673 541.388 722.153 542.388 718.273L539.028 717.793C538.388 719.713 536.548 721.713 533.308 721.713ZM533.068 706.033C537.068 706.033 539.108 709.513 539.468 712.073H526.668C527.028 709.513 529.068 706.033 533.068 706.033ZM566.72 703.073C564.64 703.073 562 704.113 560.4 706.193H560.32V694.673H557.12V724.273H560.32V712.433C560.32 708.873 562.52 706.113 566.12 706.113C569 706.113 570.8 707.593 570.8 711.913V724.273H574V711.153C574 705.953 571.04 703.073 566.72 703.073ZM588.777 721.713C584.577 721.713 582.377 718.513 581.977 714.873H598.577C598.577 707.913 595.217 703.153 588.657 703.073C582.617 702.993 578.577 707.793 578.577 713.873C578.577 719.953 582.577 724.673 588.777 724.673C593.457 724.673 596.857 722.153 597.857 718.273L594.497 717.793C593.857 719.713 592.017 721.713 588.777 721.713ZM588.537 706.033C592.537 706.033 594.577 709.513 594.937 712.073H582.137C582.497 709.513 584.537 706.033 588.537 706.033ZM602.98 694.673V724.273H606.18V694.673H602.98ZM622.049 724.673C627.769 724.673 631.609 720.353 631.609 713.873C631.609 707.393 627.769 703.073 622.049 703.073C619.329 703.073 616.729 704.273 615.049 706.673H614.969V703.473H611.769V731.673H614.969V721.073H615.049C616.729 723.473 619.329 724.673 622.049 724.673ZM621.569 706.113C625.569 706.113 628.249 709.233 628.249 713.873C628.249 718.513 625.569 721.633 621.569 721.633C617.129 721.633 614.889 718.033 614.889 713.873C614.889 709.673 617.129 706.113 621.569 706.113ZM657.436 706.353V703.473H651.636V696.473L648.436 697.673V703.473H643.636V706.353H648.436V717.473C648.436 722.833 651.356 724.433 655.156 724.433C655.996 724.433 656.836 724.273 657.436 724.033V720.993C656.876 721.233 656.116 721.393 655.476 721.393C653.316 721.393 651.636 720.793 651.636 717.713V706.353H657.436ZM671.017 703.073C668.937 703.073 666.297 704.113 664.697 706.193H664.617V694.673H661.417V724.273H664.617V712.433C664.617 708.873 666.817 706.113 670.417 706.113C673.297 706.113 675.097 707.593 675.097 711.913V724.273H678.297V711.153C678.297 705.953 675.337 703.073 671.017 703.073ZM693.073 721.713C688.873 721.713 686.673 718.513 686.273 714.873H702.873C702.873 707.913 699.513 703.153 692.953 703.073C686.913 702.993 682.873 707.793 682.873 713.873C682.873 719.953 686.873 724.673 693.073 724.673C697.753 724.673 701.153 722.153 702.153 718.273L698.793 717.793C698.153 719.713 696.313 721.713 693.073 721.713ZM692.833 706.033C696.833 706.033 698.873 709.513 699.233 712.073H686.433C686.793 709.513 688.833 706.033 692.833 706.033ZM724.006 724.673C726.086 724.673 728.566 723.753 730.206 721.553H730.286V724.273H733.486V703.473H730.286V715.313C730.286 718.873 727.966 721.633 724.566 721.633C721.646 721.633 719.886 719.753 719.886 715.993V703.473H716.686V716.193C716.686 721.313 719.246 724.673 724.006 724.673ZM754.273 718.713C754.273 714.513 751.033 713.433 747.833 712.673C744.673 711.873 741.513 711.633 741.513 708.953C741.513 707.073 743.433 705.793 745.873 705.793C748.753 705.793 750.473 707.353 750.593 709.473H754.033C753.713 705.393 750.233 703.073 745.793 703.073C741.513 703.073 738.233 705.593 738.233 709.153C738.233 713.353 741.873 714.393 745.273 715.233C748.233 715.953 750.993 716.513 750.993 718.913C750.993 720.913 748.953 721.953 746.433 721.953C743.393 721.953 741.673 720.513 741.473 717.993H737.873C738.113 722.273 741.433 724.673 746.553 724.673C750.993 724.673 754.273 722.393 754.273 718.713ZM767.683 721.713C763.483 721.713 761.283 718.513 760.883 714.873H777.483C777.483 707.913 774.123 703.153 767.563 703.073C761.523 702.993 757.483 707.793 757.483 713.873C757.483 719.953 761.483 724.673 767.683 724.673C772.363 724.673 775.763 722.153 776.763 718.273L773.403 717.793C772.763 719.713 770.923 721.713 767.683 721.713ZM767.443 706.033C771.443 706.033 773.483 709.513 773.843 712.073H761.043C761.403 709.513 763.443 706.033 767.443 706.033ZM781.886 703.473V724.273H785.086V712.513C785.086 708.753 786.726 706.353 790.886 706.353C791.286 706.353 791.726 706.393 792.126 706.473V703.353C791.726 703.273 791.246 703.233 790.726 703.233C788.246 703.233 786.086 704.433 785.166 706.433H785.086V703.473H781.886ZM824.433 703.473H821.233V706.513H821.153C819.193 704.073 816.793 703.073 814.153 703.073C808.273 703.073 804.553 707.593 804.553 713.313C804.553 719.033 808.273 723.553 814.153 723.553C816.793 723.553 819.193 722.633 821.153 720.193H821.233V722.473C821.233 726.833 818.913 729.713 814.793 729.713C811.713 729.713 809.193 728.073 808.393 725.153L805.033 725.633C806.193 729.873 809.793 732.673 814.793 732.673C820.593 732.673 824.433 728.873 824.433 722.073V703.473ZM814.513 720.513C810.313 720.513 807.913 717.033 807.913 713.313C807.913 709.593 810.313 706.113 814.513 706.113C818.713 706.113 821.113 709.593 821.113 713.313C821.113 717.033 818.713 720.513 814.513 720.513ZM829.62 703.473V724.273H832.82V712.513C832.82 708.753 834.46 706.353 838.62 706.353C839.02 706.353 839.46 706.393 839.86 706.473V703.353C839.46 703.273 838.98 703.233 838.46 703.233C835.98 703.233 833.82 704.433 832.9 706.433H832.82V703.473H829.62ZM852.417 724.673C858.497 724.673 862.937 719.873 862.937 713.873C862.937 707.873 858.497 703.073 852.417 703.073C846.337 703.073 841.897 707.873 841.897 713.873C841.897 719.873 846.337 724.673 852.417 724.673ZM852.417 721.713C848.017 721.713 845.257 718.193 845.257 713.873C845.257 709.553 848.017 706.033 852.417 706.033C856.817 706.033 859.577 709.553 859.577 713.873C859.577 718.193 856.817 721.713 852.417 721.713ZM874.475 724.673C876.555 724.673 879.035 723.753 880.675 721.553H880.755V724.273H883.955V703.473H880.755V715.313C880.755 718.873 878.435 721.633 875.035 721.633C872.115 721.633 870.355 719.753 870.355 715.993V703.473H867.155V716.193C867.155 721.313 869.715 724.673 874.475 724.673ZM899.822 724.673C905.542 724.673 909.382 720.353 909.382 713.873C909.382 707.393 905.542 703.073 899.822 703.073C897.102 703.073 894.502 704.273 892.822 706.673H892.742V703.473H889.542V731.673H892.742V721.073H892.822C894.502 723.473 897.102 724.673 899.822 724.673ZM899.342 706.113C903.342 706.113 906.022 709.233 906.022 713.873C906.022 718.513 903.342 721.633 899.342 721.633C894.902 721.633 892.662 718.033 892.662 713.873C892.662 709.673 894.902 706.113 899.342 706.113ZM938.609 718.713C938.609 714.513 935.369 713.433 932.169 712.673C929.009 711.873 925.849 711.633 925.849 708.953C925.849 707.073 927.769 705.793 930.209 705.793C933.089 705.793 934.809 707.353 934.929 709.473H938.369C938.049 705.393 934.569 703.073 930.129 703.073C925.849 703.073 922.569 705.593 922.569 709.153C922.569 713.353 926.209 714.393 929.609 715.233C932.569 715.953 935.329 716.513 935.329 718.913C935.329 720.913 933.289 721.953 930.769 721.953C927.729 721.953 926.009 720.513 925.809 717.993H922.209C922.449 722.273 925.769 724.673 930.889 724.673C935.329 724.673 938.609 722.393 938.609 718.713ZM945.019 699.873C946.379 699.873 947.419 698.833 947.419 697.473C947.419 696.153 946.379 695.073 945.019 695.073C943.659 695.073 942.619 696.153 942.619 697.473C942.619 698.833 943.659 699.873 945.019 699.873ZM943.419 703.473V724.273H946.619V703.473H943.419ZM970.918 703.473H967.718V706.513H967.638C965.678 704.073 963.278 703.073 960.638 703.073C954.758 703.073 951.038 707.593 951.038 713.313C951.038 719.033 954.758 723.553 960.638 723.553C963.278 723.553 965.678 722.633 967.638 720.193H967.718V722.473C967.718 726.833 965.398 729.713 961.278 729.713C958.198 729.713 955.678 728.073 954.878 725.153L951.518 725.633C952.678 729.873 956.278 732.673 961.278 732.673C967.078 732.673 970.918 728.873 970.918 722.073V703.473ZM960.998 720.513C956.798 720.513 954.398 717.033 954.398 713.313C954.398 709.593 956.798 706.113 960.998 706.113C965.198 706.113 967.598 709.593 967.598 713.313C967.598 717.033 965.198 720.513 960.998 720.513ZM976.105 703.473V724.273H979.305V712.433C979.305 708.873 981.665 706.113 985.265 706.113C988.145 706.113 990.105 707.633 990.105 712.313V724.273H993.305V711.553C993.305 705.993 990.305 703.073 985.985 703.073C983.905 703.073 981.025 704.073 979.385 706.193H979.305V703.473H976.105ZM1013.92 718.713C1013.92 714.513 1010.68 713.433 1007.48 712.673C1004.32 711.873 1001.16 711.633 1001.16 708.953C1001.16 707.073 1003.08 705.793 1005.52 705.793C1008.4 705.793 1010.12 707.353 1010.24 709.473H1013.68C1013.36 705.393 1009.88 703.073 1005.44 703.073C1001.16 703.073 997.882 705.593 997.882 709.153C997.882 713.353 1001.52 714.393 1004.92 715.233C1007.88 715.953 1010.64 716.513 1010.64 718.913C1010.64 720.913 1008.6 721.953 1006.08 721.953C1003.04 721.953 1001.32 720.513 1001.12 717.993H997.522C997.762 722.273 1001.08 724.673 1006.2 724.673C1010.64 724.673 1013.92 722.393 1013.92 718.713ZM1029.94 699.873C1031.3 699.873 1032.34 698.833 1032.34 697.473C1032.34 696.153 1031.3 695.073 1029.94 695.073C1028.58 695.073 1027.54 696.153 1027.54 697.473C1027.54 698.833 1028.58 699.873 1029.94 699.873ZM1028.34 703.473V724.273H1031.54V703.473H1028.34ZM1037.55 703.473V724.273H1040.75V712.433C1040.75 708.873 1043.11 706.113 1046.71 706.113C1049.59 706.113 1051.55 707.633 1051.55 712.313V724.273H1054.75V711.553C1054.75 705.993 1051.75 703.073 1047.43 703.073C1045.35 703.073 1042.47 704.073 1040.83 706.193H1040.75V703.473H1037.55ZM1071.19 706.353V703.473H1065.39V696.473L1062.19 697.673V703.473H1057.39V706.353H1062.19V717.473C1062.19 722.833 1065.11 724.433 1068.91 724.433C1069.75 724.433 1070.59 724.273 1071.19 724.033V720.993C1070.63 721.233 1069.87 721.393 1069.23 721.393C1067.07 721.393 1065.39 720.793 1065.39 717.713V706.353H1071.19ZM1084.49 724.673C1090.57 724.673 1095.01 719.873 1095.01 713.873C1095.01 707.873 1090.57 703.073 1084.49 703.073C1078.41 703.073 1073.97 707.873 1073.97 713.873C1073.97 719.873 1078.41 724.673 1084.49 724.673ZM1084.49 721.713C1080.09 721.713 1077.33 718.193 1077.33 713.873C1077.33 709.553 1080.09 706.033 1084.49 706.033C1088.89 706.033 1091.65 709.553 1091.65 713.873C1091.65 718.193 1088.89 721.713 1084.49 721.713ZM1117.83 721.713C1113.63 721.713 1111.19 718.273 1111.19 713.873C1111.19 709.473 1113.63 706.033 1117.83 706.033C1120.47 706.033 1122.79 707.473 1123.67 710.593L1127.03 710.113C1125.71 705.313 1122.23 703.073 1117.83 703.073C1111.63 703.073 1107.83 707.793 1107.83 713.873C1107.83 719.953 1111.63 724.673 1117.83 724.673C1122.23 724.673 1125.71 722.433 1127.03 717.633L1123.67 717.153C1122.79 720.273 1120.47 721.713 1117.83 721.713ZM1140.74 724.673C1146.82 724.673 1151.26 719.873 1151.26 713.873C1151.26 707.873 1146.82 703.073 1140.74 703.073C1134.66 703.073 1130.22 707.873 1130.22 713.873C1130.22 719.873 1134.66 724.673 1140.74 724.673ZM1140.74 721.713C1136.34 721.713 1133.58 718.193 1133.58 713.873C1133.58 709.553 1136.34 706.033 1140.74 706.033C1145.14 706.033 1147.9 709.553 1147.9 713.873C1147.9 718.193 1145.14 721.713 1140.74 721.713ZM1155.28 694.673V724.273H1158.48V694.673H1155.28ZM1164.07 694.673V724.273H1167.27V694.673H1164.07ZM1181.47 721.713C1177.27 721.713 1175.07 718.513 1174.67 714.873H1191.27C1191.27 707.913 1187.91 703.153 1181.35 703.073C1175.31 702.993 1171.27 707.793 1171.27 713.873C1171.27 719.953 1175.27 724.673 1181.47 724.673C1186.15 724.673 1189.55 722.153 1190.55 718.273L1187.19 717.793C1186.55 719.713 1184.71 721.713 1181.47 721.713ZM1181.23 706.033C1185.23 706.033 1187.27 709.513 1187.63 712.073H1174.83C1175.19 709.513 1177.23 706.033 1181.23 706.033ZM1204.87 721.713C1200.67 721.713 1198.23 718.273 1198.23 713.873C1198.23 709.473 1200.67 706.033 1204.87 706.033C1207.51 706.033 1209.83 707.473 1210.71 710.593L1214.07 710.113C1212.75 705.313 1209.27 703.073 1204.87 703.073C1198.67 703.073 1194.87 707.793 1194.87 713.873C1194.87 719.953 1198.67 724.673 1204.87 724.673C1209.27 724.673 1212.75 722.433 1214.07 717.633L1210.71 717.153C1209.83 720.273 1207.51 721.713 1204.87 721.713ZM1229.86 706.353V703.473H1224.06V696.473L1220.86 697.673V703.473H1216.06V706.353H1220.86V717.473C1220.86 722.833 1223.78 724.433 1227.58 724.433C1228.42 724.433 1229.26 724.273 1229.86 724.033V720.993C1229.3 721.233 1228.54 721.393 1227.9 721.393C1225.74 721.393 1224.06 720.793 1224.06 717.713V706.353H1229.86ZM1235.84 699.873C1237.2 699.873 1238.24 698.833 1238.24 697.473C1238.24 696.153 1237.2 695.073 1235.84 695.073C1234.48 695.073 1233.44 696.153 1233.44 697.473C1233.44 698.833 1234.48 699.873 1235.84 699.873ZM1234.24 703.473V724.273H1237.44V703.473H1234.24ZM1252.38 724.673C1258.46 724.673 1262.9 719.873 1262.9 713.873C1262.9 707.873 1258.46 703.073 1252.38 703.073C1246.3 703.073 1241.86 707.873 1241.86 713.873C1241.86 719.873 1246.3 724.673 1252.38 724.673ZM1252.38 721.713C1247.98 721.713 1245.22 718.193 1245.22 713.873C1245.22 709.553 1247.98 706.033 1252.38 706.033C1256.78 706.033 1259.54 709.553 1259.54 713.873C1259.54 718.193 1256.78 721.713 1252.38 721.713ZM1267.32 703.473V724.273H1270.52V712.433C1270.52 708.873 1272.88 706.113 1276.48 706.113C1279.36 706.113 1281.32 707.633 1281.32 712.313V724.273H1284.52V711.553C1284.52 705.993 1281.52 703.073 1277.2 703.073C1275.12 703.073 1272.24 704.073 1270.6 706.193H1270.52V703.473H1267.32ZM299.92 800.753V790.953C299.92 786.273 296.88 783.073 291.56 783.073C286.48 783.073 283.2 785.593 282.96 789.673H286.32C286.44 787.553 288.36 785.793 291.48 785.793C294.56 785.793 296.72 787.633 296.72 790.593V791.873C296.72 791.873 292.48 791.913 289.96 792.033C285.36 792.233 282.6 794.433 282.6 798.193C282.6 801.953 285.52 804.673 289.96 804.673C292.24 804.673 294.8 803.873 296.68 801.273H296.76C296.76 802.153 296.84 803.473 296.96 804.273H300.08C299.96 803.553 299.92 802.113 299.92 800.753ZM296.72 794.553V795.313C296.72 799.673 293.48 801.713 290.32 801.713C287.64 801.713 285.96 800.473 285.96 798.313C285.96 796.193 287.48 795.033 290.52 794.833C292.96 794.673 296.72 794.553 296.72 794.553ZM305.284 783.473V804.273H308.484V792.433C308.484 788.873 310.844 786.113 314.444 786.113C317.324 786.113 319.284 787.633 319.284 792.313V804.273H322.484V791.553C322.484 785.993 319.484 783.073 315.164 783.073C313.084 783.073 310.204 784.073 308.564 786.193H308.484V783.473H305.284ZM346.932 774.673H343.732V786.673H343.652C341.972 784.273 339.372 783.073 336.652 783.073C330.932 783.073 327.092 787.393 327.092 793.873C327.092 800.353 330.932 804.673 336.652 804.673C339.372 804.673 341.972 803.473 343.652 801.073H343.732V804.273H346.932V774.673ZM337.132 786.113C341.572 786.113 343.812 789.713 343.812 793.873C343.812 798.073 341.572 801.633 337.132 801.633C333.132 801.633 330.452 798.513 330.452 793.873C330.452 789.233 333.132 786.113 337.132 786.113ZM371.159 801.713C366.959 801.713 364.759 798.513 364.359 794.873H380.959C380.959 787.913 377.599 783.153 371.039 783.073C364.999 782.993 360.959 787.793 360.959 793.873C360.959 799.953 364.959 804.673 371.159 804.673C375.839 804.673 379.239 802.153 380.239 798.273L376.879 797.793C376.239 799.713 374.399 801.713 371.159 801.713ZM370.919 786.033C374.919 786.033 376.959 789.513 377.319 792.073H364.519C364.879 789.513 366.919 786.033 370.919 786.033ZM401.483 800.753V790.953C401.483 786.273 398.443 783.073 393.122 783.073C388.043 783.073 384.763 785.593 384.523 789.673H387.883C388.003 787.553 389.923 785.793 393.043 785.793C396.123 785.793 398.283 787.633 398.283 790.593V791.873C398.283 791.873 394.043 791.913 391.523 792.033C386.923 792.233 384.163 794.433 384.163 798.193C384.163 801.953 387.083 804.673 391.523 804.673C393.803 804.673 396.363 803.873 398.243 801.273H398.323C398.323 802.153 398.403 803.473 398.523 804.273H401.643C401.523 803.553 401.483 802.113 401.483 800.753ZM398.283 794.553V795.313C398.283 799.673 395.043 801.713 391.883 801.713C389.203 801.713 387.523 800.473 387.523 798.313C387.523 796.193 389.043 795.033 392.083 794.833C394.523 794.673 398.283 794.553 398.283 794.553ZM422.047 798.713C422.047 794.513 418.807 793.433 415.607 792.673C412.447 791.873 409.287 791.633 409.287 788.953C409.287 787.073 411.207 785.793 413.647 785.793C416.527 785.793 418.247 787.353 418.367 789.473H421.807C421.487 785.393 418.007 783.073 413.567 783.073C409.287 783.073 406.007 785.593 406.007 789.153C406.007 793.353 409.647 794.393 413.047 795.233C416.007 795.953 418.767 796.513 418.767 798.913C418.767 800.913 416.727 801.953 414.207 801.953C411.167 801.953 409.447 800.513 409.247 797.993H405.647C405.887 802.273 409.207 804.673 414.327 804.673C418.767 804.673 422.047 802.393 422.047 798.713ZM428.456 779.873C429.816 779.873 430.856 778.833 430.856 777.473C430.856 776.153 429.816 775.073 428.456 775.073C427.096 775.073 426.056 776.153 426.056 777.473C426.056 778.833 427.096 779.873 428.456 779.873ZM426.856 783.473V804.273H430.056V783.473H426.856ZM436.066 774.673V804.273H439.266V774.673H436.066ZM459.175 783.473L452.695 800.673H452.615L446.295 783.473H442.455L450.775 804.273L447.215 812.273H451.175L462.855 783.473H459.175ZM491.795 800.753V790.953C491.795 786.273 488.755 783.073 483.435 783.073C478.355 783.073 475.075 785.593 474.835 789.673H478.195C478.315 787.553 480.235 785.793 483.355 785.793C486.435 785.793 488.595 787.633 488.595 790.593V791.873C488.595 791.873 484.355 791.913 481.835 792.033C477.235 792.233 474.475 794.433 474.475 798.193C474.475 801.953 477.395 804.673 481.835 804.673C484.115 804.673 486.675 803.873 488.555 801.273H488.635C488.635 802.153 488.715 803.473 488.835 804.273H491.955C491.835 803.553 491.795 802.113 491.795 800.753ZM488.595 794.553V795.313C488.595 799.673 485.355 801.713 482.195 801.713C479.515 801.713 477.835 800.473 477.835 798.313C477.835 796.193 479.355 795.033 482.395 794.833C484.835 794.673 488.595 794.553 488.595 794.553ZM505.959 801.713C501.759 801.713 499.319 798.273 499.319 793.873C499.319 789.473 501.759 786.033 505.959 786.033C508.599 786.033 510.919 787.473 511.799 790.593L515.159 790.113C513.839 785.313 510.359 783.073 505.959 783.073C499.759 783.073 495.959 787.793 495.959 793.873C495.959 799.953 499.759 804.673 505.959 804.673C510.359 804.673 513.839 802.433 515.159 797.633L511.799 797.153C510.919 800.273 508.599 801.713 505.959 801.713ZM528.342 801.713C524.142 801.713 521.702 798.273 521.702 793.873C521.702 789.473 524.142 786.033 528.342 786.033C530.982 786.033 533.302 787.473 534.182 790.593L537.542 790.113C536.222 785.313 532.742 783.073 528.342 783.073C522.142 783.073 518.342 787.793 518.342 793.873C518.342 799.953 522.142 804.673 528.342 804.673C532.742 804.673 536.222 802.433 537.542 797.633L534.182 797.153C533.302 800.273 530.982 801.713 528.342 801.713ZM550.925 801.713C546.725 801.713 544.525 798.513 544.125 794.873H560.725C560.725 787.913 557.365 783.153 550.805 783.073C544.765 782.993 540.725 787.793 540.725 793.873C540.725 799.953 544.725 804.673 550.925 804.673C555.605 804.673 559.005 802.153 560.005 798.273L556.645 797.793C556.005 799.713 554.165 801.713 550.925 801.713ZM550.685 786.033C554.685 786.033 556.725 789.513 557.085 792.073H544.285C544.645 789.513 546.685 786.033 550.685 786.033ZM580.328 798.713C580.328 794.513 577.088 793.433 573.888 792.673C570.728 791.873 567.568 791.633 567.568 788.953C567.568 787.073 569.488 785.793 571.928 785.793C574.808 785.793 576.528 787.353 576.648 789.473H580.088C579.768 785.393 576.288 783.073 571.848 783.073C567.568 783.073 564.288 785.593 564.288 789.153C564.288 793.353 567.928 794.393 571.328 795.233C574.288 795.953 577.048 796.513 577.048 798.913C577.048 800.913 575.008 801.953 572.488 801.953C569.448 801.953 567.728 800.513 567.528 797.993H563.928C564.168 802.273 567.488 804.673 572.608 804.673C577.048 804.673 580.328 802.393 580.328 798.713ZM599.938 798.713C599.938 794.513 596.698 793.433 593.498 792.673C590.338 791.873 587.178 791.633 587.178 788.953C587.178 787.073 589.098 785.793 591.538 785.793C594.418 785.793 596.138 787.353 596.258 789.473H599.698C599.378 785.393 595.898 783.073 591.458 783.073C587.178 783.073 583.898 785.593 583.898 789.153C583.898 793.353 587.538 794.393 590.938 795.233C593.898 795.953 596.658 796.513 596.658 798.913C596.658 800.913 594.618 801.953 592.098 801.953C589.058 801.953 587.338 800.513 587.138 797.993H583.538C583.778 802.273 587.098 804.673 592.217 804.673C596.658 804.673 599.938 802.393 599.938 798.713ZM625.756 786.353V783.473H619.956V776.473L616.756 777.673V783.473H611.956V786.353H616.756V797.473C616.756 802.833 619.676 804.433 623.476 804.433C624.316 804.433 625.156 804.273 625.756 804.033V800.993C625.196 801.233 624.436 801.393 623.796 801.393C621.636 801.393 619.956 800.793 619.956 797.713V786.353H625.756ZM639.338 783.073C637.258 783.073 634.618 784.113 633.018 786.193H632.938V774.673H629.738V804.273H632.938V792.433C632.938 788.873 635.138 786.113 638.738 786.113C641.618 786.113 643.418 787.593 643.418 791.913V804.273H646.618V791.153C646.618 785.953 643.658 783.073 639.338 783.073ZM661.394 801.713C657.194 801.713 654.994 798.513 654.594 794.873H671.194C671.194 787.913 667.834 783.153 661.274 783.073C655.234 782.993 651.194 787.793 651.194 793.873C651.194 799.953 655.194 804.673 661.394 804.673C666.074 804.673 669.474 802.153 670.474 798.273L667.114 797.793C666.474 799.713 664.634 801.713 661.394 801.713ZM661.154 786.033C665.154 786.033 667.194 789.513 667.554 792.073H654.754C655.114 789.513 657.154 786.033 661.154 786.033ZM697.757 783.073C694.997 783.073 692.357 784.353 690.757 786.673C689.557 784.473 687.477 783.073 684.797 783.073C682.357 783.073 680.517 783.993 678.877 786.193H678.797V783.473H675.597V804.273H678.797V792.433C678.797 788.873 681.037 786.033 684.157 786.033C686.677 786.033 688.557 787.513 688.557 790.833V804.273H691.757V792.353C691.757 788.793 693.997 786.033 697.117 786.033C699.637 786.033 701.517 787.513 701.517 790.833V804.273H704.717V790.593C704.717 786.193 701.877 783.073 697.757 783.073ZM726.368 783.073C726.368 778.753 723.088 775.073 717.848 775.073C712.368 775.073 709.208 778.993 708.928 783.473H712.328C712.688 780.873 714.368 778.273 717.808 778.273C721.208 778.273 722.968 780.673 722.968 783.073C722.968 785.393 721.968 786.513 720.368 788.033C718.888 789.433 715.968 791.513 715.968 794.793V796.673H719.328V795.113C719.328 792.593 721.168 791.593 722.248 790.593C723.648 789.313 726.368 787.153 726.368 783.073ZM717.648 804.593C719.008 804.593 720.048 803.553 720.048 802.193C720.048 800.873 719.008 799.793 717.648 799.793C716.288 799.793 715.248 800.873 715.248 802.193C715.248 803.553 716.288 804.593 717.648 804.593Z" fill="black"/>
<path d="M178.016 688.189H161.815L160.989 685.609C160.454 684.096 159.461 682.786 158.149 681.861C156.836 680.937 155.268 680.444 153.663 680.45H141.899C139.846 680.45 137.877 681.265 136.426 682.717C134.975 684.168 134.159 686.137 134.159 688.189V721.727C134.159 723.779 134.975 725.748 136.426 727.199C137.877 728.651 139.846 729.466 141.899 729.466H178.016C180.069 729.466 182.037 728.651 183.489 727.199C184.94 725.748 185.755 723.779 185.755 721.727V695.929C185.755 693.876 184.94 691.907 183.489 690.456C182.037 689.005 180.069 688.189 178.016 688.189ZM180.596 721.727C180.596 722.411 180.324 723.067 179.84 723.551C179.356 724.035 178.7 724.307 178.016 724.307H141.899C141.214 724.307 140.558 724.035 140.074 723.551C139.591 723.067 139.319 722.411 139.319 721.727V688.189C139.319 687.505 139.591 686.849 140.074 686.365C140.558 685.881 141.214 685.609 141.899 685.609H153.663C154.203 685.608 154.731 685.777 155.171 686.091C155.611 686.406 155.94 686.851 156.113 687.364L157.507 691.595C157.68 692.107 158.009 692.552 158.449 692.867C158.889 693.182 159.416 693.35 159.957 693.349H178.016C178.7 693.349 179.356 693.621 179.84 694.104C180.324 694.588 180.596 695.244 180.596 695.929V721.727Z" fill="#5600AF"/>
<path d="M305.88 424.2H302.44V437H287.24V424.2H283.8V453H287.24V440.2H302.44V453H305.88V424.2ZM320.815 453.4C326.895 453.4 331.335 448.6 331.335 442.6C331.335 436.6 326.895 431.8 320.815 431.8C314.735 431.8 310.295 436.6 310.295 442.6C310.295 448.6 314.735 453.4 320.815 453.4ZM320.815 450.44C316.415 450.44 313.655 446.92 313.655 442.6C313.655 438.28 316.415 434.76 320.815 434.76C325.215 434.76 327.975 438.28 327.975 442.6C327.975 446.92 325.215 450.44 320.815 450.44ZM364.772 432.2H361.172L356.292 449.4H356.212L350.492 432.2H347.212L341.572 449.4H341.492L336.332 432.2H332.572L339.532 453H343.492L348.852 436.68L354.332 453H358.132L364.772 432.2ZM399.749 431.8C396.989 431.8 394.349 433.08 392.749 435.4C391.549 433.2 389.469 431.8 386.789 431.8C384.349 431.8 382.509 432.72 380.869 434.92H380.789V432.2H377.589V453H380.789V441.16C380.789 437.6 383.029 434.76 386.149 434.76C388.669 434.76 390.549 436.24 390.549 439.56V453H393.749V441.08C393.749 437.52 395.989 434.76 399.109 434.76C401.629 434.76 403.509 436.24 403.509 439.56V453H406.709V439.32C406.709 434.92 403.869 431.8 399.749 431.8ZM414.12 428.6C415.48 428.6 416.52 427.56 416.52 426.2C416.52 424.88 415.48 423.8 414.12 423.8C412.76 423.8 411.72 424.88 411.72 426.2C411.72 427.56 412.76 428.6 414.12 428.6ZM412.52 432.2V453H415.72V432.2H412.52ZM440.019 432.2H436.819V435.24H436.739C434.779 432.8 432.379 431.8 429.739 431.8C423.859 431.8 420.139 436.32 420.139 442.04C420.139 447.76 423.859 452.28 429.739 452.28C432.379 452.28 434.779 451.36 436.739 448.92H436.819V451.2C436.819 455.56 434.499 458.44 430.379 458.44C427.299 458.44 424.779 456.8 423.979 453.88L420.619 454.36C421.779 458.6 425.379 461.4 430.379 461.4C436.179 461.4 440.019 457.6 440.019 450.8V432.2ZM430.099 449.24C425.899 449.24 423.499 445.76 423.499 442.04C423.499 438.32 425.899 434.84 430.099 434.84C434.299 434.84 436.699 438.32 436.699 442.04C436.699 445.76 434.299 449.24 430.099 449.24ZM454.806 431.8C452.726 431.8 450.086 432.84 448.486 434.92H448.406V423.4H445.206V453H448.406V441.16C448.406 437.6 450.606 434.84 454.206 434.84C457.086 434.84 458.886 436.32 458.886 440.64V453H462.086V439.88C462.086 434.68 459.126 431.8 454.806 431.8ZM478.491 435.08V432.2H472.691V425.2L469.491 426.4V432.2H464.691V435.08H469.491V446.2C469.491 451.56 472.411 453.16 476.211 453.16C477.051 453.16 477.891 453 478.491 452.76V449.72C477.931 449.96 477.171 450.12 476.531 450.12C474.371 450.12 472.691 449.52 472.691 446.44V435.08H478.491ZM521.881 432.2H518.281L513.401 449.4H513.321L507.601 432.2H504.321L498.681 449.4H498.601L493.441 432.2H489.681L496.641 453H500.601L505.961 436.68L511.441 453H515.241L521.881 432.2ZM533.308 450.44C529.108 450.44 526.908 447.24 526.508 443.6H543.108C543.108 436.64 539.748 431.88 533.188 431.8C527.148 431.72 523.108 436.52 523.108 442.6C523.108 448.68 527.108 453.4 533.308 453.4C537.988 453.4 541.388 450.88 542.388 447L539.028 446.52C538.388 448.44 536.548 450.44 533.308 450.44ZM533.068 434.76C537.068 434.76 539.108 438.24 539.468 440.8H526.668C527.028 438.24 529.068 434.76 533.068 434.76ZM566.72 431.8C564.64 431.8 562 432.84 560.4 434.92H560.32V423.4H557.12V453H560.32V441.16C560.32 437.6 562.52 434.84 566.12 434.84C569 434.84 570.8 436.32 570.8 440.64V453H574V439.88C574 434.68 571.04 431.8 566.72 431.8ZM588.777 450.44C584.577 450.44 582.377 447.24 581.977 443.6H598.577C598.577 436.64 595.217 431.88 588.657 431.8C582.617 431.72 578.577 436.52 578.577 442.6C578.577 448.68 582.577 453.4 588.777 453.4C593.457 453.4 596.857 450.88 597.857 447L594.497 446.52C593.857 448.44 592.017 450.44 588.777 450.44ZM588.537 434.76C592.537 434.76 594.577 438.24 594.937 440.8H582.137C582.497 438.24 584.537 434.76 588.537 434.76ZM602.98 423.4V453H606.18V423.4H602.98ZM622.049 453.4C627.769 453.4 631.609 449.08 631.609 442.6C631.609 436.12 627.769 431.8 622.049 431.8C619.329 431.8 616.729 433 615.049 435.4H614.969V432.2H611.769V460.4H614.969V449.8H615.049C616.729 452.2 619.329 453.4 622.049 453.4ZM621.569 434.84C625.569 434.84 628.249 437.96 628.249 442.6C628.249 447.24 625.569 450.36 621.569 450.36C617.129 450.36 614.889 446.76 614.889 442.6C614.889 438.4 617.129 434.84 621.569 434.84ZM657.436 435.08V432.2H651.636V425.2L648.436 426.4V432.2H643.636V435.08H648.436V446.2C648.436 451.56 651.356 453.16 655.156 453.16C655.996 453.16 656.836 453 657.436 452.76V449.72C656.876 449.96 656.116 450.12 655.476 450.12C653.316 450.12 651.636 449.52 651.636 446.44V435.08H657.436ZM671.017 431.8C668.937 431.8 666.297 432.84 664.697 434.92H664.617V423.4H661.417V453H664.617V441.16C664.617 437.6 666.817 434.84 670.417 434.84C673.297 434.84 675.097 436.32 675.097 440.64V453H678.297V439.88C678.297 434.68 675.337 431.8 671.017 431.8ZM693.073 450.44C688.873 450.44 686.673 447.24 686.273 443.6H702.873C702.873 436.64 699.513 431.88 692.953 431.8C686.913 431.72 682.873 436.52 682.873 442.6C682.873 448.68 686.873 453.4 693.073 453.4C697.753 453.4 701.153 450.88 702.153 447L698.793 446.52C698.153 448.44 696.313 450.44 693.073 450.44ZM692.833 434.76C696.833 434.76 698.873 438.24 699.233 440.8H686.433C686.793 438.24 688.833 434.76 692.833 434.76ZM724.006 453.4C726.086 453.4 728.566 452.48 730.206 450.28H730.286V453H733.486V432.2H730.286V444.04C730.286 447.6 727.966 450.36 724.566 450.36C721.646 450.36 719.886 448.48 719.886 444.72V432.2H716.686V444.92C716.686 450.04 719.246 453.4 724.006 453.4ZM754.273 447.44C754.273 443.24 751.033 442.16 747.833 441.4C744.673 440.6 741.513 440.36 741.513 437.68C741.513 435.8 743.433 434.52 745.873 434.52C748.753 434.52 750.473 436.08 750.593 438.2H754.033C753.713 434.12 750.233 431.8 745.793 431.8C741.513 431.8 738.233 434.32 738.233 437.88C738.233 442.08 741.873 443.12 745.273 443.96C748.233 444.68 750.993 445.24 750.993 447.64C750.993 449.64 748.953 450.68 746.433 450.68C743.393 450.68 741.673 449.24 741.473 446.72H737.873C738.113 451 741.433 453.4 746.553 453.4C750.993 453.4 754.273 451.12 754.273 447.44ZM767.683 450.44C763.483 450.44 761.283 447.24 760.883 443.6H777.483C777.483 436.64 774.123 431.88 767.563 431.8C761.523 431.72 757.483 436.52 757.483 442.6C757.483 448.68 761.483 453.4 767.683 453.4C772.363 453.4 775.763 450.88 776.763 447L773.403 446.52C772.763 448.44 770.923 450.44 767.683 450.44ZM767.443 434.76C771.443 434.76 773.483 438.24 773.843 440.8H761.043C761.403 438.24 763.443 434.76 767.443 434.76ZM781.886 432.2V453H785.086V441.24C785.086 437.48 786.726 435.08 790.886 435.08C791.286 435.08 791.726 435.12 792.126 435.2V432.08C791.726 432 791.246 431.96 790.726 431.96C788.246 431.96 786.086 433.16 785.166 435.16H785.086V432.2H781.886ZM820.953 447.44C820.953 443.24 817.713 442.16 814.513 441.4C811.353 440.6 808.193 440.36 808.193 437.68C808.193 435.8 810.113 434.52 812.553 434.52C815.433 434.52 817.153 436.08 817.273 438.2H820.713C820.393 434.12 816.913 431.8 812.473 431.8C808.193 431.8 804.913 434.32 804.913 437.88C804.913 442.08 808.553 443.12 811.953 443.96C814.913 444.68 817.673 445.24 817.673 447.64C817.673 449.64 815.633 450.68 813.113 450.68C810.073 450.68 808.353 449.24 808.153 446.72H804.553C804.793 451 808.113 453.4 813.233 453.4C817.673 453.4 820.953 451.12 820.953 447.44ZM841.483 449.48V439.68C841.483 435 838.443 431.8 833.122 431.8C828.043 431.8 824.763 434.32 824.523 438.4H827.883C828.003 436.28 829.923 434.52 833.043 434.52C836.123 434.52 838.283 436.36 838.283 439.32V440.6C838.283 440.6 834.043 440.64 831.523 440.76C826.923 440.96 824.163 443.16 824.163 446.92C824.163 450.68 827.083 453.4 831.523 453.4C833.803 453.4 836.363 452.6 838.243 450H838.323C838.323 450.88 838.403 452.2 838.523 453H841.643C841.523 452.28 841.483 450.84 841.483 449.48ZM838.283 443.28V444.04C838.283 448.4 835.043 450.44 831.883 450.44C829.203 450.44 827.523 449.2 827.523 447.04C827.523 444.92 829.043 443.76 832.083 443.56C834.523 443.4 838.283 443.28 838.283 443.28ZM843.236 432.2L851.556 453H855.156L863.636 432.2H859.956L853.476 449.4H853.396L847.076 432.2H843.236ZM875.066 450.44C870.866 450.44 868.666 447.24 868.266 443.6H884.866C884.866 436.64 881.506 431.88 874.946 431.8C868.906 431.72 864.866 436.52 864.866 442.6C864.866 448.68 868.866 453.4 875.066 453.4C879.746 453.4 883.146 450.88 884.146 447L880.786 446.52C880.146 448.44 878.306 450.44 875.066 450.44ZM874.826 434.76C878.826 434.76 880.866 438.24 881.226 440.8H868.426C868.786 438.24 870.826 434.76 874.826 434.76ZM908.478 431.8C906.398 431.8 903.758 432.84 902.158 434.92H902.078V423.4H898.878V453H902.078V441.16C902.078 437.6 904.278 434.84 907.878 434.84C910.758 434.84 912.558 436.32 912.558 440.64V453H915.758V439.88C915.758 434.68 912.798 431.8 908.478 431.8ZM923.144 428.6C924.504 428.6 925.544 427.56 925.544 426.2C925.544 424.88 924.504 423.8 923.144 423.8C921.784 423.8 920.744 424.88 920.744 426.2C920.744 427.56 921.784 428.6 923.144 428.6ZM921.544 432.2V453H924.744V432.2H921.544ZM945.953 447.44C945.953 443.24 942.713 442.16 939.513 441.4C936.353 440.6 933.193 440.36 933.193 437.68C933.193 435.8 935.113 434.52 937.553 434.52C940.433 434.52 942.153 436.08 942.273 438.2H945.713C945.393 434.12 941.913 431.8 937.473 431.8C933.193 431.8 929.913 434.32 929.913 437.88C929.913 442.08 933.553 443.12 936.953 443.96C939.913 444.68 942.673 445.24 942.673 447.64C942.673 449.64 940.633 450.68 938.113 450.68C935.073 450.68 933.353 449.24 933.153 446.72H929.553C929.793 451 933.113 453.4 938.233 453.4C942.673 453.4 945.953 451.12 945.953 447.44ZM957.972 435.08H961.972V453H965.172V435.08H970.972V432.2H965.172V429.88C965.172 426.72 966.852 426.04 969.012 426.04C969.652 426.04 970.412 426.2 970.972 426.44V423.4C970.372 423.16 969.492 423 968.692 423C964.892 423 961.972 424.76 961.972 430.2V432.2H957.972V435.08ZM989.92 449.48V439.68C989.92 435 986.88 431.8 981.56 431.8C976.48 431.8 973.2 434.32 972.96 438.4H976.32C976.44 436.28 978.36 434.52 981.48 434.52C984.56 434.52 986.72 436.36 986.72 439.32V440.6C986.72 440.6 982.48 440.64 979.96 440.76C975.36 440.96 972.6 443.16 972.6 446.92C972.6 450.68 975.52 453.4 979.96 453.4C982.24 453.4 984.8 452.6 986.68 450H986.76C986.76 450.88 986.84 452.2 986.96 453H990.08C989.96 452.28 989.92 450.84 989.92 449.48ZM986.72 443.28V444.04C986.72 448.4 983.48 450.44 980.32 450.44C977.64 450.44 975.96 449.2 975.96 447.04C975.96 444.92 977.48 443.76 980.52 443.56C982.96 443.4 986.72 443.28 986.72 443.28ZM991.673 432.2L999.993 453H1003.59L1012.07 432.2H1008.39L1001.91 449.4H1001.83L995.513 432.2H991.673ZM1023.82 453.4C1029.9 453.4 1034.34 448.6 1034.34 442.6C1034.34 436.6 1029.9 431.8 1023.82 431.8C1017.74 431.8 1013.3 436.6 1013.3 442.6C1013.3 448.6 1017.74 453.4 1023.82 453.4ZM1023.82 450.44C1019.42 450.44 1016.66 446.92 1016.66 442.6C1016.66 438.28 1019.42 434.76 1023.82 434.76C1028.22 434.76 1030.98 438.28 1030.98 442.6C1030.98 446.92 1028.22 450.44 1023.82 450.44ZM1038.76 432.2V453H1041.96V441.24C1041.96 437.48 1043.6 435.08 1047.76 435.08C1048.16 435.08 1048.6 435.12 1049 435.2V432.08C1048.6 432 1048.12 431.96 1047.6 431.96C1045.12 431.96 1042.96 433.16 1042.04 435.16H1041.96V432.2H1038.76ZM1055.02 428.6C1056.38 428.6 1057.42 427.56 1057.42 426.2C1057.42 424.88 1056.38 423.8 1055.02 423.8C1053.66 423.8 1052.62 424.88 1052.62 426.2C1052.62 427.56 1053.66 428.6 1055.02 428.6ZM1053.42 432.2V453H1056.62V432.2H1053.42ZM1074.43 435.08V432.2H1068.63V425.2L1065.43 426.4V432.2H1060.63V435.08H1065.43V446.2C1065.43 451.56 1068.35 453.16 1072.15 453.16C1072.99 453.16 1073.83 453 1074.43 452.76V449.72C1073.87 449.96 1073.11 450.12 1072.47 450.12C1070.31 450.12 1068.63 449.52 1068.63 446.44V435.08H1074.43ZM1087.41 450.44C1083.21 450.44 1081.01 447.24 1080.61 443.6H1097.21C1097.21 436.64 1093.85 431.88 1087.29 431.8C1081.25 431.72 1077.21 436.52 1077.21 442.6C1077.21 448.68 1081.21 453.4 1087.41 453.4C1092.09 453.4 1095.49 450.88 1096.49 447L1093.13 446.52C1092.49 448.44 1090.65 450.44 1087.41 450.44ZM1087.17 434.76C1091.17 434.76 1093.21 438.24 1093.57 440.8H1080.77C1081.13 438.24 1083.17 434.76 1087.17 434.76ZM1116.81 447.44C1116.81 443.24 1113.57 442.16 1110.37 441.4C1107.21 440.6 1104.05 440.36 1104.05 437.68C1104.05 435.8 1105.97 434.52 1108.41 434.52C1111.29 434.52 1113.01 436.08 1113.13 438.2H1116.57C1116.25 434.12 1112.77 431.8 1108.33 431.8C1104.05 431.8 1100.77 434.32 1100.77 437.88C1100.77 442.08 1104.41 443.12 1107.81 443.96C1110.77 444.68 1113.53 445.24 1113.53 447.64C1113.53 449.64 1111.49 450.68 1108.97 450.68C1105.93 450.68 1104.21 449.24 1104.01 446.72H1100.41C1100.65 451 1103.97 453.4 1109.09 453.4C1113.53 453.4 1116.81 451.12 1116.81 447.44ZM1146.03 447.44C1146.03 443.24 1142.79 442.16 1139.59 441.4C1136.43 440.6 1133.27 440.36 1133.27 437.68C1133.27 435.8 1135.19 434.52 1137.63 434.52C1140.51 434.52 1142.23 436.08 1142.35 438.2H1145.79C1145.47 434.12 1141.99 431.8 1137.55 431.8C1133.27 431.8 1129.99 434.32 1129.99 437.88C1129.99 442.08 1133.63 443.12 1137.03 443.96C1139.99 444.68 1142.75 445.24 1142.75 447.64C1142.75 449.64 1140.71 450.68 1138.19 450.68C1135.15 450.68 1133.43 449.24 1133.23 446.72H1129.63C1129.87 451 1133.19 453.4 1138.31 453.4C1142.75 453.4 1146.03 451.12 1146.03 447.44ZM1152.44 428.6C1153.8 428.6 1154.84 427.56 1154.84 426.2C1154.84 424.88 1153.8 423.8 1152.44 423.8C1151.08 423.8 1150.04 424.88 1150.04 426.2C1150.04 427.56 1151.08 428.6 1152.44 428.6ZM1150.84 432.2V453H1154.04V432.2H1150.84ZM1178.34 432.2H1175.14V435.24H1175.06C1173.1 432.8 1170.7 431.8 1168.06 431.8C1162.18 431.8 1158.46 436.32 1158.46 442.04C1158.46 447.76 1162.18 452.28 1168.06 452.28C1170.7 452.28 1173.1 451.36 1175.06 448.92H1175.14V451.2C1175.14 455.56 1172.82 458.44 1168.7 458.44C1165.62 458.44 1163.1 456.8 1162.3 453.88L1158.94 454.36C1160.1 458.6 1163.7 461.4 1168.7 461.4C1174.5 461.4 1178.34 457.6 1178.34 450.8V432.2ZM1168.42 449.24C1164.22 449.24 1161.82 445.76 1161.82 442.04C1161.82 438.32 1164.22 434.84 1168.42 434.84C1172.62 434.84 1175.02 438.32 1175.02 442.04C1175.02 445.76 1172.62 449.24 1168.42 449.24ZM1183.53 432.2V453H1186.73V441.16C1186.73 437.6 1189.09 434.84 1192.69 434.84C1195.57 434.84 1197.53 436.36 1197.53 441.04V453H1200.73V440.28C1200.73 434.72 1197.73 431.8 1193.41 431.8C1191.33 431.8 1188.45 432.8 1186.81 434.92H1186.73V432.2H1183.53ZM1221.34 447.44C1221.34 443.24 1218.1 442.16 1214.9 441.4C1211.74 440.6 1208.58 440.36 1208.58 437.68C1208.58 435.8 1210.5 434.52 1212.94 434.52C1215.82 434.52 1217.54 436.08 1217.66 438.2H1221.1C1220.78 434.12 1217.3 431.8 1212.86 431.8C1208.58 431.8 1205.3 434.32 1205.3 437.88C1205.3 442.08 1208.94 443.12 1212.34 443.96C1215.3 444.68 1218.06 445.24 1218.06 447.64C1218.06 449.64 1216.02 450.68 1213.5 450.68C1210.46 450.68 1208.74 449.24 1208.54 446.72H1204.94C1205.18 451 1208.5 453.4 1213.62 453.4C1218.06 453.4 1221.34 451.12 1221.34 447.44ZM299.92 529.48V519.68C299.92 515 296.88 511.8 291.56 511.8C286.48 511.8 283.2 514.32 282.96 518.4H286.32C286.44 516.28 288.36 514.52 291.48 514.52C294.56 514.52 296.72 516.36 296.72 519.32V520.6C296.72 520.6 292.48 520.64 289.96 520.76C285.36 520.96 282.6 523.16 282.6 526.92C282.6 530.68 285.52 533.4 289.96 533.4C292.24 533.4 294.8 532.6 296.68 530H296.76C296.76 530.88 296.84 532.2 296.96 533H300.08C299.96 532.28 299.92 530.84 299.92 529.48ZM296.72 523.28V524.04C296.72 528.4 293.48 530.44 290.32 530.44C287.64 530.44 285.96 529.2 285.96 527.04C285.96 524.92 287.48 523.76 290.52 523.56C292.96 523.4 296.72 523.28 296.72 523.28ZM305.284 512.2V533H308.484V521.16C308.484 517.6 310.844 514.84 314.444 514.84C317.324 514.84 319.284 516.36 319.284 521.04V533H322.484V520.28C322.484 514.72 319.484 511.8 315.164 511.8C313.084 511.8 310.204 512.8 308.564 514.92H308.484V512.2H305.284ZM346.932 503.4H343.732V515.4H343.652C341.972 513 339.372 511.8 336.652 511.8C330.932 511.8 327.092 516.12 327.092 522.6C327.092 529.08 330.932 533.4 336.652 533.4C339.372 533.4 341.972 532.2 343.652 529.8H343.732V533H346.932V503.4ZM337.132 514.84C341.572 514.84 343.812 518.44 343.812 522.6C343.812 526.8 341.572 530.36 337.132 530.36C333.132 530.36 330.452 527.24 330.452 522.6C330.452 517.96 333.132 514.84 337.132 514.84ZM371.159 530.44C366.959 530.44 364.759 527.24 364.359 523.6H380.959C380.959 516.64 377.599 511.88 371.039 511.8C364.999 511.72 360.959 516.52 360.959 522.6C360.959 528.68 364.959 533.4 371.159 533.4C375.839 533.4 379.239 530.88 380.239 527L376.879 526.52C376.239 528.44 374.399 530.44 371.159 530.44ZM370.919 514.76C374.919 514.76 376.959 518.24 377.319 520.8H364.519C364.879 518.24 366.919 514.76 370.919 514.76ZM401.483 529.48V519.68C401.483 515 398.443 511.8 393.122 511.8C388.043 511.8 384.763 514.32 384.523 518.4H387.883C388.003 516.28 389.923 514.52 393.043 514.52C396.123 514.52 398.283 516.36 398.283 519.32V520.6C398.283 520.6 394.043 520.64 391.523 520.76C386.923 520.96 384.163 523.16 384.163 526.92C384.163 530.68 387.083 533.4 391.523 533.4C393.803 533.4 396.363 532.6 398.243 530H398.323C398.323 530.88 398.403 532.2 398.523 533H401.643C401.523 532.28 401.483 530.84 401.483 529.48ZM398.283 523.28V524.04C398.283 528.4 395.043 530.44 391.883 530.44C389.203 530.44 387.523 529.2 387.523 527.04C387.523 524.92 389.043 523.76 392.083 523.56C394.523 523.4 398.283 523.28 398.283 523.28ZM422.047 527.44C422.047 523.24 418.807 522.16 415.607 521.4C412.447 520.6 409.287 520.36 409.287 517.68C409.287 515.8 411.207 514.52 413.647 514.52C416.527 514.52 418.247 516.08 418.367 518.2H421.807C421.487 514.12 418.007 511.8 413.567 511.8C409.287 511.8 406.007 514.32 406.007 517.88C406.007 522.08 409.647 523.12 413.047 523.96C416.007 524.68 418.767 525.24 418.767 527.64C418.767 529.64 416.727 530.68 414.207 530.68C411.167 530.68 409.447 529.24 409.247 526.72H405.647C405.887 531 409.207 533.4 414.327 533.4C418.767 533.4 422.047 531.12 422.047 527.44ZM428.456 508.6C429.816 508.6 430.856 507.56 430.856 506.2C430.856 504.88 429.816 503.8 428.456 503.8C427.096 503.8 426.056 504.88 426.056 506.2C426.056 507.56 427.096 508.6 428.456 508.6ZM426.856 512.2V533H430.056V512.2H426.856ZM436.066 503.4V533H439.266V503.4H436.066ZM459.175 512.2L452.695 529.4H452.615L446.295 512.2H442.455L450.775 533L447.215 541H451.175L462.855 512.2H459.175ZM491.795 529.48V519.68C491.795 515 488.755 511.8 483.435 511.8C478.355 511.8 475.075 514.32 474.835 518.4H478.195C478.315 516.28 480.235 514.52 483.355 514.52C486.435 514.52 488.595 516.36 488.595 519.32V520.6C488.595 520.6 484.355 520.64 481.835 520.76C477.235 520.96 474.475 523.16 474.475 526.92C474.475 530.68 477.395 533.4 481.835 533.4C484.115 533.4 486.675 532.6 488.555 530H488.635C488.635 530.88 488.715 532.2 488.835 533H491.955C491.835 532.28 491.795 530.84 491.795 529.48ZM488.595 523.28V524.04C488.595 528.4 485.355 530.44 482.195 530.44C479.515 530.44 477.835 529.2 477.835 527.04C477.835 524.92 479.355 523.76 482.395 523.56C484.835 523.4 488.595 523.28 488.595 523.28ZM505.959 530.44C501.759 530.44 499.319 527 499.319 522.6C499.319 518.2 501.759 514.76 505.959 514.76C508.599 514.76 510.919 516.2 511.799 519.32L515.159 518.84C513.839 514.04 510.359 511.8 505.959 511.8C499.759 511.8 495.959 516.52 495.959 522.6C495.959 528.68 499.759 533.4 505.959 533.4C510.359 533.4 513.839 531.16 515.159 526.36L511.799 525.88C510.919 529 508.599 530.44 505.959 530.44ZM528.342 530.44C524.142 530.44 521.702 527 521.702 522.6C521.702 518.2 524.142 514.76 528.342 514.76C530.982 514.76 533.302 516.2 534.182 519.32L537.542 518.84C536.222 514.04 532.742 511.8 528.342 511.8C522.142 511.8 518.342 516.52 518.342 522.6C518.342 528.68 522.142 533.4 528.342 533.4C532.742 533.4 536.222 531.16 537.542 526.36L534.182 525.88C533.302 529 530.982 530.44 528.342 530.44ZM550.925 530.44C546.725 530.44 544.525 527.24 544.125 523.6H560.725C560.725 516.64 557.365 511.88 550.805 511.8C544.765 511.72 540.725 516.52 540.725 522.6C540.725 528.68 544.725 533.4 550.925 533.4C555.605 533.4 559.005 530.88 560.005 527L556.645 526.52C556.005 528.44 554.165 530.44 550.925 530.44ZM550.685 514.76C554.685 514.76 556.725 518.24 557.085 520.8H544.285C544.645 518.24 546.685 514.76 550.685 514.76ZM580.328 527.44C580.328 523.24 577.088 522.16 573.888 521.4C570.728 520.6 567.568 520.36 567.568 517.68C567.568 515.8 569.488 514.52 571.928 514.52C574.808 514.52 576.528 516.08 576.648 518.2H580.088C579.768 514.12 576.288 511.8 571.848 511.8C567.568 511.8 564.288 514.32 564.288 517.88C564.288 522.08 567.928 523.12 571.328 523.96C574.288 524.68 577.048 525.24 577.048 527.64C577.048 529.64 575.008 530.68 572.488 530.68C569.448 530.68 567.728 529.24 567.528 526.72H563.928C564.168 531 567.488 533.4 572.608 533.4C577.048 533.4 580.328 531.12 580.328 527.44ZM599.938 527.44C599.938 523.24 596.698 522.16 593.498 521.4C590.338 520.6 587.178 520.36 587.178 517.68C587.178 515.8 589.098 514.52 591.538 514.52C594.418 514.52 596.138 516.08 596.258 518.2H599.698C599.378 514.12 595.898 511.8 591.458 511.8C587.178 511.8 583.898 514.32 583.898 517.88C583.898 522.08 587.538 523.12 590.938 523.96C593.898 524.68 596.658 525.24 596.658 527.64C596.658 529.64 594.618 530.68 592.098 530.68C589.058 530.68 587.338 529.24 587.138 526.72H583.538C583.778 531 587.098 533.4 592.217 533.4C596.658 533.4 599.938 531.12 599.938 527.44ZM625.756 515.08V512.2H619.956V505.2L616.756 506.4V512.2H611.956V515.08H616.756V526.2C616.756 531.56 619.676 533.16 623.476 533.16C624.316 533.16 625.156 533 625.756 532.76V529.72C625.196 529.96 624.436 530.12 623.796 530.12C621.636 530.12 619.956 529.52 619.956 526.44V515.08H625.756ZM639.338 511.8C637.258 511.8 634.618 512.84 633.018 514.92H632.938V503.4H629.738V533H632.938V521.16C632.938 517.6 635.138 514.84 638.738 514.84C641.618 514.84 643.418 516.32 643.418 520.64V533H646.618V519.88C646.618 514.68 643.658 511.8 639.338 511.8ZM661.394 530.44C657.194 530.44 654.994 527.24 654.594 523.6H671.194C671.194 516.64 667.834 511.88 661.274 511.8C655.234 511.72 651.194 516.52 651.194 522.6C651.194 528.68 655.194 533.4 661.394 533.4C666.074 533.4 669.474 530.88 670.474 527L667.114 526.52C666.474 528.44 664.634 530.44 661.394 530.44ZM661.154 514.76C665.154 514.76 667.194 518.24 667.554 520.8H654.754C655.114 518.24 657.154 514.76 661.154 514.76ZM697.757 511.8C694.997 511.8 692.357 513.08 690.757 515.4C689.557 513.2 687.477 511.8 684.797 511.8C682.357 511.8 680.517 512.72 678.877 514.92H678.797V512.2H675.597V533H678.797V521.16C678.797 517.6 681.037 514.76 684.157 514.76C686.677 514.76 688.557 516.24 688.557 519.56V533H691.757V521.08C691.757 517.52 693.997 514.76 697.117 514.76C699.637 514.76 701.517 516.24 701.517 519.56V533H704.717V519.32C704.717 514.92 701.877 511.8 697.757 511.8ZM726.368 511.8C726.368 507.48 723.088 503.8 717.848 503.8C712.368 503.8 709.208 507.72 708.928 512.2H712.328C712.688 509.6 714.368 507 717.808 507C721.208 507 722.968 509.4 722.968 511.8C722.968 514.12 721.968 515.24 720.368 516.76C718.888 518.16 715.968 520.24 715.968 523.52V525.4H719.328V523.84C719.328 521.32 721.168 520.32 722.248 519.32C723.648 518.04 726.368 515.88 726.368 511.8ZM717.648 533.32C719.008 533.32 720.048 532.28 720.048 530.92C720.048 529.6 719.008 528.52 717.648 528.52C716.288 528.52 715.248 529.6 715.248 530.92C715.248 532.28 716.288 533.32 717.648 533.32Z" fill="black"/>
<path d="M181.01 421.892C178.271 419.153 174.64 417.487 170.777 417.198C166.913 416.909 163.075 418.017 159.959 420.319C156.677 417.877 152.591 416.77 148.525 417.22C144.459 417.671 140.715 419.645 138.046 422.745C135.377 425.846 133.982 429.842 134.142 433.93C134.302 438.017 136.005 441.893 138.908 444.775L158.127 463.995C158.367 464.237 158.652 464.429 158.967 464.56C159.281 464.691 159.618 464.758 159.959 464.758C160.3 464.758 160.637 464.691 160.951 464.56C161.265 464.429 161.551 464.237 161.791 463.995L181.01 444.775C182.513 443.273 183.706 441.489 184.519 439.526C185.333 437.563 185.752 435.459 185.752 433.334C185.752 431.209 185.333 429.104 184.519 427.141C183.706 425.178 182.513 423.394 181.01 421.892ZM177.373 441.138L159.959 458.526L142.545 441.138C141.011 439.597 139.965 437.637 139.54 435.504C139.115 433.372 139.33 431.161 140.156 429.149C140.983 427.138 142.385 425.415 144.187 424.198C145.989 422.98 148.11 422.322 150.285 422.305C153.19 422.312 155.973 423.472 158.024 425.53C158.264 425.772 158.549 425.964 158.864 426.095C159.178 426.226 159.515 426.293 159.856 426.293C160.196 426.293 160.534 426.226 160.848 426.095C161.162 425.964 161.448 425.772 161.687 425.53C163.799 423.7 166.526 422.741 169.317 422.847C172.109 422.952 174.756 424.114 176.723 426.098C178.69 428.081 179.83 430.738 179.913 433.53C179.995 436.323 179.013 439.042 177.166 441.138H177.373Z" fill="#5600AF"/>
</svg>
