<svg fill="none" height="702" viewBox="0 0 779 702" width="779" xmlns="http://www.w3.org/2000/svg" xmlns:xlink="http://www.w3.org/1999/xlink"><mask id="a" fill="#000" height="32" maskUnits="userSpaceOnUse" width="26" x="542.785" y="120.881"><path d="m542.785 120.881h26v32h-26z" fill="#fff"/><path d="m567.443 134.846c-.781-.639-1.887-.843-2.818-.521-.249.086-.481.208-.689.36-.529.39-1.704 1.559-2.635 2.716v-8.918c0-.758-.312-1.499-.855-2.033-.54-.53-1.248-.816-1.991-.802-.338.006-.661.073-.96.19v-.871c0-.825-.339-1.631-.931-2.213-.586-.576-1.354-.887-2.165-.872-1.618.028-2.939 1.343-2.987 2.951-.351-.159-.731-.248-1.126-.26-.821-.024-1.635.294-2.232.873-.585.568-.907 1.316-.907 2.107l-.002.845c-.252-.083-.521-.129-.801-.129-1.411 0-2.559 1.148-2.559 2.559l.001 12.963.002.062c.118 1.701.474 3.158 1.059 4.329.548 1.099 1.313 1.983 2.273 2.629 1.889 1.272 4.223 1.435 6.045 1.435 3.578 0 6.797-1.779 8.407-4.644.195-.316.711-1.127 1.268-2.002.543-.853 1.048-1.638 1.493-2.331.244-.382.467-.728.66-1.03.72-1.126 1.487-2.217 2.28-3.244.294-.381.385-.484.406-.507.371-.405.605-.901.676-1.435.113-.837-.22-1.641-.912-2.207zm-.853 1.971c-.023.171-.1.332-.224.468-.065.07-.181.205-.502.621-.826 1.068-1.623 2.203-2.371 3.373-.193.302-.415.647-.659 1.027-.446.695-.951 1.482-1.496 2.337-.57.896-1.098 1.725-1.291 2.037l-.02.035c-1.292 2.313-3.921 3.749-6.862 3.749-1.569 0-3.561-.128-5.051-1.13-1.519-1.023-2.352-2.846-2.546-5.574l-.001-12.932c0-.429.349-.778.777-.778.432 0 .783.349.783.778v4.851c0 .015.001.029.002.043.001.016.001.032.002.047.002.015.004.028.007.042.002.016.003.031.006.047.003.014.008.028.011.041.004.015.007.03.011.044.005.014.01.028.015.041.005.014.01.028.015.041.006.013.013.026.019.039s.012.026.019.039c.006.013.014.025.022.037.007.012.014.025.022.036.008.012.017.023.026.035.008.011.016.023.025.034s.019.021.029.031c.009.011.019.022.029.033.01.009.02.018.031.028.01.009.021.02.032.029s.022.017.033.025c.012.009.023.018.035.026s.024.015.035.021c.013.008.026.017.039.024.012.007.025.012.037.018.013.007.027.014.041.02.012.005.026.009.039.014.014.005.028.011.042.016.014.004.028.007.042.011.015.003.029.008.044.011s.029.004.044.007c.015.002.029.005.044.006.015.002.03.002.045.003.015 0 .03.002.045.002h.002c.031 0 .062-.002.091-.005.013-.001.026-.004.039-.005.017-.003.033-.005.05-.008s.033-.008.05-.013c.012-.003.024-.005.035-.009.018-.006.037-.013.055-.02.008-.003.018-.006.027-.01.018-.007.035-.016.052-.025.009-.004.017-.008.026-.012.016-.009.031-.019.047-.029.008-.005.017-.01.026-.016.014-.009.028-.02.041-.031.009-.006.019-.013.027-.02.013-.01.025-.022.037-.033.009-.008.018-.016.027-.024.011-.011.021-.023.031-.035.009-.009.018-.019.026-.028.01-.012.018-.024.027-.036.008-.011.017-.021.024-.033.009-.012.015-.024.023-.036.007-.013.015-.025.022-.037.007-.013.012-.026.019-.038.006-.014.013-.027.019-.04.005-.013.009-.027.014-.04.006-.014.011-.027.016-.042.004-.013.007-.027.01-.041.004-.015.009-.029.012-.044.003-.014.004-.028.006-.043.003-.015.006-.03.007-.045.002-.015.002-.029.003-.044 0-.016.002-.031.002-.046l.021-8.127c0-.306.13-.602.366-.831.253-.246.596-.381.939-.371.643.02 1.165.579 1.165 1.248l.011 8.031c0 .017.001.032.002.048.001.014.001.029.002.043.002.016.005.032.008.049.002.013.003.026.006.039.003.018.008.035.013.052.003.011.005.023.009.033.005.019.013.037.02.055.003.009.006.018.01.027.008.019.017.038.027.057.004.007.006.014.01.021.011.019.022.037.034.055.004.006.007.012.011.018.012.019.026.036.039.053.004.005.008.011.012.016.015.018.031.035.048.052.003.004.006.008.009.011.017.017.035.033.054.048.003.003.006.006.01.009.018.016.037.029.056.043.004.003.008.006.012.009.02.013.04.025.06.036.005.003.009.006.014.008.021.012.043.022.065.032.004.002.008.004.013.006.022.009.046.018.069.025.004.002.008.003.012.005.024.007.048.013.071.018.005.001.01.003.015.004.058.012.118.018.179.018h.001c.016 0 .031-.002.047-.002.014-.001.029-.001.044-.003.016-.002.032-.005.048-.007.013-.002.027-.004.04-.006l.048-.012c.012-.004.025-.006.038-.01.016-.005.031-.012.046-.018.012-.004.024-.007.035-.012.016-.007.032-.015.047-.023.011-.005.021-.01.031-.015.015-.008.03-.018.045-.027.009-.006.019-.011.029-.018.014-.009.027-.02.04-.03.01-.007.019-.014.028-.021.013-.01.025-.022.037-.034.009-.007.018-.015.026-.023.012-.012.022-.025.033-.037.008-.009.017-.017.025-.027.01-.012.018-.024.027-.037.008-.01.017-.021.024-.031.008-.013.015-.025.023-.038.007-.012.015-.024.022-.036s.012-.026.018-.039c.007-.013.014-.025.019-.039.005-.012.01-.026.014-.039.006-.014.012-.028.016-.043.004-.013.007-.028.011-.042s.008-.028.011-.043c.003-.014.004-.029.007-.044.002-.015.005-.029.006-.044.002-.015.002-.031.003-.046 0-.015.002-.03.002-.045v-10.707c0-.684.556-1.249 1.239-1.261.33-.005.643.123.886.361.253.249.398.593.398.943v10.713c0 .016.001.032.002.048.001.014.001.029.002.043.002.016.005.031.008.046.002.015.003.029.006.042.003.016.008.031.012.046.003.013.006.027.01.04.005.016.012.032.018.048.004.011.007.022.012.033.007.017.016.033.024.049.004.01.008.02.014.029.008.017.019.032.029.048.005.008.009.017.015.026.011.015.023.03.035.046.005.007.01.015.016.022.013.016.028.031.042.046.005.005.01.012.016.017.015.015.03.028.046.042.006.005.011.011.017.016.018.014.036.027.055.041.004.003.009.007.014.01.02.014.041.026.062.038.004.002.007.004.011.007.023.012.047.023.071.034.002.001.004.002.007.003.025.011.051.02.077.028.002.001.003.002.005.002.055.017.113.029.172.035h.002c.029.003.06.005.091.005h.001c.015 0 .031-.002.047-.002.014-.001.029-.001.043-.003.017-.001.033-.004.049-.007.013-.002.026-.003.04-.006.017-.004.034-.009.051-.013.011-.003.023-.006.034-.009.018-.006.035-.013.053-.019.009-.004.019-.007.029-.011.017-.008.035-.017.052-.025.008-.005.017-.008.025-.013.017-.009.034-.019.05-.03.008-.005.016-.009.024-.014.017-.011.032-.024.048-.036.007-.005.014-.01.02-.016.016-.013.031-.027.045-.041.006-.005.013-.01.018-.016.015-.014.028-.03.041-.045.006-.006.012-.012.017-.018.013-.016.024-.032.036-.048.005-.007.01-.014.015-.021.011-.016.021-.033.031-.05.004-.008.01-.015.014-.023.009-.017.017-.035.025-.053.004-.008.009-.017.012-.025.008-.017.014-.036.02-.053.003-.01.007-.019.01-.029.006-.017.01-.035.014-.052.002-.011.006-.022.008-.033.004-.018.006-.035.008-.053.002-.012.005-.024.006-.036.002-.016.002-.033.002-.049.001-.014.002-.028.002-.042v-7.351c.058-.497.48-.89.991-.899.262-.004.516.099.712.291.204.201.322.479.322.763v10.512.04c.005.577.384 1.065.943 1.214.555.147 1.123-.086 1.415-.586l.005-.01c.698-1.22 2.565-3.132 3.11-3.533.063-.046.135-.084.215-.111.355-.123.8-.036 1.108.216.145.119.311.318.274.592z" fill="#000"/></mask><path d="m0 0h779v702h-779z" fill="#fff"/><g fill="#262626"><path d="m45.2074 47.5455v17.4545h-3.6904v-17.4545zm8.8828 17.7102c-1.3409 0-2.4943-.2841-3.4602-.8523-.9603-.5739-1.6989-1.3693-2.2159-2.3864-.5114-1.017-.7671-2.1875-.7671-3.5113 0-1.3409.2585-2.5171.7756-3.5284.5227-1.0171 1.2642-1.8097 2.2244-2.3779.9602-.5738 2.1023-.8608 3.4262-.8608 1.142 0 2.142.2074 3 .6222.8579.4148 1.5369.9972 2.0369 1.7472s.7756 1.6306.8267 2.642h-3.4261c-.0966-.6534-.3523-1.179-.7671-1.5767-.4091-.4034-.946-.6051-1.6108-.6051-.5625 0-1.054.1534-1.4744.4602-.4148.3011-.7387.7415-.9716 1.321-.233.5796-.3494 1.2813-.3494 2.1051 0 .8353.1136 1.5455.3409 2.1307.2329.5853.5596 1.0313.9801 1.3381.4204.3068.9119.4602 1.4744.4602.4148 0 .7869-.0852 1.1165-.2557.3352-.1704.6108-.4176.8267-.7414.2216-.3296.3665-.7245.4347-1.1847h3.4261c-.0568 1-.3296 1.8807-.8182 2.6421-.4829.7556-1.1506 1.3465-2.0028 1.7727-.8523.4261-1.8608.6392-3.0256.6392zm14.0859 0c-1.3238 0-2.4687-.2813-3.4346-.8438-.9602-.5682-1.7017-1.3579-2.2245-2.3693-.5227-1.017-.784-2.196-.784-3.5369 0-1.3523.2613-2.5341.784-3.5455.5228-1.017 1.2643-1.8068 2.2245-2.3693.9659-.5682 2.1108-.8523 3.4346-.8523 1.3239 0 2.4659.2841 3.4262.8523.9659.5625 1.7102 1.3523 2.2329 2.3693.5228 1.0114.7841 2.1932.7841 3.5455 0 1.3409-.2613 2.5199-.7841 3.5369-.5227 1.0114-1.267 1.8011-2.2329 2.3693-.9603.5625-2.1023.8438-3.4262.8438zm.0171-2.8125c.6023 0 1.1051-.1705 1.5085-.5114.4034-.3466.7074-.8182.9119-1.4148.2103-.5965.3154-1.2755.3154-2.0369 0-.7613-.1051-1.4403-.3154-2.0369-.2045-.5966-.5085-1.0682-.9119-1.4148s-.9062-.5199-1.5085-.5199c-.608 0-1.1193.1733-1.5341.5199-.4091.3466-.7188.8182-.929 1.4148-.2045.5966-.3068 1.2756-.3068 2.0369 0 .7614.1023 1.4404.3068 2.0369.2102.5966.5199 1.0682.929 1.4148.4148.3409.9261.5114 1.5341.5114zm12.4176-5.0114v7.5682h-3.6307v-13.0909h3.4602v2.3097h.1535c.2897-.7614.7755-1.3637 1.4573-1.8069.6819-.4488 1.5086-.6733 2.4801-.6733.9091 0 1.7018.1989 2.3779.5966.6761.3978 1.2017.9659 1.5767 1.7046.375.7329.5625 1.6079.5625 2.625v8.3352h-3.6307v-7.6875c.0057-.8011-.1988-1.4261-.6136-1.875-.4148-.4545-.9858-.6818-1.7131-.6818-.4886 0-.9204.1051-1.2954.3153-.3694.2102-.6591.5171-.8694.9205-.2045.3977-.3096.8778-.3153 1.4403zm22.1912-1.7898-3.324.2046c-.0568-.2841-.179-.5398-.3665-.7671-.1875-.2329-.4347-.4176-.7415-.5539-.3011-.1421-.6619-.2131-1.0824-.2131-.5625 0-1.0369.1193-1.4233.358-.3863.2329-.5795.5454-.5795.9375 0 .3125.125.5767.375.7926s.679.3892 1.2869.5199l2.3694.4772c1.2729.2614 2.2219.6818 2.8469 1.2614.625.5795.937 1.3409.937 2.2841 0 .8579-.253 1.6108-.758 2.2585-.5.6477-1.188 1.1534-2.063 1.5171-.8692.3579-1.872.5369-3.0084.5369-1.733 0-3.1136-.3608-4.142-1.0824-1.0228-.7273-1.6222-1.7159-1.7983-2.9659l3.571-.1875c.1079.5284.3693.9318.7841 1.2102.4147.2727.946.4091 1.5937.4091.6364 0 1.1477-.1222 1.5341-.3665.3921-.25.5909-.571.5966-.963-.0057-.3296-.1449-.5995-.4176-.8097-.2727-.2159-.6932-.3807-1.2614-.4943l-2.267-.4517c-1.2784-.2557-2.2301-.6989-2.8551-1.3296-.6194-.6307-.929-1.4346-.929-2.4119 0-.8409.2273-1.5653.6818-2.1733.4602-.608 1.1051-1.0767 1.9347-1.4062.8352-.3296 1.8125-.4944 2.9318-.4944 1.6534 0 2.955.3495 3.903 1.0483.955.6989 1.512 1.6506 1.671 2.8551z"/><path d="m648.484 134.912h-8.679v-8.679c0-.384-.153-.752-.424-1.023-.271-.272-.639-.424-1.023-.424-.383 0-.751.152-1.023.424-.271.271-.423.639-.423 1.023v8.679h-8.679c-.384 0-.752.152-1.023.423-.271.272-.424.639-.424 1.023s.153.752.424 1.023.639.424 1.023.424h8.679v8.679c0 .383.152.751.423 1.023.272.271.64.423 1.023.423.384 0 .752-.152 1.023-.423.271-.272.424-.64.424-1.023v-8.679h8.679c.383 0 .751-.153 1.023-.424.271-.271.423-.639.423-1.023s-.152-.751-.423-1.023c-.272-.271-.64-.423-1.023-.423z"/><path d="m47.2327 589.721c0-.799.7555-1.446 1.6876-1.446h16.8759c.9321 0 1.6876.647 1.6876 1.446s-.7555 1.447-1.6876 1.447h-16.8759c-.9321 0-1.6876-.648-1.6876-1.447z"/><path d="m50.6079 595.507c0-.799.7555-1.446 1.6876-1.446h10.1255c.9321 0 1.6876.647 1.6876 1.446s-.7555 1.447-1.6876 1.447h-10.1255c-.9321 0-1.6876-.648-1.6876-1.447z"/><path d="m55.6707 599.847c-.9321 0-1.6876.647-1.6876 1.446s.7555 1.447 1.6876 1.447h3.3751c.9321 0 1.6876-.648 1.6876-1.447s-.7555-1.446-1.6876-1.446z"/><path d="m652.404 377.782-5.367-5.323c2.083-2.597 3.092-5.894 2.819-9.212-.273-3.319-1.807-6.406-4.286-8.628-2.48-2.222-5.717-3.41-9.045-3.319s-6.495 1.454-8.849 3.808c-2.355 2.355-3.718 5.522-3.809 8.85s1.097 6.565 3.319 9.044c2.222 2.48 5.31 4.014 8.628 4.287s6.615-.736 9.212-2.819l5.323 5.323c.135.136.295.243.471.317.176.073.366.111.557.111.19 0 .38-.038.556-.111.176-.074.336-.181.471-.317.26-.27.406-.63.406-1.005s-.146-.736-.406-1.006zm-15.493-3.312c-2.002 0-3.96-.594-5.625-1.707-1.665-1.112-2.963-2.694-3.729-4.544-.767-1.85-.967-3.886-.577-5.85.391-1.964 1.355-3.769 2.772-5.185 1.416-1.416 3.22-2.38 5.184-2.771 1.964-.39 4-.19 5.85.576 1.85.767 3.432 2.065 4.545 3.73 1.112 1.665 1.706 3.623 1.706 5.625 0 2.686-1.067 5.261-2.966 7.16s-4.474 2.966-7.16 2.966z"/><path d="m734.97 360.93s0 0 0-.072c-1.019-2.783-2.869-5.185-5.298-6.883-2.429-1.697-5.321-2.607-8.285-2.607-2.963 0-5.855.91-8.285 2.607-2.429 1.698-4.278 4.1-5.298 6.883v.072c-1.138 3.141-1.138 6.581 0 9.721v.072c1.02 2.783 2.869 5.186 5.298 6.883 2.43 1.697 5.322 2.608 8.285 2.608 2.964 0 5.856-.911 8.285-2.608s4.279-4.1 5.298-6.883c0 0 0 0 0-.072 1.138-3.14 1.138-6.58 0-9.721zm-24.808 7.754c-.501-1.896-.501-3.89 0-5.786h2.691c-.232 1.921-.232 3.864 0 5.786zm1.186 2.893h2.025c.34 1.29.825 2.537 1.447 3.717-1.419-.966-2.605-2.236-3.472-3.717zm2.025-11.572h-2.025c.855-1.477 2.026-2.747 3.429-3.718-.607 1.182-1.078 2.429-1.404 3.718zm6.539 16.924c-1.777-1.304-3.025-3.204-3.515-5.352h3.515zm0-8.245h-4.137c-.27-1.919-.27-3.867 0-5.786h4.137zm0-8.679h-3.515c.49-2.149 1.738-4.049 3.515-5.352zm11.456 0h-2.025c-.34-1.29-.825-2.538-1.447-3.718 1.419.967 2.605 2.236 3.472 3.718zm-8.563-5.352c1.776 1.303 3.024 3.203 3.515 5.352h-3.515zm0 22.276v-5.352h3.515c-.491 2.148-1.739 4.048-3.515 5.352zm4.137-8.245h-4.137v-5.786h4.137c.27 1.919.27 3.867 0 5.786zm.998 6.61c.621-1.18 1.107-2.427 1.446-3.717h2.025c-.867 1.481-2.053 2.751-3.471 3.717zm4.614-6.61h-2.69c.117-.96.175-1.926.173-2.893.002-.967-.056-1.933-.173-2.893h2.69c.502 1.896.502 3.89 0 5.786z"/><path d="m472.792 480.825c.772-.668 1.391-1.494 1.815-2.423.425-.928.644-1.937.644-2.958 0-1.918-.762-3.758-2.118-5.114-1.357-1.356-3.196-2.118-5.114-2.118-1.919 0-3.758.762-5.115 2.118-1.356 1.356-2.118 3.196-2.118 5.114 0 1.021.22 2.03.644 2.958.424.929 1.043 1.755 1.815 2.423-2.025.917-3.743 2.398-4.948 4.265-1.206 1.868-1.848 4.043-1.85 6.266 0 .383.152.751.423 1.023.271.271.639.423 1.023.423s.752-.152 1.023-.423c.271-.272.424-.64.424-1.023 0-2.302.914-4.51 2.542-6.137 1.627-1.628 3.835-2.542 6.137-2.542 2.301 0 4.509.914 6.137 2.542 1.627 1.627 2.542 3.835 2.542 6.137 0 .383.152.751.423 1.023.272.271.64.423 1.023.423.384 0 .752-.152 1.023-.423.271-.272.424-.64.424-1.023-.002-2.223-.645-4.398-1.85-6.266-1.206-1.867-2.924-3.348-4.949-4.265zm-4.773-1.041c-.859 0-1.698-.255-2.411-.732-.714-.476-1.27-1.154-1.599-1.947-.328-.793-.414-1.666-.247-2.507.168-.842.581-1.615 1.188-2.222s1.38-1.02 2.222-1.188c.842-.167 1.714-.081 2.507.247s1.471.885 1.948 1.598c.477.714.731 1.553.731 2.411 0 1.151-.457 2.255-1.271 3.069s-1.917 1.271-3.068 1.271zm14.089.463c.925-1.043 1.53-2.331 1.741-3.709s.019-2.788-.553-4.059c-.571-1.272-1.498-2.351-2.669-3.108s-2.535-1.16-3.929-1.159c-.384 0-.752.152-1.023.423-.271.272-.424.64-.424 1.023 0 .384.153.752.424 1.023s.639.424 1.023.424c1.151 0 2.254.457 3.068 1.271s1.271 1.917 1.271 3.068c-.002.76-.203 1.506-.584 2.163-.381.658-.928 1.204-1.586 1.584-.214.123-.393.3-.52.513-.126.213-.196.454-.203.702-.006.245.051.488.165.706s.281.403.486.538l.564.376.188.101c1.744.827 3.215 2.135 4.24 3.77s1.562 3.529 1.546 5.459c0 .383.153.751.424 1.023.271.271.639.423 1.023.423s.751-.152 1.023-.423c.271-.272.423-.64.423-1.023.012-2.22-.544-4.406-1.615-6.35-1.071-1.945-2.621-3.583-4.503-4.759z"/><path d="m543.366 486.713c-.137-.132-.299-.235-.477-.304-.352-.145-.747-.145-1.099 0-.178.069-.34.172-.478.304-.131.137-.235.299-.303.477-.111.263-.141.554-.087.834.054.281.19.539.39.743.141.127.302.23.478.303.173.077.36.116.549.116.19 0 .377-.039.55-.116.175-.073.337-.176.477-.303.201-.204.337-.462.391-.743.054-.28.024-.571-.087-.834-.069-.178-.172-.34-.304-.477zm4.759-11.992h20.252c.383 0 .751-.152 1.022-.424.272-.271.424-.639.424-1.022 0-.384-.152-.752-.424-1.023-.271-.272-.639-.424-1.022-.424h-20.252c-.383 0-.751.152-1.022.424-.272.271-.424.639-.424 1.023 0 .383.152.751.424 1.022.271.272.639.424 1.022.424zm-4.759 4.759c-.203-.201-.461-.337-.742-.391-.28-.054-.571-.023-.834.087-.176.074-.337.176-.478.304-.131.138-.235.3-.303.477-.077.174-.116.361-.116.55s.039.377.116.55c.073.175.176.336.303.477.141.128.302.231.478.304.173.076.36.116.549.116.19 0 .377-.04.55-.116.175-.073.337-.176.477-.304.128-.141.231-.302.304-.477.077-.173.116-.361.116-.55s-.039-.376-.116-.55c-.069-.177-.172-.339-.304-.477zm25.011-.419h-20.252c-.383 0-.751.152-1.022.423-.272.272-.424.639-.424 1.023s.152.752.424 1.023c.271.271.639.424 1.022.424h20.252c.383 0 .751-.153 1.022-.424.272-.271.424-.639.424-1.023s-.152-.751-.424-1.023c-.271-.271-.639-.423-1.022-.423zm-25.011-6.814c-.137-.131-.299-.234-.477-.303-.263-.111-.554-.141-.834-.087-.281.054-.539.19-.743.39-.127.141-.23.303-.303.478-.077.173-.116.36-.116.55 0 .189.039.376.116.549.073.175.176.337.303.478.141.127.302.23.478.303.263.111.554.141.834.087.281-.054.539-.19.742-.39.128-.141.231-.303.304-.478.077-.173.116-.36.116-.549 0-.19-.039-.377-.116-.55-.073-.175-.176-.337-.304-.478zm25.011 14.046h-20.252c-.383 0-.751.153-1.022.424-.272.271-.424.639-.424 1.023 0 .383.152.751.424 1.022.271.272.639.424 1.022.424h20.252c.383 0 .751-.152 1.022-.424.272-.271.424-.639.424-1.022 0-.384-.152-.752-.424-1.023-.271-.271-.639-.424-1.022-.424z"/><path d="m130.233 589.437h20.251c.383 0 .751-.152 1.023-.423.271-.272.423-.64.423-1.023 0-.384-.152-.752-.423-1.023-.272-.271-.64-.424-1.023-.424h-20.251c-.384 0-.752.153-1.023.424s-.424.639-.424 1.023c0 .383.153.751.424 1.023.271.271.639.423 1.023.423zm20.251 4.34h-20.251c-.384 0-.752.152-1.023.424-.271.271-.424.639-.424 1.022 0 .384.153.752.424 1.023s.639.424 1.023.424h20.251c.383 0 .751-.153 1.023-.424.271-.271.423-.639.423-1.023 0-.383-.152-.751-.423-1.022-.272-.272-.64-.424-1.023-.424zm0 7.232h-20.251c-.384 0-.752.153-1.023.424s-.424.639-.424 1.023.153.752.424 1.023.639.423 1.023.423h20.251c.383 0 .751-.152 1.023-.423.271-.271.423-.639.423-1.023s-.152-.752-.423-1.023c-.272-.271-.64-.424-1.023-.424z"/><path d="m647.037 466.042h-17.358c-.383 0-.751.152-1.023.424-.271.271-.423.639-.423 1.023v26.037c0 .276.079.547.228.78s.362.418.613.534c.251.115.53.157.804.119s.531-.154.741-.334l7.739-6.495 7.652 6.423c.135.134.296.24.472.312s.365.108.555.107c.19.005.378-.035.55-.115.264-.109.49-.293.65-.53.159-.237.245-.516.247-.801v-26.037c0-.384-.153-.752-.424-1.023-.271-.272-.639-.424-1.023-.424zm-1.446 24.388-6.307-5.294c-.26-.217-.587-.335-.926-.335-.338 0-.666.118-.926.335l-6.306 5.294v-21.495h14.465z"/><path d="m721.358 466.042c-2.805.005-5.549.826-7.896 2.363s-4.197 3.723-5.323 6.293c-1.127 2.569-1.483 5.41-1.023 8.178.459 2.768 1.714 5.342 3.61 7.41 1.355 1.468 2.999 2.64 4.829 3.441 1.83.802 3.806 1.215 5.803 1.215 1.998 0 3.974-.413 5.804-1.215 1.83-.801 3.474-1.973 4.828-3.441 1.897-2.068 3.151-4.642 3.611-7.41.459-2.768.104-5.609-1.023-8.178-1.127-2.57-2.976-4.756-5.324-6.293-2.347-1.537-5.09-2.358-7.896-2.363zm0 26.037c-2.996-.004-5.874-1.171-8.028-3.254.654-1.592 1.766-2.954 3.196-3.912 1.429-.958 3.111-1.47 4.832-1.47s3.403.512 4.833 1.47c1.429.958 2.542 2.32 3.195 3.912-2.153 2.083-5.031 3.25-8.028 3.254zm-2.893-14.465c0-.572.17-1.131.488-1.607s.77-.847 1.298-1.066c.529-.219 1.111-.276 1.672-.164.561.111 1.076.387 1.481.791.405.405.68.92.792 1.482.111.561.054 1.143-.165 1.671-.219.529-.59.981-1.065 1.299-.476.317-1.036.487-1.608.487-.767 0-1.503-.305-2.045-.847-.543-.543-.848-1.279-.848-2.046zm12.889 8.679c-1.293-2.21-3.282-3.93-5.656-4.889.736-.835 1.216-1.865 1.382-2.966s.01-2.227-.448-3.242-1.199-1.876-2.135-2.48c-.935-.604-2.025-.925-3.139-.925-1.113 0-2.203.321-3.139.925-.935.604-1.676 1.465-2.134 2.48s-.614 2.141-.448 3.242c.165 1.101.645 2.131 1.382 2.966-2.375.959-4.364 2.679-5.656 4.889-1.03-1.754-1.574-3.751-1.577-5.786 0-3.069 1.219-6.012 3.39-8.183 2.17-2.17 5.113-3.389 8.182-3.389s6.013 1.219 8.183 3.389c2.17 2.171 3.389 5.114 3.389 8.183-.002 2.035-.546 4.032-1.576 5.786z"/><path d="m228.479 479.48-8.187-8.173c-.135-.135-.295-.243-.471-.316-.176-.074-.365-.112-.556-.112s-.38.038-.557.112c-.176.073-.336.181-.47.316-.27.271-.421.638-.421 1.02s.151.749.421 1.02l7.16 7.232-7.16 7.161c-.27.271-.421.637-.421 1.019 0 .383.151.749.421 1.02.133.137.293.246.47.32.176.075.365.113.557.114.191-.001.38-.039.557-.114.176-.074.336-.183.47-.32l8.187-8.173c.147-.135.264-.299.344-.482s.122-.381.122-.581-.042-.397-.122-.58-.197-.347-.344-.483z"/><path d="m135.283 481.612 8.187 8.173c.134.136.294.243.471.317.176.073.365.111.556.111s.38-.038.556-.111c.176-.074.336-.181.471-.317.269-.271.421-.637.421-1.02 0-.382-.152-.748-.421-1.019l-7.16-7.233 7.16-7.16c.269-.271.421-.638.421-1.02s-.152-.749-.421-1.02c-.134-.136-.294-.245-.47-.32-.176-.074-.366-.113-.557-.114-.191.001-.381.04-.557.114-.176.075-.336.184-.47.32l-8.187 8.173c-.147.136-.264.3-.345.483-.08.183-.121.381-.121.58 0 .2.041.398.121.581.081.183.198.347.345.482z"/><path d="m58.4472 485.644 8.1728-8.187c.1356-.134.2432-.294.3166-.471.0734-.176.1113-.365.1113-.556s-.0379-.38-.1113-.556-.181-.336-.3166-.471c-.271-.269-.6377-.42-1.0198-.42-.3822 0-.7488.151-1.0198.42l-7.2326 7.16-7.1602-7.16c-.271-.269-.6376-.42-1.0198-.42-.3821 0-.7488.151-1.0198.42-.1367.134-.2454.294-.3199.47s-.1132.366-.114.557c.0008.192.0395.381.114.557s.1832.336.3199.47l8.1728 8.187c.1355.147.2999.264.4828.345.183.08.3806.121.5804.121s.3974-.041.5803-.121c.183-.081.3474-.198.4829-.345z"/><path d="m389.358 477.614c-.572 0-1.131.17-1.607.488-.476.317-.847.769-1.066 1.298s-.276 1.11-.164 1.671c.111.562.387 1.077.792 1.482.404.404.92.68 1.481.791.561.112 1.143.055 1.671-.164.529-.219.981-.59 1.299-1.066.318-.475.487-1.035.487-1.607 0-.767-.305-1.503-.847-2.046-.543-.542-1.279-.847-2.046-.847zm-10.125 0c-.573 0-1.132.17-1.608.488-.475.317-.846.769-1.065 1.298s-.276 1.11-.165 1.671c.112.562.387 1.077.792 1.482.405.404.92.68 1.481.791.561.112 1.143.055 1.672-.164.528-.219.98-.59 1.298-1.066.318-.475.488-1.035.488-1.607 0-.767-.305-1.503-.848-2.046-.542-.542-1.278-.847-2.045-.847zm20.251 0c-.572 0-1.132.17-1.607.488-.476.317-.847.769-1.066 1.298s-.276 1.11-.165 1.671c.112.562.388 1.077.792 1.482.405.404.92.68 1.481.791.562.112 1.143.055 1.672-.164s.98-.59 1.298-1.066c.318-.475.488-1.035.488-1.607 0-.767-.305-1.503-.848-2.046-.542-.542-1.278-.847-2.045-.847z"/><path d="m307.38 489.71-7.764-7.764 16.969.011c.385 0 .755-.154 1.027-.426.273-.272.426-.642.426-1.027s-.153-.755-.426-1.027c-.272-.272-.642-.425-1.027-.425l-16.969.01 7.764-7.763c.271-.272.423-.64.423-1.023 0-.384-.152-.752-.423-1.023-.272-.271-.639-.424-1.023-.424s-.752.153-1.023.424l-10.228 10.228c-.132.136-.237.295-.307.471-.146.353-.146.751 0 1.104.07.176.175.336.307.471l10.228 10.228c.271.272.639.424 1.023.424s.751-.152 1.023-.424c.271-.271.423-.639.423-1.023 0-.383-.152-.751-.423-1.022z"/><path d="m61.2782 364.041c-.1344-.136-.2944-.244-.4707-.317-.1763-.074-.3653-.111-.5563-.111s-.38.037-.5563.111c-.1763.073-.3362.181-.4707.317l-1.866 1.88-1.866-1.88c-.2724-.273-.6418-.426-1.027-.426s-.7547.153-1.0271.426c-.2723.272-.4254.641-.4254 1.027 0 .385.1531.754.4254 1.027l1.8805 1.866-1.8805 1.866c-.1355.134-.2432.294-.3166.47-.0734.177-.1112.366-.1112.557s.0378.38.1112.556.1811.336.3166.471c.1345.135.2945.243.4708.316.1762.074.3653.112.5563.112.1909 0 .38-.038.5563-.112.1762-.073.3362-.181.4707-.316l1.866-1.881 1.866 1.881c.1345.135.2944.243.4707.316.1763.074.3653.112.5563.112s.38-.038.5563-.112c.1763-.073.3363-.181.4707-.316.1356-.135.2432-.295.3167-.471.0734-.176.1112-.365.1112-.556s-.0378-.38-.1112-.557c-.0735-.176-.1811-.336-.3167-.47l-1.8804-1.866 1.8804-1.866c.1356-.135.2432-.295.3167-.471.0734-.176.1112-.365.1112-.556s-.0378-.38-.1112-.557c-.0735-.176-.1811-.336-.3167-.47zm6.2056-7.652h-9.0841l-.4629-1.447c-.3001-.849-.8567-1.583-1.5928-2.102-.736-.518-1.6151-.794-2.5153-.791h-6.5961c-1.1509 0-2.2547.457-3.0685 1.271s-1.271 1.918-1.271 3.069v18.804c0 1.151.4572 2.255 1.271 3.069s1.9176 1.271 3.0685 1.271h20.2512c1.1509 0 2.2547-.457 3.0685-1.271s1.271-1.918 1.271-3.069v-14.465c0-1.151-.4572-2.255-1.271-3.068-.8138-.814-1.9176-1.271-3.0685-1.271zm1.4465 18.804c0 .384-.1524.752-.4237 1.023s-.6392.424-1.0228.424h-20.2512c-.3836 0-.7516-.153-1.0228-.424-.2713-.271-.4237-.639-.4237-1.023v-18.804c0-.384.1524-.752.4237-1.023.2712-.272.6392-.424 1.0228-.424h6.5961c.3032-.001.5991.094.8457.27.2466.177.4314.426.5285.714l.7811 2.372c.097.287.2819.537.5285.713.2466.177.5424.271.8457.271h10.1256c.3836 0 .7515.152 1.0228.423s.4237.639.4237 1.023z"/><path d="m143.251 366.514h-1.446v-1.446c0-.384-.153-.752-.424-1.023-.271-.272-.639-.424-1.023-.424-.383 0-.751.152-1.023.424-.271.271-.423.639-.423 1.023v1.446h-1.447c-.383 0-.751.152-1.023.424-.271.271-.423.639-.423 1.023 0 .383.152.751.423 1.022.272.272.64.424 1.023.424h1.447v1.447c0 .383.152.751.423 1.022.272.272.64.424 1.023.424.384 0 .752-.152 1.023-.424.271-.271.424-.639.424-1.022v-1.447h1.446c.384 0 .752-.152 1.023-.424.271-.271.424-.639.424-1.022 0-.384-.153-.752-.424-1.023-.271-.272-.639-.424-1.023-.424zm7.233-10.125h-9.084l-.463-1.447c-.3-.849-.857-1.583-1.593-2.102-.736-.518-1.615-.794-2.515-.791h-6.596c-1.151 0-2.255.457-3.069 1.271s-1.271 1.918-1.271 3.069v18.804c0 1.151.457 2.255 1.271 3.069s1.918 1.271 3.069 1.271h20.251c1.151 0 2.254-.457 3.068-1.271s1.271-1.918 1.271-3.069v-14.465c0-1.151-.457-2.255-1.271-3.068-.814-.814-1.917-1.271-3.068-1.271zm1.446 18.804c0 .384-.152.752-.423 1.023-.272.271-.64.424-1.023.424h-20.251c-.384 0-.752-.153-1.023-.424-.272-.271-.424-.639-.424-1.023v-18.804c0-.384.152-.752.424-1.023.271-.272.639-.424 1.023-.424h6.596c.303-.001.599.094.845.27.247.177.432.426.529.714l.781 2.372c.097.287.282.537.529.713.246.177.542.271.845.271h10.126c.383 0 .751.152 1.023.423.271.271.423.639.423 1.023z"/><path d="m233.484 356.389h-9.084l-.463-1.447c-.3-.849-.857-1.583-1.593-2.102-.736-.518-1.615-.794-2.515-.791h-6.596c-1.151 0-2.255.457-3.069 1.271s-1.271 1.918-1.271 3.069v18.804c0 1.151.457 2.255 1.271 3.069s1.918 1.271 3.069 1.271h20.251c1.151 0 2.254-.457 3.068-1.271s1.271-1.918 1.271-3.069v-14.465c0-1.151-.457-2.255-1.271-3.068-.814-.814-1.917-1.271-3.068-1.271zm1.446 18.804c0 .384-.152.752-.423 1.023-.272.271-.64.424-1.023.424h-20.251c-.384 0-.752-.153-1.023-.424-.272-.271-.424-.639-.424-1.023v-18.804c0-.384.152-.752.424-1.023.271-.272.639-.424 1.023-.424h6.596c.303-.001.599.094.845.27.247.177.432.426.529.714l.781 2.372c.097.287.282.537.529.713.246.177.542.271.845.271h10.126c.383 0 .751.152 1.023.423.271.271.423.639.423 1.023z"/><path d="m640.398 251.074 6.22-6.205c.272-.273.425-.642.425-1.027s-.153-.755-.425-1.027c-.273-.273-.642-.426-1.027-.426-.386 0-.755.153-1.027.426l-6.206 6.22-6.205-6.22c-.273-.273-.642-.426-1.027-.426-.386 0-.755.153-1.027.426-.273.272-.426.642-.426 1.027s.153.754.426 1.027l6.22 6.205-6.22 6.206c-.136.134-.244.294-.317.471-.074.176-.111.365-.111.556s.037.38.111.556c.073.177.181.336.317.471.134.136.294.243.47.317.177.073.366.111.557.111s.38-.038.556-.111c.176-.074.336-.181.471-.317l6.205-6.22 6.206 6.22c.134.136.294.243.47.317.177.073.366.111.557.111s.38-.038.556-.111c.176-.074.336-.181.471-.317.135-.135.243-.294.316-.471.074-.176.112-.365.112-.556s-.038-.38-.112-.556c-.073-.177-.181-.337-.316-.471z"/><path d="m403.143 244.059c-.219-.127-.469-.194-.723-.194s-.503.067-.723.194l-5.106 2.517c-.041-1.123-.517-2.187-1.326-2.966-.81-.78-1.89-1.215-3.014-1.215h-13.018c-1.151 0-2.255.458-3.069 1.271-.814.814-1.271 1.918-1.271 3.069v8.679c0 1.151.457 2.255 1.271 3.069.814.813 1.918 1.271 3.069 1.271h13.018c1.124 0 2.204-.435 3.014-1.215.809-.779 1.285-1.843 1.326-2.966l5.149 2.575c.197.101.415.155.637.159.271.001.536-.074.766-.217.209-.13.381-.312.5-.527s.181-.457.18-.702v-11.573c.001-.245-.061-.487-.18-.702-.119-.216-.291-.397-.5-.527zm-9.445 11.355c0 .384-.153.752-.424 1.023s-.639.424-1.023.424h-13.018c-.384 0-.752-.153-1.023-.424-.272-.271-.424-.639-.424-1.023v-8.679c0-.384.152-.752.424-1.023.271-.271.639-.424 1.023-.424h13.018c.384 0 .752.153 1.023.424s.424.639.424 1.023zm7.232-.897-4.339-2.17v-2.545l4.339-2.17z"/><path d="m482.484 239.502h-20.251c-1.151 0-2.255.458-3.069 1.271-.814.814-1.271 1.918-1.271 3.069v14.465c0 1.151.457 2.255 1.271 3.068.814.814 1.918 1.272 3.069 1.272h20.251c1.151 0 2.254-.458 3.068-1.272.814-.813 1.271-1.917 1.271-3.068v-14.465c0-1.151-.457-2.255-1.271-3.069-.814-.813-1.917-1.271-3.068-1.271zm-20.251 20.251c-.384 0-.752-.152-1.023-.423-.272-.271-.424-.639-.424-1.023v-3.501l4.774-4.759c.27-.265.634-.413 1.012-.413.379 0 .742.148 1.013.413l9.706 9.706zm21.697-1.446c0 .384-.152.752-.423 1.023-.272.271-.64.423-1.023.423h-1.114l-5.511-5.54 1.273-1.273c.27-.265.634-.413 1.012-.413.379 0 .742.148 1.013.413l4.773 4.759zm0-4.687-2.719-2.705c-.825-.792-1.924-1.234-3.067-1.234s-2.242.442-3.066 1.234l-1.273 1.273-4.166-4.166c-.825-.792-1.924-1.234-3.067-1.234s-2.242.442-3.066 1.234l-2.72 2.705v-6.885c0-.384.152-.752.424-1.023.271-.271.639-.424 1.023-.424h20.251c.383 0 .751.153 1.023.424.271.271.423.639.423 1.023z"/><path d="m318.162 355.101c-1.536-1.536-3.572-2.47-5.738-2.632s-4.319.459-6.066 1.75c-1.84-1.369-4.131-1.99-6.411-1.737-2.28.252-4.379 1.359-5.876 3.097-1.496 1.739-2.278 3.98-2.188 6.272.089 2.292 1.044 4.464 2.672 6.081l10.776 10.776c.135.136.295.243.471.317.176.073.365.111.556.111s.38-.038.556-.111c.177-.074.337-.181.471-.317l10.777-10.776c.843-.843 1.511-1.843 1.967-2.943.456-1.101.691-2.281.691-3.473 0-1.191-.235-2.371-.691-3.472s-1.124-2.101-1.967-2.943zm-2.04 10.791-9.764 9.75-9.764-9.75c-.86-.864-1.446-1.963-1.685-3.159-.238-1.195-.118-2.435.346-3.563.463-1.128 1.249-2.094 2.26-2.776 1.01-.683 2.199-1.052 3.419-1.061 1.629.004 3.189.654 4.339 1.808.135.135.295.243.471.316.176.074.365.112.556.112s.38-.038.557-.112c.176-.073.336-.181.47-.316 1.184-1.026 2.713-1.564 4.278-1.505 1.566.059 3.05.711 4.153 1.823s1.742 2.602 1.788 4.168c.046 1.565-.504 3.09-1.54 4.265z"/><path d="m401.162 355.101c-1.536-1.536-3.572-2.47-5.738-2.632s-4.319.459-6.066 1.75c-1.84-1.369-4.131-1.99-6.411-1.737-2.28.252-4.379 1.359-5.876 3.097-1.496 1.739-2.278 3.98-2.188 6.272.089 2.292 1.044 4.464 2.672 6.081l10.776 10.776c.135.136.295.243.471.317.176.073.365.111.556.111s.38-.038.556-.111c.177-.074.337-.181.471-.317l10.777-10.776c.843-.843 1.511-1.843 1.967-2.943.456-1.101.691-2.281.691-3.473 0-1.191-.235-2.371-.691-3.472s-1.124-2.101-1.967-2.943zm-2.04 10.791-9.764 9.75-9.764-9.75c-.86-.864-1.446-1.963-1.685-3.159-.238-1.195-.118-2.435.346-3.563.463-1.128 1.249-2.094 2.26-2.776 1.01-.683 2.199-1.052 3.419-1.061 1.629.004 3.189.654 4.339 1.808.135.135.295.243.471.316.176.074.365.112.556.112s.38-.038.557-.112c.176-.073.336-.181.47-.316 1.184-1.026 2.713-1.564 4.278-1.505 1.566.059 3.05.711 4.153 1.823s1.742 2.602 1.788 4.168c.046 1.565-.388 3.09-1.424 4.265z"/><path clip-rule="evenodd" d="m375.916 351.749c.565-.564 1.481-.564 2.046 0l22.545 22.545c.564.565.564 1.481 0 2.046-.565.565-1.481.565-2.046 0l-22.545-22.545c-.565-.565-.565-1.481 0-2.046z" fill-rule="evenodd"/><path d="m726.725 252.102c1.418-1.116 2.453-2.646 2.961-4.378.508-1.731.464-3.578-.126-5.283-.591-1.705-1.698-3.184-3.168-4.231-1.47-1.046-3.229-1.609-5.034-1.609-1.804 0-3.564.563-5.034 1.609-1.47 1.047-2.577 2.526-3.167 4.231-.591 1.705-.635 3.552-.127 5.283.508 1.732 1.543 3.262 2.962 4.378-2.43.973-4.551 2.588-6.135 4.672-1.585 2.083-2.574 4.558-2.863 7.16-.021.19-.004.382.05.566.053.183.142.354.261.503.242.302.593.494.977.537.383.042.768-.07 1.069-.312.301-.241.494-.592.536-.976.318-2.827 1.666-5.439 3.788-7.335 2.121-1.897 4.867-2.945 7.712-2.945 2.846 0 5.591 1.048 7.713 2.945 2.121 1.896 3.469 4.508 3.787 7.335.039.356.209.684.476.922.267.237.613.368.97.366h.16c.379-.044.725-.236.964-.534.238-.298.349-.678.308-1.058-.29-2.609-1.284-5.09-2.877-7.177s-3.723-3.701-6.163-4.669zm-5.367-1.027c-1.144 0-2.263-.34-3.214-.976-.952-.635-1.693-1.539-2.131-2.596-.438-1.058-.553-2.221-.33-3.343.224-1.123.775-2.154 1.584-2.963s1.84-1.36 2.962-1.583c1.123-.224 2.286-.109 3.343.329 1.058.438 1.961 1.179 2.597 2.131.636.951.975 2.07.975 3.214 0 1.535-.609 3.007-1.694 4.092-1.086 1.085-2.557 1.695-4.092 1.695z"/><path d="m550.599 359.585 3.313-3.327v13.872c0 .384.152.752.423 1.023.272.271.64.424 1.023.424.384 0 .752-.153 1.023-.424s.424-.639.424-1.023v-13.872l3.312 3.327c.135.136.295.243.471.317.176.073.365.111.556.111s.38-.038.557-.111c.176-.074.336-.181.47-.317.136-.134.243-.294.317-.47.073-.177.111-.366.111-.557s-.038-.38-.111-.556c-.074-.176-.181-.336-.317-.471l-5.786-5.786c-.137-.132-.3-.235-.477-.304-.352-.144-.747-.144-1.099 0-.178.069-.34.172-.478.304l-5.786 5.786c-.135.135-.242.295-.315.471-.073.177-.11.365-.11.556s.037.38.11.556.18.336.315.471.295.242.471.315c.177.073.365.111.556.111s.38-.038.556-.111.336-.18.471-.315zm17.778 6.206c-.384 0-.752.152-1.023.423-.271.272-.424.64-.424 1.023v8.679c0 .384-.152.752-.423 1.023-.272.271-.64.424-1.023.424h-20.251c-.384 0-.752-.153-1.023-.424-.272-.271-.424-.639-.424-1.023v-8.679c0-.383-.152-.751-.424-1.023-.271-.271-.639-.423-1.022-.423-.384 0-.752.152-1.023.423-.272.272-.424.64-.424 1.023v8.679c0 1.151.457 2.255 1.271 3.069s1.918 1.271 3.069 1.271h20.251c1.151 0 2.254-.457 3.068-1.271s1.271-1.918 1.271-3.069v-8.679c0-.383-.152-.751-.423-1.023-.272-.271-.64-.423-1.023-.423z"/><path d="m475.251 366.514h-1.446v-1.446c0-.384-.153-.752-.424-1.023-.271-.272-.639-.424-1.023-.424-.383 0-.751.152-1.023.424-.271.271-.423.639-.423 1.023v1.446h-1.447c-.383 0-.751.152-1.023.424-.271.271-.423.639-.423 1.023 0 .383.152.751.423 1.022.272.272.64.424 1.023.424h1.447v1.447c0 .383.152.751.423 1.022.272.272.64.424 1.023.424.384 0 .752-.152 1.023-.424.271-.271.424-.639.424-1.022v-1.447h1.446c.384 0 .752-.152 1.023-.424.271-.271.424-.639.424-1.022 0-.384-.153-.752-.424-1.023-.271-.272-.639-.424-1.023-.424zm7.233-10.125h-9.084l-.463-1.447c-.3-.849-.857-1.583-1.593-2.102-.736-.518-1.615-.794-2.515-.791h-6.596c-1.151 0-2.255.457-3.069 1.271s-1.271 1.918-1.271 3.069v18.804c0 1.151.457 2.255 1.271 3.069s1.918 1.271 3.069 1.271h20.251c1.151 0 2.254-.457 3.068-1.271s1.271-1.918 1.271-3.069v-14.465c0-1.151-.457-2.255-1.271-3.068-.814-.814-1.917-1.271-3.068-1.271zm1.446 18.804c0 .384-.152.752-.423 1.023-.272.271-.64.424-1.023.424h-20.251c-.384 0-.752-.153-1.023-.424-.272-.271-.424-.639-.424-1.023v-18.804c0-.384.152-.752.424-1.023.271-.272.639-.424 1.023-.424h6.596c.303-.001.599.094.845.27.247.177.432.426.529.714l.781 2.372c.097.287.282.537.529.713.246.177.542.271.845.271h10.126c.383 0 .751.152 1.023.423.271.271.423.639.423 1.023z"/><path d="m731.484 133.465c-.384 0-.752.153-1.023.424s-.424.639-.424 1.023v4.889l-2.141-2.141c-.755-.75-1.777-1.171-2.842-1.171s-2.086.421-2.842 1.171l-1.013 1.027-3.587-3.602c-.756-.75-1.778-1.171-2.843-1.171-1.064 0-2.086.421-2.842 1.171l-2.141 2.156v-8.115c0-.384.152-.752.424-1.023.271-.271.639-.424 1.023-.424h11.572c.383 0 .751-.152 1.023-.424.271-.271.423-.639.423-1.022 0-.384-.152-.752-.423-1.023-.272-.272-.64-.424-1.023-.424h-11.572c-1.151 0-2.255.457-3.069 1.271s-1.271 1.918-1.271 3.069v17.676c.004 1.065.429 2.086 1.182 2.839.753.754 1.774 1.178 2.839 1.182h17.995c.392-.003.782-.061 1.157-.173.835-.235 1.571-.736 2.093-1.429.523-.692.804-1.537.8-2.405v-11.904c0-.193-.038-.383-.113-.561-.074-.177-.183-.338-.321-.473-.137-.134-.3-.24-.479-.311s-.37-.106-.562-.102zm-20.251 14.465c-.384 0-.752-.152-1.023-.423-.272-.272-.424-.64-.424-1.023v-5.164l4.181-4.181c.211-.21.497-.328.795-.328s.584.118.796.328l10.805 10.791zm18.804-1.446c-.009.28-.099.551-.26.781l-6.538-6.567 1.027-1.013c.103-.106.227-.19.364-.247.136-.058.283-.087.431-.087s.295.029.432.087c.136.057.26.141.364.247l4.18 4.21zm4.34-21.698h-1.447v-1.446c0-.384-.152-.752-.423-1.023-.272-.272-.64-.424-1.023-.424-.384 0-.752.152-1.023.424-.271.271-.424.639-.424 1.023v1.446h-1.446c-.384 0-.752.152-1.023.424-.271.271-.424.639-.424 1.023 0 .383.153.751.424 1.022.271.272.639.424 1.023.424h1.446v1.447c0 .383.153.751.424 1.022.271.272.639.424 1.023.424.383 0 .751-.152 1.023-.424.271-.271.423-.639.423-1.022v-1.447h1.447c.383 0 .751-.152 1.023-.424.271-.271.423-.639.423-1.022 0-.384-.152-.752-.423-1.023-.272-.272-.64-.424-1.023-.424z"/><path d="m564.638 246.644v-6.009c0-.307-.122-.603-.34-.82-.218-.218-.513-.34-.82-.34-.308 0-.603.122-.82.34-.218.217-.34.513-.34.82v6.009c-.672.243-1.252.688-1.662 1.273-.411.586-.631 1.283-.631 1.998 0 .714.22 1.412.631 1.997.41.585.99 1.03 1.662 1.274v8.328c0 .307.122.602.34.82.217.218.512.34.82.34.307 0 .602-.122.82-.34s.34-.513.34-.82v-8.328c.672-.244 1.252-.689 1.662-1.274s.63-1.283.63-1.997c0-.715-.22-1.412-.63-1.998-.41-.585-.99-1.03-1.662-1.273zm-1.16 4.43c-.23 0-.454-.068-.645-.195-.19-.127-.339-.309-.427-.521s-.111-.445-.066-.67.155-.431.318-.594c.162-.162.369-.272.594-.317s.458-.022.67.066.393.236.52.427c.128.191.196.415.196.645 0 .307-.122.602-.34.82-.218.217-.513.339-.82.339zm-6.96 2.529v-12.968c0-.307-.122-.603-.339-.82-.218-.218-.513-.34-.821-.34-.307 0-.602.122-.82.34-.217.217-.34.513-.34.82v12.968c-.671.244-1.252.689-1.662 1.274s-.63 1.282-.63 1.997.22 1.412.63 1.997c.41.586.991 1.03 1.662 1.274v1.369c0 .307.123.602.34.82.218.218.513.34.82.34.308 0 .603-.122.821-.34.217-.218.339-.513.339-.82v-1.369c.672-.244 1.252-.688 1.663-1.274.41-.585.63-1.282.63-1.997s-.22-1.412-.63-1.997c-.411-.585-.991-1.03-1.663-1.274zm-1.16 4.431c-.229 0-.453-.068-.644-.195-.191-.128-.339-.309-.427-.521s-.111-.445-.066-.67c.044-.225.155-.432.317-.594s.369-.273.594-.318c.225-.044.458-.021.67.066.212.088.393.237.521.428.127.19.195.415.195.644 0 .308-.122.603-.339.82-.218.218-.513.34-.821.34zm-6.959-13.71v-3.689c0-.307-.122-.603-.34-.82-.217-.218-.513-.34-.82-.34-.308 0-.603.122-.82.34-.218.217-.34.513-.34.82v3.689c-.672.244-1.252.688-1.662 1.273-.411.586-.631 1.283-.631 1.998 0 .714.22 1.412.631 1.997.41.585.99 1.03 1.662 1.274v10.648c0 .307.122.602.34.82.217.218.512.34.82.34.307 0 .603-.122.82-.34.218-.218.34-.513.34-.82v-10.648c.672-.244 1.252-.689 1.662-1.274s.63-1.283.63-1.997c0-.715-.22-1.412-.63-1.998-.41-.585-.99-1.029-1.662-1.273zm-1.16 4.431c-.23 0-.454-.068-.645-.196-.19-.127-.339-.308-.427-.52s-.111-.446-.066-.671.155-.431.318-.593c.162-.163.369-.273.594-.318s.458-.022.67.066.393.237.52.427c.128.191.196.415.196.645 0 .307-.122.602-.34.82-.217.217-.513.34-.82.34z"/><path d="m398.818 132.019-13.973-8.014c-.756-.437-1.614-.665-2.487-.663-.874.002-1.73.236-2.484.677-.754.44-1.378 1.073-1.808 1.833-.43.759-.651 1.619-.642 2.493v16.085c0 1.312.522 2.57 1.449 3.498.928.928 2.186 1.449 3.498 1.449.869-.002 1.722-.231 2.474-.666l13.973-8.013c.751-.435 1.374-1.059 1.808-1.811.433-.751.661-1.603.661-2.471 0-.867-.228-1.72-.661-2.471-.434-.752-1.057-1.376-1.808-1.811zm-1.446 6.061-13.974 8.129c-.313.177-.667.271-1.027.271s-.713-.094-1.027-.271c-.312-.18-.571-.44-.751-.752-.181-.312-.276-.667-.276-1.027v-16.143c0-.361.095-.715.276-1.028.18-.312.439-.571.751-.752.315-.174.668-.269 1.027-.274.36.007.712.101 1.027.274l13.974 8.072c.312.18.572.44.752.752s.275.667.275 1.027c0 .361-.095.715-.275 1.028-.18.312-.44.571-.752.751z"/><path d="m483.785 137.313c-.232-.264-.359-.603-.359-.955 0-.351.127-.691.359-.955l1.852-2.082c.204-.228.331-.514.362-.818.031-.305-.035-.611-.189-.875l-2.893-5.005c-.152-.264-.383-.473-.661-.598-.278-.124-.588-.158-.886-.096l-2.72.55c-.346.071-.706.013-1.012-.162-.307-.176-.538-.458-.651-.793l-.883-2.647c-.097-.288-.282-.537-.528-.714-.247-.176-.543-.271-.846-.27h-5.786c-.315-.016-.627.071-.889.248-.261.178-.457.436-.557.736l-.81 2.647c-.113.335-.345.617-.651.793-.307.175-.667.233-1.013.162l-2.792-.55c-.282-.04-.571.005-.828.128-.257.124-.473.321-.618.566l-2.893 5.005c-.158.261-.228.566-.202.87s.147.592.346.823l1.838 2.082c.231.264.359.604.359.955 0 .352-.128.691-.359.955l-1.838 2.083c-.199.231-.32.519-.346.823s.044.608.202.869l2.893 5.005c.152.264.383.473.661.598s.588.159.887.097l2.719-.55c.346-.072.706-.014 1.013.162.306.176.538.458.651.793l.882 2.647c.101.299.296.557.558.735.261.178.573.265.888.248h5.786c.304.001.6-.093.846-.27.247-.176.432-.426.529-.713l.882-2.647c.113-.335.344-.617.651-.793.306-.176.666-.234 1.013-.162l2.719.55c.298.062.608.028.886-.097s.51-.334.662-.598l2.893-5.005c.153-.264.219-.57.188-.874s-.158-.591-.362-.818zm-2.155 1.938 1.157 1.302-1.851 3.211-1.707-.347c-1.042-.213-2.126-.036-3.046.497-.92.534-1.612 1.386-1.945 2.396l-.549 1.62h-3.703l-.521-1.649c-.333-1.01-1.025-1.862-1.945-2.395-.92-.534-2.004-.711-3.046-.498l-1.706.347-1.881-3.196 1.157-1.302c.712-.796 1.105-1.826 1.105-2.893 0-1.068-.393-2.098-1.105-2.893l-1.157-1.302 1.852-3.182 1.707.347c1.041.213 2.125.036 3.045-.498.92-.533 1.612-1.385 1.945-2.395l.55-1.635h3.703l.549 1.649c.333 1.01 1.025 1.863 1.945 2.396s2.004.71 3.046.497l1.707-.347 1.851 3.211-1.157 1.302c-.704.794-1.092 1.818-1.092 2.879 0 1.06.388 2.084 1.092 2.878zm-9.793-8.679c-1.144 0-2.263.339-3.214.975-.952.636-1.693 1.54-2.131 2.597s-.553 2.221-.33 3.343c.224 1.122.775 2.153 1.584 2.963.809.809 1.84 1.36 2.962 1.583 1.123.223 2.286.109 3.343-.329 1.058-.438 1.961-1.18 2.597-2.131.636-.952.975-2.07.975-3.215 0-1.534-.609-3.006-1.694-4.091-1.086-1.085-2.557-1.695-4.092-1.695zm0 8.679c-.572 0-1.131-.169-1.607-.487s-.847-.77-1.066-1.299c-.219-.528-.276-1.11-.164-1.671.111-.561.387-1.077.792-1.481.404-.405.92-.681 1.481-.792.561-.112 1.143-.055 1.671.164.529.219.981.59 1.299 1.066s.487 1.035.487 1.607c0 .767-.305 1.503-.847 2.046-.543.542-1.279.847-2.046.847z"/><path d="m567.443 134.846c-.781-.639-1.887-.843-2.818-.521-.249.086-.481.208-.689.36-.529.39-1.704 1.559-2.635 2.716v-8.918c0-.758-.312-1.499-.855-2.033-.54-.53-1.248-.816-1.991-.802-.338.006-.661.073-.96.19v-.871c0-.825-.339-1.631-.931-2.213-.586-.576-1.354-.887-2.165-.872-1.618.028-2.939 1.343-2.987 2.951-.351-.159-.731-.248-1.126-.26-.821-.024-1.635.294-2.232.873-.585.568-.907 1.316-.907 2.107l-.002.845c-.252-.083-.521-.129-.801-.129-1.411 0-2.559 1.148-2.559 2.559l.001 12.963.002.062c.118 1.701.474 3.158 1.059 4.329.548 1.099 1.313 1.983 2.273 2.629 1.889 1.272 4.223 1.435 6.045 1.435 3.578 0 6.797-1.779 8.407-4.644.195-.316.711-1.127 1.268-2.002.543-.853 1.048-1.638 1.493-2.331.244-.382.467-.728.66-1.03.72-1.126 1.487-2.217 2.28-3.244.294-.381.385-.484.406-.507.371-.405.605-.901.676-1.435.113-.837-.22-1.641-.912-2.207zm-.853 1.971c-.023.171-.1.332-.224.468-.065.07-.181.205-.502.621-.826 1.068-1.623 2.203-2.371 3.373-.193.302-.415.647-.659 1.027-.446.695-.951 1.482-1.496 2.337-.57.896-1.098 1.725-1.291 2.037l-.02.035c-1.292 2.313-3.921 3.749-6.862 3.749-1.569 0-3.561-.128-5.051-1.13-1.519-1.023-2.352-2.846-2.546-5.574l-.001-12.932c0-.429.349-.778.777-.778.432 0 .783.349.783.778v4.851c0 .015.001.029.002.043.001.016.001.032.002.047.002.015.004.028.007.042.002.016.003.031.006.047.003.014.008.028.011.041.004.015.007.03.011.044.005.014.01.028.015.041.005.014.01.028.015.041.006.013.013.026.019.039s.012.026.019.039c.006.013.014.025.022.037.007.012.014.025.022.036.008.012.017.023.026.035.008.011.016.023.025.034s.019.021.029.031c.009.011.019.022.029.033.01.009.02.018.031.028.01.009.021.02.032.029s.022.017.033.025c.012.009.023.018.035.026s.024.015.035.021c.013.008.026.017.039.024.012.007.025.012.037.018.013.007.027.014.041.02.012.005.026.009.039.014.014.005.028.011.042.016.014.004.028.007.042.011.015.003.029.008.044.011s.029.004.044.007c.015.002.029.005.044.006.015.002.03.002.045.003.015 0 .03.002.045.002h.002c.031 0 .062-.002.091-.005.013-.001.026-.004.039-.005.017-.003.033-.005.05-.008s.033-.008.05-.013c.012-.003.024-.005.035-.009.018-.006.037-.013.055-.02.008-.003.018-.006.027-.01.018-.007.035-.016.052-.025.009-.004.017-.008.026-.012.016-.009.031-.019.047-.029.008-.005.017-.01.026-.016.014-.009.028-.02.041-.031.009-.006.019-.013.027-.02.013-.01.025-.022.037-.033.009-.008.018-.016.027-.024.011-.011.021-.023.031-.035.009-.009.018-.019.026-.028.01-.012.018-.024.027-.036.008-.011.017-.021.024-.033.009-.012.015-.024.023-.036.007-.013.015-.025.022-.037.007-.013.012-.026.019-.038.006-.014.013-.027.019-.04.005-.013.009-.027.014-.04.006-.014.011-.027.016-.042.004-.013.007-.027.01-.041.004-.015.009-.029.012-.044.003-.014.004-.028.006-.043.003-.015.006-.03.007-.045.002-.015.002-.029.003-.044 0-.016.002-.031.002-.046l.021-8.127c0-.306.13-.602.366-.831.253-.246.596-.381.939-.371.643.02 1.165.579 1.165 1.248l.011 8.031c0 .017.001.032.002.048.001.014.001.029.002.043.002.016.005.032.008.049.002.013.003.026.006.039.003.018.008.035.013.052.003.011.005.023.009.033.005.019.013.037.02.055.003.009.006.018.01.027.008.019.017.038.027.057.004.007.006.014.01.021.011.019.022.037.034.055.004.006.007.012.011.018.012.019.026.036.039.053.004.005.008.011.012.016.015.018.031.035.048.052.003.004.006.008.009.011.017.017.035.033.054.048.003.003.006.006.01.009.018.016.037.029.056.043.004.003.008.006.012.009.02.013.04.025.06.036.005.003.009.006.014.008.021.012.043.022.065.032.004.002.008.004.013.006.022.009.046.018.069.025.004.002.008.003.012.005.024.007.048.013.071.018.005.001.01.003.015.004.058.012.118.018.179.018h.001c.016 0 .031-.002.047-.002.014-.001.029-.001.044-.003.016-.002.032-.005.048-.007.013-.002.027-.004.04-.006l.048-.012c.012-.004.025-.006.038-.01.016-.005.031-.012.046-.018.012-.004.024-.007.035-.012.016-.007.032-.015.047-.023.011-.005.021-.01.031-.015.015-.008.03-.018.045-.027.009-.006.019-.011.029-.018.014-.009.027-.02.04-.03.01-.007.019-.014.028-.021.013-.01.025-.022.037-.034.009-.007.018-.015.026-.023.012-.012.022-.025.033-.037.008-.009.017-.017.025-.027.01-.012.018-.024.027-.037.008-.01.017-.021.024-.031.008-.013.015-.025.023-.038.007-.012.015-.024.022-.036s.012-.026.018-.039c.007-.013.014-.025.019-.039.005-.012.01-.026.014-.039.006-.014.012-.028.016-.043.004-.013.007-.028.011-.042s.008-.028.011-.043c.003-.014.004-.029.007-.044.002-.015.005-.029.006-.044.002-.015.002-.031.003-.046 0-.015.002-.03.002-.045v-10.707c0-.684.556-1.249 1.239-1.261.33-.005.643.123.886.361.253.249.398.593.398.943v10.713c0 .016.001.032.002.048.001.014.001.029.002.043.002.016.005.031.008.046.002.015.003.029.006.042.003.016.008.031.012.046.003.013.006.027.01.04.005.016.012.032.018.048.004.011.007.022.012.033.007.017.016.033.024.049.004.01.008.02.014.029.008.017.019.032.029.048.005.008.009.017.015.026.011.015.023.03.035.046.005.007.01.015.016.022.013.016.028.031.042.046.005.005.01.012.016.017.015.015.03.028.046.042.006.005.011.011.017.016.018.014.036.027.055.041.004.003.009.007.014.01.02.014.041.026.062.038.004.002.007.004.011.007.023.012.047.023.071.034.002.001.004.002.007.003.025.011.051.02.077.028.002.001.003.002.005.002.055.017.113.029.172.035h.002c.029.003.06.005.091.005h.001c.015 0 .031-.002.047-.002.014-.001.029-.001.043-.003.017-.001.033-.004.049-.007.013-.002.026-.003.04-.006.017-.004.034-.009.051-.013.011-.003.023-.006.034-.009.018-.006.035-.013.053-.019.009-.004.019-.007.029-.011.017-.008.035-.017.052-.025.008-.005.017-.008.025-.013.017-.009.034-.019.05-.03.008-.005.016-.009.024-.014.017-.011.032-.024.048-.036.007-.005.014-.01.02-.016.016-.013.031-.027.045-.041.006-.005.013-.01.018-.016.015-.014.028-.03.041-.045.006-.006.012-.012.017-.018.013-.016.024-.032.036-.048.005-.007.01-.014.015-.021.011-.016.021-.033.031-.05.004-.008.01-.015.014-.023.009-.017.017-.035.025-.053.004-.008.009-.017.012-.025.008-.017.014-.036.02-.053.003-.01.007-.019.01-.029.006-.017.01-.035.014-.052.002-.011.006-.022.008-.033.004-.018.006-.035.008-.053.002-.012.005-.024.006-.036.002-.016.002-.033.002-.049.001-.014.002-.028.002-.042v-7.351c.058-.497.48-.89.991-.899.262-.004.516.099.712.291.204.201.322.479.322.763v10.512.04c.005.577.384 1.065.943 1.214.555.147 1.123-.086 1.415-.586l.005-.01c.698-1.22 2.565-3.132 3.11-3.533.063-.046.135-.084.215-.111.355-.123.8-.036 1.108.216.145.119.311.318.274.592z"/></g><path d="m567.443 134.846c-.781-.639-1.887-.843-2.818-.521-.249.086-.481.208-.689.36-.529.39-1.704 1.559-2.635 2.716v-8.918c0-.758-.312-1.499-.855-2.033-.54-.53-1.248-.816-1.991-.802-.338.006-.661.073-.96.19v-.871c0-.825-.339-1.631-.931-2.213-.586-.576-1.354-.887-2.165-.872-1.618.028-2.939 1.343-2.987 2.951-.351-.159-.731-.248-1.126-.26-.821-.024-1.635.294-2.232.873-.585.568-.907 1.316-.907 2.107l-.002.845c-.252-.083-.521-.129-.801-.129-1.411 0-2.559 1.148-2.559 2.559l.001 12.963.002.062c.118 1.701.474 3.158 1.059 4.329.548 1.099 1.313 1.983 2.273 2.629 1.889 1.272 4.223 1.435 6.045 1.435 3.578 0 6.797-1.779 8.407-4.644.195-.316.711-1.127 1.268-2.002.543-.853 1.048-1.638 1.493-2.331.244-.382.467-.728.66-1.03.72-1.126 1.487-2.217 2.28-3.244.294-.381.385-.484.406-.507.371-.405.605-.901.676-1.435.113-.837-.22-1.641-.912-2.207zm-.853 1.971c-.023.171-.1.332-.224.468-.065.07-.181.205-.502.621-.826 1.068-1.623 2.203-2.371 3.373-.193.302-.415.647-.659 1.027-.446.695-.951 1.482-1.496 2.337-.57.896-1.098 1.725-1.291 2.037l-.02.035c-1.292 2.313-3.921 3.749-6.862 3.749-1.569 0-3.561-.128-5.051-1.13-1.519-1.023-2.352-2.846-2.546-5.574l-.001-12.932c0-.429.349-.778.777-.778.432 0 .783.349.783.778v4.851c0 .015.001.029.002.043.001.016.001.032.002.047.002.015.004.028.007.042.002.016.003.031.006.047.003.014.008.028.011.041.004.015.007.03.011.044.005.014.01.028.015.041.005.014.01.028.015.041.006.013.013.026.019.039s.012.026.019.039c.006.013.014.025.022.037.007.012.014.025.022.036.008.012.017.023.026.035.008.011.016.023.025.034s.019.021.029.031c.009.011.019.022.029.033.01.009.02.018.031.028.01.009.021.02.032.029s.022.017.033.025c.012.009.023.018.035.026s.024.015.035.021c.013.008.026.017.039.024.012.007.025.012.037.018.013.007.027.014.041.02.012.005.026.009.039.014.014.005.028.011.042.016.014.004.028.007.042.011.015.003.029.008.044.011s.029.004.044.007c.015.002.029.005.044.006.015.002.03.002.045.003.015 0 .03.002.045.002h.002c.031 0 .062-.002.091-.005.013-.001.026-.004.039-.005.017-.003.033-.005.05-.008s.033-.008.05-.013c.012-.003.024-.005.035-.009.018-.006.037-.013.055-.02.008-.003.018-.006.027-.01.018-.007.035-.016.052-.025.009-.004.017-.008.026-.012.016-.009.031-.019.047-.029.008-.005.017-.01.026-.016.014-.009.028-.02.041-.031.009-.006.019-.013.027-.02.013-.01.025-.022.037-.033.009-.008.018-.016.027-.024.011-.011.021-.023.031-.035.009-.009.018-.019.026-.028.01-.012.018-.024.027-.036.008-.011.017-.021.024-.033.009-.012.015-.024.023-.036.007-.013.015-.025.022-.037.007-.013.012-.026.019-.038.006-.014.013-.027.019-.04.005-.013.009-.027.014-.04.006-.014.011-.027.016-.042.004-.013.007-.027.01-.041.004-.015.009-.029.012-.044.003-.014.004-.028.006-.043.003-.015.006-.03.007-.045.002-.015.002-.029.003-.044 0-.016.002-.031.002-.046l.021-8.127c0-.306.13-.602.366-.831.253-.246.596-.381.939-.371.643.02 1.165.579 1.165 1.248l.011 8.031c0 .017.001.032.002.048.001.014.001.029.002.043.002.016.005.032.008.049.002.013.003.026.006.039.003.018.008.035.013.052.003.011.005.023.009.033.005.019.013.037.02.055.003.009.006.018.01.027.008.019.017.038.027.057.004.007.006.014.01.021.011.019.022.037.034.055.004.006.007.012.011.018.012.019.026.036.039.053.004.005.008.011.012.016.015.018.031.035.048.052.003.004.006.008.009.011.017.017.035.033.054.048.003.003.006.006.01.009.018.016.037.029.056.043.004.003.008.006.012.009.02.013.04.025.06.036.005.003.009.006.014.008.021.012.043.022.065.032.004.002.008.004.013.006.022.009.046.018.069.025.004.002.008.003.012.005.024.007.048.013.071.018.005.001.01.003.015.004.058.012.118.018.179.018h.001c.016 0 .031-.002.047-.002.014-.001.029-.001.044-.003.016-.002.032-.005.048-.007.013-.002.027-.004.04-.006l.048-.012c.012-.004.025-.006.038-.01.016-.005.031-.012.046-.018.012-.004.024-.007.035-.012.016-.007.032-.015.047-.023.011-.005.021-.01.031-.015.015-.008.03-.018.045-.027.009-.006.019-.011.029-.018.014-.009.027-.02.04-.03.01-.007.019-.014.028-.021.013-.01.025-.022.037-.034.009-.007.018-.015.026-.023.012-.012.022-.025.033-.037.008-.009.017-.017.025-.027.01-.012.018-.024.027-.037.008-.01.017-.021.024-.031.008-.013.015-.025.023-.038.007-.012.015-.024.022-.036s.012-.026.018-.039c.007-.013.014-.025.019-.039.005-.012.01-.026.014-.039.006-.014.012-.028.016-.043.004-.013.007-.028.011-.042s.008-.028.011-.043c.003-.014.004-.029.007-.044.002-.015.005-.029.006-.044.002-.015.002-.031.003-.046 0-.015.002-.03.002-.045v-10.707c0-.684.556-1.249 1.239-1.261.33-.005.643.123.886.361.253.249.398.593.398.943v10.713c0 .016.001.032.002.048.001.014.001.029.002.043.002.016.005.031.008.046.002.015.003.029.006.042.003.016.008.031.012.046.003.013.006.027.01.04.005.016.012.032.018.048.004.011.007.022.012.033.007.017.016.033.024.049.004.01.008.02.014.029.008.017.019.032.029.048.005.008.009.017.015.026.011.015.023.03.035.046.005.007.01.015.016.022.013.016.028.031.042.046.005.005.01.012.016.017.015.015.03.028.046.042.006.005.011.011.017.016.018.014.036.027.055.041.004.003.009.007.014.01.02.014.041.026.062.038.004.002.007.004.011.007.023.012.047.023.071.034.002.001.004.002.007.003.025.011.051.02.077.028.002.001.003.002.005.002.055.017.113.029.172.035h.002c.029.003.06.005.091.005h.001c.015 0 .031-.002.047-.002.014-.001.029-.001.043-.003.017-.001.033-.004.049-.007.013-.002.026-.003.04-.006.017-.004.034-.009.051-.013.011-.003.023-.006.034-.009.018-.006.035-.013.053-.019.009-.004.019-.007.029-.011.017-.008.035-.017.052-.025.008-.005.017-.008.025-.013.017-.009.034-.019.05-.03.008-.005.016-.009.024-.014.017-.011.032-.024.048-.036.007-.005.014-.01.02-.016.016-.013.031-.027.045-.041.006-.005.013-.01.018-.016.015-.014.028-.03.041-.045.006-.006.012-.012.017-.018.013-.016.024-.032.036-.048.005-.007.01-.014.015-.021.011-.016.021-.033.031-.05.004-.008.01-.015.014-.023.009-.017.017-.035.025-.053.004-.008.009-.017.012-.025.008-.017.014-.036.02-.053.003-.01.007-.019.01-.029.006-.017.01-.035.014-.052.002-.011.006-.022.008-.033.004-.018.006-.035.008-.053.002-.012.005-.024.006-.036.002-.016.002-.033.002-.049.001-.014.002-.028.002-.042v-7.351c.058-.497.48-.89.991-.899.262-.004.516.099.712.291.204.201.322.479.322.763v10.512.04c.005.577.384 1.065.943 1.214.555.147 1.123-.086 1.415-.586l.005-.01c.698-1.22 2.565-3.132 3.11-3.533.063-.046.135-.084.215-.111.355-.123.8-.036 1.108.216.145.119.311.318.274.592z" mask="url(#a)" stroke="#262626" stroke-width=".578605"/><g fill="#262626"><path d="m317.93 131.932c-.015-.133-.044-.264-.086-.391v-.13c-.07-.149-.163-.285-.275-.405l-8.679-8.679c-.12-.112-.257-.205-.405-.275h-.131l-.462-.159h-8.766c-1.151 0-2.255.457-3.069 1.271s-1.271 1.918-1.271 3.069v20.251c0 1.151.457 2.254 1.271 3.068s1.918 1.271 3.069 1.271h14.465c1.151 0 2.254-.457 3.068-1.271s1.271-1.917 1.271-3.068v-14.465s0 0 0-.087zm-8.679-5.106 3.747 3.746h-3.747zm5.786 19.658c0 .383-.152.751-.423 1.023-.272.271-.64.423-1.023.423h-14.465c-.384 0-.752-.152-1.023-.423-.271-.272-.424-.64-.424-1.023v-20.251c0-.384.153-.752.424-1.023.271-.272.639-.424 1.023-.424h7.232v7.233c0 .383.153.751.424 1.022.271.272.639.424 1.023.424h7.232z"/><path d="m58.2116 252.521-3.327 3.312c-.1355.135-.2431.295-.3166.471-.0734.176-.1112.365-.1112.556s.0378.38.1112.557c.0735.176.1811.336.3166.47.1345.136.2945.244.4708.317.1762.074.3653.111.5563.111.1909 0 .38-.037.5563-.111.1762-.073.3362-.181.4707-.317l5.786-5.786c.1317-.137.235-.299.3038-.477.1447-.352.1447-.747 0-1.099-.0688-.178-.1721-.34-.3038-.478l-5.786-5.786c-.1349-.135-.295-.242-.4712-.315s-.3651-.11-.5558-.11c-.1908 0-.3796.037-.5559.11-.1762.073-.3363.18-.4712.315-.1348.135-.2418.295-.3148.472-.073.176-.1106.365-.1106.555 0 .191.0376.38.1106.556s.18.336.3148.471l3.327 3.313h-13.872c-.3837 0-.7516.152-1.0229.424-.2712.271-.4236.639-.4236 1.022 0 .384.1524.752.4236 1.023.2713.272.6392.424 1.0229.424zm-.8534-15.912c-2.7034-.012-5.3561.734-7.6572 2.153-2.301 1.419-4.1584 3.454-5.3614 5.875-.1727.346-.2011.745-.079 1.112.1221.366.3846.669.7299.841.3453.173.745.201 1.1112.079s.669-.384.8416-.73c.9145-1.846 2.3055-3.415 4.0293-4.545 1.7239-1.129 3.718-1.777 5.7762-1.878 2.0583-.1 4.1061.35 5.9318 1.306 1.8258.956 3.3631 2.382 4.4533 4.131 1.0901 1.749 1.6935 3.757 1.7478 5.817.0542 2.06-.4426 4.097-1.4391 5.901-.9966 1.803-2.4568 3.308-4.2296 4.359-1.7729 1.05-3.7941 1.609-5.8548 1.616-2.1569.01-4.2728-.589-6.1047-1.728-1.832-1.138-3.3058-2.77-4.2523-4.708-.1727-.346-.4754-.608-.8416-.73s-.766-.094-1.1112.079c-.3453.172-.6079.475-.7299.841-.1221.366-.0937.766.0789 1.111 1.1469 2.308 2.8895 4.268 5.0476 5.677 2.1581 1.408 4.6534 2.215 7.2277 2.336 2.5743.12 5.1342-.449 7.4149-1.649 2.2806-1.2 4.1992-2.987 5.5574-5.178 1.3581-2.19 2.1064-4.703 2.1674-7.28.0611-2.576-.5672-5.122-1.82-7.374-1.2528-2.253-3.0846-4.129-5.3058-5.436s-4.7513-1.997-7.3284-1.998z"/><path d="m154.824 249.7c0-.159 0-.318 0-.477l-.131-.868-.13-.564c0-.246-.116-.492-.188-.738s-.116-.39-.188-.578c-.04-.114-.074-.23-.101-.348 0 0 0 0 0-.072-.733-1.948-1.873-3.718-3.345-5.19-1.472-1.471-3.241-2.612-5.19-3.344 0 0 0 0-.072 0l-.333-.102-.607-.188c-.217 0-.449-.115-.666-.173l-.665-.145-.665-.101c-.232 0-.449 0-.695-.087s-.506 0-.752 0l-.738-.116h-.564c-.246 0-.506 0-.752 0s-.463 0-.694.087l-.666.101-.665.145c-.217 0-.448.101-.665.174l-.608.188-.333.101s0 0-.072 0c-1.948.732-3.718 1.873-5.19 3.345s-2.612 3.241-3.344 5.189v.073c-.027.117-.061.233-.102.347 0 .188-.13.376-.188.578-.058.203-.13.492-.188.738l-.13.564-.13.868v.478 1.374 1.374.477l.13.868.13.564c0 .246.116.492.188.738.073.246.116.391.188.579.041.113.075.229.102.347.002.034.002.067 0 .101.726 1.946 1.863 3.714 3.333 5.181 1.47 1.468 3.239 2.602 5.187 3.325h.072l.347.101.579.188.737.188.565.13.867.13h.478c.448 0 .911.073 1.374.073s.926 0 1.374-.073h.477l.868-.13.565-.13.737-.188.579-.188.347-.101h.072c1.948-.723 3.717-1.857 5.187-3.325 1.47-1.467 2.607-3.235 3.333-5.181-.002-.034-.002-.067 0-.101 0-.116.073-.232.102-.347.028-.116.13-.376.188-.579.057-.202.13-.492.188-.738l.13-.564.13-.868c0-.159 0-.318 0-.477 0-.448.072-.911.072-1.374s.131-.81.131-1.259zm-9.113-8.91c2.15 1.104 3.9 2.855 5.004 5.005l-4.137 1.446c-.599-.961-1.411-1.772-2.372-2.372zm-7.754-1.013c.304-.072.593-.115.883-.159h.347c.827-.087 1.661-.087 2.488 0h.347c.289 0 .579.087.882.159h.087l-1.446 4.137c-.393-.06-.79-.084-1.187-.072-.353-.001-.707.028-1.056.087l-1.446-4.137zm-2.806 1.013 1.446 4.137c-.966.598-1.782 1.409-2.386 2.372l-4.137-1.446c1.095-2.172 2.846-3.943 5.005-5.063zm-6.09 12.758c-.069-.285-.117-.575-.144-.868 0-.13 0-.246 0-.362-.097-.826-.097-1.661 0-2.488 0-.115 0-.231 0-.361.027-.293.075-.583.144-.868 0 0 0 0 0-.087l4.137 1.447c-.116.699-.116 1.412 0 2.112l-4.137 1.446s0 .058 0 .029zm6.018 7.811c-2.15-1.104-3.901-2.855-5.005-5.005l4.137-1.446c.599.961 1.411 1.772 2.372 2.372zm7.753 1.013c-.304.072-.593.115-.882.159h-.348c-.827.087-1.661.087-2.488 0h-.347c-.289 0-.578-.087-.882-.159h-.087l1.447-4.137c.699.115 1.412.115 2.112 0l1.446 4.137zm-.969-7.233c-.246.087-.492.145-.723.203-.479.089-.969.089-1.447 0-.231 0-.477-.116-.723-.203-.611-.211-1.167-.555-1.627-1.008s-.814-1.003-1.035-1.61c-.087-.24-.155-.487-.202-.738-.093-.477-.093-.968 0-1.446.044-.241.107-.478.188-.709.218-.6.566-1.144 1.018-1.594.453-.45.999-.795 1.6-1.01.246-.087.492-.144.723-.202.478-.089.969-.089 1.447 0 .231 0 .477.115.723.202.598.217 1.142.562 1.592 1.012s.795.994 1.012 1.592c.087.24.155.487.202.738.093.477.093.968 0 1.446-.047.251-.115.498-.202.738-.22.593-.568 1.131-1.017 1.575-.45.445-.992.786-1.587 1zm3.775 6.235-1.446-4.137c.961-.6 1.772-1.411 2.372-2.373l4.137 1.447c-1.112 2.175-2.885 3.942-5.063 5.048zm6.293-9.056v.362c-.028.293-.076.583-.145.868v.087l-4.137-1.447c.116-.699.116-1.412 0-2.112l4.137-1.446v.087c.069.285.117.575.145.868v.361c.096.827.096 1.662 0 2.488z"/><path d="m224.805 249.628h-8.679c-.384 0-.752.152-1.023.424-.271.271-.424.639-.424 1.022 0 .384.153.752.424 1.023.271.272.639.424 1.023.424h8.679c.383 0 .751-.152 1.023-.424.271-.271.423-.639.423-1.023 0-.383-.152-.751-.423-1.022-.272-.272-.64-.424-1.023-.424zm5.786-5.786h-14.465c-.384 0-.752.152-1.023.424-.271.271-.424.639-.424 1.022 0 .384.153.752.424 1.023.271.272.639.424 1.023.424h14.465c.383 0 .751-.152 1.023-.424.271-.271.423-.639.423-1.023 0-.383-.152-.751-.423-1.022-.272-.272-.64-.424-1.023-.424zm2.893-7.233h-20.251c-1.151 0-2.255.458-3.069 1.271-.814.814-1.271 1.918-1.271 3.069v14.465c0 1.151.457 2.255 1.271 3.069.814.813 1.918 1.271 3.069 1.271h16.765l5.352 5.366c.135.134.295.24.471.312.177.072.365.109.556.108.19.004.378-.035.549-.116.265-.109.491-.293.65-.53.16-.237.246-.515.247-.801v-23.144c0-1.151-.457-2.255-1.271-3.069-.814-.813-1.917-1.271-3.068-1.271zm1.446 23.998-3.312-3.327c-.135-.134-.296-.24-.472-.312s-.365-.109-.555-.107h-17.358c-.384 0-.752-.153-1.023-.424-.272-.271-.424-.639-.424-1.023v-14.465c0-.384.152-.752.424-1.023.271-.271.639-.424 1.023-.424h20.251c.383 0 .751.153 1.023.424.271.271.423.639.423 1.023z"/><path d="m62.7247 137.385c1.4182-1.116 2.4533-2.646 2.9614-4.377s.4639-3.578-.1265-5.283-1.6975-3.184-3.1675-4.231c-1.4699-1.046-3.2295-1.609-5.0339-1.609-1.8045 0-3.5641.563-5.034 1.609-1.4699 1.047-2.5771 2.526-3.1674 4.231-.5904 1.705-.6346 3.552-.1265 5.283s1.5432 3.261 2.9613 4.377c-2.43.974-4.5503 2.589-6.1348 4.672-1.5845 2.084-2.5738 4.559-2.8625 7.161-.0209.19-.0042.382.0492.565.0534.184.1424.355.262.504.2414.301.5926.494.9762.536.3837.043.7683-.069 1.0695-.311.3011-.241.4939-.592.5361-.976.3177-2.828 1.666-5.439 3.7873-7.336 2.1214-1.896 4.8671-2.944 7.7125-2.944s5.5911 1.048 7.7125 2.944c2.1214 1.897 3.4696 4.508 3.7873 7.336.0393.355.2089.684.476.921.2672.238.6129.368.9705.366h.1591c.3792-.043.7258-.235.9642-.533s.3494-.678.3087-1.058c-.29-2.609-1.2846-5.09-2.8773-7.177-1.5926-2.087-3.7232-3.701-6.1634-4.67zm-5.3665-1.027c-1.1444 0-2.2631-.339-3.2146-.975s-1.6931-1.539-2.131-2.597c-.438-1.057-.5525-2.22-.3293-3.343.2233-1.122.7743-2.153 1.5835-2.962s1.8402-1.36 2.9626-1.584c1.1224-.223 2.2857-.108 3.343.33 1.0573.437 1.9609 1.179 2.5967 2.131.6358.951.9751 2.07.9751 3.214 0 1.535-.6096 3.006-1.6947 4.092-1.0851 1.085-2.5568 1.694-4.0913 1.694z"/><path d="m144.423 136.763c.915-.983 1.431-2.273 1.446-3.616 0-1.45-.576-2.841-1.601-3.866-1.026-1.026-2.416-1.602-3.866-1.602-1.451 0-2.841.576-3.867 1.602-1.025 1.025-1.601 2.416-1.601 3.866.015 1.343.531 2.633 1.446 3.616-1.275.635-2.372 1.577-3.192 2.741-.821 1.164-1.339 2.514-1.509 3.928-.042.383.07.768.311 1.069.242.301.593.494.977.536.383.042.768-.069 1.069-.311.301-.241.494-.593.536-.976.173-1.402.852-2.692 1.91-3.627 1.057-.936 2.421-1.452 3.833-1.452s2.775.516 3.833 1.452c1.058.935 1.737 2.225 1.909 3.627.041.371.223.712.508.952.286.24.653.36 1.026.335h.159c.379-.043.726-.235.964-.533s.349-.678.309-1.058c-.157-1.407-.659-2.753-1.462-3.918-.802-1.166-1.88-2.116-3.138-2.765zm-4.065-1.041c-.509 0-1.007-.151-1.43-.434-.424-.283-.754-.685-.949-1.156-.194-.47-.245-.988-.146-1.487.099-.5.344-.959.705-1.319.36-.36.818-.605 1.318-.704.499-.1 1.017-.049 1.488.146.47.195.872.525 1.155.948.283.424.434.922.434 1.431 0 .683-.271 1.338-.754 1.821-.483.482-1.138.754-1.821.754zm10.126-13.829h-20.251c-1.151 0-2.255.457-3.069 1.271s-1.271 1.918-1.271 3.069v20.251c0 1.151.457 2.254 1.271 3.068s1.918 1.271 3.069 1.271h20.251c1.151 0 2.254-.457 3.068-1.271s1.271-1.917 1.271-3.068v-20.251c0-1.151-.457-2.255-1.271-3.069s-1.917-1.271-3.068-1.271zm1.446 24.591c0 .383-.152.751-.423 1.023-.272.271-.64.423-1.023.423h-20.251c-.384 0-.752-.152-1.023-.423-.272-.272-.424-.64-.424-1.023v-20.251c0-.384.152-.752.424-1.023.271-.272.639-.424 1.023-.424h20.251c.383 0 .751.152 1.023.424.271.271.423.639.423 1.023z"/><path d="m317.395 238.996c-.168-.136-.364-.233-.575-.283-.21-.05-.429-.052-.64-.006-1.546.324-3.141.328-4.689.012-1.547-.316-3.013-.945-4.308-1.849-.242-.168-.53-.258-.825-.258-.294 0-.582.09-.824.258-1.295.904-2.762 1.533-4.309 1.849s-3.143.312-4.689-.012c-.211-.046-.43-.044-.64.006s-.407.147-.575.283c-.167.136-.303.308-.395.503-.093.196-.141.409-.14.625v10.777c-.001 2.074.493 4.118 1.442 5.962.948 1.844 2.324 3.435 4.011 4.641l5.28 3.761c.245.174.538.268.839.268s.594-.094.839-.268l5.28-3.761c1.688-1.206 3.063-2.797 4.012-4.641.948-1.844 1.443-3.888 1.441-5.962v-10.777c.001-.216-.047-.429-.139-.625-.093-.195-.228-.367-.396-.503zm-2.358 11.905c.001 1.612-.383 3.202-1.12 4.636s-1.806 2.671-3.118 3.609l-4.441 3.168-4.441-3.168c-1.311-.938-2.381-2.175-3.118-3.609s-1.121-3.024-1.12-4.636v-9.113c3.033.259 6.07-.444 8.679-2.011 2.61 1.567 5.647 2.27 8.679 2.011zm-6.451-3.313-3.891 3.906-1.288-1.302c-.272-.272-.641-.425-1.027-.425-.385 0-.754.153-1.027.425-.272.272-.425.642-.425 1.027s.153.755.425 1.027l2.315 2.314c.134.136.294.244.47.317.177.073.366.111.557.111s.38-.038.556-.111.336-.181.471-.317l4.976-4.932c.272-.273.425-.642.425-1.027s-.153-.755-.425-1.027c-.273-.273-.642-.426-1.027-.426s-.755.153-1.027.426z"/><path d="m223.358 121.893c-3.069 0-6.012 1.219-8.182 3.389-2.171 2.171-3.39 5.114-3.39 8.183 0 7.811 10.198 16.635 10.632 17.011.262.224.595.347.94.347s.678-.123.94-.347c.507-.376 10.632-9.2 10.632-17.011 0-3.069-1.219-6.012-3.389-8.183-2.17-2.17-5.114-3.389-8.183-3.389zm0 25.531c-3.081-2.893-8.679-9.127-8.679-13.959 0-2.302.915-4.509 2.542-6.137 1.628-1.628 3.835-2.542 6.137-2.542s4.51.914 6.137 2.542c1.628 1.628 2.542 3.835 2.542 6.137 0 4.832-5.598 11.08-8.679 13.959zm0-19.745c-1.144 0-2.263.339-3.214.975-.952.636-1.693 1.54-2.131 2.597s-.553 2.221-.33 3.343c.224 1.122.775 2.153 1.584 2.963.809.809 1.84 1.36 2.962 1.583 1.123.223 2.286.109 3.343-.329 1.058-.438 1.961-1.18 2.597-2.131.636-.952.975-2.07.975-3.215 0-1.534-.609-3.006-1.694-4.091-1.086-1.085-2.557-1.695-4.092-1.695zm0 8.679c-.572 0-1.131-.169-1.607-.487s-.847-.77-1.066-1.299c-.219-.528-.276-1.11-.164-1.671.111-.561.387-1.077.792-1.482.404-.404.92-.68 1.481-.791.561-.112 1.143-.055 1.671.164.529.219.981.59 1.299 1.066s.487 1.035.487 1.607c0 .767-.305 1.503-.847 2.046-.543.542-1.278.847-2.046.847z"/></g></svg>