<svg fill="none" height="630" viewBox="0 0 1597 630" width="1597" xmlns="http://www.w3.org/2000/svg"><path d="m0 0h1597v630h-1597z" fill="#fff"/><path d="m41.2784 129v-11.636h1.7557v10.125h5.2727v1.511zm11.0267.193c-.5531 0-1.0531-.102-1.5-.307-.447-.208-.8012-.509-1.0625-.903-.2576-.394-.3864-.877-.3864-1.449 0-.492.0947-.898.2841-1.216s.4451-.57.767-.756c.322-.185.6819-.325 1.0796-.42s.803-.167 1.2159-.216c.5227-.06.947-.11 1.2727-.148.3258-.041.5625-.108.7103-.198.1477-.091.2215-.239.2215-.444v-.039c0-.497-.1401-.881-.4204-1.154-.2765-.273-.6894-.409-1.2386-.409-.572 0-1.0228.127-1.3523.381-.3258.25-.5512.528-.6762.835l-1.5965-.364c.1893-.53.4659-.958.8295-1.284.3674-.329.7898-.568 1.267-.716.4773-.151.9792-.227 1.5057-.227.3485 0 .7178.042 1.108.125.3939.08.7613.227 1.1023.443.3446.216.6268.525.8465.926.2197.398.3296.915.3296 1.552v5.795h-1.6591v-1.193h-.0682c-.1098.22-.2746.435-.4943.648-.2197.212-.5019.388-.8466.528s-.7576.21-1.2386.21zm.3693-1.363c.4697 0 .8712-.093 1.2045-.279.3372-.185.5928-.428.7671-.727.178-.303.267-.627.267-.972v-1.125c-.0606.061-.178.118-.3522.171-.1705.049-.3656.093-.5853.13-.2197.034-.4337.067-.642.097-.2084.027-.3826.049-.5227.068-.3296.042-.6307.112-.9035.21-.2689.099-.4848.241-.6477.427-.1591.181-.2386.424-.2386.727 0 .42.1553.738.4659.954.3106.212.7064.319 1.1875.319zm5.9286 1.17v-11.636h1.6989v4.324h.1023c.0985-.182.2405-.393.4261-.631.1856-.239.4432-.447.7727-.625.3296-.182.7652-.273 1.3069-.273.7045 0 1.3333.178 1.8863.534s.9868.869 1.3012 1.54c.3181.67.4772 1.477.4772 2.42 0 .944-.1572 1.752-.4716 2.427-.3144.67-.7462 1.187-1.2954 1.551-.5493.36-1.1762.539-1.8807.539-.5303 0-.964-.089-1.3011-.267-.3334-.178-.5947-.386-.7841-.625-.1894-.238-.3353-.45-.4375-.636h-.1421v1.358zm1.6648-4.364c0 .614.089 1.152.2671 1.614.178.462.4356.824.7727 1.085.3371.258.75.387 1.2386.387.5076 0 .9318-.135 1.2727-.404.341-.273.5985-.642.7728-1.108.178-.466.267-.99.267-1.574 0-.575-.0871-1.092-.2613-1.551-.1705-.458-.4281-.82-.7728-1.085-.3409-.265-.767-.398-1.2784-.398-.4924 0-.9091.127-1.25.381-.3371.254-.5928.608-.767 1.062-.1743.455-.2614.985-.2614 1.591zm11.5679 4.54c-.8599 0-1.6004-.184-2.2216-.551-.6175-.371-1.0947-.892-1.4318-1.563-.3334-.674-.5-1.464-.5-2.369 0-.894.1666-1.682.5-2.363.3371-.682.8068-1.214 1.409-1.597.6061-.383 1.3144-.574 2.125-.574.4925 0 .9697.082 1.4319.244.4621.163.8769.419 1.2443.767.3674.349.6572.802.8693 1.358.2121.553.3182 1.226.3182 2.017v.603h-6.9375v-1.273h5.2727c0-.447-.0909-.843-.2727-1.187-.1818-.349-.4375-.624-.7671-.824-.3257-.201-.7083-.302-1.1477-.302-.4773 0-.8939.118-1.25.353-.3523.231-.625.534-.8182.909-.1894.371-.2841.774-.2841 1.21v.994c0 .584.1023 1.08.3069 1.489.2083.409.4981.722.8693.938.3712.212.8049.318 1.3011.318.322 0 .6155-.046.8807-.137.2651-.094.4943-.234.6875-.42s.3409-.415.4432-.688l1.6079.29c-.1288.474-.3598.888-.6932 1.244-.3295.353-.7443.627-1.2443.824-.4962.194-1.0625.29-1.6988.29zm6.9201-11.812v11.636h-1.6989v-11.636z" fill="#262626"/><path d="m57.4091 170v-11.636h3.9318c.9129 0 1.6591.164 2.2386.494.5834.326 1.0152.767 1.2955 1.324s.4205 1.178.4205 1.863c0 .686-.1402 1.309-.4205 1.87-.2765.56-.7045 1.007-1.2841 1.341-.5795.329-1.322.494-2.2273.494h-2.8181v-1.25h2.7727c.625 0 1.1269-.108 1.5057-.324s.6534-.507.8238-.875c.1743-.371.2614-.79.2614-1.256 0-.465-.0871-.882-.2614-1.25-.1704-.367-.4469-.655-.8295-.863-.3826-.212-.8902-.318-1.5227-.318h-2.4773v10.386zm11.2353-11.636v11.636h-1.3409v-11.636zm4.9442 11.841c-.5531 0-1.0549-.105-1.5057-.313-.4508-.212-.8087-.517-1.0739-.915-.2651-.401-.3977-.886-.3977-1.454 0-.5.0985-.906.2955-1.216.1969-.315.4602-.561.7897-.739.3296-.178.6932-.31 1.0909-.398.4016-.09.805-.162 1.2103-.215.5303-.069.9602-.12 1.2897-.154.3334-.038.5758-.1.7273-.187.1553-.087.233-.239.233-.455v-.045c0-.561-.1534-.997-.4603-1.307-.303-.311-.7632-.466-1.3806-.466-.6402 0-1.1421.14-1.5057.42-.3637.281-.6193.58-.7671.898l-1.2727-.454c.2273-.531.5303-.944.9091-1.239.3826-.299.7992-.508 1.25-.625.4545-.121.9015-.182 1.3409-.182.2803 0 .6023.034.9659.102.3674.065.7216.199 1.0625.404.3447.204.6307.513.858.926.2272.413.3409.966.3409 1.659v5.75h-1.3409v-1.182h-.0682c-.0909.19-.2424.392-.4546.608-.2121.216-.4943.4-.8465.551-.3523.152-.7822.228-1.2898.228zm.2045-1.205c.5303 0 .9773-.104 1.3409-.312.3675-.209.644-.478.8296-.807.1894-.33.2841-.676.2841-1.04v-1.227c-.0568.068-.1818.13-.375.187-.1894.053-.4091.101-.6591.142-.2462.038-.4868.072-.7216.102-.2311.027-.4186.05-.5625.069-.3485.045-.6743.119-.9773.221-.2992.099-.5417.248-.7273.449-.1818.197-.2727.466-.2727.807 0 .466.1724.818.5171 1.057.3484.235.7897.352 1.3238.352zm9.7084 1.182c-.8182 0-1.5227-.193-2.1137-.58-.5909-.386-1.0454-.918-1.3636-1.596s-.4773-1.453-.4773-2.324c0-.887.1629-1.669.4887-2.347.3295-.682.7878-1.214 1.375-1.596.5909-.387 1.2803-.58 2.0682-.58.6136 0 1.1666.114 1.659.341.4925.227.8959.545 1.2103.955.3144.409.5094.886.5852 1.431h-1.3409c-.1023-.397-.3296-.75-.6818-1.056-.3485-.311-.8182-.466-1.4091-.466-.5227 0-.9811.136-1.375.409-.3902.269-.6951.649-.9148 1.142-.2159.488-.3239 1.062-.3239 1.721 0 .675.1061 1.262.3182 1.762.2159.5.519.888.9091 1.164.394.277.8561.415 1.3864.415.3485 0 .6648-.06.9488-.182.2841-.121.5247-.295.7216-.522.197-.228.3372-.5.4205-.818h1.3409c-.0758.515-.2633.979-.5625 1.392-.2955.409-.6875.734-1.1761.977-.4849.238-1.0493.358-1.6932.358zm8.9711 0c-.8409 0-1.5663-.186-2.1761-.557-.6061-.375-1.0739-.898-1.4034-1.568-.3258-.674-.4887-1.459-.4887-2.352 0-.894.1629-1.682.4887-2.364.3295-.686.7878-1.22 1.375-1.602.5909-.387 1.2803-.58 2.0682-.58.4545 0 .9034.076 1.3465.227.4432.152.8466.398 1.2103.739.3636.337.6534.784.8693 1.341s.3239 1.242.3239 2.057v.568h-6.7273v-1.159h5.3636c0-.493-.0985-.932-.2954-1.318-.1932-.387-.4697-.692-.8296-.915-.356-.224-.7765-.335-1.2613-.335-.5341 0-.9963.132-1.3864.397-.3864.262-.6837.603-.8921 1.023-.2083.421-.3125.871-.3125 1.352v.773c0 .659.1137 1.218.341 1.676.231.455.5511.801.9602 1.04.4091.235.8844.352 1.4261.352.3523 0 .6705-.049.9546-.147.2878-.103.5359-.254.7443-.455.2083-.205.3693-.458.4829-.761l1.2955.363c-.1364.44-.3655.826-.6875 1.159-.322.33-.7197.587-1.1932.773-.4735.182-1.0057.273-1.5966.273zm6.9143-5.432v5.25h-1.3409v-11.636h1.3409v4.272h.1137c.2045-.45.5114-.808.9204-1.074.413-.268.962-.403 1.648-.403.594 0 1.115.119 1.562.358.447.235.794.597 1.04 1.085.25.485.375 1.103.375 1.853v5.545h-1.341v-5.455c0-.693-.18-1.229-.54-1.607-.356-.383-.85-.574-1.483-.574-.439 0-.833.092-1.181.278-.345.186-.6179.456-.8186.813-.197.356-.2955.787-.2955 1.295zm11.5781 5.432c-.788 0-1.48-.188-2.074-.563-.591-.375-1.053-.899-1.387-1.574-.329-.674-.494-1.462-.494-2.363 0-.909.165-1.703.494-2.381.334-.678.796-1.204 1.387-1.579.594-.375 1.286-.563 2.074-.563.787 0 1.477.188 2.068.563.594.375 1.057.901 1.386 1.579.333.678.5 1.472.5 2.381 0 .901-.167 1.689-.5 2.363-.329.675-.792 1.199-1.386 1.574-.591.375-1.281.563-2.068.563zm0-1.205c.598 0 1.091-.153 1.477-.46s.672-.71.858-1.21c.185-.5.278-1.042.278-1.625 0-.584-.093-1.127-.278-1.631-.186-.504-.472-.911-.858-1.221-.386-.311-.879-.466-1.477-.466-.599 0-1.091.155-1.478.466-.386.31-.672.717-.858 1.221-.185.504-.278 1.047-.278 1.631 0 .583.093 1.125.278 1.625.186.5.472.903.858 1.21.387.307.879.46 1.478.46zm7.262-10.613v11.636h-1.341v-11.636zm5.671 11.818c-.727 0-1.369-.184-1.926-.551-.557-.372-.992-.894-1.307-1.569-.314-.678-.471-1.479-.471-2.403 0-.917.157-1.712.471-2.386.315-.675.752-1.195 1.313-1.563.561-.367 1.208-.551 1.943-.551.568 0 1.017.095 1.347.284.333.186.587.398.761.637.178.234.316.428.415.579h.113v-4.295h1.341v11.636h-1.295v-1.341h-.159c-.099.159-.239.36-.421.602-.181.239-.441.453-.778.642-.337.186-.786.279-1.347.279zm.182-1.205c.538 0 .993-.14 1.364-.42.371-.284.653-.676.846-1.176.194-.504.29-1.086.29-1.745 0-.651-.095-1.221-.284-1.71-.189-.492-.47-.875-.841-1.148-.371-.276-.829-.414-1.375-.414-.568 0-1.041.145-1.42.437-.375.288-.657.68-.847 1.176-.185.493-.278 1.046-.278 1.659 0 .622.094 1.186.284 1.694.193.503.477.905.852 1.204.379.296.849.443 1.409.443zm10.039 1.205c-.84 0-1.566-.186-2.176-.557-.606-.375-1.074-.898-1.403-1.568-.326-.674-.489-1.459-.489-2.352 0-.894.163-1.682.489-2.364.329-.686.788-1.22 1.375-1.602.591-.387 1.28-.58 2.068-.58.455 0 .904.076 1.347.227.443.152.846.398 1.21.739.364.337.653.784.869 1.341s.324 1.242.324 2.057v.568h-6.727v-1.159h5.363c0-.493-.098-.932-.295-1.318-.193-.387-.47-.692-.83-.915-.356-.224-.776-.335-1.261-.335-.534 0-.996.132-1.386.397-.387.262-.684.603-.892 1.023-.209.421-.313.871-.313 1.352v.773c0 .659.114 1.218.341 1.676.231.455.551.801.96 1.04.409.235.885.352 1.426.352.353 0 .671-.049.955-.147.288-.103.536-.254.744-.455.209-.205.37-.458.483-.761l1.296.363c-.137.44-.366.826-.688 1.159-.322.33-.719.587-1.193.773-.473.182-1.006.273-1.597.273zm5.574-.182v-8.727h1.295v1.318h.091c.159-.432.447-.782.864-1.051s.886-.404 1.409-.404c.098 0 .222.002.369.006.148.004.26.01.336.017v1.364c-.046-.012-.15-.029-.313-.051-.159-.027-.328-.04-.506-.04-.424 0-.803.089-1.136.267-.33.174-.591.417-.784.727-.189.307-.284.657-.284 1.051v5.523z" fill="#828282"/><rect height="45" rx="3.5" stroke="#f0f0f0" width="342" x="40.5" y="141.5"/><path d="m41.2784 424v-11.636h1.7557v10.125h5.2727v1.511zm11.0267.193c-.5531 0-1.0531-.102-1.5-.307-.447-.208-.8012-.509-1.0625-.903-.2576-.394-.3864-.877-.3864-1.449 0-.492.0947-.898.2841-1.216s.4451-.57.767-.756c.322-.185.6819-.325 1.0796-.42s.803-.167 1.2159-.216c.5227-.06.947-.11 1.2727-.148.3258-.041.5625-.108.7103-.198.1477-.091.2215-.239.2215-.444v-.039c0-.497-.1401-.881-.4204-1.154-.2765-.273-.6894-.409-1.2386-.409-.572 0-1.0228.127-1.3523.381-.3258.25-.5512.528-.6762.835l-1.5965-.364c.1893-.53.4659-.958.8295-1.284.3674-.329.7898-.568 1.267-.716.4773-.151.9792-.227 1.5057-.227.3485 0 .7178.042 1.108.125.3939.08.7613.227 1.1023.443.3446.216.6268.525.8465.926.2197.398.3296.915.3296 1.552v5.795h-1.6591v-1.193h-.0682c-.1098.22-.2746.435-.4943.648-.2197.212-.5019.388-.8466.528s-.7576.21-1.2386.21zm.3693-1.363c.4697 0 .8712-.093 1.2045-.279.3372-.185.5928-.428.7671-.727.178-.303.267-.627.267-.972v-1.125c-.0606.061-.178.118-.3522.171-.1705.049-.3656.093-.5853.13-.2197.034-.4337.067-.642.097-.2084.027-.3826.049-.5227.068-.3296.042-.6307.112-.9035.21-.2689.099-.4848.241-.6477.427-.1591.181-.2386.424-.2386.727 0 .42.1553.738.4659.954.3106.212.7064.319 1.1875.319zm5.9286 1.17v-11.636h1.6989v4.324h.1023c.0985-.182.2405-.393.4261-.631.1856-.239.4432-.447.7727-.625.3296-.182.7652-.273 1.3069-.273.7045 0 1.3333.178 1.8863.534s.9868.869 1.3012 1.54c.3181.67.4772 1.477.4772 2.42 0 .944-.1572 1.752-.4716 2.427-.3144.67-.7462 1.187-1.2954 1.551-.5493.36-1.1762.539-1.8807.539-.5303 0-.964-.089-1.3011-.267-.3334-.178-.5947-.386-.7841-.625-.1894-.238-.3353-.45-.4375-.636h-.1421v1.358zm1.6648-4.364c0 .614.089 1.152.2671 1.614.178.462.4356.824.7727 1.085.3371.258.75.387 1.2386.387.5076 0 .9318-.135 1.2727-.404.341-.273.5985-.642.7728-1.108.178-.466.267-.99.267-1.574 0-.575-.0871-1.092-.2613-1.551-.1705-.458-.4281-.82-.7728-1.085-.3409-.265-.767-.398-1.2784-.398-.4924 0-.9091.127-1.25.381-.3371.254-.5928.608-.767 1.062-.1743.455-.2614.985-.2614 1.591zm11.5679 4.54c-.8599 0-1.6004-.184-2.2216-.551-.6175-.371-1.0947-.892-1.4318-1.563-.3334-.674-.5-1.464-.5-2.369 0-.894.1666-1.682.5-2.363.3371-.682.8068-1.214 1.409-1.597.6061-.383 1.3144-.574 2.125-.574.4925 0 .9697.082 1.4319.244.4621.163.8769.419 1.2443.767.3674.349.6572.802.8693 1.358.2121.553.3182 1.226.3182 2.017v.603h-6.9375v-1.273h5.2727c0-.447-.0909-.843-.2727-1.187-.1818-.349-.4375-.624-.7671-.824-.3257-.201-.7083-.302-1.1477-.302-.4773 0-.8939.118-1.25.353-.3523.231-.625.534-.8182.909-.1894.371-.2841.774-.2841 1.21v.994c0 .584.1023 1.08.3069 1.489.2083.409.4981.722.8693.938.3712.212.8049.318 1.3011.318.322 0 .6155-.046.8807-.137.2651-.094.4943-.234.6875-.42s.3409-.415.4432-.688l1.6079.29c-.1288.474-.3598.888-.6932 1.244-.3295.353-.7443.627-1.2443.824-.4962.194-1.0625.29-1.6988.29zm6.9201-11.812v11.636h-1.6989v-11.636z" fill="#262626"/><path d="m57.4091 465v-11.636h3.9318c.9129 0 1.6591.164 2.2386.494.5834.326 1.0152.767 1.2955 1.324s.4205 1.178.4205 1.863c0 .686-.1402 1.309-.4205 1.87-.2765.56-.7045 1.007-1.2841 1.341-.5795.329-1.322.494-2.2273.494h-2.8181v-1.25h2.7727c.625 0 1.1269-.108 1.5057-.324s.6534-.507.8238-.875c.1743-.371.2614-.79.2614-1.256 0-.465-.0871-.882-.2614-1.25-.1704-.367-.4469-.655-.8295-.863-.3826-.212-.8902-.318-1.5227-.318h-2.4773v10.386zm11.2353-11.636v11.636h-1.3409v-11.636zm4.9442 11.841c-.5531 0-1.0549-.105-1.5057-.313-.4508-.212-.8087-.517-1.0739-.915-.2651-.401-.3977-.886-.3977-1.454 0-.5.0985-.906.2955-1.216.1969-.315.4602-.561.7897-.739.3296-.178.6932-.31 1.0909-.398.4016-.09.805-.162 1.2103-.215.5303-.069.9602-.12 1.2897-.154.3334-.038.5758-.1.7273-.187.1553-.087.233-.239.233-.455v-.045c0-.561-.1534-.997-.4603-1.307-.303-.311-.7632-.466-1.3806-.466-.6402 0-1.1421.14-1.5057.42-.3637.281-.6193.58-.7671.898l-1.2727-.454c.2273-.531.5303-.944.9091-1.239.3826-.299.7992-.508 1.25-.625.4545-.121.9015-.182 1.3409-.182.2803 0 .6023.034.9659.102.3674.065.7216.199 1.0625.404.3447.204.6307.513.858.926.2272.413.3409.966.3409 1.659v5.75h-1.3409v-1.182h-.0682c-.0909.19-.2424.392-.4546.608-.2121.216-.4943.4-.8465.551-.3523.152-.7822.228-1.2898.228zm.2045-1.205c.5303 0 .9773-.104 1.3409-.312.3675-.209.644-.478.8296-.807.1894-.33.2841-.676.2841-1.04v-1.227c-.0568.068-.1818.13-.375.187-.1894.053-.4091.101-.6591.142-.2462.038-.4868.072-.7216.102-.2311.027-.4186.05-.5625.069-.3485.045-.6743.119-.9773.221-.2992.099-.5417.248-.7273.449-.1818.197-.2727.466-.2727.807 0 .466.1724.818.5171 1.057.3484.235.7897.352 1.3238.352zm9.7084 1.182c-.8182 0-1.5227-.193-2.1137-.58-.5909-.386-1.0454-.918-1.3636-1.596s-.4773-1.453-.4773-2.324c0-.887.1629-1.669.4887-2.347.3295-.682.7878-1.214 1.375-1.596.5909-.387 1.2803-.58 2.0682-.58.6136 0 1.1666.114 1.659.341.4925.227.8959.545 1.2103.955.3144.409.5094.886.5852 1.431h-1.3409c-.1023-.397-.3296-.75-.6818-1.056-.3485-.311-.8182-.466-1.4091-.466-.5227 0-.9811.136-1.375.409-.3902.269-.6951.649-.9148 1.142-.2159.488-.3239 1.062-.3239 1.721 0 .675.1061 1.262.3182 1.762.2159.5.519.888.9091 1.164.394.277.8561.415 1.3864.415.3485 0 .6648-.06.9488-.182.2841-.121.5247-.295.7216-.522.197-.228.3372-.5.4205-.818h1.3409c-.0758.515-.2633.979-.5625 1.392-.2955.409-.6875.734-1.1761.977-.4849.238-1.0493.358-1.6932.358zm8.9711 0c-.8409 0-1.5663-.186-2.1761-.557-.6061-.375-1.0739-.898-1.4034-1.568-.3258-.674-.4887-1.459-.4887-2.352 0-.894.1629-1.682.4887-2.364.3295-.686.7878-1.22 1.375-1.602.5909-.387 1.2803-.58 2.0682-.58.4545 0 .9034.076 1.3465.227.4432.152.8466.398 1.2103.739.3636.337.6534.784.8693 1.341s.3239 1.242.3239 2.057v.568h-6.7273v-1.159h5.3636c0-.493-.0985-.932-.2954-1.318-.1932-.387-.4697-.692-.8296-.915-.356-.224-.7765-.335-1.2613-.335-.5341 0-.9963.132-1.3864.397-.3864.262-.6837.603-.8921 1.023-.2083.421-.3125.871-.3125 1.352v.773c0 .659.1137 1.218.341 1.676.231.455.5511.801.9602 1.04.4091.235.8844.352 1.4261.352.3523 0 .6705-.049.9546-.147.2878-.103.5359-.254.7443-.455.2083-.205.3693-.458.4829-.761l1.2955.363c-.1364.44-.3655.826-.6875 1.159-.322.33-.7197.587-1.1932.773-.4735.182-1.0057.273-1.5966.273zm6.9143-5.432v5.25h-1.3409v-11.636h1.3409v4.272h.1137c.2045-.45.5114-.808.9204-1.074.413-.268.962-.403 1.648-.403.594 0 1.115.119 1.562.358.447.235.794.597 1.04 1.085.25.485.375 1.103.375 1.853v5.545h-1.341v-5.455c0-.693-.18-1.229-.54-1.607-.356-.383-.85-.574-1.483-.574-.439 0-.833.092-1.181.278-.345.186-.6179.456-.8186.813-.197.356-.2955.787-.2955 1.295zm11.5781 5.432c-.788 0-1.48-.188-2.074-.563-.591-.375-1.053-.899-1.387-1.574-.329-.674-.494-1.462-.494-2.363 0-.909.165-1.703.494-2.381.334-.678.796-1.204 1.387-1.579.594-.375 1.286-.563 2.074-.563.787 0 1.477.188 2.068.563.594.375 1.057.901 1.386 1.579.333.678.5 1.472.5 2.381 0 .901-.167 1.689-.5 2.363-.329.675-.792 1.199-1.386 1.574-.591.375-1.281.563-2.068.563zm0-1.205c.598 0 1.091-.153 1.477-.46s.672-.71.858-1.21c.185-.5.278-1.042.278-1.625 0-.584-.093-1.127-.278-1.631-.186-.504-.472-.911-.858-1.221-.386-.311-.879-.466-1.477-.466-.599 0-1.091.155-1.478.466-.386.31-.672.717-.858 1.221-.185.504-.278 1.047-.278 1.631 0 .583.093 1.125.278 1.625.186.5.472.903.858 1.21.387.307.879.46 1.478.46zm7.262-10.613v11.636h-1.341v-11.636zm5.671 11.818c-.727 0-1.369-.184-1.926-.551-.557-.372-.992-.894-1.307-1.569-.314-.678-.471-1.479-.471-2.403 0-.917.157-1.712.471-2.386.315-.675.752-1.195 1.313-1.563.561-.367 1.208-.551 1.943-.551.568 0 1.017.095 1.347.284.333.186.587.398.761.637.178.234.316.428.415.579h.113v-4.295h1.341v11.636h-1.295v-1.341h-.159c-.099.159-.239.36-.421.602-.181.239-.441.453-.778.642-.337.186-.786.279-1.347.279zm.182-1.205c.538 0 .993-.14 1.364-.42.371-.284.653-.676.846-1.176.194-.504.29-1.086.29-1.745 0-.651-.095-1.221-.284-1.71-.189-.492-.47-.875-.841-1.148-.371-.276-.829-.414-1.375-.414-.568 0-1.041.145-1.42.437-.375.288-.657.68-.847 1.176-.185.493-.278 1.046-.278 1.659 0 .622.094 1.186.284 1.694.193.503.477.905.852 1.204.379.296.849.443 1.409.443zm10.039 1.205c-.84 0-1.566-.186-2.176-.557-.606-.375-1.074-.898-1.403-1.568-.326-.674-.489-1.459-.489-2.352 0-.894.163-1.682.489-2.364.329-.686.788-1.22 1.375-1.602.591-.387 1.28-.58 2.068-.58.455 0 .904.076 1.347.227.443.152.846.398 1.21.739.364.337.653.784.869 1.341s.324 1.242.324 2.057v.568h-6.727v-1.159h5.363c0-.493-.098-.932-.295-1.318-.193-.387-.47-.692-.83-.915-.356-.224-.776-.335-1.261-.335-.534 0-.996.132-1.386.397-.387.262-.684.603-.892 1.023-.209.421-.313.871-.313 1.352v.773c0 .659.114 1.218.341 1.676.231.455.551.801.96 1.04.409.235.885.352 1.426.352.353 0 .671-.049.955-.147.288-.103.536-.254.744-.455.209-.205.37-.458.483-.761l1.296.363c-.137.44-.366.826-.688 1.159-.322.33-.719.587-1.193.773-.473.182-1.006.273-1.597.273zm5.574-.182v-8.727h1.295v1.318h.091c.159-.432.447-.782.864-1.051s.886-.404 1.409-.404c.098 0 .222.002.369.006.148.004.26.01.336.017v1.364c-.046-.012-.15-.029-.313-.051-.159-.027-.328-.04-.506-.04-.424 0-.803.089-1.136.267-.33.174-.591.417-.784.727-.189.307-.284.657-.284 1.051v5.523z" fill="#828282"/><rect height="126" rx="3.5" stroke="#f0f0f0" width="342" x="40.5" y="436.5"/><path d="m41.2784 265v-11.636h1.7557v10.125h5.2727v1.511zm11.0267.193c-.5531 0-1.0531-.102-1.5-.307-.447-.208-.8012-.509-1.0625-.903-.2576-.394-.3864-.877-.3864-1.449 0-.492.0947-.898.2841-1.216s.4451-.57.767-.756c.322-.185.6819-.325 1.0796-.42s.803-.167 1.2159-.216c.5227-.06.947-.11 1.2727-.148.3258-.041.5625-.108.7103-.198.1477-.091.2215-.239.2215-.444v-.039c0-.497-.1401-.881-.4204-1.154-.2765-.273-.6894-.409-1.2386-.409-.572 0-1.0228.127-1.3523.381-.3258.25-.5512.528-.6762.835l-1.5965-.364c.1893-.53.4659-.958.8295-1.284.3674-.329.7898-.568 1.267-.716.4773-.151.9792-.227 1.5057-.227.3485 0 .7178.042 1.108.125.3939.08.7613.227 1.1023.443.3446.216.6268.525.8465.926.2197.398.3296.915.3296 1.552v5.795h-1.6591v-1.193h-.0682c-.1098.22-.2746.435-.4943.648-.2197.212-.5019.388-.8466.528s-.7576.21-1.2386.21zm.3693-1.363c.4697 0 .8712-.093 1.2045-.279.3372-.185.5928-.428.7671-.727.178-.303.267-.627.267-.972v-1.125c-.0606.061-.178.118-.3522.171-.1705.049-.3656.093-.5853.13-.2197.034-.4337.067-.642.097-.2084.027-.3826.049-.5227.068-.3296.042-.6307.112-.9035.21-.2689.099-.4848.241-.6477.427-.1591.181-.2386.424-.2386.727 0 .42.1553.738.4659.954.3106.212.7064.319 1.1875.319zm5.9286 1.17v-11.636h1.6989v4.324h.1023c.0985-.182.2405-.393.4261-.631.1856-.239.4432-.447.7727-.625.3296-.182.7652-.273 1.3069-.273.7045 0 1.3333.178 1.8863.534s.9868.869 1.3012 1.54c.3181.67.4772 1.477.4772 2.42 0 .944-.1572 1.752-.4716 2.427-.3144.67-.7462 1.187-1.2954 1.551-.5493.36-1.1762.539-1.8807.539-.5303 0-.964-.089-1.3011-.267-.3334-.178-.5947-.386-.7841-.625-.1894-.238-.3353-.45-.4375-.636h-.1421v1.358zm1.6648-4.364c0 .614.089 1.152.2671 1.614.178.462.4356.824.7727 1.085.3371.258.75.387 1.2386.387.5076 0 .9318-.135 1.2727-.404.341-.273.5985-.642.7728-1.108.178-.466.267-.99.267-1.574 0-.575-.0871-1.092-.2613-1.551-.1705-.458-.4281-.82-.7728-1.085-.3409-.265-.767-.398-1.2784-.398-.4924 0-.9091.127-1.25.381-.3371.254-.5928.608-.767 1.062-.1743.455-.2614.985-.2614 1.591zm11.5679 4.54c-.8599 0-1.6004-.184-2.2216-.551-.6175-.371-1.0947-.892-1.4318-1.563-.3334-.674-.5-1.464-.5-2.369 0-.894.1666-1.682.5-2.363.3371-.682.8068-1.214 1.409-1.597.6061-.383 1.3144-.574 2.125-.574.4925 0 .9697.082 1.4319.244.4621.163.8769.419 1.2443.767.3674.349.6572.802.8693 1.358.2121.553.3182 1.226.3182 2.017v.603h-6.9375v-1.273h5.2727c0-.447-.0909-.843-.2727-1.187-.1818-.349-.4375-.624-.7671-.824-.3257-.201-.7083-.302-1.1477-.302-.4773 0-.8939.118-1.25.353-.3523.231-.625.534-.8182.909-.1894.371-.2841.774-.2841 1.21v.994c0 .584.1023 1.08.3069 1.489.2083.409.4981.722.8693.938.3712.212.8049.318 1.3011.318.322 0 .6155-.046.8807-.137.2651-.094.4943-.234.6875-.42s.3409-.415.4432-.688l1.6079.29c-.1288.474-.3598.888-.6932 1.244-.3295.353-.7443.627-1.2443.824-.4962.194-1.0625.29-1.6988.29zm6.9201-11.812v11.636h-1.6989v-11.636z" fill="#262626"/><path d="m57.4091 306v-11.636h3.9318c.9129 0 1.6591.164 2.2386.494.5834.326 1.0152.767 1.2955 1.324s.4205 1.178.4205 1.863c0 .686-.1402 1.309-.4205 1.87-.2765.56-.7045 1.007-1.2841 1.341-.5795.329-1.322.494-2.2273.494h-2.8181v-1.25h2.7727c.625 0 1.1269-.108 1.5057-.324s.6534-.507.8238-.875c.1743-.371.2614-.79.2614-1.256 0-.465-.0871-.882-.2614-1.25-.1704-.367-.4469-.655-.8295-.863-.3826-.212-.8902-.318-1.5227-.318h-2.4773v10.386zm11.2353-11.636v11.636h-1.3409v-11.636zm4.9442 11.841c-.5531 0-1.0549-.105-1.5057-.313-.4508-.212-.8087-.517-1.0739-.915-.2651-.401-.3977-.886-.3977-1.454 0-.5.0985-.906.2955-1.216.1969-.315.4602-.561.7897-.739.3296-.178.6932-.31 1.0909-.398.4016-.09.805-.162 1.2103-.215.5303-.069.9602-.12 1.2897-.154.3334-.038.5758-.1.7273-.187.1553-.087.233-.239.233-.455v-.045c0-.561-.1534-.997-.4603-1.307-.303-.311-.7632-.466-1.3806-.466-.6402 0-1.1421.14-1.5057.42-.3637.281-.6193.58-.7671.898l-1.2727-.454c.2273-.531.5303-.944.9091-1.239.3826-.299.7992-.508 1.25-.625.4545-.121.9015-.182 1.3409-.182.2803 0 .6023.034.9659.102.3674.065.7216.199 1.0625.404.3447.204.6307.513.858.926.2272.413.3409.966.3409 1.659v5.75h-1.3409v-1.182h-.0682c-.0909.19-.2424.392-.4546.608-.2121.216-.4943.4-.8465.551-.3523.152-.7822.228-1.2898.228zm.2045-1.205c.5303 0 .9773-.104 1.3409-.312.3675-.209.644-.478.8296-.807.1894-.33.2841-.676.2841-1.04v-1.227c-.0568.068-.1818.13-.375.187-.1894.053-.4091.101-.6591.142-.2462.038-.4868.072-.7216.102-.2311.027-.4186.05-.5625.069-.3485.045-.6743.119-.9773.221-.2992.099-.5417.248-.7273.449-.1818.197-.2727.466-.2727.807 0 .466.1724.818.5171 1.057.3484.235.7897.352 1.3238.352zm9.7084 1.182c-.8182 0-1.5227-.193-2.1137-.58-.5909-.386-1.0454-.918-1.3636-1.596s-.4773-1.453-.4773-2.324c0-.887.1629-1.669.4887-2.347.3295-.682.7878-1.214 1.375-1.596.5909-.387 1.2803-.58 2.0682-.58.6136 0 1.1666.114 1.659.341.4925.227.8959.545 1.2103.955.3144.409.5094.886.5852 1.431h-1.3409c-.1023-.397-.3296-.75-.6818-1.056-.3485-.311-.8182-.466-1.4091-.466-.5227 0-.9811.136-1.375.409-.3902.269-.6951.649-.9148 1.142-.2159.488-.3239 1.062-.3239 1.721 0 .675.1061 1.262.3182 1.762.2159.5.519.888.9091 1.164.394.277.8561.415 1.3864.415.3485 0 .6648-.06.9488-.182.2841-.121.5247-.295.7216-.522.197-.228.3372-.5.4205-.818h1.3409c-.0758.515-.2633.979-.5625 1.392-.2955.409-.6875.734-1.1761.977-.4849.238-1.0493.358-1.6932.358zm8.9711 0c-.8409 0-1.5663-.186-2.1761-.557-.6061-.375-1.0739-.898-1.4034-1.568-.3258-.674-.4887-1.459-.4887-2.352 0-.894.1629-1.682.4887-2.364.3295-.686.7878-1.22 1.375-1.602.5909-.387 1.2803-.58 2.0682-.58.4545 0 .9034.076 1.3465.227.4432.152.8466.398 1.2103.739.3636.337.6534.784.8693 1.341s.3239 1.242.3239 2.057v.568h-6.7273v-1.159h5.3636c0-.493-.0985-.932-.2954-1.318-.1932-.387-.4697-.692-.8296-.915-.356-.224-.7765-.335-1.2613-.335-.5341 0-.9963.132-1.3864.397-.3864.262-.6837.603-.8921 1.023-.2083.421-.3125.871-.3125 1.352v.773c0 .659.1137 1.218.341 1.676.231.455.5511.801.9602 1.04.4091.235.8844.352 1.4261.352.3523 0 .6705-.049.9546-.147.2878-.103.5359-.254.7443-.455.2083-.205.3693-.458.4829-.761l1.2955.363c-.1364.44-.3655.826-.6875 1.159-.322.33-.7197.587-1.1932.773-.4735.182-1.0057.273-1.5966.273zm6.9143-5.432v5.25h-1.3409v-11.636h1.3409v4.272h.1137c.2045-.45.5114-.808.9204-1.074.413-.268.962-.403 1.648-.403.594 0 1.115.119 1.562.358.447.235.794.597 1.04 1.085.25.485.375 1.103.375 1.853v5.545h-1.341v-5.455c0-.693-.18-1.229-.54-1.607-.356-.383-.85-.574-1.483-.574-.439 0-.833.092-1.181.278-.345.186-.6179.456-.8186.813-.197.356-.2955.787-.2955 1.295zm11.5781 5.432c-.788 0-1.48-.188-2.074-.563-.591-.375-1.053-.899-1.387-1.574-.329-.674-.494-1.462-.494-2.363 0-.909.165-1.703.494-2.381.334-.678.796-1.204 1.387-1.579.594-.375 1.286-.563 2.074-.563.787 0 1.477.188 2.068.563.594.375 1.057.901 1.386 1.579.333.678.5 1.472.5 2.381 0 .901-.167 1.689-.5 2.363-.329.675-.792 1.199-1.386 1.574-.591.375-1.281.563-2.068.563zm0-1.205c.598 0 1.091-.153 1.477-.46s.672-.71.858-1.21c.185-.5.278-1.042.278-1.625 0-.584-.093-1.127-.278-1.631-.186-.504-.472-.911-.858-1.221-.386-.311-.879-.466-1.477-.466-.599 0-1.091.155-1.478.466-.386.31-.672.717-.858 1.221-.185.504-.278 1.047-.278 1.631 0 .583.093 1.125.278 1.625.186.5.472.903.858 1.21.387.307.879.46 1.478.46zm7.262-10.613v11.636h-1.341v-11.636zm5.671 11.818c-.727 0-1.369-.184-1.926-.551-.557-.372-.992-.894-1.307-1.569-.314-.678-.471-1.479-.471-2.403 0-.917.157-1.712.471-2.386.315-.675.752-1.195 1.313-1.563.561-.367 1.208-.551 1.943-.551.568 0 1.017.095 1.347.284.333.186.587.398.761.637.178.234.316.428.415.579h.113v-4.295h1.341v11.636h-1.295v-1.341h-.159c-.099.159-.239.36-.421.602-.181.239-.441.453-.778.642-.337.186-.786.279-1.347.279zm.182-1.205c.538 0 .993-.14 1.364-.42.371-.284.653-.676.846-1.176.194-.504.29-1.086.29-1.745 0-.651-.095-1.221-.284-1.71-.189-.492-.47-.875-.841-1.148-.371-.276-.829-.414-1.375-.414-.568 0-1.041.145-1.42.437-.375.288-.657.68-.847 1.176-.185.493-.278 1.046-.278 1.659 0 .622.094 1.186.284 1.694.193.503.477.905.852 1.204.379.296.849.443 1.409.443zm10.039 1.205c-.84 0-1.566-.186-2.176-.557-.606-.375-1.074-.898-1.403-1.568-.326-.674-.489-1.459-.489-2.352 0-.894.163-1.682.489-2.364.329-.686.788-1.22 1.375-1.602.591-.387 1.28-.58 2.068-.58.455 0 .904.076 1.347.227.443.152.846.398 1.21.739.364.337.653.784.869 1.341s.324 1.242.324 2.057v.568h-6.727v-1.159h5.363c0-.493-.098-.932-.295-1.318-.193-.387-.47-.692-.83-.915-.356-.224-.776-.335-1.261-.335-.534 0-.996.132-1.386.397-.387.262-.684.603-.892 1.023-.209.421-.313.871-.313 1.352v.773c0 .659.114 1.218.341 1.676.231.455.551.801.96 1.04.409.235.885.352 1.426.352.353 0 .671-.049.955-.147.288-.103.536-.254.744-.455.209-.205.37-.458.483-.761l1.296.363c-.137.44-.366.826-.688 1.159-.322.33-.719.587-1.193.773-.473.182-1.006.273-1.597.273zm5.574-.182v-8.727h1.295v1.318h.091c.159-.432.447-.782.864-1.051s.886-.404 1.409-.404c.098 0 .222.002.369.006.148.004.26.01.336.017v1.364c-.046-.012-.15-.029-.313-.051-.159-.027-.328-.04-.506-.04-.424 0-.803.089-1.136.267-.33.174-.591.417-.784.727-.189.307-.284.657-.284 1.051v5.523z" fill="#828282"/><rect height="45" rx="3.5" stroke="#f0f0f0" width="342" x="40.5" y="277.5"/><path d="m355.753 303.551 5.65-5.66c.094-.093.168-.203.219-.325s.077-.253.077-.385-.026-.262-.077-.384-.125-.233-.219-.326c-.187-.186-.441-.29-.705-.29s-.518.104-.705.29l-5 4.95-4.95-4.95c-.187-.186-.441-.29-.705-.29s-.518.104-.705.29c-.095.093-.17.204-.221.325-.052.122-.079.253-.079.385 0 .133.027.264.079.386.051.121.126.232.221.324l5.65 5.66c.094.102.207.183.334.238.126.056.263.084.401.084s.275-.028.401-.084c.127-.055.24-.136.334-.238z" fill="#262626"/><g fill="#828282"><path d="m41.233 205v-10.182h1.2329v4.534h5.429v-4.534h1.2329v10.182h-1.2329v-4.554h-5.429v4.554zm10.1341 0v-7.636h1.1733v7.636zm.5966-8.909c-.2287 0-.4259-.078-.5916-.234-.1624-.156-.2436-.343-.2436-.562 0-.218.0812-.406.2436-.561.1657-.156.3629-.234.5916-.234s.4243.078.5867.234c.1657.155.2486.343.2486.561 0 .219-.0829.406-.2486.562-.1624.156-.358.234-.5867.234zm3.829 4.315v4.594h-1.1733v-7.636h1.1335v1.193h.0995c.1789-.388.4507-.7.8153-.935.3646-.238.8352-.358 1.4119-.358.5171 0 .9695.106 1.3573.318.3878.209.6894.527.9048.955.2154.424.3232.961.3232 1.611v4.852h-1.1733v-4.773c0-.6-.1558-1.067-.4674-1.402-.3115-.338-.7391-.507-1.2826-.507-.3746 0-.7093.081-1.0043.244-.2917.162-.522.399-.691.711-.1691.311-.2536.689-.2536 1.133zm10.2672-3.042v.994h-3.9574v-.994zm-2.804-1.83h1.1733v7.278c0 .332.0481.581.1442.746.0994.163.2254.272.3778.328.1558.053.3199.08.4922.08.1293 0 .2353-.007.3182-.02.0829-.017.1491-.03.1989-.04l.2386 1.054c-.0796.03-.1906.06-.3331.09-.1425.033-.3232.049-.5419.049-.3314 0-.6563-.071-.9744-.213-.3149-.143-.5767-.36-.7856-.652-.2054-.291-.3082-.659-.3082-1.103z"/><path d="m41.233 346v-10.182h1.2329v4.534h5.429v-4.534h1.2329v10.182h-1.2329v-4.554h-5.429v4.554zm10.1341 0v-7.636h1.1733v7.636zm.5966-8.909c-.2287 0-.4259-.078-.5916-.234-.1624-.156-.2436-.343-.2436-.562 0-.218.0812-.406.2436-.561.1657-.156.3629-.234.5916-.234s.4243.078.5867.234c.1657.155.2486.343.2486.561 0 .219-.0829.406-.2486.562-.1624.156-.358.234-.5867.234zm3.829 4.315v4.594h-1.1733v-7.636h1.1335v1.193h.0995c.1789-.388.4507-.7.8153-.935.3646-.238.8352-.358 1.4119-.358.5171 0 .9695.106 1.3573.318.3878.209.6894.527.9048.955.2154.424.3232.961.3232 1.611v4.852h-1.1733v-4.773c0-.6-.1558-1.067-.4674-1.402-.3115-.338-.7391-.507-1.2826-.507-.3746 0-.7093.081-1.0043.244-.2917.162-.522.399-.691.711-.1691.311-.2536.689-.2536 1.133zm10.2672-3.042v.994h-3.9574v-.994zm-2.804-1.83h1.1733v7.278c0 .332.0481.581.1442.746.0994.163.2254.272.3778.328.1558.053.3199.08.4922.08.1293 0 .2353-.007.3182-.02.0829-.017.1491-.03.1989-.04l.2386 1.054c-.0796.03-.1906.06-.3331.09-.1425.033-.3232.049-.5419.049-.3314 0-.6563-.071-.9744-.213-.3149-.143-.5767-.36-.7856-.652-.2054-.291-.3082-.659-.3082-1.103z"/><path d="m41.233 586v-10.182h1.2329v4.534h5.429v-4.534h1.2329v10.182h-1.2329v-4.554h-5.429v4.554zm10.1341 0v-7.636h1.1733v7.636zm.5966-8.909c-.2287 0-.4259-.078-.5916-.234-.1624-.156-.2436-.343-.2436-.562 0-.218.0812-.406.2436-.561.1657-.156.3629-.234.5916-.234s.4243.078.5867.234c.1657.155.2486.343.2486.561 0 .219-.0829.406-.2486.562-.1624.156-.358.234-.5867.234zm3.829 4.315v4.594h-1.1733v-7.636h1.1335v1.193h.0995c.1789-.388.4507-.7.8153-.935.3646-.238.8352-.358 1.4119-.358.5171 0 .9695.106 1.3573.318.3878.209.6894.527.9048.955.2154.424.3232.961.3232 1.611v4.852h-1.1733v-4.773c0-.6-.1558-1.067-.4674-1.402-.3115-.338-.7391-.507-1.2826-.507-.3746 0-.7093.081-1.0043.244-.2917.162-.522.399-.691.711-.1691.311-.2536.689-.2536 1.133zm10.2672-3.042v.994h-3.9574v-.994zm-2.804-1.83h1.1733v7.278c0 .332.0481.581.1442.746.0994.163.2254.272.3778.328.1558.053.3199.08.4922.08.1293 0 .2353-.007.3182-.02.0829-.017.1491-.03.1989-.04l.2386 1.054c-.0796.03-.1906.06-.3331.09-.1425.033-.3232.049-.5419.049-.3314 0-.6563-.071-.9744-.213-.3149-.143-.5767-.36-.7856-.652-.2054-.291-.3082-.659-.3082-1.103z"/></g><path d="m431.278 129v-11.636h1.756v10.125h5.273v1.511zm11.027.193c-.553 0-1.053-.102-1.5-.307-.447-.208-.801-.509-1.062-.903-.258-.394-.387-.877-.387-1.449 0-.492.095-.898.284-1.216.19-.318.445-.57.767-.756.322-.185.682-.325 1.08-.42s.803-.167 1.216-.216c.523-.06.947-.11 1.273-.148.325-.041.562-.108.71-.198.147-.091.221-.239.221-.444v-.039c0-.497-.14-.881-.42-1.154-.277-.273-.69-.409-1.239-.409-.572 0-1.022.127-1.352.381-.326.25-.551.528-.676.835l-1.597-.364c.19-.53.466-.958.83-1.284.367-.329.79-.568 1.267-.716.477-.151.979-.227 1.506-.227.348 0 .717.042 1.107.125.394.08.762.227 1.103.443.344.216.627.525.846.926.22.398.33.915.33 1.552v5.795h-1.659v-1.193h-.068c-.11.22-.275.435-.495.648-.219.212-.502.388-.846.528-.345.14-.758.21-1.239.21zm.369-1.363c.47 0 .872-.093 1.205-.279.337-.185.593-.428.767-.727.178-.303.267-.627.267-.972v-1.125c-.061.061-.178.118-.352.171-.171.049-.366.093-.585.13-.22.034-.434.067-.643.097-.208.027-.382.049-.522.068-.33.042-.631.112-.904.21-.269.099-.485.241-.647.427-.159.181-.239.424-.239.727 0 .42.155.738.466.954.31.212.706.319 1.187.319zm5.929 1.17v-11.636h1.699v4.324h.102c.099-.182.241-.393.426-.631.186-.239.443-.447.773-.625.33-.182.765-.273 1.307-.273.704 0 1.333.178 1.886.534s.987.869 1.301 1.54c.319.67.478 1.477.478 2.42 0 .944-.158 1.752-.472 2.427-.314.67-.746 1.187-1.295 1.551-.55.36-1.177.539-1.881.539-.53 0-.964-.089-1.301-.267-.334-.178-.595-.386-.784-.625-.19-.238-.336-.45-.438-.636h-.142v1.358zm1.665-4.364c0 .614.089 1.152.267 1.614s.435.824.773 1.085c.337.258.75.387 1.238.387.508 0 .932-.135 1.273-.404.341-.273.598-.642.773-1.108.178-.466.267-.99.267-1.574 0-.575-.087-1.092-.262-1.551-.17-.458-.428-.82-.772-1.085-.341-.265-.767-.398-1.279-.398-.492 0-.909.127-1.25.381-.337.254-.593.608-.767 1.062-.174.455-.261.985-.261 1.591zm11.568 4.54c-.86 0-1.601-.184-2.222-.551-.617-.371-1.095-.892-1.432-1.563-.333-.674-.5-1.464-.5-2.369 0-.894.167-1.682.5-2.363.337-.682.807-1.214 1.409-1.597.606-.383 1.315-.574 2.125-.574.493 0 .97.082 1.432.244.462.163.877.419 1.244.767.368.349.658.802.87 1.358.212.553.318 1.226.318 2.017v.603h-6.938v-1.273h5.273c0-.447-.091-.843-.273-1.187-.181-.349-.437-.624-.767-.824-.325-.201-.708-.302-1.147-.302-.478 0-.894.118-1.25.353-.353.231-.625.534-.818.909-.19.371-.285.774-.285 1.21v.994c0 .584.103 1.08.307 1.489.209.409.498.722.87.938.371.212.804.318 1.301.318.322 0 .615-.046.88-.137.266-.094.495-.234.688-.42s.341-.415.443-.688l1.608.29c-.129.474-.36.888-.693 1.244-.33.353-.744.627-1.244.824-.497.194-1.063.29-1.699.29zm6.92-11.812v11.636h-1.699v-11.636z" fill="#262626"/><path d="m449.182 154.614v19.136h-1.137v-19.136z" fill="#262626"/><rect height="45" rx="3.5" stroke="#5600af" width="342" x="430.5" y="141.5"/><path d="m433.278 424v-11.636h1.756v10.125h5.273v1.511zm11.027.193c-.553 0-1.053-.102-1.5-.307-.447-.208-.801-.509-1.062-.903-.258-.394-.387-.877-.387-1.449 0-.492.095-.898.284-1.216.19-.318.445-.57.767-.756.322-.185.682-.325 1.08-.42s.803-.167 1.216-.216c.523-.06.947-.11 1.273-.148.325-.041.562-.108.71-.198.147-.091.221-.239.221-.444v-.039c0-.497-.14-.881-.42-1.154-.277-.273-.69-.409-1.239-.409-.572 0-1.022.127-1.352.381-.326.25-.551.528-.676.835l-1.597-.364c.19-.53.466-.958.83-1.284.367-.329.79-.568 1.267-.716.477-.151.979-.227 1.506-.227.348 0 .717.042 1.107.125.394.08.762.227 1.103.443.344.216.627.525.846.926.22.398.33.915.33 1.552v5.795h-1.659v-1.193h-.068c-.11.22-.275.435-.495.648-.219.212-.502.388-.846.528-.345.14-.758.21-1.239.21zm.369-1.363c.47 0 .872-.093 1.205-.279.337-.185.593-.428.767-.727.178-.303.267-.627.267-.972v-1.125c-.061.061-.178.118-.352.171-.171.049-.366.093-.585.13-.22.034-.434.067-.643.097-.208.027-.382.049-.522.068-.33.042-.631.112-.904.21-.269.099-.485.241-.647.427-.159.181-.239.424-.239.727 0 .42.155.738.466.954.31.212.706.319 1.187.319zm5.929 1.17v-11.636h1.699v4.324h.102c.099-.182.241-.393.426-.631.186-.239.443-.447.773-.625.33-.182.765-.273 1.307-.273.704 0 1.333.178 1.886.534s.987.869 1.301 1.54c.319.67.478 1.477.478 2.42 0 .944-.158 1.752-.472 2.427-.314.67-.746 1.187-1.295 1.551-.55.36-1.177.539-1.881.539-.53 0-.964-.089-1.301-.267-.334-.178-.595-.386-.784-.625-.19-.238-.336-.45-.438-.636h-.142v1.358zm1.665-4.364c0 .614.089 1.152.267 1.614s.435.824.773 1.085c.337.258.75.387 1.238.387.508 0 .932-.135 1.273-.404.341-.273.598-.642.773-1.108.178-.466.267-.99.267-1.574 0-.575-.087-1.092-.262-1.551-.17-.458-.428-.82-.772-1.085-.341-.265-.767-.398-1.279-.398-.492 0-.909.127-1.25.381-.337.254-.593.608-.767 1.062-.174.455-.261.985-.261 1.591zm11.568 4.54c-.86 0-1.601-.184-2.222-.551-.617-.371-1.095-.892-1.432-1.563-.333-.674-.5-1.464-.5-2.369 0-.894.167-1.682.5-2.363.337-.682.807-1.214 1.409-1.597.606-.383 1.315-.574 2.125-.574.493 0 .97.082 1.432.244.462.163.877.419 1.244.767.368.349.658.802.87 1.358.212.553.318 1.226.318 2.017v.603h-6.938v-1.273h5.273c0-.447-.091-.843-.273-1.187-.181-.349-.437-.624-.767-.824-.325-.201-.708-.302-1.147-.302-.478 0-.894.118-1.25.353-.353.231-.625.534-.818.909-.19.371-.285.774-.285 1.21v.994c0 .584.103 1.08.307 1.489.209.409.498.722.87.938.371.212.804.318 1.301.318.322 0 .615-.046.88-.137.266-.094.495-.234.688-.42s.341-.415.443-.688l1.608.29c-.129.474-.36.888-.693 1.244-.33.353-.744.627-1.244.824-.497.194-1.063.29-1.699.29zm6.92-11.812v11.636h-1.699v-11.636z" fill="#262626"/><path d="m449.409 465v-11.636h3.932c.913 0 1.659.164 2.239.494.583.326 1.015.767 1.295 1.324s.42 1.178.42 1.863c0 .686-.14 1.309-.42 1.87-.277.56-.705 1.007-1.284 1.341-.58.329-1.322.494-2.227.494h-2.819v-1.25h2.773c.625 0 1.127-.108 1.506-.324s.653-.507.824-.875c.174-.371.261-.79.261-1.256 0-.465-.087-.882-.261-1.25-.171-.367-.447-.655-.83-.863-.382-.212-.89-.318-1.523-.318h-2.477v10.386zm11.235-11.636v11.636h-1.34v-11.636zm4.945 11.841c-.553 0-1.055-.105-1.506-.313-.451-.212-.809-.517-1.074-.915-.265-.401-.398-.886-.398-1.454 0-.5.099-.906.296-1.216.197-.315.46-.561.79-.739.329-.178.693-.31 1.09-.398.402-.09.805-.162 1.211-.215.53-.069.96-.12 1.289-.154.334-.038.576-.1.728-.187.155-.087.233-.239.233-.455v-.045c0-.561-.154-.997-.461-1.307-.303-.311-.763-.466-1.38-.466-.64 0-1.142.14-1.506.42-.364.281-.619.58-.767.898l-1.273-.454c.228-.531.531-.944.909-1.239.383-.299.8-.508 1.25-.625.455-.121.902-.182 1.341-.182.281 0 .603.034.966.102.368.065.722.199 1.063.404.344.204.63.513.858.926.227.413.341.966.341 1.659v5.75h-1.341v-1.182h-.069c-.09.19-.242.392-.454.608s-.494.4-.847.551c-.352.152-.782.228-1.289.228zm.204-1.205c.53 0 .977-.104 1.341-.312.367-.209.644-.478.83-.807.189-.33.284-.676.284-1.04v-1.227c-.057.068-.182.13-.375.187-.19.053-.409.101-.659.142-.247.038-.487.072-.722.102-.231.027-.419.05-.563.069-.348.045-.674.119-.977.221-.299.099-.541.248-.727.449-.182.197-.273.466-.273.807 0 .466.173.818.517 1.057.349.235.79.352 1.324.352zm9.708 1.182c-.818 0-1.522-.193-2.113-.58-.591-.386-1.046-.918-1.364-1.596s-.477-1.453-.477-2.324c0-.887.163-1.669.489-2.347.329-.682.787-1.214 1.375-1.596.59-.387 1.28-.58 2.068-.58.613 0 1.166.114 1.659.341.492.227.896.545 1.21.955.314.409.51.886.585 1.431h-1.341c-.102-.397-.329-.75-.681-1.056-.349-.311-.819-.466-1.41-.466-.522 0-.981.136-1.375.409-.39.269-.695.649-.914 1.142-.216.488-.324 1.062-.324 1.721 0 .675.106 1.262.318 1.762.216.5.519.888.909 1.164.394.277.856.415 1.386.415.349 0 .665-.06.949-.182.284-.121.525-.295.722-.522.197-.228.337-.5.42-.818h1.341c-.075.515-.263.979-.562 1.392-.296.409-.688.734-1.176.977-.485.238-1.05.358-1.694.358zm8.972 0c-.841 0-1.567-.186-2.177-.557-.606-.375-1.073-.898-1.403-1.568-.326-.674-.489-1.459-.489-2.352 0-.894.163-1.682.489-2.364.33-.686.788-1.22 1.375-1.602.591-.387 1.28-.58 2.068-.58.455 0 .904.076 1.347.227.443.152.846.398 1.21.739.364.337.653.784.869 1.341s.324 1.242.324 2.057v.568h-6.727v-1.159h5.364c0-.493-.099-.932-.296-1.318-.193-.387-.47-.692-.829-.915-.356-.224-.777-.335-1.262-.335-.534 0-.996.132-1.386.397-.386.262-.684.603-.892 1.023-.208.421-.313.871-.313 1.352v.773c0 .659.114 1.218.341 1.676.231.455.551.801.96 1.04.41.235.885.352 1.427.352.352 0 .67-.049.954-.147.288-.103.536-.254.744-.455.209-.205.37-.458.483-.761l1.296.363c-.136.44-.366.826-.688 1.159-.322.33-.719.587-1.193.773-.473.182-1.005.273-1.596.273zm6.914-5.432v5.25h-1.341v-11.636h1.341v4.272h.114c.204-.45.511-.808.92-1.074.413-.268.962-.403 1.648-.403.594 0 1.115.119 1.562.358.447.235.794.597 1.04 1.085.25.485.375 1.103.375 1.853v5.545h-1.341v-5.455c0-.693-.18-1.229-.54-1.607-.356-.383-.85-.574-1.483-.574-.439 0-.833.092-1.181.278-.345.186-.618.456-.819.813-.197.356-.295.787-.295 1.295zm11.578 5.432c-.788 0-1.48-.188-2.074-.563-.591-.375-1.053-.899-1.387-1.574-.329-.674-.494-1.462-.494-2.363 0-.909.165-1.703.494-2.381.334-.678.796-1.204 1.387-1.579.594-.375 1.286-.563 2.074-.563.787 0 1.477.188 2.068.563.594.375 1.057.901 1.386 1.579.333.678.5 1.472.5 2.381 0 .901-.167 1.689-.5 2.363-.329.675-.792 1.199-1.386 1.574-.591.375-1.281.563-2.068.563zm0-1.205c.598 0 1.091-.153 1.477-.46s.672-.71.858-1.21c.185-.5.278-1.042.278-1.625 0-.584-.093-1.127-.278-1.631-.186-.504-.472-.911-.858-1.221-.386-.311-.879-.466-1.477-.466-.599 0-1.091.155-1.478.466-.386.31-.672.717-.858 1.221-.185.504-.278 1.047-.278 1.631 0 .583.093 1.125.278 1.625.186.5.472.903.858 1.21.387.307.879.46 1.478.46zm7.262-10.613v11.636h-1.341v-11.636zm5.671 11.818c-.727 0-1.369-.184-1.926-.551-.557-.372-.992-.894-1.307-1.569-.314-.678-.471-1.479-.471-2.403 0-.917.157-1.712.471-2.386.315-.675.752-1.195 1.313-1.563.561-.367 1.208-.551 1.943-.551.568 0 1.017.095 1.347.284.333.186.587.398.761.637.178.234.316.428.415.579h.113v-4.295h1.341v11.636h-1.295v-1.341h-.159c-.099.159-.239.36-.421.602-.181.239-.441.453-.778.642-.337.186-.786.279-1.347.279zm.182-1.205c.538 0 .993-.14 1.364-.42.371-.284.653-.676.846-1.176.194-.504.29-1.086.29-1.745 0-.651-.095-1.221-.284-1.71-.189-.492-.47-.875-.841-1.148-.371-.276-.829-.414-1.375-.414-.568 0-1.041.145-1.42.437-.375.288-.657.68-.847 1.176-.185.493-.278 1.046-.278 1.659 0 .622.094 1.186.284 1.694.193.503.477.905.852 1.204.379.296.849.443 1.409.443zm10.039 1.205c-.84 0-1.566-.186-2.176-.557-.606-.375-1.074-.898-1.403-1.568-.326-.674-.489-1.459-.489-2.352 0-.894.163-1.682.489-2.364.329-.686.788-1.22 1.375-1.602.591-.387 1.28-.58 2.068-.58.455 0 .904.076 1.347.227.443.152.846.398 1.21.739.364.337.653.784.869 1.341s.324 1.242.324 2.057v.568h-6.727v-1.159h5.363c0-.493-.098-.932-.295-1.318-.193-.387-.47-.692-.83-.915-.356-.224-.776-.335-1.261-.335-.534 0-.996.132-1.386.397-.387.262-.684.603-.892 1.023-.209.421-.313.871-.313 1.352v.773c0 .659.114 1.218.341 1.676.231.455.551.801.96 1.04.409.235.885.352 1.426.352.353 0 .671-.049.955-.147.288-.103.536-.254.744-.455.209-.205.37-.458.483-.761l1.296.363c-.137.44-.366.826-.688 1.159-.322.33-.719.587-1.193.773-.473.182-1.006.273-1.597.273zm5.574-.182v-8.727h1.295v1.318h.091c.159-.432.447-.782.864-1.051s.886-.404 1.409-.404c.098 0 .222.002.369.006.148.004.26.01.336.017v1.364c-.046-.012-.15-.029-.313-.051-.159-.027-.328-.04-.506-.04-.424 0-.803.089-1.136.267-.33.174-.591.417-.784.727-.189.307-.284.657-.284 1.051v5.523z" fill="#828282"/><rect height="126" rx="3.5" stroke="#5600af" width="342" x="432.5" y="436.5"/><path d="m433.278 265v-11.636h1.756v10.125h5.273v1.511zm11.027.193c-.553 0-1.053-.102-1.5-.307-.447-.208-.801-.509-1.062-.903-.258-.394-.387-.877-.387-1.449 0-.492.095-.898.284-1.216.19-.318.445-.57.767-.756.322-.185.682-.325 1.08-.42s.803-.167 1.216-.216c.523-.06.947-.11 1.273-.148.325-.041.562-.108.71-.198.147-.091.221-.239.221-.444v-.039c0-.497-.14-.881-.42-1.154-.277-.273-.69-.409-1.239-.409-.572 0-1.022.127-1.352.381-.326.25-.551.528-.676.835l-1.597-.364c.19-.53.466-.958.83-1.284.367-.329.79-.568 1.267-.716.477-.151.979-.227 1.506-.227.348 0 .717.042 1.107.125.394.08.762.227 1.103.443.344.216.627.525.846.926.22.398.33.915.33 1.552v5.795h-1.659v-1.193h-.068c-.11.22-.275.435-.495.648-.219.212-.502.388-.846.528-.345.14-.758.21-1.239.21zm.369-1.363c.47 0 .872-.093 1.205-.279.337-.185.593-.428.767-.727.178-.303.267-.627.267-.972v-1.125c-.061.061-.178.118-.352.171-.171.049-.366.093-.585.13-.22.034-.434.067-.643.097-.208.027-.382.049-.522.068-.33.042-.631.112-.904.21-.269.099-.485.241-.647.427-.159.181-.239.424-.239.727 0 .42.155.738.466.954.31.212.706.319 1.187.319zm5.929 1.17v-11.636h1.699v4.324h.102c.099-.182.241-.393.426-.631.186-.239.443-.447.773-.625.33-.182.765-.273 1.307-.273.704 0 1.333.178 1.886.534s.987.869 1.301 1.54c.319.67.478 1.477.478 2.42 0 .944-.158 1.752-.472 2.427-.314.67-.746 1.187-1.295 1.551-.55.36-1.177.539-1.881.539-.53 0-.964-.089-1.301-.267-.334-.178-.595-.386-.784-.625-.19-.238-.336-.45-.438-.636h-.142v1.358zm1.665-4.364c0 .614.089 1.152.267 1.614s.435.824.773 1.085c.337.258.75.387 1.238.387.508 0 .932-.135 1.273-.404.341-.273.598-.642.773-1.108.178-.466.267-.99.267-1.574 0-.575-.087-1.092-.262-1.551-.17-.458-.428-.82-.772-1.085-.341-.265-.767-.398-1.279-.398-.492 0-.909.127-1.25.381-.337.254-.593.608-.767 1.062-.174.455-.261.985-.261 1.591zm11.568 4.54c-.86 0-1.601-.184-2.222-.551-.617-.371-1.095-.892-1.432-1.563-.333-.674-.5-1.464-.5-2.369 0-.894.167-1.682.5-2.363.337-.682.807-1.214 1.409-1.597.606-.383 1.315-.574 2.125-.574.493 0 .97.082 1.432.244.462.163.877.419 1.244.767.368.349.658.802.87 1.358.212.553.318 1.226.318 2.017v.603h-6.938v-1.273h5.273c0-.447-.091-.843-.273-1.187-.181-.349-.437-.624-.767-.824-.325-.201-.708-.302-1.147-.302-.478 0-.894.118-1.25.353-.353.231-.625.534-.818.909-.19.371-.285.774-.285 1.21v.994c0 .584.103 1.08.307 1.489.209.409.498.722.87.938.371.212.804.318 1.301.318.322 0 .615-.046.88-.137.266-.094.495-.234.688-.42s.341-.415.443-.688l1.608.29c-.129.474-.36.888-.693 1.244-.33.353-.744.627-1.244.824-.497.194-1.063.29-1.699.29zm6.92-11.812v11.636h-1.699v-11.636z" fill="#262626"/><path d="m451.182 290.614v19.136h-1.137v-19.136z" fill="#262626"/><rect height="45" rx="3.5" stroke="#5600af" width="342" x="432.5" y="277.5"/><path d="m747.753 303.551 5.65-5.66c.094-.093.168-.203.219-.325s.077-.253.077-.385-.026-.262-.077-.384-.125-.233-.219-.326c-.187-.186-.441-.29-.705-.29s-.518.104-.705.29l-5 4.95-4.95-4.95c-.187-.186-.441-.29-.705-.29s-.518.104-.705.29c-.095.093-.17.204-.221.325-.052.122-.079.253-.079.385 0 .133.027.264.079.386.051.121.126.232.221.324l5.65 5.66c.094.102.207.183.334.238.126.056.263.084.401.084s.275-.028.401-.084c.127-.055.24-.136.334-.238z" fill="#262626"/><g fill="#828282"><path d="m433.233 210v-10.182h1.233v4.534h5.429v-4.534h1.233v10.182h-1.233v-4.554h-5.429v4.554zm10.134 0v-7.636h1.173v7.636zm.597-8.909c-.229 0-.426-.078-.592-.234-.162-.156-.243-.343-.243-.562 0-.218.081-.406.243-.561.166-.156.363-.234.592-.234.228 0 .424.078.586.234.166.155.249.343.249.561 0 .219-.083.406-.249.562-.162.156-.358.234-.586.234zm3.829 4.315v4.594h-1.174v-7.636h1.134v1.193h.099c.179-.388.451-.7.816-.935.364-.238.835-.358 1.412-.358.517 0 .969.106 1.357.318.388.209.689.527.905.955.215.424.323.961.323 1.611v4.852h-1.173v-4.773c0-.6-.156-1.067-.468-1.402-.311-.338-.739-.507-1.282-.507-.375 0-.71.081-1.005.244-.291.162-.522.399-.691.711-.169.311-.253.689-.253 1.133zm10.267-3.042v.994h-3.957v-.994zm-2.804-1.83h1.173v7.278c0 .332.048.581.144.746.1.163.226.272.378.328.156.053.32.08.492.08.13 0 .236-.007.319-.02.082-.017.149-.03.198-.04l.239 1.054c-.079.03-.19.06-.333.09-.143.033-.323.049-.542.049-.331 0-.656-.071-.974-.213-.315-.143-.577-.36-.786-.652-.205-.291-.308-.659-.308-1.103z"/><path d="m433.233 346v-10.182h1.233v4.534h5.429v-4.534h1.233v10.182h-1.233v-4.554h-5.429v4.554zm10.134 0v-7.636h1.173v7.636zm.597-8.909c-.229 0-.426-.078-.592-.234-.162-.156-.243-.343-.243-.562 0-.218.081-.406.243-.561.166-.156.363-.234.592-.234.228 0 .424.078.586.234.166.155.249.343.249.561 0 .219-.083.406-.249.562-.162.156-.358.234-.586.234zm3.829 4.315v4.594h-1.174v-7.636h1.134v1.193h.099c.179-.388.451-.7.816-.935.364-.238.835-.358 1.412-.358.517 0 .969.106 1.357.318.388.209.689.527.905.955.215.424.323.961.323 1.611v4.852h-1.173v-4.773c0-.6-.156-1.067-.468-1.402-.311-.338-.739-.507-1.282-.507-.375 0-.71.081-1.005.244-.291.162-.522.399-.691.711-.169.311-.253.689-.253 1.133zm10.267-3.042v.994h-3.957v-.994zm-2.804-1.83h1.173v7.278c0 .332.048.581.144.746.1.163.226.272.378.328.156.053.32.08.492.08.13 0 .236-.007.319-.02.082-.017.149-.03.198-.04l.239 1.054c-.079.03-.19.06-.333.09-.143.033-.323.049-.542.049-.331 0-.656-.071-.974-.213-.315-.143-.577-.36-.786-.652-.205-.291-.308-.659-.308-1.103z"/><path d="m433.233 586v-10.182h1.233v4.534h5.429v-4.534h1.233v10.182h-1.233v-4.554h-5.429v4.554zm10.134 0v-7.636h1.173v7.636zm.597-8.909c-.229 0-.426-.078-.592-.234-.162-.156-.243-.343-.243-.562 0-.218.081-.406.243-.561.166-.156.363-.234.592-.234.228 0 .424.078.586.234.166.155.249.343.249.561 0 .219-.083.406-.249.562-.162.156-.358.234-.586.234zm3.829 4.315v4.594h-1.174v-7.636h1.134v1.193h.099c.179-.388.451-.7.816-.935.364-.238.835-.358 1.412-.358.517 0 .969.106 1.357.318.388.209.689.527.905.955.215.424.323.961.323 1.611v4.852h-1.173v-4.773c0-.6-.156-1.067-.468-1.402-.311-.338-.739-.507-1.282-.507-.375 0-.71.081-1.005.244-.291.162-.522.399-.691.711-.169.311-.253.689-.253 1.133zm10.267-3.042v.994h-3.957v-.994zm-2.804-1.83h1.173v7.278c0 .332.048.581.144.746.1.163.226.272.378.328.156.053.32.08.492.08.13 0 .236-.007.319-.02.082-.017.149-.03.198-.04l.239 1.054c-.079.03-.19.06-.333.09-.143.033-.323.049-.542.049-.331 0-.656-.071-.974-.213-.315-.143-.577-.36-.786-.652-.205-.291-.308-.659-.308-1.103z"/></g><g fill="#262626"><path d="m45.2074 47.5455v17.4545h-3.6904v-17.4545zm6.5987 9.8863v7.5682h-3.6307v-13.0909h3.4603v2.3097h.1534c.2897-.7614.7755-1.3637 1.4573-1.8069.6819-.4488 1.5086-.6733 2.4802-.6733.9091 0 1.7017.1989 2.3778.5966.6761.3978 1.2017.9659 1.5767 1.7046.375.7329.5625 1.6079.5625 2.625v8.3352h-3.6307v-7.6875c.0057-.8011-.1988-1.4261-.6136-1.875-.4148-.4545-.9858-.6818-1.7131-.6818-.4886 0-.9204.1051-1.2954.3153-.3694.2102-.6591.5171-.8694.9205-.2045.3977-.3096.8778-.3153 1.4403zm11.299 12.4773v-18h3.5796v2.1989h.1619c.1591-.3523.3892-.7103.6903-1.0739.3069-.3693.7046-.6761 1.1932-.9205.4943-.25 1.108-.375 1.8409-.375.9546 0 1.8353.25 2.6421.75.8068.4944 1.4517 1.2415 1.9346 2.2415.483.9943.7245 2.2415.7245 3.7415 0 1.4602-.2358 2.6932-.7074 3.6989-.4659 1-1.1023 1.7585-1.9091 2.2755-.8012.5114-1.6989.7671-2.6932.7671-.7045 0-1.304-.1165-1.7983-.3495-.4886-.2329-.8892-.5255-1.2017-.8778-.3125-.358-.5511-.7188-.7159-1.0824h-.1108v7.0057zm3.554-11.4546c0 .7785.1079 1.4574.3239 2.037.2159.5795.5284 1.0312.9375 1.3551.409.3182.9062.4773 1.4914.4773.5909 0 1.0909-.162 1.5-.4858.4091-.3296.7188-.7841.929-1.3637.2159-.5852.3239-1.2585.3239-2.0199 0-.7556-.1051-1.4204-.3154-1.9943-.2102-.5738-.5199-1.0227-.9289-1.3466-.4091-.3238-.912-.4858-1.5086-.4858-.5909 0-1.0909.1563-1.5.4688-.4034.3125-.713.7557-.9289 1.3295-.216.5739-.3239 1.25-.3239 2.0284zm20.0284.9716v-7.517h3.6307v13.0909h-3.4858v-2.3778h-.1364c-.2954.767-.7869 1.3835-1.4744 1.8494-.6818.4659-1.5142.6989-2.4972.6989-.875 0-1.6449-.1989-2.3096-.5966-.6648-.3978-1.1847-.9631-1.5597-1.6961-.3693-.7329-.5568-1.6108-.5625-2.6335v-8.3352h3.6307v7.6875c.0057.7727.2131 1.3835.6222 1.8324.409.4488.9573.6733 1.6448.6733.4375 0 .8466-.0995 1.2273-.2983.3807-.2046.6875-.5057.9205-.9034.2386-.3978.3551-.8892.3494-1.4745zm13.4975-7.517v2.7273h-7.8832v-2.7273zm-6.0934-3.1364h3.6307v12.2046c0 .3352.0511.5966.1534.7841.1023.1818.2443.3096.4261.3835.1875.0738.4035.1108.6478.1108.1704 0 .3409-.0142.5113-.0426.1705-.0341.3012-.0597.3921-.0767l.571 2.7017c-.182.0568-.4375.1221-.767.196-.3296.0795-.7302.1278-1.2017.1449-.875.0341-1.6421-.0824-2.3012-.3495-.6534-.267-1.1619-.6818-1.5255-1.2443-.3637-.5625-.5427-1.2727-.537-2.1307z"/><path d="m823.278 129v-11.636h1.756v10.125h5.273v1.511zm11.027.193c-.553 0-1.053-.102-1.5-.307-.447-.208-.801-.509-1.062-.903-.258-.394-.387-.877-.387-1.449 0-.492.095-.898.284-1.216.19-.318.445-.57.767-.756.322-.185.682-.325 1.08-.42s.803-.167 1.216-.216c.523-.06.947-.11 1.273-.148.325-.041.562-.108.71-.198.147-.091.221-.239.221-.444v-.039c0-.497-.14-.881-.42-1.154-.277-.273-.69-.409-1.239-.409-.572 0-1.022.127-1.352.381-.326.25-.551.528-.676.835l-1.597-.364c.19-.53.466-.958.83-1.284.367-.329.79-.568 1.267-.716.477-.151.979-.227 1.506-.227.348 0 .717.042 1.107.125.394.08.762.227 1.103.443.344.216.627.525.846.926.22.398.33.915.33 1.552v5.795h-1.659v-1.193h-.068c-.11.22-.275.435-.495.648-.219.212-.502.388-.846.528-.345.14-.758.21-1.239.21zm.369-1.363c.47 0 .872-.093 1.205-.279.337-.185.593-.428.767-.727.178-.303.267-.627.267-.972v-1.125c-.061.061-.178.118-.352.171-.171.049-.366.093-.585.13-.22.034-.434.067-.643.097-.208.027-.382.049-.522.068-.33.042-.631.112-.904.21-.269.099-.485.241-.647.427-.159.181-.239.424-.239.727 0 .42.155.738.466.954.31.212.706.319 1.187.319zm5.929 1.17v-11.636h1.699v4.324h.102c.099-.182.241-.393.426-.631.186-.239.443-.447.773-.625.33-.182.765-.273 1.307-.273.704 0 1.333.178 1.886.534s.987.869 1.301 1.54c.319.67.478 1.477.478 2.42 0 .944-.158 1.752-.472 2.427-.314.67-.746 1.187-1.295 1.551-.55.36-1.177.539-1.881.539-.53 0-.964-.089-1.301-.267-.334-.178-.595-.386-.784-.625-.19-.238-.336-.45-.438-.636h-.142v1.358zm1.665-4.364c0 .614.089 1.152.267 1.614s.435.824.773 1.085c.337.258.75.387 1.238.387.508 0 .932-.135 1.273-.404.341-.273.598-.642.773-1.108.178-.466.267-.99.267-1.574 0-.575-.087-1.092-.262-1.551-.17-.458-.428-.82-.772-1.085-.341-.265-.767-.398-1.279-.398-.492 0-.909.127-1.25.381-.337.254-.593.608-.767 1.062-.174.455-.261.985-.261 1.591zm11.568 4.54c-.86 0-1.601-.184-2.222-.551-.617-.371-1.095-.892-1.432-1.563-.333-.674-.5-1.464-.5-2.369 0-.894.167-1.682.5-2.363.337-.682.807-1.214 1.409-1.597.606-.383 1.315-.574 2.125-.574.493 0 .97.082 1.432.244.462.163.877.419 1.244.767.368.349.658.802.87 1.358.212.553.318 1.226.318 2.017v.603h-6.938v-1.273h5.273c0-.447-.091-.843-.273-1.187-.181-.349-.437-.624-.767-.824-.325-.201-.708-.302-1.147-.302-.478 0-.894.118-1.25.353-.353.231-.625.534-.818.909-.19.371-.285.774-.285 1.21v.994c0 .584.103 1.08.307 1.489.209.409.498.722.87.938.371.212.804.318 1.301.318.322 0 .615-.046.88-.137.266-.094.495-.234.688-.42s.341-.415.443-.688l1.608.29c-.129.474-.36.888-.693 1.244-.33.353-.744.627-1.244.824-.497.194-1.063.29-1.699.29zm6.92-11.812v11.636h-1.699v-11.636z"/><path d="m838.773 159.614v-1.25h8.727v1.25h-3.659v10.386h-1.409v-10.386zm13.033 10.568c-.841 0-1.566-.186-2.176-.557-.606-.375-1.074-.898-1.403-1.568-.326-.674-.489-1.459-.489-2.352 0-.894.163-1.682.489-2.364.329-.686.788-1.22 1.375-1.602.591-.387 1.28-.58 2.068-.58.455 0 .903.076 1.347.227.443.152.846.398 1.21.739.363.337.653.784.869 1.341s.324 1.242.324 2.057v.568h-6.727v-1.159h5.363c0-.493-.098-.932-.295-1.318-.193-.387-.47-.692-.83-.915-.356-.224-.776-.335-1.261-.335-.534 0-.996.132-1.386.397-.387.262-.684.603-.892 1.023-.209.421-.313.871-.313 1.352v.773c0 .659.114 1.218.341 1.676.231.455.551.801.96 1.04.409.235.885.352 1.426.352.353 0 .671-.049.955-.147.288-.103.536-.254.744-.455.209-.205.37-.458.483-.761l1.296.363c-.137.44-.366.826-.688 1.159-.322.33-.72.587-1.193.773-.474.182-1.006.273-1.597.273zm6.339-8.909 2.091 3.568 2.091-3.568h1.546l-2.819 4.363 2.819 4.364h-1.546l-2.091-3.386-2.091 3.386h-1.545l2.773-4.364-2.773-4.363zm11.356 0v1.136h-4.522v-1.136zm-3.204-2.091h1.341v8.318c0 .379.055.663.165.852.113.186.257.311.431.375.178.061.366.091.563.091.148 0 .269-.007.364-.023.094-.018.17-.034.227-.045l.273 1.205c-.091.034-.218.068-.381.102-.163.038-.369.057-.619.057-.379 0-.75-.082-1.114-.245-.36-.163-.659-.411-.898-.744-.235-.333-.352-.754-.352-1.261z"/></g><rect height="45" rx="3.5" stroke="#f0f0f0" width="342" x="822.5" y="141.5"/><path d="m824.278 424v-11.636h1.756v10.125h5.273v1.511zm11.027.193c-.553 0-1.053-.102-1.5-.307-.447-.208-.801-.509-1.062-.903-.258-.394-.387-.877-.387-1.449 0-.492.095-.898.284-1.216.19-.318.445-.57.767-.756.322-.185.682-.325 1.08-.42s.803-.167 1.216-.216c.523-.06.947-.11 1.273-.148.325-.041.562-.108.71-.198.147-.091.221-.239.221-.444v-.039c0-.497-.14-.881-.42-1.154-.277-.273-.69-.409-1.239-.409-.572 0-1.022.127-1.352.381-.326.25-.551.528-.676.835l-1.597-.364c.19-.53.466-.958.83-1.284.367-.329.79-.568 1.267-.716.477-.151.979-.227 1.506-.227.348 0 .717.042 1.107.125.394.08.762.227 1.103.443.344.216.627.525.846.926.22.398.33.915.33 1.552v5.795h-1.659v-1.193h-.068c-.11.22-.275.435-.495.648-.219.212-.502.388-.846.528-.345.14-.758.21-1.239.21zm.369-1.363c.47 0 .872-.093 1.205-.279.337-.185.593-.428.767-.727.178-.303.267-.627.267-.972v-1.125c-.061.061-.178.118-.352.171-.171.049-.366.093-.585.13-.22.034-.434.067-.643.097-.208.027-.382.049-.522.068-.33.042-.631.112-.904.21-.269.099-.485.241-.647.427-.159.181-.239.424-.239.727 0 .42.155.738.466.954.31.212.706.319 1.187.319zm5.929 1.17v-11.636h1.699v4.324h.102c.099-.182.241-.393.426-.631.186-.239.443-.447.773-.625.33-.182.765-.273 1.307-.273.704 0 1.333.178 1.886.534s.987.869 1.301 1.54c.319.67.478 1.477.478 2.42 0 .944-.158 1.752-.472 2.427-.314.67-.746 1.187-1.295 1.551-.55.36-1.177.539-1.881.539-.53 0-.964-.089-1.301-.267-.334-.178-.595-.386-.784-.625-.19-.238-.336-.45-.438-.636h-.142v1.358zm1.665-4.364c0 .614.089 1.152.267 1.614s.435.824.773 1.085c.337.258.75.387 1.238.387.508 0 .932-.135 1.273-.404.341-.273.598-.642.773-1.108.178-.466.267-.99.267-1.574 0-.575-.087-1.092-.262-1.551-.17-.458-.428-.82-.772-1.085-.341-.265-.767-.398-1.279-.398-.492 0-.909.127-1.25.381-.337.254-.593.608-.767 1.062-.174.455-.261.985-.261 1.591zm11.568 4.54c-.86 0-1.601-.184-2.222-.551-.617-.371-1.095-.892-1.432-1.563-.333-.674-.5-1.464-.5-2.369 0-.894.167-1.682.5-2.363.337-.682.807-1.214 1.409-1.597.606-.383 1.315-.574 2.125-.574.493 0 .97.082 1.432.244.462.163.877.419 1.244.767.368.349.658.802.87 1.358.212.553.318 1.226.318 2.017v.603h-6.938v-1.273h5.273c0-.447-.091-.843-.273-1.187-.181-.349-.437-.624-.767-.824-.325-.201-.708-.302-1.147-.302-.478 0-.894.118-1.25.353-.353.231-.625.534-.818.909-.19.371-.285.774-.285 1.21v.994c0 .584.103 1.08.307 1.489.209.409.498.722.87.938.371.212.804.318 1.301.318.322 0 .615-.046.88-.137.266-.094.495-.234.688-.42s.341-.415.443-.688l1.608.29c-.129.474-.36.888-.693 1.244-.33.353-.744.627-1.244.824-.497.194-1.063.29-1.699.29zm6.92-11.812v11.636h-1.699v-11.636z" fill="#262626"/><path d="m839.773 454.614v-1.25h8.727v1.25h-3.659v10.386h-1.409v-10.386zm13.033 10.568c-.841 0-1.566-.186-2.176-.557-.606-.375-1.074-.898-1.403-1.568-.326-.674-.489-1.459-.489-2.352 0-.894.163-1.682.489-2.364.329-.686.788-1.22 1.375-1.602.591-.387 1.28-.58 2.068-.58.455 0 .903.076 1.347.227.443.152.846.398 1.21.739.363.337.653.784.869 1.341s.324 1.242.324 2.057v.568h-6.727v-1.159h5.363c0-.493-.098-.932-.295-1.318-.193-.387-.47-.692-.83-.915-.356-.224-.776-.335-1.261-.335-.534 0-.996.132-1.386.397-.387.262-.684.603-.892 1.023-.209.421-.313.871-.313 1.352v.773c0 .659.114 1.218.341 1.676.231.455.551.801.96 1.04.409.235.885.352 1.426.352.353 0 .671-.049.955-.147.288-.103.536-.254.744-.455.209-.205.37-.458.483-.761l1.296.363c-.137.44-.366.826-.688 1.159-.322.33-.72.587-1.193.773-.474.182-1.006.273-1.597.273zm6.339-8.909 2.091 3.568 2.091-3.568h1.546l-2.819 4.363 2.819 4.364h-1.546l-2.091-3.386-2.091 3.386h-1.545l2.773-4.364-2.773-4.363zm11.356 0v1.136h-4.522v-1.136zm-3.204-2.091h1.341v8.318c0 .379.055.663.165.852.113.186.257.311.431.375.178.061.366.091.563.091.148 0 .269-.007.364-.023.094-.018.17-.034.227-.045l.273 1.205c-.091.034-.218.068-.381.102-.163.038-.369.057-.619.057-.379 0-.75-.082-1.114-.245-.36-.163-.659-.411-.898-.744-.235-.333-.352-.754-.352-1.261z" fill="#262626"/><rect height="126" rx="3.5" stroke="#f0f0f0" width="342" x="823.5" y="436.5"/><path d="m824.278 265v-11.636h1.756v10.125h5.273v1.511zm11.027.193c-.553 0-1.053-.102-1.5-.307-.447-.208-.801-.509-1.062-.903-.258-.394-.387-.877-.387-1.449 0-.492.095-.898.284-1.216.19-.318.445-.57.767-.756.322-.185.682-.325 1.08-.42s.803-.167 1.216-.216c.523-.06.947-.11 1.273-.148.325-.041.562-.108.71-.198.147-.091.221-.239.221-.444v-.039c0-.497-.14-.881-.42-1.154-.277-.273-.69-.409-1.239-.409-.572 0-1.022.127-1.352.381-.326.25-.551.528-.676.835l-1.597-.364c.19-.53.466-.958.83-1.284.367-.329.79-.568 1.267-.716.477-.151.979-.227 1.506-.227.348 0 .717.042 1.107.125.394.08.762.227 1.103.443.344.216.627.525.846.926.22.398.33.915.33 1.552v5.795h-1.659v-1.193h-.068c-.11.22-.275.435-.495.648-.219.212-.502.388-.846.528-.345.14-.758.21-1.239.21zm.369-1.363c.47 0 .872-.093 1.205-.279.337-.185.593-.428.767-.727.178-.303.267-.627.267-.972v-1.125c-.061.061-.178.118-.352.171-.171.049-.366.093-.585.13-.22.034-.434.067-.643.097-.208.027-.382.049-.522.068-.33.042-.631.112-.904.21-.269.099-.485.241-.647.427-.159.181-.239.424-.239.727 0 .42.155.738.466.954.31.212.706.319 1.187.319zm5.929 1.17v-11.636h1.699v4.324h.102c.099-.182.241-.393.426-.631.186-.239.443-.447.773-.625.33-.182.765-.273 1.307-.273.704 0 1.333.178 1.886.534s.987.869 1.301 1.54c.319.67.478 1.477.478 2.42 0 .944-.158 1.752-.472 2.427-.314.67-.746 1.187-1.295 1.551-.55.36-1.177.539-1.881.539-.53 0-.964-.089-1.301-.267-.334-.178-.595-.386-.784-.625-.19-.238-.336-.45-.438-.636h-.142v1.358zm1.665-4.364c0 .614.089 1.152.267 1.614s.435.824.773 1.085c.337.258.75.387 1.238.387.508 0 .932-.135 1.273-.404.341-.273.598-.642.773-1.108.178-.466.267-.99.267-1.574 0-.575-.087-1.092-.262-1.551-.17-.458-.428-.82-.772-1.085-.341-.265-.767-.398-1.279-.398-.492 0-.909.127-1.25.381-.337.254-.593.608-.767 1.062-.174.455-.261.985-.261 1.591zm11.568 4.54c-.86 0-1.601-.184-2.222-.551-.617-.371-1.095-.892-1.432-1.563-.333-.674-.5-1.464-.5-2.369 0-.894.167-1.682.5-2.363.337-.682.807-1.214 1.409-1.597.606-.383 1.315-.574 2.125-.574.493 0 .97.082 1.432.244.462.163.877.419 1.244.767.368.349.658.802.87 1.358.212.553.318 1.226.318 2.017v.603h-6.938v-1.273h5.273c0-.447-.091-.843-.273-1.187-.181-.349-.437-.624-.767-.824-.325-.201-.708-.302-1.147-.302-.478 0-.894.118-1.25.353-.353.231-.625.534-.818.909-.19.371-.285.774-.285 1.21v.994c0 .584.103 1.08.307 1.489.209.409.498.722.87.938.371.212.804.318 1.301.318.322 0 .615-.046.88-.137.266-.094.495-.234.688-.42s.341-.415.443-.688l1.608.29c-.129.474-.36.888-.693 1.244-.33.353-.744.627-1.244.824-.497.194-1.063.29-1.699.29zm6.92-11.812v11.636h-1.699v-11.636z" fill="#262626"/><path d="m839.773 295.614v-1.25h8.727v1.25h-3.659v10.386h-1.409v-10.386zm13.033 10.568c-.841 0-1.566-.186-2.176-.557-.606-.375-1.074-.898-1.403-1.568-.326-.674-.489-1.459-.489-2.352 0-.894.163-1.682.489-2.364.329-.686.788-1.22 1.375-1.602.591-.387 1.28-.58 2.068-.58.455 0 .903.076 1.347.227.443.152.846.398 1.21.739.363.337.653.784.869 1.341s.324 1.242.324 2.057v.568h-6.727v-1.159h5.363c0-.493-.098-.932-.295-1.318-.193-.387-.47-.692-.83-.915-.356-.224-.776-.335-1.261-.335-.534 0-.996.132-1.386.397-.387.262-.684.603-.892 1.023-.209.421-.313.871-.313 1.352v.773c0 .659.114 1.218.341 1.676.231.455.551.801.96 1.04.409.235.885.352 1.426.352.353 0 .671-.049.955-.147.288-.103.536-.254.744-.455.209-.205.37-.458.483-.761l1.296.363c-.137.44-.366.826-.688 1.159-.322.33-.72.587-1.193.773-.474.182-1.006.273-1.597.273zm6.339-8.909 2.091 3.568 2.091-3.568h1.546l-2.819 4.363 2.819 4.364h-1.546l-2.091-3.386-2.091 3.386h-1.545l2.773-4.364-2.773-4.363zm11.356 0v1.136h-4.522v-1.136zm-3.204-2.091h1.341v8.318c0 .379.055.663.165.852.113.186.257.311.431.375.178.061.366.091.563.091.148 0 .269-.007.364-.023.094-.018.17-.034.227-.045l.273 1.205c-.091.034-.218.068-.381.102-.163.038-.369.057-.619.057-.379 0-.75-.082-1.114-.245-.36-.163-.659-.411-.898-.744-.235-.333-.352-.754-.352-1.261z" fill="#262626"/><rect height="45" rx="3.5" stroke="#f0f0f0" width="342" x="823.5" y="277.5"/><path d="m1138.75 303.551 5.65-5.66c.1-.093.17-.203.22-.325s.08-.253.08-.385-.03-.262-.08-.384-.12-.233-.22-.326c-.18-.186-.44-.29-.7-.29-.27 0-.52.104-.71.29l-5 4.95-4.95-4.95c-.18-.186-.44-.29-.7-.29-.27 0-.52.104-.71.29-.09.093-.17.204-.22.325-.05.122-.08.253-.08.385 0 .133.03.264.08.386.05.121.13.232.22.324l5.65 5.66c.1.102.21.183.34.238.12.056.26.084.4.084s.27-.028.4-.084c.13-.055.24-.136.33-.238z" fill="#262626"/><path d="m823.233 205v-10.182h1.233v4.534h5.429v-4.534h1.233v10.182h-1.233v-4.554h-5.429v4.554zm10.134 0v-7.636h1.173v7.636zm.597-8.909c-.229 0-.426-.078-.592-.234-.162-.156-.243-.343-.243-.562 0-.218.081-.406.243-.561.166-.156.363-.234.592-.234.228 0 .424.078.586.234.166.155.249.343.249.561 0 .219-.083.406-.249.562-.162.156-.358.234-.586.234zm3.829 4.315v4.594h-1.174v-7.636h1.134v1.193h.099c.179-.388.451-.7.816-.935.364-.238.835-.358 1.412-.358.517 0 .969.106 1.357.318.388.209.689.527.905.955.215.424.323.961.323 1.611v4.852h-1.173v-4.773c0-.6-.156-1.067-.468-1.402-.311-.338-.739-.507-1.282-.507-.375 0-.71.081-1.005.244-.291.162-.522.399-.691.711-.169.311-.253.689-.253 1.133zm10.267-3.042v.994h-3.957v-.994zm-2.804-1.83h1.173v7.278c0 .332.048.581.144.746.1.163.226.272.378.328.156.053.32.08.492.08.13 0 .236-.007.319-.02.082-.017.149-.03.198-.04l.239 1.054c-.079.03-.19.06-.333.09-.143.033-.323.049-.542.049-.331 0-.656-.071-.974-.213-.315-.143-.577-.36-.786-.652-.205-.291-.308-.659-.308-1.103z" fill="#828282"/><path d="m824.233 346v-10.182h1.233v4.534h5.429v-4.534h1.233v10.182h-1.233v-4.554h-5.429v4.554zm10.134 0v-7.636h1.173v7.636zm.597-8.909c-.229 0-.426-.078-.592-.234-.162-.156-.243-.343-.243-.562 0-.218.081-.406.243-.561.166-.156.363-.234.592-.234.228 0 .424.078.586.234.166.155.249.343.249.561 0 .219-.083.406-.249.562-.162.156-.358.234-.586.234zm3.829 4.315v4.594h-1.174v-7.636h1.134v1.193h.099c.179-.388.451-.7.816-.935.364-.238.835-.358 1.412-.358.517 0 .969.106 1.357.318.388.209.689.527.905.955.215.424.323.961.323 1.611v4.852h-1.173v-4.773c0-.6-.156-1.067-.468-1.402-.311-.338-.739-.507-1.282-.507-.375 0-.71.081-1.005.244-.291.162-.522.399-.691.711-.169.311-.253.689-.253 1.133zm10.267-3.042v.994h-3.957v-.994zm-2.804-1.83h1.173v7.278c0 .332.048.581.144.746.1.163.226.272.378.328.156.053.32.08.492.08.13 0 .236-.007.319-.02.082-.017.149-.03.198-.04l.239 1.054c-.079.03-.19.06-.333.09-.143.033-.323.049-.542.049-.331 0-.656-.071-.974-.213-.315-.143-.577-.36-.786-.652-.205-.291-.308-.659-.308-1.103z" fill="#828282"/><path d="m824.233 586v-10.182h1.233v4.534h5.429v-4.534h1.233v10.182h-1.233v-4.554h-5.429v4.554zm10.134 0v-7.636h1.173v7.636zm.597-8.909c-.229 0-.426-.078-.592-.234-.162-.156-.243-.343-.243-.562 0-.218.081-.406.243-.561.166-.156.363-.234.592-.234.228 0 .424.078.586.234.166.155.249.343.249.561 0 .219-.083.406-.249.562-.162.156-.358.234-.586.234zm3.829 4.315v4.594h-1.174v-7.636h1.134v1.193h.099c.179-.388.451-.7.816-.935.364-.238.835-.358 1.412-.358.517 0 .969.106 1.357.318.388.209.689.527.905.955.215.424.323.961.323 1.611v4.852h-1.173v-4.773c0-.6-.156-1.067-.468-1.402-.311-.338-.739-.507-1.282-.507-.375 0-.71.081-1.005.244-.291.162-.522.399-.691.711-.169.311-.253.689-.253 1.133zm10.267-3.042v.994h-3.957v-.994zm-2.804-1.83h1.173v7.278c0 .332.048.581.144.746.1.163.226.272.378.328.156.053.32.08.492.08.13 0 .236-.007.319-.02.082-.017.149-.03.198-.04l.239 1.054c-.079.03-.19.06-.333.09-.143.033-.323.049-.542.049-.331 0-.656-.071-.974-.213-.315-.143-.577-.36-.786-.652-.205-.291-.308-.659-.308-1.103z" fill="#828282"/><path d="m1214.28 132v-11.636h1.75v10.125h5.28v1.511zm11.03.193c-.56 0-1.06-.102-1.5-.307-.45-.208-.81-.509-1.07-.903s-.38-.877-.38-1.449c0-.492.09-.898.28-1.216s.45-.57.77-.756c.32-.185.68-.325 1.08-.42.39-.095.8-.167 1.21-.216.53-.06.95-.11 1.28-.148.32-.041.56-.108.71-.198.14-.091.22-.239.22-.444v-.039c0-.497-.14-.881-.42-1.154s-.69-.409-1.24-.409c-.57 0-1.02.127-1.35.381-.33.25-.56.528-.68.835l-1.6-.364c.19-.53.47-.958.83-1.284.37-.329.79-.568 1.27-.716.48-.151.98-.227 1.51-.227.34 0 .71.042 1.1.125.4.08.76.227 1.11.443.34.216.62.525.84.926.22.398.33.915.33 1.552v5.795h-1.66v-1.193h-.07c-.11.22-.27.435-.49.648-.22.212-.5.388-.85.528-.34.14-.75.21-1.23.21zm.36-1.363c.47 0 .88-.093 1.21-.279.34-.185.59-.428.77-.727.17-.303.26-.627.26-.972v-1.125c-.06.061-.18.118-.35.171-.17.049-.36.093-.58.13-.22.034-.44.067-.65.097-.2.027-.38.049-.52.068-.33.042-.63.112-.9.21-.27.099-.49.241-.65.427-.16.181-.24.424-.24.727 0 .42.16.738.47.954.31.212.7.319 1.18.319zm5.93 1.17v-11.636h1.7v4.324h.1c.1-.182.24-.393.43-.631.19-.239.44-.447.77-.625.33-.182.77-.273 1.31-.273.7 0 1.33.178 1.89.534.55.356.98.869 1.3 1.54.32.67.47 1.477.47 2.42 0 .944-.15 1.752-.47 2.427-.31.67-.74 1.187-1.29 1.551-.55.36-1.18.539-1.88.539-.53 0-.97-.089-1.3-.267-.34-.178-.6-.386-.79-.625-.19-.238-.33-.45-.44-.636h-.14v1.358zm1.67-4.364c0 .614.09 1.152.26 1.614.18.462.44.824.78 1.085.33.258.75.387 1.24.387.5 0 .93-.135 1.27-.404.34-.273.6-.642.77-1.108.18-.466.27-.99.27-1.574 0-.575-.09-1.092-.26-1.551-.17-.458-.43-.82-.78-1.085-.34-.265-.76-.398-1.27-.398-.5 0-.91.127-1.25.381s-.6.608-.77 1.062c-.18.455-.26.985-.26 1.591zm11.57 4.54c-.86 0-1.6-.184-2.23-.551-.61-.371-1.09-.892-1.43-1.563-.33-.674-.5-1.464-.5-2.369 0-.894.17-1.682.5-2.363.34-.682.81-1.214 1.41-1.597.61-.383 1.32-.574 2.13-.574.49 0 .97.082 1.43.244.46.163.88.419 1.24.767.37.349.66.802.87 1.358.21.553.32 1.226.32 2.017v.603h-6.94v-1.273h5.28c0-.447-.1-.843-.28-1.187-.18-.349-.44-.624-.76-.824-.33-.201-.71-.302-1.15-.302-.48 0-.9.118-1.25.353-.35.231-.63.534-.82.909-.19.371-.28.774-.28 1.21v.994c0 .584.1 1.08.3 1.489.21.409.5.722.87.938.37.212.81.318 1.3.318.32 0 .62-.046.88-.137.27-.094.5-.234.69-.42s.34-.415.44-.688l1.61.29c-.13.474-.36.888-.69 1.244-.33.353-.75.627-1.25.824-.49.194-1.06.29-1.69.29zm6.92-11.812v11.636h-1.7v-11.636z" fill="#262626"/><path d="m1229.77 162.614v-1.25h8.73v1.25h-3.66v10.386h-1.41v-10.386zm13.04 10.568c-.84 0-1.57-.186-2.18-.557-.61-.375-1.07-.898-1.4-1.568-.33-.674-.49-1.459-.49-2.352 0-.894.16-1.682.49-2.364.33-.686.78-1.22 1.37-1.602.59-.387 1.28-.58 2.07-.58.45 0 .9.076 1.35.227.44.152.84.398 1.21.739.36.337.65.784.87 1.341.21.557.32 1.242.32 2.057v.568h-6.73v-1.159h5.37c0-.493-.1-.932-.3-1.318-.19-.387-.47-.692-.83-.915-.35-.224-.78-.335-1.26-.335-.53 0-1 .132-1.39.397-.38.262-.68.603-.89 1.023-.21.421-.31.871-.31 1.352v.773c0 .659.11 1.218.34 1.676.23.455.55.801.96 1.04.41.235.88.352 1.43.352.35 0 .67-.049.95-.147.29-.103.54-.254.75-.455.2-.205.36-.458.48-.761l1.29.363c-.13.44-.36.826-.68 1.159-.33.33-.72.587-1.2.773-.47.182-1 .273-1.59.273zm6.34-8.909 2.09 3.568 2.09-3.568h1.54l-2.82 4.363 2.82 4.364h-1.54l-2.09-3.386-2.09 3.386h-1.55l2.77-4.364-2.77-4.363zm11.35 0v1.136h-4.52v-1.136zm-3.2-2.091h1.34v8.318c0 .379.05.663.16.852.12.186.26.311.43.375.18.061.37.091.57.091.14 0 .27-.007.36-.023.1-.018.17-.034.23-.045l.27 1.205c-.09.034-.22.068-.38.102-.16.038-.37.057-.62.057-.38 0-.75-.082-1.11-.245s-.66-.411-.9-.744-.35-.754-.35-1.261z" fill="#262626"/><rect height="45" rx="3.5" stroke="#fe346e" width="342" x="1213.5" y="144.5"/><path d="m1214.28 424v-11.636h1.75v10.125h5.28v1.511zm11.03.193c-.56 0-1.06-.102-1.5-.307-.45-.208-.81-.509-1.07-.903s-.38-.877-.38-1.449c0-.492.09-.898.28-1.216s.45-.57.77-.756c.32-.185.68-.325 1.08-.42.39-.095.8-.167 1.21-.216.53-.06.95-.11 1.28-.148.32-.041.56-.108.71-.198.14-.091.22-.239.22-.444v-.039c0-.497-.14-.881-.42-1.154s-.69-.409-1.24-.409c-.57 0-1.02.127-1.35.381-.33.25-.56.528-.68.835l-1.6-.364c.19-.53.47-.958.83-1.284.37-.329.79-.568 1.27-.716.48-.151.98-.227 1.51-.227.34 0 .71.042 1.1.125.4.08.76.227 1.11.443.34.216.62.525.84.926.22.398.33.915.33 1.552v5.795h-1.66v-1.193h-.07c-.11.22-.27.435-.49.648-.22.212-.5.388-.85.528-.34.14-.75.21-1.23.21zm.36-1.363c.47 0 .88-.093 1.21-.279.34-.185.59-.428.77-.727.17-.303.26-.627.26-.972v-1.125c-.06.061-.18.118-.35.171-.17.049-.36.093-.58.13-.22.034-.44.067-.65.097-.2.027-.38.049-.52.068-.33.042-.63.112-.9.21-.27.099-.49.241-.65.427-.16.181-.24.424-.24.727 0 .42.16.738.47.954.31.212.7.319 1.18.319zm5.93 1.17v-11.636h1.7v4.324h.1c.1-.182.24-.393.43-.631.19-.239.44-.447.77-.625.33-.182.77-.273 1.31-.273.7 0 1.33.178 1.89.534.55.356.98.869 1.3 1.54.32.67.47 1.477.47 2.42 0 .944-.15 1.752-.47 2.427-.31.67-.74 1.187-1.29 1.551-.55.36-1.18.539-1.88.539-.53 0-.97-.089-1.3-.267-.34-.178-.6-.386-.79-.625-.19-.238-.33-.45-.44-.636h-.14v1.358zm1.67-4.364c0 .614.09 1.152.26 1.614.18.462.44.824.78 1.085.33.258.75.387 1.24.387.5 0 .93-.135 1.27-.404.34-.273.6-.642.77-1.108.18-.466.27-.99.27-1.574 0-.575-.09-1.092-.26-1.551-.17-.458-.43-.82-.78-1.085-.34-.265-.76-.398-1.27-.398-.5 0-.91.127-1.25.381s-.6.608-.77 1.062c-.18.455-.26.985-.26 1.591zm11.57 4.54c-.86 0-1.6-.184-2.23-.551-.61-.371-1.09-.892-1.43-1.563-.33-.674-.5-1.464-.5-2.369 0-.894.17-1.682.5-2.363.34-.682.81-1.214 1.41-1.597.61-.383 1.32-.574 2.13-.574.49 0 .97.082 1.43.244.46.163.88.419 1.24.767.37.349.66.802.87 1.358.21.553.32 1.226.32 2.017v.603h-6.94v-1.273h5.28c0-.447-.1-.843-.28-1.187-.18-.349-.44-.624-.76-.824-.33-.201-.71-.302-1.15-.302-.48 0-.9.118-1.25.353-.35.231-.63.534-.82.909-.19.371-.28.774-.28 1.21v.994c0 .584.1 1.08.3 1.489.21.409.5.722.87.938.37.212.81.318 1.3.318.32 0 .62-.046.88-.137.27-.094.5-.234.69-.42s.34-.415.44-.688l1.61.29c-.13.474-.36.888-.69 1.244-.33.353-.75.627-1.25.824-.49.194-1.06.29-1.69.29zm6.92-11.812v11.636h-1.7v-11.636z" fill="#262626"/><path d="m1229.77 454.614v-1.25h8.73v1.25h-3.66v10.386h-1.41v-10.386zm13.04 10.568c-.84 0-1.57-.186-2.18-.557-.61-.375-1.07-.898-1.4-1.568-.33-.674-.49-1.459-.49-2.352 0-.894.16-1.682.49-2.364.33-.686.78-1.22 1.37-1.602.59-.387 1.28-.58 2.07-.58.45 0 .9.076 1.35.227.44.152.84.398 1.21.739.36.337.65.784.87 1.341.21.557.32 1.242.32 2.057v.568h-6.73v-1.159h5.37c0-.493-.1-.932-.3-1.318-.19-.387-.47-.692-.83-.915-.35-.224-.78-.335-1.26-.335-.53 0-1 .132-1.39.397-.38.262-.68.603-.89 1.023-.21.421-.31.871-.31 1.352v.773c0 .659.11 1.218.34 1.676.23.455.55.801.96 1.04.41.235.88.352 1.43.352.35 0 .67-.049.95-.147.29-.103.54-.254.75-.455.2-.205.36-.458.48-.761l1.29.363c-.13.44-.36.826-.68 1.159-.33.33-.72.587-1.2.773-.47.182-1 .273-1.59.273zm6.34-8.909 2.09 3.568 2.09-3.568h1.54l-2.82 4.363 2.82 4.364h-1.54l-2.09-3.386-2.09 3.386h-1.55l2.77-4.364-2.77-4.363zm11.35 0v1.136h-4.52v-1.136zm-3.2-2.091h1.34v8.318c0 .379.05.663.16.852.12.186.26.311.43.375.18.061.37.091.57.091.14 0 .27-.007.36-.023.1-.018.17-.034.23-.045l.27 1.205c-.09.034-.22.068-.38.102-.16.038-.37.057-.62.057-.38 0-.75-.082-1.11-.245s-.66-.411-.9-.744-.35-.754-.35-1.261z" fill="#262626"/><rect height="126" rx="3.5" stroke="#fe346e" width="342" x="1213.5" y="436.5"/><path d="m1214.28 265v-11.636h1.75v10.125h5.28v1.511zm11.03.193c-.56 0-1.06-.102-1.5-.307-.45-.208-.81-.509-1.07-.903s-.38-.877-.38-1.449c0-.492.09-.898.28-1.216s.45-.57.77-.756c.32-.185.68-.325 1.08-.42.39-.095.8-.167 1.21-.216.53-.06.95-.11 1.28-.148.32-.041.56-.108.71-.198.14-.091.22-.239.22-.444v-.039c0-.497-.14-.881-.42-1.154s-.69-.409-1.24-.409c-.57 0-1.02.127-1.35.381-.33.25-.56.528-.68.835l-1.6-.364c.19-.53.47-.958.83-1.284.37-.329.79-.568 1.27-.716.48-.151.98-.227 1.51-.227.34 0 .71.042 1.1.125.4.08.76.227 1.11.443.34.216.62.525.84.926.22.398.33.915.33 1.552v5.795h-1.66v-1.193h-.07c-.11.22-.27.435-.49.648-.22.212-.5.388-.85.528-.34.14-.75.21-1.23.21zm.36-1.363c.47 0 .88-.093 1.21-.279.34-.185.59-.428.77-.727.17-.303.26-.627.26-.972v-1.125c-.06.061-.18.118-.35.171-.17.049-.36.093-.58.13-.22.034-.44.067-.65.097-.2.027-.38.049-.52.068-.33.042-.63.112-.9.21-.27.099-.49.241-.65.427-.16.181-.24.424-.24.727 0 .42.16.738.47.954.31.212.7.319 1.18.319zm5.93 1.17v-11.636h1.7v4.324h.1c.1-.182.24-.393.43-.631.19-.239.44-.447.77-.625.33-.182.77-.273 1.31-.273.7 0 1.33.178 1.89.534.55.356.98.869 1.3 1.54.32.67.47 1.477.47 2.42 0 .944-.15 1.752-.47 2.427-.31.67-.74 1.187-1.29 1.551-.55.36-1.18.539-1.88.539-.53 0-.97-.089-1.3-.267-.34-.178-.6-.386-.79-.625-.19-.238-.33-.45-.44-.636h-.14v1.358zm1.67-4.364c0 .614.09 1.152.26 1.614.18.462.44.824.78 1.085.33.258.75.387 1.24.387.5 0 .93-.135 1.27-.404.34-.273.6-.642.77-1.108.18-.466.27-.99.27-1.574 0-.575-.09-1.092-.26-1.551-.17-.458-.43-.82-.78-1.085-.34-.265-.76-.398-1.27-.398-.5 0-.91.127-1.25.381s-.6.608-.77 1.062c-.18.455-.26.985-.26 1.591zm11.57 4.54c-.86 0-1.6-.184-2.23-.551-.61-.371-1.09-.892-1.43-1.563-.33-.674-.5-1.464-.5-2.369 0-.894.17-1.682.5-2.363.34-.682.81-1.214 1.41-1.597.61-.383 1.32-.574 2.13-.574.49 0 .97.082 1.43.244.46.163.88.419 1.24.767.37.349.66.802.87 1.358.21.553.32 1.226.32 2.017v.603h-6.94v-1.273h5.28c0-.447-.1-.843-.28-1.187-.18-.349-.44-.624-.76-.824-.33-.201-.71-.302-1.15-.302-.48 0-.9.118-1.25.353-.35.231-.63.534-.82.909-.19.371-.28.774-.28 1.21v.994c0 .584.1 1.08.3 1.489.21.409.5.722.87.938.37.212.81.318 1.3.318.32 0 .62-.046.88-.137.27-.094.5-.234.69-.42s.34-.415.44-.688l1.61.29c-.13.474-.36.888-.69 1.244-.33.353-.75.627-1.25.824-.49.194-1.06.29-1.69.29zm6.92-11.812v11.636h-1.7v-11.636z" fill="#262626"/><path d="m1229.77 295.614v-1.25h8.73v1.25h-3.66v10.386h-1.41v-10.386zm13.04 10.568c-.84 0-1.57-.186-2.18-.557-.61-.375-1.07-.898-1.4-1.568-.33-.674-.49-1.459-.49-2.352 0-.894.16-1.682.49-2.364.33-.686.78-1.22 1.37-1.602.59-.387 1.28-.58 2.07-.58.45 0 .9.076 1.35.227.44.152.84.398 1.21.739.36.337.65.784.87 1.341.21.557.32 1.242.32 2.057v.568h-6.73v-1.159h5.37c0-.493-.1-.932-.3-1.318-.19-.387-.47-.692-.83-.915-.35-.224-.78-.335-1.26-.335-.53 0-1 .132-1.39.397-.38.262-.68.603-.89 1.023-.21.421-.31.871-.31 1.352v.773c0 .659.11 1.218.34 1.676.23.455.55.801.96 1.04.41.235.88.352 1.43.352.35 0 .67-.049.95-.147.29-.103.54-.254.75-.455.2-.205.36-.458.48-.761l1.29.363c-.13.44-.36.826-.68 1.159-.33.33-.72.587-1.2.773-.47.182-1 .273-1.59.273zm6.34-8.909 2.09 3.568 2.09-3.568h1.54l-2.82 4.363 2.82 4.364h-1.54l-2.09-3.386-2.09 3.386h-1.55l2.77-4.364-2.77-4.363zm11.35 0v1.136h-4.52v-1.136zm-3.2-2.091h1.34v8.318c0 .379.05.663.16.852.12.186.26.311.43.375.18.061.37.091.57.091.14 0 .27-.007.36-.023.1-.018.17-.034.23-.045l.27 1.205c-.09.034-.22.068-.38.102-.16.038-.37.057-.62.057-.38 0-.75-.082-1.11-.245s-.66-.411-.9-.744-.35-.754-.35-1.261z" fill="#262626"/><rect height="45" rx="3.5" stroke="#fe346e" width="342" x="1213.5" y="277.5"/><path d="m1528.75 303.551 5.65-5.66c.1-.093.17-.203.22-.325s.08-.253.08-.385-.03-.262-.08-.384-.12-.233-.22-.326c-.18-.186-.44-.29-.7-.29-.27 0-.52.104-.71.29l-5 4.95-4.95-4.95c-.18-.186-.44-.29-.7-.29-.27 0-.52.104-.71.29-.09.093-.17.204-.22.325-.05.122-.08.253-.08.385 0 .133.03.264.08.386.05.121.13.232.22.324l5.65 5.66c.1.102.21.183.34.238.12.056.26.084.4.084s.27-.028.4-.084c.13-.055.24-.136.33-.238z" fill="#262626"/><path d="m1214.23 208v-10.182h1.24v4.534h5.42v-4.534h1.24v10.182h-1.24v-4.554h-5.42v4.554zm10.14 0v-7.636h1.17v7.636zm.59-8.909c-.22 0-.42-.078-.59-.234-.16-.156-.24-.343-.24-.562 0-.218.08-.406.24-.561.17-.156.37-.234.59-.234.23 0 .43.078.59.234.17.155.25.343.25.561 0 .219-.08.406-.25.562-.16.156-.36.234-.59.234zm3.83 4.315v4.594h-1.17v-7.636h1.13v1.193h.1c.18-.388.45-.7.82-.935.36-.238.83-.358 1.41-.358.52 0 .97.106 1.36.318.38.209.69.527.9.955.22.424.32.961.32 1.611v4.852h-1.17v-4.773c0-.6-.15-1.067-.47-1.402-.31-.338-.73-.507-1.28-.507-.37 0-.71.081-1 .244-.29.162-.52.399-.69.711-.17.311-.26.689-.26 1.133zm10.27-3.042v.994h-3.96v-.994zm-2.8-1.83h1.17v7.278c0 .332.05.581.14.746.1.163.23.272.38.328.16.053.32.08.49.08.13 0 .24-.007.32-.02.08-.017.15-.03.2-.04l.24 1.054c-.08.03-.19.06-.33.09-.15.033-.33.049-.55.049-.33 0-.65-.071-.97-.213-.32-.143-.58-.36-.79-.652-.2-.291-.3-.659-.3-1.103z" fill="#fe346e"/><path d="m1214.23 346v-10.182h1.24v4.534h5.42v-4.534h1.24v10.182h-1.24v-4.554h-5.42v4.554zm10.14 0v-7.636h1.17v7.636zm.59-8.909c-.22 0-.42-.078-.59-.234-.16-.156-.24-.343-.24-.562 0-.218.08-.406.24-.561.17-.156.37-.234.59-.234.23 0 .43.078.59.234.17.155.25.343.25.561 0 .219-.08.406-.25.562-.16.156-.36.234-.59.234zm3.83 4.315v4.594h-1.17v-7.636h1.13v1.193h.1c.18-.388.45-.7.82-.935.36-.238.83-.358 1.41-.358.52 0 .97.106 1.36.318.38.209.69.527.9.955.22.424.32.961.32 1.611v4.852h-1.17v-4.773c0-.6-.15-1.067-.47-1.402-.31-.338-.73-.507-1.28-.507-.37 0-.71.081-1 .244-.29.162-.52.399-.69.711-.17.311-.26.689-.26 1.133zm10.27-3.042v.994h-3.96v-.994zm-2.8-1.83h1.17v7.278c0 .332.05.581.14.746.1.163.23.272.38.328.16.053.32.08.49.08.13 0 .24-.007.32-.02.08-.017.15-.03.2-.04l.24 1.054c-.08.03-.19.06-.33.09-.15.033-.33.049-.55.049-.33 0-.65-.071-.97-.213-.32-.143-.58-.36-.79-.652-.2-.291-.3-.659-.3-1.103z" fill="#fe346e"/><path d="m1214.23 586v-10.182h1.24v4.534h5.42v-4.534h1.24v10.182h-1.24v-4.554h-5.42v4.554zm10.14 0v-7.636h1.17v7.636zm.59-8.909c-.22 0-.42-.078-.59-.234-.16-.156-.24-.343-.24-.562 0-.218.08-.406.24-.561.17-.156.37-.234.59-.234.23 0 .43.078.59.234.17.155.25.343.25.561 0 .219-.08.406-.25.562-.16.156-.36.234-.59.234zm3.83 4.315v4.594h-1.17v-7.636h1.13v1.193h.1c.18-.388.45-.7.82-.935.36-.238.83-.358 1.41-.358.52 0 .97.106 1.36.318.38.209.69.527.9.955.22.424.32.961.32 1.611v4.852h-1.17v-4.773c0-.6-.15-1.067-.47-1.402-.31-.338-.73-.507-1.28-.507-.37 0-.71.081-1 .244-.29.162-.52.399-.69.711-.17.311-.26.689-.26 1.133zm10.27-3.042v.994h-3.96v-.994zm-2.8-1.83h1.17v7.278c0 .332.05.581.14.746.1.163.23.272.38.328.16.053.32.08.49.08.13 0 .24-.007.32-.02.08-.017.15-.03.2-.04l.24 1.054c-.08.03-.19.06-.33.09-.15.033-.33.049-.55.049-.33 0-.65-.071-.97-.213-.32-.143-.58-.36-.79-.652-.2-.291-.3-.659-.3-1.103z" fill="#fe346e"/></svg>