<svg fill="none" height="368" viewBox="0 0 779 368" width="779" xmlns="http://www.w3.org/2000/svg"><path d="m0 0h779v368h-779z" fill="#fff"/><rect fill="#fff" height="55" rx="7.5" stroke="#f0f0f0" width="342" x="40.5" y="186.5"/><path d="m57.4091 220v-11.636h1.4091v10.386h5.4091v1.25zm11.3064.205c-.5531 0-1.055-.105-1.5057-.313-.4508-.212-.8087-.517-1.0739-.915-.2651-.401-.3977-.886-.3977-1.454 0-.5.0985-.906.2954-1.216.197-.315.4603-.561.7898-.739.3296-.178.6932-.31 1.0909-.398.4015-.09.8049-.162 1.2102-.215.5303-.069.9603-.12 1.2898-.154.3334-.038.5758-.1.7273-.187.1553-.087.2329-.239.2329-.455v-.045c0-.561-.1534-.997-.4602-1.307-.303-.311-.7632-.466-1.3807-.466-.6401 0-1.142.14-1.5056.42-.3637.281-.6194.58-.7671.898l-1.2727-.454c.2273-.531.5303-.944.9091-1.239.3825-.299.7992-.508 1.25-.625.4545-.121.9015-.182 1.3409-.182.2803 0 .6023.034.9659.102.3674.065.7216.199 1.0625.404.3447.204.6307.513.8579.926.2273.413.341.966.341 1.659v5.75h-1.341v-1.182h-.0681c-.0909.19-.2425.392-.4546.608s-.4943.4-.8466.551c-.3522.152-.7822.228-1.2897.228zm.2045-1.205c.5303 0 .9773-.104 1.3409-.312.3674-.209.6439-.478.8296-.807.1893-.33.284-.676.284-1.04v-1.227c-.0568.068-.1818.13-.375.187-.1893.053-.409.101-.659.142-.2463.038-.4868.072-.7216.102-.2311.027-.4186.05-.5625.069-.3485.045-.6743.119-.9773.221-.2993.099-.5417.248-.7273.449-.1818.197-.2727.466-.2727.807 0 .466.1723.818.517 1.057.3485.235.7898.352 1.3239.352zm6.3447 1v-11.636h1.3409v4.295h.1137c.0984-.151.2348-.345.4091-.579.178-.239.4318-.451.7613-.637.3333-.189.7841-.284 1.3523-.284.7348 0 1.3826.184 1.9432.551.5606.368.9981.888 1.3125 1.563.3144.674.4716 1.469.4716 2.386 0 .924-.1572 1.725-.4716 2.403-.3144.675-.75 1.197-1.3068 1.569-.5569.367-1.1989.551-1.9262.551-.5606 0-1.0095-.093-1.3466-.279-.3371-.189-.5966-.403-.7784-.642-.1818-.242-.322-.443-.4204-.602h-.1591v1.341zm1.3182-4.364c0 .659.0966 1.241.2898 1.745.1932.5.4753.892.8466 1.176.3712.28.8257.42 1.3636.42.5606 0 1.0284-.147 1.4034-.443.3788-.299.6629-.701.8523-1.204.1932-.508.2898-1.072.2898-1.694 0-.613-.0947-1.166-.2841-1.659-.1856-.496-.4678-.888-.8466-1.176-.375-.292-.8466-.437-1.4148-.437-.5455 0-1.0038.138-1.375.414-.3712.273-.6515.656-.8409 1.148-.1894.489-.2841 1.059-.2841 1.71zm12.0166 4.546c-.8409 0-1.5663-.186-2.1761-.557-.6061-.375-1.0739-.898-1.4035-1.568-.3257-.674-.4886-1.459-.4886-2.352 0-.894.1629-1.682.4886-2.364.3296-.686.7879-1.22 1.375-1.602.591-.387 1.2803-.58 2.0682-.58.4546 0 .9034.076 1.3466.227.4432.152.8466.398 1.2102.739.3637.337.6535.784.8694 1.341s.3238 1.242.3238 2.057v.568h-6.7272v-1.159h5.3636c0-.493-.0985-.932-.2955-1.318-.1931-.387-.4697-.692-.8295-.915-.3561-.224-.7765-.335-1.2614-.335-.5341 0-.9962.132-1.3863.397-.3864.262-.6838.603-.8921 1.023-.2083.421-.3125.871-.3125 1.352v.773c0 .659.1137 1.218.3409 1.676.2311.455.5512.801.9603 1.04.409.235.8844.352 1.4261.352.3523 0 .6704-.049.9545-.147.2879-.103.536-.254.7444-.455.2083-.205.3693-.458.4829-.761l1.2955.363c-.1364.44-.3656.826-.6875 1.159-.322.33-.7197.587-1.1932.773-.4735.182-1.0057.273-1.5966.273zm6.9143-11.818v11.636h-1.3409v-11.636z" fill="#262626"/><path d="m366.54 213.29-5.66-5.65c-.093-.094-.204-.168-.325-.219-.122-.051-.253-.077-.385-.077s-.263.026-.385.077c-.121.051-.232.125-.325.219-.186.187-.291.441-.291.705s.105.518.291.705l4.95 5-4.95 4.95c-.186.187-.291.441-.291.705s.105.518.291.705c.093.095.203.17.325.221.122.052.253.078.385.079.132-.001.263-.027.385-.079.122-.051.232-.126.325-.221l5.66-5.65c.101-.094.182-.207.238-.334.055-.126.084-.263.084-.401s-.029-.275-.084-.401c-.056-.127-.137-.24-.238-.334z" fill="#b9b9b9"/><rect fill="#fff" height="55" rx="7.5" stroke="#f0f0f0" width="342" x="396.5" y="186.5"/><path d="m453.409 220v-11.636h1.409v10.386h5.409v1.25zm11.306.205c-.553 0-1.054-.105-1.505-.313-.451-.212-.809-.517-1.074-.915-.265-.401-.398-.886-.398-1.454 0-.5.099-.906.296-1.216.197-.315.46-.561.789-.739.33-.178.694-.31 1.091-.398.402-.09.805-.162 1.211-.215.53-.069.96-.12 1.289-.154.334-.038.576-.1.728-.187.155-.087.233-.239.233-.455v-.045c0-.561-.154-.997-.461-1.307-.303-.311-.763-.466-1.38-.466-.641 0-1.142.14-1.506.42-.364.281-.619.58-.767.898l-1.273-.454c.227-.531.53-.944.909-1.239.383-.299.8-.508 1.25-.625.455-.121.902-.182 1.341-.182.28 0 .602.034.966.102.368.065.722.199 1.063.404.344.204.63.513.858.926.227.413.34.966.34 1.659v5.75h-1.34v-1.182h-.069c-.091.19-.242.392-.454.608s-.494.4-.847.551c-.352.152-.782.228-1.29.228zm.205-1.205c.53 0 .977-.104 1.341-.312.367-.209.644-.478.829-.807.19-.33.285-.676.285-1.04v-1.227c-.057.068-.182.13-.375.187-.19.053-.41.101-.66.142-.246.038-.486.072-.721.102-.231.027-.419.05-.563.069-.348.045-.674.119-.977.221-.299.099-.542.248-.727.449-.182.197-.273.466-.273.807 0 .466.172.818.517 1.057.349.235.79.352 1.324.352zm6.345 1v-11.636h1.341v4.295h.113c.099-.151.235-.345.409-.579.178-.239.432-.451.762-.637.333-.189.784-.284 1.352-.284.735 0 1.383.184 1.943.551.561.368.998.888 1.313 1.563.314.674.471 1.469.471 2.386 0 .924-.157 1.725-.471 2.403-.315.675-.75 1.197-1.307 1.569-.557.367-1.199.551-1.926.551-.561 0-1.01-.093-1.347-.279-.337-.189-.596-.403-.778-.642-.182-.242-.322-.443-.421-.602h-.159v1.341zm1.318-4.364c0 .659.096 1.241.29 1.745.193.5.475.892.846 1.176.371.28.826.42 1.364.42.561 0 1.028-.147 1.403-.443.379-.299.663-.701.853-1.204.193-.508.289-1.072.289-1.694 0-.613-.094-1.166-.284-1.659-.185-.496-.468-.888-.846-1.176-.375-.292-.847-.437-1.415-.437-.546 0-1.004.138-1.375.414-.371.273-.652.656-.841 1.148-.189.489-.284 1.059-.284 1.71zm12.016 4.546c-.84 0-1.566-.186-2.176-.557-.606-.375-1.074-.898-1.403-1.568-.326-.674-.489-1.459-.489-2.352 0-.894.163-1.682.489-2.364.329-.686.788-1.22 1.375-1.602.591-.387 1.28-.58 2.068-.58.455 0 .904.076 1.347.227.443.152.846.398 1.21.739.364.337.653.784.869 1.341s.324 1.242.324 2.057v.568h-6.727v-1.159h5.363c0-.493-.098-.932-.295-1.318-.193-.387-.47-.692-.83-.915-.356-.224-.776-.335-1.261-.335-.534 0-.996.132-1.386.397-.387.262-.684.603-.892 1.023-.209.421-.313.871-.313 1.352v.773c0 .659.114 1.218.341 1.676.231.455.551.801.96 1.04.409.235.885.352 1.426.352.353 0 .671-.049.955-.147.288-.103.536-.254.744-.455.209-.205.37-.458.483-.761l1.296.363c-.137.44-.366.826-.688 1.159-.322.33-.719.587-1.193.773-.473.182-1.006.273-1.597.273zm6.915-11.818v11.636h-1.341v-11.636z" fill="#262626"/><path d="m722.54 213.29-5.66-5.65c-.093-.094-.204-.168-.325-.219-.122-.051-.253-.077-.385-.077s-.263.026-.385.077c-.121.051-.232.125-.325.219-.186.187-.291.441-.291.705s.105.518.291.705l4.95 5-4.95 4.95c-.186.187-.291.441-.291.705s.105.518.291.705c.093.095.203.17.325.221.122.052.253.078.385.079.132-.001.263-.027.385-.079.122-.051.232-.126.325-.221l5.66-5.65c.101-.094.182-.207.238-.334.055-.126.084-.263.084-.401s-.029-.275-.084-.401c-.056-.127-.137-.24-.238-.334z" fill="#b9b9b9"/><path d="m432.16 206.61c-1.062-1.062-2.469-1.708-3.967-1.82-1.497-.112-2.985.318-4.193 1.21-1.272-.946-2.856-1.375-4.432-1.201-1.576.175-3.028.94-4.062 2.142-1.034 1.201-1.575 2.751-1.513 4.335.062 1.585.722 3.087 1.847 4.204l7.45 7.45c.093.094.204.168.325.219.122.051.253.077.385.077s.263-.026.385-.077c.121-.051.232-.125.325-.219l7.45-7.45c.583-.582 1.045-1.274 1.36-2.035.316-.761.478-1.576.478-2.4s-.162-1.639-.478-2.4c-.315-.761-.777-1.453-1.36-2.035zm-1.41 7.46-6.75 6.74-6.75-6.74c-.595-.597-1-1.357-1.165-2.184-.164-.826-.081-1.683.239-2.463s.864-1.447 1.562-1.919c.699-.472 1.521-.728 2.364-.734 1.126.003 2.205.452 3 1.25.093.094.204.168.325.219.122.051.253.077.385.077s.263-.026.385-.077c.121-.051.232-.125.325-.219.818-.709 1.876-1.081 2.958-1.04s2.108.491 2.87 1.26c.763.769 1.205 1.799 1.237 2.881.031 1.083-.349 2.137-1.065 2.949z" fill="#262626"/><rect fill="#fff" height="55" rx="7.5" stroke="#f0f0f0" width="342" x="40.5" y="260.5"/><path d="m57.4091 294v-11.636h1.4091v10.386h5.4091v1.25zm11.3064.205c-.5531 0-1.055-.105-1.5057-.313-.4508-.212-.8087-.517-1.0739-.915-.2651-.401-.3977-.886-.3977-1.454 0-.5.0985-.906.2954-1.216.197-.315.4603-.561.7898-.739.3296-.178.6932-.31 1.0909-.398.4015-.09.8049-.162 1.2102-.215.5303-.069.9603-.12 1.2898-.154.3334-.038.5758-.1.7273-.187.1553-.087.2329-.239.2329-.455v-.045c0-.561-.1534-.997-.4602-1.307-.303-.311-.7632-.466-1.3807-.466-.6401 0-1.142.14-1.5056.42-.3637.281-.6194.58-.7671.898l-1.2727-.454c.2273-.531.5303-.944.9091-1.239.3825-.299.7992-.508 1.25-.625.4545-.121.9015-.182 1.3409-.182.2803 0 .6023.034.9659.102.3674.065.7216.199 1.0625.404.3447.204.6307.513.8579.926.2273.413.341.966.341 1.659v5.75h-1.341v-1.182h-.0681c-.0909.19-.2425.392-.4546.608s-.4943.4-.8466.551c-.3522.152-.7822.228-1.2897.228zm.2045-1.205c.5303 0 .9773-.104 1.3409-.312.3674-.209.6439-.478.8296-.807.1893-.33.284-.676.284-1.04v-1.227c-.0568.068-.1818.13-.375.187-.1893.053-.409.101-.659.142-.2463.038-.4868.072-.7216.102-.2311.027-.4186.05-.5625.069-.3485.045-.6743.119-.9773.221-.2993.099-.5417.248-.7273.449-.1818.197-.2727.466-.2727.807 0 .466.1723.818.517 1.057.3485.235.7898.352 1.3239.352zm6.3447 1v-11.636h1.3409v4.295h.1137c.0984-.151.2348-.345.4091-.579.178-.239.4318-.451.7613-.637.3333-.189.7841-.284 1.3523-.284.7348 0 1.3826.184 1.9432.551.5606.368.9981.888 1.3125 1.563.3144.674.4716 1.469.4716 2.386 0 .924-.1572 1.725-.4716 2.403-.3144.675-.75 1.197-1.3068 1.569-.5569.367-1.1989.551-1.9262.551-.5606 0-1.0095-.093-1.3466-.279-.3371-.189-.5966-.403-.7784-.642-.1818-.242-.322-.443-.4204-.602h-.1591v1.341zm1.3182-4.364c0 .659.0966 1.241.2898 1.745.1932.5.4753.892.8466 1.176.3712.28.8257.42 1.3636.42.5606 0 1.0284-.147 1.4034-.443.3788-.299.6629-.701.8523-1.204.1932-.508.2898-1.072.2898-1.694 0-.613-.0947-1.166-.2841-1.659-.1856-.496-.4678-.888-.8466-1.176-.375-.292-.8466-.437-1.4148-.437-.5455 0-1.0038.138-1.375.414-.3712.273-.6515.656-.8409 1.148-.1894.489-.2841 1.059-.2841 1.71zm12.0166 4.546c-.8409 0-1.5663-.186-2.1761-.557-.6061-.375-1.0739-.898-1.4035-1.568-.3257-.674-.4886-1.459-.4886-2.352 0-.894.1629-1.682.4886-2.364.3296-.686.7879-1.22 1.375-1.602.591-.387 1.2803-.58 2.0682-.58.4546 0 .9034.076 1.3466.227.4432.152.8466.398 1.2102.739.3637.337.6535.784.8694 1.341s.3238 1.242.3238 2.057v.568h-6.7272v-1.159h5.3636c0-.493-.0985-.932-.2955-1.318-.1931-.387-.4697-.692-.8295-.915-.3561-.224-.7765-.335-1.2614-.335-.5341 0-.9962.132-1.3863.397-.3864.262-.6838.603-.8921 1.023-.2083.421-.3125.871-.3125 1.352v.773c0 .659.1137 1.218.3409 1.676.2311.455.5512.801.9603 1.04.409.235.8844.352 1.4261.352.3523 0 .6704-.049.9545-.147.2879-.103.536-.254.7444-.455.2083-.205.3693-.458.4829-.761l1.2955.363c-.1364.44-.3656.826-.6875 1.159-.322.33-.7197.587-1.1932.773-.4735.182-1.0057.273-1.5966.273zm6.9143-11.818v11.636h-1.3409v-11.636z" fill="#262626"/><path d="m303.409 294v-11.636h1.409v10.386h5.409v1.25zm11.306.205c-.553 0-1.054-.105-1.505-.313-.451-.212-.809-.517-1.074-.915-.265-.401-.398-.886-.398-1.454 0-.5.099-.906.296-1.216.197-.315.46-.561.789-.739.33-.178.694-.31 1.091-.398.402-.09.805-.162 1.211-.215.53-.069.96-.12 1.289-.154.334-.038.576-.1.728-.187.155-.087.233-.239.233-.455v-.045c0-.561-.154-.997-.461-1.307-.303-.311-.763-.466-1.38-.466-.641 0-1.142.14-1.506.42-.364.281-.619.58-.767.898l-1.273-.454c.227-.531.53-.944.909-1.239.383-.299.8-.508 1.25-.625.455-.121.902-.182 1.341-.182.28 0 .602.034.966.102.368.065.722.199 1.063.404.344.204.63.513.858.926.227.413.34.966.34 1.659v5.75h-1.34v-1.182h-.069c-.091.19-.242.392-.454.608s-.494.4-.847.551c-.352.152-.782.228-1.29.228zm.205-1.205c.53 0 .977-.104 1.341-.312.367-.209.644-.478.829-.807.19-.33.285-.676.285-1.04v-1.227c-.057.068-.182.13-.375.187-.19.053-.41.101-.66.142-.246.038-.486.072-.721.102-.231.027-.419.05-.563.069-.348.045-.674.119-.977.221-.299.099-.542.248-.727.449-.182.197-.273.466-.273.807 0 .466.172.818.517 1.057.349.235.79.352 1.324.352zm6.345 1v-11.636h1.341v4.295h.113c.099-.151.235-.345.409-.579.178-.239.432-.451.762-.637.333-.189.784-.284 1.352-.284.735 0 1.383.184 1.943.551.561.368.998.888 1.313 1.563.314.674.471 1.469.471 2.386 0 .924-.157 1.725-.471 2.403-.315.675-.75 1.197-1.307 1.569-.557.367-1.199.551-1.926.551-.561 0-1.01-.093-1.347-.279-.337-.189-.596-.403-.778-.642-.182-.242-.322-.443-.421-.602h-.159v1.341zm1.318-4.364c0 .659.096 1.241.29 1.745.193.5.475.892.846 1.176.371.28.826.42 1.364.42.561 0 1.028-.147 1.403-.443.379-.299.663-.701.853-1.204.193-.508.289-1.072.289-1.694 0-.613-.094-1.166-.284-1.659-.185-.496-.468-.888-.846-1.176-.375-.292-.847-.437-1.415-.437-.546 0-1.004.138-1.375.414-.371.273-.652.656-.841 1.148-.189.489-.284 1.059-.284 1.71zm12.016 4.546c-.84 0-1.566-.186-2.176-.557-.606-.375-1.074-.898-1.403-1.568-.326-.674-.489-1.459-.489-2.352 0-.894.163-1.682.489-2.364.329-.686.788-1.22 1.375-1.602.591-.387 1.28-.58 2.068-.58.455 0 .904.076 1.347.227.443.152.846.398 1.21.739.364.337.653.784.869 1.341s.324 1.242.324 2.057v.568h-6.727v-1.159h5.363c0-.493-.098-.932-.295-1.318-.193-.387-.47-.692-.83-.915-.356-.224-.776-.335-1.261-.335-.534 0-.996.132-1.386.397-.387.262-.684.603-.892 1.023-.209.421-.313.871-.313 1.352v.773c0 .659.114 1.218.341 1.676.231.455.551.801.96 1.04.409.235.885.352 1.426.352.353 0 .671-.049.955-.147.288-.103.536-.254.744-.455.209-.205.37-.458.483-.761l1.296.363c-.137.44-.366.826-.688 1.159-.322.33-.719.587-1.193.773-.473.182-1.006.273-1.597.273zm6.915-11.818v11.636h-1.341v-11.636z" fill="#828282"/><path d="m366.54 287.29-5.66-5.65c-.093-.094-.204-.168-.325-.219-.122-.051-.253-.077-.385-.077s-.263.026-.385.077c-.121.051-.232.125-.325.219-.186.187-.291.441-.291.705s.105.518.291.705l4.95 5-4.95 4.95c-.186.187-.291.441-.291.705s.105.518.291.705c.093.095.203.17.325.221.122.052.253.078.385.079.132-.001.263-.027.385-.079.122-.051.232-.126.325-.221l5.66-5.65c.101-.094.182-.207.238-.334.055-.126.084-.263.084-.401s-.029-.275-.084-.401c-.056-.127-.137-.24-.238-.334z" fill="#b9b9b9"/><rect fill="#fff" height="55" rx="7.5" stroke="#f0f0f0" width="342" x="396.5" y="260.5"/><path d="m453.409 294v-11.636h1.409v10.386h5.409v1.25zm11.306.205c-.553 0-1.054-.105-1.505-.313-.451-.212-.809-.517-1.074-.915-.265-.401-.398-.886-.398-1.454 0-.5.099-.906.296-1.216.197-.315.46-.561.789-.739.33-.178.694-.31 1.091-.398.402-.09.805-.162 1.211-.215.53-.069.96-.12 1.289-.154.334-.038.576-.1.728-.187.155-.087.233-.239.233-.455v-.045c0-.561-.154-.997-.461-1.307-.303-.311-.763-.466-1.38-.466-.641 0-1.142.14-1.506.42-.364.281-.619.58-.767.898l-1.273-.454c.227-.531.53-.944.909-1.239.383-.299.8-.508 1.25-.625.455-.121.902-.182 1.341-.182.28 0 .602.034.966.102.368.065.722.199 1.063.404.344.204.63.513.858.926.227.413.34.966.34 1.659v5.75h-1.34v-1.182h-.069c-.091.19-.242.392-.454.608s-.494.4-.847.551c-.352.152-.782.228-1.29.228zm.205-1.205c.53 0 .977-.104 1.341-.312.367-.209.644-.478.829-.807.19-.33.285-.676.285-1.04v-1.227c-.057.068-.182.13-.375.187-.19.053-.41.101-.66.142-.246.038-.486.072-.721.102-.231.027-.419.05-.563.069-.348.045-.674.119-.977.221-.299.099-.542.248-.727.449-.182.197-.273.466-.273.807 0 .466.172.818.517 1.057.349.235.79.352 1.324.352zm6.345 1v-11.636h1.341v4.295h.113c.099-.151.235-.345.409-.579.178-.239.432-.451.762-.637.333-.189.784-.284 1.352-.284.735 0 1.383.184 1.943.551.561.368.998.888 1.313 1.563.314.674.471 1.469.471 2.386 0 .924-.157 1.725-.471 2.403-.315.675-.75 1.197-1.307 1.569-.557.367-1.199.551-1.926.551-.561 0-1.01-.093-1.347-.279-.337-.189-.596-.403-.778-.642-.182-.242-.322-.443-.421-.602h-.159v1.341zm1.318-4.364c0 .659.096 1.241.29 1.745.193.5.475.892.846 1.176.371.28.826.42 1.364.42.561 0 1.028-.147 1.403-.443.379-.299.663-.701.853-1.204.193-.508.289-1.072.289-1.694 0-.613-.094-1.166-.284-1.659-.185-.496-.468-.888-.846-1.176-.375-.292-.847-.437-1.415-.437-.546 0-1.004.138-1.375.414-.371.273-.652.656-.841 1.148-.189.489-.284 1.059-.284 1.71zm12.016 4.546c-.84 0-1.566-.186-2.176-.557-.606-.375-1.074-.898-1.403-1.568-.326-.674-.489-1.459-.489-2.352 0-.894.163-1.682.489-2.364.329-.686.788-1.22 1.375-1.602.591-.387 1.28-.58 2.068-.58.455 0 .904.076 1.347.227.443.152.846.398 1.21.739.364.337.653.784.869 1.341s.324 1.242.324 2.057v.568h-6.727v-1.159h5.363c0-.493-.098-.932-.295-1.318-.193-.387-.47-.692-.83-.915-.356-.224-.776-.335-1.261-.335-.534 0-.996.132-1.386.397-.387.262-.684.603-.892 1.023-.209.421-.313.871-.313 1.352v.773c0 .659.114 1.218.341 1.676.231.455.551.801.96 1.04.409.235.885.352 1.426.352.353 0 .671-.049.955-.147.288-.103.536-.254.744-.455.209-.205.37-.458.483-.761l1.296.363c-.137.44-.366.826-.688 1.159-.322.33-.719.587-1.193.773-.473.182-1.006.273-1.597.273zm6.915-11.818v11.636h-1.341v-11.636z" fill="#262626"/><path d="m659.409 294v-11.636h1.409v10.386h5.409v1.25zm11.306.205c-.553 0-1.054-.105-1.505-.313-.451-.212-.809-.517-1.074-.915-.265-.401-.398-.886-.398-1.454 0-.5.099-.906.296-1.216.197-.315.46-.561.789-.739.33-.178.694-.31 1.091-.398.402-.09.805-.162 1.211-.215.53-.069.96-.12 1.289-.154.334-.038.576-.1.728-.187.155-.087.233-.239.233-.455v-.045c0-.561-.154-.997-.461-1.307-.303-.311-.763-.466-1.38-.466-.641 0-1.142.14-1.506.42-.364.281-.619.58-.767.898l-1.273-.454c.227-.531.53-.944.909-1.239.383-.299.8-.508 1.25-.625.455-.121.902-.182 1.341-.182.28 0 .602.034.966.102.368.065.722.199 1.063.404.344.204.63.513.858.926.227.413.34.966.34 1.659v5.75h-1.34v-1.182h-.069c-.091.19-.242.392-.454.608s-.494.4-.847.551c-.352.152-.782.228-1.29.228zm.205-1.205c.53 0 .977-.104 1.341-.312.367-.209.644-.478.829-.807.19-.33.285-.676.285-1.04v-1.227c-.057.068-.182.13-.375.187-.19.053-.41.101-.66.142-.246.038-.486.072-.721.102-.231.027-.419.05-.563.069-.348.045-.674.119-.977.221-.299.099-.542.248-.727.449-.182.197-.273.466-.273.807 0 .466.172.818.517 1.057.349.235.79.352 1.324.352zm6.345 1v-11.636h1.341v4.295h.113c.099-.151.235-.345.409-.579.178-.239.432-.451.762-.637.333-.189.784-.284 1.352-.284.735 0 1.383.184 1.943.551.561.368.998.888 1.313 1.563.314.674.471 1.469.471 2.386 0 .924-.157 1.725-.471 2.403-.315.675-.75 1.197-1.307 1.569-.557.367-1.199.551-1.926.551-.561 0-1.01-.093-1.347-.279-.337-.189-.596-.403-.778-.642-.182-.242-.322-.443-.421-.602h-.159v1.341zm1.318-4.364c0 .659.096 1.241.29 1.745.193.5.475.892.846 1.176.371.28.826.42 1.364.42.561 0 1.028-.147 1.403-.443.379-.299.663-.701.853-1.204.193-.508.289-1.072.289-1.694 0-.613-.094-1.166-.284-1.659-.185-.496-.468-.888-.846-1.176-.375-.292-.847-.437-1.415-.437-.546 0-1.004.138-1.375.414-.371.273-.652.656-.841 1.148-.189.489-.284 1.059-.284 1.71zm12.016 4.546c-.84 0-1.566-.186-2.176-.557-.606-.375-1.074-.898-1.403-1.568-.326-.674-.489-1.459-.489-2.352 0-.894.163-1.682.489-2.364.329-.686.788-1.22 1.375-1.602.591-.387 1.28-.58 2.068-.58.455 0 .904.076 1.347.227.443.152.846.398 1.21.739.364.337.653.784.869 1.341s.324 1.242.324 2.057v.568h-6.727v-1.159h5.363c0-.493-.098-.932-.295-1.318-.193-.387-.47-.692-.83-.915-.356-.224-.776-.335-1.261-.335-.534 0-.996.132-1.386.397-.387.262-.684.603-.892 1.023-.209.421-.313.871-.313 1.352v.773c0 .659.114 1.218.341 1.676.231.455.551.801.96 1.04.409.235.885.352 1.426.352.353 0 .671-.049.955-.147.288-.103.536-.254.744-.455.209-.205.37-.458.483-.761l1.296.363c-.137.44-.366.826-.688 1.159-.322.33-.719.587-1.193.773-.473.182-1.006.273-1.597.273zm6.915-11.818v11.636h-1.341v-11.636z" fill="#828282"/><path d="m722.54 287.29-5.66-5.65c-.093-.094-.204-.168-.325-.219-.122-.051-.253-.077-.385-.077s-.263.026-.385.077c-.121.051-.232.125-.325.219-.186.187-.291.441-.291.705s.105.518.291.705l4.95 5-4.95 4.95c-.186.187-.291.441-.291.705s.105.518.291.705c.093.095.203.17.325.221.122.052.253.078.385.079.132-.001.263-.027.385-.079.122-.051.232-.126.325-.221l5.66-5.65c.101-.094.182-.207.238-.334.055-.126.084-.263.084-.401s-.029-.275-.084-.401c-.056-.127-.137-.24-.238-.334z" fill="#b9b9b9"/><path d="m432.16 280.61c-1.062-1.062-2.469-1.708-3.967-1.82-1.497-.112-2.985.318-4.193 1.21-1.272-.946-2.856-1.375-4.432-1.201-1.576.175-3.028.94-4.062 2.142-1.034 1.201-1.575 2.751-1.513 4.335.062 1.585.722 3.087 1.847 4.204l7.45 7.45c.093.094.204.168.325.219.122.051.253.077.385.077s.263-.026.385-.077c.121-.051.232-.125.325-.219l7.45-7.45c.583-.582 1.045-1.274 1.36-2.035.316-.761.478-1.576.478-2.4s-.162-1.639-.478-2.4c-.315-.761-.777-1.453-1.36-2.035zm-1.41 7.46-6.75 6.74-6.75-6.74c-.595-.597-1-1.357-1.165-2.184-.164-.826-.081-1.683.239-2.463s.864-1.447 1.562-1.919c.699-.472 1.521-.728 2.364-.734 1.126.003 2.205.452 3 1.25.093.094.204.168.325.219.122.051.253.077.385.077s.263-.026.385-.077c.121-.051.232-.125.325-.219.818-.709 1.876-1.081 2.958-1.04s2.108.491 2.87 1.26c.763.769 1.205 1.799 1.237 2.881.031 1.083-.349 2.137-1.065 2.949z" fill="#262626"/><rect fill="#fff" height="55" rx="7.5" stroke="#f0f0f0" width="342" x="40.5" y="112.5"/><path d="m57.4091 146v-11.636h1.4091v10.386h5.4091v1.25zm11.3064.205c-.5531 0-1.055-.105-1.5057-.313-.4508-.212-.8087-.517-1.0739-.915-.2651-.401-.3977-.886-.3977-1.454 0-.5.0985-.906.2954-1.216.197-.315.4603-.561.7898-.739.3296-.178.6932-.31 1.0909-.398.4015-.09.8049-.162 1.2102-.215.5303-.069.9603-.12 1.2898-.154.3334-.038.5758-.1.7273-.187.1553-.087.2329-.239.2329-.455v-.045c0-.561-.1534-.997-.4602-1.307-.303-.311-.7632-.466-1.3807-.466-.6401 0-1.142.14-1.5056.42-.3637.281-.6194.58-.7671.898l-1.2727-.454c.2273-.531.5303-.944.9091-1.239.3825-.299.7992-.508 1.25-.625.4545-.121.9015-.182 1.3409-.182.2803 0 .6023.034.9659.102.3674.065.7216.199 1.0625.404.3447.204.6307.513.8579.926.2273.413.341.966.341 1.659v5.75h-1.341v-1.182h-.0681c-.0909.19-.2425.392-.4546.608s-.4943.4-.8466.551c-.3522.152-.7822.228-1.2897.228zm.2045-1.205c.5303 0 .9773-.104 1.3409-.312.3674-.209.6439-.478.8296-.807.1893-.33.284-.676.284-1.04v-1.227c-.0568.068-.1818.13-.375.187-.1893.053-.409.101-.659.142-.2463.038-.4868.072-.7216.102-.2311.027-.4186.05-.5625.069-.3485.045-.6743.119-.9773.221-.2993.099-.5417.248-.7273.449-.1818.197-.2727.466-.2727.807 0 .466.1723.818.517 1.057.3485.235.7898.352 1.3239.352zm6.3447 1v-11.636h1.3409v4.295h.1137c.0984-.151.2348-.345.4091-.579.178-.239.4318-.451.7613-.637.3333-.189.7841-.284 1.3523-.284.7348 0 1.3826.184 1.9432.551.5606.368.9981.888 1.3125 1.563.3144.674.4716 1.469.4716 2.386 0 .924-.1572 1.725-.4716 2.403-.3144.675-.75 1.197-1.3068 1.569-.5569.367-1.1989.551-1.9262.551-.5606 0-1.0095-.093-1.3466-.279-.3371-.189-.5966-.403-.7784-.642-.1818-.242-.322-.443-.4204-.602h-.1591v1.341zm1.3182-4.364c0 .659.0966 1.241.2898 1.745.1932.5.4753.892.8466 1.176.3712.28.8257.42 1.3636.42.5606 0 1.0284-.147 1.4034-.443.3788-.299.6629-.701.8523-1.204.1932-.508.2898-1.072.2898-1.694 0-.613-.0947-1.166-.2841-1.659-.1856-.496-.4678-.888-.8466-1.176-.375-.292-.8466-.437-1.4148-.437-.5455 0-1.0038.138-1.375.414-.3712.273-.6515.656-.8409 1.148-.1894.489-.2841 1.059-.2841 1.71zm12.0166 4.546c-.8409 0-1.5663-.186-2.1761-.557-.6061-.375-1.0739-.898-1.4035-1.568-.3257-.674-.4886-1.459-.4886-2.352 0-.894.1629-1.682.4886-2.364.3296-.686.7879-1.22 1.375-1.602.591-.387 1.2803-.58 2.0682-.58.4546 0 .9034.076 1.3466.227.4432.152.8466.398 1.2102.739.3637.337.6535.784.8694 1.341s.3238 1.242.3238 2.057v.568h-6.7272v-1.159h5.3636c0-.493-.0985-.932-.2955-1.318-.1931-.387-.4697-.692-.8295-.915-.3561-.224-.7765-.335-1.2614-.335-.5341 0-.9962.132-1.3863.397-.3864.262-.6838.603-.8921 1.023-.2083.421-.3125.871-.3125 1.352v.773c0 .659.1137 1.218.3409 1.676.2311.455.5512.801.9603 1.04.409.235.8844.352 1.4261.352.3523 0 .6704-.049.9545-.147.2879-.103.536-.254.7444-.455.2083-.205.3693-.458.4829-.761l1.2955.363c-.1364.44-.3656.826-.6875 1.159-.322.33-.7197.587-1.1932.773-.4735.182-1.0057.273-1.5966.273zm6.9143-11.818v11.636h-1.3409v-11.636z" fill="#262626"/><rect fill="#fff" height="55" rx="7.5" stroke="#f0f0f0" width="342" x="396.5" y="112.5"/><g fill="#262626"><path d="m453.409 146v-11.636h1.409v10.386h5.409v1.25zm11.306.205c-.553 0-1.054-.105-1.505-.313-.451-.212-.809-.517-1.074-.915-.265-.401-.398-.886-.398-1.454 0-.5.099-.906.296-1.216.197-.315.46-.561.789-.739.33-.178.694-.31 1.091-.398.402-.09.805-.162 1.211-.215.53-.069.96-.12 1.289-.154.334-.038.576-.1.728-.187.155-.087.233-.239.233-.455v-.045c0-.561-.154-.997-.461-1.307-.303-.311-.763-.466-1.38-.466-.641 0-1.142.14-1.506.42-.364.281-.619.58-.767.898l-1.273-.454c.227-.531.53-.944.909-1.239.383-.299.8-.508 1.25-.625.455-.121.902-.182 1.341-.182.28 0 .602.034.966.102.368.065.722.199 1.063.404.344.204.63.513.858.926.227.413.34.966.34 1.659v5.75h-1.34v-1.182h-.069c-.091.19-.242.392-.454.608s-.494.4-.847.551c-.352.152-.782.228-1.29.228zm.205-1.205c.53 0 .977-.104 1.341-.312.367-.209.644-.478.829-.807.19-.33.285-.676.285-1.04v-1.227c-.057.068-.182.13-.375.187-.19.053-.41.101-.66.142-.246.038-.486.072-.721.102-.231.027-.419.05-.563.069-.348.045-.674.119-.977.221-.299.099-.542.248-.727.449-.182.197-.273.466-.273.807 0 .466.172.818.517 1.057.349.235.79.352 1.324.352zm6.345 1v-11.636h1.341v4.295h.113c.099-.151.235-.345.409-.579.178-.239.432-.451.762-.637.333-.189.784-.284 1.352-.284.735 0 1.383.184 1.943.551.561.368.998.888 1.313 1.563.314.674.471 1.469.471 2.386 0 .924-.157 1.725-.471 2.403-.315.675-.75 1.197-1.307 1.569-.557.367-1.199.551-1.926.551-.561 0-1.01-.093-1.347-.279-.337-.189-.596-.403-.778-.642-.182-.242-.322-.443-.421-.602h-.159v1.341zm1.318-4.364c0 .659.096 1.241.29 1.745.193.5.475.892.846 1.176.371.28.826.42 1.364.42.561 0 1.028-.147 1.403-.443.379-.299.663-.701.853-1.204.193-.508.289-1.072.289-1.694 0-.613-.094-1.166-.284-1.659-.185-.496-.468-.888-.846-1.176-.375-.292-.847-.437-1.415-.437-.546 0-1.004.138-1.375.414-.371.273-.652.656-.841 1.148-.189.489-.284 1.059-.284 1.71zm12.016 4.546c-.84 0-1.566-.186-2.176-.557-.606-.375-1.074-.898-1.403-1.568-.326-.674-.489-1.459-.489-2.352 0-.894.163-1.682.489-2.364.329-.686.788-1.22 1.375-1.602.591-.387 1.28-.58 2.068-.58.455 0 .904.076 1.347.227.443.152.846.398 1.21.739.364.337.653.784.869 1.341s.324 1.242.324 2.057v.568h-6.727v-1.159h5.363c0-.493-.098-.932-.295-1.318-.193-.387-.47-.692-.83-.915-.356-.224-.776-.335-1.261-.335-.534 0-.996.132-1.386.397-.387.262-.684.603-.892 1.023-.209.421-.313.871-.313 1.352v.773c0 .659.114 1.218.341 1.676.231.455.551.801.96 1.04.409.235.885.352 1.426.352.353 0 .671-.049.955-.147.288-.103.536-.254.744-.455.209-.205.37-.458.483-.761l1.296.363c-.137.44-.366.826-.688 1.159-.322.33-.719.587-1.193.773-.473.182-1.006.273-1.597.273zm6.915-11.818v11.636h-1.341v-11.636z"/><path d="m432.16 132.61c-1.062-1.062-2.469-1.708-3.967-1.82-1.497-.112-2.985.318-4.193 1.21-1.272-.946-2.856-1.375-4.432-1.201-1.576.175-3.028.94-4.062 2.142-1.034 1.201-1.575 2.751-1.513 4.335.062 1.585.722 3.087 1.847 4.204l7.45 7.45c.093.094.204.168.325.219.122.051.253.077.385.077s.263-.026.385-.077c.121-.051.232-.125.325-.219l7.45-7.45c.583-.582 1.045-1.274 1.36-2.035.316-.761.478-1.576.478-2.4s-.162-1.639-.478-2.4c-.315-.761-.777-1.453-1.36-2.035zm-1.41 7.46-6.75 6.74-6.75-6.74c-.595-.597-1-1.357-1.165-2.184-.164-.826-.081-1.683.239-2.463s.864-1.447 1.562-1.919c.699-.472 1.521-.728 2.364-.734 1.126.003 2.205.452 3 1.25.093.094.204.168.325.219.122.051.253.077.385.077s.263-.026.385-.077c.121-.051.232-.125.325-.219.818-.709 1.876-1.081 2.958-1.04s2.108.491 2.87 1.26c.763.769 1.205 1.799 1.237 2.881.031 1.083-.349 2.137-1.065 2.949z"/><path d="m41.517 65v-17.4545h3.6904v14.4119h7.4829v3.0426zm13.5491 0v-13.0909h3.6306v13.0909zm1.8323-14.7784c-.5397 0-1.0028-.179-1.3892-.5369-.3863-.3637-.5795-.7983-.5795-1.304 0-.5.1932-.929.5795-1.2869.3864-.3637.8466-.5455 1.3807-.5455.5455 0 1.0085.1818 1.3892.5455.3864.3579.5796.7869.5796 1.2869 0 .5057-.1932.9403-.5796 1.304-.3807.3579-.8409.5369-1.3807.5369zm15.5988 5.4204-3.3239.2046c-.0568-.2841-.179-.5398-.3665-.7671-.1875-.2329-.4346-.4176-.7415-.5539-.3011-.1421-.6619-.2131-1.0823-.2131-.5625 0-1.037.1193-1.4233.358-.3864.2329-.5796.5454-.5796.9375 0 .3125.125.5767.375.7926s.679.3892 1.2869.5199l2.3694.4772c1.2727.2614 2.2216.6818 2.8466 1.2614.625.5795.9375 1.3409.9375 2.2841 0 .8579-.2529 1.6108-.7586 2.2585-.5.6477-1.1875 1.1534-2.0625 1.5171-.8693.3579-1.8721.5369-3.0085.5369-1.7329 0-3.1136-.3608-4.142-1.0824-1.0228-.7273-1.6222-1.7159-1.7983-2.9659l3.571-.1875c.1079.5284.3693.9318.7841 1.2102.4148.2727.946.4091 1.5937.4091.6364 0 1.1478-.1222 1.5341-.3665.3921-.25.5909-.571.5966-.963-.0057-.3296-.1449-.5995-.4176-.8097-.2727-.2159-.6932-.3807-1.2614-.4943l-2.267-.4517c-1.2784-.2557-2.2301-.6989-2.8551-1.3296-.6193-.6307-.929-1.4346-.929-2.4119 0-.8409.2273-1.5653.6818-2.1733.4602-.608 1.1051-1.0767 1.9347-1.4062.8352-.3296 1.8125-.4944 2.9318-.4944 1.6534 0 2.9545.3495 3.9034 1.0483.9546.6989 1.5114 1.6506 1.6705 2.8551zm9.5475-3.7329v2.7273h-7.8835v-2.7273zm-6.0937-3.1364h3.6307v12.2046c0 .3352.0511.5966.1534.7841.1023.1818.2443.3096.4261.3835.1875.0738.4034.1108.6477.1108.1705 0 .341-.0142.5114-.0426.1705-.0341.3011-.0597.3921-.0767l.571 2.7017c-.1818.0568-.4375.1221-.7671.196-.3295.0795-.7301.1278-1.2017.1449-.875.0341-1.642-.0824-2.3011-.3495-.6534-.267-1.1619-.6818-1.5256-1.2443-.3636-.5625-.5426-1.2727-.5369-2.1307z"/></g></svg>