<svg fill="none" height="267" viewBox="0 0 176 267" width="176" xmlns="http://www.w3.org/2000/svg"><path d="m149.09 133.51h4.43c.45.054.905-.037 1.3-.26.238-.251.412-.556.507-.888.096-.332.111-.683.043-1.022-.18-4.13-.12-10.77-3.08-14.09s-8.46-3-9.9-8.34c-.91-3.42.79-6.92 2-10.25s1.88-7.51-.61-10c-1.51-1.53-3.92-2.11-5.1-3.92-2.22-3.39 1.47-7.6 1.73-11.65s-2.83-7.28-6-9.62-6.83-4.4-8.7-7.88c-1.32-2.44-1.58-5.28-2.28-8-.548-2.098-1.576-4.0399-3.002-5.6729-1.427-1.633-3.213-2.9123-5.218-3.7371-14.59-5.73-30.5703-1.18-37.9203 13.23-1.66 3.26-2.81 7-4.68 10.12-2 3.32-6.17 4.56-9 7.18-1.2355 1.1453-2.2139 2.5397-2.8707 4.0912-.6567 1.5514-.9769 3.2245-.9393 4.9088.1 2.82 1.2 5.72.28 8.39s-3.59 4.4-4.31 7.08c-1.28 4.82 2.36 10.16 1.13 15.56-.3842 1.856-1.0989 3.627-2.11 5.23-1.1515 1.583-2.4951 3.018-4 4.27-3.4293 2.886-6.4562 6.219-9 9.91-.8139 1.283-1.5069 2.639-2.07 4.05.2928-.025.5872-.025.88 0h52.77c18.7203 0 37.0003 1.24 55.7203 1.24z" fill="#fff"/><path d="m153.69 134.06h-.17c-1.49 0-3 0-4.43 0h-.09c-9.37 0-18.78-.31-27.87-.62s-18.5-.61-27.8503-.61h-52.86c-.16 0-.46 0-.61 0-.1099.04-.2302.04-.34 0-.1267-.051-.2281-.15-.2824-.275-.0542-.126-.057-.267-.0076-.395.5734-1.45 1.2833-2.843 2.12-4.16 2.5743-3.724 5.6347-7.087 9.1-10l.19-.17c1.4193-1.17 2.686-2.514 3.77-4 .9732-1.549 1.6513-3.264 2-5.06.6-2.61 0-5.26-.59-7.84-.59-2.5799-1.19-5.2199-.53-7.7299.4879-1.4454 1.2711-2.7735 2.3-3.9.8427-.9534 1.5188-2.0419 2-3.22.4256-1.7444.4256-3.5656 0-5.31-.1631-.9596-.2699-1.9279-.32-2.9-.0456-1.7678.2878-3.5249.9777-5.1531.69-1.6283 1.7205-3.09 3.0223-4.2869 1.1816-1.0157 2.4573-1.9165 3.81-2.69 2.05-1.26 4-2.46 5.13-4.38 1.0422-1.8461 1.9512-3.7643 2.72-5.74.6-1.45 1.23-2.95 1.94-4.34 7.16-14.05 23-19.59 38.5703-13.48 2.087.8362 3.951 2.1459 5.445 3.8258s2.578 3.684 3.165 5.8542c.2.79.37 1.59.54 2.39.299 1.8915.868 3.7303 1.69 5.46 1.47 2.72 4.13 4.59 6.71 6.39l1.8 1.28c4.28 3.16 6.43 6.65 6.21 10.08-.194 1.6308-.625 3.2244-1.28 4.73-.91 2.41-1.77 4.7-.53 6.6.708.9001 1.61 1.6283 2.64 2.13.869.4664 1.675 1.041 2.4 1.71 2.94 3 1.72 7.92.72 10.58-.16.44-.33.88-.51 1.3299-1.1 2.85-2.25 5.8-1.5 8.61.81 3 3 4.06 5.29 5.16 1.683.687 3.211 1.707 4.49 3 2.8 3.14 3 8.93 3.17 13.15l.05 1.25c.073.426.041.864-.093 1.275-.134.412-.367.784-.677 1.085-.427.268-.927.397-1.43.37zm-113.2503-2.31h52.87c9.3703 0 18.7803.32 27.8803.62s18.49.62 27.84.62h.06 4.43c.342.039.689-.02 1-.17.34-.25.36-.88.34-1.47l-.05-1.26c-.15-4.07-.35-9.65-2.9-12.5-1.197-1.176-2.614-2.104-4.17-2.73-2.42-1.15-4.91-2.35-5.84-5.82-.85-3.14.36-6.25 1.53-9.2599.17-.44.34-.87.5-1.31.91-2.43 2.06-6.9-.49-9.49-.659-.6106-1.395-1.1318-2.19-1.55-1.176-.5737-2.203-1.4123-3-2.45-1.53-2.34-.53-5 .43-7.54.612-1.4113 1.02-2.9031 1.21-4.43.25-3.87-3-7.13-5.79-9.18-.6-.44-1.21-.87-1.83-1.3-2.67-1.88-5.44-3.82-7-6.75-.872-1.8139-1.478-3.7436-1.8-5.73-.16-.79-.33-1.57-.53-2.35-.527-2.0194-1.516-3.8889-2.889-5.4611-1.373-1.5721-3.091-2.8041-5.021-3.5989-15-5.91-30.3603-.57-37.2703 13-.7 1.36-1.31 2.84-1.91 4.27-.7865 2.0201-1.7155 3.9817-2.78 5.87-1.29 2.14-3.42 3.45-5.47 4.72-1.2759.7603-2.4807 1.6338-3.6 2.61-1.1885 1.0989-2.1281 2.4393-2.7559 3.9312s-.9293 3.1008-.8841 4.7188c.0494.9319.1529 1.8601.31 2.78.4513 1.91.4272 3.9015-.07 5.8-.5199 1.2894-1.2573 2.4801-2.18 3.52-.9373 1.0163-1.6555 2.2144-2.11 3.52-.6 2.27-.05 4.69.54 7.2499.59 2.56 1.24 5.45.59 8.29-.3903 1.918-1.1292 3.749-2.18 5.4-1.1331 1.559-2.4567 2.97-3.94 4.2l-.19.17c-3.3978 2.857-6.3978 6.157-8.92 9.81-.6764 1.034-1.2683 2.121-1.77 3.25z" fill="#231f20"/><path d="m87.8397 121.63s-37.17 19.87-49.57 32.2-11.7 84.62-11.7 110.37h144.0603s3.54-79.2-4.23-96.2c-10.39-22.79-48.08-41.65-57.94-44.55-9.8603-2.9-20.6203-1.82-20.6203-1.82z" fill="#00bdaa"/><path d="m170.629 264.7h-144.0596c-.1326 0-.2598-.053-.3536-.146-.0938-.094-.1464-.221-.1464-.354v-3.91c0-28.4-.11-94.91 11.85-106.81 12.31-12.24 49.31-32.09 49.68-32.29.0624-.015.1275-.015.19 0 .11 0 11-1.07 20.8096 1.83 8.89 2.61 47.48 21.2 58.26 44.82 7.72 16.94 4.41 93.2 4.27 96.44-.019.118-.08.226-.172.303-.091.077-.208.119-.328.117zm-143.5596-.99h143.0796c.28-6.62 3.12-79.47-4.2-95.51-10.06-22-47.21-41.21-57.63-44.28-9.1596-2.69-19.2496-1.9-20.3396-1.8-2 1.09-37.45 20.21-49.36 32.07-11.62 11.61-11.62 77.81-11.56 106.1z" fill="#231f20"/><path d="m81.6201 132.93s3.49 37.8 17.38 37.8c7.9999 0 18.2999-14.14 17.3099-36.6z" fill="#231f20"/><path d="m98.9999 171.22c-6 0-10.85-6.48-14.38-19.26-1.6529-6.234-2.823-12.586-3.5-19-.0059-.071.0035-.143.0277-.21.0241-.067.0624-.129.1123-.18.0487-.051.1076-.092.1731-.12.0654-.027.1359-.041.2069-.04l34.6901 1.21c.123.005.24.056.327.143s.138.204.143.327c.9 20.3-7 30.25-9.49 32.81-2.65 2.8-5.6 4.32-8.3101 4.32zm-16.83-37.77c.51 4.68 4.45 36.78 16.83 36.78 2.4301 0 5.1301-1.42 7.5901-4 7.39-7.72 9.61-21.3 9.24-31.61z" fill="#231f20"/><path d="m118.77 86.1305c1.88-9.58 17.95-11.39 16.76-.07-.41 3.89-1.79 7.82-4.63 10.51s-7.3 3.8595-10.81 2.14" fill="#fff"/><path d="m123.72 100.001c-1.335.01-2.655-.2843-3.86-.8605-.066-.0271-.126-.0675-.175-.1187-.05-.0512-.088-.112-.114-.1787-.025-.0667-.036-.1379-.032-.2091.003-.0712.021-.1409.053-.2048.031-.0639.076-.1207.13-.1667.055-.046.118-.0803.186-.1008.069-.0205.141-.0268.211-.0184.071.0084.139.0313.201.0672 3.13 1.54 7.34.69 10.22-2 3.13-3 4.16-7.18 4.48-10.19.41-4-1.44-6.64-4.94-7.16-4.3-.65-9.79 2.23-10.81 7.38-.012.0666-.037.1301-.074.1868-.037.0568-.084.1057-.14.1438-.056.0382-.119.0649-.185.0785s-.135.0139-.201.0009c-.134-.0289-.251-.1086-.328-.2224-.076-.1137-.106-.2526-.082-.3876 1.12-5.72 7.21-8.92 12-8.2 3.18.48 6.38 2.9 5.81 8.29-.33 3.18-1.43 7.64-4.79 10.83-2.042 1.9368-4.745 3.0237-7.56 3.0405z" fill="#231f20"/><path d="m82.9296 84.7502c-1.21-9.69-17.12-12.61-16.72-1.23.13 3.91 1.25 7.92 3.89 10.8s7 4.36 10.64 2.89" fill="#fff"/><path d="m77.6893 98.2999c-1.5113-.0229-3.0016-.3571-4.3781-.9817-1.3764-.6245-2.6093-1.526-3.6219-2.6483-3.13-3.41-3.92-7.94-4-11.14-.19-5.41 3.17-7.61 6.38-7.86 4.82-.38 10.65 3.23 11.37 9 .0142.135-.0249.2701-.109.3766-.084.1065-.2064.1759-.341.1934-.067.0084-.1351.0033-.2001-.0148-.0651-.0182-.1259-.0491-.179-.091-.053-.0418-.0972-.0938-.13-.1529-.0327-.0591-.0534-.1241-.0609-.1913-.66-5.21-5.93-8.45-10.27-8.11-3.54.28-5.57 2.82-5.43 6.8.11 3 .85 7.3 3.76 10.48 2.69 2.93 6.83 4.06 10.06 2.75.0624-.0261.1292-.0395.1968-.0395s.1344.0134.1968.0394c.0623.0261.1189.0643.1663.1123.0475.0481.0849.1051.1101.1678.0263.0631.0399.1306.04.1989.0002.0683-.0131.136-.0391.1991-.026.0632-.0642.1206-.1124.1689-.0482.0484-.1054.0869-.1685.1131-1.0297.4153-2.1296.6292-3.24.63z" fill="#231f20"/><path d="m81.6602 132.93c1.6652 3.18 4.1517 5.856 7.2011 7.75 3.0493 1.894 6.5502 2.937 10.1389 3.02 3.4998.213 6.9888-.573 10.0598-2.268 3.07-1.694 5.595-4.227 7.28-7.302l-.3-6.75-.69-15.7-.66-14.68-28.8199-1-1.3699 11.93-.43 3.87z" fill="#fff"/><path d="m99.7899 144.23h-.81c-3.6801-.104-7.2665-1.183-10.3923-3.128s-5.6788-4.686-7.3976-7.942c-.0416-.083-.0589-.177-.05-.27l4.22-36.8897c.015-.1281.078-.2458.1764-.3293.0983-.0835.2247-.1266.3536-.1207l28.81 1c.13.0025.254.0546.347.1457s.148.2143.153.3443l1.66 37.1197c.004.087-.013.172-.05.25-1.684 3.023-4.157 5.532-7.154 7.261s-6.406 2.614-9.8661 2.559zm-17.5999-11.39c1.6474 3.048 4.0683 5.608 7.0192 7.423s6.3277 2.821 9.7908 2.917c3.382.197 6.751-.558 9.724-2.181 2.974-1.623 5.432-4.048 7.096-6.999l-1.63-36.5097-27.86-1z" fill="#231f20"/><path d="m84.0693 111.81c2.06 3.58 5.56 6.45 9.18 8.63 6.08 3.65 15.2297 7.83 22.7897 6.94l-.69-15.7c-5.538.507-11.118.353-16.6197-.46-4.85-.59-9.84-1.25-14.23-3.28z" fill="#231f20"/><path d="m113.89 128.001c-7.77 0-16.2802-4.36-20.8902-7.13-4.37-2.63-7.51-5.59-9.36-8.81-.0496-.092-.0705-.197-.06-.3l.42-3.87c.0094-.079.0369-.154.0803-.22s.1015-.121.1697-.16c.0718-.035.1504-.053.23-.053s.1583.018.23.053c4.45 2.06 9.57 2.68 14.08 3.23 5.4652.814 11.0072.972 16.5102.47.067-.009.134-.002.198.018.064.021.123.056.172.102.053.042.096.095.127.155.031.061.049.127.053.195l.69 15.7c.006.126-.036.25-.118.346-.082.097-.197.158-.322.174-.734.074-1.472.107-2.21.1zm-29.3002-16.29c1.77 3 4.77 5.8 8.92 8.3 4.86 2.92 14.1002 7.63 22.0002 6.92l-.65-14.7c-5.406.443-10.844.269-16.2102-.52-4.38-.53-9.32-1.14-13.75-3z" fill="#231f20"/><path d="m98.8098 114.8 2.5702.09c5.854.203 11.55-1.929 15.833-5.925s6.803-9.5301 7.007-15.3846v-1.12c.12-3.42.19-6.84.32-10.26.1-2.33 1.15-5.16-.56-7.09-1-.9691-2.147-1.7725-3.4-2.38-6.715-3.902-11.961-9.9034-14.93-17.08-5.027 6.8983-12.1912 11.943-20.3802 14.35-2.05.59-4.23 1-5.87 2.41-3.68 3-1.48 7.19-1.61 11.09-.1 2.8133-.1967 5.6267-.29 8.44-.1042 2.9008.3645 5.7938 1.3795 8.5136 1.0149 2.719 2.5561 5.212 4.5354 7.335s4.3578 3.835 6.9995 5.039c2.6416 1.203 5.4946 1.873 8.3956 1.972z" fill="#fff"/><g fill="#231f20"><path d="m102.169 115.42h-.81l-2.5697-.09c-5.988-.221-11.644-2.808-15.7284-7.192-4.0845-4.384-6.2642-10.2091-6.0616-16.1978l.29-8.44c.0071-1.1054-.0799-2.2094-.26-3.3-.39-2.85-.79-5.81 2.06-8.16 1.5553-1.1208 3.3313-1.898 5.21-2.28l.85-.24c8.1001-2.3569 15.1857-7.3421 20.1397-14.17.055-.0744.128-.133.212-.1699s.177-.0507.268-.0401c.092.011.18.0464.254.1027s.131.1313.166.2173c2.919 7.0728 8.089 12.9851 14.71 16.82l.47.27c1.131.5647 2.161 1.3113 3.05 2.21 1.44 1.63 1.15 3.78.89 5.67-.095.5929-.158 1.1904-.19 1.79-.08 1.96-.143 3.92-.19 5.88 0 1.46-.08 2.92-.13 4.38v1.12c-.204 5.8516-2.671 11.3958-6.881 15.4658-4.209 4.069-9.834 6.347-15.689 6.354zm3.4-58.7398c-5.068 6.6474-12.1336 11.4947-20.1597 13.83l-.86.25c-1.7331.3476-3.3746 1.0526-4.82 2.07-2.41 2-2.08 4.42-1.7 7.23.1904 1.15.2807 2.3144.27 3.48l-.3 8.46c-.1917 5.7161 1.8914 11.2748 5.7926 15.4568 3.9011 4.183 9.3017 6.647 15.0174 6.853l2.5797.09c5.719.195 11.281-1.889 15.464-5.793s6.645-9.3085 6.846-15.0268v-1.12c.05-1.45.09-2.91.13-4.37.05-2 .11-3.93.19-5.89.033-.6332.1-1.2641.2-1.89.25-1.84.49-3.57-.64-4.84-.811-.8181-1.754-1.4941-2.79-2l-.48-.28c-6.533-3.8094-11.692-9.5887-14.74-16.51z"/><path d="m101.369 95.5198c-1.5175-.0044-3.0337-.1013-4.5397-.29-.0677-.0098-.1327-.0329-.1915-.0678-.0587-.035-.11-.0812-.1509-.136-.0408-.0548-.0705-.1171-.0872-.1834-.0168-.0663-.0203-.1352-.0104-.2028.0097-.0674.0328-.1321.0679-.1904.0351-.0582.0815-.1089.1365-.149.0549-.04.1174-.0687.1836-.0843.0662-.0155.1349-.0177.202-.0063 2.0858.2621 4.1917.3324 6.2897.21.061.0004.12-.0163.171-.0481.052-.0319.093-.0776.119-.1319 1-1.56-1.46-8.93-3.22-13.21-.025-.0624-.038-.1292-.038-.1967 0-.0674.014-.1341.04-.1963s.064-.1187.111-.1663c.048-.0475.105-.0851.167-.1107.063-.0256.129-.0387.197-.0385.067.0002.134.0137.196.0397s.119.064.166.1118c.048.0479.086.1046.111.167.49 1.18 4.71 11.63 3.15 14.14-.112.195-.272.3587-.464.4758s-.411.1839-.636.1942c-.67.05-1.34.07-1.97.07z"/><path d="m112.595 78.9711c.072-2.0698-.55-3.7714-1.389-3.8005-.839-.0292-1.577 1.6251-1.649 3.6949-.072 2.0699.55 3.7714 1.389 3.8006.839.0291 1.577-1.6252 1.649-3.695z"/><path d="m93.1303 78.2963c.0719-2.0698-.5499-3.7714-1.3889-3.8005-.8389-.0292-1.5773 1.6251-1.6493 3.6949-.0719 2.0699.5499 3.7714 1.3889 3.8006.839.0291 1.5774-1.6252 1.6493-3.695z"/><path d="m79.3995 179.89h-.26c-.64-.06-1.22-.61-1.78-1.69-3.63-7-7.48-40.81-6.32-42.82 2.46-4.27 7.88-7 8.11-7.15.061-.031.1276-.049.1959-.055.0682-.005.1368.003.2019.025.065.021.1252.055.177.1.0519.045.0944.099.1252.16.0569.123.0648.263.022.391-.0427.128-.1329.235-.252.299-.06 0-5.38 2.75-7.69 6.74-.77 2.09 2.79 36.27 6.6 42.28.31.49.56.68.7.69 3.3.29 9.52-7.14 11.64-10 .0353-.065.0843-.122.1436-.167.0592-.045.1274-.077.2-.093.0725-.016.1477-.017.2205-.002.0728.016.1414.046.2014.09.0599.044.1096.101.1459.166s.0582.136.0643.211c.0062.074-.0037.148-.0288.218-.0252.07-.065.134-.1169.187-.32.4-7.7 10.42-12.3 10.42z"/><path d="m117.799 179.89c-4.49 0-11.25-9.63-12-10.75-.039-.056-.067-.118-.082-.185s-.017-.135-.005-.203c.012-.067.038-.131.075-.188s.086-.106.142-.144c.115-.077.254-.105.389-.079.135.027.254.105.331.219 2 3 8 10.59 11.33 10.29.14 0 .39-.2.7-.69 3.8-6 7.37-40.19 6.58-42.3-2.3-4-7.62-6.69-7.67-6.72-.121-.062-.212-.169-.255-.298s-.034-.27.025-.392c.03-.061.072-.115.123-.16.051-.044.11-.078.174-.1.064-.021.132-.03.2-.024.067.005.133.023.193.054.23.12 5.66 2.88 8.12 7.15 1.16 2-2.69 35.84-6.32 42.82-.56 1.08-1.14 1.63-1.78 1.69z"/></g><path d="m51.0801 143.71s-12.81 10.12-17 68.21l8.73 2.87s.38-44.06 17.06-76.85z" fill="#fff"/><path d="m42.7892 215.31c-.0529.01-.107.01-.1599 0l-8.7301-2.87c-.1087-.037-.202-.109-.2653-.205s-.0931-.21-.0847-.325c4.18-57.65 16.68-68.15 17.21-68.57l8.7601-5.77c.0953-.063.2093-.093.3236-.084s.2222.056.3063.134c.0853.076.1433.178.1649.29.0217.112.006.228-.0448.33-16.43 32.29-17 76.18-17 76.61-.0044.082-.0264.162-.0643.234-.038.073-.0911.136-.1558.186-.082.035-.1713.049-.26.04zm-8.18-3.76 7.68 2.53c.14-5.69 1.65-44.61 16.25-74.66l-7.15 4.71c-.48.41-12.68 11.61-16.78 67.42z" fill="#231f20"/><path d="m54.1499 206.26c-3.1-.25-42.52.24-43.27 0s-6.00002 57.94-6.00002 57.94h57.86002z" fill="#fff"/><path d="m62.7297 264.72h-57.86002c-.07164-.001-.14237-.016-.20776-.046-.06539-.029-.12403-.071-.17225-.124-.09306-.108-.13978-.248-.13-.39 5.21-57.67 5.94003-58.15 6.22003-58.33.0671-.044.1434-.073.2231-.083.0797-.011.1607-.003.2369.023.63.09 11 0 20.18 0 10.51-.06 21.38-.13 23 0 .1163.01.226.058.3113.138.0852.08.1411.186.1587.302l8.58 57.95c.0115.073.0067.147-.014.218-.0208.071-.057.137-.106.192-.0537.056-.1195.098-.1924.124-.0728.026-.1508.035-.2276.026zm-57.29002-1h56.69002l-8.43-56.94c-2.53-.09-12.65 0-22.47 0-13.14.08-18.45.1-20 0-.8 3.59-3.84002 35.34-5.79002 56.91z" fill="#231f20"/><path d="m53.4893 215.29h-40c-.1327 0-.2598-.053-.3536-.146-.0938-.094-.1464-.221-.1464-.354s.0526-.26.1464-.354c.0938-.093.2209-.146.3536-.146h40c.1326 0 .2597.053.3535.146.0938.094.1465.221.1465.354s-.0527.26-.1465.354c-.0938.093-.2209.146-.3535.146z" fill="#d1d3d4"/><g fill="#231f20"><path d="m135.27 264.7h-.07c-.13-.022-.247-.094-.325-.2-.079-.107-.113-.239-.095-.37.06-.39 5.74-39.48 10.34-69.55 2.17-14.17-4.45-28.85-4.52-29-.032-.061-.051-.127-.056-.195-.006-.068.003-.136.025-.201.023-.064.058-.124.104-.174.046-.051.102-.091.164-.119s.129-.043.198-.044c.068-.001.136.012.199.038s.12.065.167.114c.048.049.085.107.109.171.07.15 6.81 15.09 4.6 29.56-4.6 30.06-10.29 69.15-10.35 69.55-.017.117-.076.225-.166.302s-.205.119-.324.118z"/><path d="m62.7301 264.7c-.1187.001-.2338-.041-.3239-.118s-.1491-.185-.1661-.302c-.06-.4-5.75-39.49-10.35-69.55-2.21-14.47 4.53-29.41 4.6-29.56.0242-.064.0611-.122.1086-.171s.1046-.088.1676-.114c.0631-.026.1308-.039.1991-.038.0682.001.1355.016.1978.044.0622.028.118.068.164.119.046.05.0812.11.1034.174.0222.065.031.133.0257.201-.0052.068-.0244.134-.0562.195-.07.15-6.69 14.83-4.52 29 4.6 30.07 10.28 69.16 10.34 69.55.0174.131-.0166.263-.0949.37-.0784.106-.1949.178-.3251.2z"/><path d="m57.3301 264.2 2.33-10.47h78.6799l2.33 10.47z"/><path d="m140.669 264.7h-83.3396c-.0739.001-.1469-.015-.2136-.047s-.1253-.079-.1715-.136c-.0462-.058-.0787-.126-.0951-.198-.0165-.072-.0164-.146.0002-.219l2.32-10.48c.0267-.11.0894-.208.1781-.279.0887-.07.1985-.109.3119-.111h78.6796c.114.002.224.041.312.111.089.071.152.169.178.279l2.32 10.48c.017.073.017.147.001.219-.017.072-.049.14-.095.198-.047.057-.105.104-.172.136s-.14.048-.214.047zm-82.7196-1h82.0996l-2.11-9.48h-77.8796z"/><path d="m102.129 106.599c-2.7296-.115-5.3915-.887-7.7597-2.25-.1218-.064-.2133-.173-.2546-.304-.0412-.131-.0288-.274.0346-.396.0656-.12.1758-.209.3069-.248.131-.04.2722-.026.3931.038 3.85 2 7.1697 2.61 9.8497 1.74 1.594-.491 2.946-1.562 3.79-3 .03-.06.072-.115.123-.159.051-.045.11-.079.174-.1.064-.022.132-.03.2-.025.067.005.133.024.193.054.123.061.217.167.262.296s.037.271-.022.394c-.972 1.683-2.543 2.937-4.4 3.51-.933.304-1.908.456-2.89.45z"/></g></svg>