<svg fill="none" height="266" viewBox="0 0 176 266" width="176" xmlns="http://www.w3.org/2000/svg" xmlns:xlink="http://www.w3.org/1999/xlink"><clipPath id="a"><path d="m0 0h176v266h-176z"/></clipPath><g clip-path="url(#a)"><path d="m75.9997 123.37s-44.62 26.12-58.41 38.46c-13.79002 12.34-17.410012 78.36-17.410012 104.11h175.610312s-3.74-79.18-12.38-96.21c-11.56-22.73-53.48-41.64-64.4103-44.55-10.93-2.91-23-1.81-23-1.81z" fill="#400082"/><g fill="#231f20"><path d="m175.79 266.439h-175.580039c-.1326083 0-.2597856-.052-.353554-.146-.093768-.094-.146446-.221-.146446-.354 0-23 3.229989-91.65 17.580039-104.49 13.66-12.22 58-38.25 58.49-38.51.0606-.037.1289-.061.2-.07.12 0 12.19-1.06 23.11 1.83 5 1.32 18.13 6.53 32.13 14.88 11.41 6.8 26.33 17.52 32.63 29.93 8.59 16.93 12.29 93.171 12.44 96.411.005.068-.005.136-.029.2s-.062.122-.111.17c-.046.048-.102.087-.164.113s-.129.038-.196.036zm-175.080039-1h174.560039c-.35-6.9-4.18-79.47-12.31-95.49-11.19-22.06-52.52-41.22-64.12-44.29-10.2-2.7-21.43-1.91-22.66-1.81-2.34 1.37-45 26.45-58.23 38.34-5.84 5.22-10.58004 21.37-13.71004 46.71-2.22529 18.77-3.403782 37.65-3.529999 56.551z"/><path d="m69.5498 134.67 18.45 19.23 16.2802-18s-22.6302 1.32-34.7302-1.23z"/><path d="m87.9996 154.39c-.0672.002-.1339-.011-.1959-.037s-.1179-.064-.1641-.113l-18.45-19.24c-.0739-.075-.1208-.173-.1334-.278-.0127-.105.0096-.211.0634-.302.0536-.092.1341-.165.2307-.21.0966-.044.2045-.058.3093-.04 11.89 2.51 34.3304 1.21 34.5504 1.2.098-.006.197.017.282.067.086.05.154.124.198.213s.059.189.045.288c-.014.098-.058.189-.125.262l-16.2804 18c-.0479.05-.1053.09-.1689.117-.0635.028-.1319.042-.2011.043zm-17-18.94 17 17.72 15.1204-16.74c-4.6804.22-21.5304.86-32.1204-.98z"/></g><path d="m118.08 85.19c1.887-4.1787 3.205-8.5913 3.92-13.12.14-.87 1.77-10.67-1.11-10.42 3.7-.3237 7.262-1.557 10.37-3.59.23-.1249.423-.3076.56-.53.45-.89-.87-1.56-1.85-1.76-4.195-.8791-7.888-3.3438-10.31-6.88-1.58-2.34-2.72-5.24-5.24-6.52-2.87-1.47-6.54-.25-9.46-1.61-2-.94-3.3-2.92-4.9999-4.32-3.95-3.2-9.86-2.92-14.42-.67-2 1-3.94 2.28-6.09 2-1.48-.2-2.75-1.14-4.17-1.59-4.55-1.46-9 2.24-12.19 5.84-2.36 2.7-2.37 5.1-3.67 8.12-1.06 2.44-3.5 4-4.79 6.42-2.64 5-2 11-.26 16.24.41 1.19 9.94 18.31 6.91 18.13 8.83.54 17.73 1.29 26.64 1.16 7.08-.09 26.3799 1.44 30.1599-6.9z" fill="#fff"/><path d="m95.1897 92.6498c-1.35 0-2.6401 0-3.8201 0s-2.4799 0-3.4299 0c-7.23.11-14.55-.37-21.62-.83l-5.0601-.33c-.067-.0038-.1326-.0208-.193-.05-.0604-.0293-.1145-.0701-.1591-.1203s-.0788-.1086-.1007-.1721c-.022-.0634-.0312-.1306-.0271-.1976-.0004-.0687.0137-.1368.0414-.1998.0277-.0629.0683-.1194.1193-.1656.0509-.0462.111-.0812.1763-.1026.0654-.0215.1345-.029.203-.022.56-.77-1.5001-5.77-6.1401-14.8399-.8-1.57-1.1899-2.3301-1.2899-2.6101-1.51-4.45-2.6801-10.9499.2899-16.6299.6627-1.1653 1.4764-2.2379 2.4201-3.1901.9555-.9287 1.7497-2.0102 2.3499-3.1999.3857-.9002.7196-1.8217 1-2.7601.497-2.0206 1.4477-3.9015 2.78-5.5 4.56-5.22 8.8501-7.24 12.7401-6 .5863.1993 1.1577.4399 1.7099.72.7377.4022 1.5342.6857 2.36.84 1.64.22 3.2501-.62 4.8101-1.44l1-.5c4.35-2.15 10.66-2.7599 15.0003.7301.642.5378 1.25 1.1156 1.82 1.73.873 1.02 1.923 1.8738 3.1 2.52 1.42.5367 2.933.7815 4.45.7199 1.712-.0738 3.42.2336 5 .9001 2 1 3.19 2.9999 4.31 4.8899.36.61.73 1.22 1.12 1.8 2.341 3.4348 5.928 5.8234 10 6.66.443.0628.868.217 1.249.4528.38.2359.707.5482.961.9172.091.1744.138.3683.138.565 0 .1968-.047.3907-.138.565-.178.3043-.434.5562-.74.73-2.758 1.8076-5.871 3.0012-9.13 3.5 1.18 2 .59 7.08.11 10.08-.729 4.606-2.075 9.0928-4 13.34-3.01 6.48-14.6 7.2-23.4103 7.2zm-6.41-1.09h2.6c8.07.1 23.0903.3 26.2303-6.61 1.88-4.1382 3.195-8.5108 3.91-13 .81-5.06.77-8.72-.09-9.65-.057-.065-.128-.1155-.208-.1468-.08-.0314-.167-.0428-.252-.0332-.135.006-.266-.0393-.368-.1265-.102-.0873-.167-.21-.182-.3434-.011-.1365.032-.2718.12-.3766s.213-.1707.35-.1835c3.603-.3049 7.075-1.4933 10.11-3.4599.147-.0838.276-.196.38-.3301.019-.0334.029-.0713.029-.11 0-.0386-.01-.0765-.029-.1099-.384-.4453-.918-.7336-1.5-.8101-4.334-.8887-8.151-3.4321-10.64-7.09-.4-.59-.77-1.2199-1.15-1.8499-1.1-1.86-2.13-3.61-3.89-4.5-1.454-.5963-3.021-.866-4.59-.79-1.66.0644-3.314-.2148-4.86-.82-1.291-.6948-2.443-1.6201-3.4-2.73-.542-.5855-1.12-1.1365-1.7304-1.6501-3.95-3.2-9.81-2.61-13.86-.61-.33.16-.65.33-1 .5-1.7.89-3.47 1.81-5.42 1.55-.9343-.1692-1.8357-.4865-2.6699-.94-.5107-.2594-1.0386-.4833-1.5801-.67-4.32-1.39-8.72 2.3301-11.66 5.69-1.2332 1.4926-2.1088 3.2473-2.56 5.1301-.29.9-.58 1.8399-1 2.8599-.6459 1.2944-1.5007 2.4736-2.53 3.49-.8894.8947-1.6561 1.9035-2.2799 3-2.8 5.36-1.6601 11.57-.2201 15.83.07.22.6101 1.26 1.2301 2.47 4 7.91 6.54 13.34 6.26 15.38l4 .26c7.06.46 14.3599.94 21.5399.83z" fill="#231f20"/><path d="m109.67 87.8697c1.87-9.58 18-11.39 16.76-.07-.41 3.89-1.8 7.82-4.63 10.51-2.83 2.6903-7.3 3.8603-10.81 2.1403" fill="#fff"/><path d="m114.62 101.78c-1.335.01-2.655-.284-3.86-.86-.123-.063-.217-.171-.262-.301-.045-.131-.037-.274.022-.399.062-.121.169-.213.298-.2559.129-.043.27-.0337.392.0257 3.14 1.5402 7.34.6902 10.23-2 3.13-3 4.16-7.18 4.48-10.19.41-4-1.44-6.64-4.95-7.16-4.29-.65-9.79 2.23-10.8 7.38-.012.0668-.037.1305-.074.1874-.037.0568-.085.1058-.141.144-.056.0381-.119.0648-.185.0782-.067.0135-.135.0136-.202.0003-.066-.0133-.129-.0397-.186-.0777-.056-.038-.104-.0869-.141-.1436-.037-.0568-.062-.1205-.075-.1872-.012-.0667-.01-.1352.004-.2014 1.12-5.72 7.21-8.92 12-8.2 3.18.47 6.38 2.9 5.81 8.29-.33 3.18-1.43 7.64-4.79 10.83-2.045 1.9392-4.752 3.0262-7.57 3.0402z" fill="#231f20"/><path d="m69.82 86.4896c-1.2-9.69-17.11-12.62-16.71-1.23.13 3.9 1.24 7.92 3.89 10.8s7 4.3604 10.63 2.89" fill="#fff"/><path d="m64.58 100c-1.5114-.0228-3.0017-.357-4.3781-.9815-1.3765-.6246-2.6094-1.5261-3.6219-2.6483-3.13-3.41-3.92-7.94-4-11.14-.19-5.41 3.17-7.61 6.38-7.86 4.81-.38 10.64 3.22 11.37 9 .0143.1361-.0245.2724-.1084.3805-.0838.1081-.2063.1796-.3416.1995-.1361.0143-.2725-.0245-.3806-.1083-.1081-.0839-.1795-.2063-.1994-.3417-.65-5.21-5.93-8.47-10.26-8.11-3.54.28-5.57 2.82-5.43 6.8.11 3 .84 7.3 3.76 10.47 2.69 2.94 6.83 4.08 10.06 2.76.1261-.05.2668-.0486.3919.0037.1252.0523.225.1514.2781.2763.0261.0623.0395.1292.0395.1967 0 .0676-.0134.1345-.0394.1968-.0261.0624-.0643.1189-.1123.1664-.0481.0474-.1052.0849-.1678.1101-1.0285.4197-2.1292.6338-3.24.6298z" fill="#231f20"/><path d="m69.5498 134.67s7.35 3.75 20 4.19c12.6502.44 14.7202-3 14.7202-3l-.3-6.75-.69-15.7-.67-14.6698-28.8102-1-1.37 11.9298-.43 3.87z" fill="#fff"/><path d="m91.6596 139.41h-2.15c-12.59-.44-19.89-4.1-20.19-4.25-.093-.049-.1693-.125-.2191-.217-.0499-.093-.0711-.198-.0609-.303l4.22-36.9199c.015-.1282.0781-.2458.1764-.3293.0984-.0835.2247-.1267.3536-.1207l28.8104 1c.13.0024.254.0545.347.1456s.148.2143.153.3444l1.66 37.1199c.003.106-.025.21-.08.3-.09.11-2.15 3.23-13.0204 3.23zm-21.55-5c1.54.7 8.53 3.61 19.43 4 10.7304.38 13.6604-2.09 14.1804-2.64l-1.63-36.4499-27.8604-1z" fill="#231f20"/><path d="m72 113.55c2.05 3.58 5.56 6.45 9.18 8.63 6.08 3.65 15.22 7.83 22.79 6.94l-.69-15.7c-5.5389.496-11.117.342-16.62-.46-4.85-.6-9.84-1.25-14.23-3.28z" fill="#231f20"/><path d="m101.79 129.74c-7.7698 0-16.2798-4.36-20.8998-7.14-4.36-2.62-7.5-5.58-9.35-8.8-.0496-.092-.0705-.196-.06-.3l.42-3.87c.0094-.079.0369-.154.0803-.22s.1015-.121.1697-.16c.0717-.035.1504-.053.23-.053s.1583.018.23.053c4.45 2.06 9.56 2.68 14.08 3.23 5.462.809 11.0008.967 16.4998.47.068-.008.136-.002.201.016.066.019.126.051.179.094.054.043.097.098.126.16.03.063.045.131.044.2l.7 15.7c.006.125-.036.248-.118.342-.082.095-.197.155-.322.168-.734.082-1.472.118-2.21.11zm-29.2998-16.3c1.77 3 4.77 5.81 8.92 8.31 4.85 2.92 14.1 7.63 21.9998 6.92l-.65-14.7c-5.402.443-10.8372.269-16.1998-.52-4.38-.53-9.32-1.14-13.75-3z" fill="#231f20"/><path d="m86.7 116.539 2.58.09c5.8545.203 11.55-1.928 15.833-5.925 4.283-3.996 6.804-9.53 7.007-15.3846v-1.12c.14-4.1133.267-8.22.38-12.32.08-2.59 1.35-7.6-1.95-8.86-.67-.26-1.44-.22-2.11-.5-.866-.4879-1.563-1.2272-2-2.12-.713-1.2579-1.64-2.3815-2.74-3.32-2.53-2-4.51-.12-7.13-.78-4.44-1.12-8.92-4.42-13.67-3.62-.9003.2541-1.8355.3621-2.77.32-.7137-.1348-1.3936-.4101-2-.81-1.4223-.8304-2.7825-1.7629-4.07-2.79.0178 1.0633-.2009 2.1172-.6401 3.0857-.4393.9684-1.0882 1.8272-1.8999 2.5143-.4082.2489-.7511.5918-1 1-.3.72.1 1.52.14 2.3.09 1.69-1.47 2.9-2.55 4.2-2.72 3.26-2.37 8.71-2.51 12.71l-.3 8.44c-.1068 2.9103.3629 5.8131 1.3821 8.5416 1.0192 2.728 2.5678 5.227 4.5567 7.355 1.9889 2.127 4.3788 3.84 7.0323 5.04 2.6534 1.201 5.518 1.864 8.4289 1.953z" fill="#fff"/><g fill="#231f20"><path d="m90.0598 117.16h-.8l-2.57-.09c-5.9897-.216-11.6493-2.799-15.7377-7.182s-6.2721-10.2077-6.0723-16.198l.29-8.44c0-.56 0-1.15 0-1.76.06-3.71.14-8.32 2.59-11.26.23-.28.49-.56.75-.84.9-1 1.74-1.89 1.69-3-.0205-.2461-.0606-.4903-.12-.73-.1902-.5849-.1902-1.2151 0-1.8.233-.4521.5771-.8375 1-1.12l.15-.12c.749-.6392 1.3479-1.4357 1.7541-2.3328.4062-.897.6096-1.8726.5959-2.8572-.0026-.0994.0233-.1974.0747-.2824.0514-.0851.1261-.1537.2153-.1976.0883-.0416.1864-.058.2834-.0475.0971.0106.1893.0478.2666.1075 1.2674 1.009 2.604 1.9279 4 2.75.5432.3532 1.1465.604 1.78.74.6456.0517 1.2952-.0092 1.92-.18.23-.05.46-.1.69-.13 3.29-.57 6.41.74 9.43 2 1.442.6473 2.9293 1.1887 4.45 1.62.8972.1851 1.8228.1851 2.72 0 .7852-.2157 1.6092-.2477 2.4092-.0933.799.1543 1.552.4908 2.201.9833 1.137.9813 2.101 2.1477 2.85 3.45.194.5903.559 1.1096 1.048 1.4924.49.3827 1.082.6116 1.702.6576.384.0495.763.1366 1.13.26 3.05 1.18 2.68 5 2.4 7.75-.05.59-.11 1.15-.12 1.62l-.03 1.67c-.11 3.54-.21 7.08-.34 10.62v1.12c-.205 5.852-2.671 11.396-6.881 15.466-4.21 4.069-9.834 6.347-15.6892 6.354zm-15.48-56.74c-.216 1.9474-1.1718 3.7374-2.67 5l-.16.13c-.2714.1873-.497.4334-.66.72-.1208.3875-.1208.8025 0 1.19.0684.2928.1152.5903.14.89.08 1.54-1 2.72-2 3.75-.24.27-.48.53-.71.8-2.21 2.66-2.29 6.89-2.35 10.62v1.77l-.29 8.45c-.1808 5.7134 1.9116 11.265 5.8183 15.438s9.3088 6.626 15.0217 6.822l2.57.09c2.8301.1 5.6522-.358 8.3052-1.349 2.653-.99 5.085-2.494 7.156-4.424 2.072-1.931 3.743-4.251 4.918-6.827 1.175-2.577 1.831-5.3599 1.931-8.19v-1.12c.13-3.54.23-7.08.33-10.61l.06-1.7c0-.49.07-1.07.13-1.69.25-2.58.57-5.79-1.75-6.68-.298-.1038-.607-.1742-.92-.21-.41-.049-.813-.1464-1.2-.29-.971-.5281-1.756-1.3414-2.25-2.33-.683-1.2038-1.569-2.2798-2.62-3.18-.539-.4058-1.165-.6796-1.828-.7994-.664-.1198-1.346-.0824-1.9922.1094-1.0289.2155-2.0912.2155-3.12 0-1.5721-.4435-3.1096-1.0016-4.6-1.67-2.84-1.2-5.84-2.45-8.84-1.94l-.65.13c-.7425.1993-1.5148.2637-2.28.19-.7664-.1474-1.4968-.4429-2.15-.87-1.1508-.682-2.2657-1.423-3.34-2.22z"/><path d="m89.2704 97.26c-1.5179-.0034-3.0341-.1003-4.54-.29-.1355-.0222-.2571-.0961-.3391-.2062-.0821-.11-.1183-.2476-.1009-.3838.0198-.1346.0917-.2561.2001-.3384.1085-.0823.2449-.1187.3799-.1016 2.0886.2683 4.1977.3419 6.3.22.0601-.0007.119-.0179.1701-.0496s.0926-.0768.1199-.1304c1-1.56-1.46-8.93-3.22-13.21-.0376-.0639-.0611-.1351-.0689-.2088s.0002-.1482.0235-.2186c.0234-.0703.0615-.1349.1118-.1893s.1117-.0975.18-.1262c.0683-.0288.142-.0426.2161-.0406.0741.0021.1469.0199.2135.0524s.1256.0788.1728.1359c.0473.0571.0818.1237.1012.1952.49 1.19 4.71 11.64 3.15 14.15-.1123.1951-.272.3587-.4642.4758-.1923.1171-.4109.1839-.6358.1942-.67.05-1.33.07-1.97.07z"/><path d="m99.5392 80.1957c.0622-2.0711-.568-3.7704-1.4075-3.7956-.8394-.0252-1.5703 1.6333-1.6325 3.7044-.0621 2.0711.5681 3.7704 1.4075 3.7956.8395.0252 1.5704-1.6333 1.6325-3.7044z"/><path d="m80.175 79.5346c.0621-2.0711-.5681-3.7705-1.4075-3.7956-.8395-.0252-1.5704 1.6333-1.6325 3.7044-.0622 2.071.568 3.7704 1.4075 3.7956.8394.0251 1.5703-1.6334 1.6325-3.7044z"/><path d="m34.0701 266.44c-.1249 0-.2452-.047-.3363-.133-.0911-.085-.1461-.202-.1537-.327l-5.92-92.08c-.008-.133.0371-.263.1252-.362.0882-.1.2122-.16.3448-.168s.2629.037.3623.125.1597.212.1677.345l5.91 92.07c.004.066-.0049.132-.0264.194-.0214.062-.0549.119-.0986.169-.0436.049-.0966.089-.1558.118-.0592.028-.1235.045-.1892.049z"/><path d="m140.6 266.44c-.065-.005-.129-.023-.187-.053s-.11-.071-.152-.122c-.042-.05-.073-.108-.092-.171s-.026-.129-.019-.194l8.34-86.35c.015-.131.082-.251.185-.333s.234-.121.365-.107c.065.007.127.025.184.056s.108.072.149.122c.041.051.071.109.09.171.018.062.024.127.017.191l-8.38 86.35c-.015.122-.074.234-.166.316-.092.081-.211.125-.334.124z"/><path d="m88 266.439c-.1326 0-.2598-.052-.3535-.146-.0938-.094-.1465-.221-.1465-.354v-112c0-.132.0527-.259.1465-.353.0937-.094.2209-.147.3535-.147s.2598.053.3535.147c.0938.094.1465.221.1465.353v112c.0014.066-.0106.132-.0353.193-.0246.062-.0614.117-.1081.164s-.1024.084-.1637.108c-.0612.025-.1269.037-.1929.035z"/><path d="m73.6697 167c-.0799-.001-.1585-.021-.2296-.057-.0711-.037-.1328-.089-.1804-.153-8.84-12.63-13.07-30.54-13.11-30.72-.0148-.063-.017-.128-.0063-.192.0106-.064.0338-.125.0682-.18s.0793-.103.1322-.14.1127-.064.1759-.078c.1286-.03.2638-.008.3763.061.1124.07.1928.181.2237.309 0 .17 4.09 17.29 12.51 29.72l8.68-15.25c.0321-.057.0751-.106.1265-.146.0513-.04.11-.069.1727-.086.0626-.018.1281-.022.1926-.014.0644.008.1267.029.1832.061.0564.032.106.075.1459.126.0398.052.0692.11.0864.173.0171.063.0218.128.0137.193-.0081.064-.0289.126-.061.183l-9.07 15.94c-.0412.073-.1005.135-.1723.179-.0718.043-.1537.068-.2377.071z"/><path d="m106.32 165.999c-.078 0-.156-.019-.225-.056-.07-.036-.13-.089-.175-.154l-11.6096-16.32c-.076-.108-.107-.241-.0864-.372.0205-.13.0909-.248.1964-.328.0537-.038.1145-.065.1789-.08.0643-.015.131-.017.1961-.005.0651.011.1273.035.1831.07s.104.081.1419.135l11.0796 15.59c1.56-3.88 7.89-20.36 7.42-30.7-.002-.065.008-.131.031-.192.022-.062.057-.119.102-.167.044-.048.098-.087.157-.115.06-.027.125-.043.19-.046.067-.005.133.003.196.025.063.021.121.056.17.101s.088.1.114.161c.027.061.041.127.04.193.54 11.94-7.5 31.14-7.84 32-.036.08-.091.149-.161.202-.07.052-.152.086-.239.098z"/><path d="m118.08 235.19c-.088 0-.175-.024-.25-.07l-19.1102-10.69c-.077-.045-.1408-.109-.1848-.186-.0439-.078-.0664-.165-.0652-.254v-29.43c-.0013-.066.0104-.13.0344-.191.0241-.061.0599-.116.1056-.162.0456-.047.1001-.084.1602-.109s.1246-.038.1898-.038h32.9402c.065 0 .13.013.19.038s.114.062.16.109c.046.046.081.101.105.162s.036.125.035.191v29.44c0 .075-.017.149-.05.217-.033.067-.081.127-.14.173l-13.82 10.7c-.086.066-.192.101-.3.1zm-18.6202-11.49 18.5402 10.39 13.37-10.34v-28.7h-31.9102z"/><path d="m88.1293 108.599c-2.7299-.115-5.3918-.887-7.76-2.25-.1218-.064-.2133-.173-.2546-.304-.0412-.131-.0288-.274.0346-.396.0656-.12.1758-.209.3069-.248.131-.04.2722-.026.3931.038 3.85 2 7.17 2.61 9.85 1.74 1.5935-.491 2.9454-1.562 3.79-3 .0297-.06.0713-.115.1223-.159.0509-.045.1102-.079.1745-.1.0642-.022.132-.03.1995-.025.0676.005.1334.024.1937.054.1226.061.2166.167.2615.296.045.129.0372.271-.0215.394-.972 1.683-2.5434 2.937-4.4 3.51-.933.304-1.9088.456-2.89.45z"/></g></g></svg>