<svg fill="none" height="266" viewBox="0 0 176 266" width="176" xmlns="http://www.w3.org/2000/svg" xmlns:xlink="http://www.w3.org/1999/xlink"><clipPath id="a"><path d="m0 0h176v266h-176z"/></clipPath><g clip-path="url(#a)"><path d="m75.9997 123.37s-44.62 26.12-58.41 38.46c-13.79002 12.34-17.410012 78.36-17.410012 104.11h175.610312s-3.74-79.18-12.38-96.21c-11.56-22.73-53.48-41.64-64.4103-44.55-10.93-2.91-23-1.81-23-1.81z" fill="#f1e7b6"/><g fill="#231f20"><path d="m175.79 266.439h-175.580039c-.1326083 0-.2597856-.052-.353554-.146-.093768-.094-.146446-.221-.146446-.354 0-23 3.229989-91.65 17.580039-104.49 13.66-12.22 58-38.25 58.49-38.51.0606-.037.1289-.061.2-.07.12 0 12.19-1.06 23.11 1.83 5 1.32 18.13 6.53 32.13 14.88 11.41 6.8 26.33 17.52 32.63 29.93 8.59 16.93 12.29 93.171 12.44 96.411.005.068-.005.136-.029.2s-.062.122-.111.17c-.046.048-.102.087-.164.113s-.129.038-.196.036zm-175.080039-1h174.560039c-.35-6.9-4.18-79.47-12.31-95.49-11.19-22.06-52.52-41.22-64.12-44.29-10.2-2.7-21.43-1.91-22.66-1.81-2.34 1.37-45 26.45-58.23 38.34-5.84 5.22-10.58004 21.37-13.71004 46.71-2.22529 18.77-3.403782 37.65-3.529999 56.551z"/><path d="m69.5498 135.67 18.45 19.23 16.2802-18s-22.6302 1.32-34.7302-1.23z"/><path d="m87.9996 155.39c-.0672.002-.1339-.011-.1959-.037s-.1179-.064-.1641-.113l-18.45-19.24c-.0739-.075-.1208-.173-.1334-.278-.0127-.105.0096-.211.0634-.302.0536-.092.1341-.165.2307-.21.0966-.044.2045-.058.3093-.04 11.89 2.51 34.3304 1.21 34.5504 1.2.098-.006.197.017.282.067.086.05.154.124.198.213s.059.189.045.288c-.014.098-.058.189-.125.262l-16.2804 18c-.0479.05-.1053.09-.1689.117-.0635.028-.1319.042-.2011.043zm-17-18.94 17 17.72 15.1204-16.74c-4.6804.22-21.5304.86-32.1204-.98z"/><path d="m34.0701 267.44c-.1249 0-.2452-.047-.3363-.133-.0911-.085-.1461-.202-.1537-.327l-5.92-92.08c-.008-.133.0371-.263.1252-.362.0882-.1.2122-.16.3448-.168s.2629.037.3623.125.1597.212.1677.345l5.91 92.07c.004.066-.0049.132-.0264.194-.0214.062-.0549.119-.0986.169-.0436.049-.0966.089-.1558.118-.0592.028-.1235.045-.1892.049z"/><path d="m140.6 267.44c-.065-.005-.129-.023-.187-.053s-.11-.071-.152-.122c-.042-.05-.073-.108-.092-.171s-.026-.129-.019-.194l8.34-86.35c.015-.131.082-.251.185-.333s.234-.121.365-.107c.065.007.127.025.184.056s.108.072.149.122c.041.051.071.109.09.171.018.062.024.127.017.191l-8.38 86.35c-.015.122-.074.234-.166.316-.092.081-.211.125-.334.124z"/><path d="m88 267.439c-.1326 0-.2598-.052-.3535-.146-.0938-.094-.1465-.221-.1465-.354v-112c0-.132.0527-.259.1465-.353.0937-.094.2209-.147.3535-.147s.2598.053.3535.147c.0938.094.1465.221.1465.353v112c.0014.066-.0106.132-.0353.193-.0246.062-.0614.117-.1081.164s-.1024.084-.1637.108c-.0612.025-.1269.037-.1929.035z"/><path d="m73.6697 168c-.0799-.001-.1585-.021-.2296-.057-.0711-.037-.1328-.089-.1804-.153-8.84-12.63-13.07-30.54-13.11-30.72-.0148-.063-.017-.128-.0063-.192.0106-.064.0338-.125.0682-.18s.0793-.103.1322-.14.1127-.064.1759-.078c.1286-.03.2638-.008.3763.061.1124.07.1928.181.2237.309 0 .17 4.09 17.29 12.51 29.72l8.68-15.25c.0321-.057.0751-.106.1265-.146.0513-.04.11-.069.1727-.086.0626-.018.1281-.022.1926-.014.0644.008.1267.029.1832.061.0564.032.106.075.1459.126.0398.052.0692.11.0864.173.0171.063.0218.128.0137.193-.0081.064-.0289.126-.061.183l-9.07 15.94c-.0412.073-.1005.135-.1723.179-.0718.043-.1537.068-.2377.071z"/><path d="m106.32 166.999c-.078 0-.156-.019-.225-.056-.07-.036-.13-.089-.175-.154l-11.6096-16.32c-.076-.108-.107-.241-.0864-.372.0205-.13.0909-.248.1964-.328.0537-.038.1145-.065.1789-.08.0643-.015.131-.017.1961-.005.0651.011.1273.035.1831.07s.104.081.1419.135l11.0796 15.59c1.56-3.88 7.89-20.36 7.42-30.7-.002-.065.008-.131.031-.192.022-.062.057-.119.102-.167.044-.048.098-.087.157-.115.06-.027.125-.043.19-.046.067-.005.133.003.196.025.063.021.121.056.17.101s.088.1.114.161c.027.061.041.127.04.193.54 11.94-7.5 31.14-7.84 32-.036.08-.091.149-.161.202-.07.052-.152.086-.239.098z"/><path d="m118.08 236.19c-.088 0-.175-.024-.25-.07l-19.1102-10.69c-.077-.045-.1408-.109-.1848-.186-.0439-.078-.0664-.165-.0652-.254v-29.43c-.0013-.066.0104-.13.0344-.191.0241-.061.0599-.116.1056-.162.0456-.047.1001-.084.1602-.109s.1246-.038.1898-.038h32.9402c.065 0 .13.013.19.038s.114.062.16.109c.046.046.081.101.105.162s.036.125.035.191v29.44c0 .075-.017.149-.05.217-.033.067-.081.127-.14.173l-13.82 10.7c-.086.066-.192.101-.3.1zm-18.6202-11.49 18.5402 10.39 13.37-10.34v-28.7h-31.9102z"/></g><path d="m117.169 91.6774c-.392-.8072 1.418-19.6336 0-33.759-2.432-23.9966-50.5673-25.491-58.1481-5.8355-3.4249 8.9006-.6326 41.1543-.6326 41.1543z" fill="#fff"/><path d="m58.4101 93.8584c-.1431.0004-.2812-.0533-.3864-.1504s-.1698-.2304-.1808-.3731c-.1091-1.3199-2.7596-32.4828.6763-41.3943 4.363-11.2348 21.1062-15.347 34.7079-13.5254 10.9949 1.4398 23.2769 7.3408 24.4989 19.4482.981 9.7405.447 21.477.12 28.4906-.12 2.5742-.219 4.7884-.142 5.1375.043.0766.065.163.065.2508 0 .0879-.022.1743-.065.2509-.053.078-.125.1411-.209.1831-.084.0421-.177.0617-.271.0569zm28.3597-54.7888c-11.6275 0-23.7676 4.1776-27.2689 13.22-3.1087 8.0498-.9926 36.1587-.6545 40.3581l57.6466-1.538c0-.7308 0-2.1052.175-4.8102.316-6.9918.861-18.6738-.11-28.3597-1.156-11.453-12.925-17.0595-23.5599-18.5429-2.0666-.2465-4.1473-.3558-6.2283-.3273z" fill="#231f20"/><path d="m106.916 89.3535c1.44-8.9879 16.361-11.2021 15.631-.6108-.119 3.6804-1.528 7.2019-3.982 9.9477-2.552 2.6066-6.708 3.8936-9.98 2.3456" fill="#fff"/><path d="m111.671 102.236c-1.153.01-2.294-.224-3.349-.687-.067-.03-.128-.073-.179-.127-.05-.053-.09-.116-.116-.185-.027-.069-.039-.142-.037-.216s.018-.146.048-.214c.031-.067.074-.128.127-.179.054-.05.117-.09.186-.116.068-.027.142-.039.216-.037.073.002.146.019.213.049 1.603.611 3.352.73 5.024.342 1.671-.389 3.188-1.2677 4.357-2.5239 2.803-2.8469 3.621-6.7954 3.817-9.5987.371-5.2574-3.206-6.25-4.766-6.4245-3.982-.4582-8.977 2.3342-9.719 7.1772-.048.1184-.135.217-.247.2797s-.241.0858-.367.0656c-.127-.0202-.243-.0826-.329-.177-.087-.0943-.139-.2152-.148-.3429.873-5.4538 6.458-8.6279 10.984-8.1152 3.011.349 6.119 2.5415 5.759 7.6353-.207 2.9887-1.09 7.199-4.133 10.2967-.961.9737-2.103 1.7477-3.363 2.2797-1.259.531-2.611.809-3.978.818z" fill="#231f20"/><path d="m69.7308 89.3535c-1.4398-8.9879-16.3614-11.2021-15.6306-.6108.1182 3.6804 1.5276 7.2019 3.9813 9.9477 2.5523 2.6066 6.6754 3.8396 10.0131 2.3456" fill="#fff"/><path d="m64.9539 102.236c-1.3639-.02-2.7106-.308-3.9629-.849-1.2522-.541-2.3853-1.324-3.3343-2.3038-3.0432-3.0977-3.9267-7.3081-4.1339-10.2967-.36-5.0939 2.7378-7.2863 5.7592-7.6353 4.5266-.5127 10.1113 2.6941 10.9839 8.1152.0323.0791.0464.1645.0411.2498s-.0298.1683-.0716.2428c-.0419.0745-.1.1385-.1702.1874-.0701.0489-.1503.0813-.2347.0948s-.1707.0077-.2526-.0168c-.0818-.0246-.1571-.0673-.2201-.125s-.1122-.129-.1438-.2083c-.0316-.0794-.0449-.1649-.0389-.2502-.7635-4.7993-5.7592-7.6353-9.7404-7.1663-1.5598.1746-5.1375 1.1671-4.7666 6.4246.1963 2.8032 1.0144 6.7518 3.8176 9.5987 1.1687 1.2562 2.6859 2.1351 4.3571 2.5231 1.6712.389 3.4203.27 5.0234-.342.1362-.059.2901-.062.4288-.009s.251.158.3129.293c.0593.136.0627.29.0097.429-.053.138-.1583.251-.2933.313-1.0584.481-2.2076.73-3.3704.731z" fill="#231f20"/><path d="m69.7318 130.268s5.3447 12.805 17.1249 12.805 18.8483-9.707 18.8483-9.707v-40.1295l-35.995-1.5597z" fill="#fff"/><path d="m86.8561 143.63c-11.9983 0-17.5939-13.013-17.6484-13.089-.0113-.073-.0113-.146 0-.219v-38.6451c-.0001-.0773.0153-.1538.0453-.225.0299-.0711.0739-.1356.1292-.1895.1131-.1028.2617-.1575.4145-.1527l35.9953 1.5597c.145.0083.283.0713.384.1765s.159.2448.161.3907v40.1294c-.001.118-.039.232-.109.327-.142.109-7.4608 9.937-19.3719 9.937zm-16.5686-13.482c.5345 1.178 5.8465 12.358 16.5686 12.358 10.5586 0 17.3539-8.148 18.2919-9.337v-39.3979l-34.9041-1.5161z" fill="#231f20"/><path d="m70.79 109.861c.3055 1.69 5.0721 15.008 34.904 16.852v-18.674c-5.028.72-14.0159 5.934-19.4479 5.454-4.5376-.404-9.2169-.84-13.3727-2.585-.709-.338-1.3744-.687-2.0834-1.047z" fill="#231f20"/><path d="m105.704 127.257c-32.3411-1.996-35.3843-17.158-35.417-17.31-.0161-.102-.0032-.206.0374-.301.0405-.094.107-.175.1917-.234.0871-.053.1871-.081.289-.081.102 0 .202.028.2891.081.5999.338 1.2762.677 2.0397 1.015 4.1558 1.756 8.966 2.181 13.1982 2.541 3.0977.295 7.6353-1.451 11.6056-2.978 2.4883-1.066 5.0753-1.888 7.7223-2.454.078-.011.158-.006.233.017.076.022.145.061.204.114.058.05.105.111.137.181s.049.146.048.223v18.673c0 .074-.015.148-.045.215-.03.068-.074.129-.13.178-.055.047-.119.082-.189.102-.069.021-.142.027-.214.018zm-33.9336-16.285c1.5707 3.501 8.2244 13.46 33.3886 15.162v-17.453c-2.341.589-4.634 1.351-6.8613 2.28-4.2976 1.647-8.7261 3.36-12.0856 3.043-4.363-.37-9.2169-.807-13.5363-2.617z" fill="#231f20"/><path d="m86.4423 116.819h2.3997c5.4646 0 10.7054-2.171 14.57-6.035 3.864-3.864 6.034-9.105 6.034-14.5696v-32.6246c-6.902 2.8826-14.2556 4.5328-21.7275 4.8757-7.5739.1032-15.067-1.5665-21.8806-4.8757v32.6246c0 2.7058.5329 5.3856 1.5684 7.8846 1.0355 2.5 2.5532 4.772 4.4665 6.685s4.1847 3.431 6.6845 4.466c2.4999 1.036 5.1792 1.569 7.885 1.569z" fill="#fff"/><g fill="#231f20"><path d="m109.445 63.5901v32.6246c0 5.4643-2.17 10.7053-6.034 14.5693-3.8645 3.864-9.1053 6.035-14.5699 6.035h-2.3997c-5.4646 0-10.7054-2.171-14.5695-6.035s-6.0349-9.105-6.0349-14.5693v-32.6246c6.4137 3.1143 13.4318 4.7859 20.5608 4.8975h1.3198c7.4719-.3429 14.8254-1.9931 21.7274-4.8757zm-43.6298-1.0689c-.208-.0027-.4123.054-.5891.1636-.168.097-.3072.2371-.403.4058-.0959.1688-.145.36-.1423.5541v32.57c.0057 5.7623 2.2983 11.2873 6.3742 15.3613 4.0758 4.074 9.6019 6.364 15.3646 6.367h2.3996c5.7609-.006 11.2838-2.297 15.3578-6.371 4.073-4.073 6.364-9.596 6.37-15.3573v-32.6246c0-.2893-.115-.5667-.319-.7713-.205-.2045-.482-.3194-.772-.3194-.161-.0001-.321.0333-.469.0981-6.771 2.8118-13.9786 4.4283-21.3021 4.7776h-1.2762c-6.9454-.1201-13.7818-1.7465-20.0373-4.7667-.1608-.0868-.3408-.1318-.5235-.1308z"/><path d="m87.9693 96.4433c-.988.0036-1.9753-.0547-2.956-.1745-.2075-.0251-.4064-.0983-.5806-.2138s-.319-.2702-.4229-.4516c-1.5162-2.5415 2.4978-13.3509 3.3268-15.4888.0255-.0689.0644-.1322.1144-.1861.0501-.0538.1103-.0972.1773-.1277.0669-.0304.1392-.0472.2128-.0496.0735-.0023.1467.01.2154.0362.1401.0538.2533.1608.3146.2978s.0659.2927.0126.433c-1.8215 4.7557-4.363 12.9037-3.4031 14.5071.0149.0333.0375.0625.0659.0853.0285.0227.062.0384.0977.0456 1.9433.2078 3.9032.2078 5.8464 0 .1322.0052.2583.0573.3555.1471.0972.0897.1592.2111.175.3425.0158.1313-.0158.264-.089.3742-.0733.1102-.1833.1906-.3106.227-1.046.1269-2.0985.1925-3.1522.1963z"/><path d="m89.0922 109.783c-2.9776-.126-5.8811-.968-8.4643-2.454-.1328-.07-.2326-.189-.2776-.332s-.0314-.298.0377-.431c.0715-.131.1918-.229.3347-.272s.297-.027.4288.042c4.1994 2.182 7.8207 2.847 10.744 1.898 1.7381-.536 3.2127-1.703 4.1339-3.272.0325-.066.0778-.125.1334-.174s.1203-.086.1904-.109c.07-.023.144-.033.2177-.027.0736.006.1454.026.2112.059.1338.066.2363.182.2853.323s.0405.295-.0236.43c-1.0601 1.835-2.7742 3.203-4.7993 3.828-1.0176.332-2.082.498-3.1523.491z"/><path d="m97.1718 81.1951c.6852-.0453 1.1567-1.3538 1.0531-2.9227-.1037-1.5688-.7432-2.8039-1.4285-2.7587-.6852.0453-1.1567 1.3538-1.0531 2.9227.1037 1.5689.7432 2.804 1.4285 2.7587z"/><path d="m78.7997 82.5252c.6853-.0453 1.1567-1.3538 1.0531-2.9227-.1037-1.5689-.7432-2.804-1.4284-2.7587-.6853.0453-1.1568 1.3538-1.0531 2.9227.1036 1.5688.7432 2.804 1.4284 2.7587z"/></g></g></svg>