<svg fill="none" height="368" viewBox="0 0 779 368" width="779" xmlns="http://www.w3.org/2000/svg"><path d="m0 0h779v368h-779z" fill="#fff"/><rect fill="#5600af" height="56" rx="8" width="343" x="40" y="112"/><path d="m89.8864 146h-1.4773l4.2727-11.636h1.4546l4.2727 11.636h-1.4773l-3.4773-9.795h-.0909zm.5454-4.545h5.9546v1.25h-5.9546zm17.7432-4.182v1.136h-4.522v-1.136zm-3.204-2.091h1.341v8.318c0 .379.055.663.164.852.114.186.258.311.432.375.178.061.366.091.563.091.147 0 .269-.007.363-.023.095-.018.171-.034.228-.045l.272 1.205c-.091.034-.217.068-.38.102-.163.038-.37.057-.62.057-.378 0-.75-.082-1.113-.245-.36-.163-.659-.411-.898-.744-.235-.333-.352-.754-.352-1.261zm6.67 5.568v5.25h-1.341v-11.636h1.341v4.272h.113c.205-.45.512-.808.921-1.074.413-.268.962-.403 1.648-.403.594 0 1.115.119 1.562.358.447.235.794.597 1.04 1.085.25.485.375 1.103.375 1.853v5.545h-1.341v-5.455c0-.693-.18-1.229-.54-1.607-.356-.383-.85-.574-1.483-.574-.439 0-.833.092-1.182.278-.344.186-.617.456-.818.813-.197.356-.295.787-.295 1.295zm8.032 5.25v-8.727h1.341v8.727zm.682-10.182c-.262 0-.487-.089-.676-.267-.186-.178-.279-.392-.279-.642s.093-.464.279-.642c.189-.178.414-.267.676-.267.261 0 .485.089.67.267.19.178.284.392.284.642s-.094.464-.284.642c-.185.178-.409.267-.67.267zm4.376 4.932v5.25h-1.341v-8.727h1.295v1.363h.114c.204-.443.515-.799.932-1.068.416-.273.954-.409 1.613-.409.591 0 1.108.121 1.551.364.444.238.788.602 1.035 1.091.246.484.369 1.098.369 1.841v5.545h-1.341v-5.455c0-.685-.178-1.219-.534-1.602-.356-.386-.845-.579-1.466-.579-.428 0-.811.092-1.148.278-.333.186-.596.456-.79.813-.193.356-.289.787-.289 1.295zm11.461 8.705c-.648 0-1.205-.084-1.671-.25-.465-.163-.854-.379-1.164-.648-.307-.265-.551-.549-.733-.852l1.068-.75c.121.159.274.34.46.545.186.208.439.388.761.54.326.155.752.233 1.279.233.704 0 1.286-.171 1.744-.512.459-.341.688-.875.688-1.602v-1.773h-.114c-.098.159-.239.356-.42.591-.178.231-.436.438-.773.62-.333.178-.784.267-1.352.267-.705 0-1.338-.167-1.898-.5-.557-.334-.998-.819-1.324-1.455-.322-.636-.483-1.409-.483-2.318 0-.894.157-1.672.472-2.335.314-.667.752-1.182 1.312-1.546.561-.367 1.208-.551 1.943-.551.569 0 1.019.095 1.353.284.337.186.594.398.772.637.182.234.322.428.421.579h.136v-1.386h1.296v8.977c0 .75-.171 1.36-.512 1.83-.337.473-.791.82-1.363 1.039-.569.224-1.201.336-1.898.336zm-.046-4.796c.538 0 .993-.123 1.364-.369s.653-.601.847-1.063c.193-.462.289-1.015.289-1.659 0-.629-.094-1.184-.284-1.665-.189-.481-.469-.858-.841-1.13-.371-.273-.829-.409-1.375-.409-.568 0-1.041.144-1.42.431-.375.288-.657.675-.847 1.16-.185.484-.278 1.022-.278 1.613 0 .606.095 1.142.284 1.608.193.462.477.826.852 1.091.379.261.849.392 1.409.392zm11.954-3.909v5.25h-1.341v-11.636h1.341v4.272h.114c.204-.45.511-.808.92-1.074.413-.268.962-.403 1.648-.403.595 0 1.115.119 1.562.358.447.235.794.597 1.04 1.085.25.485.375 1.103.375 1.853v5.545h-1.341v-5.455c0-.693-.18-1.229-.54-1.607-.356-.383-.85-.574-1.482-.574-.44 0-.834.092-1.182.278-.345.186-.618.456-.818.813-.197.356-.296.787-.296 1.295zm10.6 5.455c-.553 0-1.054-.105-1.505-.313-.451-.212-.809-.517-1.074-.915-.265-.401-.398-.886-.398-1.454 0-.5.099-.906.296-1.216.197-.315.46-.561.789-.739.33-.178.694-.31 1.091-.398.402-.09.805-.162 1.211-.215.53-.069.96-.12 1.289-.154.334-.038.576-.1.728-.187.155-.087.233-.239.233-.455v-.045c0-.561-.154-.997-.461-1.307-.303-.311-.763-.466-1.38-.466-.641 0-1.142.14-1.506.42-.364.281-.619.58-.767.898l-1.273-.454c.227-.531.53-.944.909-1.239.383-.299.8-.508 1.25-.625.455-.121.902-.182 1.341-.182.28 0 .602.034.966.102.368.065.722.199 1.063.404.344.204.63.513.858.926.227.413.34.966.34 1.659v5.75h-1.34v-1.182h-.069c-.091.19-.242.392-.454.608s-.495.4-.847.551c-.352.152-.782.228-1.29.228zm.205-1.205c.53 0 .977-.104 1.341-.312.367-.209.644-.478.829-.807.19-.33.285-.676.285-1.04v-1.227c-.057.068-.182.13-.375.187-.19.053-.41.101-.66.142-.246.038-.486.072-.721.102-.231.027-.419.05-.563.069-.348.045-.674.119-.977.221-.299.099-.542.248-.727.449-.182.197-.273.466-.273.807 0 .466.172.818.517 1.057.349.235.79.352 1.324.352zm6.163 4.273v-12h1.295v1.386h.159c.099-.151.235-.345.41-.579.178-.239.431-.451.761-.637.333-.189.784-.284 1.352-.284.735 0 1.383.184 1.943.551.561.368.998.888 1.313 1.563.314.674.471 1.469.471 2.386 0 .924-.157 1.725-.471 2.403-.315.675-.75 1.197-1.307 1.569-.557.367-1.199.551-1.926.551-.561 0-1.01-.093-1.347-.279-.337-.189-.596-.403-.778-.642-.182-.242-.322-.443-.421-.602h-.113v4.614zm1.318-7.637c0 .659.097 1.241.29 1.745.193.5.475.892.846 1.176.372.28.826.42 1.364.42.561 0 1.028-.147 1.403-.443.379-.299.663-.701.853-1.204.193-.508.29-1.072.29-1.694 0-.613-.095-1.166-.285-1.659-.185-.496-.467-.888-.846-1.176-.375-.292-.847-.437-1.415-.437-.545 0-1.004.138-1.375.414-.371.273-.651.656-.841 1.148-.189.489-.284 1.059-.284 1.71zm8.352 7.637v-12h1.295v1.386h.159c.099-.151.235-.345.41-.579.178-.239.431-.451.761-.637.333-.189.784-.284 1.352-.284.735 0 1.383.184 1.943.551.561.368.998.888 1.313 1.563.314.674.471 1.469.471 2.386 0 .924-.157 1.725-.471 2.403-.315.675-.75 1.197-1.307 1.569-.557.367-1.199.551-1.926.551-.561 0-1.01-.093-1.347-.279-.337-.189-.596-.403-.778-.642-.182-.242-.322-.443-.421-.602h-.113v4.614zm1.318-7.637c0 .659.097 1.241.29 1.745.193.5.475.892.846 1.176.372.28.826.42 1.364.42.561 0 1.028-.147 1.403-.443.379-.299.663-.701.853-1.204.193-.508.29-1.072.29-1.694 0-.613-.095-1.166-.285-1.659-.185-.496-.467-.888-.846-1.176-.375-.292-.847-.437-1.415-.437-.545 0-1.004.138-1.375.414-.371.273-.651.656-.841 1.148-.189.489-.284 1.059-.284 1.71zm12.011 4.546c-.841 0-1.566-.186-2.176-.557-.606-.375-1.074-.898-1.404-1.568-.325-.674-.488-1.459-.488-2.352 0-.894.163-1.682.488-2.364.33-.686.788-1.22 1.375-1.602.591-.387 1.281-.58 2.069-.58.454 0 .903.076 1.346.227.443.152.847.398 1.21.739.364.337.654.784.87 1.341s.324 1.242.324 2.057v.568h-6.728v-1.159h5.364c0-.493-.098-.932-.295-1.318-.194-.387-.47-.692-.83-.915-.356-.224-.777-.335-1.261-.335-.534 0-.997.132-1.387.397-.386.262-.683.603-.892 1.023-.208.421-.312.871-.312 1.352v.773c0 .659.113 1.218.341 1.676.231.455.551.801.96 1.04.409.235.884.352 1.426.352.352 0 .67-.049.955-.147.287-.103.536-.254.744-.455.208-.205.369-.458.483-.761l1.295.363c-.136.44-.365.826-.687 1.159-.322.33-.72.587-1.193.773-.474.182-1.006.273-1.597.273zm6.914-5.432v5.25h-1.341v-8.727h1.296v1.363h.113c.205-.443.516-.799.932-1.068.417-.273.955-.409 1.614-.409.591 0 1.108.121 1.551.364.443.238.788.602 1.034 1.091.246.484.369 1.098.369 1.841v5.545h-1.34v-5.455c0-.685-.178-1.219-.535-1.602-.356-.386-.844-.579-1.465-.579-.428 0-.811.092-1.148.278-.333.186-.597.456-.79.813-.193.356-.29.787-.29 1.295zm11.598 5.432c-.841 0-1.566-.186-2.176-.557-.606-.375-1.074-.898-1.404-1.568-.325-.674-.488-1.459-.488-2.352 0-.894.163-1.682.488-2.364.33-.686.788-1.22 1.375-1.602.591-.387 1.281-.58 2.068-.58.455 0 .904.076 1.347.227.443.152.847.398 1.21.739.364.337.654.784.87 1.341s.323 1.242.323 2.057v.568h-6.727v-1.159h5.364c0-.493-.099-.932-.296-1.318-.193-.387-.469-.692-.829-.915-.356-.224-.777-.335-1.262-.335-.534 0-.996.132-1.386.397-.386.262-.684.603-.892 1.023-.208.421-.312.871-.312 1.352v.773c0 .659.113 1.218.34 1.676.232.455.552.801.961 1.04.409.235.884.352 1.426.352.352 0 .67-.049.954-.147.288-.103.536-.254.745-.455.208-.205.369-.458.483-.761l1.295.363c-.136.44-.365.826-.687 1.159-.322.33-.72.587-1.194.773-.473.182-1.005.273-1.596.273zm8.869 0c-.728 0-1.37-.184-1.926-.551-.557-.372-.993-.894-1.307-1.569-.315-.678-.472-1.479-.472-2.403 0-.917.157-1.712.472-2.386.314-.675.752-1.195 1.312-1.563.561-.367 1.209-.551 1.943-.551.569 0 1.018.095 1.347.284.333.186.587.398.761.637.178.234.317.428.415.579h.114v-4.295h1.341v11.636h-1.296v-1.341h-.159c-.098.159-.238.36-.42.602-.182.239-.442.453-.779.642-.337.186-.786.279-1.346.279zm.182-1.205c.537 0 .992-.14 1.363-.42.371-.284.654-.676.847-1.176.193-.504.29-1.086.29-1.745 0-.651-.095-1.221-.285-1.71-.189-.492-.469-.875-.84-1.148-.372-.276-.83-.414-1.375-.414-.569 0-1.042.145-1.421.437-.375.288-.657.68-.846 1.176-.186.493-.279 1.046-.279 1.659 0 .622.095 1.186.284 1.694.193.503.477.905.852 1.204.379.296.849.443 1.41.443z" fill="#fff"/><path d="m74.7099 135.21c-.0929-.094-.2035-.168-.3254-.219-.1218-.051-.2525-.077-.3846-.077-.132 0-.2627.026-.3845.077-.1219.051-.2325.125-.3254.219l-7.45 7.46-3.1301-3.14c-.0965-.093-.2104-.166-.3353-.216-.1248-.049-.2581-.073-.3923-.071-.1342.003-.2666.031-.3897.085-.1231.053-.2344.131-.3277.227-.0932.097-.1665.211-.2157.335-.0492.125-.0733.259-.071.393s.031.266.0845.389c.0535.124.1307.235.2272.328l3.8401 3.84c.0929.094.2035.168.3254.219.1218.051.2525.077.3846.077.132 0 .2627-.026.3845-.077.1219-.051.2325-.125.3255-.219l8.1599-8.16c.1016-.094.1826-.207.238-.334.0554-.126.084-.263.084-.401s-.0286-.275-.084-.401c-.0554-.127-.1364-.24-.238-.334z" fill="#fff"/><rect fill="#5600af" height="56" rx="8" width="343" x="392" y="112"/><g fill="#fff"><path d="m441.886 146h-1.477l4.273-11.636h1.454l4.273 11.636h-1.477l-3.477-9.795h-.091zm.546-4.545h5.954v1.25h-5.954zm17.743-4.182v1.136h-4.522v-1.136zm-3.204-2.091h1.341v8.318c0 .379.055.663.164.852.114.186.258.311.432.375.178.061.366.091.563.091.147 0 .269-.007.363-.023.095-.018.171-.034.228-.045l.272 1.205c-.091.034-.217.068-.38.102-.163.038-.37.057-.62.057-.378 0-.75-.082-1.113-.245-.36-.163-.659-.411-.898-.744-.235-.333-.352-.754-.352-1.261zm6.67 5.568v5.25h-1.341v-11.636h1.341v4.272h.113c.205-.45.512-.808.921-1.074.413-.268.962-.403 1.648-.403.594 0 1.115.119 1.562.358.447.235.794.597 1.04 1.085.25.485.375 1.103.375 1.853v5.545h-1.341v-5.455c0-.693-.18-1.229-.54-1.607-.356-.383-.85-.574-1.483-.574-.439 0-.833.092-1.182.278-.344.186-.617.456-.818.813-.197.356-.295.787-.295 1.295zm8.032 5.25v-8.727h1.341v8.727zm.682-10.182c-.262 0-.487-.089-.676-.267-.186-.178-.279-.392-.279-.642s.093-.464.279-.642c.189-.178.414-.267.676-.267.261 0 .485.089.67.267.19.178.284.392.284.642s-.094.464-.284.642c-.185.178-.409.267-.67.267zm4.376 4.932v5.25h-1.341v-8.727h1.295v1.363h.114c.204-.443.515-.799.932-1.068.416-.273.954-.409 1.613-.409.591 0 1.108.121 1.551.364.444.238.788.602 1.035 1.091.246.484.369 1.098.369 1.841v5.545h-1.341v-5.455c0-.685-.178-1.219-.534-1.602-.356-.386-.845-.579-1.466-.579-.428 0-.811.092-1.148.278-.333.186-.596.456-.79.813-.193.356-.289.787-.289 1.295zm11.461 8.705c-.648 0-1.205-.084-1.671-.25-.465-.163-.854-.379-1.164-.648-.307-.265-.551-.549-.733-.852l1.068-.75c.121.159.274.34.46.545.186.208.439.388.761.54.326.155.752.233 1.279.233.704 0 1.286-.171 1.744-.512.459-.341.688-.875.688-1.602v-1.773h-.114c-.098.159-.239.356-.42.591-.178.231-.436.438-.773.62-.333.178-.784.267-1.352.267-.705 0-1.338-.167-1.898-.5-.557-.334-.998-.819-1.324-1.455-.322-.636-.483-1.409-.483-2.318 0-.894.157-1.672.472-2.335.314-.667.752-1.182 1.312-1.546.561-.367 1.208-.551 1.943-.551.569 0 1.019.095 1.353.284.337.186.594.398.772.637.182.234.322.428.421.579h.136v-1.386h1.296v8.977c0 .75-.171 1.36-.512 1.83-.337.473-.791.82-1.363 1.039-.569.224-1.201.336-1.898.336zm-.046-4.796c.538 0 .993-.123 1.364-.369s.653-.601.847-1.063c.193-.462.289-1.015.289-1.659 0-.629-.094-1.184-.284-1.665-.189-.481-.469-.858-.841-1.13-.371-.273-.829-.409-1.375-.409-.568 0-1.041.144-1.42.431-.375.288-.657.675-.847 1.16-.185.484-.278 1.022-.278 1.613 0 .606.095 1.142.284 1.608.193.462.477.826.852 1.091.379.261.849.392 1.409.392zm11.954-3.909v5.25h-1.341v-11.636h1.341v4.272h.114c.204-.45.511-.808.92-1.074.413-.268.962-.403 1.648-.403.595 0 1.115.119 1.562.358.447.235.794.597 1.04 1.085.25.485.375 1.103.375 1.853v5.545h-1.341v-5.455c0-.693-.18-1.229-.54-1.607-.356-.383-.85-.574-1.482-.574-.44 0-.834.092-1.182.278-.345.186-.618.456-.818.813-.197.356-.296.787-.296 1.295zm10.6 5.455c-.553 0-1.054-.105-1.505-.313-.451-.212-.809-.517-1.074-.915-.265-.401-.398-.886-.398-1.454 0-.5.099-.906.296-1.216.197-.315.46-.561.789-.739.33-.178.694-.31 1.091-.398.402-.09.805-.162 1.211-.215.53-.069.96-.12 1.289-.154.334-.038.576-.1.728-.187.155-.087.233-.239.233-.455v-.045c0-.561-.154-.997-.461-1.307-.303-.311-.763-.466-1.38-.466-.641 0-1.142.14-1.506.42-.364.281-.619.58-.767.898l-1.273-.454c.227-.531.53-.944.909-1.239.383-.299.8-.508 1.25-.625.455-.121.902-.182 1.341-.182.28 0 .602.034.966.102.368.065.722.199 1.063.404.344.204.63.513.858.926.227.413.34.966.34 1.659v5.75h-1.34v-1.182h-.069c-.091.19-.242.392-.454.608s-.495.4-.847.551c-.352.152-.782.228-1.29.228zm.205-1.205c.53 0 .977-.104 1.341-.312.367-.209.644-.478.829-.807.19-.33.285-.676.285-1.04v-1.227c-.057.068-.182.13-.375.187-.19.053-.41.101-.66.142-.246.038-.486.072-.721.102-.231.027-.419.05-.563.069-.348.045-.674.119-.977.221-.299.099-.542.248-.727.449-.182.197-.273.466-.273.807 0 .466.172.818.517 1.057.349.235.79.352 1.324.352zm6.163 4.273v-12h1.295v1.386h.159c.099-.151.235-.345.41-.579.178-.239.431-.451.761-.637.333-.189.784-.284 1.352-.284.735 0 1.383.184 1.943.551.561.368.998.888 1.313 1.563.314.674.471 1.469.471 2.386 0 .924-.157 1.725-.471 2.403-.315.675-.75 1.197-1.307 1.569-.557.367-1.199.551-1.926.551-.561 0-1.01-.093-1.347-.279-.337-.189-.596-.403-.778-.642-.182-.242-.322-.443-.421-.602h-.113v4.614zm1.318-7.637c0 .659.097 1.241.29 1.745.193.5.475.892.846 1.176.372.28.826.42 1.364.42.561 0 1.028-.147 1.403-.443.379-.299.663-.701.853-1.204.193-.508.29-1.072.29-1.694 0-.613-.095-1.166-.285-1.659-.185-.496-.467-.888-.846-1.176-.375-.292-.847-.437-1.415-.437-.545 0-1.004.138-1.375.414-.371.273-.651.656-.841 1.148-.189.489-.284 1.059-.284 1.71zm8.352 7.637v-12h1.295v1.386h.159c.099-.151.235-.345.41-.579.178-.239.431-.451.761-.637.333-.189.784-.284 1.352-.284.735 0 1.383.184 1.943.551.561.368.998.888 1.313 1.563.314.674.471 1.469.471 2.386 0 .924-.157 1.725-.471 2.403-.315.675-.75 1.197-1.307 1.569-.557.367-1.199.551-1.926.551-.561 0-1.01-.093-1.347-.279-.337-.189-.596-.403-.778-.642-.182-.242-.322-.443-.421-.602h-.113v4.614zm1.318-7.637c0 .659.097 1.241.29 1.745.193.5.475.892.846 1.176.372.28.826.42 1.364.42.561 0 1.028-.147 1.403-.443.379-.299.663-.701.853-1.204.193-.508.29-1.072.29-1.694 0-.613-.095-1.166-.285-1.659-.185-.496-.467-.888-.846-1.176-.375-.292-.847-.437-1.415-.437-.545 0-1.004.138-1.375.414-.371.273-.651.656-.841 1.148-.189.489-.284 1.059-.284 1.71zm12.011 4.546c-.841 0-1.566-.186-2.176-.557-.606-.375-1.074-.898-1.404-1.568-.325-.674-.488-1.459-.488-2.352 0-.894.163-1.682.488-2.364.33-.686.788-1.22 1.375-1.602.591-.387 1.281-.58 2.069-.58.454 0 .903.076 1.346.227.443.152.847.398 1.21.739.364.337.654.784.87 1.341s.324 1.242.324 2.057v.568h-6.728v-1.159h5.364c0-.493-.098-.932-.295-1.318-.194-.387-.47-.692-.83-.915-.356-.224-.777-.335-1.261-.335-.534 0-.997.132-1.387.397-.386.262-.683.603-.892 1.023-.208.421-.312.871-.312 1.352v.773c0 .659.113 1.218.341 1.676.231.455.551.801.96 1.04.409.235.884.352 1.426.352.352 0 .67-.049.955-.147.287-.103.536-.254.744-.455.208-.205.369-.458.483-.761l1.295.363c-.136.44-.365.826-.687 1.159-.322.33-.72.587-1.193.773-.474.182-1.006.273-1.597.273zm6.914-5.432v5.25h-1.341v-8.727h1.296v1.363h.113c.205-.443.516-.799.932-1.068.417-.273.955-.409 1.614-.409.591 0 1.108.121 1.551.364.443.238.788.602 1.034 1.091.246.484.369 1.098.369 1.841v5.545h-1.34v-5.455c0-.685-.178-1.219-.535-1.602-.356-.386-.844-.579-1.465-.579-.428 0-.811.092-1.148.278-.333.186-.597.456-.79.813-.193.356-.29.787-.29 1.295zm11.598 5.432c-.841 0-1.566-.186-2.176-.557-.606-.375-1.074-.898-1.404-1.568-.325-.674-.488-1.459-.488-2.352 0-.894.163-1.682.488-2.364.33-.686.788-1.22 1.375-1.602.591-.387 1.281-.58 2.068-.58.455 0 .904.076 1.347.227.443.152.847.398 1.21.739.364.337.654.784.87 1.341s.323 1.242.323 2.057v.568h-6.727v-1.159h5.364c0-.493-.099-.932-.296-1.318-.193-.387-.469-.692-.829-.915-.356-.224-.777-.335-1.262-.335-.534 0-.996.132-1.386.397-.386.262-.684.603-.892 1.023-.208.421-.312.871-.312 1.352v.773c0 .659.113 1.218.34 1.676.232.455.552.801.961 1.04.409.235.884.352 1.426.352.352 0 .67-.049.954-.147.288-.103.536-.254.745-.455.208-.205.369-.458.483-.761l1.295.363c-.136.44-.365.826-.687 1.159-.322.33-.72.587-1.194.773-.473.182-1.005.273-1.596.273zm8.869 0c-.728 0-1.37-.184-1.926-.551-.557-.372-.993-.894-1.307-1.569-.315-.678-.472-1.479-.472-2.403 0-.917.157-1.712.472-2.386.314-.675.752-1.195 1.312-1.563.561-.367 1.209-.551 1.943-.551.569 0 1.018.095 1.347.284.333.186.587.398.761.637.178.234.317.428.415.579h.114v-4.295h1.341v11.636h-1.296v-1.341h-.159c-.098.159-.238.36-.42.602-.182.239-.442.453-.779.642-.337.186-.786.279-1.346.279zm.182-1.205c.537 0 .992-.14 1.363-.42.371-.284.654-.676.847-1.176.193-.504.29-1.086.29-1.745 0-.651-.095-1.221-.285-1.71-.189-.492-.469-.875-.84-1.148-.372-.276-.83-.414-1.375-.414-.569 0-1.042.145-1.421.437-.375.288-.657.68-.846 1.176-.186.493-.279 1.046-.279 1.659 0 .622.095 1.186.284 1.694.193.503.477.905.852 1.204.379.296.849.443 1.41.443z"/><path d="m685.955 134.364h2.107v7.602c0 .833-.196 1.566-.59 2.199-.391.632-.94 1.127-1.648 1.483-.708.352-1.536.528-2.483.528-.951 0-1.78-.176-2.489-.528-.708-.356-1.257-.851-1.647-1.483-.391-.633-.586-1.366-.586-2.199v-7.602h2.108v7.426c0 .485.106.916.318 1.295.216.379.519.676.91.892.39.212.852.318 1.386.318s.996-.106 1.386-.318c.394-.216.697-.513.909-.892s.319-.81.319-1.295zm6.285 6.522v5.114h-2.057v-8.727h1.966v1.483h.102c.201-.489.521-.877.96-1.165.443-.288.991-.432 1.642-.432.602 0 1.127.129 1.574.386.451.258.799.631 1.046 1.12.25.488.373 1.081.369 1.778v5.557h-2.057v-5.239c0-.583-.151-1.039-.455-1.369-.299-.33-.714-.494-1.244-.494-.36 0-.68.079-.96.238-.277.156-.494.381-.653.676-.156.296-.233.654-.233 1.074zm10.851 5.267c-.685 0-1.299-.176-1.841-.528-.541-.352-.969-.864-1.284-1.534-.314-.671-.471-1.485-.471-2.443 0-.97.159-1.788.477-2.455.322-.67.756-1.176 1.301-1.517.546-.345 1.154-.517 1.824-.517.511 0 .932.087 1.261.261.33.171.591.377.785.62.193.238.342.464.448.676h.086v-4.352h2.062v11.636h-2.023v-1.375h-.125c-.106.212-.259.437-.46.676-.201.235-.466.436-.795.602-.33.167-.745.25-1.245.25zm.574-1.687c.436 0 .807-.118 1.114-.352.307-.239.54-.57.699-.995.159-.424.238-.918.238-1.483 0-.564-.079-1.055-.238-1.471-.156-.417-.387-.741-.693-.972-.303-.231-.677-.346-1.12-.346-.458 0-.841.119-1.147.358-.307.238-.538.568-.694.988-.155.421-.233.902-.233 1.443 0 .546.078 1.033.233 1.461.159.424.392.759.699 1.005.311.243.691.364 1.142.364zm9.993 1.704c-.853 0-1.591-.187-2.216-.562s-1.11-.9-1.455-1.574c-.341-.674-.511-1.462-.511-2.364 0-.901.17-1.691.511-2.369.345-.678.83-1.204 1.455-1.579s1.363-.563 2.216-.563c.852 0 1.591.188 2.216.563s1.108.901 1.448 1.579c.345.678.518 1.468.518 2.369 0 .902-.173 1.69-.518 2.364-.34.674-.823 1.199-1.448 1.574s-1.364.562-2.216.562zm.011-1.647c.462 0 .849-.127 1.159-.381.311-.258.542-.602.693-1.034.156-.432.233-.913.233-1.443 0-.534-.077-1.017-.233-1.449-.151-.436-.382-.782-.693-1.04-.31-.257-.697-.386-1.159-.386-.473 0-.867.129-1.182.386-.31.258-.543.604-.699 1.04-.151.432-.227.915-.227 1.449 0 .53.076 1.011.227 1.443.156.432.389.776.699 1.034.315.254.709.381 1.182.381z"/><path d="m426.71 135.21c-.093-.094-.204-.168-.325-.219-.122-.051-.253-.077-.385-.077s-.263.026-.385.077c-.121.051-.232.125-.325.219l-7.45 7.46-3.13-3.14c-.097-.093-.211-.166-.335-.216-.125-.049-.259-.073-.393-.071-.134.003-.266.031-.389.085-.123.053-.235.131-.328.227-.093.097-.167.211-.216.335-.049.125-.073.259-.071.393.003.134.031.266.085.389.053.124.13.235.227.328l3.84 3.84c.093.094.204.168.325.219.122.051.253.077.385.077s.263-.026.385-.077c.121-.051.232-.125.325-.219l8.16-8.16c.101-.094.182-.207.238-.334.055-.126.084-.263.084-.401s-.029-.275-.084-.401c-.056-.127-.137-.24-.238-.334z"/></g><rect fill="#00bdaa" height="56" rx="8" width="343" x="40" y="184"/><path d="m89.8864 218h-1.4773l4.2727-11.636h1.4546l4.2727 11.636h-1.4773l-3.4773-9.795h-.0909zm.5454-4.545h5.9546v1.25h-5.9546zm17.7432-4.182v1.136h-4.522v-1.136zm-3.204-2.091h1.341v8.318c0 .379.055.663.164.852.114.186.258.311.432.375.178.061.366.091.563.091.147 0 .269-.007.363-.023.095-.018.171-.034.228-.045l.272 1.205c-.091.034-.217.068-.38.102-.163.038-.37.057-.62.057-.378 0-.75-.082-1.113-.245-.36-.163-.659-.411-.898-.744-.235-.333-.352-.754-.352-1.261zm6.67 5.568v5.25h-1.341v-11.636h1.341v4.272h.113c.205-.45.512-.808.921-1.074.413-.268.962-.403 1.648-.403.594 0 1.115.119 1.562.358.447.235.794.597 1.04 1.085.25.485.375 1.103.375 1.853v5.545h-1.341v-5.455c0-.693-.18-1.229-.54-1.607-.356-.383-.85-.574-1.483-.574-.439 0-.833.092-1.182.278-.344.186-.617.456-.818.813-.197.356-.295.787-.295 1.295zm8.032 5.25v-8.727h1.341v8.727zm.682-10.182c-.262 0-.487-.089-.676-.267-.186-.178-.279-.392-.279-.642s.093-.464.279-.642c.189-.178.414-.267.676-.267.261 0 .485.089.67.267.19.178.284.392.284.642s-.094.464-.284.642c-.185.178-.409.267-.67.267zm4.376 4.932v5.25h-1.341v-8.727h1.295v1.363h.114c.204-.443.515-.799.932-1.068.416-.273.954-.409 1.613-.409.591 0 1.108.121 1.551.364.444.238.788.602 1.035 1.091.246.484.369 1.098.369 1.841v5.545h-1.341v-5.455c0-.685-.178-1.219-.534-1.602-.356-.386-.845-.579-1.466-.579-.428 0-.811.092-1.148.278-.333.186-.596.456-.79.813-.193.356-.289.787-.289 1.295zm11.461 8.705c-.648 0-1.205-.084-1.671-.25-.465-.163-.854-.379-1.164-.648-.307-.265-.551-.549-.733-.852l1.068-.75c.121.159.274.34.46.545.186.208.439.388.761.54.326.155.752.233 1.279.233.704 0 1.286-.171 1.744-.512.459-.341.688-.875.688-1.602v-1.773h-.114c-.098.159-.239.356-.42.591-.178.231-.436.438-.773.62-.333.178-.784.267-1.352.267-.705 0-1.338-.167-1.898-.5-.557-.334-.998-.819-1.324-1.455-.322-.636-.483-1.409-.483-2.318 0-.894.157-1.672.472-2.335.314-.667.752-1.182 1.312-1.546.561-.367 1.208-.551 1.943-.551.569 0 1.019.095 1.353.284.337.186.594.398.772.637.182.234.322.428.421.579h.136v-1.386h1.296v8.977c0 .75-.171 1.36-.512 1.83-.337.473-.791.82-1.363 1.039-.569.224-1.201.336-1.898.336zm-.046-4.796c.538 0 .993-.123 1.364-.369s.653-.601.847-1.063c.193-.462.289-1.015.289-1.659 0-.629-.094-1.184-.284-1.665-.189-.481-.469-.858-.841-1.13-.371-.273-.829-.409-1.375-.409-.568 0-1.041.144-1.42.431-.375.288-.657.675-.847 1.16-.185.484-.278 1.022-.278 1.613 0 .606.095 1.142.284 1.608.193.462.477.826.852 1.091.379.261.849.392 1.409.392zm11.954-3.909v5.25h-1.341v-11.636h1.341v4.272h.114c.204-.45.511-.808.92-1.074.413-.268.962-.403 1.648-.403.595 0 1.115.119 1.562.358.447.235.794.597 1.04 1.085.25.485.375 1.103.375 1.853v5.545h-1.341v-5.455c0-.693-.18-1.229-.54-1.607-.356-.383-.85-.574-1.482-.574-.44 0-.834.092-1.182.278-.345.186-.618.456-.818.813-.197.356-.296.787-.296 1.295zm10.6 5.455c-.553 0-1.054-.105-1.505-.313-.451-.212-.809-.517-1.074-.915-.265-.401-.398-.886-.398-1.454 0-.5.099-.906.296-1.216.197-.315.46-.561.789-.739.33-.178.694-.31 1.091-.398.402-.09.805-.162 1.211-.215.53-.069.96-.12 1.289-.154.334-.038.576-.1.728-.187.155-.087.233-.239.233-.455v-.045c0-.561-.154-.997-.461-1.307-.303-.311-.763-.466-1.38-.466-.641 0-1.142.14-1.506.42-.364.281-.619.58-.767.898l-1.273-.454c.227-.531.53-.944.909-1.239.383-.299.8-.508 1.25-.625.455-.121.902-.182 1.341-.182.28 0 .602.034.966.102.368.065.722.199 1.063.404.344.204.63.513.858.926.227.413.34.966.34 1.659v5.75h-1.34v-1.182h-.069c-.091.19-.242.392-.454.608s-.495.4-.847.551c-.352.152-.782.228-1.29.228zm.205-1.205c.53 0 .977-.104 1.341-.312.367-.209.644-.478.829-.807.19-.33.285-.676.285-1.04v-1.227c-.057.068-.182.13-.375.187-.19.053-.41.101-.66.142-.246.038-.486.072-.721.102-.231.027-.419.05-.563.069-.348.045-.674.119-.977.221-.299.099-.542.248-.727.449-.182.197-.273.466-.273.807 0 .466.172.818.517 1.057.349.235.79.352 1.324.352zm6.163 4.273v-12h1.295v1.386h.159c.099-.151.235-.345.41-.579.178-.239.431-.451.761-.637.333-.189.784-.284 1.352-.284.735 0 1.383.184 1.943.551.561.368.998.888 1.313 1.563.314.674.471 1.469.471 2.386 0 .924-.157 1.725-.471 2.403-.315.675-.75 1.197-1.307 1.569-.557.367-1.199.551-1.926.551-.561 0-1.01-.093-1.347-.279-.337-.189-.596-.403-.778-.642-.182-.242-.322-.443-.421-.602h-.113v4.614zm1.318-7.637c0 .659.097 1.241.29 1.745.193.5.475.892.846 1.176.372.28.826.42 1.364.42.561 0 1.028-.147 1.403-.443.379-.299.663-.701.853-1.204.193-.508.29-1.072.29-1.694 0-.613-.095-1.166-.285-1.659-.185-.496-.467-.888-.846-1.176-.375-.292-.847-.437-1.415-.437-.545 0-1.004.138-1.375.414-.371.273-.651.656-.841 1.148-.189.489-.284 1.059-.284 1.71zm8.352 7.637v-12h1.295v1.386h.159c.099-.151.235-.345.41-.579.178-.239.431-.451.761-.637.333-.189.784-.284 1.352-.284.735 0 1.383.184 1.943.551.561.368.998.888 1.313 1.563.314.674.471 1.469.471 2.386 0 .924-.157 1.725-.471 2.403-.315.675-.75 1.197-1.307 1.569-.557.367-1.199.551-1.926.551-.561 0-1.01-.093-1.347-.279-.337-.189-.596-.403-.778-.642-.182-.242-.322-.443-.421-.602h-.113v4.614zm1.318-7.637c0 .659.097 1.241.29 1.745.193.5.475.892.846 1.176.372.28.826.42 1.364.42.561 0 1.028-.147 1.403-.443.379-.299.663-.701.853-1.204.193-.508.29-1.072.29-1.694 0-.613-.095-1.166-.285-1.659-.185-.496-.467-.888-.846-1.176-.375-.292-.847-.437-1.415-.437-.545 0-1.004.138-1.375.414-.371.273-.651.656-.841 1.148-.189.489-.284 1.059-.284 1.71zm12.011 4.546c-.841 0-1.566-.186-2.176-.557-.606-.375-1.074-.898-1.404-1.568-.325-.674-.488-1.459-.488-2.352 0-.894.163-1.682.488-2.364.33-.686.788-1.22 1.375-1.602.591-.387 1.281-.58 2.069-.58.454 0 .903.076 1.346.227.443.152.847.398 1.21.739.364.337.654.784.87 1.341s.324 1.242.324 2.057v.568h-6.728v-1.159h5.364c0-.493-.098-.932-.295-1.318-.194-.387-.47-.692-.83-.915-.356-.224-.777-.335-1.261-.335-.534 0-.997.132-1.387.397-.386.262-.683.603-.892 1.023-.208.421-.312.871-.312 1.352v.773c0 .659.113 1.218.341 1.676.231.455.551.801.96 1.04.409.235.884.352 1.426.352.352 0 .67-.049.955-.147.287-.103.536-.254.744-.455.208-.205.369-.458.483-.761l1.295.363c-.136.44-.365.826-.687 1.159-.322.33-.72.587-1.193.773-.474.182-1.006.273-1.597.273zm6.914-5.432v5.25h-1.341v-8.727h1.296v1.363h.113c.205-.443.516-.799.932-1.068.417-.273.955-.409 1.614-.409.591 0 1.108.121 1.551.364.443.238.788.602 1.034 1.091.246.484.369 1.098.369 1.841v5.545h-1.34v-5.455c0-.685-.178-1.219-.535-1.602-.356-.386-.844-.579-1.465-.579-.428 0-.811.092-1.148.278-.333.186-.597.456-.79.813-.193.356-.29.787-.29 1.295zm11.598 5.432c-.841 0-1.566-.186-2.176-.557-.606-.375-1.074-.898-1.404-1.568-.325-.674-.488-1.459-.488-2.352 0-.894.163-1.682.488-2.364.33-.686.788-1.22 1.375-1.602.591-.387 1.281-.58 2.068-.58.455 0 .904.076 1.347.227.443.152.847.398 1.21.739.364.337.654.784.87 1.341s.323 1.242.323 2.057v.568h-6.727v-1.159h5.364c0-.493-.099-.932-.296-1.318-.193-.387-.469-.692-.829-.915-.356-.224-.777-.335-1.262-.335-.534 0-.996.132-1.386.397-.386.262-.684.603-.892 1.023-.208.421-.312.871-.312 1.352v.773c0 .659.113 1.218.34 1.676.232.455.552.801.961 1.04.409.235.884.352 1.426.352.352 0 .67-.049.954-.147.288-.103.536-.254.745-.455.208-.205.369-.458.483-.761l1.295.363c-.136.44-.365.826-.687 1.159-.322.33-.72.587-1.194.773-.473.182-1.005.273-1.596.273zm8.869 0c-.728 0-1.37-.184-1.926-.551-.557-.372-.993-.894-1.307-1.569-.315-.678-.472-1.479-.472-2.403 0-.917.157-1.712.472-2.386.314-.675.752-1.195 1.312-1.563.561-.367 1.209-.551 1.943-.551.569 0 1.018.095 1.347.284.333.186.587.398.761.637.178.234.317.428.415.579h.114v-4.295h1.341v11.636h-1.296v-1.341h-.159c-.098.159-.238.36-.42.602-.182.239-.442.453-.779.642-.337.186-.786.279-1.346.279zm.182-1.205c.537 0 .992-.14 1.363-.42.371-.284.654-.676.847-1.176.193-.504.29-1.086.29-1.745 0-.651-.095-1.221-.285-1.71-.189-.492-.469-.875-.84-1.148-.372-.276-.83-.414-1.375-.414-.569 0-1.042.145-1.421.437-.375.288-.657.68-.846 1.176-.186.493-.279 1.046-.279 1.659 0 .622.095 1.186.284 1.694.193.503.477.905.852 1.204.379.296.849.443 1.41.443z" fill="#fff"/><path d="m74.7099 207.21c-.0929-.094-.2035-.168-.3254-.219-.1218-.051-.2525-.077-.3846-.077-.132 0-.2627.026-.3845.077-.1219.051-.2325.125-.3254.219l-7.45 7.46-3.1301-3.14c-.0965-.093-.2104-.166-.3353-.216-.1248-.049-.2581-.073-.3923-.071-.1342.003-.2666.031-.3897.085-.1231.053-.2344.131-.3277.227-.0932.097-.1665.211-.2157.335-.0492.125-.0733.259-.071.393s.031.266.0845.389c.0535.124.1307.235.2272.328l3.8401 3.84c.0929.094.2035.168.3254.219.1218.051.2525.077.3846.077.132 0 .2627-.026.3845-.077.1219-.051.2325-.125.3255-.219l8.1599-8.16c.1016-.094.1826-.207.238-.334.0554-.126.084-.263.084-.401s-.0286-.275-.084-.401c-.0554-.127-.1364-.24-.238-.334z" fill="#fff"/><rect fill="#00bdaa" height="56" rx="8" width="343" x="392" y="184"/><g fill="#fff"><path d="m441.886 218h-1.477l4.273-11.636h1.454l4.273 11.636h-1.477l-3.477-9.795h-.091zm.546-4.545h5.954v1.25h-5.954zm17.743-4.182v1.136h-4.522v-1.136zm-3.204-2.091h1.341v8.318c0 .379.055.663.164.852.114.186.258.311.432.375.178.061.366.091.563.091.147 0 .269-.007.363-.023.095-.018.171-.034.228-.045l.272 1.205c-.091.034-.217.068-.38.102-.163.038-.37.057-.62.057-.378 0-.75-.082-1.113-.245-.36-.163-.659-.411-.898-.744-.235-.333-.352-.754-.352-1.261zm6.67 5.568v5.25h-1.341v-11.636h1.341v4.272h.113c.205-.45.512-.808.921-1.074.413-.268.962-.403 1.648-.403.594 0 1.115.119 1.562.358.447.235.794.597 1.04 1.085.25.485.375 1.103.375 1.853v5.545h-1.341v-5.455c0-.693-.18-1.229-.54-1.607-.356-.383-.85-.574-1.483-.574-.439 0-.833.092-1.182.278-.344.186-.617.456-.818.813-.197.356-.295.787-.295 1.295zm8.032 5.25v-8.727h1.341v8.727zm.682-10.182c-.262 0-.487-.089-.676-.267-.186-.178-.279-.392-.279-.642s.093-.464.279-.642c.189-.178.414-.267.676-.267.261 0 .485.089.67.267.19.178.284.392.284.642s-.094.464-.284.642c-.185.178-.409.267-.67.267zm4.376 4.932v5.25h-1.341v-8.727h1.295v1.363h.114c.204-.443.515-.799.932-1.068.416-.273.954-.409 1.613-.409.591 0 1.108.121 1.551.364.444.238.788.602 1.035 1.091.246.484.369 1.098.369 1.841v5.545h-1.341v-5.455c0-.685-.178-1.219-.534-1.602-.356-.386-.845-.579-1.466-.579-.428 0-.811.092-1.148.278-.333.186-.596.456-.79.813-.193.356-.289.787-.289 1.295zm11.461 8.705c-.648 0-1.205-.084-1.671-.25-.465-.163-.854-.379-1.164-.648-.307-.265-.551-.549-.733-.852l1.068-.75c.121.159.274.34.46.545.186.208.439.388.761.54.326.155.752.233 1.279.233.704 0 1.286-.171 1.744-.512.459-.341.688-.875.688-1.602v-1.773h-.114c-.098.159-.239.356-.42.591-.178.231-.436.438-.773.62-.333.178-.784.267-1.352.267-.705 0-1.338-.167-1.898-.5-.557-.334-.998-.819-1.324-1.455-.322-.636-.483-1.409-.483-2.318 0-.894.157-1.672.472-2.335.314-.667.752-1.182 1.312-1.546.561-.367 1.208-.551 1.943-.551.569 0 1.019.095 1.353.284.337.186.594.398.772.637.182.234.322.428.421.579h.136v-1.386h1.296v8.977c0 .75-.171 1.36-.512 1.83-.337.473-.791.82-1.363 1.039-.569.224-1.201.336-1.898.336zm-.046-4.796c.538 0 .993-.123 1.364-.369s.653-.601.847-1.063c.193-.462.289-1.015.289-1.659 0-.629-.094-1.184-.284-1.665-.189-.481-.469-.858-.841-1.13-.371-.273-.829-.409-1.375-.409-.568 0-1.041.144-1.42.431-.375.288-.657.675-.847 1.16-.185.484-.278 1.022-.278 1.613 0 .606.095 1.142.284 1.608.193.462.477.826.852 1.091.379.261.849.392 1.409.392zm11.954-3.909v5.25h-1.341v-11.636h1.341v4.272h.114c.204-.45.511-.808.92-1.074.413-.268.962-.403 1.648-.403.595 0 1.115.119 1.562.358.447.235.794.597 1.04 1.085.25.485.375 1.103.375 1.853v5.545h-1.341v-5.455c0-.693-.18-1.229-.54-1.607-.356-.383-.85-.574-1.482-.574-.44 0-.834.092-1.182.278-.345.186-.618.456-.818.813-.197.356-.296.787-.296 1.295zm10.6 5.455c-.553 0-1.054-.105-1.505-.313-.451-.212-.809-.517-1.074-.915-.265-.401-.398-.886-.398-1.454 0-.5.099-.906.296-1.216.197-.315.46-.561.789-.739.33-.178.694-.31 1.091-.398.402-.09.805-.162 1.211-.215.53-.069.96-.12 1.289-.154.334-.038.576-.1.728-.187.155-.087.233-.239.233-.455v-.045c0-.561-.154-.997-.461-1.307-.303-.311-.763-.466-1.38-.466-.641 0-1.142.14-1.506.42-.364.281-.619.58-.767.898l-1.273-.454c.227-.531.53-.944.909-1.239.383-.299.8-.508 1.25-.625.455-.121.902-.182 1.341-.182.28 0 .602.034.966.102.368.065.722.199 1.063.404.344.204.63.513.858.926.227.413.34.966.34 1.659v5.75h-1.34v-1.182h-.069c-.091.19-.242.392-.454.608s-.495.4-.847.551c-.352.152-.782.228-1.29.228zm.205-1.205c.53 0 .977-.104 1.341-.312.367-.209.644-.478.829-.807.19-.33.285-.676.285-1.04v-1.227c-.057.068-.182.13-.375.187-.19.053-.41.101-.66.142-.246.038-.486.072-.721.102-.231.027-.419.05-.563.069-.348.045-.674.119-.977.221-.299.099-.542.248-.727.449-.182.197-.273.466-.273.807 0 .466.172.818.517 1.057.349.235.79.352 1.324.352zm6.163 4.273v-12h1.295v1.386h.159c.099-.151.235-.345.41-.579.178-.239.431-.451.761-.637.333-.189.784-.284 1.352-.284.735 0 1.383.184 1.943.551.561.368.998.888 1.313 1.563.314.674.471 1.469.471 2.386 0 .924-.157 1.725-.471 2.403-.315.675-.75 1.197-1.307 1.569-.557.367-1.199.551-1.926.551-.561 0-1.01-.093-1.347-.279-.337-.189-.596-.403-.778-.642-.182-.242-.322-.443-.421-.602h-.113v4.614zm1.318-7.637c0 .659.097 1.241.29 1.745.193.5.475.892.846 1.176.372.28.826.42 1.364.42.561 0 1.028-.147 1.403-.443.379-.299.663-.701.853-1.204.193-.508.29-1.072.29-1.694 0-.613-.095-1.166-.285-1.659-.185-.496-.467-.888-.846-1.176-.375-.292-.847-.437-1.415-.437-.545 0-1.004.138-1.375.414-.371.273-.651.656-.841 1.148-.189.489-.284 1.059-.284 1.71zm8.352 7.637v-12h1.295v1.386h.159c.099-.151.235-.345.41-.579.178-.239.431-.451.761-.637.333-.189.784-.284 1.352-.284.735 0 1.383.184 1.943.551.561.368.998.888 1.313 1.563.314.674.471 1.469.471 2.386 0 .924-.157 1.725-.471 2.403-.315.675-.75 1.197-1.307 1.569-.557.367-1.199.551-1.926.551-.561 0-1.01-.093-1.347-.279-.337-.189-.596-.403-.778-.642-.182-.242-.322-.443-.421-.602h-.113v4.614zm1.318-7.637c0 .659.097 1.241.29 1.745.193.5.475.892.846 1.176.372.28.826.42 1.364.42.561 0 1.028-.147 1.403-.443.379-.299.663-.701.853-1.204.193-.508.29-1.072.29-1.694 0-.613-.095-1.166-.285-1.659-.185-.496-.467-.888-.846-1.176-.375-.292-.847-.437-1.415-.437-.545 0-1.004.138-1.375.414-.371.273-.651.656-.841 1.148-.189.489-.284 1.059-.284 1.71zm12.011 4.546c-.841 0-1.566-.186-2.176-.557-.606-.375-1.074-.898-1.404-1.568-.325-.674-.488-1.459-.488-2.352 0-.894.163-1.682.488-2.364.33-.686.788-1.22 1.375-1.602.591-.387 1.281-.58 2.069-.58.454 0 .903.076 1.346.227.443.152.847.398 1.21.739.364.337.654.784.87 1.341s.324 1.242.324 2.057v.568h-6.728v-1.159h5.364c0-.493-.098-.932-.295-1.318-.194-.387-.47-.692-.83-.915-.356-.224-.777-.335-1.261-.335-.534 0-.997.132-1.387.397-.386.262-.683.603-.892 1.023-.208.421-.312.871-.312 1.352v.773c0 .659.113 1.218.341 1.676.231.455.551.801.96 1.04.409.235.884.352 1.426.352.352 0 .67-.049.955-.147.287-.103.536-.254.744-.455.208-.205.369-.458.483-.761l1.295.363c-.136.44-.365.826-.687 1.159-.322.33-.72.587-1.193.773-.474.182-1.006.273-1.597.273zm6.914-5.432v5.25h-1.341v-8.727h1.296v1.363h.113c.205-.443.516-.799.932-1.068.417-.273.955-.409 1.614-.409.591 0 1.108.121 1.551.364.443.238.788.602 1.034 1.091.246.484.369 1.098.369 1.841v5.545h-1.34v-5.455c0-.685-.178-1.219-.535-1.602-.356-.386-.844-.579-1.465-.579-.428 0-.811.092-1.148.278-.333.186-.597.456-.79.813-.193.356-.29.787-.29 1.295zm11.598 5.432c-.841 0-1.566-.186-2.176-.557-.606-.375-1.074-.898-1.404-1.568-.325-.674-.488-1.459-.488-2.352 0-.894.163-1.682.488-2.364.33-.686.788-1.22 1.375-1.602.591-.387 1.281-.58 2.068-.58.455 0 .904.076 1.347.227.443.152.847.398 1.21.739.364.337.654.784.87 1.341s.323 1.242.323 2.057v.568h-6.727v-1.159h5.364c0-.493-.099-.932-.296-1.318-.193-.387-.469-.692-.829-.915-.356-.224-.777-.335-1.262-.335-.534 0-.996.132-1.386.397-.386.262-.684.603-.892 1.023-.208.421-.312.871-.312 1.352v.773c0 .659.113 1.218.34 1.676.232.455.552.801.961 1.04.409.235.884.352 1.426.352.352 0 .67-.049.954-.147.288-.103.536-.254.745-.455.208-.205.369-.458.483-.761l1.295.363c-.136.44-.365.826-.687 1.159-.322.33-.72.587-1.194.773-.473.182-1.005.273-1.596.273zm8.869 0c-.728 0-1.37-.184-1.926-.551-.557-.372-.993-.894-1.307-1.569-.315-.678-.472-1.479-.472-2.403 0-.917.157-1.712.472-2.386.314-.675.752-1.195 1.312-1.563.561-.367 1.209-.551 1.943-.551.569 0 1.018.095 1.347.284.333.186.587.398.761.637.178.234.317.428.415.579h.114v-4.295h1.341v11.636h-1.296v-1.341h-.159c-.098.159-.238.36-.42.602-.182.239-.442.453-.779.642-.337.186-.786.279-1.346.279zm.182-1.205c.537 0 .992-.14 1.363-.42.371-.284.654-.676.847-1.176.193-.504.29-1.086.29-1.745 0-.651-.095-1.221-.285-1.71-.189-.492-.469-.875-.84-1.148-.372-.276-.83-.414-1.375-.414-.569 0-1.042.145-1.421.437-.375.288-.657.68-.846 1.176-.186.493-.279 1.046-.279 1.659 0 .622.095 1.186.284 1.694.193.503.477.905.852 1.204.379.296.849.443 1.41.443z"/><path d="m685.955 206.364h2.107v7.602c0 .833-.196 1.566-.59 2.199-.391.632-.94 1.127-1.648 1.483-.708.352-1.536.528-2.483.528-.951 0-1.78-.176-2.489-.528-.708-.356-1.257-.851-1.647-1.483-.391-.633-.586-1.366-.586-2.199v-7.602h2.108v7.426c0 .485.106.916.318 1.295.216.379.519.676.91.892.39.212.852.318 1.386.318s.996-.106 1.386-.318c.394-.216.697-.513.909-.892s.319-.81.319-1.295zm6.285 6.522v5.114h-2.057v-8.727h1.966v1.483h.102c.201-.489.521-.877.96-1.165.443-.288.991-.432 1.642-.432.602 0 1.127.129 1.574.386.451.258.799.631 1.046 1.12.25.488.373 1.081.369 1.778v5.557h-2.057v-5.239c0-.583-.151-1.039-.455-1.369-.299-.33-.714-.494-1.244-.494-.36 0-.68.079-.96.238-.277.156-.494.381-.653.676-.156.296-.233.654-.233 1.074zm10.851 5.267c-.685 0-1.299-.176-1.841-.528-.541-.352-.969-.864-1.284-1.534-.314-.671-.471-1.485-.471-2.443 0-.97.159-1.788.477-2.455.322-.67.756-1.176 1.301-1.517.546-.345 1.154-.517 1.824-.517.511 0 .932.087 1.261.261.33.171.591.377.785.62.193.238.342.464.448.676h.086v-4.352h2.062v11.636h-2.023v-1.375h-.125c-.106.212-.259.437-.46.676-.201.235-.466.436-.795.602-.33.167-.745.25-1.245.25zm.574-1.687c.436 0 .807-.118 1.114-.352.307-.239.54-.57.699-.995.159-.424.238-.918.238-1.483 0-.564-.079-1.055-.238-1.471-.156-.417-.387-.741-.693-.972-.303-.231-.677-.346-1.12-.346-.458 0-.841.119-1.147.358-.307.238-.538.568-.694.988-.155.421-.233.902-.233 1.443 0 .546.078 1.033.233 1.461.159.424.392.759.699 1.005.311.243.691.364 1.142.364zm9.993 1.704c-.853 0-1.591-.187-2.216-.562s-1.11-.9-1.455-1.574c-.341-.674-.511-1.462-.511-2.364 0-.901.17-1.691.511-2.369.345-.678.83-1.204 1.455-1.579s1.363-.563 2.216-.563c.852 0 1.591.188 2.216.563s1.108.901 1.448 1.579c.345.678.518 1.468.518 2.369 0 .902-.173 1.69-.518 2.364-.34.674-.823 1.199-1.448 1.574s-1.364.562-2.216.562zm.011-1.647c.462 0 .849-.127 1.159-.381.311-.258.542-.602.693-1.034.156-.432.233-.913.233-1.443 0-.534-.077-1.017-.233-1.449-.151-.436-.382-.782-.693-1.04-.31-.257-.697-.386-1.159-.386-.473 0-.867.129-1.182.386-.31.258-.543.604-.699 1.04-.151.432-.227.915-.227 1.449 0 .53.076 1.011.227 1.443.156.432.389.776.699 1.034.315.254.709.381 1.182.381z"/><path d="m426.71 207.21c-.093-.094-.204-.168-.325-.219-.122-.051-.253-.077-.385-.077s-.263.026-.385.077c-.121.051-.232.125-.325.219l-7.45 7.46-3.13-3.14c-.097-.093-.211-.166-.335-.216-.125-.049-.259-.073-.393-.071-.134.003-.266.031-.389.085-.123.053-.235.131-.328.227-.093.097-.167.211-.216.335-.049.125-.073.259-.071.393.003.134.031.266.085.389.053.124.13.235.227.328l3.84 3.84c.093.094.204.168.325.219.122.051.253.077.385.077s.263-.026.385-.077c.121-.051.232-.125.325-.219l8.16-8.16c.101-.094.182-.207.238-.334.055-.126.084-.263.084-.401s-.029-.275-.084-.401c-.056-.127-.137-.24-.238-.334z"/></g><rect fill="#f1e7b6" height="56" rx="8" width="343" x="40" y="256"/><path d="m89.8864 290h-1.4773l4.2727-11.636h1.4546l4.2727 11.636h-1.4773l-3.4773-9.795h-.0909zm.5454-4.545h5.9546v1.25h-5.9546zm17.7432-4.182v1.136h-4.522v-1.136zm-3.204-2.091h1.341v8.318c0 .379.055.663.164.852.114.186.258.311.432.375.178.061.366.091.563.091.147 0 .269-.007.363-.023.095-.018.171-.034.228-.045l.272 1.205c-.091.034-.217.068-.38.102-.163.038-.37.057-.62.057-.378 0-.75-.082-1.113-.245-.36-.163-.659-.411-.898-.744-.235-.333-.352-.754-.352-1.261zm6.67 5.568v5.25h-1.341v-11.636h1.341v4.272h.113c.205-.45.512-.808.921-1.074.413-.268.962-.403 1.648-.403.594 0 1.115.119 1.562.358.447.235.794.597 1.04 1.085.25.485.375 1.103.375 1.853v5.545h-1.341v-5.455c0-.693-.18-1.229-.54-1.607-.356-.383-.85-.574-1.483-.574-.439 0-.833.092-1.182.278-.344.186-.617.456-.818.813-.197.356-.295.787-.295 1.295zm8.032 5.25v-8.727h1.341v8.727zm.682-10.182c-.262 0-.487-.089-.676-.267-.186-.178-.279-.392-.279-.642s.093-.464.279-.642c.189-.178.414-.267.676-.267.261 0 .485.089.67.267.19.178.284.392.284.642s-.094.464-.284.642c-.185.178-.409.267-.67.267zm4.376 4.932v5.25h-1.341v-8.727h1.295v1.363h.114c.204-.443.515-.799.932-1.068.416-.273.954-.409 1.613-.409.591 0 1.108.121 1.551.364.444.238.788.602 1.035 1.091.246.484.369 1.098.369 1.841v5.545h-1.341v-5.455c0-.685-.178-1.219-.534-1.602-.356-.386-.845-.579-1.466-.579-.428 0-.811.092-1.148.278-.333.186-.596.456-.79.813-.193.356-.289.787-.289 1.295zm11.461 8.705c-.648 0-1.205-.084-1.671-.25-.465-.163-.854-.379-1.164-.648-.307-.265-.551-.549-.733-.852l1.068-.75c.121.159.274.34.46.545.186.208.439.388.761.54.326.155.752.233 1.279.233.704 0 1.286-.171 1.744-.512.459-.341.688-.875.688-1.602v-1.773h-.114c-.098.159-.239.356-.42.591-.178.231-.436.438-.773.62-.333.178-.784.267-1.352.267-.705 0-1.338-.167-1.898-.5-.557-.334-.998-.819-1.324-1.455-.322-.636-.483-1.409-.483-2.318 0-.894.157-1.672.472-2.335.314-.667.752-1.182 1.312-1.546.561-.367 1.208-.551 1.943-.551.569 0 1.019.095 1.353.284.337.186.594.398.772.637.182.234.322.428.421.579h.136v-1.386h1.296v8.977c0 .75-.171 1.36-.512 1.83-.337.473-.791.82-1.363 1.039-.569.224-1.201.336-1.898.336zm-.046-4.796c.538 0 .993-.123 1.364-.369s.653-.601.847-1.063c.193-.462.289-1.015.289-1.659 0-.629-.094-1.184-.284-1.665-.189-.481-.469-.858-.841-1.13-.371-.273-.829-.409-1.375-.409-.568 0-1.041.144-1.42.431-.375.288-.657.675-.847 1.16-.185.484-.278 1.022-.278 1.613 0 .606.095 1.142.284 1.608.193.462.477.826.852 1.091.379.261.849.392 1.409.392zm11.954-3.909v5.25h-1.341v-11.636h1.341v4.272h.114c.204-.45.511-.808.92-1.074.413-.268.962-.403 1.648-.403.595 0 1.115.119 1.562.358.447.235.794.597 1.04 1.085.25.485.375 1.103.375 1.853v5.545h-1.341v-5.455c0-.693-.18-1.229-.54-1.607-.356-.383-.85-.574-1.482-.574-.44 0-.834.092-1.182.278-.345.186-.618.456-.818.813-.197.356-.296.787-.296 1.295zm10.6 5.455c-.553 0-1.054-.105-1.505-.313-.451-.212-.809-.517-1.074-.915-.265-.401-.398-.886-.398-1.454 0-.5.099-.906.296-1.216.197-.315.46-.561.789-.739.33-.178.694-.31 1.091-.398.402-.09.805-.162 1.211-.215.53-.069.96-.12 1.289-.154.334-.038.576-.1.728-.187.155-.087.233-.239.233-.455v-.045c0-.561-.154-.997-.461-1.307-.303-.311-.763-.466-1.38-.466-.641 0-1.142.14-1.506.42-.364.281-.619.58-.767.898l-1.273-.454c.227-.531.53-.944.909-1.239.383-.299.8-.508 1.25-.625.455-.121.902-.182 1.341-.182.28 0 .602.034.966.102.368.065.722.199 1.063.404.344.204.63.513.858.926.227.413.34.966.34 1.659v5.75h-1.34v-1.182h-.069c-.091.19-.242.392-.454.608s-.495.4-.847.551c-.352.152-.782.228-1.29.228zm.205-1.205c.53 0 .977-.104 1.341-.312.367-.209.644-.478.829-.807.19-.33.285-.676.285-1.04v-1.227c-.057.068-.182.13-.375.187-.19.053-.41.101-.66.142-.246.038-.486.072-.721.102-.231.027-.419.05-.563.069-.348.045-.674.119-.977.221-.299.099-.542.248-.727.449-.182.197-.273.466-.273.807 0 .466.172.818.517 1.057.349.235.79.352 1.324.352zm6.163 4.273v-12h1.295v1.386h.159c.099-.151.235-.345.41-.579.178-.239.431-.451.761-.637.333-.189.784-.284 1.352-.284.735 0 1.383.184 1.943.551.561.368.998.888 1.313 1.563.314.674.471 1.469.471 2.386 0 .924-.157 1.725-.471 2.403-.315.675-.75 1.197-1.307 1.569-.557.367-1.199.551-1.926.551-.561 0-1.01-.093-1.347-.279-.337-.189-.596-.403-.778-.642-.182-.242-.322-.443-.421-.602h-.113v4.614zm1.318-7.637c0 .659.097 1.241.29 1.745.193.5.475.892.846 1.176.372.28.826.42 1.364.42.561 0 1.028-.147 1.403-.443.379-.299.663-.701.853-1.204.193-.508.29-1.072.29-1.694 0-.613-.095-1.166-.285-1.659-.185-.496-.467-.888-.846-1.176-.375-.292-.847-.437-1.415-.437-.545 0-1.004.138-1.375.414-.371.273-.651.656-.841 1.148-.189.489-.284 1.059-.284 1.71zm8.352 7.637v-12h1.295v1.386h.159c.099-.151.235-.345.41-.579.178-.239.431-.451.761-.637.333-.189.784-.284 1.352-.284.735 0 1.383.184 1.943.551.561.368.998.888 1.313 1.563.314.674.471 1.469.471 2.386 0 .924-.157 1.725-.471 2.403-.315.675-.75 1.197-1.307 1.569-.557.367-1.199.551-1.926.551-.561 0-1.01-.093-1.347-.279-.337-.189-.596-.403-.778-.642-.182-.242-.322-.443-.421-.602h-.113v4.614zm1.318-7.637c0 .659.097 1.241.29 1.745.193.5.475.892.846 1.176.372.28.826.42 1.364.42.561 0 1.028-.147 1.403-.443.379-.299.663-.701.853-1.204.193-.508.29-1.072.29-1.694 0-.613-.095-1.166-.285-1.659-.185-.496-.467-.888-.846-1.176-.375-.292-.847-.437-1.415-.437-.545 0-1.004.138-1.375.414-.371.273-.651.656-.841 1.148-.189.489-.284 1.059-.284 1.71zm12.011 4.546c-.841 0-1.566-.186-2.176-.557-.606-.375-1.074-.898-1.404-1.568-.325-.674-.488-1.459-.488-2.352 0-.894.163-1.682.488-2.364.33-.686.788-1.22 1.375-1.602.591-.387 1.281-.58 2.069-.58.454 0 .903.076 1.346.227.443.152.847.398 1.21.739.364.337.654.784.87 1.341s.324 1.242.324 2.057v.568h-6.728v-1.159h5.364c0-.493-.098-.932-.295-1.318-.194-.387-.47-.692-.83-.915-.356-.224-.777-.335-1.261-.335-.534 0-.997.132-1.387.397-.386.262-.683.603-.892 1.023-.208.421-.312.871-.312 1.352v.773c0 .659.113 1.218.341 1.676.231.455.551.801.96 1.04.409.235.884.352 1.426.352.352 0 .67-.049.955-.147.287-.103.536-.254.744-.455.208-.205.369-.458.483-.761l1.295.363c-.136.44-.365.826-.687 1.159-.322.33-.72.587-1.193.773-.474.182-1.006.273-1.597.273zm6.914-5.432v5.25h-1.341v-8.727h1.296v1.363h.113c.205-.443.516-.799.932-1.068.417-.273.955-.409 1.614-.409.591 0 1.108.121 1.551.364.443.238.788.602 1.034 1.091.246.484.369 1.098.369 1.841v5.545h-1.34v-5.455c0-.685-.178-1.219-.535-1.602-.356-.386-.844-.579-1.465-.579-.428 0-.811.092-1.148.278-.333.186-.597.456-.79.813-.193.356-.29.787-.29 1.295zm11.598 5.432c-.841 0-1.566-.186-2.176-.557-.606-.375-1.074-.898-1.404-1.568-.325-.674-.488-1.459-.488-2.352 0-.894.163-1.682.488-2.364.33-.686.788-1.22 1.375-1.602.591-.387 1.281-.58 2.068-.58.455 0 .904.076 1.347.227.443.152.847.398 1.21.739.364.337.654.784.87 1.341s.323 1.242.323 2.057v.568h-6.727v-1.159h5.364c0-.493-.099-.932-.296-1.318-.193-.387-.469-.692-.829-.915-.356-.224-.777-.335-1.262-.335-.534 0-.996.132-1.386.397-.386.262-.684.603-.892 1.023-.208.421-.312.871-.312 1.352v.773c0 .659.113 1.218.34 1.676.232.455.552.801.961 1.04.409.235.884.352 1.426.352.352 0 .67-.049.954-.147.288-.103.536-.254.745-.455.208-.205.369-.458.483-.761l1.295.363c-.136.44-.365.826-.687 1.159-.322.33-.72.587-1.194.773-.473.182-1.005.273-1.596.273zm8.869 0c-.728 0-1.37-.184-1.926-.551-.557-.372-.993-.894-1.307-1.569-.315-.678-.472-1.479-.472-2.403 0-.917.157-1.712.472-2.386.314-.675.752-1.195 1.312-1.563.561-.367 1.209-.551 1.943-.551.569 0 1.018.095 1.347.284.333.186.587.398.761.637.178.234.317.428.415.579h.114v-4.295h1.341v11.636h-1.296v-1.341h-.159c-.098.159-.238.36-.42.602-.182.239-.442.453-.779.642-.337.186-.786.279-1.346.279zm.182-1.205c.537 0 .992-.14 1.363-.42.371-.284.654-.676.847-1.176.193-.504.29-1.086.29-1.745 0-.651-.095-1.221-.285-1.71-.189-.492-.469-.875-.84-1.148-.372-.276-.83-.414-1.375-.414-.569 0-1.042.145-1.421.437-.375.288-.657.68-.846 1.176-.186.493-.279 1.046-.279 1.659 0 .622.095 1.186.284 1.694.193.503.477.905.852 1.204.379.296.849.443 1.41.443z" fill="#262626"/><path d="m74.7099 279.21c-.0929-.094-.2035-.168-.3254-.219-.1218-.051-.2525-.077-.3846-.077-.132 0-.2627.026-.3845.077-.1219.051-.2325.125-.3254.219l-7.45 7.46-3.1301-3.14c-.0965-.093-.2104-.166-.3353-.216-.1248-.049-.2581-.073-.3923-.071-.1342.003-.2666.031-.3897.085-.1231.053-.2344.131-.3277.227-.0932.097-.1665.211-.2157.335-.0492.125-.0733.259-.071.393s.031.266.0845.389c.0535.124.1307.235.2272.328l3.8401 3.84c.0929.094.2035.168.3254.219.1218.051.2525.077.3846.077.132 0 .2627-.026.3845-.077.1219-.051.2325-.125.3255-.219l8.1599-8.16c.1016-.094.1826-.207.238-.334.0554-.126.084-.263.084-.401s-.0286-.275-.084-.401c-.0554-.127-.1364-.24-.238-.334z" fill="#262626"/><rect fill="#f1e7b6" height="56" rx="8" width="343" x="392" y="256"/><g fill="#262626"><path d="m441.886 290h-1.477l4.273-11.636h1.454l4.273 11.636h-1.477l-3.477-9.795h-.091zm.546-4.545h5.954v1.25h-5.954zm17.743-4.182v1.136h-4.522v-1.136zm-3.204-2.091h1.341v8.318c0 .379.055.663.164.852.114.186.258.311.432.375.178.061.366.091.563.091.147 0 .269-.007.363-.023.095-.018.171-.034.228-.045l.272 1.205c-.091.034-.217.068-.38.102-.163.038-.37.057-.62.057-.378 0-.75-.082-1.113-.245-.36-.163-.659-.411-.898-.744-.235-.333-.352-.754-.352-1.261zm6.67 5.568v5.25h-1.341v-11.636h1.341v4.272h.113c.205-.45.512-.808.921-1.074.413-.268.962-.403 1.648-.403.594 0 1.115.119 1.562.358.447.235.794.597 1.04 1.085.25.485.375 1.103.375 1.853v5.545h-1.341v-5.455c0-.693-.18-1.229-.54-1.607-.356-.383-.85-.574-1.483-.574-.439 0-.833.092-1.182.278-.344.186-.617.456-.818.813-.197.356-.295.787-.295 1.295zm8.032 5.25v-8.727h1.341v8.727zm.682-10.182c-.262 0-.487-.089-.676-.267-.186-.178-.279-.392-.279-.642s.093-.464.279-.642c.189-.178.414-.267.676-.267.261 0 .485.089.67.267.19.178.284.392.284.642s-.094.464-.284.642c-.185.178-.409.267-.67.267zm4.376 4.932v5.25h-1.341v-8.727h1.295v1.363h.114c.204-.443.515-.799.932-1.068.416-.273.954-.409 1.613-.409.591 0 1.108.121 1.551.364.444.238.788.602 1.035 1.091.246.484.369 1.098.369 1.841v5.545h-1.341v-5.455c0-.685-.178-1.219-.534-1.602-.356-.386-.845-.579-1.466-.579-.428 0-.811.092-1.148.278-.333.186-.596.456-.79.813-.193.356-.289.787-.289 1.295zm11.461 8.705c-.648 0-1.205-.084-1.671-.25-.465-.163-.854-.379-1.164-.648-.307-.265-.551-.549-.733-.852l1.068-.75c.121.159.274.34.46.545.186.208.439.388.761.54.326.155.752.233 1.279.233.704 0 1.286-.171 1.744-.512.459-.341.688-.875.688-1.602v-1.773h-.114c-.098.159-.239.356-.42.591-.178.231-.436.438-.773.62-.333.178-.784.267-1.352.267-.705 0-1.338-.167-1.898-.5-.557-.334-.998-.819-1.324-1.455-.322-.636-.483-1.409-.483-2.318 0-.894.157-1.672.472-2.335.314-.667.752-1.182 1.312-1.546.561-.367 1.208-.551 1.943-.551.569 0 1.019.095 1.353.284.337.186.594.398.772.637.182.234.322.428.421.579h.136v-1.386h1.296v8.977c0 .75-.171 1.36-.512 1.83-.337.473-.791.82-1.363 1.039-.569.224-1.201.336-1.898.336zm-.046-4.796c.538 0 .993-.123 1.364-.369s.653-.601.847-1.063c.193-.462.289-1.015.289-1.659 0-.629-.094-1.184-.284-1.665-.189-.481-.469-.858-.841-1.13-.371-.273-.829-.409-1.375-.409-.568 0-1.041.144-1.42.431-.375.288-.657.675-.847 1.16-.185.484-.278 1.022-.278 1.613 0 .606.095 1.142.284 1.608.193.462.477.826.852 1.091.379.261.849.392 1.409.392zm11.954-3.909v5.25h-1.341v-11.636h1.341v4.272h.114c.204-.45.511-.808.92-1.074.413-.268.962-.403 1.648-.403.595 0 1.115.119 1.562.358.447.235.794.597 1.04 1.085.25.485.375 1.103.375 1.853v5.545h-1.341v-5.455c0-.693-.18-1.229-.54-1.607-.356-.383-.85-.574-1.482-.574-.44 0-.834.092-1.182.278-.345.186-.618.456-.818.813-.197.356-.296.787-.296 1.295zm10.6 5.455c-.553 0-1.054-.105-1.505-.313-.451-.212-.809-.517-1.074-.915-.265-.401-.398-.886-.398-1.454 0-.5.099-.906.296-1.216.197-.315.46-.561.789-.739.33-.178.694-.31 1.091-.398.402-.09.805-.162 1.211-.215.53-.069.96-.12 1.289-.154.334-.038.576-.1.728-.187.155-.087.233-.239.233-.455v-.045c0-.561-.154-.997-.461-1.307-.303-.311-.763-.466-1.38-.466-.641 0-1.142.14-1.506.42-.364.281-.619.58-.767.898l-1.273-.454c.227-.531.53-.944.909-1.239.383-.299.8-.508 1.25-.625.455-.121.902-.182 1.341-.182.28 0 .602.034.966.102.368.065.722.199 1.063.404.344.204.63.513.858.926.227.413.34.966.34 1.659v5.75h-1.34v-1.182h-.069c-.091.19-.242.392-.454.608s-.495.4-.847.551c-.352.152-.782.228-1.29.228zm.205-1.205c.53 0 .977-.104 1.341-.312.367-.209.644-.478.829-.807.19-.33.285-.676.285-1.04v-1.227c-.057.068-.182.13-.375.187-.19.053-.41.101-.66.142-.246.038-.486.072-.721.102-.231.027-.419.05-.563.069-.348.045-.674.119-.977.221-.299.099-.542.248-.727.449-.182.197-.273.466-.273.807 0 .466.172.818.517 1.057.349.235.79.352 1.324.352zm6.163 4.273v-12h1.295v1.386h.159c.099-.151.235-.345.41-.579.178-.239.431-.451.761-.637.333-.189.784-.284 1.352-.284.735 0 1.383.184 1.943.551.561.368.998.888 1.313 1.563.314.674.471 1.469.471 2.386 0 .924-.157 1.725-.471 2.403-.315.675-.75 1.197-1.307 1.569-.557.367-1.199.551-1.926.551-.561 0-1.01-.093-1.347-.279-.337-.189-.596-.403-.778-.642-.182-.242-.322-.443-.421-.602h-.113v4.614zm1.318-7.637c0 .659.097 1.241.29 1.745.193.5.475.892.846 1.176.372.28.826.42 1.364.42.561 0 1.028-.147 1.403-.443.379-.299.663-.701.853-1.204.193-.508.29-1.072.29-1.694 0-.613-.095-1.166-.285-1.659-.185-.496-.467-.888-.846-1.176-.375-.292-.847-.437-1.415-.437-.545 0-1.004.138-1.375.414-.371.273-.651.656-.841 1.148-.189.489-.284 1.059-.284 1.71zm8.352 7.637v-12h1.295v1.386h.159c.099-.151.235-.345.41-.579.178-.239.431-.451.761-.637.333-.189.784-.284 1.352-.284.735 0 1.383.184 1.943.551.561.368.998.888 1.313 1.563.314.674.471 1.469.471 2.386 0 .924-.157 1.725-.471 2.403-.315.675-.75 1.197-1.307 1.569-.557.367-1.199.551-1.926.551-.561 0-1.01-.093-1.347-.279-.337-.189-.596-.403-.778-.642-.182-.242-.322-.443-.421-.602h-.113v4.614zm1.318-7.637c0 .659.097 1.241.29 1.745.193.5.475.892.846 1.176.372.28.826.42 1.364.42.561 0 1.028-.147 1.403-.443.379-.299.663-.701.853-1.204.193-.508.29-1.072.29-1.694 0-.613-.095-1.166-.285-1.659-.185-.496-.467-.888-.846-1.176-.375-.292-.847-.437-1.415-.437-.545 0-1.004.138-1.375.414-.371.273-.651.656-.841 1.148-.189.489-.284 1.059-.284 1.71zm12.011 4.546c-.841 0-1.566-.186-2.176-.557-.606-.375-1.074-.898-1.404-1.568-.325-.674-.488-1.459-.488-2.352 0-.894.163-1.682.488-2.364.33-.686.788-1.22 1.375-1.602.591-.387 1.281-.58 2.069-.58.454 0 .903.076 1.346.227.443.152.847.398 1.21.739.364.337.654.784.87 1.341s.324 1.242.324 2.057v.568h-6.728v-1.159h5.364c0-.493-.098-.932-.295-1.318-.194-.387-.47-.692-.83-.915-.356-.224-.777-.335-1.261-.335-.534 0-.997.132-1.387.397-.386.262-.683.603-.892 1.023-.208.421-.312.871-.312 1.352v.773c0 .659.113 1.218.341 1.676.231.455.551.801.96 1.04.409.235.884.352 1.426.352.352 0 .67-.049.955-.147.287-.103.536-.254.744-.455.208-.205.369-.458.483-.761l1.295.363c-.136.44-.365.826-.687 1.159-.322.33-.72.587-1.193.773-.474.182-1.006.273-1.597.273zm6.914-5.432v5.25h-1.341v-8.727h1.296v1.363h.113c.205-.443.516-.799.932-1.068.417-.273.955-.409 1.614-.409.591 0 1.108.121 1.551.364.443.238.788.602 1.034 1.091.246.484.369 1.098.369 1.841v5.545h-1.34v-5.455c0-.685-.178-1.219-.535-1.602-.356-.386-.844-.579-1.465-.579-.428 0-.811.092-1.148.278-.333.186-.597.456-.79.813-.193.356-.29.787-.29 1.295zm11.598 5.432c-.841 0-1.566-.186-2.176-.557-.606-.375-1.074-.898-1.404-1.568-.325-.674-.488-1.459-.488-2.352 0-.894.163-1.682.488-2.364.33-.686.788-1.22 1.375-1.602.591-.387 1.281-.58 2.068-.58.455 0 .904.076 1.347.227.443.152.847.398 1.21.739.364.337.654.784.87 1.341s.323 1.242.323 2.057v.568h-6.727v-1.159h5.364c0-.493-.099-.932-.296-1.318-.193-.387-.469-.692-.829-.915-.356-.224-.777-.335-1.262-.335-.534 0-.996.132-1.386.397-.386.262-.684.603-.892 1.023-.208.421-.312.871-.312 1.352v.773c0 .659.113 1.218.34 1.676.232.455.552.801.961 1.04.409.235.884.352 1.426.352.352 0 .67-.049.954-.147.288-.103.536-.254.745-.455.208-.205.369-.458.483-.761l1.295.363c-.136.44-.365.826-.687 1.159-.322.33-.72.587-1.194.773-.473.182-1.005.273-1.596.273zm8.869 0c-.728 0-1.37-.184-1.926-.551-.557-.372-.993-.894-1.307-1.569-.315-.678-.472-1.479-.472-2.403 0-.917.157-1.712.472-2.386.314-.675.752-1.195 1.312-1.563.561-.367 1.209-.551 1.943-.551.569 0 1.018.095 1.347.284.333.186.587.398.761.637.178.234.317.428.415.579h.114v-4.295h1.341v11.636h-1.296v-1.341h-.159c-.098.159-.238.36-.42.602-.182.239-.442.453-.779.642-.337.186-.786.279-1.346.279zm.182-1.205c.537 0 .992-.14 1.363-.42.371-.284.654-.676.847-1.176.193-.504.29-1.086.29-1.745 0-.651-.095-1.221-.285-1.71-.189-.492-.469-.875-.84-1.148-.372-.276-.83-.414-1.375-.414-.569 0-1.042.145-1.421.437-.375.288-.657.68-.846 1.176-.186.493-.279 1.046-.279 1.659 0 .622.095 1.186.284 1.694.193.503.477.905.852 1.204.379.296.849.443 1.41.443z"/><path d="m685.955 278.364h2.107v7.602c0 .833-.196 1.566-.59 2.199-.391.632-.94 1.127-1.648 1.483-.708.352-1.536.528-2.483.528-.951 0-1.78-.176-2.489-.528-.708-.356-1.257-.851-1.647-1.483-.391-.633-.586-1.366-.586-2.199v-7.602h2.108v7.426c0 .485.106.916.318 1.295.216.379.519.676.91.892.39.212.852.318 1.386.318s.996-.106 1.386-.318c.394-.216.697-.513.909-.892s.319-.81.319-1.295zm6.285 6.522v5.114h-2.057v-8.727h1.966v1.483h.102c.201-.489.521-.877.96-1.165.443-.288.991-.432 1.642-.432.602 0 1.127.129 1.574.386.451.258.799.631 1.046 1.12.25.488.373 1.081.369 1.778v5.557h-2.057v-5.239c0-.583-.151-1.039-.455-1.369-.299-.33-.714-.494-1.244-.494-.36 0-.68.079-.96.238-.277.156-.494.381-.653.676-.156.296-.233.654-.233 1.074zm10.851 5.267c-.685 0-1.299-.176-1.841-.528-.541-.352-.969-.864-1.284-1.534-.314-.671-.471-1.485-.471-2.443 0-.97.159-1.788.477-2.455.322-.67.756-1.176 1.301-1.517.546-.345 1.154-.517 1.824-.517.511 0 .932.087 1.261.261.33.171.591.377.785.62.193.238.342.464.448.676h.086v-4.352h2.062v11.636h-2.023v-1.375h-.125c-.106.212-.259.437-.46.676-.201.235-.466.436-.795.602-.33.167-.745.25-1.245.25zm.574-1.687c.436 0 .807-.118 1.114-.352.307-.239.54-.57.699-.995.159-.424.238-.918.238-1.483 0-.564-.079-1.055-.238-1.471-.156-.417-.387-.741-.693-.972-.303-.231-.677-.346-1.12-.346-.458 0-.841.119-1.147.358-.307.238-.538.568-.694.988-.155.421-.233.902-.233 1.443 0 .546.078 1.033.233 1.461.159.424.392.759.699 1.005.311.243.691.364 1.142.364zm9.993 1.704c-.853 0-1.591-.187-2.216-.562s-1.11-.9-1.455-1.574c-.341-.674-.511-1.462-.511-2.364 0-.901.17-1.691.511-2.369.345-.678.83-1.204 1.455-1.579s1.363-.563 2.216-.563c.852 0 1.591.188 2.216.563s1.108.901 1.448 1.579c.345.678.518 1.468.518 2.369 0 .902-.173 1.69-.518 2.364-.34.674-.823 1.199-1.448 1.574s-1.364.562-2.216.562zm.011-1.647c.462 0 .849-.127 1.159-.381.311-.258.542-.602.693-1.034.156-.432.233-.913.233-1.443 0-.534-.077-1.017-.233-1.449-.151-.436-.382-.782-.693-1.04-.31-.257-.697-.386-1.159-.386-.473 0-.867.129-1.182.386-.31.258-.543.604-.699 1.04-.151.432-.227.915-.227 1.449 0 .53.076 1.011.227 1.443.156.432.389.776.699 1.034.315.254.709.381 1.182.381z"/><path d="m426.71 279.21c-.093-.094-.204-.168-.325-.219-.122-.051-.253-.077-.385-.077s-.263.026-.385.077c-.121.051-.232.125-.325.219l-7.45 7.46-3.13-3.14c-.097-.093-.211-.166-.335-.216-.125-.049-.259-.073-.393-.071-.134.003-.266.031-.389.085-.123.053-.235.131-.328.227-.093.097-.167.211-.216.335-.049.125-.073.259-.071.393.003.134.031.266.085.389.053.124.13.235.227.328l3.84 3.84c.093.094.204.168.325.219.122.051.253.077.385.077s.263-.026.385-.077c.121-.051.232-.125.325-.219l8.16-8.16c.101-.094.182-.207.238-.334.055-.126.084-.263.084-.401s-.029-.275-.084-.401c-.056-.127-.137-.24-.238-.334z"/><path d="m50.9858 52.5653c-.0682-.6875-.3608-1.2216-.8778-1.6022-.5171-.3807-1.2188-.5711-2.1052-.5711-.6022 0-1.1108.0853-1.5255.2557-.4148.1648-.733.3949-.9546.6904-.2159.2954-.3238.6307-.3238 1.0057-.0114.3124.0539.5852.196.8181.1477.233.3494.4347.6051.6051.2557.1648.5511.3097.8864.4347.3352.1193.6931.2216 1.0738.3068l1.5682.375c.7614.1705 1.4602.3977 2.0966.6818s1.1875.6336 1.6534 1.0483c.4659.4148.8267.9034 1.0824 1.4659.2614.5625.3949 1.2074.4006 1.9347-.0057 1.0682-.2784 1.9943-.8182 2.7784-.5341.7784-1.3068 1.3835-2.3182 1.8154-1.0057.4261-2.2187.6392-3.6392.6392-1.4091 0-2.6364-.216-3.6818-.6478-1.0398-.4318-1.8523-1.071-2.4375-1.9176-.5796-.8523-.8835-1.9062-.912-3.1619h3.5711c.0397.5852.2074 1.0738.5028 1.4659.3011.3864.7017.679 1.2017.8778.5057.1932 1.0767.2898 1.7131.2898.625 0 1.1676-.0909 1.6278-.2727.4659-.1818.8267-.4347 1.0824-.7585.2557-.3239.3835-.6961.3835-1.1165 0-.3921-.1164-.7216-.3494-.9887-.2273-.267-.5625-.4943-1.0057-.6818-.4375-.1875-.9744-.3579-1.6108-.5113l-1.9005-.4773c-1.4716-.358-2.6336-.9176-3.4858-1.679-.8523-.7614-1.2756-1.7869-1.2699-3.0767-.0057-1.0568.2755-1.9801.8437-2.7699.5739-.7898 1.3608-1.4062 2.3608-1.8494s2.1364-.6648 3.4091-.6648c1.2955 0 2.4261.2216 3.3921.6648.9715.4432 1.7272 1.0596 2.267 1.8494s.8182 1.7046.8352 2.7443zm9.8203 4.8665v7.5682h-3.6307v-13.0909h3.4603v2.3097h.1534c.2897-.7614.7755-1.3637 1.4573-1.8069.6819-.4488 1.5086-.6733 2.4802-.6733.9091 0 1.7017.1989 2.3778.5966.6761.3978 1.2017.9659 1.5767 1.7046.375.7329.5625 1.6079.5625 2.625v8.3352h-3.6307v-7.6875c.0057-.8011-.1988-1.4261-.6136-1.875-.4148-.4545-.9858-.6818-1.7131-.6818-.4886 0-.9204.1051-1.2954.3153-.3694.2102-.6591.5171-.8694.9205-.2045.3977-.3096.8778-.3153 1.4403zm15.032 7.8154c-.8353 0-1.5796-.1449-2.233-.4347-.6534-.2955-1.1704-.7301-1.5511-1.304-.375-.5795-.5625-1.3011-.5625-2.1647 0-.7273.1335-1.3381.4005-1.8324.2671-.4944.6307-.8921 1.091-1.1932.4602-.3012.9829-.5284 1.5681-.6818.5909-.1534 1.2103-.2614 1.858-.3239.7614-.0795 1.375-.1534 1.8409-.2216.4659-.0739.804-.1818 1.0142-.3239.2102-.142.3153-.3522.3153-.6306v-.0512c0-.5397-.1704-.9574-.5113-1.2528-.3352-.2955-.8125-.4432-1.4318-.4432-.6534 0-1.1733.1449-1.5597.4347-.3864.2841-.642.642-.767 1.0738l-3.358-.2727c.1705-.7955.5057-1.483 1.0057-2.0625.5-.5852 1.1449-1.0341 1.9346-1.3466.7955-.3182 1.716-.4773 2.7614-.4773.7273 0 1.4233.0853 2.0881.2557.6704.1705 1.2642.4347 1.7812.7926.5228.358.9347.8182 1.2358 1.3807.3012.5568.4517 1.2244.4517 2.0029v8.8295h-3.4432v-1.8153h-.1022c-.2103.4091-.4915.7698-.8438 1.0823-.3522.3069-.7755.5483-1.2699.7245-.4943.1704-1.0653.2557-1.713.2557zm1.0397-2.5057c.5341 0 1.0057-.1051 1.4148-.3154.4091-.2159.7301-.5056.9631-.8693.2329-.3636.3494-.7756.3494-1.2358v-1.3892c-.1136.0739-.2699.1421-.4687.2046-.1932.0568-.412.1108-.6563.1619-.2443.0454-.4886.0881-.7329.1278-.2444.0341-.466.0654-.6648.0938-.4261.0625-.7983.1619-1.1165.2983-.3182.1363-.5653.321-.7415.554-.1761.2272-.2642.5113-.2642.8522 0 .4944.179.8722.537 1.1336.3636.2556.8238.3835 1.3806.3835zm15.064 2.5142c-1.3409 0-2.4944-.2841-3.4603-.8523-.9602-.5739-1.6988-1.3693-2.2159-2.3864-.5113-1.017-.767-2.1875-.767-3.5113 0-1.3409.2585-2.5171.7755-3.5284.5228-1.0171 1.2643-1.8097 2.2245-2.3779.9602-.5738 2.1023-.8608 3.4261-.8608 1.1421 0 2.1421.2074 3 .6222.858.4148 1.5369.9972 2.0369 1.7472s.7756 1.6306.8268 2.642h-3.4262c-.0966-.6534-.3523-1.179-.767-1.5767-.4091-.4034-.9461-.6051-1.6108-.6051-.5625 0-1.054.1534-1.4745.4602-.4147.3011-.7386.7415-.9715 1.321-.233.5796-.3495 1.2813-.3495 2.1051 0 .8353.1137 1.5455.3409 2.1307.233.5853.5597 1.0313.9801 1.3381.4205.3068.912.4602 1.4745.4602.4147 0 .7869-.0852 1.1165-.2557.3352-.1704.6107-.4176.8267-.7414.2215-.3296.3664-.7245.4346-1.1847h3.4262c-.0569 1-.3296 1.8807-.8182 2.6421-.483.7556-1.1506 1.3465-2.0029 1.7727-.8522.4261-1.8608.6392-3.0255.6392zm11.4612-4.0227.008-4.3552h.529l4.193-4.9687h4.167l-5.633 6.5795h-.861zm-3.29 3.767v-17.4545h3.631v17.4545zm8.182 0-3.853-5.7017 2.421-2.5653 5.685 8.267zm5.855 0v-17.4545h3.631v6.5625h.11c.159-.3523.39-.7103.691-1.0739.306-.3693.704-.6761 1.193-.9205.494-.25 1.108-.375 1.841-.375.954 0 1.835.25 2.642.75.807.4944 1.452 1.2415 1.934 2.2415.483.9943.725 2.2415.725 3.7415 0 1.4602-.236 2.6932-.707 3.6989-.466 1-1.103 1.7585-1.91 2.2755-.801.5114-1.698.7671-2.693.7671-.704 0-1.304-.1165-1.798-.3495-.489-.2329-.889-.5255-1.202-.8778-.312-.358-.551-.7188-.716-1.0824h-.162v2.0966zm3.554-6.5455c0 .7785.108 1.4574.324 2.037.216.5795.528 1.0312.937 1.3551.409.3182.906.4773 1.492.4773.591 0 1.091-.162 1.5-.4858.409-.3296.718-.7841.929-1.3637.216-.5852.324-1.2585.324-2.0199 0-.7556-.106-1.4204-.316-1.9943-.21-.5738-.52-1.0227-.929-1.3466-.409-.3238-.912-.4858-1.508-.4858-.591 0-1.091.1563-1.5.4688-.404.3125-.713.7557-.929 1.3295-.216.5739-.324 1.25-.324 2.0284zm15.368 6.7927c-.835 0-1.579-.1449-2.233-.4347-.653-.2955-1.17-.7301-1.551-1.304-.375-.5795-.562-1.3011-.562-2.1647 0-.7273.133-1.3381.4-1.8324.267-.4944.631-.8921 1.091-1.1932.461-.3012.983-.5284 1.569-.6818.59-.1534 1.21-.2614 1.857-.3239.762-.0795 1.375-.1534 1.841-.2216.466-.0739.804-.1818 1.015-.3239.21-.142.315-.3522.315-.6306v-.0512c0-.5397-.171-.9574-.511-1.2528-.336-.2955-.813-.4432-1.432-.4432-.654 0-1.174.1449-1.56.4347-.386.2841-.642.642-.767 1.0738l-3.358-.2727c.171-.7955.506-1.483 1.006-2.0625.5-.5852 1.145-1.0341 1.934-1.3466.796-.3182 1.716-.4773 2.762-.4773.727 0 1.423.0853 2.088.2557.67.1705 1.264.4347 1.781.7926.523.358.935.8182 1.236 1.3807.301.5568.452 1.2244.452 2.0029v8.8295h-3.444v-1.8153h-.102c-.21.4091-.491.7698-.844 1.0823-.352.3069-.775.5483-1.269.7245-.495.1704-1.066.2557-1.714.2557zm1.04-2.5057c.534 0 1.006-.1051 1.415-.3154.409-.2159.73-.5056.963-.8693.233-.3636.349-.7756.349-1.2358v-1.3892c-.113.0739-.269.1421-.468.2046-.193.0568-.412.1108-.657.1619-.244.0454-.488.0881-.732.1278-.245.0341-.466.0654-.665.0938-.426.0625-.799.1619-1.117.2983-.318.1363-.565.321-.741.554-.176.2272-.264.5113-.264.8522 0 .4944.179.8722.537 1.1336.363.2556.823.3835 1.38.3835zm9.149 2.2585v-13.0909h3.52v2.2841h.137c.238-.8125.639-1.4262 1.201-1.8409.563-.4205 1.211-.6307 1.943-.6307.182 0 .378.0114.589.0341.21.0227.394.054.554.0937v3.2216c-.171-.0511-.407-.0966-.708-.1363-.301-.0398-.577-.0597-.827-.0597-.534 0-1.011.1165-1.431.3494-.415.2273-.745.5455-.989.9546-.239.4091-.358.8807-.358 1.4148v7.4062zm20.713-9.358-3.324.2046c-.057-.2841-.179-.5398-.367-.7671-.187-.2329-.434-.4176-.741-.5539-.301-.1421-.662-.2131-1.082-.2131-.563 0-1.037.1193-1.424.358-.386.2329-.579.5454-.579.9375 0 .3125.125.5767.375.7926s.679.3892 1.287.5199l2.369.4772c1.273.2614 2.222.6818 2.847 1.2614.625.5795.937 1.3409.937 2.2841 0 .8579-.253 1.6108-.759 2.2585-.5.6477-1.187 1.1534-2.062 1.5171-.869.3579-1.872.5369-3.009.5369-1.732 0-3.113-.3608-4.142-1.0824-1.022-.7273-1.622-1.7159-1.798-2.9659l3.571-.1875c.108.5284.369.9318.784 1.2102.415.2727.946.4091 1.594.4091.636 0 1.148-.1222 1.534-.3665.392-.25.591-.571.597-.963-.006-.3296-.145-.5995-.418-.8097-.273-.2159-.693-.3807-1.261-.4943l-2.267-.4517c-1.279-.2557-2.23-.6989-2.855-1.3296-.62-.6307-.929-1.4346-.929-2.4119 0-.8409.227-1.5653.681-2.1733.461-.608 1.105-1.0767 1.935-1.4062.835-.3296 1.813-.4944 2.932-.4944 1.653 0 2.954.3495 3.903 1.0483.955.6989 1.512 1.6506 1.671 2.8551z"/></g></svg>