<svg fill="none" height="650" viewBox="0 0 779 650" width="779" xmlns="http://www.w3.org/2000/svg"><path d="m0 0h779v650h-779z" fill="#fff"/><path d="m40 112h375v48h-375z" fill="#fff"/><path d="m40 159h375v1h-375z" fill="#f8f8f8"/><path d="m108.364 141v-11.636h1.756v10.125h5.273v1.511zm11.435.193c-.553 0-1.053-.102-1.5-.307-.447-.208-.801-.509-1.062-.903-.258-.394-.387-.877-.387-1.449 0-.492.095-.898.284-1.216.19-.318.445-.57.767-.756.322-.185.682-.325 1.08-.42s.803-.167 1.216-.216c.522-.06.947-.11 1.272-.148.326-.041.563-.108.711-.198.147-.091.221-.239.221-.444v-.039c0-.497-.14-.881-.42-1.154-.277-.273-.69-.409-1.239-.409-.572 0-1.023.127-1.352.381-.326.25-.551.528-.676.835l-1.597-.364c.19-.53.466-.958.83-1.284.367-.329.79-.568 1.267-.716.477-.151.979-.227 1.505-.227.349 0 .718.042 1.108.125.394.08.762.227 1.103.443.344.216.627.525.846.926.22.398.33.915.33 1.552v5.795h-1.659v-1.193h-.068c-.11.22-.275.435-.495.648-.219.212-.502.388-.846.528-.345.14-.758.21-1.239.21zm.369-1.363c.47 0 .872-.093 1.205-.279.337-.185.593-.428.767-.727.178-.303.267-.627.267-.972v-1.125c-.061.061-.178.118-.352.171-.171.049-.366.093-.586.13-.219.034-.433.067-.642.097-.208.027-.382.049-.522.068-.33.042-.631.112-.904.21-.269.099-.485.241-.647.427-.16.181-.239.424-.239.727 0 .42.155.738.466.954.31.212.706.319 1.187.319zm6.337 1.17v-11.636h1.699v4.324h.102c.099-.182.241-.393.426-.631.186-.239.443-.447.773-.625.33-.182.765-.273 1.307-.273.704 0 1.333.178 1.886.534s.987.869 1.301 1.54c.318.67.478 1.477.478 2.42 0 .944-.158 1.752-.472 2.427-.314.67-.746 1.187-1.295 1.551-.55.36-1.177.539-1.881.539-.53 0-.964-.089-1.301-.267-.334-.178-.595-.386-.784-.625-.19-.238-.336-.45-.438-.636h-.142v1.358zm1.665-4.364c0 .614.089 1.152.267 1.614s.435.824.773 1.085c.337.258.75.387 1.238.387.508 0 .932-.135 1.273-.404.341-.273.598-.642.773-1.108.178-.466.267-.99.267-1.574 0-.575-.087-1.092-.262-1.551-.17-.458-.428-.82-.772-1.085-.341-.265-.767-.398-1.279-.398-.492 0-.909.127-1.25.381-.337.254-.593.608-.767 1.062-.174.455-.261.985-.261 1.591zm11.976 4.54c-.86 0-1.601-.184-2.222-.551-.617-.371-1.095-.892-1.432-1.563-.333-.674-.5-1.464-.5-2.369 0-.894.167-1.682.5-2.363.337-.682.807-1.214 1.409-1.597.606-.383 1.315-.574 2.125-.574.493 0 .97.082 1.432.244.462.163.877.419 1.244.767.368.349.658.802.87 1.358.212.553.318 1.226.318 2.017v.603h-6.938v-1.273h5.273c0-.447-.091-.843-.273-1.187-.181-.349-.437-.624-.767-.824-.325-.201-.708-.302-1.147-.302-.478 0-.894.118-1.25.353-.353.231-.625.534-.819.909-.189.371-.284.774-.284 1.21v.994c0 .584.103 1.08.307 1.489.209.409.498.722.87.938.371.212.804.318 1.301.318.322 0 .615-.046.88-.137.265-.094.495-.234.688-.42s.341-.415.443-.688l1.608.29c-.129.474-.36.888-.693 1.244-.33.353-.745.627-1.245.824-.496.194-1.062.29-1.698.29zm7.328-11.812v11.636h-1.699v-11.636zm10.912 0v11.636h-1.762v-9.875h-.068l-2.784 1.818v-1.682l2.903-1.897z" fill="#262626"/><path d="m40 158h187.5v2h-187.5z" fill="#262626"/><path d="m295.239 141v-11.636h1.756v10.125h5.273v1.511zm11.435.193c-.553 0-1.053-.102-1.5-.307-.447-.208-.801-.509-1.062-.903-.258-.394-.387-.877-.387-1.449 0-.492.095-.898.284-1.216.19-.318.445-.57.767-.756.322-.185.682-.325 1.08-.42s.803-.167 1.216-.216c.522-.06.947-.11 1.272-.148.326-.041.563-.108.711-.198.147-.091.221-.239.221-.444v-.039c0-.497-.14-.881-.42-1.154-.277-.273-.69-.409-1.239-.409-.572 0-1.023.127-1.352.381-.326.25-.551.528-.676.835l-1.597-.364c.19-.53.466-.958.83-1.284.367-.329.79-.568 1.267-.716.477-.151.979-.227 1.505-.227.349 0 .718.042 1.108.125.394.08.762.227 1.103.443.344.216.627.525.846.926.22.398.33.915.33 1.552v5.795h-1.659v-1.193h-.068c-.11.22-.275.435-.495.648-.219.212-.502.388-.846.528-.345.14-.758.21-1.239.21zm.369-1.363c.47 0 .872-.093 1.205-.279.337-.185.593-.428.767-.727.178-.303.267-.627.267-.972v-1.125c-.061.061-.178.118-.352.171-.171.049-.366.093-.586.13-.219.034-.433.067-.642.097-.208.027-.382.049-.522.068-.33.042-.631.112-.904.21-.269.099-.485.241-.647.427-.16.181-.239.424-.239.727 0 .42.155.738.466.954.31.212.706.319 1.187.319zm6.337 1.17v-11.636h1.699v4.324h.102c.099-.182.241-.393.426-.631.186-.239.443-.447.773-.625.33-.182.765-.273 1.307-.273.704 0 1.333.178 1.886.534s.987.869 1.301 1.54c.318.67.478 1.477.478 2.42 0 .944-.158 1.752-.472 2.427-.314.67-.746 1.187-1.295 1.551-.55.36-1.177.539-1.881.539-.53 0-.964-.089-1.301-.267-.334-.178-.595-.386-.784-.625-.19-.238-.336-.45-.438-.636h-.142v1.358zm1.665-4.364c0 .614.089 1.152.267 1.614s.435.824.773 1.085c.337.258.75.387 1.238.387.508 0 .932-.135 1.273-.404.341-.273.598-.642.773-1.108.178-.466.267-.99.267-1.574 0-.575-.087-1.092-.262-1.551-.17-.458-.428-.82-.772-1.085-.341-.265-.767-.398-1.279-.398-.492 0-.909.127-1.25.381-.337.254-.593.608-.767 1.062-.174.455-.261.985-.261 1.591zm11.976 4.54c-.86 0-1.601-.184-2.222-.551-.617-.371-1.095-.892-1.432-1.563-.333-.674-.5-1.464-.5-2.369 0-.894.167-1.682.5-2.363.337-.682.807-1.214 1.409-1.597.606-.383 1.315-.574 2.125-.574.493 0 .97.082 1.432.244.462.163.877.419 1.244.767.368.349.658.802.87 1.358.212.553.318 1.226.318 2.017v.603h-6.938v-1.273h5.273c0-.447-.091-.843-.273-1.187-.181-.349-.437-.624-.767-.824-.325-.201-.708-.302-1.147-.302-.478 0-.894.118-1.25.353-.353.231-.625.534-.819.909-.189.371-.284.774-.284 1.21v.994c0 .584.103 1.08.307 1.489.209.409.498.722.87.938.371.212.804.318 1.301.318.322 0 .615-.046.88-.137.265-.094.495-.234.688-.42s.341-.415.443-.688l1.608.29c-.129.474-.36.888-.693 1.244-.33.353-.745.627-1.245.824-.496.194-1.062.29-1.698.29zm7.328-11.812v11.636h-1.699v-11.636zm6.497 11.636v-1.273l3.937-4.079c.421-.443.767-.832 1.04-1.165.277-.337.483-.657.619-.96.137-.303.205-.625.205-.966 0-.387-.091-.72-.273-1-.182-.284-.43-.502-.744-.654-.314-.155-.669-.233-1.063-.233-.416 0-.78.086-1.09.256-.311.171-.55.411-.716.722-.167.31-.25.674-.25 1.091h-1.676c0-.709.162-1.328.488-1.858.326-.531.773-.942 1.341-1.233.568-.296 1.214-.443 1.938-.443.731 0 1.375.145 1.931.437.561.288.998.682 1.313 1.182.314.496.471 1.057.471 1.682 0 .432-.081.854-.244 1.267-.159.413-.437.873-.835 1.38-.398.504-.951 1.116-1.659 1.836l-2.313 2.42v.085h5.239v1.506z" fill="#b9b9b9"/><path d="m40 183h375v48h-375z" fill="#fff"/><path d="m40 230h375v1h-375z" fill="#f8f8f8"/><path d="m77.1143 212v-11.636h1.7557v10.125h5.2728v1.511zm11.4347.193c-.553 0-1.053-.102-1.5-.307-.447-.208-.8011-.509-1.0625-.903-.2576-.394-.3864-.877-.3864-1.449 0-.492.0947-.898.2841-1.216s.4451-.57.7671-.756c.3219-.185.6818-.325 1.0795-.42.3978-.095.8031-.167 1.2159-.216.5228-.06.947-.11 1.2728-.148.3257-.041.5625-.108.7102-.198.1477-.091.2216-.239.2216-.444v-.039c0-.497-.1402-.881-.4205-1.154-.2765-.273-.6894-.409-1.2386-.409-.572 0-1.0227.127-1.3523.381-.3257.25-.5511.528-.6761.835l-1.5966-.364c.1894-.53.4659-.958.8295-1.284.3675-.329.7898-.568 1.2671-.716.4773-.151.9791-.227 1.5057-.227.3484 0 .7178.042 1.1079.125.394.08.7614.227 1.1023.443.3447.216.6269.525.8466.926.2197.398.3295.915.3295 1.552v5.795h-1.6591v-1.193h-.0681c-.1099.22-.2747.435-.4944.648-.2197.212-.5019.388-.8466.528s-.7575.21-1.2386.21zm.3693-1.363c.4697 0 .8712-.093 1.2046-.279.3371-.185.5928-.428.767-.727.178-.303.2671-.627.2671-.972v-1.125c-.0606.061-.1781.118-.3523.171-.1705.049-.3655.093-.5852.13-.2197.034-.4338.067-.6421.097-.2083.027-.3826.049-.5227.068-.3296.042-.6307.112-.9034.21-.269.099-.4849.241-.6477.427-.1591.181-.2387.424-.2387.727 0 .42.1553.738.4659.954.3106.212.7065.319 1.1875.319zm6.3367 1.17v-11.636h1.6988v4.324h.1023c.0985-.182.2405-.393.4261-.631.1857-.239.4432-.447.7728-.625.3295-.182.7651-.273 1.3068-.273.7042 0 1.3332.178 1.8862.534s.987.869 1.301 1.54c.318.67.478 1.477.478 2.42 0 .944-.158 1.752-.472 2.427-.314.67-.746 1.187-1.295 1.551-.55.36-1.177.539-1.8812.539-.5303 0-.964-.089-1.3011-.267-.3333-.178-.5947-.386-.7841-.625-.1894-.238-.3352-.45-.4375-.636h-.142v1.358zm1.6647-4.364c0 .614.0891 1.152.2671 1.614s.4356.824.7727 1.085c.3371.258.75.387 1.2387.387.5075 0 .9318-.135 1.2728-.404.341-.273.598-.642.773-1.108.178-.466.267-.99.267-1.574 0-.575-.087-1.092-.262-1.551-.17-.458-.428-.82-.772-1.085-.341-.265-.7675-.398-1.2788-.398-.4925 0-.9091.127-1.25.381-.3372.254-.5928.608-.7671 1.062-.1742.455-.2614.985-.2614 1.591zm11.9763 4.54c-.86 0-1.601-.184-2.222-.551-.617-.371-1.095-.892-1.432-1.563-.333-.674-.5-1.464-.5-2.369 0-.894.167-1.682.5-2.363.337-.682.807-1.214 1.409-1.597.606-.383 1.315-.574 2.125-.574.493 0 .97.082 1.432.244.462.163.877.419 1.244.767.368.349.658.802.87 1.358.212.553.318 1.226.318 2.017v.603h-6.938v-1.273h5.273c0-.447-.091-.843-.273-1.187-.181-.349-.437-.624-.767-.824-.325-.201-.708-.302-1.147-.302-.478 0-.894.118-1.25.353-.353.231-.625.534-.819.909-.189.371-.284.774-.284 1.21v.994c0 .584.103 1.08.307 1.489.209.409.498.722.87.938.371.212.804.318 1.301.318.322 0 .615-.046.88-.137.265-.094.495-.234.688-.42s.341-.415.443-.688l1.608.29c-.129.474-.36.888-.693 1.244-.33.353-.745.627-1.245.824-.496.194-1.062.29-1.698.29zm7.328-11.812v11.636h-1.699v-11.636zm10.912 0v11.636h-1.762v-9.875h-.068l-2.784 1.818v-1.682l2.903-1.897z" fill="#262626"/><path d="m40 229h125v2h-125z" fill="#262626"/><path d="m200.989 212v-11.636h1.756v10.125h5.273v1.511zm11.435.193c-.553 0-1.053-.102-1.5-.307-.447-.208-.801-.509-1.062-.903-.258-.394-.387-.877-.387-1.449 0-.492.095-.898.284-1.216.19-.318.445-.57.767-.756.322-.185.682-.325 1.08-.42s.803-.167 1.216-.216c.522-.06.947-.11 1.272-.148.326-.041.563-.108.711-.198.147-.091.221-.239.221-.444v-.039c0-.497-.14-.881-.42-1.154-.277-.273-.69-.409-1.239-.409-.572 0-1.023.127-1.352.381-.326.25-.551.528-.676.835l-1.597-.364c.19-.53.466-.958.83-1.284.367-.329.79-.568 1.267-.716.477-.151.979-.227 1.505-.227.349 0 .718.042 1.108.125.394.08.762.227 1.103.443.344.216.627.525.846.926.22.398.33.915.33 1.552v5.795h-1.659v-1.193h-.068c-.11.22-.275.435-.495.648-.219.212-.502.388-.846.528-.345.14-.758.21-1.239.21zm.369-1.363c.47 0 .872-.093 1.205-.279.337-.185.593-.428.767-.727.178-.303.267-.627.267-.972v-1.125c-.061.061-.178.118-.352.171-.171.049-.366.093-.586.13-.219.034-.433.067-.642.097-.208.027-.382.049-.522.068-.33.042-.631.112-.904.21-.269.099-.485.241-.647.427-.16.181-.239.424-.239.727 0 .42.155.738.466.954.31.212.706.319 1.187.319zm6.337 1.17v-11.636h1.699v4.324h.102c.099-.182.241-.393.426-.631.186-.239.443-.447.773-.625.33-.182.765-.273 1.307-.273.704 0 1.333.178 1.886.534s.987.869 1.301 1.54c.318.67.478 1.477.478 2.42 0 .944-.158 1.752-.472 2.427-.314.67-.746 1.187-1.295 1.551-.55.36-1.177.539-1.881.539-.53 0-.964-.089-1.301-.267-.334-.178-.595-.386-.784-.625-.19-.238-.336-.45-.438-.636h-.142v1.358zm1.665-4.364c0 .614.089 1.152.267 1.614s.435.824.773 1.085c.337.258.75.387 1.238.387.508 0 .932-.135 1.273-.404.341-.273.598-.642.773-1.108.178-.466.267-.99.267-1.574 0-.575-.087-1.092-.262-1.551-.17-.458-.428-.82-.772-1.085-.341-.265-.767-.398-1.279-.398-.492 0-.909.127-1.25.381-.337.254-.593.608-.767 1.062-.174.455-.261.985-.261 1.591zm11.976 4.54c-.86 0-1.601-.184-2.222-.551-.617-.371-1.095-.892-1.432-1.563-.333-.674-.5-1.464-.5-2.369 0-.894.167-1.682.5-2.363.337-.682.807-1.214 1.409-1.597.606-.383 1.315-.574 2.125-.574.493 0 .97.082 1.432.244.462.163.877.419 1.244.767.368.349.658.802.87 1.358.212.553.318 1.226.318 2.017v.603h-6.938v-1.273h5.273c0-.447-.091-.843-.273-1.187-.181-.349-.437-.624-.767-.824-.325-.201-.708-.302-1.147-.302-.478 0-.894.118-1.25.353-.353.231-.625.534-.819.909-.189.371-.284.774-.284 1.21v.994c0 .584.103 1.08.307 1.489.209.409.498.722.87.938.371.212.804.318 1.301.318.322 0 .615-.046.88-.137.265-.094.495-.234.688-.42s.341-.415.443-.688l1.608.29c-.129.474-.36.888-.693 1.244-.33.353-.745.627-1.245.824-.496.194-1.062.29-1.698.29zm7.328-11.812v11.636h-1.699v-11.636zm6.497 11.636v-1.273l3.937-4.079c.421-.443.767-.832 1.04-1.165.277-.337.483-.657.619-.96.137-.303.205-.625.205-.966 0-.387-.091-.72-.273-1-.182-.284-.43-.502-.744-.654-.314-.155-.669-.233-1.063-.233-.416 0-.78.086-1.09.256-.311.171-.55.411-.716.722-.167.31-.25.674-.25 1.091h-1.676c0-.709.162-1.328.488-1.858.326-.531.773-.942 1.341-1.233.568-.296 1.214-.443 1.938-.443.731 0 1.375.145 1.931.437.561.288.998.682 1.313 1.182.314.496.471 1.057.471 1.682 0 .432-.081.854-.244 1.267-.159.413-.437.873-.835 1.38-.398.504-.951 1.116-1.659 1.836l-2.313 2.42v.085h5.239v1.506z" fill="#b9b9b9"/><path d="m325.739 212v-11.636h1.756v10.125h5.273v1.511zm11.435.193c-.553 0-1.053-.102-1.5-.307-.447-.208-.801-.509-1.062-.903-.258-.394-.387-.877-.387-1.449 0-.492.095-.898.284-1.216.19-.318.445-.57.767-.756.322-.185.682-.325 1.08-.42s.803-.167 1.216-.216c.522-.06.947-.11 1.272-.148.326-.041.563-.108.711-.198.147-.091.221-.239.221-.444v-.039c0-.497-.14-.881-.42-1.154-.277-.273-.69-.409-1.239-.409-.572 0-1.023.127-1.352.381-.326.25-.551.528-.676.835l-1.597-.364c.19-.53.466-.958.83-1.284.367-.329.79-.568 1.267-.716.477-.151.979-.227 1.505-.227.349 0 .718.042 1.108.125.394.08.762.227 1.103.443.344.216.627.525.846.926.22.398.33.915.33 1.552v5.795h-1.659v-1.193h-.068c-.11.22-.275.435-.495.648-.219.212-.502.388-.846.528-.345.14-.758.21-1.239.21zm.369-1.363c.47 0 .872-.093 1.205-.279.337-.185.593-.428.767-.727.178-.303.267-.627.267-.972v-1.125c-.061.061-.178.118-.352.171-.171.049-.366.093-.586.13-.219.034-.433.067-.642.097-.208.027-.382.049-.522.068-.33.042-.631.112-.904.21-.269.099-.485.241-.647.427-.16.181-.239.424-.239.727 0 .42.155.738.466.954.31.212.706.319 1.187.319zm6.337 1.17v-11.636h1.699v4.324h.102c.099-.182.241-.393.426-.631.186-.239.443-.447.773-.625.33-.182.765-.273 1.307-.273.704 0 1.333.178 1.886.534s.987.869 1.301 1.54c.318.67.478 1.477.478 2.42 0 .944-.158 1.752-.472 2.427-.314.67-.746 1.187-1.295 1.551-.55.36-1.177.539-1.881.539-.53 0-.964-.089-1.301-.267-.334-.178-.595-.386-.784-.625-.19-.238-.336-.45-.438-.636h-.142v1.358zm1.665-4.364c0 .614.089 1.152.267 1.614s.435.824.773 1.085c.337.258.75.387 1.238.387.508 0 .932-.135 1.273-.404.341-.273.598-.642.773-1.108.178-.466.267-.99.267-1.574 0-.575-.087-1.092-.262-1.551-.17-.458-.428-.82-.772-1.085-.341-.265-.767-.398-1.279-.398-.492 0-.909.127-1.25.381-.337.254-.593.608-.767 1.062-.174.455-.261.985-.261 1.591zm11.976 4.54c-.86 0-1.601-.184-2.222-.551-.617-.371-1.095-.892-1.432-1.563-.333-.674-.5-1.464-.5-2.369 0-.894.167-1.682.5-2.363.337-.682.807-1.214 1.409-1.597.606-.383 1.315-.574 2.125-.574.493 0 .97.082 1.432.244.462.163.877.419 1.244.767.368.349.658.802.87 1.358.212.553.318 1.226.318 2.017v.603h-6.938v-1.273h5.273c0-.447-.091-.843-.273-1.187-.181-.349-.437-.624-.767-.824-.325-.201-.708-.302-1.147-.302-.478 0-.894.118-1.25.353-.353.231-.625.534-.819.909-.189.371-.284.774-.284 1.21v.994c0 .584.103 1.08.307 1.489.209.409.498.722.87.938.371.212.804.318 1.301.318.322 0 .615-.046.88-.137.265-.094.495-.234.688-.42s.341-.415.443-.688l1.608.29c-.129.474-.36.888-.693 1.244-.33.353-.745.627-1.245.824-.496.194-1.062.29-1.698.29zm7.328-11.812v11.636h-1.699v-11.636zm10.548 11.795c-.78 0-1.477-.134-2.091-.403-.61-.269-1.093-.642-1.449-1.12-.352-.481-.541-1.038-.568-1.67h1.784c.023.345.138.644.347.898.212.25.488.443.829.579.341.137.72.205 1.137.205.458 0 .863-.08 1.216-.239.356-.159.634-.381.835-.665.201-.288.301-.619.301-.994 0-.39-.1-.733-.301-1.028-.197-.3-.487-.535-.87-.705-.378-.17-.837-.256-1.375-.256h-.982v-1.431h.982c.432 0 .811-.078 1.137-.233.329-.156.587-.372.773-.648.185-.28.278-.608.278-.983 0-.36-.081-.672-.244-.938-.159-.269-.387-.479-.682-.63-.292-.152-.637-.228-1.034-.228-.379 0-.733.071-1.063.211-.326.136-.591.333-.795.591-.205.253-.315.558-.33.914h-1.699c.019-.628.205-1.181.557-1.659.356-.477.826-.85 1.409-1.119.584-.269 1.231-.403 1.943-.403.747 0 1.391.145 1.932.437.546.288.966.672 1.262 1.153.299.482.447 1.008.443 1.58.004.652-.178 1.205-.546 1.659-.363.455-.848.76-1.454.915v.091c.773.117 1.371.424 1.795.92.428.496.64 1.112.637 1.847.003.64-.175 1.214-.534 1.721-.356.508-.843.908-1.461 1.199-.617.288-1.324.432-2.119.432z" fill="#b9b9b9"/><path d="m40 254h375v48h-375z" fill="#fff"/><path d="m40 301h375v1h-375z" fill="#f8f8f8"/><path d="m61.4893 283v-11.636h1.7557v10.125h5.2728v1.511zm11.4347.193c-.553 0-1.053-.102-1.5-.307-.447-.208-.8011-.509-1.0625-.903-.2576-.394-.3864-.877-.3864-1.449 0-.492.0947-.898.2841-1.216s.4451-.57.7671-.756c.3219-.185.6818-.325 1.0795-.42.3978-.095.8031-.167 1.2159-.216.5228-.06.947-.11 1.2728-.148.3257-.041.5625-.108.7102-.198.1477-.091.2216-.239.2216-.444v-.039c0-.497-.1402-.881-.4205-1.154-.2765-.273-.6894-.409-1.2386-.409-.572 0-1.0227.127-1.3523.381-.3257.25-.5511.528-.6761.835l-1.5966-.364c.1894-.53.4659-.958.8295-1.284.3675-.329.7898-.568 1.2671-.716.4773-.151.9791-.227 1.5057-.227.3484 0 .7178.042 1.1079.125.394.08.7614.227 1.1023.443.3447.216.6269.525.8466.926.2197.398.3295.915.3295 1.552v5.795h-1.6591v-1.193h-.0681c-.1099.22-.2747.435-.4944.648-.2197.212-.5019.388-.8466.528s-.7575.21-1.2386.21zm.3693-1.363c.4697 0 .8712-.093 1.2046-.279.3371-.185.5928-.428.767-.727.178-.303.2671-.627.2671-.972v-1.125c-.0606.061-.1781.118-.3523.171-.1705.049-.3655.093-.5852.13-.2197.034-.4338.067-.6421.097-.2083.027-.3826.049-.5227.068-.3296.042-.6307.112-.9034.21-.269.099-.4849.241-.6477.427-.1591.181-.2387.424-.2387.727 0 .42.1553.738.4659.954.3106.212.7065.319 1.1875.319zm6.3367 1.17v-11.636h1.6988v4.324h.1023c.0985-.182.2405-.393.4261-.631.1857-.239.4432-.447.7728-.625.3295-.182.7651-.273 1.3068-.273.7045 0 1.3333.178 1.8864.534.553.356.9867.869 1.3011 1.54.3182.67.4773 1.477.4773 2.42 0 .944-.1572 1.752-.4716 2.427-.3144.67-.7462 1.187-1.2955 1.551-.5492.36-1.1761.539-1.8807.539-.5303 0-.964-.089-1.3011-.267-.3333-.178-.5947-.386-.7841-.625-.1894-.238-.3352-.45-.4375-.636h-.142v1.358zm1.6647-4.364c0 .614.0891 1.152.2671 1.614s.4356.824.7727 1.085c.3371.258.75.387 1.2387.387.5075 0 .9318-.135 1.2727-.404.3409-.273.5985-.642.7727-1.108.178-.466.2671-.99.2671-1.574 0-.575-.0872-1.092-.2614-1.551-.1705-.458-.428-.82-.7727-1.085-.3409-.265-.7671-.398-1.2784-.398-.4925 0-.9091.127-1.25.381-.3372.254-.5928.608-.7671 1.062-.1742.455-.2614.985-.2614 1.591zm11.9759 4.54c-.8599 0-1.6004-.184-2.2216-.551-.6174-.371-1.0947-.892-1.4318-1.563-.3333-.674-.5-1.464-.5-2.369 0-.894.1667-1.682.5-2.363.3371-.682.8068-1.214 1.4091-1.597.606-.383 1.3144-.574 2.125-.574.4924 0 .9697.082 1.4318.244.4621.163.8769.419 1.2443.767.3674.349.6572.802.8693 1.358.2122.553.3182 1.226.3182 2.017v.603h-6.9375v-1.273h5.2727c0-.447-.0909-.843-.2727-1.187-.1818-.349-.4375-.624-.767-.824-.3258-.201-.7084-.302-1.1478-.302-.4772 0-.8939.118-1.25.353-.3522.231-.625.534-.8181.909-.1894.371-.2841.774-.2841 1.21v.994c0 .584.1022 1.08.3068 1.489.2083.409.4981.722.8693.938.3712.212.8049.318 1.3011.318.322 0 .6156-.046.8807-.137.2652-.094.4943-.234.6875-.42s.3409-.415.4432-.688l1.608.29c-.1288.474-.3599.888-.6932 1.244-.3296.353-.7443.627-1.2443.824-.4963.194-1.0625.29-1.6989.29zm7.3284-11.812v11.636h-1.6991v-11.636zm10.912 0v11.636h-1.762v-9.875h-.068l-2.784 1.818v-1.682l2.903-1.897z" fill="#262626"/><path d="m40 300h93.75v2h-93.75z" fill="#262626"/><path d="m154.364 283v-11.636h1.756v10.125h5.273v1.511zm11.435.193c-.553 0-1.053-.102-1.5-.307-.447-.208-.801-.509-1.062-.903-.258-.394-.387-.877-.387-1.449 0-.492.095-.898.284-1.216.19-.318.445-.57.767-.756.322-.185.682-.325 1.08-.42s.803-.167 1.216-.216c.522-.06.947-.11 1.272-.148.326-.041.563-.108.711-.198.147-.091.221-.239.221-.444v-.039c0-.497-.14-.881-.42-1.154-.277-.273-.69-.409-1.239-.409-.572 0-1.023.127-1.352.381-.326.25-.551.528-.676.835l-1.597-.364c.19-.53.466-.958.83-1.284.367-.329.79-.568 1.267-.716.477-.151.979-.227 1.505-.227.349 0 .718.042 1.108.125.394.08.762.227 1.103.443.344.216.627.525.846.926.22.398.33.915.33 1.552v5.795h-1.659v-1.193h-.068c-.11.22-.275.435-.495.648-.219.212-.502.388-.846.528-.345.14-.758.21-1.239.21zm.369-1.363c.47 0 .872-.093 1.205-.279.337-.185.593-.428.767-.727.178-.303.267-.627.267-.972v-1.125c-.061.061-.178.118-.352.171-.171.049-.366.093-.586.13-.219.034-.433.067-.642.097-.208.027-.382.049-.522.068-.33.042-.631.112-.904.21-.269.099-.485.241-.647.427-.16.181-.239.424-.239.727 0 .42.155.738.466.954.31.212.706.319 1.187.319zm6.337 1.17v-11.636h1.699v4.324h.102c.099-.182.241-.393.426-.631.186-.239.443-.447.773-.625.33-.182.765-.273 1.307-.273.704 0 1.333.178 1.886.534s.987.869 1.301 1.54c.318.67.478 1.477.478 2.42 0 .944-.158 1.752-.472 2.427-.314.67-.746 1.187-1.295 1.551-.55.36-1.177.539-1.881.539-.53 0-.964-.089-1.301-.267-.334-.178-.595-.386-.784-.625-.19-.238-.336-.45-.438-.636h-.142v1.358zm1.665-4.364c0 .614.089 1.152.267 1.614s.435.824.773 1.085c.337.258.75.387 1.238.387.508 0 .932-.135 1.273-.404.341-.273.598-.642.773-1.108.178-.466.267-.99.267-1.574 0-.575-.087-1.092-.262-1.551-.17-.458-.428-.82-.772-1.085-.341-.265-.767-.398-1.279-.398-.492 0-.909.127-1.25.381-.337.254-.593.608-.767 1.062-.174.455-.261.985-.261 1.591zm11.976 4.54c-.86 0-1.601-.184-2.222-.551-.617-.371-1.095-.892-1.432-1.563-.333-.674-.5-1.464-.5-2.369 0-.894.167-1.682.5-2.363.337-.682.807-1.214 1.409-1.597.606-.383 1.315-.574 2.125-.574.493 0 .97.082 1.432.244.462.163.877.419 1.244.767.368.349.658.802.87 1.358.212.553.318 1.226.318 2.017v.603h-6.938v-1.273h5.273c0-.447-.091-.843-.273-1.187-.181-.349-.437-.624-.767-.824-.325-.201-.708-.302-1.147-.302-.478 0-.894.118-1.25.353-.353.231-.625.534-.819.909-.189.371-.284.774-.284 1.21v.994c0 .584.103 1.08.307 1.489.209.409.498.722.87.938.371.212.804.318 1.301.318.322 0 .615-.046.88-.137.265-.094.495-.234.688-.42s.341-.415.443-.688l1.608.29c-.129.474-.36.888-.693 1.244-.33.353-.745.627-1.245.824-.496.194-1.062.29-1.698.29zm7.328-11.812v11.636h-1.699v-11.636zm6.497 11.636v-1.273l3.937-4.079c.421-.443.767-.832 1.04-1.165.277-.337.483-.657.619-.96.137-.303.205-.625.205-.966 0-.387-.091-.72-.273-1-.182-.284-.43-.502-.744-.654-.314-.155-.669-.233-1.063-.233-.416 0-.78.086-1.09.256-.311.171-.55.411-.716.722-.167.31-.25.674-.25 1.091h-1.676c0-.709.162-1.328.488-1.858.326-.531.773-.942 1.341-1.233.568-.296 1.214-.443 1.938-.443.731 0 1.375.145 1.931.437.561.288.998.682 1.313 1.182.314.496.471 1.057.471 1.682 0 .432-.081.854-.244 1.267-.159.413-.437.873-.835 1.38-.398.504-.951 1.116-1.659 1.836l-2.313 2.42v.085h5.239v1.506z" fill="#b9b9b9"/><path d="m248.114 283v-11.636h1.756v10.125h5.273v1.511zm11.435.193c-.553 0-1.053-.102-1.5-.307-.447-.208-.801-.509-1.062-.903-.258-.394-.387-.877-.387-1.449 0-.492.095-.898.284-1.216.19-.318.445-.57.767-.756.322-.185.682-.325 1.08-.42s.803-.167 1.216-.216c.522-.06.947-.11 1.272-.148.326-.041.563-.108.711-.198.147-.091.221-.239.221-.444v-.039c0-.497-.14-.881-.42-1.154-.277-.273-.69-.409-1.239-.409-.572 0-1.023.127-1.352.381-.326.25-.551.528-.676.835l-1.597-.364c.19-.53.466-.958.83-1.284.367-.329.79-.568 1.267-.716.477-.151.979-.227 1.505-.227.349 0 .718.042 1.108.125.394.08.762.227 1.103.443.344.216.627.525.846.926.22.398.33.915.33 1.552v5.795h-1.659v-1.193h-.068c-.11.22-.275.435-.495.648-.219.212-.502.388-.846.528-.345.14-.758.21-1.239.21zm.369-1.363c.47 0 .872-.093 1.205-.279.337-.185.593-.428.767-.727.178-.303.267-.627.267-.972v-1.125c-.061.061-.178.118-.352.171-.171.049-.366.093-.586.13-.219.034-.433.067-.642.097-.208.027-.382.049-.522.068-.33.042-.631.112-.904.21-.269.099-.485.241-.647.427-.16.181-.239.424-.239.727 0 .42.155.738.466.954.31.212.706.319 1.187.319zm6.337 1.17v-11.636h1.699v4.324h.102c.099-.182.241-.393.426-.631.186-.239.443-.447.773-.625.33-.182.765-.273 1.307-.273.704 0 1.333.178 1.886.534s.987.869 1.301 1.54c.318.67.478 1.477.478 2.42 0 .944-.158 1.752-.472 2.427-.314.67-.746 1.187-1.295 1.551-.55.36-1.177.539-1.881.539-.53 0-.964-.089-1.301-.267-.334-.178-.595-.386-.784-.625-.19-.238-.336-.45-.438-.636h-.142v1.358zm1.665-4.364c0 .614.089 1.152.267 1.614s.435.824.773 1.085c.337.258.75.387 1.238.387.508 0 .932-.135 1.273-.404.341-.273.598-.642.773-1.108.178-.466.267-.99.267-1.574 0-.575-.087-1.092-.262-1.551-.17-.458-.428-.82-.772-1.085-.341-.265-.767-.398-1.279-.398-.492 0-.909.127-1.25.381-.337.254-.593.608-.767 1.062-.174.455-.261.985-.261 1.591zm11.976 4.54c-.86 0-1.601-.184-2.222-.551-.617-.371-1.095-.892-1.432-1.563-.333-.674-.5-1.464-.5-2.369 0-.894.167-1.682.5-2.363.337-.682.807-1.214 1.409-1.597.606-.383 1.315-.574 2.125-.574.493 0 .97.082 1.432.244.462.163.877.419 1.244.767.368.349.658.802.87 1.358.212.553.318 1.226.318 2.017v.603h-6.938v-1.273h5.273c0-.447-.091-.843-.273-1.187-.181-.349-.437-.624-.767-.824-.325-.201-.708-.302-1.147-.302-.478 0-.894.118-1.25.353-.353.231-.625.534-.819.909-.189.371-.284.774-.284 1.21v.994c0 .584.103 1.08.307 1.489.209.409.498.722.87.938.371.212.804.318 1.301.318.322 0 .615-.046.88-.137.265-.094.495-.234.688-.42s.341-.415.443-.688l1.608.29c-.129.474-.36.888-.693 1.244-.33.353-.745.627-1.245.824-.496.194-1.062.29-1.698.29zm7.328-11.812v11.636h-1.699v-11.636zm10.548 11.795c-.78 0-1.477-.134-2.091-.403-.61-.269-1.093-.642-1.449-1.12-.352-.481-.541-1.038-.568-1.67h1.784c.023.345.138.644.347.898.212.25.488.443.829.579.341.137.72.205 1.137.205.458 0 .863-.08 1.216-.239.356-.159.634-.381.835-.665.201-.288.301-.619.301-.994 0-.39-.1-.733-.301-1.028-.197-.3-.487-.535-.87-.705-.378-.17-.837-.256-1.375-.256h-.982v-1.431h.982c.432 0 .811-.078 1.137-.233.329-.156.587-.372.773-.648.185-.28.278-.608.278-.983 0-.36-.081-.672-.244-.938-.159-.269-.387-.479-.682-.63-.292-.152-.637-.228-1.034-.228-.379 0-.733.071-1.063.211-.326.136-.591.333-.795.591-.205.253-.315.558-.33.914h-1.699c.019-.628.205-1.181.557-1.659.356-.477.826-.85 1.409-1.119.584-.269 1.231-.403 1.943-.403.747 0 1.391.145 1.932.437.546.288.966.672 1.262 1.153.299.482.447 1.008.443 1.58.004.652-.178 1.205-.546 1.659-.363.455-.848.76-1.454.915v.091c.773.117 1.371.424 1.795.92.428.496.64 1.112.637 1.847.003.64-.175 1.214-.534 1.721-.356.508-.843.908-1.461 1.199-.617.288-1.324.432-2.119.432z" fill="#b9b9b9"/><path d="m341.036 283v-11.636h1.756v10.125h5.273v1.511zm11.435.193c-.553 0-1.053-.102-1.5-.307-.447-.208-.801-.509-1.063-.903-.257-.394-.386-.877-.386-1.449 0-.492.095-.898.284-1.216.19-.318.445-.57.767-.756.322-.185.682-.325 1.08-.42.397-.095.803-.167 1.216-.216.522-.06.947-.11 1.272-.148.326-.041.563-.108.711-.198.147-.091.221-.239.221-.444v-.039c0-.497-.14-.881-.42-1.154-.277-.273-.69-.409-1.239-.409-.572 0-1.023.127-1.352.381-.326.25-.551.528-.676.835l-1.597-.364c.189-.53.466-.958.83-1.284.367-.329.789-.568 1.267-.716.477-.151.979-.227 1.505-.227.349 0 .718.042 1.108.125.394.08.762.227 1.103.443.344.216.626.525.846.926.22.398.33.915.33 1.552v5.795h-1.659v-1.193h-.069c-.109.22-.274.435-.494.648-.22.212-.502.388-.846.528-.345.14-.758.21-1.239.21zm.369-1.363c.47 0 .871-.093 1.205-.279.337-.185.593-.428.767-.727.178-.303.267-.627.267-.972v-1.125c-.061.061-.178.118-.352.171-.171.049-.366.093-.586.13-.219.034-.433.067-.642.097-.208.027-.382.049-.522.068-.33.042-.631.112-.904.21-.269.099-.485.241-.648.427-.159.181-.238.424-.238.727 0 .42.155.738.466.954.31.212.706.319 1.187.319zm6.337 1.17v-11.636h1.699v4.324h.102c.098-.182.241-.393.426-.631.186-.239.443-.447.773-.625.329-.182.765-.273 1.307-.273.704 0 1.333.178 1.886.534s.987.869 1.301 1.54c.318.67.477 1.477.477 2.42 0 .944-.157 1.752-.471 2.427-.315.67-.746 1.187-1.296 1.551-.549.36-1.176.539-1.88.539-.531 0-.964-.089-1.301-.267-.334-.178-.595-.386-.785-.625-.189-.238-.335-.45-.437-.636h-.142v1.358zm1.665-4.364c0 .614.089 1.152.267 1.614s.435.824.772 1.085c.338.258.75.387 1.239.387.508 0 .932-.135 1.273-.404.341-.273.598-.642.772-1.108.179-.466.268-.99.268-1.574 0-.575-.088-1.092-.262-1.551-.17-.458-.428-.82-.773-1.085-.34-.265-.767-.398-1.278-.398-.492 0-.909.127-1.25.381-.337.254-.593.608-.767 1.062-.174.455-.261.985-.261 1.591zm11.975 4.54c-.859 0-1.6-.184-2.221-.551-.618-.371-1.095-.892-1.432-1.563-.333-.674-.5-1.464-.5-2.369 0-.894.167-1.682.5-2.363.337-.682.807-1.214 1.409-1.597.606-.383 1.315-.574 2.125-.574.493 0 .97.082 1.432.244.462.163.877.419 1.244.767.368.349.657.802.87 1.358.212.553.318 1.226.318 2.017v.603h-6.938v-1.273h5.273c0-.447-.091-.843-.273-1.187-.182-.349-.437-.624-.767-.824-.326-.201-.708-.302-1.147-.302-.478 0-.894.118-1.25.353-.353.231-.625.534-.819.909-.189.371-.284.774-.284 1.21v.994c0 .584.103 1.08.307 1.489.208.409.498.722.869.938.372.212.805.318 1.302.318.321 0 .615-.046.88-.137.265-.094.495-.234.688-.42s.341-.415.443-.688l1.608.29c-.129.474-.36.888-.693 1.244-.33.353-.745.627-1.245.824-.496.194-1.062.29-1.699.29zm7.329-11.812v11.636h-1.699v-11.636zm6.252 9.363v-1.42l5.029-7.943h1.119v2.091h-.71l-3.597 5.693v.091h6.892v1.488zm5.517 2.273v-2.705l.012-.647v-8.284h1.665v11.636z" fill="#b9b9b9"/><path d="m40 385h375v48h-375z" fill="#fff"/><path d="m40 432h375v1h-375z" fill="#f8f8f8"/><g fill="#262626"><path d="m40 431h187.5v2h-187.5z"/><path d="m122.614 416v-11.636h1.756v10.125h5.273v1.511zm11.435.193c-.553 0-1.053-.102-1.5-.307-.447-.208-.801-.509-1.062-.903-.258-.394-.387-.877-.387-1.449 0-.492.095-.898.284-1.216.19-.318.445-.57.767-.756.322-.185.682-.325 1.08-.42s.803-.167 1.216-.216c.522-.06.947-.11 1.272-.148.326-.041.563-.108.711-.198.147-.091.221-.239.221-.444v-.039c0-.497-.14-.881-.42-1.154-.277-.273-.69-.409-1.239-.409-.572 0-1.023.127-1.352.381-.326.25-.551.528-.676.835l-1.597-.364c.19-.53.466-.958.83-1.284.367-.329.79-.568 1.267-.716.477-.151.979-.227 1.505-.227.349 0 .718.042 1.108.125.394.08.762.227 1.103.443.344.216.627.525.846.926.22.398.33.915.33 1.552v5.795h-1.659v-1.193h-.068c-.11.22-.275.435-.495.648-.219.212-.502.388-.846.528-.345.14-.758.21-1.239.21zm.369-1.363c.47 0 .872-.093 1.205-.279.337-.185.593-.428.767-.727.178-.303.267-.627.267-.972v-1.125c-.061.061-.178.118-.352.171-.171.049-.366.093-.586.13-.219.034-.433.067-.642.097-.208.027-.382.049-.522.068-.33.042-.631.112-.904.21-.269.099-.485.241-.647.427-.16.181-.239.424-.239.727 0 .42.155.738.466.954.31.212.706.319 1.187.319zm6.337 1.17v-11.636h1.699v4.324h.102c.099-.182.241-.393.426-.631.186-.239.443-.447.773-.625.33-.182.765-.273 1.307-.273.704 0 1.333.178 1.886.534s.987.869 1.301 1.54c.318.67.478 1.477.478 2.42 0 .944-.158 1.752-.472 2.427-.314.67-.746 1.187-1.295 1.551-.55.36-1.177.539-1.881.539-.53 0-.964-.089-1.301-.267-.334-.178-.595-.386-.784-.625-.19-.238-.336-.45-.438-.636h-.142v1.358zm1.665-4.364c0 .614.089 1.152.267 1.614s.435.824.773 1.085c.337.258.75.387 1.238.387.508 0 .932-.135 1.273-.404.341-.273.598-.642.773-1.108.178-.466.267-.99.267-1.574 0-.575-.087-1.092-.262-1.551-.17-.458-.428-.82-.772-1.085-.341-.265-.767-.398-1.279-.398-.492 0-.909.127-1.25.381-.337.254-.593.608-.767 1.062-.174.455-.261.985-.261 1.591zm11.976 4.54c-.86 0-1.601-.184-2.222-.551-.617-.371-1.095-.892-1.432-1.563-.333-.674-.5-1.464-.5-2.369 0-.894.167-1.682.5-2.363.337-.682.807-1.214 1.409-1.597.606-.383 1.315-.574 2.125-.574.493 0 .97.082 1.432.244.462.163.877.419 1.244.767.368.349.658.802.87 1.358.212.553.318 1.226.318 2.017v.603h-6.938v-1.273h5.273c0-.447-.091-.843-.273-1.187-.181-.349-.437-.624-.767-.824-.325-.201-.708-.302-1.147-.302-.478 0-.894.118-1.25.353-.353.231-.625.534-.819.909-.189.371-.284.774-.284 1.21v.994c0 .584.103 1.08.307 1.489.209.409.498.722.87.938.371.212.804.318 1.301.318.322 0 .615-.046.88-.137.265-.094.495-.234.688-.42s.341-.415.443-.688l1.608.29c-.129.474-.36.888-.693 1.244-.33.353-.745.627-1.245.824-.496.194-1.062.29-1.698.29zm7.328-11.812v11.636h-1.699v-11.636zm10.912 0v11.636h-1.762v-9.875h-.068l-2.784 1.818v-1.682l2.903-1.897z"/><path d="m113.16 402.61c-1.061-1.062-2.469-1.708-3.966-1.82-1.498-.112-2.986.318-4.194 1.21-1.272-.946-2.856-1.375-4.432-1.201-1.5759.175-3.0273.94-4.0618 2.142-1.0344 1.201-1.5751 2.751-1.5131 4.335.062 1.585.722 3.087 1.8472 4.204l7.4497 7.45c.093.094.204.168.326.219s.252.077.384.077.263-.026.385-.077.232-.125.325-.219l7.45-7.45c.583-.582 1.045-1.274 1.36-2.035.316-.761.478-1.576.478-2.4s-.162-1.639-.478-2.4c-.315-.761-.777-1.453-1.36-2.035zm-1.41 7.46-6.75 6.74-6.7497-6.74c-.5948-.597-1.0001-1.357-1.1648-2.184-.1647-.826-.0817-1.683.2387-2.463s.864-1.447 1.5624-1.919c.6985-.472 1.5204-.728 2.3634-.734 1.126.003 2.205.452 3 1.25.093.094.204.168.326.219s.252.077.384.077.263-.026.385-.077.232-.125.325-.219c.819-.709 1.876-1.081 2.958-1.04s2.108.491 2.87 1.26c.763.769 1.205 1.799 1.237 2.881.032 1.083-.349 2.137-1.065 2.949z"/></g><path d="m310.489 416v-11.636h1.756v10.125h5.273v1.511zm11.435.193c-.553 0-1.053-.102-1.5-.307-.447-.208-.801-.509-1.062-.903-.258-.394-.387-.877-.387-1.449 0-.492.095-.898.284-1.216.19-.318.445-.57.767-.756.322-.185.682-.325 1.08-.42s.803-.167 1.216-.216c.522-.06.947-.11 1.272-.148.326-.041.563-.108.711-.198.147-.091.221-.239.221-.444v-.039c0-.497-.14-.881-.42-1.154-.277-.273-.69-.409-1.239-.409-.572 0-1.023.127-1.352.381-.326.25-.551.528-.676.835l-1.597-.364c.19-.53.466-.958.83-1.284.367-.329.79-.568 1.267-.716.477-.151.979-.227 1.505-.227.349 0 .718.042 1.108.125.394.08.762.227 1.103.443.344.216.627.525.846.926.22.398.33.915.33 1.552v5.795h-1.659v-1.193h-.068c-.11.22-.275.435-.495.648-.219.212-.502.388-.846.528-.345.14-.758.21-1.239.21zm.369-1.363c.47 0 .872-.093 1.205-.279.337-.185.593-.428.767-.727.178-.303.267-.627.267-.972v-1.125c-.061.061-.178.118-.352.171-.171.049-.366.093-.586.13-.219.034-.433.067-.642.097-.208.027-.382.049-.522.068-.33.042-.631.112-.904.21-.269.099-.485.241-.647.427-.16.181-.239.424-.239.727 0 .42.155.738.466.954.31.212.706.319 1.187.319zm6.337 1.17v-11.636h1.699v4.324h.102c.099-.182.241-.393.426-.631.186-.239.443-.447.773-.625.33-.182.765-.273 1.307-.273.704 0 1.333.178 1.886.534s.987.869 1.301 1.54c.318.67.478 1.477.478 2.42 0 .944-.158 1.752-.472 2.427-.314.67-.746 1.187-1.295 1.551-.55.36-1.177.539-1.881.539-.53 0-.964-.089-1.301-.267-.334-.178-.595-.386-.784-.625-.19-.238-.336-.45-.438-.636h-.142v1.358zm1.665-4.364c0 .614.089 1.152.267 1.614s.435.824.773 1.085c.337.258.75.387 1.238.387.508 0 .932-.135 1.273-.404.341-.273.598-.642.773-1.108.178-.466.267-.99.267-1.574 0-.575-.087-1.092-.262-1.551-.17-.458-.428-.82-.772-1.085-.341-.265-.767-.398-1.279-.398-.492 0-.909.127-1.25.381-.337.254-.593.608-.767 1.062-.174.455-.261.985-.261 1.591zm11.976 4.54c-.86 0-1.601-.184-2.222-.551-.617-.371-1.095-.892-1.432-1.563-.333-.674-.5-1.464-.5-2.369 0-.894.167-1.682.5-2.363.337-.682.807-1.214 1.409-1.597.606-.383 1.315-.574 2.125-.574.493 0 .97.082 1.432.244.462.163.877.419 1.244.767.368.349.658.802.87 1.358.212.553.318 1.226.318 2.017v.603h-6.938v-1.273h5.273c0-.447-.091-.843-.273-1.187-.181-.349-.437-.624-.767-.824-.325-.201-.708-.302-1.147-.302-.478 0-.894.118-1.25.353-.353.231-.625.534-.819.909-.189.371-.284.774-.284 1.21v.994c0 .584.103 1.08.307 1.489.209.409.498.722.87.938.371.212.804.318 1.301.318.322 0 .615-.046.88-.137.265-.094.495-.234.688-.42s.341-.415.443-.688l1.608.29c-.129.474-.36.888-.693 1.244-.33.353-.745.627-1.245.824-.496.194-1.062.29-1.698.29zm7.328-11.812v11.636h-1.699v-11.636zm6.497 11.636v-1.273l3.937-4.079c.421-.443.767-.832 1.04-1.165.277-.337.483-.657.619-.96.137-.303.205-.625.205-.966 0-.387-.091-.72-.273-1-.182-.284-.43-.502-.744-.654-.314-.155-.669-.233-1.063-.233-.416 0-.78.086-1.09.256-.311.171-.55.411-.716.722-.167.31-.25.674-.25 1.091h-1.676c0-.709.162-1.328.488-1.858.326-.531.773-.942 1.341-1.233.568-.296 1.214-.443 1.938-.443.731 0 1.375.145 1.931.437.561.288.998.682 1.313 1.182.314.496.471 1.057.471 1.682 0 .432-.081.854-.244 1.267-.159.413-.437.873-.835 1.38-.398.504-.951 1.116-1.659 1.836l-2.313 2.42v.085h5.239v1.506z" fill="#b9b9b9"/><path d="m300.16 402.61c-1.061-1.062-2.469-1.708-3.966-1.82-1.498-.112-2.986.318-4.194 1.21-1.272-.946-2.856-1.375-4.432-1.201-1.576.175-3.027.94-4.062 2.142-1.034 1.201-1.575 2.751-1.513 4.335.062 1.585.722 3.087 1.847 4.204l7.45 7.45c.093.094.204.168.326.219s.252.077.384.077.263-.026.385-.077.232-.125.325-.219l7.45-7.45c.583-.582 1.045-1.274 1.36-2.035.316-.761.478-1.576.478-2.4s-.162-1.639-.478-2.4c-.315-.761-.777-1.453-1.36-2.035zm-1.41 7.46-6.75 6.74-6.75-6.74c-.595-.597-1-1.357-1.164-2.184-.165-.826-.082-1.683.238-2.463.321-.78.864-1.447 1.563-1.919.698-.472 1.52-.728 2.363-.734 1.126.003 2.205.452 3 1.25.093.094.204.168.326.219s.252.077.384.077.263-.026.385-.077.232-.125.325-.219c.819-.709 1.876-1.081 2.958-1.04s2.108.491 2.87 1.26c.763.769 1.205 1.799 1.237 2.881.032 1.083-.349 2.137-1.065 2.949z" fill="#b9b9b9"/><path d="m40 470h375v48h-375z" fill="#fff"/><path d="m40 517h375v1h-375z" fill="#f8f8f8"/><g fill="#262626"><path d="m40 516h125v2h-125z"/><path d="m91.6143 500v-11.636h1.7557v10.125h5.2728v1.511zm11.4347.193c-.553 0-1.053-.102-1.5-.307-.447-.208-.801-.509-1.062-.903-.258-.394-.387-.877-.387-1.449 0-.492.095-.898.284-1.216.19-.318.445-.57.767-.756.322-.185.682-.325 1.08-.42s.803-.167 1.216-.216c.522-.06.947-.11 1.272-.148.326-.041.563-.108.711-.198.147-.091.221-.239.221-.444v-.039c0-.497-.14-.881-.42-1.154-.277-.273-.69-.409-1.239-.409-.572 0-1.023.127-1.352.381-.326.25-.551.528-.676.835l-1.597-.364c.19-.53.466-.958.83-1.284.367-.329.79-.568 1.267-.716.477-.151.979-.227 1.505-.227.349 0 .718.042 1.108.125.394.08.762.227 1.103.443.344.216.627.525.846.926.22.398.33.915.33 1.552v5.795h-1.659v-1.193h-.068c-.11.22-.275.435-.495.648-.219.212-.502.388-.846.528-.345.14-.758.21-1.239.21zm.369-1.363c.47 0 .872-.093 1.205-.279.337-.185.593-.428.767-.727.178-.303.267-.627.267-.972v-1.125c-.061.061-.178.118-.352.171-.171.049-.366.093-.586.13-.219.034-.433.067-.642.097-.208.027-.382.049-.522.068-.33.042-.631.112-.904.21-.269.099-.485.241-.647.427-.16.181-.239.424-.239.727 0 .42.155.738.466.954.31.212.706.319 1.187.319zm6.337 1.17v-11.636h1.699v4.324h.102c.099-.182.241-.393.426-.631.186-.239.443-.447.773-.625.33-.182.765-.273 1.307-.273.704 0 1.333.178 1.886.534s.987.869 1.301 1.54c.318.67.478 1.477.478 2.42 0 .944-.158 1.752-.472 2.427-.314.67-.746 1.187-1.295 1.551-.55.36-1.177.539-1.881.539-.53 0-.964-.089-1.301-.267-.334-.178-.595-.386-.784-.625-.19-.238-.336-.45-.438-.636h-.142v1.358zm1.665-4.364c0 .614.089 1.152.267 1.614s.435.824.773 1.085c.337.258.75.387 1.238.387.508 0 .932-.135 1.273-.404.341-.273.598-.642.773-1.108.178-.466.267-.99.267-1.574 0-.575-.087-1.092-.262-1.551-.17-.458-.428-.82-.772-1.085-.341-.265-.767-.398-1.279-.398-.492 0-.909.127-1.25.381-.337.254-.593.608-.767 1.062-.174.455-.261.985-.261 1.591zm11.976 4.54c-.86 0-1.601-.184-2.222-.551-.617-.371-1.095-.892-1.432-1.563-.333-.674-.5-1.464-.5-2.369 0-.894.167-1.682.5-2.363.337-.682.807-1.214 1.409-1.597.606-.383 1.315-.574 2.125-.574.493 0 .97.082 1.432.244.462.163.877.419 1.244.767.368.349.658.802.87 1.358.212.553.318 1.226.318 2.017v.603h-6.938v-1.273h5.273c0-.447-.091-.843-.273-1.187-.181-.349-.437-.624-.767-.824-.325-.201-.708-.302-1.147-.302-.478 0-.894.118-1.25.353-.353.231-.625.534-.819.909-.189.371-.284.774-.284 1.21v.994c0 .584.103 1.08.307 1.489.209.409.498.722.87.938.371.212.804.318 1.301.318.322 0 .615-.046.88-.137.265-.094.495-.234.688-.42s.341-.415.443-.688l1.608.29c-.129.474-.36.888-.693 1.244-.33.353-.745.627-1.245.824-.496.194-1.062.29-1.698.29zm7.328-11.812v11.636h-1.699v-11.636zm10.912 0v11.636h-1.762v-9.875h-.068l-2.784 1.818v-1.682l2.903-1.897z"/><path d="m82.1603 486.61c-1.0617-1.062-2.4693-1.708-3.9668-1.82s-2.9854.318-4.1932 1.21c-1.2724-.946-2.856-1.375-4.4321-1.201-1.5761.175-3.0275.94-4.062 2.142-1.0344 1.201-1.5751 2.751-1.5131 4.335.062 1.585.722 3.087 1.8472 4.204l7.45 7.45c.0929.094.2035.168.3254.219s.2526.077.3846.077.2627-.026.3846-.077c.1218-.051.2324-.125.3254-.219l7.45-7.45c.5826-.582 1.0448-1.274 1.3602-2.035.3153-.761.4777-1.576.4777-2.4s-.1624-1.639-.4777-2.4c-.3154-.761-.7776-1.453-1.3602-2.035zm-1.41 7.46-6.75 6.74-6.75-6.74c-.5948-.597-1.0001-1.357-1.1648-2.184-.1647-.826-.0817-1.683.2387-2.463s.864-1.447 1.5624-1.919c.6985-.472 1.5207-.728 2.3637-.734 1.1261.003 2.2051.452 3 1.25.0929.094.2035.168.3254.219s.2526.077.3846.077.2627-.026.3846-.077c.1218-.051.2324-.125.3254-.219.8183-.709 1.8755-1.081 2.9575-1.04 1.0821.041 2.1082.491 2.8707 1.26.7624.769 1.2044 1.799 1.2363 2.881.0319 1.083-.3486 2.137-1.0645 2.949z"/></g><g fill="#b9b9b9"><path d="m340.278 500v-11.636h1.756v10.125h5.273v1.511zm11.435.193c-.553 0-1.053-.102-1.5-.307-.447-.208-.801-.509-1.062-.903-.258-.394-.387-.877-.387-1.449 0-.492.095-.898.284-1.216.19-.318.445-.57.767-.756.322-.185.682-.325 1.08-.42s.803-.167 1.216-.216c.523-.06.947-.11 1.273-.148.325-.041.562-.108.71-.198.147-.091.221-.239.221-.444v-.039c0-.497-.14-.881-.42-1.154-.277-.273-.69-.409-1.239-.409-.572 0-1.022.127-1.352.381-.326.25-.551.528-.676.835l-1.597-.364c.19-.53.466-.958.83-1.284.367-.329.79-.568 1.267-.716.477-.151.979-.227 1.506-.227.348 0 .717.042 1.107.125.394.08.762.227 1.103.443.344.216.627.525.846.926.22.398.33.915.33 1.552v5.795h-1.659v-1.193h-.068c-.11.22-.275.435-.495.648-.219.212-.502.388-.846.528-.345.14-.758.21-1.239.21zm.369-1.363c.47 0 .872-.093 1.205-.279.337-.185.593-.428.767-.727.178-.303.267-.627.267-.972v-1.125c-.061.061-.178.118-.352.171-.171.049-.366.093-.585.13-.22.034-.434.067-.643.097-.208.027-.382.049-.522.068-.33.042-.631.112-.904.21-.269.099-.485.241-.647.427-.159.181-.239.424-.239.727 0 .42.155.738.466.954.31.212.706.319 1.187.319zm6.337 1.17v-11.636h1.699v4.324h.102c.099-.182.241-.393.426-.631.186-.239.443-.447.773-.625.33-.182.765-.273 1.307-.273.704 0 1.333.178 1.886.534s.987.869 1.301 1.54c.319.67.478 1.477.478 2.42 0 .944-.158 1.752-.472 2.427-.314.67-.746 1.187-1.295 1.551-.55.36-1.177.539-1.881.539-.53 0-.964-.089-1.301-.267-.334-.178-.595-.386-.784-.625-.19-.238-.336-.45-.438-.636h-.142v1.358zm1.665-4.364c0 .614.089 1.152.267 1.614s.435.824.773 1.085c.337.258.75.387 1.238.387.508 0 .932-.135 1.273-.404.341-.273.598-.642.773-1.108.178-.466.267-.99.267-1.574 0-.575-.087-1.092-.262-1.551-.17-.458-.428-.82-.772-1.085-.341-.265-.767-.398-1.279-.398-.492 0-.909.127-1.25.381-.337.254-.593.608-.767 1.062-.174.455-.261.985-.261 1.591zm11.976 4.54c-.86 0-1.601-.184-2.222-.551-.617-.371-1.095-.892-1.432-1.563-.333-.674-.5-1.464-.5-2.369 0-.894.167-1.682.5-2.363.337-.682.807-1.214 1.409-1.597.606-.383 1.315-.574 2.125-.574.493 0 .97.082 1.432.244.462.163.877.419 1.244.767.368.349.658.802.87 1.358.212.553.318 1.226.318 2.017v.603h-6.938v-1.273h5.273c0-.447-.091-.843-.273-1.187-.181-.349-.437-.624-.767-.824-.325-.201-.708-.302-1.147-.302-.478 0-.894.118-1.25.353-.353.231-.625.534-.818.909-.19.371-.285.774-.285 1.21v.994c0 .584.103 1.08.307 1.489.209.409.498.722.87.938.371.212.804.318 1.301.318.322 0 .615-.046.88-.137.266-.094.495-.234.688-.42s.341-.415.443-.688l1.608.29c-.129.474-.36.888-.693 1.244-.33.353-.744.627-1.244.824-.497.194-1.063.29-1.699.29zm7.328-11.812v11.636h-1.699v-11.636zm10.548 11.795c-.78 0-1.477-.134-2.091-.403-.61-.269-1.093-.642-1.449-1.12-.352-.481-.541-1.038-.568-1.67h1.784c.023.345.138.644.347.898.212.25.488.443.829.579.341.137.72.205 1.137.205.458 0 .863-.08 1.216-.239.356-.159.634-.381.835-.665.201-.288.301-.619.301-.994 0-.39-.1-.733-.301-1.028-.197-.3-.487-.535-.869-.705-.379-.17-.838-.256-1.375-.256h-.983v-1.431h.983c.431 0 .81-.078 1.136-.233.329-.156.587-.372.773-.648.185-.28.278-.608.278-.983 0-.36-.081-.672-.244-.938-.159-.269-.387-.479-.682-.63-.292-.152-.636-.228-1.034-.228-.379 0-.733.071-1.063.211-.325.136-.591.333-.795.591-.205.253-.315.558-.33.914h-1.699c.019-.628.205-1.181.557-1.659.356-.477.826-.85 1.409-1.119.584-.269 1.231-.403 1.944-.403.746 0 1.39.145 1.931.437.546.288.966.672 1.262 1.153.299.482.447 1.008.443 1.58.004.652-.178 1.205-.546 1.659-.363.455-.848.76-1.454.915v.091c.773.117 1.371.424 1.795.92.428.496.641 1.112.637 1.847.004.64-.175 1.214-.534 1.721-.356.508-.843.908-1.461 1.199-.617.288-1.323.432-2.119.432z"/><path d="m331.16 486.61c-1.061-1.062-2.469-1.708-3.966-1.82-1.498-.112-2.986.318-4.194 1.21-1.272-.946-2.856-1.375-4.432-1.201-1.576.175-3.027.94-4.062 2.142-1.034 1.201-1.575 2.751-1.513 4.335.062 1.585.722 3.087 1.847 4.204l7.45 7.45c.093.094.204.168.326.219s.252.077.384.077.263-.026.385-.077.232-.125.325-.219l7.45-7.45c.583-.582 1.045-1.274 1.36-2.035.316-.761.478-1.576.478-2.4s-.162-1.639-.478-2.4c-.315-.761-.777-1.453-1.36-2.035zm-1.41 7.46-6.75 6.74-6.75-6.74c-.595-.597-1-1.357-1.164-2.184-.165-.826-.082-1.683.238-2.463.321-.78.864-1.447 1.563-1.919.698-.472 1.52-.728 2.363-.734 1.126.003 2.205.452 3 1.25.093.094.204.168.326.219s.252.077.384.077.263-.026.385-.077.232-.125.325-.219c.819-.709 1.876-1.081 2.958-1.04s2.108.491 2.87 1.26c.763.769 1.205 1.799 1.237 2.881.032 1.083-.349 2.137-1.065 2.949z"/><path d="m216.489 500v-11.636h1.756v10.125h5.273v1.511zm11.435.193c-.553 0-1.053-.102-1.5-.307-.447-.208-.801-.509-1.062-.903-.258-.394-.387-.877-.387-1.449 0-.492.095-.898.284-1.216.19-.318.445-.57.767-.756.322-.185.682-.325 1.08-.42s.803-.167 1.216-.216c.522-.06.947-.11 1.272-.148.326-.041.563-.108.711-.198.147-.091.221-.239.221-.444v-.039c0-.497-.14-.881-.42-1.154-.277-.273-.69-.409-1.239-.409-.572 0-1.023.127-1.352.381-.326.25-.551.528-.676.835l-1.597-.364c.19-.53.466-.958.83-1.284.367-.329.79-.568 1.267-.716.477-.151.979-.227 1.505-.227.349 0 .718.042 1.108.125.394.08.762.227 1.103.443.344.216.627.525.846.926.22.398.33.915.33 1.552v5.795h-1.659v-1.193h-.068c-.11.22-.275.435-.495.648-.219.212-.502.388-.846.528-.345.14-.758.21-1.239.21zm.369-1.363c.47 0 .872-.093 1.205-.279.337-.185.593-.428.767-.727.178-.303.267-.627.267-.972v-1.125c-.061.061-.178.118-.352.171-.171.049-.366.093-.586.13-.219.034-.433.067-.642.097-.208.027-.382.049-.522.068-.33.042-.631.112-.904.21-.269.099-.485.241-.647.427-.16.181-.239.424-.239.727 0 .42.155.738.466.954.31.212.706.319 1.187.319zm6.337 1.17v-11.636h1.699v4.324h.102c.099-.182.241-.393.426-.631.186-.239.443-.447.773-.625.33-.182.765-.273 1.307-.273.704 0 1.333.178 1.886.534s.987.869 1.301 1.54c.318.67.478 1.477.478 2.42 0 .944-.158 1.752-.472 2.427-.314.67-.746 1.187-1.295 1.551-.55.36-1.177.539-1.881.539-.53 0-.964-.089-1.301-.267-.334-.178-.595-.386-.784-.625-.19-.238-.336-.45-.438-.636h-.142v1.358zm1.665-4.364c0 .614.089 1.152.267 1.614s.435.824.773 1.085c.337.258.75.387 1.238.387.508 0 .932-.135 1.273-.404.341-.273.598-.642.773-1.108.178-.466.267-.99.267-1.574 0-.575-.087-1.092-.262-1.551-.17-.458-.428-.82-.772-1.085-.341-.265-.767-.398-1.279-.398-.492 0-.909.127-1.25.381-.337.254-.593.608-.767 1.062-.174.455-.261.985-.261 1.591zm11.976 4.54c-.86 0-1.601-.184-2.222-.551-.617-.371-1.095-.892-1.432-1.563-.333-.674-.5-1.464-.5-2.369 0-.894.167-1.682.5-2.363.337-.682.807-1.214 1.409-1.597.606-.383 1.315-.574 2.125-.574.493 0 .97.082 1.432.244.462.163.877.419 1.244.767.368.349.658.802.87 1.358.212.553.318 1.226.318 2.017v.603h-6.938v-1.273h5.273c0-.447-.091-.843-.273-1.187-.181-.349-.437-.624-.767-.824-.325-.201-.708-.302-1.147-.302-.478 0-.894.118-1.25.353-.353.231-.625.534-.819.909-.189.371-.284.774-.284 1.21v.994c0 .584.103 1.08.307 1.489.209.409.498.722.87.938.371.212.804.318 1.301.318.322 0 .615-.046.88-.137.265-.094.495-.234.688-.42s.341-.415.443-.688l1.608.29c-.129.474-.36.888-.693 1.244-.33.353-.745.627-1.245.824-.496.194-1.062.29-1.698.29zm7.328-11.812v11.636h-1.699v-11.636zm6.497 11.636v-1.273l3.937-4.079c.421-.443.767-.832 1.04-1.165.277-.337.483-.657.619-.96.137-.303.205-.625.205-.966 0-.387-.091-.72-.273-1-.182-.284-.43-.502-.744-.654-.314-.155-.669-.233-1.063-.233-.416 0-.78.086-1.09.256-.311.171-.55.411-.716.722-.167.31-.25.674-.25 1.091h-1.676c0-.709.162-1.328.488-1.858.326-.531.773-.942 1.341-1.233.568-.296 1.214-.443 1.938-.443.731 0 1.375.145 1.931.437.561.288.998.682 1.313 1.182.314.496.471 1.057.471 1.682 0 .432-.081.854-.244 1.267-.159.413-.437.873-.835 1.38-.398.504-.951 1.116-1.659 1.836l-2.313 2.42v.085h5.239v1.506z"/><path d="m207.16 486.61c-1.061-1.062-2.469-1.708-3.966-1.82-1.498-.112-2.986.318-4.194 1.21-1.272-.946-2.856-1.375-4.432-1.201-1.576.175-3.027.94-4.062 2.142-1.034 1.201-1.575 2.751-1.513 4.335.062 1.585.722 3.087 1.847 4.204l7.45 7.45c.093.094.204.168.326.219s.252.077.384.077.263-.026.385-.077.232-.125.325-.219l7.45-7.45c.583-.582 1.045-1.274 1.36-2.035.316-.761.478-1.576.478-2.4s-.162-1.639-.478-2.4c-.315-.761-.777-1.453-1.36-2.035zm-1.41 7.46-6.75 6.74-6.75-6.74c-.595-.597-1-1.357-1.164-2.184-.165-.826-.082-1.683.238-2.463.321-.78.864-1.447 1.563-1.919.698-.472 1.52-.728 2.363-.734 1.126.003 2.205.452 3 1.25.093.094.204.168.326.219s.252.077.384.077.263-.026.385-.077.232-.125.325-.219c.819-.709 1.876-1.081 2.958-1.04s2.108.491 2.87 1.26c.763.769 1.205 1.799 1.237 2.881.032 1.083-.349 2.137-1.065 2.949z"/></g><path d="m40.8523 50.5881v-3.0426h14.3352v3.0426h-5.3437v14.4119h-3.6478v-14.4119zm18.5795 14.6591c-.8352 0-1.5795-.1449-2.2329-.4347-.6534-.2955-1.1705-.7301-1.5512-1.304-.375-.5795-.5625-1.3011-.5625-2.1647 0-.7273.1336-1.3381.4006-1.8324.267-.4944.6307-.8921 1.0909-1.1932.4602-.3012.983-.5284 1.5682-.6818.5909-.1534 1.2102-.2614 1.8579-.3239.7614-.0795 1.375-.1534 1.841-.2216.4659-.0739.8039-.1818 1.0142-.3239.2102-.142.3153-.3522.3153-.6306v-.0512c0-.5397-.1705-.9574-.5114-1.2528-.3352-.2955-.8125-.4432-1.4318-.4432-.6534 0-1.1733.1449-1.5596.4347-.3864.2841-.6421.642-.7671 1.0738l-3.3579-.2727c.1704-.7955.5056-1.483 1.0056-2.0625.5-.5852 1.1449-1.0341 1.9347-1.3466.7955-.3182 1.7159-.4773 2.7614-.4773.7272 0 1.4233.0853 2.088.2557.6705.1705 1.2642.4347 1.7813.7926.5227.358.9346.8182 1.2358 1.3807.3011.5568.4517 1.2244.4517 2.0029v8.8295h-3.4432v-1.8153h-.1023c-.2102.4091-.4915.7698-.8437 1.0823-.3523.3069-.7756.5483-1.2699.7245-.4943.1704-1.0654.2557-1.7131.2557zm1.0398-2.5057c.5341 0 1.0057-.1051 1.4148-.3154.4091-.2159.7301-.5056.963-.8693.233-.3636.3495-.7756.3495-1.2358v-1.3892c-.1137.0739-.2699.1421-.4688.2046-.1932.0568-.4119.1108-.6562.1619-.2444.0454-.4887.0881-.733.1278-.2443.0341-.4659.0654-.6648.0938-.4261.0625-.7983.1619-1.1164.2983-.3182.1363-.5654.321-.7415.554-.1762.2272-.2642.5113-.2642.8522 0 .4944.179.8722.5369 1.1336.3636.2556.8239.3835 1.3807.3835zm9.2173 2.2585v-17.4545h3.6307v6.5625h.1108c.1591-.3523.3892-.7103.6903-1.0739.3069-.3693.7046-.6761 1.1932-.9205.4943-.25 1.108-.375 1.8409-.375.9546 0 1.8353.25 2.6421.75.8068.4944 1.4517 1.2415 1.9346 2.2415.483.9943.7245 2.2415.7245 3.7415 0 1.4602-.2358 2.6932-.7074 3.6989-.4659 1-1.1023 1.7585-1.9091 2.2755-.8011.5114-1.6989.7671-2.6932.7671-.7045 0-1.304-.1165-1.7983-.3495-.4886-.2329-.8892-.5255-1.2017-.8778-.3125-.358-.5511-.7188-.7159-1.0824h-.1619v2.0966zm3.554-6.5455c0 .7785.108 1.4574.3239 2.037.2159.5795.5284 1.0312.9375 1.3551.4091.3182.9062.4773 1.4914.4773.5909 0 1.0909-.162 1.5-.4858.4091-.3296.7188-.7841.929-1.3637.2159-.5852.3239-1.2585.3239-2.0199 0-.7556-.1051-1.4204-.3154-1.9943-.2102-.5738-.5198-1.0227-.9289-1.3466-.4091-.3238-.912-.4858-1.5086-.4858-.5909 0-1.0909.1563-1.5.4688-.4034.3125-.713.7557-.9289 1.3295-.2159.5739-.3239 1.25-.3239 2.0284z" fill="#262626"/></svg>